<?xml version="1.0" encoding="UTF-8" standalone="no"?>
<svg
   width="32"
   version="1.1"
   height="32"
   viewBox="0 0 32 32"
   id="svg15"
   sodipodi:docname="folder-violet.svg"
   inkscape:version="1.2.1 (9c6d41e410, 2022-07-14)"
   xmlns:inkscape="http://www.inkscape.org/namespaces/inkscape"
   xmlns:sodipodi="http://sodipodi.sourceforge.net/DTD/sodipodi-0.dtd"
   xmlns="http://www.w3.org/2000/svg"
   xmlns:svg="http://www.w3.org/2000/svg"
   xmlns:rdf="http://www.w3.org/1999/02/22-rdf-syntax-ns#"
   xmlns:cc="http://creativecommons.org/ns#"
   xmlns:dc="http://purl.org/dc/elements/1.1/">
  <sodipodi:namedview
     pagecolor="#ffffff"
     bordercolor="#666666"
     borderopacity="1"
     objecttolerance="10"
     gridtolerance="10"
     guidetolerance="10"
     inkscape:pageopacity="0"
     inkscape:pageshadow="2"
     inkscape:window-width="1920"
     inkscape:window-height="1002"
     id="namedview17"
     showgrid="false"
     inkscape:zoom="9.8125"
     inkscape:cx="-8.2038217"
     inkscape:cy="2.2929936"
     inkscape:window-x="0"
     inkscape:window-y="0"
     inkscape:window-maximized="1"
     inkscape:current-layer="layer1"
     inkscape:document-rotation="0"
     inkscape:showpageshadow="2"
     inkscape:pagecheckerboard="0"
     inkscape:deskcolor="#d1d1d1" />
  <defs
     id="defs5455">
    <linearGradient
       id="linearGradient4194">
      <stop
         style="stop-color:#8e44ad"
         id="stop4196" />
      <stop
         offset="1"
         style="stop-color:#9d52bd"
         id="stop4198" />
    </linearGradient>
  </defs>
  <metadata
     id="metadata5458">
    <rdf:RDF>
      <cc:Work
         rdf:about="">
        <dc:format>image/svg+xml</dc:format>
        <dc:type
           rdf:resource="http://purl.org/dc/dcmitype/StillImage" />
      </cc:Work>
    </rdf:RDF>
  </metadata>
  <g
     inkscape:label="Capa 1"
     inkscape:groupmode="layer"
     id="layer1"
     transform="translate(-384.57143,-515.798)">
    <path
       style="fill:#88c0d0;fill-opacity:1;stroke-width:0.0802091"
       d="m 400.57019,522.2468 c -0.37217,0 -0.81143,-0.24718 -0.97828,-0.54652 l -0.74837,-1.34534 c -0.16604,-0.29934 -0.60665,-0.54363 -0.97864,-0.54423 l -8.23478,-0.0127 c -1.2155,-0.002 -1.57753,0.44329 -1.57721,1.42454 l 1.4e-4,0.41351 v 1.21695 l -1.4e-4,16.04706 c 0,0.43778 0.97463,1.46937 1.44445,1.46937 h 22.14814 c 0.48149,0 1.44445,-0.97958 1.44445,-1.46937 v -15.18382 c 0,-0.97963 -0.48148,-1.46943 -1.42084,-1.46943 z"
       id="path4-3-2"
       sodipodi:nodetypes="sccsssccscsssss" />
    <path
       style="fill:#434c5e;fill-opacity:1;stroke-width:0.0824549"
       d="m 411.16402,528.32036 c 0,0.70043 -0.32854,1.27349 -1.08014,1.27349 h -19.06565 c -0.75159,0 -1.03939,-0.57306 -1.03939,-1.27349 v -3.62452 c 0,-0.97961 0.48148,-1.46945 1.44444,-1.46945 h 18.2963 c 0.96296,0 1.44444,0.48984 1.44444,1.46945 z"
       id="path8-6-4"
       sodipodi:nodetypes="sssssssss" />
    <path
       style="fill:#c091d4;fill-opacity:1;stroke-width:0.0927335"
       d="m 410.68254,525.18564 h -20.22222 c -1.92593,0 -2.88889,0.97958 -2.88889,2.93878 v 13.22467 c 0,1.46938 0.96296,2.44896 2.40741,2.44896 h 21.18518 c 1.44445,0 2.40741,-0.97958 2.40741,-2.44896 v -13.22467 c 0,-1.9592 -0.96296,-2.93878 -2.88889,-2.93878 z"
       id="path10-7"
       sodipodi:nodetypes="sssssssss" />
  </g>
</svg>
