<?xml version="1.0" encoding="UTF-8" standalone="no"?>
<svg
   width="32"
   version="1.1"
   height="32"
   viewBox="0 0 32 32"
   id="svg17"
   sodipodi:docname="folder-publicshare.svg"
   inkscape:version="1.2.1 (9c6d41e410, 2022-07-14)"
   xmlns:inkscape="http://www.inkscape.org/namespaces/inkscape"
   xmlns:sodipodi="http://sodipodi.sourceforge.net/DTD/sodipodi-0.dtd"
   xmlns:xlink="http://www.w3.org/1999/xlink"
   xmlns="http://www.w3.org/2000/svg"
   xmlns:svg="http://www.w3.org/2000/svg"
   xmlns:rdf="http://www.w3.org/1999/02/22-rdf-syntax-ns#"
   xmlns:cc="http://creativecommons.org/ns#"
   xmlns:dc="http://purl.org/dc/elements/1.1/">
  <sodipodi:namedview
     pagecolor="#ffffff"
     bordercolor="#666666"
     borderopacity="1"
     objecttolerance="10"
     gridtolerance="10"
     guidetolerance="10"
     inkscape:pageopacity="0"
     inkscape:pageshadow="2"
     inkscape:window-width="1920"
     inkscape:window-height="1002"
     id="namedview19"
     showgrid="false"
     inkscape:zoom="9.8125"
     inkscape:cx="-8.2038217"
     inkscape:cy="1.477707"
     inkscape:window-x="0"
     inkscape:window-y="0"
     inkscape:window-maximized="1"
     inkscape:current-layer="layer1"
     inkscape:document-rotation="0"
     inkscape:showpageshadow="2"
     inkscape:pagecheckerboard="0"
     inkscape:deskcolor="#d1d1d1" />
  <defs
     id="defs5455">
    <linearGradient
       inkscape:collect="always"
       xlink:href="#linearGradient860-3"
       id="linearGradient862"
       x1="113.94583"
       y1="366.97165"
       x2="406.08234"
       y2="159.71205"
       gradientUnits="userSpaceOnUse"
       gradientTransform="matrix(0.08570321,0,0,0.08743902,378.28738,508.28173)" />
    <linearGradient
       inkscape:collect="always"
       id="linearGradient860-3">
      <stop
         style="stop-color:#8fbcbb;stop-opacity:1;"
         offset="0"
         id="stop856-6" />
      <stop
         style="stop-color:#a3be8c;stop-opacity:1;"
         offset="1"
         id="stop858-7" />
    </linearGradient>
    <linearGradient
       inkscape:collect="always"
       xlink:href="#linearGradient842-3"
       id="linearGradient844-5"
       x1="386.3063"
       y1="539.79773"
       x2="447.95114"
       y2="504.71896"
       gradientUnits="userSpaceOnUse"
       gradientTransform="matrix(0.42958153,0,0,0.53058754,221.62137,257.38799)" />
    <linearGradient
       inkscape:collect="always"
       id="linearGradient842-3">
      <stop
         style="stop-color:#5e81ac;stop-opacity:1;"
         offset="0"
         id="stop838-5" />
      <stop
         style="stop-color:#88c0d0;stop-opacity:1;"
         offset="1"
         id="stop840-6" />
    </linearGradient>
  </defs>
  <metadata
     id="metadata5458">
    <rdf:RDF>
      <cc:Work
         rdf:about="">
        <dc:format>image/svg+xml</dc:format>
        <dc:type
           rdf:resource="http://purl.org/dc/dcmitype/StillImage" />
      </cc:Work>
    </rdf:RDF>
  </metadata>
  <g
     inkscape:label="Capa 1"
     inkscape:groupmode="layer"
     id="layer1"
     transform="translate(-384.57143,-515.798)">
    <path
       style="fill:url(#linearGradient862);fill-opacity:1;stroke-width:0.0802088"
       d="m 400.57019,522.24681 c -0.37217,0 -0.81143,-0.24718 -0.97828,-0.54656 l -0.74837,-1.34531 c -0.16604,-0.29935 -0.60665,-0.54363 -0.97864,-0.54423 l -8.23478,-0.0127 c -1.2155,-0.002 -1.57753,0.44329 -1.57721,1.42451 l 1.4e-4,0.41351 v 1.21697 l -1.4e-4,16.04699 c 0,0.43777 0.97463,1.46939 1.44445,1.46939 h 22.14814 c 0.48149,0 1.44445,-0.97958 1.44445,-1.46939 v -15.18378 c 0,-0.97958 -0.48148,-1.46938 -1.42084,-1.46938 z"
       id="path4-3-2"
       sodipodi:nodetypes="sccsssccscsssss" />
    <path
       style="fill:#434c5e;fill-opacity:1;stroke-width:0.0824548"
       d="m 411.16402,528.32032 c 0,0.70043 -0.32854,1.27348 -1.08014,1.27348 h -19.06565 c -0.75159,0 -1.03939,-0.57305 -1.03939,-1.27348 v -3.6245 c 0,-0.97963 0.48148,-1.46942 1.44444,-1.46942 h 18.2963 c 0.96296,0 1.44444,0.48979 1.44444,1.46942 z"
       id="path8-6-9"
       sodipodi:nodetypes="sssssssss" />
    <path
       style="fill:url(#linearGradient844-5);fill-opacity:1;stroke-width:0.0927333"
       d="m 410.68254,525.18561 h -20.22222 c -1.92593,0 -2.88889,0.97958 -2.88889,2.9388 v 13.22456 c 0,1.4694 0.96296,2.44898 2.40741,2.44898 h 21.18518 c 1.44445,0 2.40741,-0.97958 2.40741,-2.44898 v -13.22456 c 0,-1.95922 -0.96296,-2.9388 -2.88889,-2.9388 z"
       id="path10-1"
       sodipodi:nodetypes="sssssssss" />
    <path
       d="m 405.72328,540.36954 h -6.35555 c -0.47756,0 -0.86667,-0.39581 -0.86667,-0.88162 0,-0.0287 0.006,-0.69932 0.53415,-1.36025 0.30304,-0.38025 0.71692,-0.6801 1.22984,-0.89484 0.61905,-0.25909 1.38667,-0.38865 2.28163,-0.38865 0.89497,0 1.66141,0.13078 2.28163,0.38865 0.51293,0.21351 0.92563,0.51459 1.22985,0.89484 0.5259,0.66093 0.53179,1.33146 0.53179,1.36025 0,0.48581 -0.38912,0.88162 -0.86667,0.88162 z m -6.64444,-0.88042 c 0,0.16194 0.1297,0.29269 0.28889,0.29269 h 6.35555 c 0.15918,0 0.28889,-0.13075 0.28889,-0.29269 0,-0.0204 -0.0189,-0.52658 -0.42685,-1.01958 -0.56244,-0.68013 -1.61424,-1.03877 -3.03982,-1.03877 -1.42558,0 -2.47737,0.35983 -3.03981,1.03877 -0.40799,0.49419 -0.42685,0.9992 -0.42685,1.01958 z"
       id="path4-9"
       style="fill:#434c5e;fill-opacity:1;stroke-width:0.0118928" />
    <path
       d="m 402.5455,536.25525 c -1.27465,0 -2.31111,-1.05437 -2.31111,-2.35103 0,-1.29668 1.03646,-2.35103 2.31111,-2.35103 1.27465,0 2.31112,1.05435 2.31112,2.35103 0,1.29666 -1.03647,2.35103 -2.31112,2.35103 z m 0,-4.11432 c -0.9551,0 -1.73333,0.79167 -1.73333,1.76329 0,0.97159 0.77823,1.76327 1.73333,1.76327 0.9551,0 1.73334,-0.79168 1.73334,-1.76327 0,-0.9728 -0.77824,-1.76329 -1.73334,-1.76329 z"
       id="path6-2"
       style="fill:#434c5e;fill-opacity:1;stroke-width:0.0118928" />
    <path
       d="m 397.63439,540.36954 h -1.73333 c -0.47755,0 -0.86667,-0.39581 -0.86667,-0.88162 0,-0.0216 0.005,-0.54458 0.38322,-1.05797 0.21814,-0.29627 0.51646,-0.53139 0.88553,-0.69812 0.441,-0.20029 0.98695,-0.30106 1.62014,-0.30106 0.10377,0 0.20517,0.002 0.30422,0.008 0.15918,0.008 0.28181,0.14754 0.27356,0.30948 -0.008,0.16193 -0.14503,0.28669 -0.30422,0.27828 -0.0884,-0.005 -0.18041,-0.007 -0.27356,-0.007 -2.24979,0 -2.30993,1.39861 -2.31111,1.47059 0,0.16072 0.12971,0.29267 0.28889,0.29267 h 1.73333 c 0.15919,0 0.28889,0.13195 0.28889,0.29391 9.6e-4,0.16071 -0.12852,0.29265 -0.28889,0.29265 z"
       id="path8-2"
       style="fill:#434c5e;fill-opacity:1;stroke-width:0.0118928" />
    <path
       d="m 397.92328,536.84301 c -0.9551,0 -1.73333,-0.79169 -1.73333,-1.76329 0,-0.97158 0.77823,-1.76327 1.73333,-1.76327 0.9551,0 1.73334,0.79169 1.73334,1.76327 0,0.9716 -0.77824,1.76329 -1.73334,1.76329 z m 0,-2.93879 c -0.63673,0 -1.15555,0.52778 -1.15555,1.1755 0,0.64775 0.51882,1.17553 1.15555,1.17553 0.63674,0 1.15556,-0.52778 1.15556,-1.17553 0,-0.64893 -0.51882,-1.1755 -1.15556,-1.1755 z"
       id="path10-3-8"
       style="fill:#434c5e;fill-opacity:1;stroke-width:0.0118928" />
  </g>
</svg>
