<?xml version="1.0" encoding="UTF-8" standalone="no"?>
<svg
   width="32"
   version="1.1"
   height="32"
   viewBox="0 0 32 32"
   id="svg15"
   sodipodi:docname="folder-black.svg"
   inkscape:version="1.2.1 (9c6d41e410, 2022-07-14)"
   xmlns:inkscape="http://www.inkscape.org/namespaces/inkscape"
   xmlns:sodipodi="http://sodipodi.sourceforge.net/DTD/sodipodi-0.dtd"
   xmlns="http://www.w3.org/2000/svg"
   xmlns:svg="http://www.w3.org/2000/svg"
   xmlns:rdf="http://www.w3.org/1999/02/22-rdf-syntax-ns#"
   xmlns:cc="http://creativecommons.org/ns#"
   xmlns:dc="http://purl.org/dc/elements/1.1/">
  <sodipodi:namedview
     pagecolor="#ffffff"
     bordercolor="#666666"
     borderopacity="1"
     objecttolerance="10"
     gridtolerance="10"
     guidetolerance="10"
     inkscape:pageopacity="0"
     inkscape:pageshadow="2"
     inkscape:window-width="1920"
     inkscape:window-height="1002"
     id="namedview17"
     showgrid="false"
     inkscape:zoom="9.8125"
     inkscape:cx="-11.261146"
     inkscape:cy="4.2292994"
     inkscape:window-x="0"
     inkscape:window-y="0"
     inkscape:window-maximized="1"
     inkscape:current-layer="layer1"
     inkscape:document-rotation="0"
     inkscape:showpageshadow="2"
     inkscape:pagecheckerboard="0"
     inkscape:deskcolor="#d1d1d1" />
  <defs
     id="defs5455" />
  <metadata
     id="metadata5458">
    <rdf:RDF>
      <cc:Work
         rdf:about="">
        <dc:format>image/svg+xml</dc:format>
        <dc:type
           rdf:resource="http://purl.org/dc/dcmitype/StillImage" />
      </cc:Work>
    </rdf:RDF>
  </metadata>
  <g
     inkscape:label="Capa 1"
     inkscape:groupmode="layer"
     id="layer1"
     transform="translate(-384.57143,-515.798)">
    <path
       style="fill:#88c0d0;fill-opacity:1;stroke-width:0.0808991"
       d="m 400.79479,522.24682 c -0.37858,0 -0.82544,-0.24718 -0.99516,-0.54656 l -0.76132,-1.34532 c -0.1689,-0.29935 -0.61712,-0.54366 -0.99555,-0.54423 l -8.37707,-0.0127 c -1.23649,-0.002 -1.60479,0.44329 -1.60447,1.42452 l 1.4e-4,0.41351 v 1.21698 l -1.4e-4,16.04705 c 0,0.43777 0.9915,1.4694 1.46943,1.4694 h 22.53085 c 0.4898,0 1.46938,-0.97958 1.46938,-1.4694 v -15.1839 c 0,-0.97958 -0.48979,-1.46938 -1.44537,-1.46938 z"
       id="path4-3-1"
       sodipodi:nodetypes="sccsssccscsssss" />
    <path
       style="fill:#64718c;fill-opacity:1;stroke-width:0.0831643"
       d="m 411.57166,528.32036 c 0,0.70043 -0.33421,1.27348 -1.09879,1.27348 h -19.39509 c -0.76458,0 -1.05735,-0.57305 -1.05735,-1.27348 v -3.62452 c 0,-0.97964 0.4898,-1.46943 1.46941,-1.46943 h 18.61245 c 0.97958,0 1.46938,0.48979 1.46938,1.46943 z"
       id="path8-6-9"
       sodipodi:nodetypes="sssssssss" />
    <path
       style="fill:#2e3440;fill-opacity:1;stroke-width:0.0935314"
       d="m 411.08187,525.18563 h -20.57164 c -1.95922,0 -2.9388,0.97958 -2.9388,2.93881 v 13.22462 c 0,1.46941 0.97958,2.44899 2.449,2.44899 h 21.55123 c 1.46943,0 2.44902,-0.97958 2.44902,-2.44899 v -13.22462 c 0,-1.95923 -0.97958,-2.93881 -2.93881,-2.93881 z"
       id="path10-4"
       sodipodi:nodetypes="sssssssss" />
  </g>
</svg>
