<?xml version="1.0" encoding="UTF-8" standalone="no"?>
<svg
   width="32"
   version="1.1"
   height="32"
   viewBox="0 0 32 32"
   id="svg15"
   sodipodi:docname="folder-Reddit.svg"
   inkscape:version="1.2.1 (9c6d41e410, 2022-07-14)"
   xmlns:inkscape="http://www.inkscape.org/namespaces/inkscape"
   xmlns:sodipodi="http://sodipodi.sourceforge.net/DTD/sodipodi-0.dtd"
   xmlns:xlink="http://www.w3.org/1999/xlink"
   xmlns="http://www.w3.org/2000/svg"
   xmlns:svg="http://www.w3.org/2000/svg"
   xmlns:rdf="http://www.w3.org/1999/02/22-rdf-syntax-ns#"
   xmlns:cc="http://creativecommons.org/ns#"
   xmlns:dc="http://purl.org/dc/elements/1.1/">
  <sodipodi:namedview
     pagecolor="#ffffff"
     bordercolor="#666666"
     borderopacity="1"
     objecttolerance="10"
     gridtolerance="10"
     guidetolerance="10"
     inkscape:pageopacity="0"
     inkscape:pageshadow="2"
     inkscape:window-width="1920"
     inkscape:window-height="1002"
     id="namedview17"
     showgrid="false"
     inkscape:zoom="9.8125"
     inkscape:cx="-13.095541"
     inkscape:cy="6.4713376"
     inkscape:window-x="0"
     inkscape:window-y="0"
     inkscape:window-maximized="1"
     inkscape:current-layer="layer1"
     inkscape:document-rotation="0"
     inkscape:showpageshadow="2"
     inkscape:pagecheckerboard="0"
     inkscape:deskcolor="#d1d1d1" />
  <defs
     id="defs5455">
    <linearGradient
       inkscape:collect="always"
       xlink:href="#linearGradient860"
       id="linearGradient862"
       x1="113.94583"
       y1="366.97165"
       x2="406.08234"
       y2="159.71205"
       gradientUnits="userSpaceOnUse"
       gradientTransform="matrix(0.08570321,0,0,0.08743865,378.28739,508.28197)" />
    <linearGradient
       inkscape:collect="always"
       id="linearGradient860">
      <stop
         style="stop-color:#8fbcbb;stop-opacity:1;"
         offset="0"
         id="stop856" />
      <stop
         style="stop-color:#a3be8c;stop-opacity:1;"
         offset="1"
         id="stop858" />
    </linearGradient>
    <linearGradient
       inkscape:collect="always"
       xlink:href="#linearGradient842"
       id="linearGradient844"
       x1="386.3063"
       y1="539.79773"
       x2="447.95114"
       y2="504.71896"
       gradientUnits="userSpaceOnUse"
       gradientTransform="matrix(0.42958153,0,0,0.53058532,221.62138,257.38928)" />
    <linearGradient
       inkscape:collect="always"
       id="linearGradient842">
      <stop
         style="stop-color:#5e81ac;stop-opacity:1;"
         offset="0"
         id="stop838" />
      <stop
         style="stop-color:#88c0d0;stop-opacity:1;"
         offset="1"
         id="stop840" />
    </linearGradient>
  </defs>
  <metadata
     id="metadata5458">
    <rdf:RDF>
      <cc:Work
         rdf:about="">
        <dc:format>image/svg+xml</dc:format>
        <dc:type
           rdf:resource="http://purl.org/dc/dcmitype/StillImage" />
      </cc:Work>
    </rdf:RDF>
  </metadata>
  <g
     inkscape:label="Capa 1"
     inkscape:groupmode="layer"
     id="layer1"
     transform="translate(-384.57143,-515.798)">
    <path
       style="fill:url(#linearGradient862);fill-opacity:1;stroke-width:0.0802087"
       d="m 400.57019,522.247 c -0.37217,0 -0.81143,-0.24718 -0.97828,-0.54656 l -0.74837,-1.3453 c -0.16604,-0.29935 -0.60665,-0.54363 -0.97864,-0.54423 l -8.23478,-0.0129 c -1.2155,-0.002 -1.57753,0.44329 -1.57721,1.4245 l 1.4e-4,0.41351 v 1.21696 l -1.4e-4,16.04693 c 0,0.43777 0.97463,1.46938 1.44445,1.46938 h 22.14814 c 0.48149,0 1.44445,-0.97958 1.44445,-1.46938 V 523.7162 c 0,-0.97958 -0.48148,-1.46938 -1.42084,-1.46938 z"
       id="path4-3"
       sodipodi:nodetypes="sccsssccscsssss" />
    <path
       style="fill:#434c5e;fill-opacity:1;stroke-width:0.0824546"
       d="m 411.16402,528.32048 c 0,0.70043 -0.32854,1.27348 -1.08014,1.27348 h -19.06565 c -0.75159,0 -1.03939,-0.57305 -1.03939,-1.27348 V 524.696 c 0,-0.97962 0.48148,-1.46941 1.44444,-1.46941 h 18.2963 c 0.96296,0 1.44444,0.48979 1.44444,1.46941 z"
       id="path8-6"
       sodipodi:nodetypes="sssssssss" />
    <path
       style="fill:url(#linearGradient844);fill-opacity:1;stroke-width:0.0927331"
       d="m 410.68254,525.18579 h -20.22222 c -1.92593,0 -2.88889,0.97958 -2.88889,2.93879 v 13.2245 c 0,1.46939 0.96296,2.44897 2.40741,2.44897 h 21.18518 c 1.44445,0 2.40741,-0.97958 2.40741,-2.44897 v -13.2245 c 0,-1.95921 -0.96296,-2.93879 -2.88889,-2.93879 z"
       id="path10"
       sodipodi:nodetypes="sssssssss" />
    <path
       d="m 405.9821,535.76669 c 0,-0.80577 -0.64443,-1.45926 -1.43445,-1.45926 -0.31126,0 -0.6085,0.10151 -0.85391,0.28617 -0.69633,-0.35722 -1.5243,-0.5723 -2.40012,-0.62307 l 0.57258,-1.60943 1.38465,0.35112 c 0.0299,0.57843 0.50274,1.03705 1.07734,1.03705 0.59448,0 1.07931,-0.49319 1.07931,-1.09794 0,-0.60482 -0.48483,-1.09799 -1.07931,-1.09799 -0.40501,0 -0.75813,0.22726 -0.94369,0.56423 l -1.89736,-0.48307 -0.82595,2.32383 c -0.95165,0.0283 -1.85349,0.24758 -2.60562,0.63123 -0.24541,-0.18473 -0.54063,-0.28412 -0.8519,-0.28412 -0.79203,0.002 -1.43646,0.65755 -1.43646,1.46125 0,0.39371 0.1596,0.77323 0.43292,1.04525 -0.0179,0.11566 -0.0279,0.23338 -0.0279,0.35104 0,0.88286 0.50673,1.70283 1.42447,2.30766 0.87784,0.58041 2.041,0.89901 3.27398,0.89901 1.23299,0 2.39412,-0.3186 3.27391,-0.89901 0.91774,-0.60688 1.42454,-1.42679 1.42454,-2.30766 0,-0.11567 -0.01,-0.23132 -0.026,-0.34702 0.27729,-0.26993 0.43893,-0.65151 0.43893,-1.04927 z m -7.35396,0.85241 c 0,-0.46885 0.3751,-0.85042 0.83599,-0.85042 0.46083,0 0.83592,0.38157 0.83592,0.85042 0,0.4688 -0.37509,0.85039 -0.83592,0.85039 -0.46089,0 -0.83599,-0.38159 -0.83599,-0.85039 z m 2.30037,2.69116 c -0.64841,0 -1.28084,-0.18669 -1.82747,-0.53982 l 0.32117,-0.51348 c 0.45092,0.29221 0.97362,0.4465 1.50832,0.4465 0.53471,0 1.05538,-0.15429 1.50825,-0.4465 l 0.32124,0.51348 c -0.55068,0.35313 -1.18311,0.53982 -1.83151,0.53982 z m 1.48237,-1.84077 c -0.4609,0 -0.83592,-0.38159 -0.83592,-0.85039 0,-0.46885 0.37502,-0.85042 0.83592,-0.85042 0.4609,0 0.83591,0.38157 0.83591,0.85042 0,0.4688 -0.37501,0.85039 -0.83591,0.85039 z m 0,0"
       id="path2-3-3-3"
       style="fill:#434c5e;fill-opacity:1;stroke-width:0.0201225" />
  </g>
</svg>
