<?xml version="1.0" encoding="UTF-8" standalone="no"?>
<svg
   width="32"
   version="1.1"
   height="32"
   viewBox="0 0 32 32"
   id="svg15"
   sodipodi:docname="folder-mac.svg"
   inkscape:version="1.2.1 (9c6d41e410, 2022-07-14)"
   xmlns:inkscape="http://www.inkscape.org/namespaces/inkscape"
   xmlns:sodipodi="http://sodipodi.sourceforge.net/DTD/sodipodi-0.dtd"
   xmlns:xlink="http://www.w3.org/1999/xlink"
   xmlns="http://www.w3.org/2000/svg"
   xmlns:svg="http://www.w3.org/2000/svg"
   xmlns:rdf="http://www.w3.org/1999/02/22-rdf-syntax-ns#"
   xmlns:cc="http://creativecommons.org/ns#"
   xmlns:dc="http://purl.org/dc/elements/1.1/">
  <sodipodi:namedview
     pagecolor="#ffffff"
     bordercolor="#666666"
     borderopacity="1"
     objecttolerance="10"
     gridtolerance="10"
     guidetolerance="10"
     inkscape:pageopacity="0"
     inkscape:pageshadow="2"
     inkscape:window-width="1920"
     inkscape:window-height="1002"
     id="namedview17"
     showgrid="true"
     inkscape:zoom="13.876971"
     inkscape:cx="11.637986"
     inkscape:cy="14.160151"
     inkscape:window-x="0"
     inkscape:window-y="0"
     inkscape:window-maximized="1"
     inkscape:current-layer="layer1"
     inkscape:document-rotation="0"
     inkscape:showpageshadow="2"
     inkscape:pagecheckerboard="0"
     inkscape:deskcolor="#d1d1d1">
    <inkscape:grid
       type="xygrid"
       id="grid1205" />
  </sodipodi:namedview>
  <defs
     id="defs5455">
    <linearGradient
       inkscape:collect="always"
       xlink:href="#linearGradient860"
       id="linearGradient862"
       x1="113.94583"
       y1="366.97165"
       x2="406.08234"
       y2="159.71205"
       gradientUnits="userSpaceOnUse"
       gradientTransform="matrix(0.08570319,0,0,0.08743907,378.28739,508.28172)" />
    <linearGradient
       inkscape:collect="always"
       id="linearGradient860">
      <stop
         style="stop-color:#8fbcbb;stop-opacity:1;"
         offset="0"
         id="stop856" />
      <stop
         style="stop-color:#a3be8c;stop-opacity:1;"
         offset="1"
         id="stop858" />
    </linearGradient>
    <linearGradient
       inkscape:collect="always"
       xlink:href="#linearGradient842"
       id="linearGradient844"
       x1="386.3063"
       y1="539.79773"
       x2="447.95114"
       y2="504.71896"
       gradientUnits="userSpaceOnUse"
       gradientTransform="matrix(0.42958147,0,0,0.5305879,221.62139,257.38782)" />
    <linearGradient
       inkscape:collect="always"
       id="linearGradient842">
      <stop
         style="stop-color:#5e81ac;stop-opacity:1;"
         offset="0"
         id="stop838" />
      <stop
         style="stop-color:#88c0d0;stop-opacity:1;"
         offset="1"
         id="stop840" />
    </linearGradient>
  </defs>
  <metadata
     id="metadata5458">
    <rdf:RDF>
      <cc:Work
         rdf:about="">
        <dc:format>image/svg+xml</dc:format>
        <dc:type
           rdf:resource="http://purl.org/dc/dcmitype/StillImage" />
      </cc:Work>
    </rdf:RDF>
  </metadata>
  <g
     inkscape:label="Capa 1"
     inkscape:groupmode="layer"
     id="layer1"
     transform="translate(-384.57143,-515.798)">
    <path
       style="fill:url(#linearGradient862);fill-opacity:1;stroke-width:0.0802087"
       d="m 400.57017,522.24679 c -0.37214,0 -0.8114,-0.24719 -0.97825,-0.54655 l -0.74836,-1.34532 c -0.16607,-0.29933 -0.60667,-0.54365 -0.97866,-0.54421 l -8.23478,-0.0127 c -1.21549,-0.002 -1.57752,0.44328 -1.57721,1.42452 l 1.4e-4,0.41351 v 1.21696 l -1.4e-4,16.04701 c -10e-6,0.43776 0.97464,1.4694 1.44444,1.4694 h 22.14816 c 0.48149,0 1.44444,-0.9796 1.44444,-1.4694 v -15.18379 c 0,-0.9796 -0.4815,-1.46939 -1.42083,-1.46939 z"
       id="path4-3"
       sodipodi:nodetypes="sccsssccscsssss" />
    <path
       style="fill:#434c5e;fill-opacity:1;stroke-width:0.0824548"
       d="m 411.16403,528.32031 c 0,0.70041 -0.32856,1.27347 -1.08017,1.27347 h -19.06564 c -0.75158,0 -1.03939,-0.57306 -1.03939,-1.27347 v -3.62453 c 0,-0.9796 0.4815,-1.4694 1.44447,-1.4694 h 18.29626 c 0.96297,0 1.44447,0.4898 1.44447,1.4694 z"
       id="path8-6"
       sodipodi:nodetypes="sssssssss" />
    <path
       style="fill:url(#linearGradient844);fill-opacity:1;stroke-width:0.0927335"
       d="m 410.68253,525.18558 h -20.2222 c -1.92592,0 -2.8889,0.9796 -2.8889,2.9388 v 13.22459 c 0,1.4694 0.96298,2.449 2.4074,2.449 h 21.1852 c 1.44442,0 2.4074,-0.9796 2.4074,-2.449 v -13.22459 c 0,-1.9592 -0.96298,-2.9388 -2.8889,-2.9388 z"
       id="path10"
       sodipodi:nodetypes="sssssssss" />
    <path
       fill-rule="evenodd"
       clip-rule="evenodd"
       d="m 397.23414,533.33414 c 0,-0.1775 0.14392,-0.32142 0.32143,-0.32142 0.17751,0 0.32143,0.14392 0.32143,0.32142 0,0.17751 -0.14392,0.32143 -0.32143,0.32143 -0.17751,0 -0.32143,-0.14392 -0.32143,-0.32143 z m 1.28572,0 c 0,-0.1775 0.14392,-0.32142 0.32143,-0.32142 0.1775,0 0.32142,0.14392 0.32142,0.32142 0,0.17751 -0.14392,0.32143 -0.32142,0.32143 -0.17751,0 -0.32143,-0.14392 -0.32143,-0.32143 z m 1.28571,0 c 0,-0.1775 0.14392,-0.32142 0.32143,-0.32142 0.17751,0 0.32143,0.14392 0.32143,0.32142 0,0.17751 -0.14392,0.32143 -0.32143,0.32143 -0.17751,0 -0.32143,-0.14392 -0.32143,-0.32143 z m 6.42857,1.76786 v 4.33928 c 0,0.71005 -0.57567,1.28572 -1.28571,1.28572 h -7.71429 c -0.71004,0 -1.28571,-0.57567 -1.28571,-1.28572 v -3.5357 c 0,-0.17751 0.14392,-0.32144 0.32143,-0.32144 0.17751,0 0.32142,0.14393 0.32142,0.32144 v 3.5357 c 0,0.35503 0.28784,0.64286 0.64286,0.64286 h 7.71428 c 0.35502,0 0.64287,-0.28783 0.64287,-0.64286 v -4.17856 c 0,-0.17751 -0.14393,-0.32144 -0.32143,-0.32144 H 396.752 c -0.44386,0 -0.80357,-0.35971 -0.80357,-0.80356 v -1.125 c 0,-0.71004 0.57568,-1.28572 1.28571,-1.28572 h 7.71429 c 0.71004,0 1.28571,0.57568 1.28571,1.28572 v 0.32142 c 0,0.17751 -0.14392,0.32144 -0.32143,0.32144 -0.17751,0 -0.32142,-0.14393 -0.32142,-0.32144 v -0.32142 c 0,-0.35502 -0.28785,-0.64286 -0.64286,-0.64286 h -7.71429 c -0.35502,0 -0.64285,0.28784 -0.64285,0.64286 v 0.96428 c 0,0.17751 0.14391,0.32143 0.32142,0.32143 h 8.51786 c 0.44386,0 0.80357,0.35972 0.80357,0.80357 z"
       id="path2"
       style="fill:#434c5e;fill-opacity:1;stroke-width:0.0200893" />
    <g
       id="g8"
       transform="matrix(0.00373135,0,0,0.00373135,399.33294,536.02964)"
       style="fill:#434c5e;fill-opacity:1;image-rendering:optimizeQuality;shape-rendering:geometricPrecision;text-rendering:geometricPrecision">
      <polygon
         class="fil0"
         points="617,21 793,21 511,423 793,825 617,825 423,549 230,825 54,825 335,423 54,21 230,21 423,298 "
         id="polygon6"
         style="fill:#434c5e;fill-opacity:1" />
    </g>
  </g>
</svg>
