<?xml version="1.0" encoding="UTF-8" standalone="no"?>
<svg
   width="32"
   version="1.1"
   height="32"
   viewBox="0 0 32 32"
   id="svg17"
   sodipodi:docname="folder-image.svg"
   inkscape:version="1.2.1 (9c6d41e410, 2022-07-14)"
   xmlns:inkscape="http://www.inkscape.org/namespaces/inkscape"
   xmlns:sodipodi="http://sodipodi.sourceforge.net/DTD/sodipodi-0.dtd"
   xmlns:xlink="http://www.w3.org/1999/xlink"
   xmlns="http://www.w3.org/2000/svg"
   xmlns:svg="http://www.w3.org/2000/svg"
   xmlns:rdf="http://www.w3.org/1999/02/22-rdf-syntax-ns#"
   xmlns:cc="http://creativecommons.org/ns#"
   xmlns:dc="http://purl.org/dc/elements/1.1/">
  <sodipodi:namedview
     pagecolor="#ffffff"
     bordercolor="#666666"
     borderopacity="1"
     objecttolerance="10"
     gridtolerance="10"
     guidetolerance="10"
     inkscape:pageopacity="0"
     inkscape:pageshadow="2"
     inkscape:window-width="1920"
     inkscape:window-height="1002"
     id="namedview19"
     showgrid="false"
     inkscape:zoom="9.8125"
     inkscape:cx="-7.6942675"
     inkscape:cy="7.4904459"
     inkscape:window-x="0"
     inkscape:window-y="0"
     inkscape:window-maximized="1"
     inkscape:current-layer="layer1"
     inkscape:document-rotation="0"
     inkscape:showpageshadow="2"
     inkscape:pagecheckerboard="0"
     inkscape:deskcolor="#d1d1d1" />
  <defs
     id="defs5455">
    <linearGradient
       inkscape:collect="always"
       xlink:href="#linearGradient860-6"
       id="linearGradient862-3"
       x1="113.94583"
       y1="366.97165"
       x2="406.08234"
       y2="159.71205"
       gradientUnits="userSpaceOnUse"
       gradientTransform="matrix(0.08570321,0,0,0.08743902,378.28739,508.28173)" />
    <linearGradient
       inkscape:collect="always"
       id="linearGradient860-6">
      <stop
         style="stop-color:#8fbcbb;stop-opacity:1;"
         offset="0"
         id="stop856-7" />
      <stop
         style="stop-color:#a3be8c;stop-opacity:1;"
         offset="1"
         id="stop858-5" />
    </linearGradient>
    <linearGradient
       inkscape:collect="always"
       xlink:href="#linearGradient842-5"
       id="linearGradient844-3"
       x1="386.3063"
       y1="539.79773"
       x2="447.95114"
       y2="504.71896"
       gradientUnits="userSpaceOnUse"
       gradientTransform="matrix(0.42958153,0,0,0.53058754,221.62138,257.38799)" />
    <linearGradient
       inkscape:collect="always"
       id="linearGradient842-5">
      <stop
         style="stop-color:#5e81ac;stop-opacity:1;"
         offset="0"
         id="stop838-6" />
      <stop
         style="stop-color:#88c0d0;stop-opacity:1;"
         offset="1"
         id="stop840-2" />
    </linearGradient>
  </defs>
  <metadata
     id="metadata5458">
    <rdf:RDF>
      <cc:Work
         rdf:about="">
        <dc:format>image/svg+xml</dc:format>
        <dc:type
           rdf:resource="http://purl.org/dc/dcmitype/StillImage" />
      </cc:Work>
    </rdf:RDF>
  </metadata>
  <g
     inkscape:label="Capa 1"
     inkscape:groupmode="layer"
     id="layer1"
     transform="translate(-384.57143,-515.798)">
    <path
       style="fill:url(#linearGradient862-3);fill-opacity:1;stroke-width:0.0802088"
       d="m 400.57019,522.24681 c -0.37217,0 -0.81143,-0.24718 -0.97828,-0.54656 l -0.74837,-1.34531 c -0.16604,-0.29935 -0.60665,-0.54363 -0.97864,-0.54423 l -8.23478,-0.0127 c -1.2155,-0.002 -1.57753,0.44329 -1.57721,1.42451 l 1.4e-4,0.41351 v 1.21697 l -1.4e-4,16.04699 c 0,0.43777 0.97463,1.46939 1.44445,1.46939 h 22.14814 c 0.48149,0 1.44445,-0.97958 1.44445,-1.46939 v -15.18373 c 0,-0.97958 -0.48148,-1.46938 -1.42084,-1.46938 z"
       id="path4-3-9"
       sodipodi:nodetypes="sccsssccscsssss" />
    <path
       style="fill:#434c5e;fill-opacity:1;stroke-width:0.0824548"
       d="m 411.16402,528.32032 c 0,0.70043 -0.32854,1.27348 -1.08014,1.27348 h -19.06565 c -0.75159,0 -1.03939,-0.57305 -1.03939,-1.27348 v -3.6245 c 0,-0.97963 0.48148,-1.46942 1.44444,-1.46942 h 18.2963 c 0.96296,0 1.44444,0.48979 1.44444,1.46942 z"
       id="path8-6-1"
       sodipodi:nodetypes="sssssssss" />
    <path
       style="fill:url(#linearGradient844-3);fill-opacity:1;stroke-width:0.0927333"
       d="m 410.68254,525.18561 h -20.22222 c -1.92593,0 -2.88889,0.97958 -2.88889,2.9388 v 13.22456 c 0,1.4694 0.96296,2.44898 2.40741,2.44898 h 21.18518 c 1.44445,0 2.40741,-0.97958 2.40741,-2.44898 v -13.22456 c 0,-1.95922 -0.96296,-2.9388 -2.88889,-2.9388 z"
       id="path10-2"
       sodipodi:nodetypes="sssssssss" />
    <path
       d="m 404.60925,532.17366 h -2.86931 l -0.49341,-1.08916 a 0.86598344,0.88094368 0 0 0 -0.78435,-0.51093 h -1.92132 a 0.86603376,0.88099488 0 0 0 -0.78436,0.51086 l -0.49341,1.08923 h -0.23553 a 1.5982525,1.6258631 0 0 0 -1.59643,1.624 v 4.94783 a 1.5983028,1.6259143 0 0 0 1.59643,1.62405 h 7.58169 a 1.5983028,1.6259143 0 0 0 1.59643,-1.62405 v -4.94783 a 1.5982525,1.6258631 0 0 0 -1.59643,-1.624 z m -6.30912,-0.8344 a 0.26581394,0.27040598 0 0 1 0.24072,-0.15676 h 1.92133 a 0.26577204,0.27036337 0 0 1 0.24072,0.15681 l 0.37796,0.83435 h -3.15869 z m 7.30696,7.40623 a 0.99901317,1.0162715 0 0 1 -0.99784,1.01514 h -7.58169 a 0.99901317,1.0162715 0 0 1 -0.99784,-1.01514 v -4.94783 a 0.99899997,1.0162582 0 0 1 0.99784,-1.01506 h 7.58169 a 0.99899997,1.0162582 0 0 1 0.99784,1.01506 z m -6.10557,-4.95495 a 2.4389157,2.481049 0 1 0 2.43888,2.48109 2.4416668,2.4838477 0 0 0 -2.43888,-2.4811 z m 0,4.35316 a 1.8403301,1.8721227 0 1 1 1.84029,-1.87207 1.8423653,1.874193 0 0 1 -1.84029,1.87207 z m 5.14783,-4.1925 a 0.29927009,0.30444012 0 0 1 -0.29929,0.30447 h -1.55632 a 0.29929642,0.3044669 0 0 1 0,-0.60892 h 1.55632 a 0.29927009,0.30444012 0 0 1 0.29929,0.30445 z"
       id="path4-1"
       style="fill:#434c5e;fill-opacity:1;stroke-width:0.120746" />
    <path
       d="m 399.46401,537.50952 c 0.6345,0 1.16125,-0.52369 1.16125,-1.18133 0,-0.65765 -0.51478,-1.18131 -1.16125,-1.18131 -0.64648,0 -1.16126,0.52366 -1.16126,1.18131 0,0.65764 0.52676,1.18133 1.16126,1.18133 z m 0,-1.74152 c 0.29929,0 0.5507,0.25574 0.5507,0.56019 0,0.30447 -0.25141,0.56024 -0.5507,0.56024 -0.2993,0 -0.5507,-0.25577 -0.5507,-0.56024 0,-0.30445 0.2514,-0.56019 0.5507,-0.56019 z"
       id="path4-3-3-0"
       style="fill:#434c5e;fill-opacity:1;stroke-width:0.120746" />
  </g>
</svg>
