<?xml version="1.0" encoding="UTF-8" standalone="no"?>
<svg
   width="32"
   version="1.1"
   height="32"
   viewBox="0 0 32 32"
   id="svg15"
   sodipodi:docname="folder-crash.svg"
   inkscape:version="1.2.1 (9c6d41e410, 2022-07-14)"
   xmlns:inkscape="http://www.inkscape.org/namespaces/inkscape"
   xmlns:sodipodi="http://sodipodi.sourceforge.net/DTD/sodipodi-0.dtd"
   xmlns="http://www.w3.org/2000/svg"
   xmlns:svg="http://www.w3.org/2000/svg"
   xmlns:rdf="http://www.w3.org/1999/02/22-rdf-syntax-ns#"
   xmlns:cc="http://creativecommons.org/ns#"
   xmlns:dc="http://purl.org/dc/elements/1.1/">
  <sodipodi:namedview
     pagecolor="#ffffff"
     bordercolor="#666666"
     borderopacity="1"
     objecttolerance="10"
     gridtolerance="10"
     guidetolerance="10"
     inkscape:pageopacity="0"
     inkscape:pageshadow="2"
     inkscape:window-width="1920"
     inkscape:window-height="1002"
     id="namedview17"
     showgrid="true"
     inkscape:zoom="9.8125003"
     inkscape:cx="2.598726"
     inkscape:cy="11.668789"
     inkscape:window-x="0"
     inkscape:window-y="0"
     inkscape:window-maximized="1"
     inkscape:current-layer="layer1"
     inkscape:document-rotation="0"
     inkscape:showpageshadow="2"
     inkscape:pagecheckerboard="0"
     inkscape:deskcolor="#d1d1d1">
    <inkscape:grid
       type="xygrid"
       id="grid1205" />
  </sodipodi:namedview>
  <defs
     id="defs5455" />
  <metadata
     id="metadata5458">
    <rdf:RDF>
      <cc:Work
         rdf:about="">
        <dc:format>image/svg+xml</dc:format>
        <dc:type
           rdf:resource="http://purl.org/dc/dcmitype/StillImage" />
      </cc:Work>
    </rdf:RDF>
  </metadata>
  <g
     inkscape:label="Capa 1"
     inkscape:groupmode="layer"
     id="layer1"
     transform="translate(-384.57143,-515.798)">
    <path
       style="fill:#88c0d0;fill-opacity:1;stroke-width:0.080209"
       d="m 400.57019,522.24682 c -0.37217,0 -0.81143,-0.24718 -0.97828,-0.54656 l -0.74837,-1.34531 c -0.16604,-0.29936 -0.60665,-0.54365 -0.97864,-0.54424 l -8.23478,-0.0127 c -1.2155,-0.002 -1.57753,0.44329 -1.57721,1.42451 l 1.4e-4,0.41352 v 1.21698 l -1.4e-4,16.04705 c 0,0.43777 0.97463,1.4694 1.44445,1.4694 h 22.14814 c 0.48149,0 1.44445,-0.97959 1.44445,-1.4694 v -15.18384 c 0,-0.97959 -0.48148,-1.46939 -1.42084,-1.46939 z"
       id="path4-3-3"
       sodipodi:nodetypes="sccsssccscsssss" />
    <path
       style="fill:#434c5e;fill-opacity:1;stroke-width:0.082455"
       d="m 411.16402,528.32036 c 0,0.70043 -0.32854,1.27348 -1.08014,1.27348 h -19.06565 c -0.75159,0 -1.03939,-0.57305 -1.03939,-1.27348 v -3.62452 c 0,-0.97963 0.48148,-1.46942 1.44444,-1.46942 h 18.2963 c 0.96296,0 1.44444,0.48979 1.44444,1.46942 z"
       id="path8-6-6"
       sodipodi:nodetypes="sssssssss" />
    <path
       style="fill:#bf616a;fill-opacity:1;stroke-width:0.0927335"
       d="m 410.68254,525.18563 h -20.22222 c -1.92593,0 -2.88889,0.97959 -2.88889,2.93881 v 13.22462 c 0,1.46941 0.96296,2.44899 2.40741,2.44899 h 21.18518 c 1.44445,0 2.40741,-0.97958 2.40741,-2.44899 v -13.22462 c 0,-1.95922 -0.96296,-2.93881 -2.88889,-2.93881 z"
       id="path10-7"
       sodipodi:nodetypes="sssssssss" />
    <path
       fill-rule="evenodd"
       clip-rule="evenodd"
       d="m 404.6205,540.36963 h -5.15908 c -0.18967,0 -0.34359,-0.15699 -0.34359,-0.34983 0,-0.1934 0.15392,-0.35004 0.34359,-0.35004 h 5.15908 c 0.37982,0 0.68781,-0.3133 0.68781,-0.69972 v -6.99716 c 0,-0.38642 -0.30799,-0.69953 -0.68781,-0.69953 h -6.87848 c -0.37978,0 -0.68793,0.31311 -0.68793,0.69953 v 6.6473 c 0,0.19338 -0.15382,0.34986 -0.34393,0.34986 -0.18976,0 -0.34399,-0.15648 -0.34399,-0.34986 v -6.6473 c 0,-0.77285 0.61622,-1.39926 1.37585,-1.39926 h 6.87848 c 0.75953,0 1.3753,0.62641 1.3753,1.39926 v 6.99716 c 0,0.77281 -0.61577,1.39959 -1.3753,1.39959 z m -6.53449,-0.69987 c 0.18967,0 0.3439,0.15664 0.3439,0.35004 0,0.19284 -0.15423,0.34983 -0.3439,0.34983 -0.1901,0 -0.34399,-0.15699 -0.34399,-0.34983 0,-0.1934 0.15388,-0.35004 0.34399,-0.35004 z"
       id="path2-0"
       style="fill:#434c5e;fill-opacity:1;stroke-width:0.0216793" />
    <rect
       x="398.69714"
       y="532.97778"
       width="1.2036676"
       height="1.2244697"
       id="rect6-6"
       style="fill:#434c5e;fill-opacity:1;stroke-width:0.102534" />
    <rect
       x="400.52325"
       y="534.19183"
       width="1.2036676"
       height="1.2244697"
       id="rect8-3"
       style="fill:#434c5e;fill-opacity:1;stroke-width:0.102534" />
    <rect
       x="398.54688"
       y="536.65125"
       width="1.2036676"
       height="1.2244697"
       id="rect10-2"
       style="fill:#434c5e;fill-opacity:1;stroke-width:0.102534" />
    <rect
       x="402.49945"
       y="536.65125"
       width="1.2036676"
       height="1.2244697"
       id="rect12-0"
       style="fill:#434c5e;fill-opacity:1;stroke-width:0.102534" />
    <rect
       x="399.83099"
       y="535.99847"
       width="1.2036676"
       height="1.2244697"
       id="rect14-6"
       style="fill:#434c5e;fill-opacity:1;stroke-width:0.102534" />
    <rect
       x="401.21552"
       y="535.99847"
       width="1.2036676"
       height="1.2244697"
       id="rect16-1"
       style="fill:#434c5e;fill-opacity:1;stroke-width:0.102534" />
    <rect
       x="402.30838"
       y="532.97778"
       width="1.2036676"
       height="1.2244697"
       id="rect18-5"
       style="fill:#434c5e;fill-opacity:1;stroke-width:0.102534" />
  </g>
</svg>
