<?xml version="1.0" encoding="UTF-8" standalone="no"?>
<svg
   width="32"
   version="1.1"
   height="32"
   viewBox="0 0 32 32"
   id="svg15"
   sodipodi:docname="folder-IOTA.svg"
   inkscape:version="1.2.1 (9c6d41e410, 2022-07-14)"
   xmlns:inkscape="http://www.inkscape.org/namespaces/inkscape"
   xmlns:sodipodi="http://sodipodi.sourceforge.net/DTD/sodipodi-0.dtd"
   xmlns:xlink="http://www.w3.org/1999/xlink"
   xmlns="http://www.w3.org/2000/svg"
   xmlns:svg="http://www.w3.org/2000/svg"
   xmlns:rdf="http://www.w3.org/1999/02/22-rdf-syntax-ns#"
   xmlns:cc="http://creativecommons.org/ns#"
   xmlns:dc="http://purl.org/dc/elements/1.1/">
  <sodipodi:namedview
     pagecolor="#ffffff"
     bordercolor="#666666"
     borderopacity="1"
     objecttolerance="10"
     gridtolerance="10"
     guidetolerance="10"
     inkscape:pageopacity="0"
     inkscape:pageshadow="2"
     inkscape:window-width="1920"
     inkscape:window-height="1002"
     id="namedview17"
     showgrid="false"
     inkscape:zoom="9.8125"
     inkscape:cx="-13.095541"
     inkscape:cy="6.4713376"
     inkscape:window-x="0"
     inkscape:window-y="0"
     inkscape:window-maximized="1"
     inkscape:current-layer="layer1"
     inkscape:document-rotation="0"
     inkscape:showpageshadow="2"
     inkscape:pagecheckerboard="0"
     inkscape:deskcolor="#d1d1d1" />
  <defs
     id="defs5455">
    <linearGradient
       inkscape:collect="always"
       xlink:href="#linearGradient860"
       id="linearGradient862"
       x1="113.94583"
       y1="366.97165"
       x2="406.08234"
       y2="159.71205"
       gradientUnits="userSpaceOnUse"
       gradientTransform="matrix(0.08570321,0,0,0.08743868,378.28739,508.28187)" />
    <linearGradient
       inkscape:collect="always"
       id="linearGradient860">
      <stop
         style="stop-color:#8fbcbb;stop-opacity:1;"
         offset="0"
         id="stop856" />
      <stop
         style="stop-color:#a3be8c;stop-opacity:1;"
         offset="1"
         id="stop858" />
    </linearGradient>
    <linearGradient
       inkscape:collect="always"
       xlink:href="#linearGradient842"
       id="linearGradient844"
       x1="386.3063"
       y1="539.79773"
       x2="447.95114"
       y2="504.71896"
       gradientUnits="userSpaceOnUse"
       gradientTransform="matrix(0.42958153,0,0,0.53058547,221.62138,257.38909)" />
    <linearGradient
       inkscape:collect="always"
       id="linearGradient842">
      <stop
         style="stop-color:#5e81ac;stop-opacity:1;"
         offset="0"
         id="stop838" />
      <stop
         style="stop-color:#88c0d0;stop-opacity:1;"
         offset="1"
         id="stop840" />
    </linearGradient>
  </defs>
  <metadata
     id="metadata5458">
    <rdf:RDF>
      <cc:Work
         rdf:about="">
        <dc:format>image/svg+xml</dc:format>
        <dc:type
           rdf:resource="http://purl.org/dc/dcmitype/StillImage" />
      </cc:Work>
    </rdf:RDF>
  </metadata>
  <g
     inkscape:label="Capa 1"
     inkscape:groupmode="layer"
     id="layer1"
     transform="translate(-384.57143,-515.798)">
    <path
       style="fill:url(#linearGradient862);fill-opacity:1;stroke-width:0.0802086"
       d="m 400.57019,522.2469 c -0.37217,0 -0.81143,-0.24718 -0.97828,-0.54656 l -0.74837,-1.3453 c -0.16604,-0.29935 -0.60665,-0.54363 -0.97864,-0.54423 l -8.23478,-0.0128 c -1.2155,-0.002 -1.57753,0.44329 -1.57721,1.4245 l 1.4e-4,0.41351 v 1.21696 l -1.4e-4,16.04693 c 0,0.43778 0.97463,1.46939 1.44445,1.46939 h 22.14814 c 0.48149,0 1.44445,-0.97958 1.44445,-1.46939 V 523.7162 c 0,-0.97958 -0.48148,-1.46938 -1.42084,-1.46938 z"
       id="path4-3"
       sodipodi:nodetypes="sccsssccscsssss" />
    <path
       style="fill:#434c5e;fill-opacity:1;stroke-width:0.0824546"
       d="m 411.16402,528.32038 c 0,0.70043 -0.32854,1.27348 -1.08014,1.27348 h -19.06565 c -0.75159,0 -1.03939,-0.57305 -1.03939,-1.27348 v -3.62448 c 0,-0.97962 0.48148,-1.46941 1.44444,-1.46941 h 18.2963 c 0.96296,0 1.44444,0.48979 1.44444,1.46941 z"
       id="path8-6"
       sodipodi:nodetypes="sssssssss" />
    <path
       style="fill:url(#linearGradient844);fill-opacity:1;stroke-width:0.0927331"
       d="m 410.68254,525.18569 h -20.22222 c -1.92593,0 -2.88889,0.97958 -2.88889,2.93879 v 13.2245 c 0,1.4694 0.96296,2.44897 2.40741,2.44897 h 21.18518 c 1.44445,0 2.40741,-0.97957 2.40741,-2.44897 v -13.2245 c 0,-1.95921 -0.96296,-2.93879 -2.88889,-2.93879 z"
       id="path10"
       sodipodi:nodetypes="sssssssss" />
    <path
       style="isolation:isolate;fill:#434c5e;fill-opacity:1;stroke-width:0.620525"
       class="ColorScheme-Text"
       d="m 398.46005,540.36865 c 0.19319,-0.009 0.36895,-0.12285 0.46523,-0.30133 0.0752,-0.13883 0.0963,-0.30325 0.0572,-0.45805 -0.0391,-0.15482 -0.13419,-0.28661 -0.26482,-0.3672 -0.13059,-0.0798 -0.28587,-0.10172 -0.43152,-0.0602 -0.14505,0.0417 -0.26964,0.14264 -0.34489,0.28146 -0.0752,0.13884 -0.0957,0.30324 -0.0566,0.45807 0.0385,0.15482 0.13421,0.2866 0.26481,0.36658 0.0939,0.058 0.20223,0.0865 0.31057,0.0804 z m 3.65576,-0.94365 c 0.0951,0 0.18656,-0.0404 0.25397,-0.11194 0.0674,-0.0716 0.10473,-0.16827 0.10473,-0.26935 0,-0.21043 -0.16071,-0.38061 -0.3587,-0.38061 -0.19741,0 -0.35752,0.1708 -0.35752,0.38061 0,0.20987 0.16011,0.38068 0.35752,0.38129 z m -0.90222,-0.0972 c 0.0831,0 0.16312,-0.0353 0.22148,-0.0972 0.059,-0.0629 0.0921,-0.14713 0.0915,-0.23543 0,-0.18357 -0.14022,-0.332 -0.31297,-0.332 -0.17213,0 -0.31177,0.14906 -0.31237,0.332 0,0.18364 0.13965,0.3327 0.31237,0.3327 z m 1.95066,-0.0385 c 0.11195,0 0.21968,-0.0473 0.29853,-0.13116 0.0794,-0.0844 0.12399,-0.19898 0.12399,-0.31795 0,-0.119 -0.0442,-0.23287 -0.12399,-0.31734 -0.0788,-0.0841 -0.18658,-0.13111 -0.29853,-0.13111 -0.11194,0 -0.21907,0.0473 -0.29854,0.13111 -0.0794,0.0844 -0.12336,0.19834 -0.12336,0.31734 0,0.11897 0.0439,0.23351 0.12336,0.31795 0.0795,0.0839 0.1866,0.13116 0.29854,0.13116 z m -2.69338,-0.23286 c 0.15048,0 0.27205,-0.12924 0.27205,-0.28857 4.6e-4,-0.0767 -0.0283,-0.15031 -0.0795,-0.2047 -0.0511,-0.0542 -0.12037,-0.0853 -0.1926,-0.0844 -0.14985,0 -0.27142,0.12923 -0.27142,0.28914 4.4e-4,0.15933 0.12157,0.28788 0.27142,0.28857 z m -2.16731,-0.3135 c 0.16494,-0.008 0.31538,-0.10555 0.39782,-0.25782 0.13424,-0.24756 0.0542,-0.56296 -0.17814,-0.70562 -0.23231,-0.14269 -0.52906,-0.0581 -0.66387,0.1887 -0.0644,0.11902 -0.0819,0.25976 -0.0487,0.39218 0.0337,0.13244 0.11492,0.24566 0.2263,0.31411 0.0812,0.0492 0.17334,0.0729 0.26663,0.0685 z m 1.60218,-0.0543 c 0.0626,0 0.12278,-0.0262 0.1673,-0.0729 0.0439,-0.0467 0.0692,-0.11067 0.0692,-0.17722 0,-0.0667 -0.0245,-0.13049 -0.0692,-0.17722 -0.0442,-0.0474 -0.10412,-0.0735 -0.1673,-0.0735 -0.062,0 -0.12218,0.0268 -0.16612,0.0735 -0.0442,0.0474 -0.0692,0.11069 -0.0686,0.17722 0,0.1382 0.10533,0.25012 0.23474,0.25012 z m -2.8378,-0.13112 c 0.16488,-0.008 0.31476,-0.10554 0.39782,-0.25785 0.1336,-0.2469 0.0541,-0.5623 -0.17815,-0.70558 -0.11136,-0.0685 -0.24438,-0.0872 -0.36894,-0.0517 -0.1246,0.0358 -0.23053,0.12219 -0.29492,0.24118 -0.13424,0.24695 -0.0542,0.56234 0.17815,0.70502 0.0806,0.0498 0.17273,0.0735 0.26604,0.0691 z m 4.88474,-0.23734 c 0.19742,0 0.35812,-0.17082 0.35751,-0.38129 0,-0.20983 -0.16009,-0.38002 -0.35751,-0.38002 -0.19799,0 -0.3587,0.17019 -0.3587,0.38002 0,0.10173 0.0373,0.19831 0.10472,0.26997 0.0674,0.0716 0.15889,0.11132 0.25398,0.11132 z m -2.46583,-0.0679 c 0.053,5e-4 0.10351,-0.0218 0.14081,-0.0617 0.0373,-0.0399 0.0584,-0.0934 0.0584,-0.1497 0,-0.0561 -0.0211,-0.11004 -0.0584,-0.1497 -0.0373,-0.0399 -0.0879,-0.0623 -0.14081,-0.0623 -0.0524,0 -0.10353,0.0225 -0.14085,0.0623 -0.0373,0.0398 -0.0578,0.0934 -0.0578,0.1497 0,0.0561 0.0205,0.11003 0.0578,0.1497 0.0373,0.0399 0.0885,0.0623 0.14085,0.0617 z m 1.56365,-0.0287 c 0.17212,-4.8e-4 0.31235,-0.14906 0.31235,-0.33266 -4.5e-4,-0.1836 -0.14023,-0.33203 -0.31235,-0.33203 -0.17275,0 -0.31299,0.14843 -0.31299,0.33203 -4.6e-4,0.0885 0.0328,0.17273 0.0915,0.23542 0.0584,0.0623 0.13844,0.0972 0.2215,0.0972 z m 1.94944,-0.0385 c 0.11195,0 0.21968,-0.0474 0.29913,-0.1318 0.0788,-0.0839 0.12338,-0.19831 0.12338,-0.3173 0,-0.119 -0.0442,-0.23286 -0.12338,-0.3173 -0.0795,-0.0844 -0.18718,-0.13178 -0.29913,-0.13178 -0.11196,0 -0.21907,0.0474 -0.29852,0.13178 -0.0788,0.0845 -0.12339,0.1983 -0.12339,0.3173 0,0.11899 0.0443,0.23349 0.12339,0.3173 0.0795,0.0843 0.18656,0.1318 0.29852,0.1318 z m -2.69215,-0.23288 c 0.14986,-4.8e-4 0.27083,-0.12986 0.27143,-0.28916 0,-0.1593 -0.12157,-0.28853 -0.27143,-0.28917 -0.0722,0 -0.14146,0.0306 -0.19259,0.0852 -0.0512,0.0536 -0.0801,0.12796 -0.0801,0.20407 4.4e-4,0.15994 0.12217,0.28916 0.27265,0.28916 z m 3.84052,-0.21306 c 0.26842,0 0.48631,-0.23157 0.48631,-0.51689 0,-0.28533 -0.21789,-0.51628 -0.48631,-0.51628 -0.26843,0 -0.48572,0.23095 -0.48572,0.51628 0,0.28532 0.21729,0.51689 0.48572,0.51689 z m -4.40569,-0.15474 c 0.13,0 0.23535,-0.11198 0.23535,-0.25015 0,-0.13819 -0.10535,-0.25016 -0.23535,-0.25016 -0.12999,0 -0.23533,0.11197 -0.23533,0.25016 0,0.13817 0.10534,0.25015 0.23533,0.25015 z m -1.28621,-0.22326 c 0.14326,-0.007 0.27386,-0.0915 0.34551,-0.22327 0.056,-0.10367 0.0716,-0.22584 0.0424,-0.34098 -0.0289,-0.11516 -0.0999,-0.21305 -0.19683,-0.27255 -0.20224,-0.12413 -0.45987,-0.0498 -0.57661,0.16442 -0.11617,0.21432 -0.0476,0.48875 0.15408,0.61287 0.0704,0.0429 0.15047,0.0642 0.23171,0.0594 z m -1.23561,-0.18489 c 0.14324,-0.008 0.27324,-0.0915 0.34546,-0.22394 0.056,-0.10301 0.071,-0.22583 0.0424,-0.34031 -0.0288,-0.11515 -0.0993,-0.2137 -0.19678,-0.27317 -0.0969,-0.0596 -0.2125,-0.0754 -0.32021,-0.0449 -0.10833,0.0306 -0.20101,0.10619 -0.257,0.20918 -0.11616,0.21499 -0.0469,0.48941 0.15528,0.61289 0.0698,0.0436 0.15047,0.0642 0.23111,0.0601 z m 4.26425,-0.0866 c 0.19799,0 0.3587,-0.17017 0.3587,-0.38066 0,-0.10109 -0.0373,-0.19767 -0.10473,-0.26932 -0.0674,-0.0716 -0.15889,-0.11198 -0.25397,-0.11198 -0.0951,0 -0.18599,0.0404 -0.2534,0.11198 -0.0674,0.0716 -0.10532,0.16825 -0.10473,0.26932 0,0.21049 0.16072,0.38066 0.35813,0.38066 z m -0.90221,-0.0959 c 0.083,0 0.16312,-0.0353 0.22148,-0.0978 0.059,-0.0623 0.0915,-0.14714 0.0915,-0.2348 0,-0.0885 -0.0327,-0.17335 -0.0915,-0.23542 -0.0584,-0.0629 -0.13844,-0.0978 -0.22148,-0.0978 -0.17274,4.8e-4 -0.31238,0.14972 -0.31238,0.33332 0,0.18295 0.13964,0.332 0.31238,0.33269 z m 1.95065,-0.0398 c 0.11195,0 0.21967,-0.0474 0.29851,-0.13113 0.0795,-0.0844 0.12402,-0.19832 0.12402,-0.31734 0,-0.11895 -0.0443,-0.23348 -0.12402,-0.31729 -0.0788,-0.0845 -0.18656,-0.13179 -0.29851,-0.13179 -0.11194,0 -0.21907,0.0474 -0.29853,0.13179 -0.0788,0.0839 -0.12338,0.19834 -0.12338,0.31729 0,0.11903 0.0443,0.23287 0.12338,0.31734 0.0795,0.0835 0.18659,0.13113 0.29853,0.13113 z m -6.29493,-0.17912 c 0.14381,-0.007 0.27444,-0.0915 0.34604,-0.22392 0.056,-0.10301 0.0716,-0.22582 0.0424,-0.34098 -0.0288,-0.11514 -0.0999,-0.21304 -0.1968,-0.27253 -0.20223,-0.12347 -0.45985,-0.0498 -0.57663,0.16442 -0.11614,0.21497 -0.0475,0.48878 0.15407,0.61285 0.0704,0.0429 0.15047,0.0642 0.23113,0.0601 z m 3.60157,-0.053 c 0.0722,0 0.14144,-0.03 0.19259,-0.0842 0.0512,-0.0543 0.0801,-0.12793 0.0801,-0.2047 -4.7e-4,-0.1593 -0.1222,-0.28852 -0.27266,-0.28852 -0.14986,0 -0.27084,0.12922 -0.27143,0.28852 0,0.15994 0.12157,0.28913 0.27143,0.28913 z m 3.84172,-0.21301 c 0.26843,0 0.48572,-0.23097 0.48572,-0.51629 0,-0.28532 -0.21729,-0.51691 -0.48572,-0.51691 -0.26841,0 -0.48572,0.23159 -0.48572,0.51691 0,0.28532 0.21731,0.51629 0.48572,0.51629 z m -4.8703,-0.28214 c 0.12156,-0.006 0.23233,-0.0773 0.2937,-0.19 0.0987,-0.18232 0.0397,-0.41519 -0.13181,-0.52011 -0.17095,-0.10492 -0.39002,-0.0423 -0.48932,0.13946 -0.0987,0.18231 -0.0404,0.41518 0.1306,0.52012 0.0596,0.0364 0.12821,0.0542 0.19683,0.0505 z m -1.23566,-0.18488 c 0.12218,-0.006 0.23231,-0.0779 0.2931,-0.19066 0.0987,-0.18167 0.0404,-0.41454 -0.13058,-0.52008 -0.0825,-0.0505 -0.18058,-0.0642 -0.27206,-0.038 -0.0921,0.0262 -0.17032,0.0904 -0.21788,0.17785 -0.0987,0.18169 -0.0404,0.41456 0.13121,0.52012 0.0596,0.0365 0.12761,0.0536 0.19621,0.0505 z m 3.864,-0.3026 c 0.0457,-4.9e-4 0.0903,-0.0148 0.13001,-0.0393 0.13001,-0.0798 0.17394,-0.25655 0.0993,-0.39472 -0.0752,-0.13818 -0.24194,-0.1849 -0.37134,-0.10556 -0.13,0.0798 -0.17455,0.25718 -0.0993,0.39472 0.0493,0.0915 0.14204,0.14715 0.24134,0.14459 z m 3.41922,-0.053 c 0.15048,0 0.29493,-0.0642 0.40147,-0.17722 0.10653,-0.11321 0.16611,-0.26675 0.16611,-0.42669 0,-0.3333 -0.25401,-0.60392 -0.56758,-0.60392 -0.15107,0 -0.29551,0.0635 -0.40205,0.17658 -0.10653,0.11324 -0.16672,0.26678 -0.16672,0.42734 0,0.15994 0.0602,0.31348 0.16672,0.42734 0.10654,0.11323 0.25098,0.17656 0.40205,0.17656 z m -8.26488,-0.0454 c 0.12157,-0.006 0.23231,-0.0779 0.29372,-0.19065 0.0987,-0.18169 0.0397,-0.41456 -0.13183,-0.52013 -0.17152,-0.10489 -0.39,-0.0423 -0.48931,0.14012 -0.0987,0.1817 -0.0404,0.41456 0.13064,0.52012 0.0596,0.0366 0.12819,0.0536 0.19678,0.0505 z m 2.70602,-0.26804 c 0.10594,-0.006 0.20283,-0.0679 0.25579,-0.16635 0.0417,-0.076 0.053,-0.16696 0.0316,-0.25207 -0.0211,-0.086 -0.074,-0.158 -0.14568,-0.20216 -0.0722,-0.0442 -0.15767,-0.0561 -0.23773,-0.0331 -0.0801,0.0224 -0.14865,0.0786 -0.19019,0.15486 -0.0417,0.0767 -0.053,0.16761 -0.0316,0.25268 0.0219,0.0853 0.0741,0.15801 0.14628,0.20218 0.0518,0.0318 0.11134,0.0473 0.17152,0.0442 z m 2.92148,-0.0318 c 0.0397,-9.9e-4 0.0788,-0.0129 0.11253,-0.0337 0.0542,-0.0331 0.0939,-0.0879 0.11016,-0.15164 0.0154,-0.0648 0.007,-0.13241 -0.024,-0.18999 -0.0315,-0.0574 -0.0825,-0.0991 -0.14326,-0.11645 -0.0602,-0.0174 -0.12457,-0.008 -0.17873,0.0249 -0.11197,0.0697 -0.1505,0.22199 -0.0855,0.34161 0.0428,0.0792 0.12277,0.12732 0.20885,0.1254 z m -4.15772,-0.15419 c 0.10654,-0.005 0.20284,-0.0672 0.25581,-0.16505 0.0424,-0.076 0.0529,-0.16697 0.0322,-0.25271 -0.0211,-0.0851 -0.074,-0.15801 -0.14566,-0.20214 -0.0717,-0.0442 -0.15709,-0.0555 -0.23772,-0.0331 -0.08,0.0231 -0.14806,0.0786 -0.1896,0.15547 -0.0861,0.15866 -0.0347,0.36211 0.11436,0.45358 0.0517,0.0318 0.11131,0.0474 0.17092,0.0442 z m 4.8613,-0.003 c 0.0331,-9.7e-4 0.0656,-0.011 0.0945,-0.0287 0.0951,-0.058 0.12759,-0.18743 0.0728,-0.28849 -0.0264,-0.0486 -0.0698,-0.0846 -0.12099,-0.0985 -0.0511,-0.0149 -0.1053,-0.007 -0.15107,0.0212 -0.0457,0.0281 -0.0788,0.0741 -0.0927,0.1286 -0.014,0.0543 -0.006,0.11196 0.0205,0.16059 0.036,0.0666 0.10414,0.10748 0.177,0.10555 z m -1.67079,-0.19833 c 0.053,-9.5e-4 0.10414,-0.0161 0.14986,-0.0442 0.0716,-0.0442 0.12401,-0.11709 0.14567,-0.20215 0.0218,-0.0854 0.0103,-0.17596 -0.0316,-0.25273 -0.0417,-0.076 -0.11012,-0.1318 -0.19018,-0.15417 -0.0801,-0.023 -0.1655,-0.0106 -0.23713,0.0331 -0.14987,0.0922 -0.20103,0.29491 -0.11497,0.45418 0.0572,0.10489 0.1637,0.16883 0.27808,0.16563 z m -4.17156,-0.1996 c 0.10593,-0.005 0.20222,-0.0672 0.25579,-0.16507 0.0417,-0.0767 0.053,-0.16761 0.0315,-0.25269 -0.0219,-0.0851 -0.074,-0.15802 -0.14565,-0.20213 -0.0722,-0.0442 -0.15768,-0.0555 -0.23772,-0.0331 -0.08,0.023 -0.1487,0.0785 -0.19023,0.15548 -0.086,0.15864 -0.0347,0.3621 0.11441,0.45357 0.0523,0.0318 0.11191,0.0473 0.17211,0.0442 z m 2.77221,-0.0262 c 0.0927,-0.004 0.17634,-0.0593 0.22269,-0.14458 0.0352,-0.0666 0.0455,-0.14523 0.027,-0.21942 -0.0193,-0.0741 -0.065,-0.13694 -0.12698,-0.17532 -0.0626,-0.0385 -0.13661,-0.0486 -0.20643,-0.0287 -0.0698,0.0198 -0.12881,0.0685 -0.16492,0.13497 -0.0359,0.0666 -0.0455,0.14519 -0.027,0.21941 0.0186,0.0735 0.0644,0.13688 0.12701,0.17527 0.0449,0.0275 0.0963,0.0411 0.14864,0.0386 z m 2.35332,-0.0648 c 0.0457,-9.5e-4 0.0903,-0.0149 0.13,-0.0385 0.13001,-0.0798 0.17454,-0.25717 0.0993,-0.39469 -0.0752,-0.13822 -0.24135,-0.18554 -0.37136,-0.10556 -0.12999,0.0798 -0.17453,0.25653 -0.0993,0.39469 0.0499,0.091 0.14206,0.14587 0.24136,0.14394 z m 0.83118,-0.0568 c 0.0397,-9.8e-4 0.0776,-0.0129 0.11195,-0.0338 0.0541,-0.0331 0.0939,-0.0879 0.11013,-0.15162 0.016,-0.0648 0.008,-0.13243 -0.0235,-0.19001 -0.0315,-0.0574 -0.0831,-0.0997 -0.14326,-0.11639 -0.0602,-0.0174 -0.12457,-0.008 -0.17874,0.0249 -0.0542,0.0331 -0.0933,0.0885 -0.10953,0.15224 -0.016,0.0642 -0.007,0.13247 0.0242,0.19005 0.0429,0.0786 0.12279,0.12665 0.20888,0.12475 z m -4.42073,-0.0636 c 0.0927,-0.005 0.17635,-0.0596 0.22268,-0.14521 0.0752,-0.13821 0.0308,-0.31477 -0.0993,-0.39475 -0.0626,-0.0381 -0.13664,-0.0486 -0.20645,-0.0281 -0.0692,0.0199 -0.1288,0.0685 -0.16492,0.13434 -0.0752,0.1382 -0.0308,0.31479 0.0993,0.39476 0.0449,0.0281 0.0969,0.0417 0.14866,0.0392 z m 2.22572,-0.39535 c 0.0602,-9.6e-4 0.11855,-0.0193 0.17093,-0.0511 0.17092,-0.10492 0.22931,-0.33779 0.13059,-0.5201 -0.0987,-0.18169 -0.31778,-0.24438 -0.4893,-0.13948 -0.0825,0.0505 -0.14267,0.13373 -0.16734,0.23162 -0.0246,0.0978 -0.0122,0.20152 0.0359,0.28914 0.0656,0.12094 0.18779,0.19384 0.31899,0.18998 z m -1.67682,0 c 0.0807,-0.003 0.15289,-0.0505 0.19318,-0.12407 0.0316,-0.0574 0.0397,-0.12606 0.0236,-0.19002 -0.016,-0.0648 -0.056,-0.11898 -0.11015,-0.15227 -0.11255,-0.0685 -0.25578,-0.0274 -0.32079,0.0923 -0.0315,0.0568 -0.0397,0.1254 -0.024,0.18934 0.016,0.0647 0.056,0.11902 0.10956,0.1523 0.0392,0.0236 0.0842,0.0351 0.1288,0.0325 z m -1.53054,-0.006 c 0.0927,-0.004 0.17695,-0.0589 0.22329,-0.14458 0.0353,-0.066 0.0449,-0.14524 0.0265,-0.21881 -0.0186,-0.0741 -0.0644,-0.13756 -0.12635,-0.17594 -0.0626,-0.038 -0.13724,-0.0486 -0.20645,-0.0287 -0.0698,0.0205 -0.12942,0.0691 -0.16492,0.135 -0.0359,0.0666 -0.0457,0.14522 -0.027,0.21944 0.0186,0.0742 0.0644,0.13752 0.12638,0.17528 0.0449,0.0275 0.0963,0.0412 0.14867,0.0386 z m 5.38913,-0.18113 c 0.0449,-9.7e-4 0.0897,-0.0149 0.1294,-0.0392 0.0626,-0.038 0.10772,-0.10108 0.12699,-0.17528 0.0186,-0.0735 0.009,-0.15291 -0.027,-0.21942 -0.0752,-0.13755 -0.24134,-0.18489 -0.37134,-0.10557 -0.0626,0.0385 -0.10835,0.10173 -0.127,0.17594 -0.0186,0.0735 -0.009,0.15291 0.027,0.2194 0.05,0.091 0.14264,0.14651 0.24195,0.14395 z m -1.00211,-0.0511 c 0.0523,-9.6e-4 0.10351,-0.0161 0.14865,-0.0442 0.0722,-0.0442 0.12459,-0.11647 0.14626,-0.20152 0.0211,-0.086 0.0103,-0.17661 -0.0315,-0.25271 -0.0417,-0.0767 -0.11013,-0.13245 -0.19018,-0.15547 -0.0807,-0.0224 -0.16611,-0.0109 -0.23774,0.0331 -0.0722,0.0442 -0.12458,0.11706 -0.14627,0.20216 -0.0212,0.0851 -0.01,0.17592 0.0316,0.25269 0.0578,0.10555 0.16488,0.16887 0.27927,0.16569 z m -3.83754,-0.16184 c 0.0801,-0.004 0.15229,-0.0511 0.1926,-0.12474 0.0315,-0.0574 0.0397,-0.12607 0.0236,-0.19002 -0.016,-0.0642 -0.0554,-0.119 -0.10954,-0.15226 -0.0542,-0.0331 -0.11857,-0.0423 -0.17876,-0.0249 -0.0602,0.0174 -0.11196,0.0596 -0.14323,0.11709 -0.0316,0.0574 -0.0397,0.1254 -0.0237,0.19002 0.016,0.0641 0.0554,0.11833 0.10957,0.15162 0.0391,0.0243 0.0842,0.0352 0.12938,0.0331 z m 0.53148,-0.22651 c 0.0674,-0.003 0.12879,-0.043 0.16307,-0.1049 0.0548,-0.10109 0.0218,-0.23031 -0.0734,-0.28851 -0.0457,-0.0287 -0.0999,-0.0366 -0.15107,-0.0217 -0.0512,0.0149 -0.0945,0.0499 -0.12097,0.0984 -0.0264,0.0486 -0.0338,0.10619 -0.0199,0.16057 0.014,0.0543 0.0469,0.10036 0.0927,0.12861 0.0339,0.0205 0.0716,0.03 0.10955,0.0274 z m 1.43786,-0.16759 c 0.0704,-9.9e-4 0.13963,-0.023 0.201,-0.0609 0.20164,-0.1241 0.27145,-0.39791 0.15469,-0.61289 -0.056,-0.103 -0.14806,-0.17846 -0.25639,-0.20918 -0.10836,-0.0312 -0.22329,-0.0149 -0.32078,0.0449 -0.0969,0.0594 -0.16732,0.15737 -0.19622,0.27252 -0.0288,0.11517 -0.0143,0.238 0.0424,0.341 0.077,0.14202 0.22085,0.22775 0.37555,0.22454 z m 2.68493,-0.14716 c 0.053,-9.5e-4 0.10413,-0.0161 0.14985,-0.0442 0.0716,-0.0442 0.1246,-0.11644 0.14567,-0.20215 0.0219,-0.0851 0.0103,-0.17592 -0.0314,-0.25205 -0.0417,-0.0767 -0.10955,-0.13243 -0.19021,-0.15548 -0.08,-0.0231 -0.16551,-0.0107 -0.23715,0.0331 -0.0722,0.0442 -0.12457,0.11709 -0.14624,0.20215 -0.0219,0.0852 -0.0103,0.17594 0.0316,0.25271 0.0572,0.10493 0.16372,0.16889 0.27807,0.1657 z m -1.22781,-0.103 c 0.0602,-9.5e-4 0.11917,-0.0193 0.17092,-0.0505 0.0825,-0.0511 0.14265,-0.13434 0.16672,-0.23157 0.0245,-0.0978 0.0122,-0.20215 -0.0359,-0.28979 -0.0987,-0.18168 -0.31778,-0.24374 -0.48932,-0.13883 -0.17091,0.10556 -0.22993,0.33842 -0.13121,0.52012 0.0656,0.1209 0.18779,0.19384 0.319,0.19062 z m -2.44783,-0.48234 c 0.0813,-0.002 0.16072,-0.0262 0.23114,-0.0691 0.11196,-0.0685 0.1932,-0.18169 0.2269,-0.31411 0.0337,-0.13242 0.016,-0.27318 -0.0487,-0.39215 -0.0644,-0.11901 -0.17033,-0.20538 -0.29489,-0.24058 -0.12459,-0.0357 -0.2576,-0.0174 -0.36896,0.0518 -0.23232,0.14263 -0.31178,0.45806 -0.17754,0.705 0.0885,0.16377 0.25458,0.26291 0.43211,0.2591 z m 3.26577,-0.22008 c 0.0602,-9.8e-4 0.11855,-0.0193 0.17093,-0.0518 0.17093,-0.1049 0.22931,-0.33775 0.13061,-0.52009 -0.0987,-0.18171 -0.3178,-0.2444 -0.48933,-0.13946 -0.17154,0.10489 -0.22992,0.33774 -0.1312,0.52007 0.065,0.12093 0.18778,0.19447 0.31899,0.19128 z m -1.50649,-0.0928 c 0.071,-0.001 0.14025,-0.0224 0.20164,-0.0603 0.20162,-0.12345 0.27085,-0.3979 0.15466,-0.61285 -0.0559,-0.10301 -0.14863,-0.17848 -0.25638,-0.20919 -0.10834,-0.0305 -0.22391,-0.0149 -0.3208,0.0449 -0.0969,0.0594 -0.16792,0.15801 -0.19682,0.27316 -0.0288,0.11452 -0.014,0.23735 0.0427,0.34035 0.077,0.142 0.2209,0.22775 0.37498,0.22389 z m -3.08697,-0.22901 c 0.0945,-0.002 0.18777,-0.0305 0.26963,-0.0811 0.27144,-0.16631 0.36472,-0.53547 0.20823,-0.82398 -0.15706,-0.28853 -0.50437,-0.38771 -0.77578,-0.2207 -0.27145,0.16631 -0.36414,0.53545 -0.20767,0.82397 0.10353,0.19127 0.29734,0.30706 0.50559,0.30195 z m 3.90492,-0.47408 c 0.0704,-10e-4 0.13963,-0.0225 0.20102,-0.0603 0.20223,-0.12344 0.27146,-0.3979 0.15467,-0.61284 -0.056,-0.10302 -0.14804,-0.17851 -0.25639,-0.2092 -0.10833,-0.0305 -0.22329,-0.0149 -0.32078,0.0449 -0.0969,0.0594 -0.16732,0.15735 -0.19621,0.27251 -0.0288,0.11516 -0.0142,0.23798 0.0424,0.34097 0.0776,0.14201 0.22147,0.22775 0.37555,0.22389 z m -1.80863,-0.0293 c 0.0813,-9.9e-4 0.1613,-0.0263 0.23113,-0.0691 0.23292,-0.14263 0.31235,-0.45803 0.17876,-0.7056 -0.0644,-0.11837 -0.17092,-0.20536 -0.29553,-0.24119 -0.12459,-0.0354 -0.25698,-0.0168 -0.36892,0.0517 -0.11195,0.0685 -0.19325,0.18166 -0.2263,0.31408 -0.0337,0.13245 -0.0154,0.27318 0.0488,0.39221 0.0891,0.16314 0.25459,0.26227 0.43213,0.2578 z"
       id="start-here-kde-9-7-3-6-1" />
  </g>
</svg>
