<?xml version="1.0" encoding="UTF-8" standalone="no"?>
<svg
   width="32"
   version="1.1"
   height="32"
   viewBox="0 0 32 32"
   id="svg18"
   sodipodi:docname="folder-image-people.svg"
   inkscape:version="1.2.1 (9c6d41e410, 2022-07-14)"
   xmlns:inkscape="http://www.inkscape.org/namespaces/inkscape"
   xmlns:sodipodi="http://sodipodi.sourceforge.net/DTD/sodipodi-0.dtd"
   xmlns:xlink="http://www.w3.org/1999/xlink"
   xmlns="http://www.w3.org/2000/svg"
   xmlns:svg="http://www.w3.org/2000/svg"
   xmlns:rdf="http://www.w3.org/1999/02/22-rdf-syntax-ns#"
   xmlns:cc="http://creativecommons.org/ns#"
   xmlns:dc="http://purl.org/dc/elements/1.1/">
  <sodipodi:namedview
     pagecolor="#ffffff"
     bordercolor="#666666"
     borderopacity="1"
     objecttolerance="10"
     gridtolerance="10"
     guidetolerance="10"
     inkscape:pageopacity="0"
     inkscape:pageshadow="2"
     inkscape:window-width="1920"
     inkscape:window-height="1002"
     id="namedview20"
     showgrid="false"
     inkscape:zoom="9.8125"
     inkscape:cx="-7.8980892"
     inkscape:cy="8.7133758"
     inkscape:window-x="0"
     inkscape:window-y="0"
     inkscape:window-maximized="1"
     inkscape:current-layer="layer1"
     inkscape:document-rotation="0"
     inkscape:showpageshadow="2"
     inkscape:pagecheckerboard="0"
     inkscape:deskcolor="#d1d1d1" />
  <defs
     id="defs5455">
    <linearGradient
       inkscape:collect="always"
       xlink:href="#linearGradient860-3"
       id="linearGradient862"
       x1="113.94583"
       y1="366.97165"
       x2="406.08234"
       y2="159.71205"
       gradientUnits="userSpaceOnUse"
       gradientTransform="matrix(0.08718413,0,0,0.08743938,378.12694,508.28168)" />
    <linearGradient
       inkscape:collect="always"
       id="linearGradient860-3">
      <stop
         style="stop-color:#8fbcbb;stop-opacity:1;"
         offset="0"
         id="stop856-6" />
      <stop
         style="stop-color:#a3be8c;stop-opacity:1;"
         offset="1"
         id="stop858-7" />
    </linearGradient>
    <linearGradient
       inkscape:collect="always"
       xlink:href="#linearGradient842-3"
       id="linearGradient844-5"
       x1="386.3063"
       y1="539.79773"
       x2="447.95114"
       y2="504.71896"
       gradientUnits="userSpaceOnUse"
       gradientTransform="matrix(0.43700454,0,0,0.53058974,218.75381,257.38692)" />
    <linearGradient
       inkscape:collect="always"
       id="linearGradient842-3">
      <stop
         style="stop-color:#5e81ac;stop-opacity:1;"
         offset="0"
         id="stop838-5" />
      <stop
         style="stop-color:#88c0d0;stop-opacity:1;"
         offset="1"
         id="stop840-6" />
    </linearGradient>
  </defs>
  <metadata
     id="metadata5458">
    <rdf:RDF>
      <cc:Work
         rdf:about="">
        <dc:format>image/svg+xml</dc:format>
        <dc:type
           rdf:resource="http://purl.org/dc/dcmitype/StillImage" />
      </cc:Work>
    </rdf:RDF>
  </metadata>
  <g
     inkscape:label="Capa 1"
     inkscape:groupmode="layer"
     id="layer1"
     transform="translate(-384.57143,-515.798)">
    <path
       style="fill:url(#linearGradient862);fill-opacity:1;stroke-width:0.0808991"
       d="m 400.79481,522.24682 c -0.37861,0 -0.82546,-0.24718 -0.99518,-0.54656 l -0.76131,-1.34531 c -0.16891,-0.29936 -0.61713,-0.54364 -0.99556,-0.54424 l -8.37707,-0.0127 c -1.2365,-0.002 -1.60479,0.44329 -1.60447,1.42451 l 1.4e-4,0.41352 v 1.21698 l -1.4e-4,16.04705 c 0,0.43777 0.9915,1.4694 1.46942,1.4694 h 22.53086 c 0.4898,0 1.46939,-0.97959 1.46939,-1.4694 v -15.18384 c 0,-0.97959 -0.4898,-1.46939 -1.44538,-1.46939 z"
       id="path4-3"
       sodipodi:nodetypes="sccsssccscsssss" />
    <path
       style="fill:#434c5e;fill-opacity:1;stroke-width:0.0831644"
       d="m 411.57167,528.32036 c 0,0.70043 -0.3342,1.27348 -1.09879,1.27348 h -19.39509 c -0.76457,0 -1.05735,-0.57305 -1.05735,-1.27348 v -3.62452 c 0,-0.97963 0.4898,-1.46942 1.46941,-1.46942 h 18.61244 c 0.97959,0 1.46938,0.48979 1.46938,1.46942 z"
       id="path8-6"
       sodipodi:nodetypes="sssssssss" />
    <path
       style="fill:url(#linearGradient844-5);fill-opacity:1;stroke-width:0.0935314"
       d="m 411.08188,525.18563 h -20.57164 c -1.95921,0 -2.93881,0.97959 -2.93881,2.93881 v 13.22462 c 0,1.46941 0.9796,2.44899 2.44901,2.44899 h 21.55123 c 1.46942,0 2.44902,-0.97958 2.44902,-2.44899 v -13.22462 c 0,-1.95922 -0.9796,-2.93881 -2.93881,-2.93881 z"
       id="path10"
       sodipodi:nodetypes="sssssssss" />
    <path
       d="m 404.37162,540.36963 h -6.46539 c -0.48579,0 -0.88164,-0.39582 -0.88164,-0.88162 0,-0.0287 0.006,-0.69934 0.54337,-1.36026 0.3083,-0.38026 0.72931,-0.68011 1.2511,-0.89484 0.62977,-0.2591 1.41063,-0.38866 2.32108,-0.38866 0.91041,0 1.6901,0.13078 2.32104,0.38866 0.5218,0.21351 0.94163,0.51458 1.25111,0.89484 0.53497,0.66092 0.54096,1.33147 0.54096,1.36026 0,0.4858 -0.39583,0.88162 -0.88163,0.88162 z m -6.75926,-0.88043 c 0,0.16194 0.13196,0.29269 0.29387,0.29269 h 6.46539 c 0.16192,0 0.29386,-0.13075 0.29386,-0.29269 0,-0.0204 -0.0193,-0.52658 -0.43422,-1.01958 -0.57214,-0.68014 -1.64211,-1.03877 -3.09234,-1.03877 -1.4502,0 -2.52017,0.35983 -3.09233,1.03877 -0.41504,0.49419 -0.43423,0.9992 -0.43423,1.01958 z"
       id="path4-4"
       style="fill:#434c5e;fill-opacity:1;stroke-width:0.0119952" />
    <path
       d="m 401.13892,536.25532 c -1.29666,0 -2.35104,-1.05438 -2.35104,-2.35104 0,-1.29668 1.05438,-2.35105 2.35104,-2.35105 1.29668,0 2.35105,1.05437 2.35105,2.35105 0,1.29666 -1.05437,2.35104 -2.35105,2.35104 z m 0,-4.11434 c -0.9716,0 -1.76328,0.79168 -1.76328,1.7633 0,0.9716 0.79168,1.76327 1.76328,1.76327 0.97161,0 1.76329,-0.79167 1.76329,-1.76327 0,-0.97281 -0.79168,-1.7633 -1.76329,-1.7633 z"
       id="path6-8"
       style="fill:#434c5e;fill-opacity:1;stroke-width:0.0119952" />
  </g>
</svg>
