<?xml version="1.0" encoding="UTF-8" standalone="no"?>
<svg
   width="32"
   version="1.1"
   height="32"
   viewBox="0 0 32 32"
   id="svg15"
   sodipodi:docname="folder-java.svg"
   inkscape:version="1.2.1 (9c6d41e410, 2022-07-14)"
   xmlns:inkscape="http://www.inkscape.org/namespaces/inkscape"
   xmlns:sodipodi="http://sodipodi.sourceforge.net/DTD/sodipodi-0.dtd"
   xmlns="http://www.w3.org/2000/svg"
   xmlns:svg="http://www.w3.org/2000/svg"
   xmlns:rdf="http://www.w3.org/1999/02/22-rdf-syntax-ns#"
   xmlns:cc="http://creativecommons.org/ns#"
   xmlns:dc="http://purl.org/dc/elements/1.1/">
  <sodipodi:namedview
     pagecolor="#ffffff"
     bordercolor="#666666"
     borderopacity="1"
     objecttolerance="10"
     gridtolerance="10"
     guidetolerance="10"
     inkscape:pageopacity="0"
     inkscape:pageshadow="2"
     inkscape:window-width="1920"
     inkscape:window-height="1002"
     id="namedview17"
     showgrid="true"
     inkscape:zoom="9.8125003"
     inkscape:cx="4.8407642"
     inkscape:cy="10.140127"
     inkscape:window-x="0"
     inkscape:window-y="0"
     inkscape:window-maximized="1"
     inkscape:current-layer="layer1"
     inkscape:document-rotation="0"
     inkscape:showpageshadow="2"
     inkscape:pagecheckerboard="0"
     inkscape:deskcolor="#d1d1d1">
    <inkscape:grid
       type="xygrid"
       id="grid1205" />
  </sodipodi:namedview>
  <defs
     id="defs5455" />
  <metadata
     id="metadata5458">
    <rdf:RDF>
      <cc:Work
         rdf:about="">
        <dc:format>image/svg+xml</dc:format>
        <dc:type
           rdf:resource="http://purl.org/dc/dcmitype/StillImage" />
      </cc:Work>
    </rdf:RDF>
  </metadata>
  <g
     inkscape:label="Capa 1"
     inkscape:groupmode="layer"
     id="layer1"
     transform="translate(-384.57143,-515.798)">
    <path
       style="fill:#88c0d0;fill-opacity:1;stroke-width:0.080209"
       d="m 400.57019,522.24682 c -0.37217,0 -0.81143,-0.24718 -0.97828,-0.54656 l -0.74837,-1.34531 c -0.16604,-0.29936 -0.60665,-0.54365 -0.97864,-0.54424 l -8.23478,-0.0127 c -1.2155,-0.002 -1.57753,0.44329 -1.57721,1.42451 l 1.4e-4,0.41352 v 1.21698 l -1.4e-4,16.04705 c 0,0.43777 0.97463,1.4694 1.44445,1.4694 h 22.14814 c 0.48149,0 1.44445,-0.97959 1.44445,-1.4694 v -15.18384 c 0,-0.97959 -0.48148,-1.46939 -1.42084,-1.46939 z"
       id="path4-3-3"
       sodipodi:nodetypes="sccsssccscsssss" />
    <path
       style="fill:#434c5e;fill-opacity:1;stroke-width:0.082455"
       d="m 411.16401,528.32036 c 0,0.70043 -0.32853,1.27348 -1.08013,1.27348 h -19.06565 c -0.7516,0 -1.0394,-0.57305 -1.0394,-1.27348 v -3.62452 c 0,-0.97963 0.48148,-1.46942 1.44444,-1.46942 h 18.2963 c 0.96296,0 1.44444,0.48979 1.44444,1.46942 z"
       id="path8-6-6"
       sodipodi:nodetypes="sssssssss" />
    <path
       style="fill:#d08770;fill-opacity:1;stroke-width:0.0927335"
       d="m 410.68254,525.18563 h -20.22222 c -1.92593,0 -2.88889,0.97959 -2.88889,2.93881 v 13.22462 c 0,1.46941 0.96296,2.44899 2.40741,2.44899 h 21.18518 c 1.44445,0 2.40741,-0.97958 2.40741,-2.44899 v -13.22462 c 0,-1.95922 -0.96296,-2.93881 -2.88889,-2.93881 z"
       id="path10-7"
       sodipodi:nodetypes="sssssssss" />
    <path
       d="m 404.86092,540.36963 h -9.55002 c -0.13158,0 -0.23876,-0.19 -0.23876,-0.32385 0,-0.13376 0.10719,-0.32377 0.23876,-0.32377 h 9.55002 c 0.13158,0 0.23872,0.19001 0.23872,0.32377 0,0.13385 -0.10714,0.32385 -0.23872,0.32385 z"
       id="path2-3-2"
       style="color:#eff0f1;fill:#434c5e;fill-opacity:1;stroke-width:0.0240804"
       sodipodi:nodetypes="sssssss"
       class="ColorScheme-Text" />
    <path
       d="m 403.42912,538.58859 h -9.7e-4 c -0.12607,0 -0.23057,-0.10035 -0.23806,-0.22854 -0.008,-0.13365 0.0926,-0.24873 0.22424,-0.25681 h 2e-4 c 9.7e-4,-2.4e-4 0.003,-4.5e-4 0.008,-5e-4 0.0111,-9.6e-4 0.023,-0.002 0.0366,-0.003 0.0304,-0.003 0.0812,-0.0108 0.14636,-0.0238 0.11679,-0.0233 0.30012,-0.0703 0.51117,-0.15791 0.54249,-0.22588 0.98438,-0.59454 1.31291,-1.0956 0.36577,-0.55302 0.38845,-0.82408 0.38676,-0.89403 -4.8e-4,-0.0643 -0.0129,-0.0947 -0.0257,-0.11635 -0.0156,-0.0255 -0.036,-0.0443 -0.0688,-0.0634 -0.0709,-0.0422 -0.20749,-0.0685 -0.35692,-0.0685 -0.003,0 -0.007,0 -0.0105,0 h -0.004 c -0.29366,0 -0.63509,0.086 -0.68998,0.10248 -0.002,4.9e-4 -0.002,4.9e-4 -0.002,4.9e-4 -0.0211,0.006 -0.0435,0.009 -0.0657,0.009 -0.106,0 -0.20031,-0.0723 -0.22946,-0.17612 -0.018,-0.0626 -0.0101,-0.12798 0.0205,-0.1848 0.0306,-0.0566 0.0819,-0.0976 0.14324,-0.11561 4.7e-4,0 0.003,-9.8e-4 0.009,-0.002 0.12961,-0.0361 0.4689,-0.11853 0.82006,-0.11974 0.17884,5e-4 0.32286,0.0209 0.4534,0.065 0.12182,0.0406 0.28865,0.12628 0.39253,0.30261 0.0616,0.1037 0.094,0.2305 0.0936,0.36628 -0.003,0.31306 -0.14756,0.67175 -0.46702,1.16334 -0.20988,0.32061 -0.46529,0.59896 -0.75897,0.8275 -0.23566,0.18337 -0.49492,0.33421 -0.77066,0.4486 -0.44575,0.18481 -0.78887,0.21712 -0.85307,0.22173 h -9.6e-4 c -0.004,2.3e-4 -0.009,4.8e-4 -0.0133,4.8e-4 z"
       id="path6-6-9"
       style="color:#eff0f1;fill:#434c5e;fill-opacity:1;stroke-width:0.0240804"
       class="ColorScheme-Text" />
    <path
       d="m 404.62218,534.70255 h -5.01371 c -0.13163,0 -0.23877,-0.10904 -0.23877,-0.2429 0,-0.13387 0.10713,-0.24288 0.23877,-0.24288 h 4.57605 v -0.72867 h -8.19719 v 0.72867 h 1.23355 c 0.13158,0 0.23876,0.10901 0.23876,0.24288 0,0.13386 -0.10718,0.2429 -0.23876,0.2429 h -1.6712 c -0.0628,0 -0.12441,-0.0261 -0.16879,-0.0712 -0.0447,-0.0455 -0.07,-0.10782 -0.07,-0.17167 v -1.2144 c 0,-0.064 0.0257,-0.32882 0.07,-0.37404 0.0447,-0.0455 0.10599,-0.0712 0.16879,-0.0712 h 9.0725 c 0.0628,0 0.12445,0.0262 0.16881,0.0712 0.0447,0.0455 0.0699,0.31016 0.0699,0.37404 v 1.2144 c 0,0.064 -0.0257,0.12651 -0.0699,0.17167 -0.0446,0.0455 -0.10597,0.0712 -0.16881,0.0712 z m -6.20754,0 c -0.13182,0 -0.23876,-0.10904 -0.23876,-0.2429 0,-0.13387 0.10694,-0.24288 0.23876,-0.24288 0.13158,0 0.23877,0.10901 0.23877,0.24288 0,0.13386 -0.10719,0.2429 -0.23877,0.2429 z"
       id="path10-7-3"
       style="color:#eff0f1;fill:#434c5e;fill-opacity:1;stroke-width:0.0240804"
       sodipodi:nodetypes="ssssccccsssssssssscsscssssss"
       class="ColorScheme-Text" />
    <path
       d="m 399.60847,533.4881 c -0.13163,0 -0.23877,-0.10899 -0.23877,-0.24285 v -0.48579 c 0,-0.19447 0.0744,-0.3776 0.20988,-0.51504 0.13506,-0.13758 0.31491,-0.21351 0.50637,-0.21351 h 2.86502 c 0.13124,-2.7e-4 0.23853,-0.10935 0.23876,-0.24291 -2.4e-4,-0.13358 -0.10753,-0.24265 -0.23876,-0.24283 h -4.53632 c -0.19127,0 -0.3712,-0.0758 -0.50641,-0.21351 -0.13532,-0.13753 -0.20983,-0.32033 -0.20983,-0.51516 0,-0.13384 0.10723,-0.24288 0.23871,-0.24288 0.13163,0 0.23877,0.10904 0.23877,0.24288 2.4e-4,0.13357 0.10747,0.24267 0.23876,0.24291 h 4.53632 c 0.19146,0 0.3712,0.0756 0.50637,0.21349 0.13535,0.13739 0.20987,0.32052 0.20987,0.5151 0,0.19485 -0.0745,0.37764 -0.20987,0.51518 -0.13517,0.13765 -0.31491,0.2134 -0.50637,0.2134 h -2.86502 c -0.13138,2.8e-4 -0.23854,0.10934 -0.23877,0.24288 v 0.48579 c 0,0.13386 -0.10723,0.24285 -0.23871,0.24285 z"
       id="path14-5-9"
       style="color:#eff0f1;fill:#434c5e;fill-opacity:1;stroke-width:0.0240804"
       class="ColorScheme-Text" />
    <path
       d="m 400.82083,540.28867 h -1.45095 c -0.0176,0 -0.0306,-10e-4 -0.048,-0.004 -0.54219,-0.11318 -1.06261,-0.34218 -1.5468,-0.68051 -0.46969,-0.32842 -0.84275,-0.67735 -1.20301,-1.17861 -0.1064,-0.15999 -0.0266,-0.35183 0.0858,-0.44371 0.0408,-0.0303 0.12753,-0.0703 0.2177,-0.0955 0.0909,-0.0257 0.2276,0.0377 0.27256,0.0995 0.65942,0.91739 1.30306,1.41269 2.2464,1.61554 h 1.40163 c 0.94261,-0.20303 1.62426,-0.61977 2.28012,-1.54049 0.66708,-0.93606 1.05883,-2.1286 1.10345,-3.35753 h -8.1924 c 0.016,0.42453 0.0773,0.84688 0.17392,1.25538 0.003,0.0192 0.007,0.0388 0.007,0.0578 -0.0373,0.12902 -0.15281,0.19873 -0.26019,0.225 -0.0186,0.003 -0.0793,0.0173 -0.098,0.0173 -0.11078,0 -0.28578,-0.0764 -0.3118,-0.18602 -0.10738,-0.45443 -0.16898,-0.92392 -0.18354,-1.39535 -0.002,-0.0821 -0.003,-0.1513 -0.003,-0.21661 0,-0.0641 0.0258,-0.12655 0.07,-0.17174 0.0447,-0.0455 0.10598,-0.0712 0.16875,-0.0712 h 9.07256 c 0.0628,0 0.12441,0.0261 0.16879,0.0711 0.0447,0.0455 0.07,0.10786 0.07,0.17175 0,0.0659 -9.7e-4,0.13477 -0.003,0.21661 -0.0205,0.68154 -0.13778,1.34893 -0.34786,1.98309 -0.20365,0.61449 -0.48873,1.18157 -0.84756,1.68581 -0.35862,0.50346 -0.77812,0.92581 -1.24679,1.25543 -0.48348,0.34001 -1.00371,0.56976 -1.54636,0.68319 -0.0173,0.003 -0.0304,0.004 -0.048,0.004 z m -4.70372,-2.88416 c -0.0935,0 -0.17874,-0.0557 -0.21748,-0.14228 v -2.4e-4 c -0.027,-0.0589 -0.0287,-0.12511 -0.006,-0.18563 0.0223,-0.0607 0.0666,-0.10898 0.12483,-0.13602 0.031,-0.014 0.0645,-0.0212 0.0986,-0.0212 0.0933,0 0.17882,0.0558 0.21749,0.14233 v 2.3e-4 c 0.0545,0.12193 9.6e-4,0.26593 -0.11867,0.32131 -0.0309,0.0148 -0.0644,0.0215 -0.0986,0.0215 z"
       id="path22-3-0"
       style="color:#eff0f1;fill:#434c5e;fill-opacity:1;stroke-width:0.0240804"
       sodipodi:nodetypes="ssccccscccccccccsccsssscscccccssccccscccs"
       class="ColorScheme-Text" />
    <path
       d="m 404.02535,535.91695 h -5.25257 c -0.13158,0 -0.23876,-0.10914 -0.23876,-0.24288 0,-0.13387 0.10718,-0.2429 0.23876,-0.2429 h 5.25257 c 0.13148,0 0.23867,0.10903 0.23867,0.2429 0,0.13374 -0.10719,0.24288 -0.23867,0.24288 z"
       id="path26-5-8"
       style="color:#eff0f1;fill:#434c5e;fill-opacity:1;stroke-width:0.0240804"
       class="ColorScheme-Text" />
  </g>
</svg>
