<?xml version="1.0" encoding="UTF-8" standalone="no"?>
<svg
   width="32"
   version="1.1"
   height="32"
   viewBox="0 0 32 32"
   id="svg15"
   sodipodi:docname="folder-Pop_OS.svg"
   inkscape:version="1.2.1 (9c6d41e410, 2022-07-14)"
   xmlns:inkscape="http://www.inkscape.org/namespaces/inkscape"
   xmlns:sodipodi="http://sodipodi.sourceforge.net/DTD/sodipodi-0.dtd"
   xmlns:xlink="http://www.w3.org/1999/xlink"
   xmlns="http://www.w3.org/2000/svg"
   xmlns:svg="http://www.w3.org/2000/svg"
   xmlns:rdf="http://www.w3.org/1999/02/22-rdf-syntax-ns#"
   xmlns:cc="http://creativecommons.org/ns#"
   xmlns:dc="http://purl.org/dc/elements/1.1/">
  <sodipodi:namedview
     pagecolor="#ffffff"
     bordercolor="#666666"
     borderopacity="1"
     objecttolerance="10"
     gridtolerance="10"
     guidetolerance="10"
     inkscape:pageopacity="0"
     inkscape:pageshadow="2"
     inkscape:window-width="1920"
     inkscape:window-height="1002"
     id="namedview17"
     showgrid="false"
     inkscape:zoom="9.8125"
     inkscape:cx="-13.095541"
     inkscape:cy="6.4713376"
     inkscape:window-x="0"
     inkscape:window-y="0"
     inkscape:window-maximized="1"
     inkscape:current-layer="layer1"
     inkscape:document-rotation="0"
     inkscape:showpageshadow="2"
     inkscape:pagecheckerboard="0"
     inkscape:deskcolor="#d1d1d1" />
  <defs
     id="defs5455">
    <linearGradient
       inkscape:collect="always"
       xlink:href="#linearGradient860"
       id="linearGradient862"
       x1="113.94583"
       y1="366.97165"
       x2="406.08234"
       y2="159.71205"
       gradientUnits="userSpaceOnUse"
       gradientTransform="matrix(0.08570321,0,0,0.08743939,378.28739,508.28166)" />
    <linearGradient
       inkscape:collect="always"
       id="linearGradient860">
      <stop
         style="stop-color:#8fbcbb;stop-opacity:1;"
         offset="0"
         id="stop856" />
      <stop
         style="stop-color:#a3be8c;stop-opacity:1;"
         offset="1"
         id="stop858" />
    </linearGradient>
    <linearGradient
       inkscape:collect="always"
       xlink:href="#linearGradient842"
       id="linearGradient844"
       x1="386.3063"
       y1="539.79773"
       x2="447.95114"
       y2="504.71896"
       gradientUnits="userSpaceOnUse"
       gradientTransform="matrix(0.42958153,0,0,0.53058974,221.62138,257.38689)" />
    <linearGradient
       inkscape:collect="always"
       id="linearGradient842">
      <stop
         style="stop-color:#5e81ac;stop-opacity:1;"
         offset="0"
         id="stop838" />
      <stop
         style="stop-color:#88c0d0;stop-opacity:1;"
         offset="1"
         id="stop840" />
    </linearGradient>
  </defs>
  <metadata
     id="metadata5458">
    <rdf:RDF>
      <cc:Work
         rdf:about="">
        <dc:format>image/svg+xml</dc:format>
        <dc:type
           rdf:resource="http://purl.org/dc/dcmitype/StillImage" />
      </cc:Work>
    </rdf:RDF>
  </metadata>
  <g
     inkscape:label="Capa 1"
     inkscape:groupmode="layer"
     id="layer1"
     transform="translate(-384.57143,-515.798)">
    <path
       style="fill:url(#linearGradient862);fill-opacity:1;stroke-width:0.080209"
       d="m 400.57019,522.24682 c -0.37217,0 -0.81143,-0.24718 -0.97828,-0.54656 l -0.74837,-1.34531 c -0.16604,-0.29936 -0.60665,-0.54364 -0.97864,-0.54424 l -8.23478,-0.0127 c -1.2155,-0.002 -1.57753,0.44329 -1.57721,1.42451 l 1.4e-4,0.41352 v 1.21698 l -1.4e-4,16.04705 c 0,0.43777 0.97463,1.4694 1.44445,1.4694 h 22.14814 c 0.48149,0 1.44445,-0.97959 1.44445,-1.4694 v -15.18384 c 0,-0.97959 -0.48148,-1.46939 -1.42084,-1.46939 z"
       id="path4-3"
       sodipodi:nodetypes="sccsssccscsssss" />
    <path
       style="fill:#434c5e;fill-opacity:1;stroke-width:0.082455"
       d="m 411.16402,528.32036 c 0,0.70043 -0.32854,1.27348 -1.08014,1.27348 h -19.06565 c -0.75159,0 -1.03939,-0.57305 -1.03939,-1.27348 v -3.62452 c 0,-0.97963 0.48148,-1.46942 1.44444,-1.46942 h 18.2963 c 0.96296,0 1.44444,0.48979 1.44444,1.46942 z"
       id="path8-6"
       sodipodi:nodetypes="sssssssss" />
    <path
       style="fill:url(#linearGradient844);fill-opacity:1;stroke-width:0.0927335"
       d="m 410.68254,525.18563 h -20.22222 c -1.92593,0 -2.88889,0.97959 -2.88889,2.93881 v 13.22462 c 0,1.46941 0.96296,2.44899 2.40741,2.44899 h 21.18518 c 1.44445,0 2.40741,-0.97958 2.40741,-2.44899 v -13.22462 c 0,-1.95922 -0.96296,-2.93881 -2.88889,-2.93881 z"
       id="path10"
       sodipodi:nodetypes="sssssssss" />
    <path
       style="fill:#434c5e;fill-opacity:1;stroke-width:0.0116569"
       id="path2-3-6-4"
       d="m 405.42616,536.76086 c -0.0218,0.0939 -0.0686,0.17704 -0.14865,0.22933 -0.12578,0.0818 -0.27902,0.058 -0.38761,-0.0417 -0.10179,-0.0927 -0.13609,-0.24956 -0.10406,-0.38505 0.0331,-0.14144 0.13835,-0.2662 0.27325,-0.30543 0.30075,-0.087 0.42536,0.25315 0.36707,0.50273 z m -0.18409,-0.96501 c -0.18639,-0.0771 -0.12237,-1.0933 0.0482,-2.32683 0.0482,-0.34463 0.13035,-0.50749 0.22295,-0.59066 0.13263,-0.11762 0.37392,-0.12241 0.5374,-0.0974 0.18756,0.0282 0.36704,0.1189 0.50311,0.25552 0.12006,0.12124 0.13382,0.24481 0.0926,0.40526 -0.0675,0.25552 -0.18293,0.50033 -0.29386,0.73919 -0.0261,0.058 -0.25614,0.51098 -0.28696,0.56682 -0.55459,1.0149 -0.66547,1.11359 -0.82329,1.04818 z" />
    <path
       style="fill:#434c5e;fill-opacity:1;stroke-width:0.0116569"
       id="path4-6-7-4"
       d="m 401.48021,535.33835 c 0.10977,0.48723 0.0983,1.02202 0.004,1.40702 -0.0881,0.36366 -0.32702,0.68923 -0.70665,0.7986 -0.33272,0.0962 -0.72034,0.0259 -0.95816,-0.21152 -0.39106,-0.3898 -0.61974,-1.30485 -0.51797,-1.96914 0.0823,-0.53361 0.35902,-1.21693 0.96617,-1.24667 0.0389,-0.002 0.0777,-9.6e-4 0.11665,0.002 0.61857,0.058 0.95589,0.60015 1.09538,1.21929 z m -1.11824,1.10874 c 0.034,0.006 0.0686,0.006 0.10291,-0.004 0.11547,-0.0341 0.18179,-0.15927 0.21265,-0.28049 0.0469,-0.18418 0.0402,-0.38265 -0.0205,-0.56331 -0.0311,-0.0917 -0.0766,-0.18062 -0.14637,-0.24719 -0.24583,-0.2341 -0.49164,0.009 -0.53397,0.28641 -0.0331,0.2163 0.015,0.46704 0.14522,0.64173 0.0606,0.0806 0.14752,0.15093 0.24012,0.16756 z" />
    <path
       style="fill:#434c5e;fill-opacity:1;stroke-width:0.0116569"
       id="path6-7-5-7"
       d="m 402.81917,536.37105 c -9.6e-4,0.89958 0.0858,1.58768 -0.29503,1.66968 -0.3087,0.0656 -0.2984,-0.21629 -0.32243,-0.45278 -0.0914,-0.91625 -0.17492,-2.43857 -0.2104,-3.35954 0.025,-0.39576 0.28018,-0.63822 0.54544,-0.69761 0.40933,-0.0916 0.84612,-0.0655 1.20857,0.16756 0.71693,0.4611 0.77409,1.30724 0.33961,1.99766 -0.23782,0.37675 -0.95705,0.65009 -1.26576,0.62631 z m 0.0915,-2.0167 c -0.0445,0.007 -0.11776,0.0282 -0.13835,0.0736 -0.0492,0.10577 -0.046,0.77721 0.0402,1.05884 0.0138,0.0466 0.0444,0.0905 0.0892,0.10696 0.16238,0.062 0.30875,-0.14497 0.37507,-0.26974 0.0926,-0.17353 0.12232,-0.37789 0.064,-0.56807 -0.055,-0.17704 -0.22524,-0.43374 -0.42991,-0.40166 z" />
    <path
       style="fill:#434c5e;fill-opacity:1;stroke-width:0.0116569"
       id="path8-5-3-6"
       d="m 398.71886,534.80117 c -0.26871,0.59066 -0.71463,1.06009 -1.33207,1.29179 0.17725,0.48131 0.3579,0.95668 0.53397,1.43677 0.0984,0.25904 0.19209,0.54311 0.10635,0.79857 -0.0892,0.26146 -0.43679,0.33392 -0.68949,0.0558 -0.48594,-0.53718 -2.12902,-3.94071 -2.25021,-4.19623 -0.10295,-0.21986 -0.25726,-0.45517 -0.25274,-0.70945 0.008,-0.38266 0.57747,-0.77009 0.85071,-0.96853 0.38192,-0.2769 0.82325,-0.46589 1.29548,-0.46702 0.3682,0 0.68262,0.10457 0.96164,0.28992 0.42763,0.28527 0.72493,0.74037 0.83471,1.25496 0.096,0.45278 0.0754,0.91628 -0.0583,1.21337 m -1.25204,-0.64653 c -0.096,-0.36241 -0.31333,-0.69634 -0.58658,-0.93048 -0.0595,-0.0509 -0.12351,-0.0986 -0.1978,-0.12476 -0.51224,-0.17472 -0.29042,0.71539 -0.20695,0.93999 0.11548,0.31492 0.29042,0.71302 0.52481,0.9507 0.0513,0.0521 0.11207,0.0986 0.18179,0.11289 0.10634,0.0226 0.20466,-0.0546 0.25844,-0.14495 0.0443,-0.0748 0.0617,-0.16401 0.072,-0.25074 0.0193,-0.18419 0.002,-0.37202 -0.046,-0.55265 z" />
    <path
       style="fill:#434c5e;fill-opacity:1;stroke-width:0.0116569"
       id="path10-5-3"
       d="m 404.84455,539.32503 c -0.002,0.5217 -0.30873,1.04345 -0.98447,1.04345 -0.67577,0 -0.99019,-0.51342 -0.99019,-1.03749 0,-0.65361 0.43792,-1.0577 1.0039,-1.0577 0.65632,0.006 0.97648,0.51226 0.97076,1.05174 z m -0.97076,-0.72254 c -0.42421,0 -0.66206,0.30661 -0.6643,0.72493 0,0.36363 0.19551,0.70471 0.65629,0.70471 0.4608,0 0.63689,-0.36957 0.63689,-0.7083 0.006,-0.35176 -0.1738,-0.71301 -0.62888,-0.72134 z m 1.25434,1.49857 c 0,0.0771 0.002,-0.36722 0,-0.43498 h 0.31102 l 0.0219,0.27217 c 0.1018,0.0608 0.25958,0.10577 0.38877,0.10577 0.24015,0 0.49055,-0.0633 0.49055,-0.30663 -0.008,-0.22104 -0.28701,-0.26618 -0.51224,-0.28996 -0.38305,-0.0408 -0.69177,-0.13783 -0.69177,-0.58466 0,-0.39814 0.43333,-0.59658 0.75577,-0.59658 0.25957,-0.006 0.44365,0.0367 0.67804,0.23172 0,0.16047 -0.002,0.25551 -0.002,0.41595 h -0.30066 l -0.0193,-0.26381 c -0.1212,-0.0607 -0.24587,-0.0772 -0.34188,-0.0748 -0.20698,0.002 -0.42763,0.10337 -0.42763,0.28399 0,0.17709 0.1429,0.22579 0.39673,0.26384 0.41395,0.057 0.813,0.1545 0.813,0.61323 -0.002,0.5015 -0.45508,0.63338 -0.84384,0.63338 -0.29616,9.8e-4 -0.48138,-0.0558 -0.71579,-0.26857 z"
       inkscape:connector-curvature="0" />
    <path
       style="fill:#434c5e;fill-opacity:1;stroke-width:0.0116569"
       id="path12-6-1"
       d="m 402.45023,540.19731 c 0,0.0917 -0.0709,0.1652 -0.15893,0.1652 h -1.83748 c -0.088,0 -0.15891,-0.0736 -0.15891,-0.1652 v -0.0145 c 0,-0.0915 0.0709,-0.1652 0.15891,-0.1652 h 1.83748 c 0.0881,0 0.15893,0.0737 0.15893,0.1652 z"
       inkscape:connector-curvature="0" />
  </g>
</svg>
