<?xml version="1.0" encoding="UTF-8" standalone="no"?>
<svg
   width="32"
   version="1.1"
   height="32"
   viewBox="0 0 32 32"
   id="svg17"
   sodipodi:docname="folder-activities.svg"
   inkscape:version="1.2.1 (9c6d41e410, 2022-07-14)"
   xmlns:inkscape="http://www.inkscape.org/namespaces/inkscape"
   xmlns:sodipodi="http://sodipodi.sourceforge.net/DTD/sodipodi-0.dtd"
   xmlns:xlink="http://www.w3.org/1999/xlink"
   xmlns="http://www.w3.org/2000/svg"
   xmlns:svg="http://www.w3.org/2000/svg"
   xmlns:rdf="http://www.w3.org/1999/02/22-rdf-syntax-ns#"
   xmlns:cc="http://creativecommons.org/ns#"
   xmlns:dc="http://purl.org/dc/elements/1.1/">
  <sodipodi:namedview
     pagecolor="#ffffff"
     bordercolor="#666666"
     borderopacity="1"
     objecttolerance="10"
     gridtolerance="10"
     guidetolerance="10"
     inkscape:pageopacity="0"
     inkscape:pageshadow="2"
     inkscape:window-width="1920"
     inkscape:window-height="1002"
     id="namedview19"
     showgrid="true"
     inkscape:zoom="9.8125"
     inkscape:cx="-6.3694268"
     inkscape:cy="13.707006"
     inkscape:window-x="0"
     inkscape:window-y="0"
     inkscape:window-maximized="1"
     inkscape:current-layer="layer1"
     inkscape:document-rotation="0"
     inkscape:showpageshadow="2"
     inkscape:pagecheckerboard="0"
     inkscape:deskcolor="#d1d1d1">
    <inkscape:grid
       type="xygrid"
       id="grid908" />
  </sodipodi:namedview>
  <defs
     id="defs5455">
    <linearGradient
       inkscape:collect="always"
       xlink:href="#linearGradient860-6"
       id="linearGradient862-3"
       x1="113.94583"
       y1="366.97165"
       x2="406.08234"
       y2="159.71205"
       gradientUnits="userSpaceOnUse"
       gradientTransform="matrix(0.08570196,0,0,0.0874394,378.28751,508.28162)" />
    <linearGradient
       inkscape:collect="always"
       id="linearGradient860-6">
      <stop
         style="stop-color:#8fbcbb;stop-opacity:1;"
         offset="0"
         id="stop856-7" />
      <stop
         style="stop-color:#a3be8c;stop-opacity:1;"
         offset="1"
         id="stop858-5" />
    </linearGradient>
    <linearGradient
       inkscape:collect="always"
       xlink:href="#linearGradient842-3"
       id="linearGradient844"
       x1="386.3063"
       y1="539.79773"
       x2="447.95114"
       y2="504.71896"
       gradientUnits="userSpaceOnUse"
       gradientTransform="matrix(0.42957526,0,0,0.53058986,221.62379,257.3868)" />
    <linearGradient
       inkscape:collect="always"
       id="linearGradient842-3">
      <stop
         style="stop-color:#5e81ac;stop-opacity:1;"
         offset="0"
         id="stop838-5" />
      <stop
         style="stop-color:#88c0d0;stop-opacity:1;"
         offset="1"
         id="stop840" />
    </linearGradient>
  </defs>
  <metadata
     id="metadata5458">
    <rdf:RDF>
      <cc:Work
         rdf:about="">
        <dc:format>image/svg+xml</dc:format>
        <dc:type
           rdf:resource="http://purl.org/dc/dcmitype/StillImage" />
      </cc:Work>
    </rdf:RDF>
  </metadata>
  <g
     inkscape:label="Capa 1"
     inkscape:groupmode="layer"
     id="layer1"
     transform="translate(-384.57143,-515.798)">
    <path
       style="fill:url(#linearGradient862-3);fill-opacity:1;stroke-width:0.0802084"
       d="m 400.57,522.24682 c -0.37216,0 -0.81142,-0.24718 -0.97826,-0.54656 l -0.74836,-1.34531 c -0.16604,-0.29936 -0.60664,-0.54365 -0.97863,-0.54424 l -8.23466,-0.0127 c -1.21548,-0.002 -1.57751,0.44329 -1.57719,1.42451 l 1.4e-4,0.41352 v 1.21698 l -1.4e-4,16.04705 c 0,0.43778 0.97462,1.4694 1.44443,1.4694 h 22.14782 c 0.48148,0 1.44442,-0.97959 1.44442,-1.4694 v -15.18384 c 0,-0.97959 -0.48147,-1.46939 -1.42081,-1.46939 z"
       id="path4-3-6"
       sodipodi:nodetypes="sccsssccscsssss" />
    <path
       style="fill:#434c5e;fill-opacity:1;stroke-width:0.0824543"
       d="m 411.16367,528.32036 c 0,0.70043 -0.32853,1.27349 -1.08012,1.27349 h -19.06537 c -0.75158,0 -1.03938,-0.57306 -1.03938,-1.27349 v -3.62452 c 0,-0.97963 0.48148,-1.46942 1.44442,-1.46942 h 18.29604 c 0.96294,0 1.44441,0.48979 1.44441,1.46942 z"
       id="path8-6-2"
       sodipodi:nodetypes="sssssssss" />
    <path
       style="fill:url(#linearGradient844);fill-opacity:1;stroke-width:0.0927329"
       d="m 410.6822,525.18563 h -20.22192 c -1.9259,0 -2.88885,0.97959 -2.88885,2.93882 v 13.22461 c 0,1.46941 0.96295,2.44899 2.40737,2.44899 h 21.18487 c 1.44443,0 2.40738,-0.97958 2.40738,-2.44899 v -13.22461 c 0,-1.95923 -0.96295,-2.93882 -2.88885,-2.93882 z"
       id="path10-9"
       sodipodi:nodetypes="sssssssss" />
    <path
       id="path20-6"
       style="color:#31363b;fill:#434c5e;fill-opacity:1;stroke-width:0.400336"
       d="m 398.61951,530.67885 c -0.32885,0 -0.59542,0.27114 -0.59542,0.60563 0,0.33452 0.26656,0.60566 0.59542,0.60566 0.32879,0 0.59539,-0.27114 0.59539,-0.60566 0,-0.33449 -0.2666,-0.60563 -0.59539,-0.60563 z m 4.16766,0 c -0.72565,-0.40974 -1.5861,0.45797 -1.19078,1.21129 l 1.78617,1.81705 -1.78617,1.81706 c -0.49048,0.8334 0.48,1.63253 1.19078,1.21132 l 2.97688,-3.02838 z m -5.55687,3.63404 c -0.54803,0 -0.99233,0.45193 -0.99233,1.00943 0,0.55754 0.4443,1.0095 0.99233,1.0095 0.54798,0 0.99227,-0.45196 0.99227,-1.0095 0,-0.5575 -0.44429,-1.00943 -0.99227,-1.00943 z m 2.57994,3.63402 c -0.65766,0 -1.19073,0.54237 -1.19073,1.21141 0,0.66901 0.53307,1.21131 1.19073,1.21131 0.65765,0 1.19079,-0.5423 1.19079,-1.21131 0,-0.66905 -0.53314,-1.21141 -1.19079,-1.21141 z"
       class="ColorScheme-Text"
       sodipodi:nodetypes="ssssscccccccssssssssss" />
  </g>
</svg>
