<?xml version="1.0" encoding="UTF-8" standalone="no"?>
<svg
   width="32"
   version="1.1"
   height="32"
   viewBox="0 0 32 32"
   id="svg15"
   sodipodi:docname="folder-windows.svg"
   inkscape:version="1.2.1 (9c6d41e410, 2022-07-14)"
   xmlns:inkscape="http://www.inkscape.org/namespaces/inkscape"
   xmlns:sodipodi="http://sodipodi.sourceforge.net/DTD/sodipodi-0.dtd"
   xmlns:xlink="http://www.w3.org/1999/xlink"
   xmlns="http://www.w3.org/2000/svg"
   xmlns:svg="http://www.w3.org/2000/svg"
   xmlns:rdf="http://www.w3.org/1999/02/22-rdf-syntax-ns#"
   xmlns:cc="http://creativecommons.org/ns#"
   xmlns:dc="http://purl.org/dc/elements/1.1/">
  <sodipodi:namedview
     pagecolor="#ffffff"
     bordercolor="#666666"
     borderopacity="1"
     objecttolerance="10"
     gridtolerance="10"
     guidetolerance="10"
     inkscape:pageopacity="0"
     inkscape:pageshadow="2"
     inkscape:window-width="1920"
     inkscape:window-height="1002"
     id="namedview17"
     showgrid="true"
     inkscape:zoom="13.876971"
     inkscape:cx="11.637986"
     inkscape:cy="8.323142"
     inkscape:window-x="0"
     inkscape:window-y="0"
     inkscape:window-maximized="1"
     inkscape:current-layer="layer1"
     inkscape:document-rotation="0"
     inkscape:showpageshadow="2"
     inkscape:pagecheckerboard="0"
     inkscape:deskcolor="#d1d1d1">
    <inkscape:grid
       type="xygrid"
       id="grid1205" />
  </sodipodi:namedview>
  <defs
     id="defs5455">
    <linearGradient
       inkscape:collect="always"
       id="linearGradient860">
      <stop
         style="stop-color:#8fbcbb;stop-opacity:1;"
         offset="0"
         id="stop856" />
      <stop
         style="stop-color:#a3be8c;stop-opacity:1;"
         offset="1"
         id="stop858" />
    </linearGradient>
    <linearGradient
       inkscape:collect="always"
       id="linearGradient842">
      <stop
         style="stop-color:#5e81ac;stop-opacity:1;"
         offset="0"
         id="stop838" />
      <stop
         style="stop-color:#88c0d0;stop-opacity:1;"
         offset="1"
         id="stop840" />
    </linearGradient>
    <linearGradient
       inkscape:collect="always"
       xlink:href="#linearGradient860"
       id="linearGradient862-3"
       x1="113.94583"
       y1="366.97165"
       x2="406.08234"
       y2="159.71205"
       gradientUnits="userSpaceOnUse"
       gradientTransform="matrix(0.08570321,0,0,0.08743938,378.28739,508.28164)" />
    <linearGradient
       inkscape:collect="always"
       xlink:href="#linearGradient842"
       id="linearGradient844-5"
       x1="386.3063"
       y1="539.79773"
       x2="447.95114"
       y2="504.71896"
       gradientUnits="userSpaceOnUse"
       gradientTransform="matrix(0.42958153,0,0,0.53058974,221.62138,257.38687)" />
  </defs>
  <metadata
     id="metadata5458">
    <rdf:RDF>
      <cc:Work
         rdf:about="">
        <dc:format>image/svg+xml</dc:format>
        <dc:type
           rdf:resource="http://purl.org/dc/dcmitype/StillImage" />
      </cc:Work>
    </rdf:RDF>
  </metadata>
  <g
     inkscape:label="Capa 1"
     inkscape:groupmode="layer"
     id="layer1"
     transform="translate(-384.57143,-515.798)">
    <path
       style="fill:url(#linearGradient862-3);fill-opacity:1;stroke-width:0.080209"
       d="m 400.57019,522.24682 c -0.37217,0 -0.81143,-0.24718 -0.97828,-0.54656 l -0.74837,-1.34531 c -0.16604,-0.29936 -0.60665,-0.54365 -0.97864,-0.54424 l -8.23478,-0.0127 c -1.2155,-0.002 -1.57753,0.44329 -1.57721,1.42451 l 1.4e-4,0.41352 v 1.21698 l -1.4e-4,16.04705 c 0,0.43777 0.97463,1.4694 1.44445,1.4694 h 22.14814 c 0.48149,0 1.44445,-0.97959 1.44445,-1.4694 v -15.18384 c 0,-0.97959 -0.48148,-1.46939 -1.42084,-1.46939 z"
       id="path4-3-6"
       sodipodi:nodetypes="sccsssccscsssss" />
    <path
       style="fill:#434c5e;fill-opacity:1;stroke-width:0.082455"
       d="m 411.16402,528.32036 c 0,0.70043 -0.32854,1.27348 -1.08014,1.27348 h -19.06565 c -0.75159,0 -1.03939,-0.57305 -1.03939,-1.27348 v -3.62452 c 0,-0.97963 0.48148,-1.46942 1.44444,-1.46942 h 18.2963 c 0.96296,0 1.44444,0.48979 1.44444,1.46942 z"
       id="path8-6-2"
       sodipodi:nodetypes="sssssssss" />
    <path
       style="fill:url(#linearGradient844-5);fill-opacity:1;stroke-width:0.0927335"
       d="m 410.68254,525.18563 h -20.22222 c -1.92593,0 -2.88889,0.97959 -2.88889,2.93881 v 13.22462 c 0,1.46941 0.96296,2.44899 2.40741,2.44899 h 21.18518 c 1.44445,0 2.40741,-0.97958 2.40741,-2.44899 v -13.22462 c 0,-1.95922 -0.96296,-2.93881 -2.88889,-2.93881 z"
       id="path10-9"
       sodipodi:nodetypes="sssssssss" />
    <path
       fill-rule="evenodd"
       clip-rule="evenodd"
       d="m 404.18198,540.36911 h -2.10642 c -0.16604,0 -0.30109,-0.13722 -0.30109,-0.3061 0,-0.16922 0.13505,-0.30614 0.30109,-0.30614 h 1.95596 c 0.41556,0 0.75231,-0.34256 0.75231,-0.76528 v -1.98979 c 0,-0.16925 0.13459,-0.30646 0.30094,-0.30646 0.16634,0 0.30091,0.13721 0.30091,0.30646 v 2.14281 c 0,0.67625 -0.53893,1.2245 -1.2037,1.2245 z m -8.12491,-6.73455 c 0.16634,0 0.30098,0.1369 0.30098,0.30609 0,0.16872 -0.13464,0.30579 -0.30098,0.30579 -0.16627,0 -0.30094,-0.13707 -0.30094,-0.30579 0,-0.16919 0.13467,-0.30609 0.30094,-0.30609 z m 9.31746,1.38395 c -0.003,0.0327 -0.009,0.0657 -0.0159,0.0974 -0.003,0.0158 -0.008,0.03 -0.0113,0.0455 -0.007,0.0266 -0.0134,0.0535 -0.0221,0.0794 -0.003,0.0112 -0.008,0.0227 -0.0118,0.034 -0.0108,0.0297 -0.0217,0.0595 -0.035,0.0882 -0.003,0.008 -0.007,0.0147 -0.0104,0.022 -0.0148,0.0308 -0.0303,0.0622 -0.0475,0.0915 -0.003,0.006 -0.007,0.0119 -0.0107,0.0185 -0.0185,0.0303 -0.0381,0.0606 -0.059,0.0895 -0.003,0.003 -0.006,0.008 -0.009,0.0122 -0.0227,0.0301 -0.0468,0.0599 -0.0719,0.0878 -10e-4,0.002 -0.004,0.005 -0.007,0.008 -0.0275,0.03 -0.0565,0.0588 -0.0867,0.0864 -0.21218,0.18984 -0.48961,0.30614 -0.79435,0.30614 v 0.0158 c -0.0486,-0.0101 -0.099,-0.0158 -0.15044,-0.0158 h -2.10643 c -0.4155,0 -0.7523,0.34259 -0.7523,0.76527 v 2.14282 c 0,0.0521 0.006,0.10373 0.0155,0.1531 h -0.0155 c 0,0.30998 -0.11415,0.5922 -0.30091,0.80804 -0.027,0.0305 -0.055,0.0604 -0.0846,0.0884 -10e-4,10e-4 -0.004,0.003 -0.007,0.007 -0.0276,0.0257 -0.0566,0.0498 -0.0862,0.0729 -0.003,0.003 -0.008,0.006 -0.0118,0.009 -0.0285,0.0211 -0.0577,0.0411 -0.0878,0.0603 -0.006,0.003 -0.0117,0.008 -0.018,0.0109 -0.029,0.0176 -0.0594,0.033 -0.09,0.0482 -0.008,0.003 -0.0144,0.008 -0.0217,0.0106 -0.0281,0.0133 -0.0571,0.0244 -0.0865,0.0357 -0.011,0.003 -0.0223,0.009 -0.0335,0.0122 -0.0256,0.009 -0.0519,0.0158 -0.0781,0.0225 -0.0152,0.003 -0.0293,0.008 -0.0447,0.0113 -0.0312,0.007 -0.0635,0.0118 -0.0957,0.0163 -0.009,9.8e-4 -0.0174,0.003 -0.0265,0.003 -0.0427,0.005 -0.0865,0.008 -0.13052,0.008 h -3.00905 c -0.66476,-6e-5 -1.20381,-0.54836 -1.20381,-1.22454 v -3.06121 c 0,-0.6763 0.53905,-1.22457 1.20381,-1.22457 h 0.30101 1.95576 c 0.41562,0 0.75232,-0.34263 0.75232,-0.76532 v -2.14285 c 0,-0.42267 -0.3367,-0.76528 -0.75232,-0.76528 h -2.10637 c -0.4155,0 -0.75224,0.34261 -0.75224,0.76528 v 0.76531 c 0,0.16907 -0.13465,0.30613 -0.30098,0.30613 -0.16626,0 -0.30094,-0.13706 -0.30094,-0.30613 v -0.91824 c 2e-5,-0.67634 0.53907,-1.22462 1.20383,-1.22462 h 2.40744 c 0.0441,0 0.0872,9.9e-4 0.1299,0.007 0.01,5.1e-4 0.0194,0.003 0.0293,0.005 0.0317,0.003 0.0629,0.009 0.0938,0.016 0.0145,0.003 0.0279,0.008 0.042,0.0109 0.0273,0.007 0.054,0.0136 0.0802,0.0227 0.0106,0.003 0.0214,0.008 0.0326,0.012 0.0293,0.0109 0.059,0.0225 0.0874,0.0357 0.008,0.003 0.0154,0.007 0.023,0.0107 0.0298,0.0146 0.0597,0.0303 0.0884,0.0478 0.006,0.003 0.012,0.008 0.0183,0.0111 0.0298,0.0189 0.0594,0.0389 0.0878,0.06 0.003,0.003 0.008,0.006 0.012,0.009 0.0297,0.023 0.0587,0.0475 0.0862,0.0728 10e-4,9.9e-4 0.004,0.004 0.007,0.007 0.0297,0.028 0.0577,0.0573 0.0846,0.0885 0.18676,0.21585 0.30098,0.49808 0.30098,0.80806 h 0.0155 c -0.01,0.0492 -0.0155,0.10057 -0.0155,0.15291 v 2.29577 c 0,0.67635 -0.53902,1.22462 -1.20354,1.22462 h -2.25707 c -0.41551,0 -0.75224,0.34266 -0.75224,0.76539 v 2.75508 c 0,0.4227 0.33671,0.76531 0.75224,0.76531 h 2.70844 c 0.41553,0 0.75223,-0.34261 0.75223,-0.76531 v -2.29643 c 0,-0.67621 0.53898,-1.22424 1.20355,-1.22424 h 2.25703 c 0.41555,0 0.75231,-0.34243 0.75231,-0.76515 v -2.75526 c 0,-0.42271 -0.33676,-0.76529 -0.75231,-0.76529 h -2.55767 c -0.1662,0 -0.30109,-0.13689 -0.30109,-0.30615 0,-0.16919 0.13489,-0.3061 0.30109,-0.3061 h 2.7081 c 0.66476,0 1.2037,0.54826 1.2037,1.22465 v 3.06104 c 0,0.0448 -0.002,0.0894 -0.008,0.13273 -4.8e-4,0.009 -0.002,0.0182 -0.003,0.027 z"
       id="path2-3-3-7"
       style="fill:#434c5e;fill-opacity:1;stroke-width:0.0189692" />
  </g>
</svg>
