<?xml version="1.0" encoding="UTF-8" standalone="no"?>
<svg
   width="32"
   version="1.1"
   height="32"
   viewBox="0 0 32 32"
   id="svg15"
   sodipodi:docname="folder-openSUSE.svg"
   inkscape:version="1.2.1 (9c6d41e410, 2022-07-14)"
   xmlns:inkscape="http://www.inkscape.org/namespaces/inkscape"
   xmlns:sodipodi="http://sodipodi.sourceforge.net/DTD/sodipodi-0.dtd"
   xmlns:xlink="http://www.w3.org/1999/xlink"
   xmlns="http://www.w3.org/2000/svg"
   xmlns:svg="http://www.w3.org/2000/svg"
   xmlns:rdf="http://www.w3.org/1999/02/22-rdf-syntax-ns#"
   xmlns:cc="http://creativecommons.org/ns#"
   xmlns:dc="http://purl.org/dc/elements/1.1/">
  <sodipodi:namedview
     pagecolor="#ffffff"
     bordercolor="#666666"
     borderopacity="1"
     objecttolerance="10"
     gridtolerance="10"
     guidetolerance="10"
     inkscape:pageopacity="0"
     inkscape:pageshadow="2"
     inkscape:window-width="1920"
     inkscape:window-height="1002"
     id="namedview17"
     showgrid="false"
     inkscape:zoom="9.8125"
     inkscape:cx="-13.095541"
     inkscape:cy="6.4713376"
     inkscape:window-x="0"
     inkscape:window-y="0"
     inkscape:window-maximized="1"
     inkscape:current-layer="layer1"
     inkscape:document-rotation="0"
     inkscape:showpageshadow="2"
     inkscape:pagecheckerboard="0"
     inkscape:deskcolor="#d1d1d1" />
  <defs
     id="defs5455">
    <linearGradient
       inkscape:collect="always"
       xlink:href="#linearGradient860"
       id="linearGradient862"
       x1="113.94583"
       y1="366.97165"
       x2="406.08234"
       y2="159.71205"
       gradientUnits="userSpaceOnUse"
       gradientTransform="matrix(0.08570321,0,0,0.08743902,378.28738,508.28173)" />
    <linearGradient
       inkscape:collect="always"
       id="linearGradient860">
      <stop
         style="stop-color:#8fbcbb;stop-opacity:1;"
         offset="0"
         id="stop856" />
      <stop
         style="stop-color:#a3be8c;stop-opacity:1;"
         offset="1"
         id="stop858" />
    </linearGradient>
    <linearGradient
       inkscape:collect="always"
       xlink:href="#linearGradient842"
       id="linearGradient844"
       x1="386.3063"
       y1="539.79773"
       x2="447.95114"
       y2="504.71896"
       gradientUnits="userSpaceOnUse"
       gradientTransform="matrix(0.42958153,0,0,0.53058754,221.62138,257.38798)" />
    <linearGradient
       inkscape:collect="always"
       id="linearGradient842">
      <stop
         style="stop-color:#5e81ac;stop-opacity:1;"
         offset="0"
         id="stop838" />
      <stop
         style="stop-color:#88c0d0;stop-opacity:1;"
         offset="1"
         id="stop840" />
    </linearGradient>
  </defs>
  <metadata
     id="metadata5458">
    <rdf:RDF>
      <cc:Work
         rdf:about="">
        <dc:format>image/svg+xml</dc:format>
        <dc:type
           rdf:resource="http://purl.org/dc/dcmitype/StillImage" />
      </cc:Work>
    </rdf:RDF>
  </metadata>
  <g
     inkscape:label="Capa 1"
     inkscape:groupmode="layer"
     id="layer1"
     transform="translate(-384.57143,-515.798)">
    <path
       style="fill:url(#linearGradient862);fill-opacity:1;stroke-width:0.0802088"
       d="m 400.57019,522.24681 c -0.37217,0 -0.81143,-0.24718 -0.97828,-0.54656 l -0.74837,-1.34531 c -0.16604,-0.29935 -0.60665,-0.54363 -0.97864,-0.54423 l -8.23478,-0.0127 c -1.2155,-0.002 -1.57753,0.44329 -1.57721,1.42451 l 1.4e-4,0.41351 v 1.21697 l -1.4e-4,16.04699 c 0,0.43777 0.97463,1.46939 1.44445,1.46939 h 22.14814 c 0.48149,0 1.44445,-0.97958 1.44445,-1.46939 v -15.18378 c 0,-0.97958 -0.48148,-1.46938 -1.42084,-1.46938 z"
       id="path4-3"
       sodipodi:nodetypes="sccsssccscsssss" />
    <path
       style="fill:#434c5e;fill-opacity:1;stroke-width:0.0824548"
       d="m 411.16402,528.32032 c 0,0.70043 -0.32854,1.27348 -1.08014,1.27348 h -19.06565 c -0.75159,0 -1.03939,-0.57305 -1.03939,-1.27348 v -3.6245 c 0,-0.97963 0.48148,-1.46942 1.44444,-1.46942 h 18.2963 c 0.96296,0 1.44444,0.48979 1.44444,1.46942 z"
       id="path8-6"
       sodipodi:nodetypes="sssssssss" />
    <path
       style="fill:url(#linearGradient844);fill-opacity:1;stroke-width:0.0927333"
       d="m 410.68254,525.18561 h -20.22222 c -1.92593,0 -2.88889,0.97958 -2.88889,2.9388 v 13.22456 c 0,1.4694 0.96296,2.44898 2.40741,2.44898 h 21.18518 c 1.44445,0 2.40741,-0.97958 2.40741,-2.44898 v -13.22456 c 0,-1.95922 -0.96296,-2.9388 -2.88889,-2.9388 z"
       id="path10"
       sodipodi:nodetypes="sssssssss" />
    <path
       style="color:#4d4d4d;font-size:20.4884px;font-family:TrebuchetMS-Bold;fill:#434c5e;fill-opacity:1;fill-rule:evenodd;stroke:none;stroke-width:0.069531;stroke-miterlimit:4"
       d="m 400.83384,530.57357 c -2.65895,0 -4.81482,2.19285 -4.81482,4.89801 0,2.70511 2.15587,4.89796 4.81482,4.89796 2.65894,0 4.81481,-2.19285 4.81481,-4.89796 0,-2.70516 -2.15587,-4.89801 -4.81481,-4.89801 z m 0.0231,0.67832 c 2.29102,0 4.14979,1.88933 4.14979,4.21969 0,2.33058 -1.85902,4.21965 -4.14979,4.21965 -1.23706,0 -2.3471,-0.55155 -3.10701,-1.4252 0.31245,-0.24668 0.83521,-0.1865 1.47902,-0.11183 0.30853,0.0354 0.66024,0.0764 1.02326,0.0847 1.01419,0.006 2.10543,-0.18229 2.77894,-0.48166 0.43542,-0.19425 0.71421,-0.32219 0.88847,-0.48349 0.0628,-0.0524 0.0958,-0.14003 0.12947,-0.23092 l 0.0231,-0.0614 c 0.0282,-0.0734 0.0687,-0.23138 0.0869,-0.31752 0.008,-0.038 0.0121,-0.0781 -0.0142,-0.0991 l -0.094,0.0181 c -0.29552,0.18031 -1.03385,0.52366 -1.72553,0.53762 -0.85711,0.0184 -2.58459,-0.87772 -2.76475,-0.97239 l -0.0177,-0.0217 c -0.0432,-0.10487 -0.30172,-0.72919 -0.35646,-0.86054 1.24345,0.83298 2.27437,1.29401 3.06447,1.36568 0.87845,0.0793 1.56369,-0.40849 1.85675,-0.61698 0.0572,-0.0398 0.1009,-0.0708 0.11882,-0.0775 l 0.0195,-0.0323 c -0.0486,-0.31412 -0.50949,-1.8341 -0.85656,-2.19914 -0.0962,-0.10006 -0.17271,-0.19755 -0.32808,-0.29046 -1.2562,-0.74483 -4.23889,-1.19341 -4.37855,-1.21413 l -0.0231,0.007 -0.009,0.0199 c 0,0 -0.0112,0.63005 -0.0124,0.69996 -0.10235,-0.0343 -0.41972,-0.14016 -0.87429,-0.267 0.59312,-0.74658 1.50207,-1.40897 3.09283,-1.40897 z m 1.09597,2.23341 c 0.0212,-3.2e-4 0.0425,-4.8e-4 0.0639,0 0.7037,0.0257 1.25657,0.62865 1.23252,1.34401 -0.0125,0.34608 -0.15595,0.66583 -0.40434,0.90204 -0.24913,0.23745 -0.57293,0.36121 -0.91509,0.34999 -0.70247,-0.0266 -1.25534,-0.62967 -1.23251,-1.34402 0.012,-0.34658 0.15624,-0.66838 0.4061,-0.90384 0.23334,-0.2226 0.53197,-0.34334 0.84947,-0.34818 z m -0.0337,0.38248 c -0.20495,0.0129 -0.39835,0.0973 -0.54976,0.24171 -0.17255,0.16482 -0.27436,0.38793 -0.28197,0.62965 -0.0162,0.49937 0.36792,0.91961 0.85833,0.93808 0.23833,0.007 0.46441,-0.0773 0.63843,-0.24172 0.17353,-0.16555 0.27461,-0.39074 0.28197,-0.63142 0.0164,-0.50015 -0.36945,-0.91884 -0.8601,-0.9363 -0.0297,-0.001 -0.0576,-0.001 -0.0869,0 z m 0.23409,0.45278 c 0.21796,0 0.3937,0.12051 0.39369,0.26881 0,0.14759 -0.17573,0.2688 -0.39369,0.2688 -0.21869,0 -0.39547,-0.12145 -0.39547,-0.2688 0,-0.1483 0.17678,-0.26881 0.39547,-0.26881 z"
       id="path2445-3-6"
       class="ColorScheme-Text"
       inkscape:connector-curvature="0" />
  </g>
</svg>
