<?xml version="1.0" encoding="UTF-8" standalone="no"?>
<svg
   width="32"
   version="1.1"
   height="32"
   viewBox="0 0 32 32"
   id="svg15"
   sodipodi:docname="folder-design.svg"
   inkscape:version="1.2.1 (9c6d41e410, 2022-07-14)"
   xmlns:inkscape="http://www.inkscape.org/namespaces/inkscape"
   xmlns:sodipodi="http://sodipodi.sourceforge.net/DTD/sodipodi-0.dtd"
   xmlns:xlink="http://www.w3.org/1999/xlink"
   xmlns="http://www.w3.org/2000/svg"
   xmlns:svg="http://www.w3.org/2000/svg"
   xmlns:rdf="http://www.w3.org/1999/02/22-rdf-syntax-ns#"
   xmlns:cc="http://creativecommons.org/ns#"
   xmlns:dc="http://purl.org/dc/elements/1.1/">
  <sodipodi:namedview
     pagecolor="#ffffff"
     bordercolor="#666666"
     borderopacity="1"
     objecttolerance="10"
     gridtolerance="10"
     guidetolerance="10"
     inkscape:pageopacity="0"
     inkscape:pageshadow="2"
     inkscape:window-width="1920"
     inkscape:window-height="1002"
     id="namedview17"
     showgrid="true"
     inkscape:zoom="13.876971"
     inkscape:cx="11.637986"
     inkscape:cy="14.088089"
     inkscape:window-x="0"
     inkscape:window-y="0"
     inkscape:window-maximized="1"
     inkscape:current-layer="layer1"
     inkscape:document-rotation="0"
     inkscape:showpageshadow="2"
     inkscape:pagecheckerboard="0"
     inkscape:deskcolor="#d1d1d1">
    <inkscape:grid
       type="xygrid"
       id="grid1205" />
  </sodipodi:namedview>
  <defs
     id="defs5455">
    <linearGradient
       inkscape:collect="always"
       xlink:href="#linearGradient860"
       id="linearGradient862"
       x1="113.94583"
       y1="366.97165"
       x2="406.08234"
       y2="159.71205"
       gradientUnits="userSpaceOnUse"
       gradientTransform="matrix(0.08570319,0,0,0.08743907,378.28739,508.28172)" />
    <linearGradient
       inkscape:collect="always"
       id="linearGradient860">
      <stop
         style="stop-color:#8fbcbb;stop-opacity:1;"
         offset="0"
         id="stop856" />
      <stop
         style="stop-color:#a3be8c;stop-opacity:1;"
         offset="1"
         id="stop858" />
    </linearGradient>
    <linearGradient
       inkscape:collect="always"
       xlink:href="#linearGradient842"
       id="linearGradient844"
       x1="386.3063"
       y1="539.79773"
       x2="447.95114"
       y2="504.71896"
       gradientUnits="userSpaceOnUse"
       gradientTransform="matrix(0.42958147,0,0,0.5305879,221.62139,257.38782)" />
    <linearGradient
       inkscape:collect="always"
       id="linearGradient842">
      <stop
         style="stop-color:#5e81ac;stop-opacity:1;"
         offset="0"
         id="stop838" />
      <stop
         style="stop-color:#88c0d0;stop-opacity:1;"
         offset="1"
         id="stop840" />
    </linearGradient>
  </defs>
  <metadata
     id="metadata5458">
    <rdf:RDF>
      <cc:Work
         rdf:about="">
        <dc:format>image/svg+xml</dc:format>
        <dc:type
           rdf:resource="http://purl.org/dc/dcmitype/StillImage" />
      </cc:Work>
    </rdf:RDF>
  </metadata>
  <g
     inkscape:label="Capa 1"
     inkscape:groupmode="layer"
     id="layer1"
     transform="translate(-384.57143,-515.798)">
    <path
       style="fill:url(#linearGradient862);fill-opacity:1;stroke-width:0.0802087"
       d="m 400.57017,522.24679 c -0.37214,0 -0.8114,-0.24719 -0.97825,-0.54655 l -0.74836,-1.34532 c -0.16607,-0.29933 -0.60667,-0.54365 -0.97866,-0.54421 l -8.23478,-0.0127 c -1.21549,-0.002 -1.57752,0.44328 -1.57721,1.42452 l 1.4e-4,0.41351 v 1.21696 l -1.4e-4,16.04701 c -10e-6,0.43776 0.97464,1.4694 1.44444,1.4694 h 22.14816 c 0.48149,0 1.44444,-0.9796 1.44444,-1.4694 v -15.18379 c 0,-0.9796 -0.4815,-1.46939 -1.42083,-1.46939 z"
       id="path4-3"
       sodipodi:nodetypes="sccsssccscsssss" />
    <path
       style="fill:#434c5e;fill-opacity:1;stroke-width:0.0824548"
       d="m 411.16403,528.32031 c 0,0.70041 -0.32856,1.27347 -1.08017,1.27347 h -19.06564 c -0.75158,0 -1.03939,-0.57306 -1.03939,-1.27347 v -3.62453 c 0,-0.9796 0.4815,-1.4694 1.44447,-1.4694 h 18.29626 c 0.96297,0 1.44447,0.4898 1.44447,1.4694 z"
       id="path8-6"
       sodipodi:nodetypes="sssssssss" />
    <path
       style="fill:url(#linearGradient844);fill-opacity:1;stroke-width:0.0927335"
       d="m 410.68253,525.18558 h -20.2222 c -1.92592,0 -2.8889,0.9796 -2.8889,2.9388 v 13.22459 c 0,1.4694 0.96298,2.449 2.4074,2.449 h 21.1852 c 1.44442,0 2.4074,-0.9796 2.4074,-2.449 v -13.22459 c 0,-1.9592 -0.96298,-2.9388 -2.8889,-2.9388 z"
       id="path10"
       sodipodi:nodetypes="sssssssss" />
    <path
       style="color:#232629;fill:#434c5e;fill-opacity:1;stroke:none;stroke-width:0.348721"
       d="m 401.56523,530.798 c -0.17673,0 -0.32149,0.14266 -0.32149,0.31944 v 0.29218 c -0.56959,0.14625 -0.97944,0.65145 -0.97944,1.25866 0,0.42503 0.203,0.80336 0.51967,1.0414 0.034,0.0399 0.0545,0.0903 0.0545,0.14647 0,0.0161 1e-5,0.0325 -0.003,0.0476 l -1.40784,2.98389 h -0.58238 c -0.095,0 -0.17299,0.0766 -0.17299,0.1716 v 9.1e-4 c 0,0.095 0.078,0.17168 0.17299,0.17168 h 0.42028 l -1.0871,2.30409 c -0.0684,0.14615 -0.0344,0.31502 0.0729,0.42438 l -0.4189,0.85065 0.66203,-0.7172 c 0.17572,0.046 0.3637,-0.0378 0.44339,-0.20639 l 1.2532,-2.65554 h 1.10132 v 0.22814 c 0,0.14509 0.11814,0.26222 0.26429,0.26222 h 0.0146 c 0.14611,0 0.26494,-0.11713 0.26494,-0.26222 v -0.22814 h 1.12656 l 1.25252,2.65554 c 0.0786,0.16963 0.26796,0.25234 0.4427,0.20638 l 0.66203,0.71721 -0.4175,-0.85066 c 0.10622,-0.10935 0.14063,-0.2772 0.0722,-0.42437 l -1.08702,-2.3041 h 0.39436 c 0.096,0 0.173,-0.0767 0.173,-0.17167 0,-0.095 -0.077,-0.17134 -0.173,-0.17235 h -0.55646 l -1.40712,-2.98384 c -0.003,-0.0152 -0.003,-0.0315 -0.003,-0.0477 0,-0.0552 0.0206,-0.10654 0.0531,-0.14638 0.31679,-0.23811 0.52109,-0.61636 0.52109,-1.04141 0,-0.61551 -0.42915,-1.12695 -1.00531,-1.26546 v -0.28538 c 0,-0.17681 -0.14301,-0.31944 -0.32085,-0.31944 z m 0.30584,1.17828 c 0.27099,0.11386 0.46107,0.38064 0.46107,0.692 0,0.41486 -0.33708,0.75128 -0.75398,0.75128 -0.41889,0 -0.75397,-0.33642 -0.75397,-0.75128 0,-0.30125 0.17905,-0.55942 0.43726,-0.67905 0.0383,0.13322 0.15679,0.23298 0.30378,0.23298 0.15079,0 0.27178,-0.1058 0.30584,-0.24593 z m -0.29907,2.49486 h 0.006 0.006 c 0.0409,0 0.077,0.0188 0.0994,0.0477 l 1.11769,2.36884 h -0.96442 v -0.27723 c 0,-0.14612 -0.11882,-0.26358 -0.26495,-0.26358 h -0.0144 c -0.14611,0 -0.26427,0.11849 -0.26427,0.26358 v 0.27723 h -0.9392 l 1.11768,-2.36884 c 0.0238,-0.0295 0.0593,-0.0477 0.10012,-0.0477 z"
       class="ColorScheme-Text"
       id="path8133-5" />
  </g>
</svg>
