<?xml version="1.0" encoding="UTF-8" standalone="no"?>
<svg
   width="32"
   version="1.1"
   height="32"
   viewBox="0 0 32 32"
   id="svg15"
   sodipodi:docname="folder-podcast.svg"
   inkscape:version="1.2.1 (9c6d41e410, 2022-07-14)"
   xmlns:inkscape="http://www.inkscape.org/namespaces/inkscape"
   xmlns:sodipodi="http://sodipodi.sourceforge.net/DTD/sodipodi-0.dtd"
   xmlns:xlink="http://www.w3.org/1999/xlink"
   xmlns="http://www.w3.org/2000/svg"
   xmlns:svg="http://www.w3.org/2000/svg"
   xmlns:rdf="http://www.w3.org/1999/02/22-rdf-syntax-ns#"
   xmlns:cc="http://creativecommons.org/ns#"
   xmlns:dc="http://purl.org/dc/elements/1.1/">
  <sodipodi:namedview
     pagecolor="#ffffff"
     bordercolor="#666666"
     borderopacity="1"
     objecttolerance="10"
     gridtolerance="10"
     guidetolerance="10"
     inkscape:pageopacity="0"
     inkscape:pageshadow="2"
     inkscape:window-width="1920"
     inkscape:window-height="1002"
     id="namedview17"
     showgrid="true"
     inkscape:zoom="9.8125003"
     inkscape:cx="11.974522"
     inkscape:cy="11.566879"
     inkscape:window-x="0"
     inkscape:window-y="0"
     inkscape:window-maximized="1"
     inkscape:current-layer="layer1"
     inkscape:document-rotation="0"
     inkscape:showpageshadow="2"
     inkscape:pagecheckerboard="0"
     inkscape:deskcolor="#d1d1d1">
    <inkscape:grid
       type="xygrid"
       id="grid1205" />
  </sodipodi:namedview>
  <defs
     id="defs5455">
    <linearGradient
       inkscape:collect="always"
       id="linearGradient860">
      <stop
         style="stop-color:#8fbcbb;stop-opacity:1;"
         offset="0"
         id="stop856" />
      <stop
         style="stop-color:#a3be8c;stop-opacity:1;"
         offset="1"
         id="stop858" />
    </linearGradient>
    <linearGradient
       inkscape:collect="always"
       id="linearGradient842">
      <stop
         style="stop-color:#5e81ac;stop-opacity:1;"
         offset="0"
         id="stop838" />
      <stop
         style="stop-color:#88c0d0;stop-opacity:1;"
         offset="1"
         id="stop840" />
    </linearGradient>
    <linearGradient
       inkscape:collect="always"
       xlink:href="#linearGradient860"
       id="linearGradient862-3"
       x1="113.94583"
       y1="366.97165"
       x2="406.08234"
       y2="159.71205"
       gradientUnits="userSpaceOnUse"
       gradientTransform="matrix(0.08570321,0,0,0.08743938,378.28739,508.28164)" />
    <linearGradient
       inkscape:collect="always"
       xlink:href="#linearGradient842"
       id="linearGradient844-0"
       x1="386.3063"
       y1="539.79773"
       x2="447.95114"
       y2="504.71896"
       gradientUnits="userSpaceOnUse"
       gradientTransform="matrix(0.42958153,0,0,0.53058974,221.62138,257.38688)" />
  </defs>
  <metadata
     id="metadata5458">
    <rdf:RDF>
      <cc:Work
         rdf:about="">
        <dc:format>image/svg+xml</dc:format>
        <dc:type
           rdf:resource="http://purl.org/dc/dcmitype/StillImage" />
      </cc:Work>
    </rdf:RDF>
  </metadata>
  <g
     inkscape:label="Capa 1"
     inkscape:groupmode="layer"
     id="layer1"
     transform="translate(-384.57143,-515.798)">
    <path
       style="fill:url(#linearGradient862-3);fill-opacity:1;stroke-width:0.080209"
       d="m 400.57019,522.24682 c -0.37217,0 -0.81143,-0.24718 -0.97828,-0.54656 l -0.74837,-1.34531 c -0.16604,-0.29936 -0.60665,-0.54365 -0.97864,-0.54424 l -8.23478,-0.0127 c -1.2155,-0.002 -1.57753,0.44329 -1.57721,1.42451 l 1.4e-4,0.41352 v 1.21698 l -1.4e-4,16.04705 c 0,0.43777 0.97463,1.4694 1.44445,1.4694 h 22.14814 c 0.48149,0 1.44445,-0.97959 1.44445,-1.4694 v -15.18384 c 0,-0.97959 -0.48148,-1.46939 -1.42084,-1.46939 z"
       id="path4-3-3"
       sodipodi:nodetypes="sccsssccscsssss" />
    <path
       style="fill:#434c5e;fill-opacity:1;stroke-width:0.082455"
       d="m 411.16402,528.32036 c 0,0.70043 -0.32854,1.27348 -1.08014,1.27348 h -19.06565 c -0.75159,0 -1.03939,-0.57305 -1.03939,-1.27348 v -3.62452 c 0,-0.97963 0.48148,-1.46942 1.44444,-1.46942 h 18.2963 c 0.96296,0 1.44444,0.48979 1.44444,1.46942 z"
       id="path8-6-0"
       sodipodi:nodetypes="sssssssss" />
    <path
       style="fill:url(#linearGradient844-0);fill-opacity:1;stroke-width:0.0927335"
       d="m 410.68254,525.18563 h -20.22222 c -1.92593,0 -2.88889,0.97959 -2.88889,2.93881 v 13.22462 c 0,1.46941 0.96296,2.44899 2.40741,2.44899 h 21.18518 c 1.44445,0 2.40741,-0.97958 2.40741,-2.44899 v -13.22462 c 0,-1.95922 -0.96296,-2.93881 -2.88889,-2.93881 z"
       id="path10-4"
       sodipodi:nodetypes="sssssssss" />
    <path
       d="m 405.54214,539.14501 c 0,0.67605 -0.53893,1.22415 -1.20365,1.22415 h -0.60184 c -0.66502,0 -1.20379,-0.5481 -1.20379,-1.22415 0,-0.15037 -0.008,-0.29865 -0.0193,-0.44587 -10e-4,-0.0248 -0.003,-0.0494 -0.006,-0.0738 -0.0129,-0.13958 -0.0314,-0.27802 -0.0544,-0.41466 -0.004,-0.0267 -0.009,-0.0526 -0.0142,-0.0791 -0.0255,-0.13764 -0.0546,-0.27381 -0.0899,-0.40804 -0.004,-0.0197 -0.0106,-0.0385 -0.0162,-0.0572 -0.0378,-0.13829 -0.0794,-0.27491 -0.12724,-0.40879 -4.9e-4,-0.001 -0.001,-0.004 -0.002,-0.006 -0.0482,-0.13452 -0.10313,-0.2661 -0.16163,-0.39554 -0.008,-0.019 -0.0159,-0.0381 -0.0247,-0.056 -0.0574,-0.12362 -0.11947,-0.24409 -0.18528,-0.36246 -0.0113,-0.0209 -0.0232,-0.0414 -0.0351,-0.0627 -0.0676,-0.11761 -0.13901,-0.23305 -0.21465,-0.34497 -0.0104,-0.0156 -0.0211,-0.0305 -0.0316,-0.0459 -0.0788,-0.11405 -0.16074,-0.22556 -0.24742,-0.33303 -0.002,-0.003 -0.006,-0.006 -0.008,-0.009 -0.0872,-0.107 -0.17869,-0.2097 -0.27302,-0.3098 -0.0156,-0.0172 -0.0307,-0.0333 -0.0471,-0.05 -0.092,-0.0953 -0.18815,-0.187 -0.28705,-0.27519 -0.018,-0.0163 -0.0361,-0.0322 -0.054,-0.0478 -0.10123,-0.0881 -0.20445,-0.17261 -0.31169,-0.25259 -0.0154,-0.0111 -0.0309,-0.0219 -0.0465,-0.0331 -0.11165,-0.0816 -0.22531,-0.16038 -0.34344,-0.23346 -10e-4,-9.9e-4 -0.003,-0.002 -0.006,-0.003 -0.11637,-0.072 -0.23684,-0.13827 -0.35858,-0.20181 -0.0219,-0.0111 -0.0432,-0.023 -0.0652,-0.0336 -0.11705,-0.0585 -0.23649,-0.11226 -0.35829,-0.16249 -0.0257,-0.0106 -0.0511,-0.021 -0.0773,-0.0309 -0.12377,-0.0487 -0.24934,-0.0933 -0.37755,-0.13272 -0.0198,-0.006 -0.0403,-0.0113 -0.0604,-0.0178 -0.48077,-0.14215 -0.98857,-0.22005 -1.51457,-0.22005 -0.33228,0 -0.60182,0.27385 -0.60182,0.61195 v 0.61241 c 0,0.33795 0.26956,0.61222 0.60182,0.61222 0.33036,0 0.64914,0.049 0.95313,0.13348 0.0931,0.0261 0.18452,0.0555 0.27463,0.0891 0.005,10e-4 0.0101,0.004 0.0154,0.006 0.44571,0.16653 0.84955,0.41974 1.193,0.73931 0.015,0.014 0.0302,0.0273 0.0449,0.0416 0.054,0.0517 0.10595,0.10568 0.15658,0.16102 0.0222,0.0243 0.0446,0.0487 0.0661,0.0737 0.0452,0.0513 0.0884,0.10359 0.13055,0.15782 0.0251,0.0321 0.0489,0.0661 0.0729,0.0992 0.0379,0.0522 0.0763,0.10433 0.11135,0.15845 0.0257,0.0401 0.0482,0.0808 0.0725,0.12152 0.0473,0.0795 0.0917,0.16066 0.13297,0.24408 0.0302,0.0614 0.0607,0.12214 0.0877,0.18538 0.0189,0.0434 0.0348,0.0887 0.0518,0.13316 0.0226,0.0593 0.0449,0.11869 0.0644,0.17954 0.0148,0.0454 0.0281,0.0909 0.0408,0.13659 0.0183,0.0651 0.0348,0.13068 0.0495,0.19657 0.01,0.0433 0.0195,0.0868 0.0277,0.13078 0.0138,0.0735 0.0239,0.14829 0.0332,0.22273 0.004,0.0398 0.0106,0.0782 0.0146,0.11807 0.007,0.0722 0.008,0.14558 0.0106,0.21871 0.004,0.042 0.006,0.0842 0.006,0.12705 0,0.67604 -0.5388,1.22418 -1.20379,1.22418 h -0.45147 -0.15043 c -0.66466,0 -1.20352,-0.54814 -1.20352,-1.22418 0,-0.33813 -0.26953,-0.6124 -0.60189,-0.6124 -0.33228,0 -0.60181,0.27427 -0.60181,0.6124 0,0.33793 0.26955,0.61193 0.60181,0.61193 0.16641,0 0.30096,0.13722 0.30096,0.30614 0,0.16917 -0.13455,0.30611 -0.30096,0.30611 -0.66466,-3e-5 -1.20346,-0.54816 -1.20346,-1.22421 0,-0.67649 0.5388,-1.22463 1.20344,-1.22463 0.66472,0 1.20389,0.54813 1.20389,1.22463 0,0.33794 0.26914,0.61194 0.60151,0.61194 h 0.15044 0.45147 c 0.33228,0 0.6019,-0.274 0.6019,-0.61194 0,-0.46381 -0.10428,-0.90174 -0.28582,-1.29579 -0.0156,-0.0335 -0.0305,-0.0676 -0.0477,-0.10089 -0.0222,-0.0444 -0.0464,-0.0881 -0.0704,-0.13108 -0.0183,-0.0324 -0.0379,-0.0647 -0.0573,-0.0961 -0.0247,-0.0402 -0.0495,-0.0804 -0.0759,-0.11938 -0.0403,-0.0594 -0.0834,-0.11707 -0.12753,-0.1734 -0.0265,-0.0327 -0.054,-0.0645 -0.0813,-0.0964 -0.0323,-0.0379 -0.0654,-0.0754 -0.0995,-0.11148 -0.0281,-0.0291 -0.056,-0.0576 -0.085,-0.086 -0.0369,-0.0362 -0.0752,-0.0704 -0.11372,-0.10467 -0.0246,-0.0215 -0.0489,-0.0439 -0.0742,-0.0651 -0.0641,-0.0524 -0.1299,-0.10374 -0.19806,-0.15109 -0.0198,-0.0138 -0.0408,-0.0255 -0.061,-0.039 -0.053,-0.0345 -0.10697,-0.069 -0.16226,-0.10057 -0.0284,-0.0163 -0.057,-0.0309 -0.0858,-0.0464 -0.0523,-0.0279 -0.10595,-0.0535 -0.15995,-0.0782 -0.0268,-0.0115 -0.0525,-0.0246 -0.0796,-0.036 -0.08,-0.0329 -0.16135,-0.0643 -0.24465,-0.091 -0.0101,-0.003 -0.0205,-0.006 -0.0308,-0.009 -0.0749,-0.0229 -0.15156,-0.0432 -0.22877,-0.0598 -0.0288,-0.006 -0.0584,-0.0113 -0.0877,-0.0174 -0.0627,-0.0119 -0.12651,-0.0215 -0.19064,-0.0294 -0.0278,-0.003 -0.0546,-0.007 -0.0827,-0.009 -0.0921,-0.008 -0.1845,-0.0145 -0.27868,-0.0145 -0.66463,-3e-5 -1.20344,-0.54829 -1.20344,-1.22467 v -0.61241 c 0,-0.67619 0.53881,-1.22432 1.20347,-1.22432 0.0978,0 0.19468,0.003 0.29148,0.008 0.0351,10e-4 0.0702,0.004 0.10563,0.007 0.0644,0.004 0.12889,0.008 0.19262,0.0151 0.0335,0.003 0.0662,0.007 0.0992,0.0113 0.0638,0.008 0.12755,0.0154 0.19065,0.0248 0.0378,0.005 0.0753,0.0121 0.11269,0.0187 0.0536,0.009 0.10663,0.0187 0.15995,0.0288 0.043,0.009 0.085,0.0178 0.12717,0.0268 0.0553,0.0118 0.11035,0.0251 0.16464,0.0391 0.0367,0.009 0.0726,0.0187 0.10904,0.0281 0.0536,0.0149 0.10696,0.0303 0.16022,0.0463 0.0385,0.0113 0.0776,0.023 0.11606,0.0355 0.0491,0.0159 0.0972,0.0327 0.14613,0.0502 0.0421,0.0149 0.0846,0.029 0.12614,0.0454 0.0415,0.016 0.083,0.033 0.12417,0.0497 0.0449,0.0185 0.0904,0.0359 0.13496,0.0551 0.0385,0.0169 0.0756,0.0347 0.11373,0.052 0.0955,0.0439 0.1896,0.0904 0.2827,0.13902 0.029,0.0153 0.0584,0.0297 0.087,0.0457 0.0489,0.0268 0.0968,0.0549 0.14473,0.0831 0.0311,0.0181 0.0628,0.0354 0.0935,0.0541 0.0495,0.03 0.0985,0.0621 0.1474,0.0937 0.0268,0.0178 0.0537,0.0342 0.0803,0.0519 0.0477,0.0316 0.0945,0.065 0.14068,0.098 0.0297,0.0212 0.0597,0.0429 0.0894,0.065 0.0424,0.0314 0.0847,0.064 0.12621,0.0961 0.0293,0.0227 0.0582,0.0461 0.0866,0.0694 0.0444,0.0364 0.0885,0.0728 0.13194,0.11016 0.0229,0.0199 0.0456,0.04 0.0682,0.06 0.0469,0.0417 0.0935,0.0832 0.13897,0.12632 0.0154,0.0143 0.0293,0.0285 0.0444,0.0429 0.42549,0.41019 0.79302,0.88282 1.08644,1.40386 0.003,0.006 0.007,0.0126 0.0106,0.0192 0.0392,0.0701 0.077,0.1411 0.1134,0.21283 0.004,0.009 0.009,0.0185 0.0138,0.0276 0.0369,0.0731 0.0723,0.1465 0.1061,0.22136 9.7e-4,0.003 0.003,0.008 0.004,0.0113 0.0354,0.0784 0.0695,0.15756 0.1015,0.23781 0,3.1e-4 0,4.8e-4 3.1e-4,9.8e-4 0.16559,0.41361 0.28813,0.84979 0.36203,1.30298 0.0533,0.32765 0.0827,0.66365 0.0827,1.007 0,0.33794 0.26947,0.61192 0.60182,0.61192 h 0.60181 c 0.33236,0 0.60168,-0.27398 0.60168,-0.61192 0,-0.49565 -0.0468,-0.97998 -0.13195,-1.45046 -9.7e-4,-0.006 -0.001,-0.0102 -0.003,-0.016 -0.0209,-0.11499 -0.0449,-0.22932 -0.0708,-0.34247 -9.7e-4,-0.004 -0.001,-0.009 -0.002,-0.0127 -0.0253,-0.1088 -0.0526,-0.21703 -0.082,-0.32405 -0.003,-0.0142 -0.008,-0.0281 -0.0115,-0.0424 -0.0299,-0.1067 -0.0617,-0.21164 -0.0958,-0.31671 -4.8e-4,-10e-4 -9.6e-4,-0.004 -10e-4,-0.007 -0.25741,-0.788 -0.6324,-1.52088 -1.10434,-2.17812 -9.6e-4,-0.002 -0.002,-0.004 -0.004,-0.006 -0.0591,-0.0819 -0.12007,-0.16234 -0.18221,-0.242 -0.0123,-0.0159 -0.0242,-0.032 -0.0369,-0.0481 -0.0576,-0.0731 -0.11739,-0.14484 -0.17779,-0.21583 -0.0175,-0.0203 -0.0348,-0.0405 -0.0519,-0.0609 -0.0602,-0.0697 -0.12282,-0.13826 -0.18541,-0.20597 -0.0175,-0.0187 -0.0349,-0.0377 -0.0523,-0.0557 -0.0611,-0.0648 -0.12355,-0.12795 -0.18659,-0.19015 -0.0236,-0.023 -0.0471,-0.0461 -0.0708,-0.0691 -0.0622,-0.0596 -0.12547,-0.11867 -0.18969,-0.17669 -0.0232,-0.0211 -0.0473,-0.0418 -0.071,-0.063 -0.0636,-0.0562 -0.12811,-0.11196 -0.19392,-0.16575 -0.0301,-0.0248 -0.0607,-0.0487 -0.0914,-0.0732 -0.0617,-0.049 -0.12372,-0.0987 -0.18718,-0.14619 -0.0314,-0.0233 -0.0635,-0.0459 -0.0955,-0.0694 -0.0658,-0.0478 -0.13163,-0.0956 -0.19863,-0.14142 -0.0147,-0.0101 -0.029,-0.0192 -0.0436,-0.0288 -0.17002,-0.11391 -0.34412,-0.22135 -0.52293,-0.32184 -0.009,-0.006 -0.0188,-0.0111 -0.0284,-0.0167 -0.0533,-0.0293 -0.10792,-0.057 -0.1619,-0.086 -0.0557,-0.0293 -0.11099,-0.0589 -0.16734,-0.0871 -0.0529,-0.0263 -0.10733,-0.0509 -0.16099,-0.076 -0.0546,-0.0255 -0.10855,-0.0506 -0.16395,-0.0751 -0.0583,-0.0257 -0.11703,-0.0494 -0.17612,-0.0738 -0.056,-0.023 -0.1113,-0.0457 -0.16801,-0.0673 -0.054,-0.0206 -0.10865,-0.0403 -0.16296,-0.0593 -0.0638,-0.0227 -0.12789,-0.0452 -0.19233,-0.0663 -0.0514,-0.0171 -0.10387,-0.033 -0.15619,-0.0491 -0.0648,-0.0199 -0.12988,-0.0386 -0.19535,-0.056 -0.0563,-0.0158 -0.11268,-0.0305 -0.16941,-0.0449 -0.0631,-0.0159 -0.12653,-0.03 -0.19029,-0.0446 -0.058,-0.0133 -0.11569,-0.0259 -0.1744,-0.0379 -0.0665,-0.0132 -0.13392,-0.0255 -0.20107,-0.0366 -0.0546,-0.0102 -0.10902,-0.0194 -0.16432,-0.0276 -0.0796,-0.0113 -0.16025,-0.021 -0.24053,-0.0306 -0.044,-0.004 -0.0867,-0.0106 -0.13062,-0.0156 -0.0904,-0.009 -0.18182,-0.0154 -0.27293,-0.021 -0.0378,-0.002 -0.0748,-0.006 -0.11299,-0.008 -0.0296,-9.9e-4 -0.0597,-9.9e-4 -0.0898,-0.002 v -0.003 c -0.0759,-4.9e-4 -0.15148,-0.03 -0.20952,-0.0894 -0.11739,-0.11943 -0.11739,-0.31342 0,-0.43287 0.0641,-0.0652 0.14979,-0.0913 0.23347,-0.0857 4.50378,0.172 8.10418,3.93856 8.10418,8.56254 z m -9.32857,-7.95915 c -0.16603,0 -0.30061,-0.1372 -0.30061,-0.30615 0,-0.16917 0.13458,-0.30609 0.30061,-0.30609 0.16632,0 0.30098,0.13692 0.30098,0.30609 0,0.16895 -0.13466,0.30615 -0.30098,0.30615 z"
       id="path2-36-3-4"
       style="fill:#e85d00;fill-opacity:1;stroke-width:0.0189689" />
  </g>
</svg>
