<?xml version="1.0" encoding="UTF-8" standalone="no"?>
<svg
   width="32"
   version="1.1"
   height="32"
   viewBox="0 0 32 32"
   id="svg15"
   sodipodi:docname="folder-book.svg"
   inkscape:version="1.2.1 (9c6d41e410, 2022-07-14)"
   xmlns:inkscape="http://www.inkscape.org/namespaces/inkscape"
   xmlns:sodipodi="http://sodipodi.sourceforge.net/DTD/sodipodi-0.dtd"
   xmlns:xlink="http://www.w3.org/1999/xlink"
   xmlns="http://www.w3.org/2000/svg"
   xmlns:svg="http://www.w3.org/2000/svg"
   xmlns:rdf="http://www.w3.org/1999/02/22-rdf-syntax-ns#"
   xmlns:cc="http://creativecommons.org/ns#"
   xmlns:dc="http://purl.org/dc/elements/1.1/">
  <sodipodi:namedview
     pagecolor="#ffffff"
     bordercolor="#666666"
     borderopacity="1"
     objecttolerance="10"
     gridtolerance="10"
     guidetolerance="10"
     inkscape:pageopacity="0"
     inkscape:pageshadow="2"
     inkscape:window-width="1920"
     inkscape:window-height="1002"
     id="namedview17"
     showgrid="true"
     inkscape:zoom="13.876971"
     inkscape:cx="11.637986"
     inkscape:cy="14.088089"
     inkscape:window-x="0"
     inkscape:window-y="0"
     inkscape:window-maximized="1"
     inkscape:current-layer="layer1"
     inkscape:document-rotation="0"
     inkscape:showpageshadow="2"
     inkscape:pagecheckerboard="0"
     inkscape:deskcolor="#d1d1d1">
    <inkscape:grid
       type="xygrid"
       id="grid1205" />
  </sodipodi:namedview>
  <defs
     id="defs5455">
    <linearGradient
       inkscape:collect="always"
       xlink:href="#linearGradient860"
       id="linearGradient862"
       x1="113.94583"
       y1="366.97165"
       x2="406.08234"
       y2="159.71205"
       gradientUnits="userSpaceOnUse"
       gradientTransform="matrix(0.08570319,0,0,0.08743907,378.28739,508.28172)" />
    <linearGradient
       inkscape:collect="always"
       id="linearGradient860">
      <stop
         style="stop-color:#8fbcbb;stop-opacity:1;"
         offset="0"
         id="stop856" />
      <stop
         style="stop-color:#a3be8c;stop-opacity:1;"
         offset="1"
         id="stop858" />
    </linearGradient>
    <linearGradient
       inkscape:collect="always"
       xlink:href="#linearGradient842"
       id="linearGradient844"
       x1="386.3063"
       y1="539.79773"
       x2="447.95114"
       y2="504.71896"
       gradientUnits="userSpaceOnUse"
       gradientTransform="matrix(0.42958147,0,0,0.5305879,221.62139,257.38782)" />
    <linearGradient
       inkscape:collect="always"
       id="linearGradient842">
      <stop
         style="stop-color:#5e81ac;stop-opacity:1;"
         offset="0"
         id="stop838" />
      <stop
         style="stop-color:#88c0d0;stop-opacity:1;"
         offset="1"
         id="stop840" />
    </linearGradient>
  </defs>
  <metadata
     id="metadata5458">
    <rdf:RDF>
      <cc:Work
         rdf:about="">
        <dc:format>image/svg+xml</dc:format>
        <dc:type
           rdf:resource="http://purl.org/dc/dcmitype/StillImage" />
      </cc:Work>
    </rdf:RDF>
  </metadata>
  <g
     inkscape:label="Capa 1"
     inkscape:groupmode="layer"
     id="layer1"
     transform="translate(-384.57143,-515.798)">
    <path
       style="fill:url(#linearGradient862);fill-opacity:1;stroke-width:0.0802087"
       d="m 400.57017,522.24679 c -0.37214,0 -0.8114,-0.24719 -0.97825,-0.54655 l -0.74836,-1.34532 c -0.16607,-0.29933 -0.60667,-0.54365 -0.97866,-0.54421 l -8.23478,-0.0127 c -1.21549,-0.002 -1.57752,0.44328 -1.57721,1.42452 l 1.4e-4,0.41351 v 1.21696 l -1.4e-4,16.04701 c -10e-6,0.43776 0.97464,1.4694 1.44444,1.4694 h 22.14816 c 0.48149,0 1.44444,-0.9796 1.44444,-1.4694 v -15.18379 c 0,-0.9796 -0.4815,-1.46939 -1.42083,-1.46939 z"
       id="path4-3"
       sodipodi:nodetypes="sccsssccscsssss" />
    <path
       style="fill:#434c5e;fill-opacity:1;stroke-width:0.0824548"
       d="m 411.16403,528.32031 c 0,0.70041 -0.32856,1.27347 -1.08017,1.27347 h -19.06564 c -0.75158,0 -1.03939,-0.57306 -1.03939,-1.27347 v -3.62453 c 0,-0.9796 0.4815,-1.4694 1.44447,-1.4694 h 18.29626 c 0.96297,0 1.44447,0.4898 1.44447,1.4694 z"
       id="path8-6"
       sodipodi:nodetypes="sssssssss" />
    <path
       style="fill:url(#linearGradient844);fill-opacity:1;stroke-width:0.0927335"
       d="m 410.68253,525.18558 h -20.2222 c -1.92592,0 -2.8889,0.9796 -2.8889,2.9388 v 13.22459 c 0,1.4694 0.96298,2.449 2.4074,2.449 h 21.1852 c 1.44442,0 2.4074,-0.9796 2.4074,-2.449 v -13.22459 c 0,-1.9592 -0.96298,-2.9388 -2.8889,-2.9388 z"
       id="path10"
       sodipodi:nodetypes="sssssssss" />
    <path
       fill-rule="evenodd"
       clip-rule="evenodd"
       d="m 406.53616,538.97304 -4.01243,1.62998 c -0.31981,0.12525 -0.66659,0.19509 -1.03022,0.19509 -0.36661,0 -0.7165,-0.0706 -1.03803,-0.19804 l -4.00265,-1.62576 c -0.36677,-0.18735 -0.6194,-0.56651 -0.6194,-1.00648 v -4.3389 -0.75485 c 0,-0.20861 0.1693,-0.37736 0.37731,-0.37736 0.2086,0 0.37753,0.16875 0.37753,0.37736 v 0.30675 0.4481 4.28601 c 0,0.13613 0.0744,0.25256 0.18278,0.31892 l 3.85265,1.63018 c 0.009,0.003 0.016,0.005 0.024,0.009 0.25973,0.10999 0.54568,0.17077 0.84564,0.17077 0.29803,0 0.58212,-0.06 0.8408,-0.16874 0.009,-0.003 0.0162,-0.005 0.0239,-0.009 l 3.85691,-1.63185 c 0.10835,-0.0664 0.18315,-0.18278 0.18315,-0.31891 v -2.77691 -0.44807 -0.30678 c 0,-0.20819 0.16914,-0.37696 0.37734,-0.37696 0.20857,0 0.37734,0.16877 0.37734,0.37696 v 0.75484 2.82978 c 2e-5,0.43924 -0.25167,0.81697 -0.6172,1.00523 z m 0.2399,-5.72148 c -0.20819,0 -0.37735,-0.16931 -0.37735,-0.37748 0,-0.20861 0.16916,-0.37735 0.37735,-0.37735 0.20855,0 0.3773,0.16874 0.3773,0.37735 0,0.20817 -0.16875,0.37748 -0.3773,0.37748 z m -1.82549,4.62836 -1.77978,0.74154 v -4.7e-4 c -0.0484,0.0216 -0.10168,0.0335 -0.15771,0.0335 -0.21374,0 -0.38767,-0.17341 -0.38767,-0.38749 0,-0.16583 0.10429,-0.30586 0.25061,-0.36169 l 1.81293,-0.79333 c 0.1175,-0.0634 0.20043,-0.18573 0.20043,-0.32964 v -4.9404 c 0,-0.10408 -0.0843,-0.1887 -0.18866,-0.1887 -0.0275,0 -0.0533,0.006 -0.0774,0.0167 v -4.1e-4 l -2.55177,1.11688 c -0.1186,0.0634 -0.20042,0.18574 -0.20042,0.32905 v 4.47486 0.7547 c 0,0.41677 -0.33818,0.75486 -0.75495,0.75486 -0.1045,0 -0.20342,-0.0211 -0.29406,-0.0597 l -2.78793,-1.16166 c -0.40665,-0.17226 -0.69125,-0.57412 -0.69125,-1.04239 v -5.28282 c 0,-0.41677 0.33808,-0.75485 0.7546,-0.75485 0.10282,0 0.20009,0.0207 0.28983,0.0584 l 1.73172,0.72132 c 0.14221,0.0597 0.24242,0.20042 0.24242,0.36422 0,0.21834 -0.17687,0.39517 -0.39483,0.39517 -0.066,0 -0.12729,-0.0181 -0.1818,-0.0466 l -1.42111,-0.62183 c -4.7e-4,0 0,3.5e-4 -4.7e-4,3.5e-4 -0.0233,-0.0104 -0.0495,-0.0167 -0.0768,-0.0167 -0.1047,0 -0.18888,0.0846 -0.18888,0.18868 v 4.94044 c 0,0.14391 0.0826,0.26623 0.20068,0.32964 l 2.55194,1.11649 c 3.5e-4,0 0,-3.7e-4 3.5e-4,-3.7e-4 0.023,0.0104 0.0497,0.0167 0.077,0.0167 0.1041,0 0.18869,-0.0842 0.18869,-0.18865 v -4.80467 -0.18888 c 0,-0.46908 0.2852,-0.87182 0.69227,-1.04315 l 2.7909,-1.16262 c 0.0899,-0.0378 0.18722,-0.0584 0.29,-0.0584 0.41679,0 0.75505,0.33806 0.75505,0.75484 v 5.28278 c -3e-5,0.46908 -0.2867,0.87184 -0.69389,1.04371 z"
       id="path806-7"
       style="fill:#434c5e;fill-opacity:1;stroke-width:0.0235829" />
  </g>
</svg>
