<?xml version="1.0" encoding="UTF-8" standalone="no"?>
<svg
   width="32"
   version="1.1"
   height="32"
   viewBox="0 0 32 32"
   id="svg17"
   sodipodi:docname="folder-print.svg"
   inkscape:version="1.2.1 (9c6d41e410, 2022-07-14)"
   xmlns:inkscape="http://www.inkscape.org/namespaces/inkscape"
   xmlns:sodipodi="http://sodipodi.sourceforge.net/DTD/sodipodi-0.dtd"
   xmlns:xlink="http://www.w3.org/1999/xlink"
   xmlns="http://www.w3.org/2000/svg"
   xmlns:svg="http://www.w3.org/2000/svg"
   xmlns:rdf="http://www.w3.org/1999/02/22-rdf-syntax-ns#"
   xmlns:cc="http://creativecommons.org/ns#"
   xmlns:dc="http://purl.org/dc/elements/1.1/">
  <sodipodi:namedview
     pagecolor="#ffffff"
     bordercolor="#666666"
     borderopacity="1"
     objecttolerance="10"
     gridtolerance="10"
     guidetolerance="10"
     inkscape:pageopacity="0"
     inkscape:pageshadow="2"
     inkscape:window-width="1920"
     inkscape:window-height="1002"
     id="namedview19"
     showgrid="false"
     inkscape:zoom="9.8125"
     inkscape:cx="-10.140127"
     inkscape:cy="14.828025"
     inkscape:window-x="0"
     inkscape:window-y="0"
     inkscape:window-maximized="1"
     inkscape:current-layer="layer1"
     inkscape:document-rotation="0"
     inkscape:showpageshadow="2"
     inkscape:pagecheckerboard="0"
     inkscape:deskcolor="#d1d1d1" />
  <defs
     id="defs5455">
    <linearGradient
       inkscape:collect="always"
       xlink:href="#linearGradient860-3"
       id="linearGradient862"
       x1="113.94583"
       y1="366.97165"
       x2="406.08234"
       y2="159.71205"
       gradientUnits="userSpaceOnUse"
       gradientTransform="matrix(0.08570321,0,0,0.08743938,378.28739,508.28164)" />
    <linearGradient
       inkscape:collect="always"
       id="linearGradient860-3">
      <stop
         style="stop-color:#8fbcbb;stop-opacity:1;"
         offset="0"
         id="stop856-6" />
      <stop
         style="stop-color:#a3be8c;stop-opacity:1;"
         offset="1"
         id="stop858-7" />
    </linearGradient>
    <linearGradient
       inkscape:collect="always"
       xlink:href="#linearGradient842-3"
       id="linearGradient844-5"
       x1="386.3063"
       y1="539.79773"
       x2="447.95114"
       y2="504.71896"
       gradientUnits="userSpaceOnUse"
       gradientTransform="matrix(0.42958153,0,0,0.53058976,221.62138,257.38686)" />
    <linearGradient
       inkscape:collect="always"
       id="linearGradient842-3">
      <stop
         style="stop-color:#5e81ac;stop-opacity:1;"
         offset="0"
         id="stop838-5" />
      <stop
         style="stop-color:#88c0d0;stop-opacity:1;"
         offset="1"
         id="stop840-6" />
    </linearGradient>
  </defs>
  <metadata
     id="metadata5458">
    <rdf:RDF>
      <cc:Work
         rdf:about="">
        <dc:format>image/svg+xml</dc:format>
        <dc:type
           rdf:resource="http://purl.org/dc/dcmitype/StillImage" />
      </cc:Work>
    </rdf:RDF>
  </metadata>
  <g
     inkscape:label="Capa 1"
     inkscape:groupmode="layer"
     id="layer1"
     transform="translate(-384.57143,-515.798)">
    <path
       style="fill:url(#linearGradient862);fill-opacity:1;stroke-width:0.080209"
       d="m 400.57019,522.24682 c -0.37217,0 -0.81143,-0.24718 -0.97828,-0.54656 l -0.74837,-1.34532 c -0.16604,-0.29935 -0.60665,-0.54366 -0.97864,-0.54423 l -8.23478,-0.0127 c -1.2155,-0.002 -1.57753,0.44329 -1.57721,1.42452 l 1.4e-4,0.41351 v 1.21698 l -1.4e-4,16.04705 c 0,0.43777 0.97463,1.4694 1.44445,1.4694 h 22.14814 c 0.48149,0 1.44445,-0.97958 1.44445,-1.4694 v -15.1838 c 0,-0.97958 -0.48148,-1.46938 -1.42084,-1.46938 z"
       id="path4-3-2"
       sodipodi:nodetypes="sccsssccscsssss" />
    <path
       style="fill:#434c5e;fill-opacity:1;stroke-width:0.0824549"
       d="m 411.16402,528.32036 c 0,0.70043 -0.32854,1.27348 -1.08014,1.27348 h -19.06565 c -0.75159,0 -1.03939,-0.57305 -1.03939,-1.27348 v -3.62452 c 0,-0.97964 0.48148,-1.46943 1.44444,-1.46943 h 18.2963 c 0.96296,0 1.44444,0.48979 1.44444,1.46943 z"
       id="path8-6"
       sodipodi:nodetypes="sssssssss" />
    <path
       style="fill:url(#linearGradient844-5);fill-opacity:1;stroke-width:0.0927335"
       d="m 410.68254,525.18563 h -20.22222 c -1.92593,0 -2.88889,0.97958 -2.88889,2.93881 v 13.22462 c 0,1.46941 0.96296,2.44899 2.40741,2.44899 h 21.18518 c 1.44445,0 2.40741,-0.97958 2.40741,-2.44899 v -13.22462 c 0,-1.95923 -0.96296,-2.93881 -2.88889,-2.93881 z"
       id="path10-9"
       sodipodi:nodetypes="sssssssss" />
    <path
       d="m 404.94321,532.91773 h -0.83996 v -2.11441 a 0.22575063,0.22965154 0 0 0 -0.22581,-0.22971 h -6.37058 a 0.22575063,0.22965154 0 0 0 -0.22581,0.22971 v 2.11441 h -0.80181 a 0.9772697,0.99415668 0 0 0 -0.96433,0.98088 v 4.21888 a 0.92720954,0.94323149 0 0 0 0.96433,0.92311 h 0.79652 v 1.09932 a 0.22575289,0.22965384 0 0 0 0.22581,0.22971 h 6.36242 a 0.22575289,0.22965384 0 0 0 0.22581,-0.22971 v -1.09932 h 0.85341 a 0.87770713,0.89287369 0 0 0 0.90743,-0.92311 v -4.21887 a 0.92718244,0.94320394 0 0 0 -0.90743,-0.98089 z m -7.21054,-1.88467 h 5.91896 v 1.88467 h -5.91896 z m 5.9055,8.87717 h -5.91079 v -2.48784 h 5.91079 z m 1.76085,-1.79274 a 0.43155081,0.43900791 0 0 1 -0.45581,0.46367 h -0.85341 v -1.15866 h 0.22846 a 0.22581241,0.22971439 0 0 0 0,-0.4594 h -0.45372 l -4.8e-4,-1.1e-4 h -6.36245 l -4.8e-4,1.1e-4 h -0.39704 a 0.22581241,0.22971439 0 1 0 0,0.4594 h 0.17178 v 1.15866 h -0.79651 a 0.48343105,0.49178463 0 0 1 -0.51271,-0.46367 v -4.21887 a 0.52596488,0.53505343 0 0 1 0.51271,-0.52144 h 8.46397 a 0.48339715,0.49175014 0 0 1 0.4558,0.52144 z"
       id="path4-9"
       style="fill:#434c5e;fill-opacity:1;stroke-width:0.227753" />
    <path
       d="m 404.41595,533.92453 a 0.33877386,0.3446278 0 1 0 0.33871,0.34459 0.33908773,0.34494708 0 0 0 -0.33871,-0.34459 z m 0,0.45945 a 0.1128516,0.11480165 0 1 1 0.1129,-0.11486 0.11305258,0.11500611 0 0 1 -0.1129,0.11486 z"
       id="path6-6"
       style="fill:#434c5e;fill-opacity:1;stroke-width:0.227753" />
    <rect
       x="396.32547"
       y="533.92438"
       width="2.5125945"
       height="0.9028157"
       rx="0.2258116"
       id="rect8-2"
       style="fill:#434c5e;fill-opacity:1;stroke-width:0.227753" />
  </g>
</svg>
