<?xml version="1.0" encoding="UTF-8" standalone="no"?>
<svg
   width="64"
   version="1.1"
   height="64"
   id="svg17"
   sodipodi:docname="folder-chart.svg"
   inkscape:version="1.2.1 (9c6d41e410, 2022-07-14)"
   xmlns:inkscape="http://www.inkscape.org/namespaces/inkscape"
   xmlns:sodipodi="http://sodipodi.sourceforge.net/DTD/sodipodi-0.dtd"
   xmlns:xlink="http://www.w3.org/1999/xlink"
   xmlns="http://www.w3.org/2000/svg"
   xmlns:svg="http://www.w3.org/2000/svg"
   xmlns:rdf="http://www.w3.org/1999/02/22-rdf-syntax-ns#"
   xmlns:cc="http://creativecommons.org/ns#"
   xmlns:dc="http://purl.org/dc/elements/1.1/">
  <sodipodi:namedview
     pagecolor="#ffffff"
     bordercolor="#666666"
     borderopacity="1"
     objecttolerance="10"
     gridtolerance="10"
     guidetolerance="10"
     inkscape:pageopacity="0"
     inkscape:pageshadow="2"
     inkscape:window-width="1920"
     inkscape:window-height="1002"
     id="namedview19"
     showgrid="true"
     inkscape:zoom="4.90625"
     inkscape:cx="5.8089172"
     inkscape:cy="18.649682"
     inkscape:window-x="0"
     inkscape:window-y="0"
     inkscape:window-maximized="1"
     inkscape:current-layer="layer1"
     inkscape:document-rotation="0"
     inkscape:showpageshadow="2"
     inkscape:pagecheckerboard="0"
     inkscape:deskcolor="#d1d1d1">
    <inkscape:grid
       type="xygrid"
       id="grid927" />
  </sodipodi:namedview>
  <defs
     id="defs5455">
    <linearGradient
       inkscape:collect="always"
       xlink:href="#linearGradient860"
       id="linearGradient862"
       x1="113.94583"
       y1="366.97165"
       x2="406.08234"
       y2="159.71205"
       gradientUnits="userSpaceOnUse"
       gradientTransform="matrix(0.17799897,0,0,0.17852009,370.28919,468.28582)" />
    <linearGradient
       inkscape:collect="always"
       id="linearGradient860">
      <stop
         style="stop-color:#8fbcbb;stop-opacity:1;"
         offset="0"
         id="stop856" />
      <stop
         style="stop-color:#a3be8c;stop-opacity:1;"
         offset="1"
         id="stop858" />
    </linearGradient>
    <linearGradient
       inkscape:collect="always"
       xlink:href="#linearGradient842"
       id="linearGradient844"
       x1="386.3063"
       y1="539.79773"
       x2="447.95114"
       y2="504.71896"
       gradientUnits="userSpaceOnUse"
       gradientTransform="matrix(0.89220779,0,0,1.0832755,44.905939,-43.952033)" />
    <linearGradient
       inkscape:collect="always"
       id="linearGradient842">
      <stop
         style="stop-color:#5e81ac;stop-opacity:1;"
         offset="0"
         id="stop838" />
      <stop
         style="stop-color:#88c0d0;stop-opacity:1;"
         offset="1"
         id="stop840" />
    </linearGradient>
  </defs>
  <metadata
     id="metadata5458">
    <rdf:RDF>
      <cc:Work
         rdf:about="">
        <dc:format>image/svg+xml</dc:format>
        <dc:type
           rdf:resource="http://purl.org/dc/dcmitype/StillImage" />
      </cc:Work>
    </rdf:RDF>
  </metadata>
  <g
     inkscape:label="Capa 1"
     inkscape:groupmode="layer"
     id="layer1"
     transform="translate(-384.57143,-483.798)">
    <path
       style="fill:url(#linearGradient862);fill-opacity:1;stroke-width:0.165167"
       d="m 416.56885,496.79763 c -0.77296,0 -1.68528,-0.50466 -2.0318,-1.11585 l -1.55431,-2.74667 c -0.34485,-0.61114 -1.25998,-1.10996 -2.03256,-1.1111 l -17.10301,-0.026 c -2.52449,-0.004 -3.2764,0.90502 -3.27574,2.90836 l 2.8e-4,0.84425 v 2.48461 l -2.8e-4,32.7624 c -1e-5,0.89375 2.02423,3 3,3 h 46 c 1,0 3,-2 3,-3 v -31 c 0,-2 -1,-3 -2.95097,-3 z"
       id="path4-3"
       sodipodi:nodetypes="sccsssccscsssss" />
    <path
       style="fill:#434c5e;fill-opacity:1;stroke-width:0.169792"
       d="m 438.57143,509.19766 c 0,1.42999 -0.68236,2.59997 -2.24338,2.59997 h -39.59788 c -1.56099,0 -2.15874,-1.16998 -2.15874,-2.59997 v -7.40003 c 0,-2 1,-3 3,-3 h 38 c 2,0 3,1 3,3 z"
       id="path8-6"
       sodipodi:nodetypes="sssssssss" />
    <path
       style="fill:url(#linearGradient844);fill-opacity:1;stroke-width:0.190958"
       d="m 437.57143,502.79763 h -42 c -4,0 -6,2 -6,6 v 27 c 0,3 2,5 5,5 h 44 c 3,0 5,-2 5,-5 v -27 c 0,-4 -2,-6 -6,-6 z"
       id="path10"
       sodipodi:nodetypes="sssssssss" />
    <path
       style="color:#232629;fill:#434c5e;fill-opacity:1;stroke:none"
       d="m 424.57143,511.798 v 20 h 2 v -20 z m -12,8 v 12 h 2 v -12 z m 4,4 v 8 h 2 v -8 z m 4,3 v 5 h 2 v -5 z m -12,2 v 3 h 2 v -3 z m -2,4 v 1 h 22 v -1 z"
       class="ColorScheme-Text"
       id="path4126-6" />
  </g>
</svg>
