<?xml version="1.0" encoding="UTF-8" standalone="no"?>
<svg
   id="svg2"
   height="64"
   version="1.1"
   width="64"
   sodipodi:docname="folder-encrypted.svg"
   inkscape:version="1.2.1 (9c6d41e410, 2022-07-14)"
   xmlns:inkscape="http://www.inkscape.org/namespaces/inkscape"
   xmlns:sodipodi="http://sodipodi.sourceforge.net/DTD/sodipodi-0.dtd"
   xmlns:xlink="http://www.w3.org/1999/xlink"
   xmlns="http://www.w3.org/2000/svg"
   xmlns:svg="http://www.w3.org/2000/svg"
   xmlns:rdf="http://www.w3.org/1999/02/22-rdf-syntax-ns#"
   xmlns:cc="http://creativecommons.org/ns#"
   xmlns:dc="http://purl.org/dc/elements/1.1/">
  <sodipodi:namedview
     pagecolor="#ffffff"
     bordercolor="#666666"
     borderopacity="1"
     objecttolerance="10"
     gridtolerance="10"
     guidetolerance="10"
     inkscape:pageopacity="0"
     inkscape:pageshadow="2"
     inkscape:window-width="1920"
     inkscape:window-height="1002"
     id="namedview43"
     showgrid="true"
     inkscape:zoom="4.90625"
     inkscape:cx="-13.55414"
     inkscape:cy="16.815287"
     inkscape:window-x="0"
     inkscape:window-y="0"
     inkscape:window-maximized="1"
     inkscape:current-layer="svg2"
     inkscape:document-rotation="0"
     inkscape:showpageshadow="2"
     inkscape:pagecheckerboard="0"
     inkscape:deskcolor="#d1d1d1">
    <inkscape:grid
       type="xygrid"
       id="grid1109" />
  </sodipodi:namedview>
  <defs
     id="defs5455">
    <linearGradient
       id="linearGradient4172-5">
      <stop
         id="stop4174-6"
         style="stop-color:#3e3e3e" />
      <stop
         id="stop4176-6"
         style="stop-color:#494949"
         offset="1" />
    </linearGradient>
    <linearGradient
       gradientTransform="matrix(1,0,0,0.99967455,0,0.176455)"
       x2="0"
       gradientUnits="userSpaceOnUse"
       y2="499.78421"
       y1="541.79797"
       xlink:href="#linearGradient4172-5"
       id="linearGradient4178-3-3" />
    <linearGradient
       inkscape:collect="always"
       xlink:href="#linearGradient860"
       id="linearGradient862"
       x1="113.94583"
       y1="366.97165"
       x2="406.08234"
       y2="159.71205"
       gradientUnits="userSpaceOnUse"
       gradientTransform="matrix(0.17799897,0,0,0.17852009,-14.28224,-15.512177)" />
    <linearGradient
       inkscape:collect="always"
       id="linearGradient860">
      <stop
         style="stop-color:#8fbcbb;stop-opacity:1;"
         offset="0"
         id="stop856" />
      <stop
         style="stop-color:#a3be8c;stop-opacity:1;"
         offset="1"
         id="stop858" />
    </linearGradient>
    <linearGradient
       inkscape:collect="always"
       xlink:href="#linearGradient842"
       id="linearGradient844"
       x1="386.3063"
       y1="539.79773"
       x2="447.95114"
       y2="504.71896"
       gradientUnits="userSpaceOnUse"
       gradientTransform="matrix(0.89220779,0,0,1.0832755,-339.66549,-527.75005)" />
    <linearGradient
       inkscape:collect="always"
       id="linearGradient842">
      <stop
         style="stop-color:#5e81ac;stop-opacity:1;"
         offset="0"
         id="stop838" />
      <stop
         style="stop-color:#88c0d0;stop-opacity:1;"
         offset="1"
         id="stop840" />
    </linearGradient>
  </defs>
  <metadata
     id="metadata5458">
    <rdf:RDF>
      <cc:Work
         rdf:about="">
        <dc:format>image/svg+xml</dc:format>
        <dc:type
           rdf:resource="http://purl.org/dc/dcmitype/StillImage" />
      </cc:Work>
    </rdf:RDF>
  </metadata>
  <path
     style="fill:url(#linearGradient862);fill-opacity:1;stroke-width:0.165167"
     d="m 31.99742,12.999633 c -0.77296,0 -1.68528,-0.50466 -2.0318,-1.11585 L 28.41131,9.137113 C 28.06646,8.525973 27.15133,8.0271531 26.37875,8.0260131 l -17.10301,-0.026 C 6.75125,7.9960131 5.99934,8.905033 6,10.908373 l 2.8e-4,0.84425 v 2.48461 L 6,46.999633 c -10e-6,0.89375 2.02423,3 3,3 h 46 c 1,0 3,-2 3,-3 v -31 c 0,-2 -1,-3 -2.95097,-3 z"
     id="path4-3"
     sodipodi:nodetypes="sccsssccscsssss" />
  <path
     style="fill:#434c5e;fill-opacity:1;stroke-width:0.169792"
     d="m 54,25.399663 c 0,1.42999 -0.68236,2.59997 -2.24338,2.59997 H 12.15874 C 10.59775,27.999633 10,26.829653 10,25.399663 v -7.40003 c 0,-2 1,-3 3,-3 h 38 c 2,0 3,1 3,3 z"
     id="path8-6"
     sodipodi:nodetypes="sssssssss" />
  <path
     style="fill:url(#linearGradient844);fill-opacity:1;stroke-width:0.190958"
     d="M 53,18.999633 H 11 c -4,0 -6,2 -6,6 v 27 c 0,3 2,5 5,5 h 44 c 3,0 5,-2 5,-5 v -27 c 0,-4 -2,-6 -6,-6 z"
     id="path10"
     sodipodi:nodetypes="sssssssss" />
  <path
     inkscape:connector-curvature="0"
     style="fill:#434c5e;fill-opacity:1;stroke-width:0.806472"
     id="rect4136-3-6-7"
     d="m 31.601689,28.501072 c -2.252186,0 -4.06532,1.783866 -4.06532,3.999699 v 3.999698 l -1.62107,0.004 v 0 c -0.408174,-0.0049 -0.828436,0.156004 -0.818113,0.795955 l 4.49e-4,6.559491 c 0.0027,0.586281 0.407568,0.643899 0.739332,0.640986 l 0.137165,-0.002 10.709171,5.13e-4 0.644076,-8e-6 c 0.372285,-0.0178 0.76584,-0.035 0.761036,-0.639892 l 0.0082,-6.599286 c 0.01384,-0.600243 -0.395882,-0.750028 -0.772268,-0.76023 h -0.639974 -1.016337 v -3.9993 C 35.668041,30.284866 33.854904,28.501 31.602719,28.501 Z m 0,0.799939 c 1.689141,0 3.252253,1.260906 3.252253,3.19976 v 3.999698 h -6.504509 v -3.999698 c 0,-1.938854 1.563128,-3.19976 3.252256,-3.19976 z m -5.274614,7.9994 v 0 h 10.545039 c 0.421345,-0.004 0.427562,0.0035 0.420431,0.349035 l 5.9e-4,6.050483 H 25.910246 v -6.058697 c 0.0071,-0.363365 0.0071,-0.353157 0.416829,-0.340821 z"
     sodipodi:nodetypes="sscccccsccccccccssscccssccccccccc" />
  <g
     transform="matrix(0.92874166,0,0,0.92874185,-355.05373,-421.5833)"
     id="layer1-7-7-1"
     style="fill:#15181e;fill-opacity:1">
    <g
       transform="translate(-129,59.999995)"
       id="g5881-5-5-7"
       style="fill:#15181e;fill-opacity:1">
      <g
         id="g4154-5-3-3-3-2"
         transform="translate(129,-60)"
         style="fill:#15181e;fill-opacity:1" />
      <g
         id="g4445-8-6-2-6-5-7"
         transform="translate(127.99999,-59.99997)"
         style="fill:#15181e;fill-opacity:1">
        <rect
           y="507.79797"
           x="391.57144"
           height="4"
           width="4"
           id="rect4179-2-9-6-5-8-0-0-2-6-2"
           style="opacity:0.6;fill:#15181e;fill-opacity:1;stroke:none;stroke-width:2;stroke-miterlimit:4;stroke-dasharray:none;stroke-opacity:1" />
        <rect
           y="507.79797"
           x="399.57144"
           height="4"
           width="4"
           id="rect4179-5-61-4-1-4-1-2-8-9-2-2"
           style="opacity:0.6;fill:#15181e;fill-opacity:1;stroke:none;stroke-width:2;stroke-miterlimit:4;stroke-dasharray:none;stroke-opacity:1" />
        <rect
           y="507.79797"
           x="407.57144"
           height="4"
           width="4"
           id="rect4179-5-6-8-7-5-7-0-8-6-1-9-6"
           style="opacity:0.6;fill:#15181e;fill-opacity:1;stroke:none;stroke-width:2;stroke-miterlimit:4;stroke-dasharray:none;stroke-opacity:1" />
        <rect
           y="507.79797"
           x="415.57144"
           height="4"
           width="4"
           id="rect4179-5-6-2-7-8-5-4-3-3-2-2-1-1"
           style="opacity:0.6;fill:#15181e;fill-opacity:1;stroke:none;stroke-width:2;stroke-miterlimit:4;stroke-dasharray:none;stroke-opacity:1" />
        <rect
           y="507.79797"
           x="423.57144"
           height="4"
           width="4"
           id="rect4179-5-6-2-9-9-4-4-4-0-8-4-7-2-0"
           style="opacity:0.6;fill:#15181e;fill-opacity:1;stroke:none;stroke-width:2;stroke-miterlimit:4;stroke-dasharray:none;stroke-opacity:1" />
        <rect
           y="507.79797"
           x="431.57144"
           height="4"
           width="4"
           id="rect4179-5-6-2-9-1-20-5-7-3-4-0-7-0-7-6"
           style="opacity:0.6;fill:#15181e;fill-opacity:1;stroke:none;stroke-width:2;stroke-miterlimit:4;stroke-dasharray:none;stroke-opacity:1" />
        <rect
           y="507.79797"
           x="439.57144"
           height="4"
           width="4"
           id="rect4179-5-6-2-9-1-2-2-0-6-0-4-4-9-9-0-1"
           style="opacity:0.6;fill:#15181e;fill-opacity:1;stroke:none;stroke-width:2;stroke-miterlimit:4;stroke-dasharray:none;stroke-opacity:1" />
        <rect
           y="503.79797"
           x="388.57144"
           height="4"
           width="3"
           id="rect4179-7-3-5-7-4-0-3-3-9-5"
           style="opacity:0.6;fill:#15181e;fill-opacity:1;stroke:none;stroke-width:2;stroke-miterlimit:4;stroke-dasharray:none;stroke-opacity:1" />
        <rect
           y="503.79797"
           x="395.57144"
           height="4"
           width="4"
           id="rect4179-5-5-6-6-8-4-9-9-6-3-9"
           style="opacity:0.6;fill:#15181e;fill-opacity:1;stroke:none;stroke-width:2;stroke-miterlimit:4;stroke-dasharray:none;stroke-opacity:1" />
        <rect
           y="503.79797"
           x="403.57144"
           height="4"
           width="4"
           id="rect4179-5-6-9-1-9-6-7-1-2-0-6-4"
           style="opacity:0.6;fill:#15181e;fill-opacity:1;stroke:none;stroke-width:2;stroke-miterlimit:4;stroke-dasharray:none;stroke-opacity:1" />
        <rect
           y="503.79797"
           x="411.57144"
           height="4"
           width="4"
           id="rect4179-5-6-2-2-0-3-8-6-9-8-6-0-9"
           style="opacity:0.6;fill:#15181e;fill-opacity:1;stroke:none;stroke-width:2;stroke-miterlimit:4;stroke-dasharray:none;stroke-opacity:1" />
        <rect
           y="503.79797"
           x="419.57144"
           height="4"
           width="4"
           id="rect4179-5-6-2-9-2-6-7-8-3-6-3-2-6-0"
           style="opacity:0.6;fill:#15181e;fill-opacity:1;stroke:none;stroke-width:2;stroke-miterlimit:4;stroke-dasharray:none;stroke-opacity:1" />
        <rect
           y="503.79797"
           x="427.57144"
           height="4"
           width="4"
           id="rect4179-5-6-2-9-1-8-3-4-4-1-2-0-6-2-9"
           style="opacity:0.6;fill:#15181e;fill-opacity:1;stroke:none;stroke-width:2;stroke-miterlimit:4;stroke-dasharray:none;stroke-opacity:1" />
        <rect
           y="503.79797"
           x="435.57144"
           height="4"
           width="4"
           id="rect4179-5-6-2-9-1-2-9-2-5-3-7-5-1-1-6-1"
           style="opacity:0.6;fill:#15181e;fill-opacity:1;stroke:none;stroke-width:2;stroke-miterlimit:4;stroke-dasharray:none;stroke-opacity:1" />
        <rect
           y="503.79797"
           x="443.57144"
           height="4"
           width="2.9999826"
           id="rect4179-5-6-2-9-1-2-7-7-0-2-1-5-4-7-8-1-7"
           style="opacity:0.6;fill:#15181e;fill-opacity:1;stroke:none;stroke-width:2;stroke-miterlimit:4;stroke-dasharray:none;stroke-opacity:1" />
        <rect
           y="499.79797"
           x="391.87146"
           height="4"
           width="4"
           id="rect4179-5-6-2-9-9-4-4-4-6-7-6-4-2-7-7"
           style="opacity:0.6;fill:#15181e;fill-opacity:1;stroke:none;stroke-width:2;stroke-miterlimit:4;stroke-dasharray:none;stroke-opacity:1" />
        <rect
           y="499.79797"
           x="431.57144"
           height="4"
           width="4"
           id="rect4179-5-6-2-9-1-20-5-7-3-8-8-0-9-0-9-1"
           style="opacity:0.6;fill:#15181e;fill-opacity:1;stroke:none;stroke-width:2;stroke-miterlimit:4;stroke-dasharray:none;stroke-opacity:1" />
        <rect
           y="499.79797"
           x="439.57144"
           height="4"
           width="4"
           id="rect4179-5-6-2-9-1-2-2-0-6-0-9-5-5-2-2-2-1"
           style="opacity:0.6;fill:#15181e;fill-opacity:1;stroke:none;stroke-width:2;stroke-miterlimit:4;stroke-dasharray:none;stroke-opacity:1" />
      </g>
    </g>
  </g>
  <rect
     y="42.599998"
     x="15.116149"
     height="3.7149668"
     width="3.7149661"
     id="rect4179-5-6-2-9-9-4-4-4-6-7-6-4-2-7-3-3-5"
     style="opacity:0.6;fill:#15181e;fill-opacity:1;stroke:none;stroke-width:1.85747;stroke-miterlimit:4;stroke-dasharray:none;stroke-opacity:1" />
</svg>
