<?xml version="1.0" encoding="UTF-8" standalone="no"?>
<svg
   width="64"
   version="1.1"
   height="64"
   id="svg17"
   sodipodi:docname="folder-book.svg"
   inkscape:version="1.2.1 (9c6d41e410, 2022-07-14)"
   xmlns:inkscape="http://www.inkscape.org/namespaces/inkscape"
   xmlns:sodipodi="http://sodipodi.sourceforge.net/DTD/sodipodi-0.dtd"
   xmlns:xlink="http://www.w3.org/1999/xlink"
   xmlns="http://www.w3.org/2000/svg"
   xmlns:svg="http://www.w3.org/2000/svg"
   xmlns:rdf="http://www.w3.org/1999/02/22-rdf-syntax-ns#"
   xmlns:cc="http://creativecommons.org/ns#"
   xmlns:dc="http://purl.org/dc/elements/1.1/">
  <sodipodi:namedview
     pagecolor="#ffffff"
     bordercolor="#666666"
     borderopacity="1"
     objecttolerance="10"
     gridtolerance="10"
     guidetolerance="10"
     inkscape:pageopacity="0"
     inkscape:pageshadow="2"
     inkscape:window-width="1920"
     inkscape:window-height="1002"
     id="namedview19"
     showgrid="true"
     inkscape:zoom="4.90625"
     inkscape:cx="-40.866242"
     inkscape:cy="44.33121"
     inkscape:window-x="0"
     inkscape:window-y="0"
     inkscape:window-maximized="1"
     inkscape:current-layer="layer1"
     inkscape:document-rotation="0"
     inkscape:showpageshadow="2"
     inkscape:pagecheckerboard="0"
     inkscape:deskcolor="#d1d1d1">
    <inkscape:grid
       type="xygrid"
       id="grid877" />
  </sodipodi:namedview>
  <defs
     id="defs5455">
    <linearGradient
       inkscape:collect="always"
       xlink:href="#linearGradient860"
       id="linearGradient862"
       x1="113.94583"
       y1="366.97165"
       x2="406.08234"
       y2="159.71205"
       gradientUnits="userSpaceOnUse"
       gradientTransform="matrix(0.17799897,0,0,0.17852009,370.28919,468.28582)" />
    <linearGradient
       inkscape:collect="always"
       id="linearGradient860">
      <stop
         style="stop-color:#8fbcbb;stop-opacity:1;"
         offset="0"
         id="stop856" />
      <stop
         style="stop-color:#a3be8c;stop-opacity:1;"
         offset="1"
         id="stop858" />
    </linearGradient>
    <linearGradient
       inkscape:collect="always"
       xlink:href="#linearGradient842"
       id="linearGradient844"
       x1="386.3063"
       y1="539.79773"
       x2="447.95114"
       y2="504.71896"
       gradientUnits="userSpaceOnUse"
       gradientTransform="matrix(0.89220779,0,0,1.0832755,44.905939,-43.952012)" />
    <linearGradient
       inkscape:collect="always"
       id="linearGradient842">
      <stop
         style="stop-color:#5e81ac;stop-opacity:1;"
         offset="0"
         id="stop838" />
      <stop
         style="stop-color:#88c0d0;stop-opacity:1;"
         offset="1"
         id="stop840" />
    </linearGradient>
  </defs>
  <metadata
     id="metadata5458">
    <rdf:RDF>
      <cc:Work
         rdf:about="">
        <dc:format>image/svg+xml</dc:format>
        <dc:type
           rdf:resource="http://purl.org/dc/dcmitype/StillImage" />
      </cc:Work>
    </rdf:RDF>
  </metadata>
  <g
     inkscape:label="Capa 1"
     inkscape:groupmode="layer"
     id="layer1"
     transform="translate(-384.57143,-483.798)">
    <path
       style="fill:url(#linearGradient862);fill-opacity:1;stroke-width:0.165167"
       d="m 416.56885,496.79763 c -0.77296,0 -1.68528,-0.50466 -2.0318,-1.11585 l -1.55431,-2.74667 c -0.34485,-0.61114 -1.25998,-1.10996 -2.03256,-1.1111 l -17.10301,-0.026 c -2.52449,-0.004 -3.2764,0.90502 -3.27574,2.90836 l 2.8e-4,0.84425 v 2.48461 l -2.8e-4,32.7624 c -1e-5,0.89375 2.02423,3 3,3 h 46 c 1,0 3,-2 3,-3 v -31 c 0,-2 -1,-3 -2.95097,-3 z"
       id="path4-3"
       sodipodi:nodetypes="sccsssccscsssss" />
    <path
       style="fill:#434c5e;fill-opacity:1;stroke-width:0.169792"
       d="m 438.57143,509.19766 c 0,1.42999 -0.68236,2.59997 -2.24338,2.59997 h -39.59788 c -1.56099,0 -2.15874,-1.16998 -2.15874,-2.59997 v -7.40003 c 0,-2 1,-3 3,-3 h 38 c 2,0 3,1 3,3 z"
       id="path8-6"
       sodipodi:nodetypes="sssssssss" />
    <path
       style="fill:url(#linearGradient844);fill-opacity:1;stroke-width:0.190958"
       d="m 437.57143,502.79763 h -42 c -4,0 -6,2 -6,6 v 27 c 0,3 2,5 5,5 h 44 c 3,0 5,-2 5,-5 v -27 c 0,-4 -2,-6 -6,-6 z"
       id="path10"
       sodipodi:nodetypes="sssssssss" />
    <path
       fill-rule="evenodd"
       clip-rule="evenodd"
       d="m 428.00195,530.14791 -8.02488,3.25996 c -0.63962,0.25049 -1.33319,0.39018 -2.06045,0.39018 -0.73323,0 -1.433,-0.14119 -2.07606,-0.39608 l -8.00532,-3.25153 c -0.73355,-0.37471 -1.23881,-1.13302 -1.23881,-2.01297 v -8.67782 -1.50969 c 0,-0.41723 0.33861,-0.75473 0.75462,-0.75473 0.4172,0 0.75507,0.3375 0.75507,0.75473 v 0.61349 0.8962 8.57205 c 0,0.27226 0.1488,0.50511 0.36556,0.63784 l 7.70532,3.26036 c 0.0172,0.006 0.032,0.009 0.0481,0.0172 0.51946,0.21998 1.09135,0.34155 1.69128,0.34155 0.59605,0 1.16425,-0.12008 1.6816,-0.33748 0.0172,-0.006 0.0324,-0.0109 0.0478,-0.0179 l 7.71385,-3.26371 c 0.21669,-0.13272 0.3663,-0.36556 0.3663,-0.63783 v -5.55382 -0.89616 -0.61355 c 0,-0.41638 0.33828,-0.75393 0.75468,-0.75393 0.41713,0 0.75467,0.33755 0.75467,0.75393 v 1.50968 5.65957 c 4e-5,0.87848 -0.50333,1.63394 -1.23439,2.01048 z m 0.47979,-11.443 c -0.41638,0 -0.7547,-0.33861 -0.7547,-0.75495 0,-0.41723 0.33832,-0.75472 0.7547,-0.75472 0.4171,0 0.75461,0.33749 0.75461,0.75472 0,0.41634 -0.33751,0.75495 -0.75461,0.75495 z m -3.65098,9.25675 -3.55958,1.48308 v -9.4e-4 c -0.0968,0.0432 -0.20336,0.0671 -0.31542,0.0671 -0.42747,0 -0.77533,-0.34682 -0.77533,-0.77499 0,-0.33166 0.20858,-0.61172 0.50121,-0.72338 l 3.62588,-1.58665 c 0.235,-0.12672 0.40085,-0.37146 0.40085,-0.65929 v -9.88083 c 0,-0.20816 -0.1687,-0.37739 -0.37732,-0.37739 -0.0549,0 -0.10661,0.0125 -0.15476,0.0334 v -8.3e-4 l -5.10354,2.23376 c -0.23721,0.12686 -0.40085,0.37149 -0.40085,0.65811 v 8.94975 1.5094 c 0,0.83354 -0.67636,1.50972 -1.5099,1.50972 -0.20901,0 -0.40684,-0.0422 -0.58812,-0.11941 l -5.57588,-2.32334 c -0.81331,-0.34452 -1.38251,-1.14823 -1.38251,-2.08478 v -10.56566 c 0,-0.83355 0.67617,-1.5097 1.50922,-1.5097 0.20564,0 0.40017,0.0415 0.57966,0.11686 l 3.46344,1.44263 c 0.28443,0.1194 0.48484,0.40084 0.48484,0.72844 0,0.43669 -0.35374,0.79035 -0.78965,0.79035 -0.13194,0 -0.25458,-0.0361 -0.36362,-0.0932 l -2.84222,-1.24366 c -9.3e-4,0 0,6.9e-4 -9.3e-4,6.9e-4 -0.0466,-0.0209 -0.0989,-0.0334 -0.15369,-0.0334 -0.20939,0 -0.37776,0.16914 -0.37776,0.37736 v 9.8809 c 0,0.28783 0.16518,0.53247 0.40136,0.65929 l 5.10389,2.23299 c 7e-4,0 0,-7.4e-4 7e-4,-7.4e-4 0.0459,0.0209 0.0993,0.0334 0.15405,0.0334 0.20819,0 0.37737,-0.16843 0.37737,-0.37731 v -9.60936 -0.37775 c 0,-0.93817 0.5704,-1.74366 1.38454,-2.08632 l 5.58183,-2.32524 c 0.17981,-0.0756 0.37443,-0.11672 0.57999,-0.11672 0.83358,0 1.5101,0.67612 1.5101,1.50969 v 10.56558 c -6e-5,0.93816 -0.57339,1.74369 -1.38778,2.08743 z"
       id="path806-7"
       style="fill:#434c5e;fill-opacity:1;stroke-width:0.0471659" />
  </g>
</svg>
