<?xml version="1.0" encoding="UTF-8" standalone="no"?>
<svg
   width="64"
   version="1.1"
   height="64"
   id="svg15"
   sodipodi:docname="folder-notes.svg"
   inkscape:version="1.2.1 (9c6d41e410, 2022-07-14)"
   xmlns:inkscape="http://www.inkscape.org/namespaces/inkscape"
   xmlns:sodipodi="http://sodipodi.sourceforge.net/DTD/sodipodi-0.dtd"
   xmlns:xlink="http://www.w3.org/1999/xlink"
   xmlns="http://www.w3.org/2000/svg"
   xmlns:svg="http://www.w3.org/2000/svg"
   xmlns:rdf="http://www.w3.org/1999/02/22-rdf-syntax-ns#"
   xmlns:cc="http://creativecommons.org/ns#"
   xmlns:dc="http://purl.org/dc/elements/1.1/">
  <sodipodi:namedview
     pagecolor="#ffffff"
     bordercolor="#666666"
     borderopacity="1"
     objecttolerance="10"
     gridtolerance="10"
     guidetolerance="10"
     inkscape:pageopacity="0"
     inkscape:pageshadow="2"
     inkscape:window-width="1920"
     inkscape:window-height="1002"
     id="namedview17"
     showgrid="true"
     inkscape:zoom="4.90625"
     inkscape:cx="-4.9936306"
     inkscape:cy="28.840764"
     inkscape:window-x="0"
     inkscape:window-y="0"
     inkscape:window-maximized="1"
     inkscape:current-layer="layer1"
     inkscape:document-rotation="0"
     inkscape:showpageshadow="2"
     inkscape:pagecheckerboard="0"
     inkscape:deskcolor="#d1d1d1">
    <inkscape:grid
       type="xygrid"
       id="grid919" />
  </sodipodi:namedview>
  <defs
     id="defs5455">
    <linearGradient
       inkscape:collect="always"
       xlink:href="#linearGradient860"
       id="linearGradient862"
       x1="113.94583"
       y1="366.97165"
       x2="406.08234"
       y2="159.71205"
       gradientUnits="userSpaceOnUse"
       gradientTransform="matrix(0.17799897,0,0,0.17852009,370.28919,468.28582)" />
    <linearGradient
       inkscape:collect="always"
       id="linearGradient860">
      <stop
         style="stop-color:#8fbcbb;stop-opacity:1;"
         offset="0"
         id="stop856" />
      <stop
         style="stop-color:#a3be8c;stop-opacity:1;"
         offset="1"
         id="stop858" />
    </linearGradient>
    <linearGradient
       inkscape:collect="always"
       xlink:href="#linearGradient842"
       id="linearGradient844"
       x1="386.3063"
       y1="539.79773"
       x2="447.95114"
       y2="504.71896"
       gradientUnits="userSpaceOnUse"
       gradientTransform="matrix(0.89220779,0,0,1.0832755,44.905939,-43.952042)" />
    <linearGradient
       inkscape:collect="always"
       id="linearGradient842">
      <stop
         style="stop-color:#5e81ac;stop-opacity:1;"
         offset="0"
         id="stop838" />
      <stop
         style="stop-color:#88c0d0;stop-opacity:1;"
         offset="1"
         id="stop840" />
    </linearGradient>
  </defs>
  <metadata
     id="metadata5458">
    <rdf:RDF>
      <cc:Work
         rdf:about="">
        <dc:format>image/svg+xml</dc:format>
        <dc:type
           rdf:resource="http://purl.org/dc/dcmitype/StillImage" />
      </cc:Work>
    </rdf:RDF>
  </metadata>
  <g
     inkscape:label="Capa 1"
     inkscape:groupmode="layer"
     id="layer1"
     transform="translate(-384.57143,-483.798)">
    <path
       style="fill:url(#linearGradient862);fill-opacity:1;stroke-width:0.165167"
       d="m 416.56885,496.79763 c -0.77296,0 -1.68528,-0.50466 -2.0318,-1.11585 l -1.55431,-2.74667 c -0.34485,-0.61114 -1.25998,-1.10996 -2.03256,-1.1111 l -17.10301,-0.026 c -2.52449,-0.004 -3.2764,0.90502 -3.27574,2.90836 l 2.8e-4,0.84425 v 2.48461 l -2.8e-4,32.7624 c -1e-5,0.89375 2.02423,3 3,3 h 46 c 1,0 3,-2 3,-3 v -31 c 0,-2 -1,-3 -2.95097,-3 z"
       id="path4-3"
       sodipodi:nodetypes="sccsssccscsssss" />
    <path
       style="fill:#434c5e;fill-opacity:1;stroke-width:0.169792"
       d="m 438.57143,509.19766 c 0,1.42999 -0.68236,2.59997 -2.24338,2.59997 h -39.59788 c -1.56099,0 -2.15874,-1.16998 -2.15874,-2.59997 v -7.40003 c 0,-2 1,-3 3,-3 h 38 c 2,0 3,1 3,3 z"
       id="path8-6"
       sodipodi:nodetypes="sssssssss" />
    <path
       style="fill:url(#linearGradient844);fill-opacity:1;stroke-width:0.190958"
       d="m 437.57143,502.79763 h -42 c -4,0 -6,2 -6,6 v 27 c 0,3 2,5 5,5 h 44 c 3,0 5,-2 5,-5 v -27 c 0,-4 -2,-6 -6,-6 z"
       id="path10"
       sodipodi:nodetypes="sssssssss" />
    <path
       fill-rule="evenodd"
       clip-rule="evenodd"
       d="m 417.53851,519.10915 c 0,-0.34548 0.27987,-0.62499 0.62531,-0.62499 0.34515,0 0.62498,0.27951 0.62498,0.62499 0,0.34452 -0.27983,0.62438 -0.62498,0.62438 -0.34544,0 -0.62531,-0.27986 -0.62531,-0.62438 z m 8.96703,0.0491 -0.26334,0.26304 c -0.002,0.002 -0.004,0.002 -0.007,0.005 -0.4797,0.48003 -1.25151,0.48524 -1.74132,0.0212 l -1.61073,-1.61164 c -0.24384,-0.24382 -0.24384,-0.63966 0,-0.88349 0.24385,-0.24382 0.63969,-0.24382 0.88353,0 l 1.36108,1.36017 c 8.5e-4,0.002 0.002,0 0.003,0.002 0.12178,0.12177 0.31957,0.12177 0.44127,0 0.004,-0.004 0.007,-8.5e-4 0.0113,-0.002 l 0.038,-0.038 c 0.48857,-0.48798 0.48857,-1.27928 0,-1.76788 l -1.10443,-1.10443 c -0.48853,-0.48861 -1.27993,-0.48861 -1.7679,0 l -2.14441,2.14448 h -1.76853 -5.35925 -3.43786 c -0.86303,0 -1.56244,0.70009 -1.56244,1.5631 v 11.87473 c 0,0.86304 0.69941,1.56256 1.56244,1.56256 h 11.87475 c 0.86335,0 1.56255,-0.69952 1.56255,-1.56256 v -8.0374 c 0,-0.1721 -0.13977,-0.31218 -0.31225,-0.31218 -0.0861,0 -0.16446,0.0354 -0.2206,0.0916 -9.8e-4,8.2e-4 -8.1e-4,-0.004 -0.002,-0.003 l -3.47287,3.47235 c -0.37635,0.37657 -0.84294,0.60454 -1.33034,0.69058 -0.0922,0.0217 -0.18765,0.036 -0.28625,0.036 h -0.0881 c -0.0411,8.9e-4 -0.0834,8.9e-4 -0.12476,0 h -2.28759 c -0.69,0 -1.24934,-0.55932 -1.24934,-1.24933 v -2.28759 c -6.7e-4,-0.0411 -6.7e-4,-0.0833 0,-0.1245 v -0.0881 c 0,-0.099 0.0139,-0.19449 0.0361,-0.28663 0.0864,-0.48703 0.31435,-0.95455 0.69095,-1.33085 l 1.3275,-1.32777 0.003,0.003 c 0.11271,-0.11355 0.26979,-0.18316 0.4422,-0.18316 0.3455,0 0.62503,0.27982 0.62503,0.62535 0,0.18943 -0.0867,0.35798 -0.22005,0.47237 l -1.29395,1.29395 c -0.27249,0.27194 -0.38693,0.63714 -0.35579,0.99302 -6.2e-4,0.0182 -0.005,0.0355 -0.005,0.0531 v 0.93723 c -2e-5,0.68994 0.56031,1.25025 1.25031,1.25025 h 0.9372 c 0.0182,0 0.0352,-0.004 0.0531,-0.005 0.35611,0.0314 0.7211,-0.0834 0.993,-0.35612 l 4.01372,-4.01374 c 0.22553,-0.22161 0.53564,-0.3128 0.87773,-0.3128 0.69058,0 1.25029,0.55937 1.25029,1.25 v 9.0622 c 0,1.38091 -1.11909,2.50064 -2.49973,2.50064 h -12.50004 c -1.38091,0 -2.50029,-1.11973 -2.50029,-2.50064 v -12.49962 c 0,-1.38095 1.11938,-2.49973 2.50029,-2.49973 h 10.35898 l 1.77915,-1.77921 c 0.48807,-0.48824 1.12789,-0.7208 1.76776,-0.7208 0.63986,0 1.27975,0.23256 1.76801,0.7208 l 1.10507,1.10508 c 0.48878,0.48877 0.72148,1.1378 0.72081,1.77843 -6.7e-4,0.63899 -0.23335,1.26969 -0.72081,1.75739 z"
       id="path2-1"
       style="fill:#434c5e;fill-opacity:1;stroke-width:0.0390623" />
  </g>
</svg>
