<?xml version="1.0" encoding="UTF-8" standalone="no"?>
<svg
   width="64"
   version="1.1"
   height="64"
   id="svg15"
   sodipodi:docname="folder-Reddit.svg"
   inkscape:version="1.2.1 (9c6d41e410, 2022-07-14)"
   xmlns:inkscape="http://www.inkscape.org/namespaces/inkscape"
   xmlns:sodipodi="http://sodipodi.sourceforge.net/DTD/sodipodi-0.dtd"
   xmlns:xlink="http://www.w3.org/1999/xlink"
   xmlns="http://www.w3.org/2000/svg"
   xmlns:svg="http://www.w3.org/2000/svg"
   xmlns:rdf="http://www.w3.org/1999/02/22-rdf-syntax-ns#"
   xmlns:cc="http://creativecommons.org/ns#"
   xmlns:dc="http://purl.org/dc/elements/1.1/">
  <sodipodi:namedview
     pagecolor="#ffffff"
     bordercolor="#666666"
     borderopacity="1"
     objecttolerance="10"
     gridtolerance="10"
     guidetolerance="10"
     inkscape:pageopacity="0"
     inkscape:pageshadow="2"
     inkscape:window-width="1920"
     inkscape:window-height="1002"
     id="namedview17"
     showgrid="true"
     inkscape:zoom="4.90625"
     inkscape:cx="-5.1974522"
     inkscape:cy="28.840764"
     inkscape:window-x="0"
     inkscape:window-y="0"
     inkscape:window-maximized="1"
     inkscape:current-layer="layer1"
     inkscape:document-rotation="0"
     inkscape:showpageshadow="2"
     inkscape:pagecheckerboard="0"
     inkscape:deskcolor="#d1d1d1">
    <inkscape:grid
       type="xygrid"
       id="grid919" />
  </sodipodi:namedview>
  <defs
     id="defs5455">
    <linearGradient
       inkscape:collect="always"
       xlink:href="#linearGradient860"
       id="linearGradient862"
       x1="113.94583"
       y1="366.97165"
       x2="406.08234"
       y2="159.71205"
       gradientUnits="userSpaceOnUse"
       gradientTransform="matrix(0.17799897,0,0,0.17852009,370.28919,468.28582)" />
    <linearGradient
       inkscape:collect="always"
       id="linearGradient860">
      <stop
         style="stop-color:#8fbcbb;stop-opacity:1;"
         offset="0"
         id="stop856" />
      <stop
         style="stop-color:#a3be8c;stop-opacity:1;"
         offset="1"
         id="stop858" />
    </linearGradient>
    <linearGradient
       inkscape:collect="always"
       xlink:href="#linearGradient842"
       id="linearGradient844"
       x1="386.3063"
       y1="539.79773"
       x2="447.95114"
       y2="504.71896"
       gradientUnits="userSpaceOnUse"
       gradientTransform="matrix(0.89220779,0,0,1.0832755,44.905939,-43.952042)" />
    <linearGradient
       inkscape:collect="always"
       id="linearGradient842">
      <stop
         style="stop-color:#5e81ac;stop-opacity:1;"
         offset="0"
         id="stop838" />
      <stop
         style="stop-color:#88c0d0;stop-opacity:1;"
         offset="1"
         id="stop840" />
    </linearGradient>
  </defs>
  <metadata
     id="metadata5458">
    <rdf:RDF>
      <cc:Work
         rdf:about="">
        <dc:format>image/svg+xml</dc:format>
        <dc:type
           rdf:resource="http://purl.org/dc/dcmitype/StillImage" />
      </cc:Work>
    </rdf:RDF>
  </metadata>
  <g
     inkscape:label="Capa 1"
     inkscape:groupmode="layer"
     id="layer1"
     transform="translate(-384.57143,-483.798)">
    <path
       style="fill:url(#linearGradient862);fill-opacity:1;stroke-width:0.165167"
       d="m 416.56885,496.79763 c -0.77296,0 -1.68528,-0.50466 -2.0318,-1.11585 l -1.55431,-2.74667 c -0.34485,-0.61114 -1.25998,-1.10996 -2.03256,-1.1111 l -17.10301,-0.026 c -2.52449,-0.004 -3.2764,0.90502 -3.27574,2.90836 l 2.8e-4,0.84425 v 2.48461 l -2.8e-4,32.7624 c -1e-5,0.89375 2.02423,3 3,3 h 46 c 1,0 3,-2 3,-3 v -31 c 0,-2 -1,-3 -2.95097,-3 z"
       id="path4-3"
       sodipodi:nodetypes="sccsssccscsssss" />
    <path
       style="fill:#434c5e;fill-opacity:1;stroke-width:0.169792"
       d="m 438.57143,509.19766 c 0,1.42999 -0.68236,2.59997 -2.24338,2.59997 h -39.59788 c -1.56099,0 -2.15874,-1.16998 -2.15874,-2.59997 v -7.40003 c 0,-2 1,-3 3,-3 h 38 c 2,0 3,1 3,3 z"
       id="path8-6"
       sodipodi:nodetypes="sssssssss" />
    <path
       style="fill:url(#linearGradient844);fill-opacity:1;stroke-width:0.190958"
       d="m 437.57143,502.79763 h -42 c -4,0 -6,2 -6,6 v 27 c 0,3 2,5 5,5 h 44 c 3,0 5,-2 5,-5 v -27 c 0,-4 -2,-6 -6,-6 z"
       id="path10"
       sodipodi:nodetypes="sssssssss" />
    <path
       d="m 427.80898,524.4003 c 0,-1.64516 -1.33843,-2.97938 -2.97924,-2.97938 -0.64647,0 -1.26381,0.20718 -1.77351,0.58431 -1.44623,-0.72934 -3.16586,-1.16847 -4.98486,-1.27207 l 1.1892,-3.28595 2.8758,0.71688 c 0.0621,1.18095 1.04416,2.11731 2.23757,2.11731 1.23469,0 2.24163,-1.00693 2.24163,-2.24161 0,-1.23485 -1.00694,-2.24179 -2.24163,-2.24179 -0.84119,0 -1.57459,0.46406 -1.95998,1.15197 l -3.94068,-0.98623 -1.71542,4.7445 c -1.9765,0.058 -3.84956,0.5055 -5.41168,1.28874 -0.5097,-0.37714 -1.12284,-0.58011 -1.76932,-0.58011 -1.645,0.005 -2.98343,1.34248 -2.98343,2.98343 0,0.80381 0.33149,1.57864 0.89914,2.13399 -0.0372,0.23616 -0.058,0.47652 -0.058,0.71672 0,1.8025 1.05243,3.47664 2.95851,4.71148 1.82321,1.18499 4.239,1.83551 6.79981,1.83551 2.56082,0 4.9724,-0.65052 6.79965,-1.83551 1.90609,-1.23905 2.95867,-2.91303 2.95867,-4.71148 0,-0.23615 -0.0207,-0.47231 -0.0539,-0.70847 0.57591,-0.55113 0.91162,-1.33017 0.91162,-2.14224 z m -15.27361,1.74034 c 0,-0.95725 0.77904,-1.73629 1.73629,-1.73629 0.9571,0 1.73614,0.77904 1.73614,1.73629 0,0.95709 -0.77904,1.73613 -1.73614,1.73613 -0.95725,0 -1.73629,-0.77904 -1.73629,-1.73613 z m 4.77768,5.4944 c -1.34669,0 -2.6602,-0.38119 -3.7955,-1.10212 l 0.66704,-1.04837 c 0.93653,0.59662 2.02214,0.9116 3.13266,0.9116 1.11055,0 2.19194,-0.31498 3.13252,-0.9116 l 0.66719,1.04837 c -1.14371,0.72093 -2.45722,1.10212 -3.80391,1.10212 z m 3.07877,-3.75827 c -0.95725,0 -1.73613,-0.77904 -1.73613,-1.73613 0,-0.95725 0.77888,-1.73629 1.73613,-1.73629 0.95725,0 1.73613,0.77904 1.73613,1.73629 0,0.95709 -0.77888,1.73613 -1.73613,1.73613 z m 0,0"
       id="path2-3-3-3"
       style="fill:#434c5e;fill-opacity:1;stroke-width:0.0414367" />
  </g>
</svg>
