<?xml version="1.0" encoding="UTF-8" standalone="no"?>
<svg
   width="64"
   version="1.1"
   height="64"
   viewBox="0 0 64 64"
   id="svg16"
   sodipodi:docname="folder-podcast.svg"
   inkscape:version="1.2.1 (9c6d41e410, 2022-07-14)"
   xmlns:inkscape="http://www.inkscape.org/namespaces/inkscape"
   xmlns:sodipodi="http://sodipodi.sourceforge.net/DTD/sodipodi-0.dtd"
   xmlns:xlink="http://www.w3.org/1999/xlink"
   xmlns="http://www.w3.org/2000/svg"
   xmlns:svg="http://www.w3.org/2000/svg"
   xmlns:rdf="http://www.w3.org/1999/02/22-rdf-syntax-ns#"
   xmlns:cc="http://creativecommons.org/ns#"
   xmlns:dc="http://purl.org/dc/elements/1.1/">
  <sodipodi:namedview
     pagecolor="#ffffff"
     bordercolor="#666666"
     borderopacity="1"
     objecttolerance="10"
     gridtolerance="10"
     guidetolerance="10"
     inkscape:pageopacity="0"
     inkscape:pageshadow="2"
     inkscape:window-width="1920"
     inkscape:window-height="1002"
     id="namedview18"
     showgrid="true"
     inkscape:zoom="3.4692426"
     inkscape:cx="-77.106167"
     inkscape:cy="43.092979"
     inkscape:window-x="0"
     inkscape:window-y="0"
     inkscape:window-maximized="1"
     inkscape:current-layer="layer1"
     inkscape:document-rotation="0"
     inkscape:showpageshadow="2"
     inkscape:pagecheckerboard="0"
     inkscape:deskcolor="#d1d1d1">
    <inkscape:grid
       type="xygrid"
       id="grid547" />
  </sodipodi:namedview>
  <defs
     id="defs5455">
    <linearGradient
       id="linearGradient4172">
      <stop
         style="stop-color:#ffccaa;stop-opacity:1"
         id="stop4174" />
      <stop
         offset="1"
         style="stop-color:#ff9955;stop-opacity:1"
         id="stop4176" />
    </linearGradient>
    <linearGradient
       inkscape:collect="always"
       xlink:href="#linearGradient860"
       id="linearGradient862"
       x1="113.94583"
       y1="366.97165"
       x2="406.08234"
       y2="159.71205"
       gradientUnits="userSpaceOnUse"
       gradientTransform="matrix(0.17799897,0,0,0.17852009,370.28919,468.28582)" />
    <linearGradient
       inkscape:collect="always"
       id="linearGradient860">
      <stop
         style="stop-color:#8fbcbb;stop-opacity:1;"
         offset="0"
         id="stop856" />
      <stop
         style="stop-color:#a3be8c;stop-opacity:1;"
         offset="1"
         id="stop858" />
    </linearGradient>
    <linearGradient
       inkscape:collect="always"
       xlink:href="#linearGradient842"
       id="linearGradient844-0"
       x1="386.3063"
       y1="539.79773"
       x2="447.95114"
       y2="504.71896"
       gradientUnits="userSpaceOnUse"
       gradientTransform="matrix(0.89220779,0,0,1.0832755,44.905939,-43.952027)" />
    <linearGradient
       inkscape:collect="always"
       id="linearGradient842">
      <stop
         style="stop-color:#5e81ac;stop-opacity:1;"
         offset="0"
         id="stop838" />
      <stop
         style="stop-color:#88c0d0;stop-opacity:1;"
         offset="1"
         id="stop840" />
    </linearGradient>
  </defs>
  <metadata
     id="metadata5458">
    <rdf:RDF>
      <cc:Work
         rdf:about="">
        <dc:format>image/svg+xml</dc:format>
        <dc:type
           rdf:resource="http://purl.org/dc/dcmitype/StillImage" />
      </cc:Work>
    </rdf:RDF>
  </metadata>
  <g
     inkscape:label="Capa 1"
     inkscape:groupmode="layer"
     id="layer1"
     transform="translate(-384.57143,-483.798)">
    <path
       style="fill:url(#linearGradient862);fill-opacity:1;stroke-width:0.165167"
       d="m 416.56885,496.79763 c -0.77296,0 -1.68528,-0.50466 -2.0318,-1.11585 l -1.55431,-2.74667 c -0.34485,-0.61114 -1.25998,-1.10996 -2.03256,-1.1111 l -17.10301,-0.026 c -2.52449,-0.004 -3.2764,0.90502 -3.27574,2.90836 l 2.8e-4,0.84425 v 2.48461 l -2.8e-4,32.7624 c -1e-5,0.89375 2.02423,3 3,3 h 46 c 1,0 3,-2 3,-3 v -31 c 0,-2 -1,-3 -2.95097,-3 z"
       id="path4-3-3"
       sodipodi:nodetypes="sccsssccscsssss" />
    <path
       style="fill:#434c5e;fill-opacity:1;stroke-width:0.169792"
       d="m 438.57143,509.19766 c 0,1.42999 -0.68236,2.59997 -2.24338,2.59997 h -39.59788 c -1.56099,0 -2.15874,-1.16998 -2.15874,-2.59997 v -7.40003 c 0,-2 1,-3 3,-3 h 38 c 2,0 3,1 3,3 z"
       id="path8-6-0"
       sodipodi:nodetypes="sssssssss" />
    <path
       style="fill:url(#linearGradient844-0);fill-opacity:1;stroke-width:0.190958"
       d="m 437.57143,502.79763 h -42 c -4,0 -6,2 -6,6 v 27 c 0,3 2,5 5,5 h 44 c 3,0 5,-2 5,-5 v -27 c 0,-4 -2,-6 -6,-6 z"
       id="path10-4"
       sodipodi:nodetypes="sssssssss" />
    <path
       d="m 426.89522,531.29774 c 0,1.38025 -1.11933,2.49928 -2.4999,2.49928 h -1.24998 c -1.38118,0 -2.50018,-1.11903 -2.50018,-2.49928 0,-0.30703 -0.0165,-0.60973 -0.04,-0.91034 -0.003,-0.0506 -0.006,-0.10091 -0.0115,-0.15078 -0.0268,-0.28499 -0.0653,-0.56761 -0.11295,-0.84655 -0.008,-0.0546 -0.0195,-0.10756 -0.0294,-0.16173 -0.0529,-0.28103 -0.11348,-0.55903 -0.1867,-0.83308 -0.009,-0.04 -0.022,-0.0781 -0.0337,-0.11716 -0.0785,-0.28231 -0.16484,-0.56125 -0.26428,-0.83461 -0.001,-0.003 -0.003,-0.008 -0.005,-0.0132 -0.10011,-0.27464 -0.2142,-0.54327 -0.33568,-0.80754 -0.0174,-0.0386 -0.0331,-0.0772 -0.0513,-0.11474 -0.1193,-0.25233 -0.24815,-0.4983 -0.38483,-0.74 -0.0234,-0.0425 -0.0481,-0.0844 -0.0728,-0.12758 -0.14044,-0.24014 -0.28873,-0.4758 -0.44583,-0.70429 -0.0215,-0.0316 -0.0438,-0.0626 -0.0657,-0.0937 -0.1636,-0.23283 -0.33385,-0.46053 -0.51387,-0.67993 -0.005,-0.006 -0.0115,-0.0132 -0.0163,-0.0195 -0.18101,-0.21846 -0.37111,-0.42814 -0.56704,-0.63254 -0.0325,-0.0348 -0.0637,-0.0684 -0.0979,-0.10226 -0.19107,-0.19467 -0.39078,-0.38175 -0.59617,-0.56181 -0.0374,-0.0331 -0.0749,-0.066 -0.11213,-0.0976 -0.21024,-0.17938 -0.42461,-0.35239 -0.64734,-0.5157 -0.0319,-0.0229 -0.0641,-0.0446 -0.0965,-0.0679 -0.23188,-0.16689 -0.46796,-0.32744 -0.7133,-0.47667 -0.003,-0.002 -0.007,-0.005 -0.0126,-0.007 -0.2417,-0.14705 -0.49191,-0.28229 -0.74475,-0.41198 -0.0455,-0.0229 -0.0897,-0.0469 -0.13532,-0.0689 -0.2431,-0.11988 -0.49117,-0.22922 -0.74414,-0.33176 -0.0533,-0.0215 -0.10616,-0.0429 -0.16054,-0.0634 -0.25706,-0.0995 -0.51786,-0.1904 -0.78413,-0.27096 -0.0412,-0.0126 -0.0837,-0.0234 -0.12538,-0.0362 -0.99852,-0.29023 -2.05318,-0.44925 -3.14563,-0.44925 -0.69012,0 -1.24995,0.55911 -1.24995,1.2494 v 1.25027 c 0,0.69 0.55986,1.24997 1.24995,1.24997 0.68613,0 1.3482,0.1001 1.97956,0.27251 0.19345,0.0534 0.38325,0.11352 0.5704,0.18157 0.0112,0.003 0.0209,0.008 0.0319,0.0127 0.9257,0.33999 1.76444,0.85697 2.47777,1.50942 0.0311,0.0284 0.0628,0.0559 0.0933,0.0847 0.11212,0.10566 0.22005,0.21576 0.32519,0.32873 0.0462,0.0496 0.0927,0.0995 0.13727,0.15066 0.0939,0.10485 0.18359,0.21153 0.27115,0.32229 0.0521,0.0658 0.10154,0.13454 0.1514,0.20262 0.0788,0.10685 0.15836,0.21303 0.23127,0.32351 0.0533,0.0814 0.1002,0.16538 0.15062,0.24811 0.0983,0.16269 0.19055,0.32803 0.27616,0.49833 0.0627,0.12479 0.12606,0.24933 0.18218,0.37848 0.0393,0.0885 0.0723,0.18059 0.10765,0.27185 0.0469,0.12111 0.0933,0.24233 0.13383,0.36652 0.0308,0.0927 0.0583,0.18552 0.0847,0.27891 0.0381,0.13248 0.0723,0.2668 0.10279,0.40131 0.0203,0.0883 0.0406,0.17667 0.0576,0.26702 0.0287,0.15017 0.0496,0.30275 0.069,0.45473 0.009,0.0808 0.0221,0.15993 0.0303,0.24105 0.0142,0.1474 0.0171,0.29726 0.0221,0.44652 0.008,0.0856 0.0133,0.17181 0.0133,0.25939 0,1.38026 -1.11904,2.49934 -2.50017,2.49934 h -0.93766 -0.31244 c -1.38044,0 -2.49962,-1.11908 -2.49962,-2.49934 0,-0.69036 -0.5598,-1.25029 -1.25008,-1.25029 -0.69012,0 -1.24991,0.55993 -1.24991,1.25029 0,0.69 0.55983,1.24935 1.24991,1.24935 0.34563,0 0.62507,0.28014 0.62507,0.62505 0,0.34538 -0.27944,0.62494 -0.62507,0.62494 -1.38045,-6e-5 -2.49949,-1.11913 -2.49949,-2.4994 0,-1.38113 1.11904,-2.50026 2.49945,-2.50026 1.38057,0 2.50038,1.1191 2.50038,2.50026 0,0.69001 0.559,1.24936 1.2493,1.24936 h 0.31246 0.93766 c 0.69011,0 1.25009,-0.55935 1.25009,-1.24936 0,-0.94692 -0.21658,-1.84104 -0.59362,-2.64551 -0.0323,-0.0688 -0.0634,-0.13793 -0.099,-0.20597 -0.0462,-0.0906 -0.0964,-0.17944 -0.14631,-0.26762 -0.0381,-0.0664 -0.0788,-0.13188 -0.11908,-0.19628 -0.0514,-0.0816 -0.10279,-0.16451 -0.15763,-0.24378 -0.0837,-0.12116 -0.17323,-0.23897 -0.26486,-0.35397 -0.055,-0.067 -0.11217,-0.13156 -0.16889,-0.19687 -0.0671,-0.0772 -0.13593,-0.15408 -0.20673,-0.22764 -0.0583,-0.0595 -0.11628,-0.11786 -0.17663,-0.17518 -0.0767,-0.0735 -0.15622,-0.14377 -0.23619,-0.21366 -0.051,-0.0438 -0.10152,-0.0896 -0.15408,-0.13242 -0.13314,-0.1071 -0.26981,-0.2118 -0.41136,-0.30848 -0.0412,-0.0279 -0.0847,-0.0521 -0.1268,-0.0791 -0.11005,-0.0708 -0.22216,-0.14089 -0.33701,-0.20538 -0.059,-0.0331 -0.11844,-0.0634 -0.17809,-0.0947 -0.10863,-0.0571 -0.22005,-0.10934 -0.33221,-0.15994 -0.0557,-0.0239 -0.10904,-0.0503 -0.16521,-0.0735 -0.16618,-0.0676 -0.33511,-0.1309 -0.50812,-0.18552 -0.0209,-0.006 -0.0425,-0.0115 -0.0639,-0.0179 -0.15558,-0.0467 -0.31479,-0.088 -0.47515,-0.12239 -0.0597,-0.0129 -0.12138,-0.0234 -0.1822,-0.0353 -0.13028,-0.0245 -0.26275,-0.0438 -0.39595,-0.0603 -0.0578,-0.007 -0.11349,-0.014 -0.17171,-0.0195 -0.19128,-0.0176 -0.38321,-0.0293 -0.5788,-0.0293 -1.3804,-6e-5 -2.49945,-1.1194 -2.49945,-2.50035 v -1.25028 c 0,-1.38055 1.11905,-2.49964 2.49951,-2.49964 0.20318,0 0.40433,0.006 0.60537,0.0157 0.073,0.003 0.14586,0.009 0.2194,0.0149 0.13384,0.008 0.26768,0.0176 0.40005,0.0305 0.0696,0.007 0.1374,0.0154 0.20602,0.0234 0.13247,0.0156 0.26491,0.0312 0.39596,0.0506 0.0785,0.011 0.15628,0.0243 0.23404,0.0381 0.11142,0.0185 0.22146,0.0381 0.33221,0.059 0.0892,0.018 0.17657,0.0362 0.26412,0.0548 0.11492,0.0243 0.22919,0.0513 0.34194,0.0794 0.0762,0.019 0.15075,0.0381 0.22648,0.0576 0.11129,0.0301 0.22215,0.062 0.33276,0.0946 0.08,0.0234 0.16116,0.0469 0.24105,0.0725 0.10206,0.0322 0.20188,0.067 0.30349,0.10269 0.0875,0.0301 0.1758,0.0595 0.26198,0.0926 0.0862,0.0325 0.17244,0.0678 0.25789,0.10154 0.0933,0.0375 0.18786,0.0731 0.28032,0.11288 0.08,0.0342 0.15707,0.071 0.2362,0.10626 0.19838,0.0896 0.39379,0.1843 0.58715,0.28382 0.0602,0.0309 0.12125,0.0609 0.18078,0.0932 0.10152,0.0549 0.20113,0.11228 0.30059,0.1697 0.0645,0.0367 0.13049,0.0722 0.19423,0.11079 0.10279,0.0615 0.20447,0.1266 0.30613,0.19131 0.0557,0.0362 0.11149,0.0699 0.16671,0.10616 0.099,0.0649 0.19619,0.13247 0.29217,0.20017 0.0616,0.0433 0.12399,0.0875 0.18572,0.1325 0.0881,0.0643 0.17594,0.1303 0.26213,0.1962 0.0608,0.0463 0.1208,0.094 0.17988,0.14158 0.0923,0.0741 0.18373,0.14862 0.27404,0.2249 0.0475,0.0406 0.0947,0.0814 0.14164,0.12273 0.0973,0.0849 0.19408,0.16969 0.28863,0.25789 0.032,0.0286 0.0609,0.0584 0.0921,0.0875 0.88372,0.83745 1.64704,1.80237 2.25646,2.86616 0.007,0.0126 0.0153,0.026 0.022,0.0391 0.0814,0.14309 0.15993,0.28808 0.23552,0.43455 0.009,0.019 0.019,0.0375 0.0287,0.0565 0.0766,0.1493 0.15014,0.29913 0.22037,0.45197 0.002,0.007 0.006,0.0157 0.009,0.0229 0.0735,0.16025 0.14431,0.32163 0.21082,0.48552 0,6.4e-4 0,10e-4 6.3e-4,0.002 0.34393,0.84443 0.59843,1.73497 0.75191,2.6602 0.11079,0.66896 0.17177,1.35495 0.17177,2.05595 0,0.69 0.55967,1.24934 1.24994,1.24934 h 1.24991 c 0.69028,0 1.24964,-0.55934 1.24964,-1.24934 0,-1.01194 -0.0971,-2.00074 -0.27406,-2.96131 -0.002,-0.0115 -0.003,-0.021 -0.006,-0.0325 -0.0435,-0.23475 -0.0932,-0.46814 -0.14713,-0.69915 -0.002,-0.008 -0.003,-0.0179 -0.005,-0.0259 -0.0526,-0.22215 -0.10917,-0.44308 -0.17033,-0.6616 -0.007,-0.0284 -0.0163,-0.0576 -0.0239,-0.0863 -0.062,-0.21789 -0.12814,-0.4321 -0.19892,-0.64663 -0.001,-0.003 -0.002,-0.009 -0.003,-0.0148 -0.53462,-1.60885 -1.31345,-3.10512 -2.29362,-4.44696 -0.002,-0.005 -0.005,-0.008 -0.008,-0.0134 -0.12271,-0.16756 -0.24939,-0.33142 -0.37845,-0.49409 -0.0256,-0.0322 -0.0503,-0.0656 -0.0766,-0.0982 -0.11963,-0.14924 -0.24381,-0.29571 -0.36927,-0.44064 -0.0364,-0.0414 -0.0722,-0.0824 -0.10778,-0.12425 -0.12511,-0.14222 -0.2551,-0.28228 -0.3851,-0.42053 -0.0364,-0.0381 -0.0725,-0.0766 -0.10851,-0.11412 -0.12692,-0.13184 -0.25661,-0.2612 -0.38753,-0.3882 -0.049,-0.0469 -0.0979,-0.094 -0.14712,-0.14094 -0.1291,-0.12177 -0.26058,-0.24229 -0.39396,-0.36072 -0.0482,-0.043 -0.0982,-0.0851 -0.1474,-0.12819 -0.13212,-0.11498 -0.26607,-0.22859 -0.40276,-0.33843 -0.0626,-0.0506 -0.12605,-0.0995 -0.18984,-0.14951 -0.12817,-0.1001 -0.25694,-0.20175 -0.38875,-0.29849 -0.0652,-0.0475 -0.13184,-0.0936 -0.19838,-0.14156 -0.13669,-0.0976 -0.2734,-0.19527 -0.41255,-0.28873 -0.0306,-0.0201 -0.0603,-0.0391 -0.0905,-0.059 -0.35312,-0.23255 -0.71471,-0.45192 -1.08609,-0.65708 -0.0196,-0.0115 -0.0391,-0.0229 -0.059,-0.0339 -0.11077,-0.0601 -0.22415,-0.11684 -0.33627,-0.17512 -0.11561,-0.0601 -0.23052,-0.12051 -0.34755,-0.17728 -0.10993,-0.0538 -0.22291,-0.10406 -0.33435,-0.15537 -0.11345,-0.0521 -0.22546,-0.10353 -0.34052,-0.15348 -0.12114,-0.0526 -0.24307,-0.10091 -0.36579,-0.15078 -0.11623,-0.0469 -0.23115,-0.0932 -0.34894,-0.13732 -0.11211,-0.0419 -0.22565,-0.0819 -0.33845,-0.12109 -0.13246,-0.0463 -0.26563,-0.0921 -0.39946,-0.13523 -0.10685,-0.0346 -0.21573,-0.0678 -0.32439,-0.10031 -0.1346,-0.0406 -0.26975,-0.0785 -0.40573,-0.11469 -0.11701,-0.032 -0.23404,-0.0624 -0.35186,-0.0915 -0.13096,-0.0322 -0.26279,-0.0615 -0.39522,-0.091 -0.12047,-0.0268 -0.24028,-0.053 -0.3622,-0.077 -0.13807,-0.0266 -0.27814,-0.0521 -0.41762,-0.0748 -0.11346,-0.0199 -0.22642,-0.0394 -0.34128,-0.0565 -0.16538,-0.0234 -0.33283,-0.0429 -0.49955,-0.0628 -0.0914,-0.009 -0.18018,-0.022 -0.2713,-0.0316 -0.1877,-0.0185 -0.37763,-0.0312 -0.56684,-0.0429 -0.0785,-0.005 -0.15546,-0.0129 -0.23468,-0.0165 -0.0615,-0.002 -0.12399,-0.002 -0.18644,-0.005 v -0.007 c -0.1576,-0.001 -0.31461,-0.0615 -0.43517,-0.18217 -0.24381,-0.24384 -0.24381,-0.63995 0,-0.8838 0.13318,-0.133 0.31111,-0.1864 0.48491,-0.17453 9.35401,0.35117 16.83175,8.04115 16.83175,17.48164 z M 407.5205,515.04799 c -0.34485,0 -0.62435,-0.28014 -0.62435,-0.62504 0,-0.34539 0.2795,-0.62495 0.62435,-0.62495 0.34543,0 0.62511,0.27956 0.62511,0.62495 0,0.3449 -0.27968,0.62504 -0.62511,0.62504 z"
       id="path2-36-3-4"
       style="fill:#e85d00;fill-opacity:1;stroke-width:0.0390607" />
  </g>
</svg>
