<?xml version="1.0" encoding="UTF-8" standalone="no"?>
<svg
   width="64"
   version="1.1"
   height="64"
   id="svg16"
   sodipodi:docname="folder-java.svg"
   inkscape:version="1.2.1 (9c6d41e410, 2022-07-14)"
   xmlns:inkscape="http://www.inkscape.org/namespaces/inkscape"
   xmlns:sodipodi="http://sodipodi.sourceforge.net/DTD/sodipodi-0.dtd"
   xmlns="http://www.w3.org/2000/svg"
   xmlns:svg="http://www.w3.org/2000/svg"
   xmlns:rdf="http://www.w3.org/1999/02/22-rdf-syntax-ns#"
   xmlns:cc="http://creativecommons.org/ns#"
   xmlns:dc="http://purl.org/dc/elements/1.1/">
  <sodipodi:namedview
     pagecolor="#ffffff"
     bordercolor="#666666"
     borderopacity="1"
     objecttolerance="10"
     gridtolerance="10"
     guidetolerance="10"
     inkscape:pageopacity="0"
     inkscape:pageshadow="2"
     inkscape:window-width="1920"
     inkscape:window-height="1002"
     id="namedview18"
     showgrid="true"
     inkscape:zoom="4.90625"
     inkscape:cx="-40.66242"
     inkscape:cy="14.573248"
     inkscape:window-x="0"
     inkscape:window-y="0"
     inkscape:window-maximized="1"
     inkscape:current-layer="layer1-2"
     inkscape:document-rotation="0"
     inkscape:showpageshadow="2"
     inkscape:pagecheckerboard="0"
     inkscape:deskcolor="#d1d1d1">
    <inkscape:grid
       type="xygrid"
       id="grid1438" />
  </sodipodi:namedview>
  <defs
     id="defs5455">
    <linearGradient
       id="linearGradient4172-0">
      <stop
         style="stop-color:#f89406"
         id="stop4174-4" />
      <stop
         offset="1"
         style="stop-color:#faa938"
         id="stop4176-5" />
    </linearGradient>
  </defs>
  <metadata
     id="metadata5458">
    <rdf:RDF>
      <cc:Work
         rdf:about="">
        <dc:format>image/svg+xml</dc:format>
        <dc:type
           rdf:resource="http://purl.org/dc/dcmitype/StillImage" />
      </cc:Work>
    </rdf:RDF>
  </metadata>
  <g
     inkscape:label="Capa 1"
     inkscape:groupmode="layer"
     id="layer1-2"
     transform="translate(-384.57143,-483.79801)">
    <path
       style="fill:#88c0d0;fill-opacity:1;stroke-width:0.165167"
       d="m 416.56885,496.79764 c -0.77296,0 -1.68528,-0.50466 -2.0318,-1.11585 l -1.55431,-2.74667 c -0.34485,-0.61114 -1.25998,-1.10996 -2.03256,-1.1111 l -17.10301,-0.026 c -2.52449,-0.004 -3.2764,0.90502 -3.27574,2.90836 l 2.8e-4,0.84425 v 2.48461 l -2.8e-4,32.7624 c -1e-5,0.89375 2.02423,3 3,3 h 46 c 1,0 3,-2 3,-3 v -31 c 0,-2 -1,-3 -2.95097,-3 z"
       id="path4-3"
       sodipodi:nodetypes="sccsssccscsssss" />
    <path
       style="fill:#434c5e;fill-opacity:1;stroke-width:0.169792"
       d="m 438.57143,509.19767 c 0,1.42999 -0.68236,2.59997 -2.24338,2.59997 h -39.59788 c -1.56099,0 -2.15874,-1.16998 -2.15874,-2.59997 v -7.40003 c 0,-2 1,-3 3,-3 h 38 c 2,0 3,1 3,3 z"
       id="path8-6"
       sodipodi:nodetypes="sssssssss" />
    <path
       style="fill:#d08770;fill-opacity:1;stroke-width:0.190958"
       d="m 437.57143,502.79764 h -42 c -4,0 -6,2 -6,6 v 27 c 0,3 2,5 5,5 h 44 c 3,0 5,-2 5,-5 v -27 c 0,-4 -2,-6 -6,-6 z"
       id="path10"
       sodipodi:nodetypes="sssssssss" />
    <path
       d="m 425.4804,533.79801 h -19.83467 c -0.27328,0 -0.49588,-0.38795 -0.49588,-0.66123 0,-0.27307 0.22262,-0.66102 0.49588,-0.66102 h 19.83467 c 0.27328,0 0.49579,0.38795 0.49579,0.66102 0,0.27328 -0.22251,0.66123 -0.49579,0.66123 z"
       id="path2-3-2"
       style="color:#eff0f1;fill:#434c5e;fill-opacity:1;stroke-width:0.0495865"
       sodipodi:nodetypes="sssssss"
       class="ColorScheme-Text" />
    <path
       d="m 422.50663,530.16172 h -0.002 c -0.26182,0 -0.47888,-0.20494 -0.49442,-0.46659 -0.0171,-0.27288 0.19239,-0.50782 0.46573,-0.52431 h 4.1e-4 c 0.002,-4.9e-4 0.007,-9e-4 0.0171,-0.001 0.023,-0.002 0.0478,-0.004 0.0761,-0.007 0.0632,-0.006 0.1686,-0.0223 0.30397,-0.0486 0.24254,-0.0475 0.62333,-0.14344 1.06166,-0.32237 1.12671,-0.46117 2.04449,-1.21385 2.72681,-2.23683 0.75967,-1.1291 0.80678,-1.68249 0.80327,-1.82532 -10e-4,-0.13098 -0.0268,-0.19333 -0.0534,-0.23751 -0.0324,-0.0521 -0.0748,-0.0903 -0.14282,-0.12891 -0.14725,-0.086 -0.43094,-0.13984 -0.7413,-0.13984 -0.006,0 -0.0155,0 -0.0219,0 h -0.009 c -0.60992,0 -1.31903,0.17501 -1.43304,0.20919 -0.004,10e-4 -0.004,10e-4 -0.004,10e-4 -0.0438,0.0133 -0.0903,0.0195 -0.13636,0.0195 -0.22016,0 -0.41602,-0.14777 -0.47657,-0.35956 -0.0374,-0.1274 -0.021,-0.26128 0.0425,-0.3773 0.0636,-0.11584 0.1701,-0.19939 0.29749,-0.23604 9.9e-4,0 0.007,-0.002 0.0187,-0.004 0.26918,-0.0733 0.97388,-0.24199 1.70323,-0.24449 0.37142,0.001 0.67053,0.0425 0.94165,0.13243 0.25301,0.0827 0.59953,0.25782 0.81526,0.61782 0.12795,0.21174 0.19532,0.4706 0.19435,0.74781 -0.006,0.63916 -0.30645,1.37152 -0.96997,2.37515 -0.43588,0.65455 -0.96636,1.22283 -1.57632,1.68947 -0.48944,0.37436 -1.0279,0.68231 -1.6006,0.91585 -0.92579,0.37733 -1.63842,0.44328 -1.77173,0.45269 h -0.002 c -0.008,4.7e-4 -0.0195,10e-4 -0.0276,10e-4 z"
       id="path6-6-9"
       style="color:#eff0f1;fill:#434c5e;fill-opacity:1;stroke-width:0.0495865"
       class="ColorScheme-Text" />
    <path
       d="m 424.98452,522.22781 h -10.41308 c -0.27338,0 -0.49589,-0.22261 -0.49589,-0.49589 0,-0.27328 0.22251,-0.4959 0.49589,-0.4959 h 9.50411 v -1.48768 h -17.02494 v 1.48768 h 2.56199 c 0.27328,0 0.49589,0.22262 0.49589,0.4959 0,0.27328 -0.22261,0.49589 -0.49589,0.49589 h -3.47096 c -0.13043,0 -0.25838,-0.0534 -0.35056,-0.14543 -0.0928,-0.0928 -0.14534,-0.22013 -0.14534,-0.35046 v -2.47937 c 0,-0.13044 0.0534,-0.67133 0.14534,-0.76371 0.0928,-0.0928 0.22013,-0.14537 0.35056,-0.14537 h 18.84288 c 0.13053,0 0.25848,0.0536 0.35062,0.14537 0.0928,0.0928 0.14526,0.63327 0.14526,0.76371 v 2.47937 c 0,0.13033 -0.0534,0.25827 -0.14526,0.35046 -0.0927,0.0928 -0.2201,0.14543 -0.35062,0.14543 z m -12.89255,0 c -0.27378,0 -0.49589,-0.22261 -0.49589,-0.49589 0,-0.27328 0.22211,-0.4959 0.49589,-0.4959 0.27328,0 0.49589,0.22262 0.49589,0.4959 0,0.27328 -0.22261,0.49589 -0.49589,0.49589 z"
       id="path10-7-3"
       style="color:#eff0f1;fill:#434c5e;fill-opacity:1;stroke-width:0.0495865"
       sodipodi:nodetypes="ssssccccsssssssssscsscssssss"
       class="ColorScheme-Text" />
    <path
       d="m 414.57143,519.74834 c -0.27337,0 -0.49588,-0.22251 -0.49588,-0.49579 v -0.99179 c 0,-0.39705 0.15456,-0.77096 0.43588,-1.05159 0.28053,-0.28083 0.65404,-0.4359 1.05169,-0.4359 h 5.95043 c 0.27258,-5.9e-4 0.4954,-0.22321 0.49589,-0.49589 -5e-4,-0.27278 -0.22333,-0.4954 -0.49589,-0.49579 h -9.42159 c -0.39724,0 -0.77096,-0.15487 -1.05178,-0.4359 -0.28103,-0.28083 -0.43579,-0.65404 -0.43579,-1.05179 0,-0.27327 0.22271,-0.49589 0.49579,-0.49589 0.27337,0 0.4959,0.22262 0.4959,0.49589 4.9e-4,0.27269 0.22321,0.4954 0.49588,0.4959 h 9.42159 c 0.39765,0 0.77096,0.15457 1.05169,0.43589 0.28112,0.28053 0.43589,0.65444 0.43589,1.05169 0,0.39775 -0.15477,0.77096 -0.43589,1.05179 -0.28073,0.28102 -0.65404,0.43569 -1.05169,0.43569 h -5.95043 c -0.27287,6e-4 -0.4954,0.22322 -0.4959,0.4959 v 0.99179 c 0,0.27328 -0.22271,0.49579 -0.49579,0.49579 z"
       id="path14-5-9"
       style="color:#eff0f1;fill:#434c5e;fill-opacity:1;stroke-width:0.0495865"
       class="ColorScheme-Text" />
    <path
       d="m 417.08944,533.63268 h -3.01351 c -0.0366,0 -0.0636,-0.002 -0.0997,-0.008 -1.12609,-0.23104 -2.20698,-0.6986 -3.21258,-1.38936 -0.97551,-0.6705 -1.75034,-1.38294 -2.49856,-2.40633 -0.22098,-0.3266 -0.0553,-0.71827 0.17819,-0.90588 0.0847,-0.062 0.26488,-0.14357 0.45215,-0.19504 0.1888,-0.0526 0.47271,0.0767 0.56608,0.20328 1.36958,1.87293 2.70637,2.88422 4.6656,3.29831 h 2.91109 c 1.95772,-0.41447 3.37347,-1.26529 4.73563,-3.1451 1.38547,-1.91108 2.19912,-4.34582 2.29179,-6.8549 h -17.01499 c 0.0332,0.86677 0.16046,1.72908 0.36122,2.56308 0.007,0.039 0.0142,0.0787 0.0142,0.11811 -0.0775,0.26346 -0.31738,0.4058 -0.5404,0.45941 -0.0386,0.007 -0.16469,0.0352 -0.20343,0.0352 -0.23008,0 -0.59355,-0.15621 -0.64759,-0.37984 -0.22301,-0.92778 -0.35096,-1.88632 -0.38119,-2.84881 -0.004,-0.16808 -0.006,-0.30888 -0.006,-0.44225 0,-0.13042 0.0535,-0.25835 0.14531,-0.35059 0.0928,-0.0928 0.22012,-0.14531 0.3505,-0.14531 h 18.84299 c 0.13047,0 0.25839,0.0534 0.35057,0.14529 0.0928,0.0928 0.1453,0.22019 0.1453,0.35061 0,0.13431 -0.002,0.27517 -0.006,0.44225 -0.0425,1.39147 -0.28615,2.75404 -0.72248,4.04876 -0.42296,1.25459 -1.01506,2.41238 -1.76032,3.44181 -0.74481,1.02795 -1.61609,1.89025 -2.58947,2.56316 -1.00415,0.69418 -2.08464,1.16328 -3.21169,1.39486 -0.0359,0.006 -0.0632,0.008 -0.0997,0.008 z m -9.76927,-5.88845 c -0.1943,0 -0.37122,-0.11412 -0.45169,-0.29046 v -4.9e-4 c -0.056,-0.12055 -0.0596,-0.2554 -0.0133,-0.37898 0.0463,-0.12398 0.13835,-0.22252 0.25927,-0.27769 0.0644,-0.0284 0.13387,-0.0433 0.20489,-0.0433 0.19384,0 0.37139,0.11415 0.4517,0.29058 v 4.9e-4 c 0.11325,0.24893 0.002,0.54293 -0.24646,0.65599 -0.0641,0.0299 -0.13385,0.0438 -0.20482,0.0438 z"
       id="path22-3-0"
       style="color:#eff0f1;fill:#434c5e;fill-opacity:1;stroke-width:0.0495865"
       sodipodi:nodetypes="ssccccscccccccccsccsssscscccccssccccscccs"
       class="ColorScheme-Text" />
    <path
       d="m 423.74497,524.70718 h -10.90918 c -0.27328,0 -0.49588,-0.22281 -0.49588,-0.49589 0,-0.27328 0.2226,-0.4959 0.49588,-0.4959 h 10.90918 c 0.27308,0 0.4957,0.22262 0.4957,0.4959 0,0.27308 -0.22262,0.49589 -0.4957,0.49589 z"
       id="path26-5-8"
       style="color:#eff0f1;fill:#434c5e;fill-opacity:1;stroke-width:0.0495865"
       class="ColorScheme-Text" />
  </g>
</svg>
