<?xml version="1.0" encoding="UTF-8" standalone="no"?>
<svg
   width="64"
   version="1.1"
   height="64"
   id="svg2"
   inkscape:version="1.2.1 (9c6d41e410, 2022-07-14)"
   sodipodi:docname="folder-build.svg"
   xmlns:inkscape="http://www.inkscape.org/namespaces/inkscape"
   xmlns:sodipodi="http://sodipodi.sourceforge.net/DTD/sodipodi-0.dtd"
   xmlns:xlink="http://www.w3.org/1999/xlink"
   xmlns="http://www.w3.org/2000/svg"
   xmlns:svg="http://www.w3.org/2000/svg"
   xmlns:rdf="http://www.w3.org/1999/02/22-rdf-syntax-ns#"
   xmlns:cc="http://creativecommons.org/ns#"
   xmlns:dc="http://purl.org/dc/elements/1.1/">
  <sodipodi:namedview
     pagecolor="#ffffff"
     bordercolor="#666666"
     borderopacity="1"
     objecttolerance="10"
     gridtolerance="10"
     guidetolerance="10"
     inkscape:pageopacity="0"
     inkscape:pageshadow="2"
     inkscape:window-width="1920"
     inkscape:window-height="1002"
     id="namedview45"
     showgrid="true"
     inkscape:zoom="5.2149125"
     inkscape:cx="32.311185"
     inkscape:cy="45.542471"
     inkscape:window-x="0"
     inkscape:window-y="0"
     inkscape:window-maximized="1"
     inkscape:current-layer="layer1"
     inkscape:document-rotation="0"
     inkscape:showpageshadow="2"
     inkscape:pagecheckerboard="0"
     inkscape:deskcolor="#d1d1d1">
    <inkscape:grid
       type="xygrid"
       id="grid921" />
  </sodipodi:namedview>
  <defs
     id="defs5455">
    <linearGradient
       inkscape:collect="always"
       xlink:href="#linearGradient860"
       id="linearGradient862"
       x1="113.94583"
       y1="366.97165"
       x2="406.08234"
       y2="159.71205"
       gradientUnits="userSpaceOnUse"
       gradientTransform="matrix(0.17799897,0,0,0.17852009,370.28919,468.28582)" />
    <linearGradient
       inkscape:collect="always"
       id="linearGradient860">
      <stop
         style="stop-color:#8fbcbb;stop-opacity:1;"
         offset="0"
         id="stop856" />
      <stop
         style="stop-color:#a3be8c;stop-opacity:1;"
         offset="1"
         id="stop858" />
    </linearGradient>
    <linearGradient
       inkscape:collect="always"
       xlink:href="#linearGradient842"
       id="linearGradient844"
       x1="386.3063"
       y1="539.79773"
       x2="447.95114"
       y2="504.71896"
       gradientUnits="userSpaceOnUse"
       gradientTransform="matrix(0.89220779,0,0,1.0832755,44.905939,-43.952024)" />
    <linearGradient
       inkscape:collect="always"
       id="linearGradient842">
      <stop
         style="stop-color:#5e81ac;stop-opacity:1;"
         offset="0"
         id="stop838" />
      <stop
         style="stop-color:#88c0d0;stop-opacity:1;"
         offset="1"
         id="stop840" />
    </linearGradient>
  </defs>
  <metadata
     id="metadata5458">
    <rdf:RDF>
      <cc:Work
         rdf:about="">
        <dc:format>image/svg+xml</dc:format>
        <dc:type
           rdf:resource="http://purl.org/dc/dcmitype/StillImage" />
      </cc:Work>
    </rdf:RDF>
  </metadata>
  <g
     inkscape:label="Capa 1"
     inkscape:groupmode="layer"
     id="layer1"
     transform="translate(-384.57143,-483.798)">
    <path
       style="fill:url(#linearGradient862);fill-opacity:1;stroke-width:0.165167"
       d="m 416.56885,496.79763 c -0.77296,0 -1.68528,-0.50466 -2.0318,-1.11585 l -1.55431,-2.74667 c -0.34485,-0.61114 -1.25998,-1.10996 -2.03256,-1.1111 l -17.10301,-0.026 c -2.52449,-0.004 -3.2764,0.90502 -3.27574,2.90836 l 2.8e-4,0.84425 v 2.48461 l -2.8e-4,32.7624 c -1e-5,0.89375 2.02423,3 3,3 h 46 c 1,0 3,-2 3,-3 v -31 c 0,-2 -1,-3 -2.95097,-3 z"
       id="path4-3"
       sodipodi:nodetypes="sccsssccscsssss" />
    <path
       style="fill:#434c5e;fill-opacity:1;stroke-width:0.169792"
       d="m 438.57143,509.19766 c 0,1.42999 -0.68236,2.59997 -2.24338,2.59997 h -39.59788 c -1.56099,0 -2.15874,-1.16998 -2.15874,-2.59997 v -7.40003 c 0,-2 1,-3 3,-3 h 38 c 2,0 3,1 3,3 z"
       id="path8-6"
       sodipodi:nodetypes="sssssssss" />
    <path
       style="fill:url(#linearGradient844);fill-opacity:1;stroke-width:0.190958"
       d="m 437.57143,502.79763 h -42 c -4,0 -6,2 -6,6 v 27 c 0,3 2,5 5,5 h 44 c 3,0 5,-2 5,-5 v -27 c 0,-4 -2,-6 -6,-6 z"
       id="path10"
       sodipodi:nodetypes="sssssssss" />
    <path
       style="color:#232629;fill:#434c5e;fill-opacity:1;stroke:none"
       d="m 424.9823,510.798 -0.31054,1.06055 c -0.636,-0.053 -1.27672,0.0171 -1.88672,0.20507 l -0.5293,-0.96875 -1.75586,0.95899 0.5293,0.96875 c -0.489,0.412 -0.89336,0.91256 -1.19336,1.47656 l -1.05664,-0.30859 -0.5625,1.91797 1.06054,0.31054 c -0.053,0.636 0.0151,1.27867 0.20313,1.88867 l -0.96875,0.5293 0.95898,1.75586 0.96875,-0.53125 c 0.412,0.489 0.91452,0.89531 1.47852,1.19531 l -0.31055,1.05664 1.91992,0.5625 0.31055,-1.06054 c 0.636,0.053 1.27672,-0.0171 1.88672,-0.20508 l 0.53125,0.96875 1.75391,-0.95899 -0.5293,-0.96875 c 0.489,-0.41199 0.89336,-0.91256 1.19336,-1.47656 l 1.05664,0.3086 0.5625,-1.91797 -1.06055,-0.31055 c 0.053,-0.636 -0.0151,-1.27867 -0.20312,-1.88867 l 0.96875,-0.5293 -0.95899,-1.75586 -0.96875,0.53125 c -0.412,-0.489 -0.91451,-0.89531 -1.47851,-1.19531 l 0.31054,-1.05664 z m -0.98828,2.04883 c 0.19847,-0.0129 0.39873,-0.0109 0.59766,0.006 0.26523,0.0223 0.52981,0.0705 0.78906,0.14648 0.998,0.293 1.84347,0.96314 2.35547,1.86914 0.532,0.94 0.66142,2.05675 0.35742,3.09375 -0.293,0.998 -0.96314,1.84347 -1.86914,2.35547 -0.94,0.532 -2.05675,0.66142 -3.09375,0.35742 -0.998,-0.293 -1.84542,-0.96314 -2.35742,-1.86914 -0.532,-0.94 -0.66142,-2.05675 -0.35742,-3.09375 0.293,-0.998 0.96314,-1.84347 1.86914,-2.35547 0.52875,-0.29925 1.11358,-0.47098 1.70898,-0.50976 z m -13.33007,2.92187 -1.99024,0.19531 0.10742,1.09961 c -0.61,0.188 -1.17783,0.49058 -1.67383,0.89258 l -0.85546,-0.70117 -1.26954,1.54492 0.85352,0.70117 c -0.3,0.565 -0.48669,1.18236 -0.55469,1.81836 l -1.0957,0.10743 0.19531,1.99023 1.09961,-0.10742 c 0.188,0.61 0.49058,1.17783 0.89258,1.67383 l -0.70117,0.85546 1.54492,1.26954 0.70117,-0.85352 c 0.565,0.3 1.18236,0.48669 1.81836,0.55469 l 0.10742,1.0957 1.99024,-0.19531 -0.10742,-1.09961 c 0.61,-0.188 1.17782,-0.49058 1.67382,-0.89258 l 0.85547,0.70117 1.26953,-1.54492 -0.85351,-0.70117 c 0.3,-0.565 0.48669,-1.18236 0.55468,-1.81836 l 1.09571,-0.10742 -0.19532,-1.99024 -1.0996,0.10743 c -0.188,-0.61 -0.49058,-1.17783 -0.89258,-1.67383 l 0.70117,-0.85547 -1.54492,-1.26953 -0.70117,0.85351 c -0.565,-0.3 -1.18236,-0.48668 -1.81836,-0.55468 z m -0.0273,2.08594 c 0.76603,0.0737 1.50082,0.36872 2.11132,0.85547 0.845,0.674 1.38133,1.66033 1.48633,2.73633 0.102,1.036 -0.20451,2.07076 -0.85351,2.88476 -0.674,0.845 -1.66228,1.38133 -2.73828,1.48633 -1.036,0.102 -2.06882,-0.20452 -2.88282,-0.85352 -0.845,-0.674 -1.38133,-1.66228 -1.48633,-2.73828 -0.102,-1.036 0.20452,-2.06881 0.85352,-2.88281 0.674,-0.845 1.66033,-1.38133 2.73633,-1.48633 0.259,-0.0256 0.51809,-0.0265 0.77344,-0.002 z m 8.61718,3.98242 v 1.10547 c -0.626,0.128 -1.22091,0.37456 -1.75391,0.72656 l -0.78125,-0.78125 -1.41406,1.41407 0.78125,0.78125 c -0.353,0.533 -0.60147,1.1279 -0.73047,1.7539 h -1.10156 v 2 h 1.10547 c 0.128,0.626 0.37456,1.22091 0.72656,1.75391 l -0.78125,0.78125 1.41406,1.41406 0.78125,-0.78125 c 0.533,0.353 1.12791,0.60147 1.75391,0.73047 v 1.10156 h 2 v -1.10547 c 0.626,-0.128 1.2209,-0.37456 1.7539,-0.72656 l 0.78125,0.78125 1.41407,-1.41406 -0.78125,-0.78125 c 0.353,-0.533 0.60146,-1.12791 0.73046,-1.75391 h 1.10157 v -2 h -1.10547 c -0.128,-0.626 -0.37456,-1.2209 -0.72656,-1.7539 l 0.78125,-0.78125 -1.41407,-1.41407 -0.78125,0.78125 c -0.533,-0.353 -1.1279,-0.60147 -1.7539,-0.73047 v -1.10156 z m 1,2 c 1.041,0 2.04011,0.40586 2.78711,1.13086 0.775,0.753 1.21289,1.78814 1.21289,2.86914 0,1.041 -0.40586,2.04011 -1.13086,2.78711 -0.753,0.775 -1.78814,1.21289 -2.86914,1.21289 -1.041,0 -2.04011,-0.40586 -2.78711,-1.13086 -0.775,-0.753 -1.21289,-1.78814 -1.21289,-2.86914 0,-1.041 0.40586,-2.04011 1.13086,-2.78711 0.753,-0.775 1.78814,-1.21289 2.86914,-1.21289 z"
       class="ColorScheme-Text"
       id="path1935-0" />
  </g>
</svg>
