<?xml version="1.0" encoding="UTF-8" standalone="no"?>
<svg
   height="64"
   viewBox="0 0 64 64"
   width="64"
   version="1.1"
   id="svg25"
   sodipodi:docname="anydesk.svg"
   inkscape:version="1.2.1 (9c6d41e410, 2022-07-14)"
   xmlns:inkscape="http://www.inkscape.org/namespaces/inkscape"
   xmlns:sodipodi="http://sodipodi.sourceforge.net/DTD/sodipodi-0.dtd"
   xmlns="http://www.w3.org/2000/svg"
   xmlns:svg="http://www.w3.org/2000/svg">
  <defs
     id="defs29" />
  <sodipodi:namedview
     id="namedview27"
     pagecolor="#ffffff"
     bordercolor="#666666"
     borderopacity="1.0"
     inkscape:showpageshadow="2"
     inkscape:pageopacity="0.0"
     inkscape:pagecheckerboard="0"
     inkscape:deskcolor="#d1d1d1"
     showgrid="true"
     inkscape:zoom="13.906433"
     inkscape:cx="26.786164"
     inkscape:cy="48.790368"
     inkscape:window-width="1920"
     inkscape:window-height="1002"
     inkscape:window-x="0"
     inkscape:window-y="0"
     inkscape:window-maximized="1"
     inkscape:current-layer="svg25">
    <inkscape:grid
       type="xygrid"
       id="grid258" />
  </sodipodi:namedview>
  <linearGradient
     id="a"
     gradientUnits="userSpaceOnUse"
     x1="4"
     x2="4"
     y1="44"
     y2="4"
     gradientTransform="matrix(1.425,0,0,1.425,-2.2,-2.2000001)">
    <stop
       offset="0"
       stop-color="#be1111"
       id="stop2" />
    <stop
       offset="1"
       stop-color="#e74c3c"
       id="stop4" />
  </linearGradient>
  <linearGradient
     id="b"
     gradientUnits="userSpaceOnUse"
     x1="9"
     x2="64"
     y1="13"
     y2="68"
     gradientTransform="matrix(1.425,0,0,1.425,-2.2,-2.2000001)">
    <stop
       offset="0"
       stop-color="#fcfcfc"
       id="stop7" />
    <stop
       offset="1"
       stop-color="#e74c3c"
       id="stop9" />
  </linearGradient>
  <linearGradient
     id="c"
     gradientUnits="userSpaceOnUse"
     x1="20"
     x2="40"
     y1="24"
     y2="44"
     gradientTransform="matrix(1.425,0,0,1.425,-2.2,-2.2000001)">
    <stop
       offset="0"
       id="stop12" />
    <stop
       offset="1"
       stop-opacity="0"
       id="stop14" />
  </linearGradient>
  <rect
     fill="url(#a)"
     height="57"
     ry="8.5"
     width="57"
     x="3.5000005"
     y="3.5"
     id="rect17"
     style="fill:url(#a);stroke-width:1.425"
     rx="10.5" />
  <path
     d="M 26.3,47.675 39.125,60.5 H 60.5 V 39.125 L 53.375,32 44.825,34.85 41.975,32 Z"
     fill="url(#c)"
     opacity="0.2"
     id="path19"
     style="fill:url(#c);stroke-width:1.425" />
  <path
     d="M 26.3,16.325 10.625,32 26.3,47.675 41.975,32 Z m 11.4,0 -2.85,2.85 L 47.675,32 34.85,44.825 37.7,47.675 53.375,32 Z"
     fill="url(#b)"
     id="path21"
     style="fill:url(#b);stroke-width:1.425" />
  <path
     d="m 3.5,51.766309 v 1.425 C 3.5,57.23977 6.7602297,60.5 10.808691,60.5 H 53.191309 C 57.23977,60.5 60.5,57.23977 60.5,53.191309 v -1.425 C 60.5,55.81477 57.23977,59.075 53.191309,59.075 H 10.808691 C 6.7602297,59.075 3.5,55.81477 3.5,51.766309 Z"
     fill="#8e0d0d"
     id="path23"
     style="stroke-width:1.425" />
</svg>
