<?xml version="1.0" encoding="UTF-8" standalone="no"?>
<svg
   width="64"
   height="64"
   version="1.1"
   viewBox="0 0 16.933 16.933"
   id="svg103"
   xml:space="preserve"
   sodipodi:docname="firefox.svg"
   inkscape:version="1.2.1 (9c6d41e410, 2022-07-14)"
   xmlns:inkscape="http://www.inkscape.org/namespaces/inkscape"
   xmlns:sodipodi="http://sodipodi.sourceforge.net/DTD/sodipodi-0.dtd"
   xmlns:xlink="http://www.w3.org/1999/xlink"
   xmlns="http://www.w3.org/2000/svg"
   xmlns:svg="http://www.w3.org/2000/svg"><sodipodi:namedview
     id="namedview388"
     pagecolor="#ffffff"
     bordercolor="#666666"
     borderopacity="1.0"
     inkscape:showpageshadow="2"
     inkscape:pageopacity="0.0"
     inkscape:pagecheckerboard="0"
     inkscape:deskcolor="#d1d1d1"
     showgrid="false"
     inkscape:zoom="3.6875"
     inkscape:cx="32.135593"
     inkscape:cy="32.135593"
     inkscape:window-width="1920"
     inkscape:window-height="1002"
     inkscape:window-x="0"
     inkscape:window-y="0"
     inkscape:window-maximized="1"
     inkscape:current-layer="svg103" /><defs
     id="defs59"><linearGradient
       inkscape:collect="always"
       id="linearGradient1035"><stop
         style="stop-color:#88c0d0;stop-opacity:1;"
         offset="0"
         id="stop1031" /><stop
         style="stop-color:#5e81ac;stop-opacity:1;"
         offset="1"
         id="stop1033" /></linearGradient><radialGradient
       id="radialGradient19316"
       cx="26.376"
       cy="-16.036"
       r="4.6995"
       gradientTransform="matrix(0.59756394,0.00739699,-0.00846866,0.68415755,-7.5709337,20.473142)"
       gradientUnits="userSpaceOnUse"><stop
         stop-color="#5e81ac"
         offset="0"
         id="stop2" /><stop
         stop-color="#b48ead"
         offset="1"
         id="stop4" /></radialGradient><filter
       id="filter21906"
       x="-0.11641117"
       y="-0.2726158"
       width="1.2328223"
       height="1.5452316"
       color-interpolation-filters="sRGB"><feGaussianBlur
         stdDeviation="0.37244598"
         id="feGaussianBlur7" /></filter><linearGradient
       id="linearGradient21964"
       x1="-12.281"
       x2="-11.751"
       y1="-16.241"
       y2="-12.378"
       gradientUnits="userSpaceOnUse"><stop
         stop-color="#2e3440"
         offset="0"
         id="stop10" /><stop
         stop-color="#2e3440"
         offset="1"
         id="stop12" /></linearGradient><linearGradient
       id="linearGradient22615"
       x1="-8.818"
       x2="-8.818"
       y1="-25.649"
       y2="-13.994"
       gradientTransform="matrix(0.6421,0,0,0.6421,15.897629,19.200371)"
       gradientUnits="userSpaceOnUse"><stop
         stop-color="#ebcb8b"
         offset="0"
         id="stop15" /><stop
         stop-color="#d08770"
         offset=".88322"
         id="stop17" /><stop
         stop-color="#bf616a"
         offset="1"
         id="stop19" /></linearGradient><linearGradient
       id="linearGradient23225"
       x1="-15.014"
       x2="-15.014"
       y1="-19.093"
       y2="-12.175"
       gradientTransform="matrix(0.6421,0,0,0.6421,15.958371,19.17)"
       gradientUnits="userSpaceOnUse"><stop
         stop-color="#ebcb8b"
         offset="0"
         id="stop22" /><stop
         stop-color="#d08770"
         offset=".61927"
         id="stop24" /><stop
         stop-color="#bf616a"
         offset="1"
         id="stop26" /></linearGradient><linearGradient
       id="linearGradient23601"
       x1="-13.294"
       x2="-18.47"
       y1="-22.432"
       y2="-10.43"
       gradientTransform="matrix(0.6421,0,0,0.6421,15.867259,19.230741)"
       gradientUnits="userSpaceOnUse"><stop
         stop-color="#ebcb8b"
         offset="0"
         id="stop29" /><stop
         stop-color="#d08770"
         offset=".57416"
         id="stop31" /><stop
         stop-color="#bf616a"
         offset="1"
         id="stop33" /></linearGradient><linearGradient
       id="linearGradient25781"
       x1="-4.4322"
       x2="1.0518"
       y1="-4.8941"
       y2="-10.115"
       gradientTransform="matrix(0.6421,0,0,0.6421,13.974282,13.280145)"
       gradientUnits="userSpaceOnUse"><stop
         stop-color="#bf616a"
         offset="0"
         id="stop36" /><stop
         stop-color="#dfae82"
         offset=".73456"
         id="stop38" /><stop
         stop-color="#ebcb8b"
         offset="1"
         id="stop40" /></linearGradient><linearGradient
       id="linearGradient26477"
       x1="-14.483"
       x2="-15.613"
       y1="-22.341"
       y2="-20.384"
       gradientTransform="matrix(0.6421,0,0,0.6421,15.928,19.261114)"
       gradientUnits="userSpaceOnUse"><stop
         stop-color="#ebcb8b"
         offset="0"
         id="stop43" /><stop
         stop-color="#d08770"
         offset="1"
         id="stop45" /></linearGradient><filter
       id="filter1178"
       x="-0.047999482"
       y="-0.047999482"
       width="1.095999"
       height="1.095999"
       color-interpolation-filters="sRGB"><feGaussianBlur
         stdDeviation="0.30691668"
         id="feGaussianBlur48" /></filter><linearGradient
       id="linearGradient1340"
       x1="8.6644"
       x2="8.6644"
       y1="15.931"
       y2=".79375"
       gradientTransform="translate(-0.0076499,-0.0030174)"
       gradientUnits="userSpaceOnUse"><stop
         stop-color="#b48ead"
         offset="0"
         id="stop51" /><stop
         stop-color="#b48ead"
         stop-opacity=".5"
         offset="1"
         id="stop53" /></linearGradient><filter
       id="filter937"
       x="-0.21162183"
       y="-0.20213471"
       width="1.4232437"
       height="1.4042694"
       color-interpolation-filters="sRGB"><feGaussianBlur
         stdDeviation="0.19753134"
         id="feGaussianBlur56" /></filter><filter
       id="filter1178-3"
       x="-0.047999482"
       y="-0.047999482"
       width="1.095999"
       height="1.095999"
       color-interpolation-filters="sRGB"><feGaussianBlur
         stdDeviation="0.30691668"
         id="feGaussianBlur3220" /></filter><linearGradient
       id="linearGradient1340-5"
       x1="8.355"
       x2="8.3996"
       y1="16.007"
       y2=".79375"
       gradientUnits="userSpaceOnUse"
       gradientTransform="translate(-0.00764989,-0.08635898)"><stop
         stop-color="#d8dee9"
         offset="0"
         id="stop3223"
         style="stop-color:#88c0d0;stop-opacity:1;" /><stop
         stop-color="#eceff4"
         offset="1"
         id="stop3225"
         style="stop-color:#aabfd5;stop-opacity:1;" /></linearGradient><linearGradient
       inkscape:collect="always"
       xlink:href="#linearGradient1035"
       id="linearGradient1037"
       x1="8.45889"
       y1="15.920681"
       x2="8.4591055"
       y2="0.93074125"
       gradientUnits="userSpaceOnUse" /></defs><rect
     transform="matrix(0.99138,0,0,1,0.06533911,-0.08635873)"
     x="0.79374999"
     y="1.0171"
     width="15.346"
     height="15.346"
     rx="3.0525999"
     ry="3.0525999"
     fill="#2e3440"
     filter="url(#filter1178)"
     opacity="0.2"
     stroke-width="1.2489"
     style="mix-blend-mode:normal;stroke-linecap:round;stroke-linejoin:round;filter:url(#filter1178-3)"
     id="rect3230" /><rect
     x="0.9183901"
     y="0.83968103"
     width="15.081"
     height="15.081"
     rx="3"
     ry="3"
     stroke-width="1.2274"
     id="rect3232"
     style="fill:url(#linearGradient1037);stroke-linecap:round;stroke-linejoin:round;fill-opacity:1" /><rect
     x="0.0045001097"
     y="-0.080341578"
     width="16.924"
     height="16.927"
     fill="none"
     opacity="0.15"
     stroke-width="1.052"
     id="rect3234"
     style="stroke-linecap:round;stroke-linejoin:round" /><path
     d="m -16.589,-20.495 c 0.64919,-0.93623 2.1057,-1.7036 2.1057,-1.7036 0,0 -0.31938,1.4686 0.13448,2.3224 -0.13099,0.11012 -0.86431,-0.20984 -1.0202,-0.24881 -0.43228,-0.10807 -0.95799,-0.06267 -1.22,-0.36999 z"
     id="path71"
     transform="matrix(0.6421,0,0,0.6421,16.023,19.312)"
     style="opacity:0.25;mix-blend-mode:normal;fill:#2e3440;filter:url(#filter937)" /><path
     d="m -11.889,-20.779 c 0.11961,-2.0136 1.542,-4.0155 3.0237,-4.8236 0.16485,0.84202 1.4188,2.2938 1.4188,2.2938 1.1437,1.2458 2.3258,2.673 2.9362,4.0693 0.42845,2.5437 -1.3381,4.5695 -2.2105,5.2988 0.74943,-1.5988 0.05154,-3.8529 -1.1019,-4.6575 -0.23343,-0.15044 -0.88142,-2.1642 -4.0663,-2.1808"
     id="path73"
     transform="matrix(0.6421,0,0,0.6421,16.023,19.312)"
     style="opacity:0.25;mix-blend-mode:normal;fill:#2e3440;filter:url(#filter937)" /><ellipse
     cx="-11.6"
     cy="-15.725"
     rx="4.6995001"
     ry="5.1213002"
     id="ellipse75"
     transform="matrix(0.6421,0,0,0.6421,16.023,19.312)"
     style="opacity:0.25;mix-blend-mode:normal;fill:#2e3440;filter:url(#filter937)" /><path
     transform="matrix(0.58897907,0.25946619,-0.18760878,0.45397112,12.376193,20.164773)"
     d="m -15.361,-15.751 c 0,0 2.185,1.771 3.4934,1.7909 1.3915,0.02113 3.7713,-1.7909 3.7713,-1.7909 0.87886,0.59251 -0.73183,2.3786 -1.7297,2.8981 -1.2145,0.6322 -2.9433,0.43913 -4.0966,-0.29867 -0.8342,-0.53363 -2.0356,-1.8096 -1.4383,-2.5994 z"
     filter="url(#filter21906)"
     opacity="0.0375"
     style="mix-blend-mode:normal;fill:#2e3440"
     id="path77" /><path
     d="m -9.733,-19.081 c 3.2698,-0.44985 4.4196,4.1665 2.4822,5.9641 -4.1039,2.206 -9.9104,0.90757 -10.915,-3.4669 -0.12355,-0.61775 -0.21063,-1.5166 0.22768,-1.9549 0.59962,-0.5996 5.6073,0.29218 6.453,0.44867 0,0 -0.02035,0.53364 -0.95347,0.97591 0,0 -1.2942,0.10819 -1.6754,0.28254 -0.94428,0.43194 -1.2122,1.1398 -1.2122,1.1398 0.14168,2.067 1.9722,3.423 4.1431,3.242 3.5736,-0.29788 4.4578,-4.9119 1.4496,-6.6313 z"
     id="path79"
     transform="matrix(0.6421,0,0,0.6421,16.023,19.312)"
     style="opacity:0.25;mix-blend-mode:normal;fill:#2e3440;filter:url(#filter937)" /><path
     d="m -16.048,-16.718 c -1.1085,0.04556 -2.0494,-1.2023 -2.0494,-1.2023 0,0 0.20179,-0.36153 1.3941,-0.55738 1.5598,-0.25622 2.5964,1.3249 5.056,0.47749 0.15764,-0.06484 -1.8156,-0.76077 -2.4928,-1.633 -0.68226,-0.8788 -2.5433,-0.90935 -2.5433,-0.90935 -0.51574,-1.0522 -0.2434,-2.117 -0.2434,-2.117 -2.342,1.2793 -3.8678,4.3892 -3.1042,8.195 0.42247,2.1054 1.7832,4.1364 4.0959,5.578 6.1907,3.2441 11.791,-0.92314 12.69,-5.7182 1.0992,-4.7905 -2.1488,-7.1609 -2.1488,-7.1609 2.0804,3.8125 0.37906,7.7422 -3.9377,9.2042 -4.6345,1.0561 -6.8234,-1.664 -6.7164,-4.1567 z"
     id="path81"
     transform="matrix(0.6421,0,0,0.6421,16.023,19.312)"
     style="opacity:0.25;mix-blend-mode:normal;fill:#2e3440;filter:url(#filter937)" /><path
     d="m -5.3941,-21.86 c 4.3409,8.9056 -2.91,13.696 -8.4638,12.416 -5.2761,-1.8227 -5.7478,-4.7771 -6.3874,-7.0311 0.15397,6.0598 5.2985,8.9196 9.1665,8.6326 7.5825,-0.5627 10.609,-9.9799 5.6848,-14.018 z"
     id="path83"
     transform="matrix(0.6421,0,0,0.6421,16.023,19.312)"
     style="opacity:0.25;mix-blend-mode:normal;fill:#2e3440;filter:url(#filter937)" /><path
     d="m 5.2762031,6.0101605 c 0.4168449,-0.6011533 1.35207,-1.0938816 1.35207,-1.0938816 0,0 -0.2050739,0.9429881 0.08635,1.4912131 C 6.630514,6.4782 6.1596492,6.2727537 6.0595523,6.2477311 5.7819853,6.1783393 5.4444269,6.2074907 5.2761903,6.0101605 Z"
     fill="url(#linearGradient26477)"
     id="path87"
     style="fill:url(#linearGradient26477);stroke-width:0.6421" /><path
     d="m 8.2940731,5.8278041 c 0.076802,-1.2929326 0.9901182,-2.5783525 1.9415179,-3.0972336 0.10585,0.5406611 0.911011,1.472849 0.911011,1.472849 0.73437,0.7999282 1.493397,1.7163333 1.885334,2.6128976 0.275108,1.6333097 -0.859194,2.9340759 -1.419362,3.4023599 0.481209,-1.0265899 0.03309,-2.4739476 -0.70753,-2.9905812 C 10.755159,7.1314983 10.339085,5.838463 8.2940731,5.8278041"
     fill="url(#linearGradient22615)"
     id="path89"
     style="fill:url(#linearGradient22615);stroke-width:0.6421" /><ellipse
     cx="8.47964"
     cy="9.0729771"
     rx="3.017549"
     ry="3.2883868"
     fill="url(#radialGradient19316)"
     id="ellipse91"
     style="fill:url(#radialGradient19316);stroke-width:0.6421" /><path
     transform="matrix(0.58897907,0.25946619,-0.18760878,0.45397112,12.281193,20.022773)"
     d="m -15.361,-15.751 c 0,0 2.185,1.771 3.4934,1.7909 1.3915,0.02113 3.7713,-1.7909 3.7713,-1.7909 0.87886,0.59251 -0.73183,2.3786 -1.7297,2.8981 -1.2145,0.6322 -2.9433,0.43913 -4.0966,-0.29867 -0.8342,-0.53363 -2.0356,-1.8096 -1.4383,-2.5994 z"
     fill="url(#linearGradient21964)"
     filter="url(#filter21906)"
     opacity="0.15"
     style="mix-blend-mode:normal;fill:url(#linearGradient21964)"
     id="path93" /><path
     d="M 9.6784407,6.9180899 C 11.777979,6.6292412 12.516266,9.5933996 11.272261,10.747639 8.6371471,12.164111 4.9087935,11.330389 4.2637398,8.521542 4.1844084,8.1248847 4.1284943,7.5477332 4.4099331,7.2663007 c 0.3850161,-0.3850031 3.6004474,0.1876088 4.1434713,0.288091 0,0 -0.013067,0.3426503 -0.612223,0.6266318 0,0 -0.8310059,0.069469 -1.0757744,0.181419 C 6.2590848,8.6397912 6.0870534,9.0943081 6.0870534,9.0943081 6.1780261,10.421529 7.353403,11.292216 8.7473379,11.175996 11.041946,10.984728 11.609691,8.0220653 9.6781261,6.9180385 Z"
     fill="url(#linearGradient23225)"
     id="path95"
     style="fill:url(#linearGradient23225);stroke-width:0.6421" /><path
     d="M 5.6235792,8.4353722 C 4.9118114,8.4646263 4.3076595,7.6633754 4.3076595,7.6633754 c 0,0 0.1295693,-0.2321384 0.8951516,-0.3578937 C 6.2043587,7.1409628 6.8699595,8.1562 8.4492687,7.612078 8.5504893,7.5704442 7.2834719,7.1235876 6.8486418,6.5635287 6.4105626,5.9992512 5.2155889,5.9796351 5.2155889,5.9796351 4.8844322,5.3040174 5.0593017,4.6203094 5.0593017,4.6203094 3.5555035,5.4417479 2.5757873,7.4386147 3.0660949,9.8823189 3.3373629,11.234196 4.2110876,12.538301 5.6960723,13.463953 9.6711208,15.546989 13.267073,12.871204 13.844321,9.7922964 14.550118,6.7163164 12.464577,5.1942826 12.464577,5.1942826 13.800402,7.6422888 12.707971,10.165549 9.9361796,11.104299 6.9603672,11.782421 5.5548745,10.035845 5.6235792,8.4352823 Z"
     fill="url(#linearGradient23601)"
     id="path97"
     style="fill:url(#linearGradient23601);stroke-width:0.6421" /><path
     d="M 12.464448,5.133694 C 15.25174,10.85198 10.595937,13.927896 7.0298424,13.106008 3.6420586,11.935652 3.33918,10.038632 2.9284929,8.5913383 3.027357,12.482336 6.3312376,14.388474 8.8148804,14.204191 13.707939,13.81671 15.626277,7.7260443 12.464513,5.1332445 Z"
     fill="url(#linearGradient25781)"
     id="path99"
     style="fill:url(#linearGradient25781);stroke-width:0.6421" /></svg>
