<?xml version="1.0" encoding="UTF-8" standalone="no"?>
<!-- Created with Inkscape (http://www.inkscape.org/) -->

<svg
   width="63.965984"
   height="64.607323"
   viewBox="0 0 63.965984 64.607323"
   version="1.1"
   id="SVGRoot"
   sodipodi:docname="mx-menu-editor.svg"
   inkscape:version="1.2.1 (9c6d41e410, 2022-07-14)"
   xmlns:inkscape="http://www.inkscape.org/namespaces/inkscape"
   xmlns:sodipodi="http://sodipodi.sourceforge.net/DTD/sodipodi-0.dtd"
   xmlns="http://www.w3.org/2000/svg"
   xmlns:svg="http://www.w3.org/2000/svg">
  <sodipodi:namedview
     id="namedview263"
     pagecolor="#ffffff"
     bordercolor="#666666"
     borderopacity="1.0"
     inkscape:showpageshadow="2"
     inkscape:pageopacity="0.0"
     inkscape:pagecheckerboard="0"
     inkscape:deskcolor="#d1d1d1"
     inkscape:document-units="px"
     showgrid="true"
     inkscape:zoom="3.3638608"
     inkscape:cx="-56.928634"
     inkscape:cy="64.955125"
     inkscape:window-width="1920"
     inkscape:window-height="1002"
     inkscape:window-x="0"
     inkscape:window-y="0"
     inkscape:window-maximized="1"
     inkscape:current-layer="layer1">
    <inkscape:grid
       type="xygrid"
       id="grid386"
       originx="-95.045921"
       originy="4.9772573" />
  </sodipodi:namedview>
  <defs
     id="defs258">
    <filter
       id="filter1178"
       x="-0.047999482"
       y="-0.047999482"
       width="1.095999"
       height="1.095999"
       color-interpolation-filters="sRGB">
      <feGaussianBlur
         stdDeviation="0.30691668"
         id="feGaussianBlur2" />
    </filter>
    <linearGradient
       id="linearGradient1340"
       x1="8.3549995"
       x2="8.3996"
       y1="16.007"
       y2="0.79374999"
       gradientUnits="userSpaceOnUse"
       gradientTransform="matrix(3.779602,0,0,3.779602,95,-5.0000005)">
      <stop
         stop-color="#d8dee9"
         offset="0"
         id="stop5" />
      <stop
         stop-color="#eceff4"
         offset="1"
         id="stop7" />
    </linearGradient>
    <filter
       id="filter1167"
       x="-0.099531744"
       y="-0.1180439"
       width="1.1990635"
       height="1.2360878"
       color-interpolation-filters="sRGB">
      <feGaussianBlur
         stdDeviation="0.4175311"
         id="feGaussianBlur10" />
    </filter>
  </defs>
  <g
     inkscape:label="Layer 1"
     inkscape:groupmode="layer"
     id="layer1"
     transform="translate(-95.045921,4.9772573)">
    <rect
       transform="matrix(3.7470218,0,0,3.779602,95.275869,-4.9999995)"
       x="0.79374999"
       y="1.0171"
       width="15.346"
       height="15.346"
       rx="3.0525999"
       ry="3.0525999"
       fill="#2e3440"
       filter="url(#filter1178)"
       opacity="0.2"
       stroke-width="1.2489"
       style="mix-blend-mode:normal;stroke-linecap:round;stroke-linejoin:round"
       id="rect15" />
    <rect
       x="98.500061"
       y="-1.4999379"
       width="57.000179"
       height="57.000179"
       rx="11.338806"
       ry="11.338806"
       fill="url(#linearGradient1340)"
       stroke-width="4.63908"
       id="rect17"
       style="fill:url(#linearGradient1340);stroke-linecap:round;stroke-linejoin:round" />
    <rect
       x="95.045921"
       y="-4.9772573"
       width="63.965984"
       height="63.977322"
       fill="none"
       opacity="0.15"
       stroke-width="3.97614"
       id="rect19"
       style="stroke-linecap:round;stroke-linejoin:round" />
    <path
       d="m 4.2897,4.5992 h 8.369 c 0.46727,0 0.8494,0.38222 0.8494,0.8494 0,0.46718 -0.38214,0.84949 -0.8494,0.84949 h -8.369 c -0.46718,0 -0.84949,-0.38222 -0.84949,-0.8494 0,-0.46727 0.3823,-0.84949 0.84949,-0.84949 z m 0,6.7902 h 8.369 c 0.46727,0 0.8494,0.38222 0.8494,0.8494 0,0.46718 -0.38214,0.8494 -0.8494,0.8494 h -8.369 c -0.46718,0 -0.84949,-0.38222 -0.84949,-0.8494 0,-0.46718 0.3823,-0.8494 0.84949,-0.8494 z m 0,-3.3951 h 8.369 c 0.46727,0 0.8494,0.38222 0.8494,0.8494 0,0.46718 -0.38214,0.84949 -0.8494,0.84949 h -8.369 c -0.46718,0 -0.84949,-0.3823 -0.84949,-0.84949 0,-0.46718 0.3823,-0.8494 0.84949,-0.8494 z"
       clip-rule="evenodd"
       fill="#2e3440"
       fill-rule="evenodd"
       filter="url(#filter1167)"
       opacity="0.5"
       stroke-width="0.081934"
       id="path23"
       transform="matrix(3.779602,0,0,3.779602,95,-5.0000005)" />
    <path
       d="m 111.21336,10.968818 h 31.63149 c 1.76609,0 3.21039,1.444639 3.21039,3.210394 0,1.765754 -1.44434,3.210734 -3.21039,3.210734 h -31.63149 c -1.76576,0 -3.21074,-1.444639 -3.21074,-3.210394 0,-1.766095 1.44495,-3.210734 3.21074,-3.210734 z m 0,25.664253 h 31.63149 c 1.76609,0 3.21039,1.44464 3.21039,3.210394 0,1.765755 -1.44434,3.210394 -3.21039,3.210394 h -31.63149 c -1.76576,0 -3.21074,-1.444639 -3.21074,-3.210394 0,-1.765754 1.44495,-3.210394 3.21074,-3.210394 z m 0,-12.832126 h 31.63149 c 1.76609,0 3.21039,1.444639 3.21039,3.210394 0,1.765754 -1.44434,3.210734 -3.21039,3.210734 h -31.63149 c -1.76576,0 -3.21074,-1.444942 -3.21074,-3.210734 0,-1.765755 1.44495,-3.210394 3.21074,-3.210394 z"
       clip-rule="evenodd"
       fill="#2e3440"
       fill-rule="evenodd"
       stroke-width="0.309678"
       id="path25" />
  </g>
</svg>
