<?xml version="1.0" encoding="UTF-8" standalone="no"?>
<!-- Created with Inkscape (http://www.inkscape.org/) -->

<svg
   width="64"
   height="64"
   viewBox="0 0 64 64"
   version="1.1"
   id="SVGRoot"
   sodipodi:docname="org.gnome.files.svg"
   inkscape:version="1.2.1 (9c6d41e410, 2022-07-14)"
   xmlns:inkscape="http://www.inkscape.org/namespaces/inkscape"
   xmlns:sodipodi="http://sodipodi.sourceforge.net/DTD/sodipodi-0.dtd"
   xmlns:xlink="http://www.w3.org/1999/xlink"
   xmlns="http://www.w3.org/2000/svg"
   xmlns:svg="http://www.w3.org/2000/svg">
  <sodipodi:namedview
     id="namedview426"
     pagecolor="#ffffff"
     bordercolor="#666666"
     borderopacity="1.0"
     inkscape:showpageshadow="2"
     inkscape:pageopacity="0.0"
     inkscape:pagecheckerboard="0"
     inkscape:deskcolor="#d1d1d1"
     inkscape:document-units="px"
     showgrid="true"
     inkscape:zoom="3.3638608"
     inkscape:cx="80.413553"
     inkscape:cy="59.306854"
     inkscape:window-width="1920"
     inkscape:window-height="1002"
     inkscape:window-x="0"
     inkscape:window-y="0"
     inkscape:window-maximized="1"
     inkscape:current-layer="layer1">
    <inkscape:grid
       type="xygrid"
       id="grid549"
       originx="70"
       originy="50" />
  </sodipodi:namedview>
  <defs
     id="defs421">
    <linearGradient
       id="linearGradient1340-3"
       x1="8.5010996"
       x2="8.4890003"
       y1="16.007"
       y2="0.79374999"
       gradientUnits="userSpaceOnUse"
       gradientTransform="matrix(3.8579547,0,0,3.8705207,-70.663511,-50.66582)">
      <stop
         stop-color="#2e3440"
         offset="0"
         id="stop5-3-6" />
      <stop
         stop-color="#4c566a"
         offset="1"
         id="stop7-6-7" />
    </linearGradient>
    <linearGradient
       inkscape:collect="always"
       xlink:href="#linearGradient860"
       id="linearGradient862-5"
       x1="113.94583"
       y1="366.97165"
       x2="406.08234"
       y2="159.71205"
       gradientUnits="userSpaceOnUse"
       gradientTransform="matrix(0.1726052,0,0,0.14886288,-82.879722,-57.92458)" />
    <linearGradient
       inkscape:collect="always"
       id="linearGradient860">
      <stop
         style="stop-color:#8fbcbb;stop-opacity:1;"
         offset="0"
         id="stop856" />
      <stop
         style="stop-color:#a3be8c;stop-opacity:1;"
         offset="1"
         id="stop858" />
    </linearGradient>
    <linearGradient
       inkscape:collect="always"
       xlink:href="#linearGradient842"
       id="linearGradient844-6"
       x1="386.3063"
       y1="539.79773"
       x2="447.95114"
       y2="504.71896"
       gradientUnits="userSpaceOnUse"
       gradientTransform="matrix(0.86517112,0,0,0.90331305,-398.4029,-485.0653)" />
    <linearGradient
       inkscape:collect="always"
       id="linearGradient842">
      <stop
         style="stop-color:#5e81ac;stop-opacity:1;"
         offset="0"
         id="stop838" />
      <stop
         style="stop-color:#88c0d0;stop-opacity:1;"
         offset="1"
         id="stop840" />
    </linearGradient>
  </defs>
  <g
     inkscape:label="Layer 1"
     inkscape:groupmode="layer"
     id="layer1"
     transform="translate(70,50)">
    <rect
       x="-70"
       y="-50"
       width="64"
       height="64"
       fill="none"
       opacity="0.15"
       stroke-width="3.97792"
       id="rect19-1"
       style="stroke-linecap:round;stroke-linejoin:round" />
    <rect
       x="-67.090889"
       y="-47.081421"
       width="58.181816"
       height="58.371326"
       rx="11.573864"
       ry="11.611563"
       stroke-width="4.74295"
       id="rect14-2"
       style="fill:url(#linearGradient1340-3);stroke-linecap:round;stroke-linejoin:round" />
    <path
       style="fill:url(#linearGradient862-5);fill-opacity:1;stroke-width:0.148522"
       d="m -38.00256,-35.407161 c -2.906529,0 0.002,-0.035 -1.97014,0 l -1.50723,-1.96304 c -0.334495,-0.50958 -1.221802,-0.92548 -1.971003,-0.92634 l -16.584742,-0.02922 c -2.447965,0 -3.177028,0.754739 -3.17643,2.42504 l 2.34e-4,0.70426 v 2.07188 l -2.34e-4,27.3194584 c -2.3e-5,0.745398 1.96286,2.5015976 2.909046,2.5015976 h 44.60612 c 0.969665,0 2.909047,-1.6675982 2.909047,-2.5015976 V -32.237601 c 0,-1.66768 -1.551565,-3.16956 -3.443384,-3.16956 z"
       id="path4-3-7"
       sodipodi:nodetypes="cccsssccscssssc" />
    <path
       style="fill:#434c5e;fill-opacity:1;stroke-width:0.152682"
       d="m -16.666641,-23.809081 c 0,1.19224 -0.661808,2.16792 -2.175493,2.16792 h -38.397883 c -1.513693,0 -2.093363,-0.97568 -2.093363,-2.16792 v -6.17072 c 0,-1.66768 0.96974,-2.5018 2.90919,-2.5018 h 36.848382 c 1.939404,0 2.909167,0.83412 2.909167,2.5018 z"
       id="path8-6-0"
       sodipodi:nodetypes="sssssssss" />
    <path
       style="fill:url(#linearGradient844-6);fill-opacity:1;stroke-width:0.171715"
       d="M -17.636404,-29.145961 H -58.36364 c -3.878741,0 -5.818168,1.66766 -5.818168,5.0033 v 22.5143579 c 0,2.50180171 1.939427,4.1693999 4.848428,4.1693999 h 42.666739 c 2.909027,0 4.848451,-1.66759819 4.848451,-4.1693999 V -24.142661 c 0,-3.33564 -1.939424,-5.0033 -5.818214,-5.0033 z"
       id="path10-9"
       sodipodi:nodetypes="sssssssss" />
    <path
       d="m -18.833196,-16.012418 c 0.04218,-0.835619 -0.85072,-1.696212 -1.213074,-2.008259 -2.003242,-5.068599 -9.195844,-3.296838 -10.600178,-2.894446 -3.659273,-2.325238 -6.477871,0.151046 -6.503156,0.175744 -0.135809,0.120263 -0.195897,0.308355 -0.155981,0.488087 0.04217,0.175747 0.175423,0.316976 0.352048,0.367184 1.127603,0.322253 1.978126,1.414694 2.33536,1.9432 -2.62729,3.075135 -2.722931,7.458899 -2.697781,8.5868338 -3.276804,2.7128245 -2.239863,5.5064455 -2.189676,5.6270186 0.07026,0.1758271 0.230995,0.3023303 0.422976,0.3170708 0.004,0 0.02767,0 0.04662,0 0.170963,0 0.33705,-0.0926 0.427453,-0.2406473 0.599124,-0.9660511 1.349045,-1.5500639 2.22472,-1.7363038 1.565324,-0.3321136 3.085428,0.6796027 3.100534,0.6894524 0.115588,0.080279 0.26148,0.1109313 0.402961,0.074005 0.135944,-0.036284 0.256782,-0.1264655 0.321787,-0.252931 0.790272,-1.4542812 -0.433141,-3.3065168 -0.886086,-3.9154976 0.578984,-2.4565979 1.998263,-3.8808549 3.110498,-4.6507969 l -0.226247,0.37649 c -0.0703,0.126413 -0.0906,0.271346 -0.04653,0.407639 0.04218,0.141829 0.140185,0.252832 0.272434,0.312055 0.49351,0.215842 1.182819,0.237419 2.058753,0.05548 0.729777,-0.157247 1.434536,-0.533438 2.038547,-1.092165 0.790126,-0.72461 1.671109,-0.780119 1.671109,-0.780119 h 5.003203 c 0.115656,0 0.221371,-0.0401 0.312195,-0.104839 0.427572,-0.337337 0.548356,-0.704882 0.578869,-0.956181 0.04218,-0.333025 -0.06694,-0.614839 -0.160746,-0.796147 z m -3.538467,-0.543616 h -0.276931 c -0.277007,0 -0.50344,-0.225079 -0.50344,-0.503528 0,-0.277513 0.226361,-0.503531 0.50344,-0.503531 h 0.276931 c 0.281694,0 0.503443,0.225083 0.503443,0.503531 0,0.277514 -0.221409,0.503528 -0.503443,0.503528 z"
       id="path49"
       style="fill:#ffffff;fill-opacity:1;stroke-width:0.0494345" />
  </g>
</svg>
