<?xml version="1.0" encoding="UTF-8" standalone="no"?>
<svg
   width="64"
   height="64"
   viewBox="0 0 16.933333 16.933333"
   version="1.1"
   id="svg36"
   sodipodi:docname="org.kde.kongress.svg"
   inkscape:version="1.2.1 (9c6d41e410, 2022-07-14)"
   xmlns:inkscape="http://www.inkscape.org/namespaces/inkscape"
   xmlns:sodipodi="http://sodipodi.sourceforge.net/DTD/sodipodi-0.dtd"
   xmlns="http://www.w3.org/2000/svg"
   xmlns:svg="http://www.w3.org/2000/svg">
  <sodipodi:namedview
     id="namedview38"
     pagecolor="#ffffff"
     bordercolor="#666666"
     borderopacity="1.0"
     inkscape:showpageshadow="2"
     inkscape:pageopacity="0.0"
     inkscape:pagecheckerboard="0"
     inkscape:deskcolor="#d1d1d1"
     showgrid="false"
     inkscape:zoom="4.9166667"
     inkscape:cx="24.101695"
     inkscape:cy="24.101695"
     inkscape:window-width="1920"
     inkscape:window-height="1002"
     inkscape:window-x="0"
     inkscape:window-y="0"
     inkscape:window-maximized="1"
     inkscape:current-layer="svg36" />
  <defs
     id="defs32">
    <linearGradient
       id="linearGradient6454"
       x1="24"
       x2="24"
       y1="294"
       y2="257"
       gradientTransform="matrix(0.37643842,0,0,0.36747559,-0.63899785,-92.113527)"
       gradientUnits="userSpaceOnUse">
      <stop
         stop-color="#2c3e50"
         offset="0"
         id="stop2" />
      <stop
         stop-color="#34495e"
         offset="1"
         id="stop4" />
    </linearGradient>
    <radialGradient
       id="radialGradient6568"
       cx="178.52753"
       cy="17.337982"
       r="16.220705"
       gradientTransform="matrix(-7.5373512e-4,0.75569012,-0.79059364,-7.8855191e-4,17.042445,-128.53691)"
       gradientUnits="userSpaceOnUse">
      <stop
         stop-color="#17222d"
         offset="0"
         id="stop7" />
      <stop
         stop-color="#17222d"
         stop-opacity="0"
         offset="1"
         id="stop9" />
    </radialGradient>
    <linearGradient
       id="linearGradient2162"
       x1="79.999855"
       x2="120"
       y1="152.00008"
       y2="152.00008"
       gradientTransform="matrix(0.09410919,0,0,0.09410929,-1.0153786,-10.049912)"
       gradientUnits="userSpaceOnUse">
      <stop
         stop-color="#deeff8"
         offset="0"
         id="stop12" />
      <stop
         stop-color="#c0e2f4"
         offset="1"
         id="stop14" />
    </linearGradient>
    <linearGradient
       id="linearGradient2154"
       x1="60.000046"
       x2="140.00034"
       y1="191.93718"
       y2="191.93718"
       gradientTransform="matrix(0.08469838,0,0,0.08469833,-0.07432396,-8.4258886)"
       gradientUnits="userSpaceOnUse">
      <stop
         stop-color="#eef6fa"
         offset="0"
         id="stop17" />
      <stop
         stop-color="#b0dbf2"
         offset="1"
         id="stop19" />
    </linearGradient>
    <linearGradient
       id="linearGradient6769"
       x1="170.07874"
       x2="585.82678"
       y1="472.44095"
       y2="472.44095"
       gradientTransform="matrix(0.02263622,0,0,0.02213327,-0.57445556,0.23933223)"
       gradientUnits="userSpaceOnUse">
      <stop
         stop-color="#f39c1f"
         offset="0"
         id="stop27" />
      <stop
         stop-color="#fdbc4b"
         offset="1"
         id="stop29" />
    </linearGradient>
  </defs>
  <rect
     id="rect36"
     style="fill:#17222d;stroke-width:0.376438;paint-order:markers fill stroke"
     ry="2.5609667"
     height="15.081249"
     width="15.081249"
     y="0.92604166"
     x="0.92604166" />
  <rect
     id="rect38"
     style="fill:url(#linearGradient6454);stroke-width:0.376438;paint-order:markers fill stroke"
     ry="2.6350684"
     height="15.081249"
     width="15.081249"
     y="0.92604166"
     x="0.92604166" />
  <path
     style="fill:url(#radialGradient6568);stroke-width:1.42276;paint-order:normal"
     d="M 9.6325494,3.2180299 7.2467242,3.8231251 7.9076969,5.6023846 7.1202637,5.6413526 8.3958926,6.9162432 9.9170849,8.4381721 9.0024548,8.4837561 9.7965067,9.277806 5.0667652,9.5116096 l 1.1219596,1.1219644 -2.4762572,0.122784 2.9843032,2.984304 -1.6792658,0.05515 1.7513186,1.752055 h 6.5832634 c 1.425071,0 2.572577,-1.147502 2.572577,-2.572573 V 9.5101391 Z"
     id="path20" />
  <path
     style="fill:url(#linearGradient2162);stroke-width:0.562444;paint-order:normal"
     d="M 8.395554,2.3725138 A 1.8821831,1.8821849 0 0 0 6.5133366,4.2547307 1.8821831,1.8821849 0 0 0 8.395554,6.1368979 1.8821831,1.8821849 0 0 0 10.277723,4.2547307 1.8821831,1.8821849 0 0 0 8.395554,2.3725138 Z"
     id="path22" />
  <path
     style="fill:url(#linearGradient2154);stroke-width:0.506199;paint-order:normal"
     d="m 6.7015297,6.1368979 c -0.9384543,0 -1.6939473,0.73125 -1.6939473,1.6395458 v 1.3249335 c 0,0.234618 0.1888837,0.4234664 0.4235071,0.4234664 h 5.9288815 c 0.234622,0 0.423504,-0.1888484 0.423504,-0.4234664 V 7.7764437 c 0,-0.1473689 -0.01989,-0.2900782 -0.05722,-0.425759 C 11.533494,6.65011 10.875678,6.1368979 10.089483,6.1368979 H 9.6789269 C 9.310031,6.4179127 8.8592623,6.5703972 8.3955275,6.5710431 7.9322686,6.5700796 7.4820395,6.4176221 7.1135312,6.1368979 Z"
     id="path24" />
  <circle
     r="0.56465763"
     cy="7.8308711"
     cx="6.3251171"
     style="opacity:1;fill:#000000;fill-opacity:1;stroke:none;stroke-width:0.376438;stroke-linecap:round;stroke-linejoin:round;stroke-miterlimit:4;stroke-dasharray:none;stroke-opacity:1"
     id="circle26" />
  <rect
     ry="0.18821919"
     y="8.3955259"
     x="5.3840222"
     height="2.2586305"
     width="0.37643796"
     style="opacity:1;fill:#000000;fill-opacity:1;stroke:none;stroke-width:0.376438;stroke-linecap:round;stroke-linejoin:round;stroke-miterlimit:4;stroke-dasharray:none;stroke-opacity:1"
     id="rect28" />
  <rect
     transform="rotate(45)"
     ry="0.18821919"
     y="1.1235329"
     x="9.8215723"
     height="2.2586305"
     width="0.37643796"
     style="opacity:1;fill:#000000;fill-opacity:1;stroke:none;stroke-width:0.376438;stroke-linecap:round;stroke-linejoin:round;stroke-miterlimit:4;stroke-dasharray:none;stroke-opacity:1"
     id="rect30" />
  <path
     style="fill:url(#linearGradient6769);stroke-width:0.505603;paint-order:normal"
     d="m 3.8782675,10.277723 c -0.2369851,0 -0.3764387,0.186564 -0.3764387,0.418284 0,0.236505 0.1538093,0.334592 0.3764387,0.334592 h 0.752877 c 0.2362659,-9e-6 0.3764483,0.145423 0.3764379,0.376439 v 2.258631 c 0,0.231719 0.1394489,0.376438 0.3764385,0.376438 h 5.2701401 c 0.236984,0 0.376438,-0.144719 0.376438,-0.376438 v -2.258631 c -10e-6,-0.230999 0.140189,-0.376424 0.376438,-0.376439 h 1.129314 c 0.236985,0 0.376438,-0.102872 0.376438,-0.334592 0,-0.23172 -0.139453,-0.418284 -0.376438,-0.418284 h -0.376438 z"
     id="path32" />
  <path
     d="m 4.5525898,11.030599 c 0.1440985,1.74e-4 0.2786972,0.07192 0.3591286,0.191479 l 6.4953186,-0.191479 c 0,0 0.114895,0.0069 0.0052,0.0068 l -5.9928436,-0.0068 z"
     style="opacity:0.2;fill:#1a1a1a;stroke-width:0.51801"
     id="path34" />
</svg>
