<?xml version="1.0" encoding="UTF-8" standalone="no"?>
<!-- Created with Inkscape (http://www.inkscape.org/) -->

<svg
   width="63.965984"
   height="64.607323"
   viewBox="0 0 63.965984 64.607323"
   version="1.1"
   id="SVGRoot"
   sodipodi:docname="stock_xfburn.svg"
   inkscape:version="1.2.1 (9c6d41e410, 2022-07-14)"
   xmlns:inkscape="http://www.inkscape.org/namespaces/inkscape"
   xmlns:sodipodi="http://sodipodi.sourceforge.net/DTD/sodipodi-0.dtd"
   xmlns="http://www.w3.org/2000/svg"
   xmlns:svg="http://www.w3.org/2000/svg">
  <sodipodi:namedview
     id="namedview3357"
     pagecolor="#ffffff"
     bordercolor="#666666"
     borderopacity="1.0"
     inkscape:showpageshadow="2"
     inkscape:pageopacity="0.0"
     inkscape:pagecheckerboard="0"
     inkscape:deskcolor="#d1d1d1"
     inkscape:document-units="px"
     showgrid="true"
     inkscape:zoom="6.7277216"
     inkscape:cx="68.150858"
     inkscape:cy="62.651225"
     inkscape:window-width="1920"
     inkscape:window-height="1002"
     inkscape:window-x="0"
     inkscape:window-y="0"
     inkscape:window-maximized="1"
     inkscape:current-layer="layer1">
    <inkscape:grid
       type="xygrid"
       id="grid3480"
       originx="34.982991"
       originy="14.988662" />
  </sodipodi:namedview>
  <defs
     id="defs3352">
    <filter
       id="filter1178"
       x="-0.047999482"
       y="-0.047999482"
       width="1.095999"
       height="1.095999"
       color-interpolation-filters="sRGB">
      <feGaussianBlur
         stdDeviation="0.30691668"
         id="feGaussianBlur2911" />
    </filter>
    <linearGradient
       id="linearGradient1340"
       x1="8.3549995"
       x2="8.3996"
       y1="16.007"
       y2="0.79374999"
       gradientTransform="translate(-0.0076499,-0.0030174)"
       gradientUnits="userSpaceOnUse">
      <stop
         stop-color="#d8dee9"
         offset="0"
         id="stop2914" />
      <stop
         stop-color="#eceff4"
         offset="1"
         id="stop2916" />
    </linearGradient>
    <linearGradient
       id="linearGradient1566"
       x1="1.9276"
       x2="14.647"
       y1="1.763"
       y2="15.496"
       gradientTransform="matrix(3.779602,0,0,3.779602,-35.028914,-15.011406)"
       gradientUnits="userSpaceOnUse">
      <stop
         stop-color="#bf616a"
         offset="0"
         id="stop2919" />
      <stop
         stop-color="#ebcb8b"
         offset="1"
         id="stop2921" />
    </linearGradient>
    <linearGradient
       id="s"
       x1="-1129.7"
       x2="-1106.6"
       y1="944.53003"
       y2="962.73999"
       gradientTransform="matrix(0,0.42997,0.44588,0,-437.06,488.46)"
       gradientUnits="userSpaceOnUse">
      <stop
         stop-color="#BFBFBF"
         offset="0"
         id="stop2927" />
      <stop
         stop-color="#fff"
         offset=".5"
         id="stop2929" />
      <stop
         stop-color="#BFBFBF"
         offset="1"
         id="stop2931" />
    </linearGradient>
    <linearGradient
       id="r"
       x1="-1196.7"
       x2="-1197.3"
       y1="860.46002"
       y2="818.53998"
       gradientTransform="matrix(0.14059,0,0,0.13558,-20.776,-0.91631)"
       gradientUnits="userSpaceOnUse">
      <stop
         stop-color="#323232"
         offset="0"
         id="stop2934" />
      <stop
         offset="1"
         id="stop2936" />
    </linearGradient>
    <filter
       id="filter1928"
       x="-0.12590794"
       y="-0.094552501"
       width="1.2518159"
       height="1.189105"
       color-interpolation-filters="sRGB">
      <feGaussianBlur
         stdDeviation="0.4071827"
         id="feGaussianBlur2924" />
    </filter>
  </defs>
  <g
     inkscape:label="Layer 1"
     inkscape:groupmode="layer"
     id="layer1"
     transform="translate(34.982991,14.988662)">
    <g
       stroke-linecap="round"
       stroke-linejoin="round"
       id="g2951"
       transform="matrix(3.779602,0,0,3.779602,-35,-15.000001)">
      <rect
         transform="matrix(0.99138,0,0,1,0.065339,-0.0030172)"
         x="0.79374999"
         y="1.0171"
         width="15.346"
         height="15.346"
         rx="3.0525999"
         ry="3.0525999"
         fill="#2e3440"
         filter="url(#filter1178)"
         opacity="0.2"
         stroke-width="1.2489"
         style="mix-blend-mode:normal"
         id="rect2945" />
      <rect
         x="0.91838998"
         y="0.92302001"
         width="15.081"
         height="15.081"
         rx="3"
         ry="3"
         fill="url(#linearGradient1340)"
         stroke-width="1.2274"
         id="rect2947"
         style="fill:url(#linearGradient1340)" />
      <rect
         x="0.0045000999"
         y="0.003"
         width="16.924"
         height="16.927"
         fill="none"
         opacity="0.15"
         stroke-width="1.052"
         id="rect2949" />
    </g>
    <rect
       x="-31.528851"
       y="-11.511353"
       width="57.000179"
       height="57.000179"
       rx="11.338806"
       ry="11.338806"
       fill="url(#linearGradient1566)"
       stroke-linecap="round"
       stroke-linejoin="round"
       stroke-width="4.63908"
       id="rect2953"
       style="fill:url(#linearGradient1566)" />
    <g
       transform="matrix(2.9031879,0,0,2.9031879,31.199729,-5.5555315)"
       id="g2961">
      <path
         d="m -3.9871,7.7654 c 0,-4.1707 -3.4777,-7.5244 -7.8026,-7.5244 -4.325,0 -7.8026,3.3537 -7.8026,7.5244 0,4.1708 3.4778,7.5244 7.8026,7.5244 4.3251,0 7.8026,-3.3536 7.8026,-7.5244 z m -4.9481,0 c 0,1.5151 -1.2519,2.7528 -2.8546,2.7528 -1.6341,0 -2.8546,-1.2682 -2.8546,-2.7528 0,-1.5149 1.1576,-2.7528 2.8546,-2.7528 1.697,0 2.8546,1.2679 2.8546,2.7528 z"
         fill="url(#s)"
         stroke="#999999"
         stroke-width="0.26458"
         id="path2955"
         style="fill:url(#s)" />
      <path
         d="m -11.778,4.9134 c -1.6297,0 -2.9524,1.2755 -2.9524,2.8471 0,1.5715 1.3227,2.8471 2.9524,2.8471 1.6297,0 2.9524,-1.2755 2.9524,-2.8471 0,-1.5715 -1.3227,-2.8471 -2.9524,-2.8471 z m 0,1.4235 c 0.81484,0 1.4762,0.63778 1.4762,1.4235 0,0.7858 -0.66136,1.4235 -1.4762,1.4235 -0.81484,0 -1.4762,-0.63778 -1.4762,-1.4235 0,-0.7858 0.66136,-1.4235 1.4762,-1.4235 z"
         enable-background="new    "
         fill="#323232"
         opacity="0.2"
         id="path2957" />
      <path
         d="m -11.772,10.598 c -1.6353,0 -2.9503,-1.2681 -2.9503,-2.8451 0,-1.577 1.315,-2.8451 2.9503,-2.8451 1.6353,0 2.9503,1.2681 2.9503,2.8451 0,1.577 -1.315,2.8451 -2.9503,2.8451 z"
         enable-background="new    "
         fill="none"
         opacity="0.1"
         stroke="url(#r)"
         stroke-width="3.175"
         id="path2959"
         style="stroke:url(#r)" />
    </g>
    <g
       transform="matrix(4.2947618,0,0,4.2947618,-109.23516,-2.4872506)"
       id="g2973">
      <g
         transform="matrix(0.64451,0,0,0.64451,9.933,-11.246)"
         id="g2965">
        <path
           class="st1"
           d="m 27.743,31.487 c -0.40902,-1.056 -0.35304,-2.7605 0.79161,-3.3593 0.0093,1.9611 1.9409,2.21 1.5832,4.3033 0.32971,-0.37326 0.49612,-0.97046 0.52567,-1.4433 0.52256,1.1975 0.11198,2.1555 -0.63298,2.6439 -2.2691,1.4837 -4.2224,-1.5241 -2.9223,-3.1727 0.03733,0.36859 0.48834,0.93625 0.65475,1.028 z m -1.2831,-3.1696 c -0.24417,-2.1944 1.0373,-3.7388 3.4417,-4.6175 -1.4712,1.9098 1.2551,3.9798 1.4059,5.9627 0.35304,-0.60187 0.55211,-1.4044 0.59254,-2.4775 1.8025,2.8274 0.30794,7.4511 -3.6594,6.7855 -0.36392,-0.06065 -0.7154,-0.17574 -1.0342,-0.34682 -1.4464,-0.77139 -2.3111,-2.4557 -2.3111,-4.0638 0,-1.0249 0.43857,-1.9394 1.0047,-2.6657 0.07465,0.71229 0.23639,1.2426 0.55988,1.423 z"
           fill="#2e3440"
           filter="url(#filter1928)"
           opacity="0.4"
           stroke-width="0.15552"
           id="path2963" />
      </g>
      <g
         transform="matrix(0.64451,0,0,0.64451,10.111,-11.022)"
         stroke-width="0.15552"
         id="g2971">
        <path
           class="st0"
           d="m 26.46,28.318 c -0.24417,-2.1944 1.0373,-3.7388 3.4417,-4.6175 -1.4712,1.9098 1.2551,3.9798 1.4059,5.9627 0.35304,-0.60187 0.55211,-1.4044 0.59254,-2.4775 1.8025,2.8274 0.30794,7.4511 -3.6594,6.7855 -0.36392,-0.06065 -0.7154,-0.17574 -1.0342,-0.34682 -1.4464,-0.77139 -2.3111,-2.4557 -2.3111,-4.0638 0,-1.0249 0.43857,-1.9394 1.0047,-2.6657 0.07465,0.71229 0.23639,1.2426 0.55988,1.423 z"
           fill="#bf616a"
           id="path2967" />
        <path
           class="st1"
           d="m 27.743,31.487 c -0.40902,-1.056 -0.35304,-2.7605 0.79161,-3.3593 0.0093,1.9611 1.9409,2.21 1.5832,4.3033 0.32971,-0.37326 0.49612,-0.97046 0.52567,-1.4433 0.52256,1.1975 0.11198,2.1555 -0.63298,2.6439 -2.2691,1.4837 -4.2224,-1.5241 -2.9223,-3.1727 0.03733,0.36859 0.48834,0.93625 0.65475,1.028 z"
           fill="#ebcb8b"
           id="path2969" />
      </g>
    </g>
  </g>
</svg>
