<?xml version="1.0" encoding="UTF-8" standalone="no"?>
<svg
   width="64"
   height="64"
   version="1.1"
   viewBox="0 0 16.933 16.933"
   id="svg38"
   sodipodi:docname="yast.svg"
   inkscape:version="1.2.1 (9c6d41e410, 2022-07-14)"
   xmlns:inkscape="http://www.inkscape.org/namespaces/inkscape"
   xmlns:sodipodi="http://sodipodi.sourceforge.net/DTD/sodipodi-0.dtd"
   xmlns:xlink="http://www.w3.org/1999/xlink"
   xmlns="http://www.w3.org/2000/svg"
   xmlns:svg="http://www.w3.org/2000/svg"
   xmlns:rdf="http://www.w3.org/1999/02/22-rdf-syntax-ns#"
   xmlns:cc="http://creativecommons.org/ns#"
   xmlns:dc="http://purl.org/dc/elements/1.1/">
  <sodipodi:namedview
     id="namedview40"
     pagecolor="#ffffff"
     bordercolor="#666666"
     borderopacity="1.0"
     inkscape:showpageshadow="2"
     inkscape:pageopacity="0.0"
     inkscape:pagecheckerboard="0"
     inkscape:deskcolor="#d1d1d1"
     showgrid="true"
     inkscape:zoom="10.429825"
     inkscape:cx="29.674515"
     inkscape:cy="29.578636"
     inkscape:window-width="1920"
     inkscape:window-height="1002"
     inkscape:window-x="0"
     inkscape:window-y="0"
     inkscape:window-maximized="1"
     inkscape:current-layer="svg38">
    <inkscape:grid
       type="xygrid"
       id="grid250" />
  </sodipodi:namedview>
  <metadata
     id="metadata2">
    <rdf:RDF>
      <cc:Work
         rdf:about="">
        <dc:format>image/svg+xml</dc:format>
        <dc:type
           rdf:resource="http://purl.org/dc/dcmitype/StillImage" />
      </cc:Work>
    </rdf:RDF>
  </metadata>
  <defs
     id="defs24">
    <linearGradient
       inkscape:collect="always"
       id="linearGradient901">
      <stop
         style="stop-color:#5e81ac;stop-opacity:1;"
         offset="0"
         id="stop897" />
      <stop
         style="stop-color:#8fbcbb;stop-opacity:1;"
         offset="0.74249786"
         id="stop2206" />
      <stop
         style="stop-color:#88c0d0;stop-opacity:1;"
         offset="1"
         id="stop899" />
    </linearGradient>
    <filter
       id="filter1057-6"
       x="-0.026999999"
       y="-0.026999999"
       width="1.054"
       height="1.054"
       color-interpolation-filters="sRGB">
      <feGaussianBlur
         stdDeviation="0.61875"
         id="feGaussianBlur4" />
    </filter>
    <linearGradient
       id="linearGradient1053-2"
       x1="-99.836"
       x2="-99.836"
       y1="56.135"
       y2="7.1877"
       gradientTransform="matrix(0.27420207,0,0,0.27420207,35.749518,-0.42132718)"
       gradientUnits="userSpaceOnUse">
      <stop
         stop-color="#87e1aa"
         offset="0"
         id="stop7" />
      <stop
         stop-color="#c3fa46"
         offset="1"
         id="stop9" />
    </linearGradient>
    <linearGradient
       id="linearGradient1260"
       x1="15.744"
       x2="20.15"
       y1="12.149"
       y2="24.489"
       gradientTransform="matrix(0.46514,0,0,0.46514,-42.163615,-7.8947009)"
       gradientUnits="userSpaceOnUse">
      <stop
         stop-color="#fff"
         offset="0"
         id="stop12" />
      <stop
         stop-color="#c5efbe"
         offset="1"
         id="stop14" />
    </linearGradient>
    <radialGradient
       id="radialGradient1262"
       cx="26.204"
       cy="13.899"
       r="1.5651"
       gradientTransform="matrix(.49854 0 0 .49854 -18.029 .055048)"
       gradientUnits="userSpaceOnUse"
       xlink:href="#linearGradient1021" />
    <linearGradient
       id="linearGradient1021">
      <stop
         stop-color="#3eb12c"
         offset="0"
         id="stop18" />
      <stop
         stop-color="#3eb12c"
         stop-opacity="0"
         offset="1"
         id="stop20" />
    </linearGradient>
    <radialGradient
       id="radialGradient1264"
       cx="26.039"
       cy="14.005"
       r=".76186"
       gradientTransform="matrix(.49854 0 0 .49854 -17.94 .007939)"
       gradientUnits="userSpaceOnUse"
       xlink:href="#linearGradient1021" />
    <linearGradient
       inkscape:collect="always"
       xlink:href="#linearGradient901"
       id="linearGradient903"
       x1="0.92602342"
       y1="16.033699"
       x2="15.874687"
       y2="1.0583125"
       gradientUnits="userSpaceOnUse" />
  </defs>
  <rect
     transform="matrix(.26458 0 0 .26458 -6.0163e-5 -6.0163e-5)"
     x="4.5"
     y="4.5"
     width="55"
     height="55"
     ry="15"
     filter="url(#filter1057-6)"
     opacity=".3"
     stroke-linecap="round"
     stroke-width="2.7444"
     id="rect26" />
  <rect
     x="0.92602342"
     y="0.95248127"
     width="15.081218"
     height="15.081218"
     ry="2.8792062"
     stroke-linecap="round"
     stroke-width="0.752523"
     id="rect28"
     rx="2.8792067"
     style="fill:url(#linearGradient903);fill-opacity:1" />
  <g
     transform="translate(42.759893,8.3669327)"
     id="g36"
     style="fill:#ffffff;fill-opacity:1">
    <path
       d="m -31.313315,-3.0752009 c -0.27503,0.00547 -0.39247,0.14296 -0.58918,0.3774 -0.15512,0.19678 -0.21985,0.16787 -0.4948,0.09298 -0.69348,-0.1883 -1.3447,-0.26731 -1.9534,-0.26526 -2.0447,0.00691 -3.4811,0.41945 -4.6304,1.4443 -0.50217,0.41766 -0.85514,1.01869998 -1.0032,1.54429998 -0.2477,0.8503 -0.1624,1.82620002 0.44298,2.40340002 0.46886,0.484 1.0405,0.72166 1.6485,0.60937 0.85414,-0.15776 1.2429,-0.75664 1.2605,-1.4025 0.01332,-0.49052 -0.32465,-1.17320002 -1.0178,-1.38980002 -0.35522,-0.11101 -0.61399,-0.052058 -0.86904,0.08718 -0.25505,0.13924 -0.40296,0.36932 -0.44032,0.60896002 -0.05287,0.33916 0.03173,0.43556 0.09437,0.57148 0.12904,0.24522 0.5677,0.59562 0.81154,0.33544 0.23822,-0.23158 -0.53049,-0.56536 -0.12776,-0.82205 0.04721,-0.02577 0.17089,-0.0635 0.41829,-0.02481 0.22394,0.03503 0.39248,0.29046 0.3859,0.60958 -0.0066,0.31912 -0.13888,0.61369 -0.65812,0.70959 -0.24196,0.04469 -0.66995,-0.08966 -0.9716,-0.40105 -0.34222,-0.39219 -0.54783,-1.09520002 -0.0025,-1.76430002 0.34118,-0.31794 0.54431,-0.32542 0.97516,-0.32508 1.7391,0.21029 1.9124,1.17870002 2.0884,1.83960002 0.11917,0.46685 0.74811,0.40012 0.74998,0.001 0.004,-0.18456 -0.04818,-0.32856 -0.01754,-0.4929 0.07479,-0.39706002 0.22573,-0.64038002 0.78312,-0.68352002 0.3057,-0.01587 0.59498,0.03397 0.86498,0.16091 0.31026,0.12522 0.45285,0.36032002 0.65536,0.62748002 l 0.34518,0.45536 c 0.24473,0.33123 0.56265,0.2411 0.66422,0.04946 0.0679,-0.17494 -0.17841,-0.80256 -0.09893,-1.10940002 0.15317,-0.59228 1.5754,-0.22659 2.4026,-0.29679 0.39083,-0.03566 0.66626,-0.13922 0.96936,-0.42934 0.0939,-0.11403 0.15177,-0.21267 0.17266,-0.36473 0.03713,-0.30942 -0.01746,-0.60672 -0.08208,-1.00079998 -0.14797,-0.64284 -0.45267,-0.98155 -0.93589,-1.205 -0.36539,-0.1434 -0.73525,-0.29811 -1.1242,-0.4101 -0.32965,-0.09934 -0.55137,-0.14364 -0.71639,-0.14036 z m 1.5622,0.92778 c 0.35325,7e-6 0.6396,0.28639 0.63957,0.63965 -7e-6,0.35322 -0.28635,0.63955998 -0.63957,0.63956998 -0.35325,3.48e-5 -0.63964,-0.28631998 -0.63964,-0.63956998 -3.6e-5,-0.35328 0.28636,-0.63968 0.63964,-0.63965 z m 0,0.14492 c -0.27323,-5.5e-6 -0.49473,0.22149 -0.49473,0.49473 -5e-6,0.27323 0.2215,0.49473 0.49473,0.49473 0.2732,-3.79e-5 0.49466,-0.22152 0.49465,-0.49473 7e-6,-0.2732 -0.22145,-0.49469 -0.49465,-0.49473 z m 0,0.29331 c 0.11121,3.04e-5 0.20135,0.090202 0.20134,0.20142 -3e-5,0.11118 -0.09015,0.20131 -0.20134,0.20134 -0.11121,1.25e-5 -0.20138,-0.090125 -0.20142,-0.20134 -1.2e-5,-0.11124 0.09017,-0.20143 0.20142,-0.20142 z"
       id="path30"
       style="fill:#f8fffd;fill-opacity:1" />
  </g>
</svg>
