<?xml version="1.0" encoding="UTF-8" standalone="no"?>
<svg
   width="64"
   height="64"
   viewBox="0 0 16.933 16.933"
   version="1.1"
   id="svg23"
   sodipodi:docname="application-slf+xml.svg"
   inkscape:version="1.2.1 (9c6d41e410, 2022-07-14)"
   xmlns:inkscape="http://www.inkscape.org/namespaces/inkscape"
   xmlns:sodipodi="http://sodipodi.sourceforge.net/DTD/sodipodi-0.dtd"
   xmlns="http://www.w3.org/2000/svg"
   xmlns:svg="http://www.w3.org/2000/svg">
  <sodipodi:namedview
     id="namedview25"
     pagecolor="#ffffff"
     bordercolor="#666666"
     borderopacity="1.0"
     inkscape:showpageshadow="2"
     inkscape:pageopacity="0.0"
     inkscape:pagecheckerboard="0"
     inkscape:deskcolor="#d1d1d1"
     showgrid="false"
     inkscape:zoom="3.6875"
     inkscape:cx="32.135593"
     inkscape:cy="32.135593"
     inkscape:window-width="1920"
     inkscape:window-height="1002"
     inkscape:window-x="0"
     inkscape:window-y="0"
     inkscape:window-maximized="1"
     inkscape:current-layer="svg23" />
  <defs
     id="defs5">
    <filter
       id="a"
       x="-0.038932178"
       y="-0.033367063"
       width="1.0778644"
       height="1.0667341"
       color-interpolation-filters="sRGB">
      <feGaussianBlur
         stdDeviation=".206"
         id="feGaussianBlur2" />
    </filter>
  </defs>
  <g
     fill-rule="evenodd"
     id="g13">
    <path
       d="M3.44 1.354a1.32 1.32 0 0 0-1.323 1.323v12.171c0 .733.59 1.323 1.323 1.323h10.053a1.32 1.32 0 0 0 1.323-1.323V4.53l-3.175-3.175z"
       filter="url(#a)"
       opacity=".15"
       style="paint-order:stroke fill markers"
       id="path7" />
    <path
       d="M3.44 1.059a1.32 1.32 0 0 0-1.323 1.323v12.17c0 .734.59 1.324 1.323 1.324h10.053a1.32 1.32 0 0 0 1.323-1.323V4.233L11.641 1.06z"
       style="paint-order:stroke fill markers;fill:#a3be8c;fill-opacity:1"
       id="path9" />
    <path
       d="m14.816 4.233-3.175-3.175V2.91c0 .733.59 1.323 1.323 1.323z"
       fill="#fff"
       opacity=".35"
       style="paint-order:stroke fill markers"
       id="path11" />
  </g>
  <ellipse
     cx="8.466"
     cy="10.848"
     rx="2.381"
     ry="1.058"
     opacity=".1"
     style="paint-order:stroke fill markers"
     id="ellipse15" />
  <ellipse
     cx="8.466"
     cy="10.848"
     rx="1.587"
     ry=".529"
     opacity=".1"
     style="paint-order:stroke fill markers"
     id="ellipse17" />
  <path
     d="M8.466 4.498c-1.314 0-2.38 1.066-2.38 2.381s1.587 3.969 2.38 3.969c.794 0 2.382-2.654 2.382-3.969S9.78 4.498 8.466 4.498zm0 1.058a1.323 1.323 0 1 1 0 2.646 1.323 1.323 0 0 1 0-2.646z"
     fill="#fff"
     fill-rule="evenodd"
     id="path19" />
  <path
     d="M11.641 2.91v.155c0 .794.59 1.433 1.323 1.433h1.852v-.265h-1.852A1.32 1.32 0 0 1 11.64 2.91z"
     fill-rule="evenodd"
     opacity=".1"
     style="paint-order:stroke fill markers"
     id="path21" />
</svg>
