<?xml version="1.0" encoding="UTF-8" standalone="no"?>
<svg
   width="64"
   height="64"
   viewBox="0 0 16.933 16.933"
   version="1.1"
   id="svg7506"
   sodipodi:docname="x-office-drawing.svg"
   inkscape:version="1.2.1 (9c6d41e410, 2022-07-14)"
   xmlns:inkscape="http://www.inkscape.org/namespaces/inkscape"
   xmlns:sodipodi="http://sodipodi.sourceforge.net/DTD/sodipodi-0.dtd"
   xmlns:xlink="http://www.w3.org/1999/xlink"
   xmlns="http://www.w3.org/2000/svg"
   xmlns:svg="http://www.w3.org/2000/svg">
  <sodipodi:namedview
     id="namedview7508"
     pagecolor="#ffffff"
     bordercolor="#666666"
     borderopacity="1.0"
     inkscape:showpageshadow="2"
     inkscape:pageopacity="0.0"
     inkscape:pagecheckerboard="0"
     inkscape:deskcolor="#d1d1d1"
     showgrid="false"
     inkscape:zoom="3.6875"
     inkscape:cx="32.135593"
     inkscape:cy="32.135593"
     inkscape:window-width="1920"
     inkscape:window-height="1002"
     inkscape:window-x="0"
     inkscape:window-y="0"
     inkscape:window-maximized="1"
     inkscape:current-layer="svg7506" />
  <defs
     id="defs7478">
    <filter
       id="a"
       x="-0.038932178"
       y="-0.033367063"
       width="1.0778644"
       height="1.0667341"
       color-interpolation-filters="sRGB">
      <feGaussianBlur
         stdDeviation=".206"
         id="feGaussianBlur7475" />
    </filter>
    <linearGradient
       id="b"
       y1="17"
       x1="47"
       y2="24"
       gradientUnits="userSpaceOnUse"
       x2="54"
       gradientTransform="matrix(0.57725697,0,0,0.52915601,-16.355599,-4.2327147)">
      <stop
         stop-color="#060606"
         id="stop7777" />
      <stop
         offset="1"
         stop-opacity="0"
         id="stop7779" />
    </linearGradient>
    <linearGradient
       xlink:href="#a-4"
       id="c"
       x1="5"
       y1="30"
       x2="5"
       y2="2"
       gradientUnits="userSpaceOnUse"
       gradientTransform="matrix(0.57725697,0,0,0.52915601,-12.3148,5.332e-4)" />
    <linearGradient
       id="a-4"
       y1="392.35999"
       y2="365.35999"
       x2="0"
       gradientUnits="userSpaceOnUse"
       gradientTransform="translate(309.57,152.44)">
      <stop
         stop-color="#fff"
         stop-opacity="0"
         id="stop7783" />
      <stop
         offset="1"
         stop-color="#fff"
         stop-opacity=".2"
         id="stop7785" />
    </linearGradient>
    <linearGradient
       id="b-3"
       y1="17.498997"
       x1="47.583454"
       y2="24"
       gradientUnits="userSpaceOnUse"
       x2="54"
       gradientTransform="matrix(0.57725697,0,0,0.52915601,-16.355599,-4.2327185)">
      <stop
         stop-color="#060606"
         id="stop7777-6" />
      <stop
         offset="1"
         stop-opacity="0"
         id="stop7779-7" />
    </linearGradient>
    <linearGradient
       xlink:href="#a-4-3"
       id="c-5"
       x1="5"
       y1="30"
       x2="5"
       y2="2"
       gradientUnits="userSpaceOnUse"
       gradientTransform="matrix(0.57725697,0,0,0.52915601,-12.3148,3.1e-7)" />
    <linearGradient
       id="a-4-3"
       y1="392.35999"
       y2="365.35999"
       x2="0"
       gradientUnits="userSpaceOnUse"
       gradientTransform="translate(309.57,152.44)">
      <stop
         stop-color="#fff"
         stop-opacity="0"
         id="stop7783-5" />
      <stop
         offset="1"
         stop-color="#fff"
         stop-opacity=".2"
         id="stop7785-6" />
    </linearGradient>
  </defs>
  <path
     d="M 10.775478,1.0588415 H 3.848395 c -0.959401,0 -1.73177,0.708011 -1.73177,1.5874681 V 14.287739 c 0,0.879457 0.772369,1.587468 1.73177,1.587468 h 9.236112 c 0.959401,0 1.73177,-0.708011 1.73177,-1.587468 V 4.7629337 Z"
     id="path7790-2"
     style="fill:#4c566a;fill-opacity:1;stroke-width:0.552683"
     sodipodi:nodetypes="csssssscc" />
  <path
     d="m 3.847241,1.0593685 c -0.225707,0 -0.379834,0.146576 -0.577257,0.218012 v 0.839242 H 2.354455 c -0.07793,0.180441 -0.237254,0.321726 -0.23783,0.5280973 v 0.00105 H 3.269984 V 3.704082 H 2.116625 V 4.2332379 H 3.269984 V 5.2915498 H 2.116625 V 5.820706 H 3.269984 V 6.8790179 H 2.116625 v 0.52916 H 3.269984 V 8.4664942 H 2.116625 v 0.529156 H 3.269984 V 10.05396 H 2.116625 v 0.529156 h 1.153359 v 1.058312 H 2.116625 v 0.529156 h 1.153359 v 1.058312 H 2.116625 v 0.529156 h 1.153359 v 1.058312 H 2.3533 c 0.07793,0.1815 0.09814,0.387871 0.238984,0.529156 h 0.6777 v 0.312201 c 0.196275,0.0709 0.350396,0.216955 0.574949,0.216955 h 0.0024 V 15.34552 h 1.154513 v 0.529156 H 5.579103 V 15.34552 h 1.154515 v 0.529156 H 7.310875 V 15.34552 h 1.154514 v 0.529156 H 9.042645 V 15.34552 h 1.154515 v 0.529156 h 0.577256 V 15.34552 h 1.154516 v 0.529156 h 0.577256 V 15.34552 h 1.154513 v 0.312201 c 0.197431,-0.07144 0.42313,-0.08995 0.577257,-0.21907 v -0.09313 h 0.10045 c 0.140857,-0.141284 0.16106,-0.347655 0.238983,-0.529156 h -0.339427 v -1.058311 h 0.577257 v -0.529156 h -0.577257 v -1.058312 h 0.577257 V 11.64143 h -0.577257 v -1.058312 h 0.577257 V 10.05396 H 14.237964 V 8.9956502 h 0.577257 V 8.4664942 H 14.237964 V 7.4081821 h 0.577257 V 6.8790261 H 14.237964 V 5.8207142 h 0.577257 V 5.2915581 H 14.237964 V 4.2332462 L 13.660708,3.7040902 H 12.506194 V 2.6457781 L 11.928938,2.1166225 h -1.154515 v -1.057254 h -0.577258 v 1.057254 H 9.042652 V 1.0593685 H 8.465395 v 1.057254 H 7.310882 V 1.0593685 H 6.733625 v 1.057254 H 5.579109 V 1.0593685 H 5.001853 v 1.057254 H 3.847339 Z m 0,1.5864096 H 5.001755 V 3.7040902 H 3.847241 Z m 1.73177,0 H 6.733527 V 3.7040902 H 5.579011 Z m 1.731773,0 H 8.465297 V 3.7040902 H 7.310784 Z m 1.73177,0 h 1.154513 V 3.7040902 H 9.042554 Z m 1.73177,0 h 1.154515 V 3.7040902 H 10.774324 Z M 3.847241,4.2332462 H 5.001755 V 5.2915581 H 3.847241 Z m 1.73177,0 H 6.733527 V 5.2915581 H 5.579011 Z m 1.731773,0 H 8.465297 V 5.2915581 H 7.310784 Z m 1.73177,0 h 1.154513 V 5.2915581 H 9.042554 Z m 1.731765,-0.264051 1.15452,0.264051 v 1.0583119 h -1.154515 z m 1.731777,0.264051 h 1.154513 V 5.2915581 H 12.506096 Z M 3.847241,5.8207142 H 5.001755 V 6.8790261 H 3.847241 Z m 1.73177,0 H 6.733527 V 6.8790261 H 5.579011 Z m 1.731773,0 H 8.465297 V 6.8790261 H 7.310784 Z m 1.73177,0 h 1.154513 V 6.8790261 H 9.042554 Z m 1.73177,0 h 1.154515 v 1.0583119 h -1.154515 z m 1.731772,0 h 1.154513 V 6.8790261 H 12.506096 Z M 3.847241,7.4081821 H 5.001755 V 8.4664942 H 3.847241 Z m 1.73177,0 H 6.733527 V 8.4664942 H 5.579011 Z m 1.731773,0 H 8.465297 V 8.4664942 H 7.310784 Z m 1.73177,0 h 1.154513 V 8.4664942 H 9.042554 Z m 1.73177,0 h 1.154515 v 1.0583121 h -1.154515 z m 1.731772,0 h 1.154513 V 8.4664942 H 12.506096 Z M 3.847241,8.9956502 H 5.001755 V 10.05396 H 3.847241 Z m 1.73177,0 H 6.733527 V 10.05396 H 5.579011 Z m 1.731773,0 H 8.465297 V 10.05396 H 7.310784 Z m 1.73177,0 h 1.154513 V 10.05396 H 9.042554 Z m 1.73177,0 h 1.154515 V 10.05396 h -1.154515 z m 1.731772,0 h 1.154513 V 10.05396 H 12.506096 Z M 3.847241,10.583116 h 1.154514 v 1.058312 H 3.847241 Z m 1.73177,0 h 1.154516 v 1.058312 H 5.579011 Z m 1.731773,0 h 1.154513 v 1.058312 H 7.310784 Z m 1.73177,0 h 1.154513 v 1.058312 H 9.042554 Z m 1.73177,0 h 1.154515 v 1.058312 h -1.154515 z m 1.731772,0 h 1.154513 v 1.058312 h -1.154513 z m -8.658855,1.587468 h 1.154514 v 1.058312 H 3.847241 V 12.69974 Z m 1.73177,0 h 1.154516 v 1.058312 H 5.579011 V 12.69974 Z m 1.731773,0 h 1.154513 v 1.058312 H 7.310784 V 12.69974 Z m 1.73177,0 h 1.154513 v 1.058312 H 9.042554 V 12.69974 Z m 1.73177,0 h 1.154515 v 1.058312 H 10.774324 V 12.69974 Z m 1.731772,0 h 1.154513 v 1.058312 H 12.506096 V 12.69974 Z m -8.658855,1.587468 h 1.154514 v 1.058312 H 3.847241 v -0.529156 z m 1.73177,0 h 1.154516 v 1.058312 H 5.579011 v -0.529156 z m 1.731773,0 h 1.154513 v 1.058312 H 7.310784 v -0.529156 z m 1.73177,0 h 1.154513 v 1.058312 H 9.042554 v -0.529156 z m 1.73177,0 h 1.154515 v 1.058312 h -1.154515 v -0.529156 z m 1.731772,0 h 1.154513 v 1.058312 h -1.154513 v -0.529156 z"
     color="#000000"
     opacity="0.15"
     fill="#ffffff"
     id="path7792-9"
     style="opacity:0.05;fill:#88c0d0;fill-opacity:1;stroke-width:0.552683"
     sodipodi:nodetypes="ccccccccccccccccccccccccccccccccccccccccsccccccccccccccccccccccccccccccccccccccccccccccccccccccccccccccccccccccccccccccccccccccccccccccccccccccccccccccccccccccccccccccccccccccccccccccccccccccccccccccccccccccccccccccccccccccccccccccccccccccccccccccccccccccccccccccccccccccccccccccccccccccccccccccccccccccccccccccccccccccccccccccccccccccccccccccccccccccccccccccccccc" />
  <path
     d="m 3.848395,1.0588415 c -0.459617,-0.0011 -0.90071,0.165975 -1.225516,0.46407 -0.01789,0.0164 -0.01156,0.04762 -0.02887,0.06509 h 8.181462 v -0.529156 z"
     color="#000000"
     opacity="0.5"
     fill="#ffffff"
     id="path7794-1"
     style="stroke-width:0.552683"
     sodipodi:nodetypes="cccccc" />
  <path
     d="m 2.593438,15.346051 c 0.01724,0.01746 0.01156,0.04868 0.02943,0.06508 0.324806,0.298095 0.765899,0.465125 1.225515,0.464069 h 9.236112 c 0.459617,0.0011 0.90071,-0.165974 1.225516,-0.464069 0.01789,-0.0164 0.01156,-0.04762 0.02886,-0.06508 z"
     color="#000000"
     opacity="0.25"
     id="path7796-2"
     style="fill:#ffffff;fill-opacity:1;stroke-width:0.552683"
     sodipodi:nodetypes="ccccccc" />
  <path
     d="m 10.775478,4.7629337 4.040799,3.7040919 V 4.7629337 Z"
     opacity="0.2"
     fill="url(#b)"
     fill-rule="evenodd"
     id="path7798-7"
     style="fill:url(#b-3);stroke-width:0.552683"
     sodipodi:nodetypes="cccc" />
  <path
     d="m 14.816277,4.7629337 -4.040799,-3.7040922 -5e-6,2.9098269 c 0.02866,0.5291562 0.336808,0.7937343 1.130539,0.7937343 z M 11.831858,6.4985654 7.79106,6.5006854 6.381975,10.041265 5.484341,8.6151928 H 4.907084 v 0.529156 H 5.15415 L 6.385439,11.098519 8.128755,7.0277248 h 3.70599 z m -2.309027,1.058312 c -0.959401,0 -1.731771,0.7080107 -1.731771,1.587468 -0.0023,1.3739566 1.774358,2.0987006 2.886284,1.1773696 v 0.410096 h 0.577257 V 7.5568774 H 10.677344 V 7.9669733 C 10.361373,7.7036561 9.949857,7.5574808 9.522831,7.5568774 m 0,0.529156 c 0.6396,0 1.154513,0.4720071 1.154513,1.058312 0,0.5863032 -0.514913,1.0583096 -1.154513,1.0583096 -0.639601,0 -1.154514,-0.4720064 -1.154514,-1.0583096 0,-0.5863049 0.514913,-1.058312 1.154514,-1.058312"
     id="path7800-0"
     style="color:#000000;fill:#afafaf;stroke-width:0.552683"
     sodipodi:nodetypes="ccccccccccccccccccccccccccsssc" />
  <path
     d="M 10.775478,1.0583125 H 3.848395 c -0.959401,0 -1.73177,0.708011 -1.73177,1.5874678 V 14.28721 c 0,0.879457 0.772369,1.587468 1.73177,1.587468 h 9.236112 c 0.959401,0 1.73177,-0.708011 1.73177,-1.587468 l 9.8e-5,-9.5253366 z"
     opacity="0.4"
     fill="url(#c)"
     id="path7804-9"
     style="fill:url(#c-5);stroke-width:0.552683"
     sodipodi:nodetypes="csssssscc" />
</svg>
