<?xml version="1.0" encoding="UTF-8" standalone="no"?>
<svg
   width="64"
   height="64"
   version="1.1"
   viewBox="0 0 16.933 16.933"
   id="svg13069"
   sodipodi:docname="plasma-browser-integration.svg"
   inkscape:version="1.2.1 (9c6d41e410, 2022-07-14)"
   xmlns:inkscape="http://www.inkscape.org/namespaces/inkscape"
   xmlns:sodipodi="http://sodipodi.sourceforge.net/DTD/sodipodi-0.dtd"
   xmlns="http://www.w3.org/2000/svg"
   xmlns:svg="http://www.w3.org/2000/svg">
  <sodipodi:namedview
     id="namedview13071"
     pagecolor="#ffffff"
     bordercolor="#666666"
     borderopacity="1.0"
     inkscape:showpageshadow="2"
     inkscape:pageopacity="0.0"
     inkscape:pagecheckerboard="0"
     inkscape:deskcolor="#d1d1d1"
     showgrid="false"
     inkscape:zoom="3.6875"
     inkscape:cx="32.135593"
     inkscape:cy="32.135593"
     inkscape:window-width="1920"
     inkscape:window-height="1002"
     inkscape:window-x="0"
     inkscape:window-y="0"
     inkscape:window-maximized="1"
     inkscape:current-layer="svg13069" />
  <defs
     id="defs13039">
    <linearGradient
       id="linearGradient13870"
       x1="439.57"
       x2="429.57"
       y1="502.8"
       y2="512.8"
       gradientTransform="matrix(.23625 0 0 .23625 -89.696 -112.94)"
       gradientUnits="userSpaceOnUse">
      <stop
         stop-color="#2e3440"
         offset="0"
         id="stop13866"
         style="stop-color:#5e81ac;stop-opacity:1;" />
      <stop
         stop-opacity="0"
         offset="1"
         id="stop13868"
         style="stop-color:#b1c3d5;stop-opacity:1;" />
    </linearGradient>
    <filter
       id="filter1178"
       x="-0.047999482"
       y="-0.047999482"
       width="1.095999"
       height="1.095999"
       color-interpolation-filters="sRGB">
      <feGaussianBlur
         stdDeviation="0.30691668"
         id="feGaussianBlur13024" />
    </filter>
    <linearGradient
       id="linearGradient1340"
       x1="8.355"
       x2="8.3996"
       y1="16.007"
       y2=".79375"
       gradientUnits="userSpaceOnUse">
      <stop
         stop-color="#d8dee9"
         offset="0"
         id="stop13027" />
      <stop
         stop-color="#eceff4"
         offset="1"
         id="stop13029" />
    </linearGradient>
    <linearGradient
       id="linearGradient4434"
       x1="439.57"
       x2="429.57"
       y1="502.8"
       y2="512.8"
       gradientTransform="matrix(.23625 0 0 .23625 -89.696 -112.94)"
       gradientUnits="userSpaceOnUse">
      <stop
         stop-color="#2e3440"
         offset="0"
         id="stop13032" />
      <stop
         stop-opacity="0"
         offset="1"
         id="stop13034" />
    </linearGradient>
    <style
       type="text/css"
       id="style13037">.ColorScheme-Text {
        color:#232629;
      }</style>
  </defs>
  <g
     stroke-linecap="round"
     stroke-linejoin="round"
     id="g13047">
    <rect
       transform="matrix(.99138 0 0 1 .072989 2.5202e-7)"
       x=".79375"
       y="1.0171"
       width="15.346"
       height="15.346"
       rx="3.0526"
       ry="3.0526"
       fill="#2e3440"
       filter="url(#filter1178)"
       opacity=".2"
       stroke-width="1.2489"
       style="mix-blend-mode:normal"
       id="rect13041" />
    <rect
       x=".92604"
       y=".92604"
       width="15.081"
       height="15.081"
       rx="3"
       ry="3"
       fill="url(#linearGradient1340)"
       stroke-width="1.2274"
       id="rect13043" />
    <path
       style="color:#eff0f1;fill:#5e81ac;fill-opacity:1;stroke:none;stroke-width:0.634987"
       d="m 6.6086498,9.1692195 c -1.7534799,0 -3.1749549,1.4214675 -3.1749549,3.1749495 0,1.753462 1.421475,3.174929 3.1749549,3.174929 1.7534534,0 3.1749253,-1.421467 3.1749253,-3.174929 0,-1.753482 -1.4214719,-3.1749495 -3.1749253,-3.1749495 z m 1.2736865,0.9921665 c 8.632e-4,0.03071 -0.025606,0.02898 -0.033551,0.04962 0.00454,0.01333 0.031268,0.0176 0.033551,0.03349 -9.917e-4,0.0169 -0.039906,0.01464 -0.033551,0.03224 0.028722,0.02218 0.056059,0.0053 0.083178,0 0.059235,-0.0073 0.1123577,-0.0023 0.1488179,-0.03224 0.2150844,-0.09835 0,0.02809 0,0.0496 -0.013332,0.0085 -0.036824,0.04961 -0.049627,0.04961 -0.01589,0 -0.03844,-0.02062 -0.049621,-0.01729 -0.016131,0.0053 -0.016006,0.02712 -0.033551,0.03349 -0.034972,0.01267 -0.1031849,-0.01897 -0.1152686,0.03349 0.015538,0.03017 0.072736,0.01524 0.099177,0.03224 0.016449,0.01054 0.045522,0.04897 0.04962,0.06697 0.0034,0.01465 0.00514,0.08334 0,0.09921 -0.016444,0.04232 -0.067818,0.03277 -0.1166282,0.03224 h -0.032178 c -0.081898,-0.0053 -0.1614036,-0.04137 -0.1984381,0.0173 9.918e-4,0.04496 0.00922,0.07618 0,0.115354 -0.00765,0.02854 -0.051155,0.05846 -0.04962,0.08305 5.741e-4,0.01267 0.028898,0.03168 0.032188,0.04959 8.633e-4,0.0094 -0.0034,0.02328 0,0.03226 0.01409,0.02587 0.042696,-0.006 0.067122,0 0.023294,0.0059 0.04962,0.04097 0.04962,0.06693 0,0.01852 -0.00494,0.04775 -0.016954,0.06577 -0.023304,0.03495 -0.065836,0.03056 -0.099182,0.04961 -0.027407,0.01591 -0.033338,0.05578 -0.049619,0.08306 -0.01842,0.02963 -0.039165,0.03945 -0.032198,0.08187 -0.023912,0.04707 -0.050207,0.07644 -0.099179,0.0992 -0.014468,0.0065 -0.036202,0.0078 -0.049621,0.01735 -0.00998,0.0074 -0.019577,0.03262 -0.033551,0.04961 -0.019256,0.02065 -0.0396,0.03374 -0.04962,0.04961 -0.00765,0.01208 -0.00784,0.03264 -0.016306,0.04961 -0.01081,0.02219 -0.034911,0.02728 -0.049621,0.04962 -0.00686,0.01058 -0.00921,0.03586 -0.016923,0.04962 -0.016856,0.03067 -0.035476,0.05487 -0.032197,0.08184 9.919e-4,0.02541 0.030736,0.02634 0.032197,0.04962 8.634e-4,0.01267 -0.016678,0.0192 -0.016306,0.03351 5.87e-4,0.02007 0.015429,0.03371 0.016306,0.04963 0.00124,0.03915 -0.024804,0.05631 -0.032197,0.08311 -0.00124,0.01266 0.00117,0.02165 0,0.03222 -0.00514,0.01953 -0.033003,0.04359 -0.033551,0.06695 -5.812e-4,0.0165 0.031877,0.02634 0.033551,0.04962 8.633e-4,0.01524 -0.021077,0.03484 -0.016954,0.04962 0.00494,0.02856 0.060804,0.05963 0.083176,0.08187 0.030252,0.03016 0.069698,0.05131 0.083177,0.08311 0.01049,0.02695 0.010697,0.0791 0.032198,0.09919 0.015894,0.01467 0.047486,0.01761 0.067122,0.03353 0.019258,0.01438 0.030049,0.01647 0.049621,0.03227 0.032256,0.0254 0.080036,0.08683 0.1315112,0.08311 0.026894,-0.0056 0.052856,-0.02816 0.083171,-0.03353 0.03121,-0.0056 0.067299,-0.01882 0.099181,-0.01613 0.024119,0.0056 0.05764,0.01766 0.083163,0.01613 0.02642,-0.0056 0.051771,-0.0032 0.081698,-0.01613 0.052548,-0.02271 0.1395563,-0.06057 0.2158093,-0.0496 0.058113,0.0084 0.058404,0.07328 0.099177,0.09919 0.046497,0.0056 0.078386,-0.0088 0.1152719,0 0.028084,0.0068 0.063048,0.04371 0.065641,0.06571 9.916e-4,0.02271 -0.028902,0.05261 -0.032138,0.06702 -0.00765,0.03067 0.00474,0.06232 0,0.08185 -0.0034,0.01525 -0.018839,0.03426 -0.016922,0.0496 0,0.01367 0.019985,0.04886 0.033552,0.06705 0.01842,0.02214 0.044652,0.04182 0.065652,0.06571 0.038478,0.04447 0.056025,0.0901 0.083153,0.148807 0.00686,0.01438 -0.00514,0.03056 0,0.04962 -0.010682,0.08882 -0.040878,0.149637 -0.099181,0.248044 -0.027467,0.03177 -0.066367,0.05952 -0.065635,0.09918 -8.633e-4,0.09532 0.053768,0.155986 0.049619,0.248051 -0.00901,0.123784 0.00839,0.132293 0,0.198429 0.041718,0.02122 0.013313,0.08877 0,0.132719 -0.2111387,0.730788 -2.0974844,1.029017 -2.7458216,0.611419 0.00901,-0.01357 0.063496,-0.01341 0.083156,-0.01626 0.028084,-0.0054 0.06721,-0.0091 0.083176,-0.01698 0.018421,-0.01053 0.035486,-0.04929 0.032215,-0.08171 -8.633e-4,-0.01581 -0.020761,-0.02028 -0.032215,-0.03355 -0.00922,-0.01069 0.00686,-0.02242 0,-0.03355 -0.013574,-0.01926 -0.044264,-0.02265 -0.049635,-0.04962 0.038289,-0.0076 0.093674,0.03277 0.1488156,0.01696 0.026024,-0.0076 0.06963,-0.05866 0.081696,-0.08317 0.00124,-0.0077 -0.0034,-0.02398 0,-0.03355 0.00454,-0.0091 0.016139,-0.02696 0.016938,-0.03218 0.00124,-0.01428 -0.0012,-0.0079 0,-0.01686 0.00839,-0.02697 0.033655,-0.04653 0.049619,-0.06573 0.013321,-0.01438 0.03843,-0.03426 0.04962,-0.0496 0.013578,-0.01612 0.00775,-0.01916 0.016316,-0.03355 0.00779,-0.04807 -0.027852,-0.08914 -0.016316,-0.13146 0.013578,-0.0476 0.08552,-0.07755 0.1315264,-0.09919 0.016123,-0.0078 0.036262,-0.01306 0.049622,-0.01686 0.031664,-0.0109 0.06959,-0.02162 0.099181,-0.03224 0.049762,-0.01741 0.058673,-0.05378 0.083179,-0.09918 0.01083,-0.02117 0.031263,-0.05147 0.033551,-0.06709 8.632e-4,-0.01381 -9.918e-4,-0.016 0,-0.03222 9.917e-4,-0.01555 -0.0034,-0.03167 0,-0.04962 0.00494,-0.02265 0.016306,-0.07386 0.016306,-0.09918 0,-0.02115 -0.016006,-0.03056 -0.016306,-0.04962 -0.00124,-0.06881 0.024078,-0.06168 0.049621,-0.09918 0.01358,-0.01861 0.023284,-0.05366 0.032222,-0.06708 0.043077,-0.06354 0.1219092,-0.08477 0.1166199,-0.181066 -8.634e-4,-0.03176 -0.02637,-0.106547 -0.04962,-0.116564 -0.013855,-0.0059 -0.030129,-0.0091 -0.049621,-0.01612 -0.06242,-0.02331 -0.1173436,-0.09397 -0.1823324,-0.09918 h -0.033551 c -0.025481,0 -0.053154,-0.01257 -0.081698,-0.01614 -0.018904,-0.0056 -0.056346,0.0056 -0.067112,0 -0.016451,-0.0079 -0.0198,-0.04068 -0.032236,-0.04961 -0.00947,-0.0076 -0.033358,-0.01145 -0.04962,-0.01735 -0.02606,-0.0093 -0.036788,-0.03012 -0.067122,-0.03226 -0.00901,0 -0.021688,0.0056 -0.032188,0 -0.016438,-0.0056 -0.034248,-0.0078 -0.049619,-0.0173 -0.019772,-0.01141 -0.041604,-0.01586 -0.049635,-0.03224 0.018435,-0.05706 -0.03805,-0.06588 -0.04962,-0.09919 -0.00474,-0.01524 0.00474,-0.05324 0,-0.067 -0.00686,-0.01957 -0.027986,-0.03317 -0.049627,-0.0496 -0.038289,-0.02963 -0.062289,-0.04275 -0.1166356,-0.0496 -0.02412,-0.0056 -0.05278,0.0056 -0.081697,0 -0.030781,-0.0056 -0.075996,-0.02318 -0.099177,-0.0496 -0.022414,-0.02591 -0.030131,-0.05351 -0.04962,-0.0657 -0.019257,-0.01151 -0.03682,-0.02133 -0.049628,-0.03352 -0.00494,-0.0056 -0.01321,-0.0041 -0.016922,-0.01611 -0.00841,-0.01956 -0.02789,-0.02581 -0.016306,-0.04961 -0.021531,-0.01066 -0.010096,0.01972 -0.033551,0.01612 -0.021087,-0.02911 -0.035314,-0.05808 -0.081698,-0.04961 -0.02153,0.0056 -0.042131,0.04905 -0.067122,0.04961 -0.021086,0 -0.03852,-0.04534 -0.065662,-0.04961 -0.021038,-0.0056 -0.051398,0.02 -0.065634,0.01731 -0.02283,-0.0056 -0.028868,-0.01968 -0.049621,-0.03352 -0.015872,-0.0099 -0.040979,-0.03402 -0.04962,-0.03352 -0.02642,0 -0.04647,0.05277 -0.083163,0.03352 -0.018928,-0.02269 0.037344,-0.0284 0.016316,-0.04961 -0.016123,-0.01524 -0.02007,0.0086 -0.032228,0.01614 -0.015544,0.009 -0.033398,0.0115 -0.049627,0.0173 -0.036414,0.01382 -0.070614,0.01685 -0.099176,0.03224 -0.02642,0.01382 -0.034256,0.0224 -0.049621,0.04961 -0.013278,0.02218 -0.031151,0.06588 -0.049625,0.06693 -0.022414,0 -0.029516,-0.02449 -0.049625,-0.03352 -0.060794,-0.02644 -0.098468,0.01508 -0.1488153,0.01608 -0.046445,0 -0.1186585,-0.07143 -0.1166009,-0.115328 8.634e-4,-0.027 0.01438,-0.06588 0.016922,-0.09919 9.917e-4,-0.02644 0.031674,-0.05894 0.032214,-0.08312 5.826e-4,-0.03282 -0.060603,-0.04586 -0.081699,-0.04962 -0.049744,-0.0087 -0.1096024,0.02222 -0.1661363,0 -0.00998,-0.01787 0.01049,-0.03164 0.016924,-0.04962 0.00124,-0.0091 -0.00124,-0.02118 0,-0.03225 0.00514,-0.01689 0.041615,-0.03167 0.049622,-0.04962 0.00494,-0.01382 -0.00494,-0.03215 0,-0.04963 0.00686,-0.0191 0.030716,-0.03586 0.032207,-0.04962 8.632e-4,-0.01793 -0.018928,-0.03792 -0.032207,-0.04962 -0.043906,0.0057 -0.073896,0.0032 -0.099179,0.01611 -0.057226,0.02591 -0.041546,0.09737 -0.099178,0.115352 -0.1119715,-0.245305 0.1321038,-0.403028 0.2480351,-0.56182 0.041214,0.0059 0.061743,-0.006 0.099179,0 0.0255,0.0059 0.061773,0.03139 0.081698,0.03348 0.016856,0 0.018427,-0.01945 0.033551,-0.01737 0.016138,0.0059 0.047022,0.03056 0.049621,0.04962 9.918e-4,0.02379 -0.023102,0.05687 -0.016306,0.08305 0.024814,0.02542 0.079864,0.03481 0.1152711,0.0496 0.023274,-0.01953 0.00124,-0.05563 0,-0.08306 -5.903e-4,-0.01208 8.634e-4,-0.03849 0,-0.04961 -9.918e-4,-0.01908 -0.016316,-0.03311 -0.016316,-0.04962 0,-0.07564 0.064702,-0.101876 0.1152706,-0.131467 0.021688,-0.01267 0.046646,-0.04009 0.06567,-0.04961 0.026884,-0.01337 0.044806,-0.0054 0.067122,-0.01735 0.040277,-0.02271 0.067978,-0.0561 0.099182,-0.08188 0.014468,-0.0344 -8.633e-4,-0.08275 0,-0.116585 0.014468,-0.0091 0.034255,0 0.049619,0 0.024193,-0.006 0.035945,-0.03582 0.049664,-0.04959 0.0078,-0.0082 0.022932,-0.0084 0.032267,-0.01609 0.024144,-0.01907 0.028588,-0.04117 0.049626,-0.0496 0.00765,-0.0056 0.021903,-0.01241 0.033551,-0.01609 0.016145,-0.0057 0.040418,-0.0078 0.06567,-0.01733 0.016441,-0.006 0.060531,-0.0094 0.067122,-0.0161 0.00779,-0.0081 -8.632e-4,-0.03741 0,-0.04959 0.013575,-0.05975 0.095473,-0.06293 0.1488116,-0.08309 0.036911,-0.01375 0.074198,-0.05702 0.1152664,-0.04962 -0.0078,0.02857 -0.040438,0.03252 -0.033551,0.06697 0.00814,0.04816 0.066186,-0.01042 0.083176,-0.0173 0.032256,-0.01383 0.090397,-0.03374 0.1326208,-0.04961 0.036958,-0.01333 0.1007424,-0.02312 0.06568,-0.06575 -0.028917,-0.0053 -0.040421,0.02293 -0.06568,0.03349 -0.018427,0.0053 -0.019627,-0.01583 -0.033551,-0.01729 -0.014468,0 -0.019987,0.02 -0.033551,0.01729 -0.014468,-0.0053 -0.030154,-0.03215 -0.032227,-0.04961 -0.00494,-0.04444 0.031586,-0.05035 0.049644,-0.08309 -0.013313,-0.04022 -0.065304,-0.0176 -0.099178,-0.03349 0.00124,-0.0238 0.021688,-0.04432 0.049654,-0.04961 0.022898,-0.0053 0.085558,0.0051 0.099178,0.0173 0.0078,0.0071 -0.013314,0.0212 0,0.03224 0.014109,0.01208 0.031498,0.0053 0.04962,0 0.00514,-0.03016 -0.038689,-0.01265 -0.033551,-0.03224 0.03599,-0.02329 0.1049274,-0.01161 0.1488153,-0.0173 0.025482,-0.0053 0.060123,-0.02005 0.083179,-0.03224 0.021531,-0.01208 0.02727,-0.03745 0.049621,-0.0173 0.00514,0.02169 -0.00474,0.03796 -0.016944,0.04961 -0.04078,0.03599 -0.08369,0.07483 -0.1152725,0.116584 0.020296,0.01909 0.050352,0.01237 0.083171,0.01611 0.013578,0.0053 0.036262,-0.0025 0.04962,0 0.016144,0.0053 0.036824,-0.0052 0.049619,0 0.022414,0.0053 0.027318,0.04961 0.049654,0.04961 0.03599,0 0.021077,-0.04181 0,-0.06575 0.00514,-0.02488 0.025067,-0.04941 0.016296,-0.06696 -0.016444,-0.03281 -0.079876,0.01055 -0.083179,-0.03224 -8.634e-4,-0.02645 0.024,-0.02951 0.033551,-0.04961 -0.0034,-0.0508 0.038622,-0.05318 0.033551,-0.0992 -9.917e-4,-0.01909 -0.020763,-0.01543 -0.033551,-0.03349 -0.00686,-0.0096 -0.00784,-0.04221 -0.016316,-0.04961 -0.027427,-0.02329 -0.079829,-0.0049 -0.083169,-0.04962 -8.634e-4,-0.02646 0.00124,-0.05472 0,-0.08309 0.6923797,-0.2933204 1.4008319,0.03735 1.7697744,0.2319688 z M 7.7497237,10.046043 c -0.00909,0.0052 -0.00765,0.01092 -0.016306,0.01611 -0.020706,0.01208 -0.034139,0.02767 -0.04962,0.0335 -0.021688,0.008 -0.046394,0.01265 -0.049621,0.03224 -9.918e-4,0.0165 0.016607,0.01823 0.016306,0.03349 -0.0078,0.01952 -0.01083,0.02581 -0.016306,0.04961 0.026894,0.04392 0.081955,-0.0094 0.1152666,-0.01611 0.015544,-0.0053 0.025606,-0.0047 0.033551,-0.01729 0.00814,-0.01433 0.00834,-0.02939 0.016306,-0.04962 0.092004,-0.06169 -0.035921,-0.05904 -0.04962,-0.08184 z m -2.7941872,0.429114 c 0.013575,0 0.018419,0.03241 0.032168,0.03349 0.014468,0 0.024909,-0.01829 0.033551,-0.01611 0.022414,0.0058 0.037393,0.04921 0.016326,0.06575 -0.018418,0.0052 -0.020361,-0.01829 -0.032188,-0.01611 -0.03599,0.0064 -0.056017,0.08399 -0.083159,0.08185 -0.02551,-0.0052 -0.042119,-0.06335 -0.016306,-0.08185 5.811e-4,-0.01593 -8.632e-4,-0.017 0,-0.03349 0.00779,-0.0096 0.028607,-0.03505 0.049619,-0.03349 z m 3.4552117,0.09921 c 0.1445768,0.04985 0.2090768,0.221313 0.2976718,0.315016 0.1895459,-0.162614 0.1481152,0.252486 0.1823469,0.363385 -0.028045,0.006 -0.060533,-0.02453 -0.099176,-0.03347 -0.016123,-0.006 -0.036841,0.006 -0.049628,0 -0.028913,-0.0094 -0.024746,-0.04812 -0.04962,-0.06579 -0.014662,-0.0099 -0.060183,-0.03078 -0.083164,-0.03345 -0.014469,0 -0.01842,0.006 -0.032216,0 -0.018827,-0.0059 -0.052172,0.0072 -0.067112,0 -0.014468,-0.0091 -0.045707,-0.0374 -0.04962,-0.04961 -0.00494,-0.01957 0.048474,-0.03301 0.04962,-0.04961 8.634e-4,-0.01268 -0.013965,-0.02998 -0.016306,-0.04961 -8.633e-4,-0.01179 9.918e-4,-0.02435 0,-0.03227 -0.00124,-0.01374 -0.027986,-0.01681 -0.04962,-0.01734 h -0.049621 c -0.023304,0 -0.070074,-0.0026 -0.099178,0 -0.018429,0 -0.033417,-0.0018 -0.049684,0 -0.045973,0.0059 -0.079262,-0.006 -0.1152689,0 -0.025965,0 -0.074816,0.02231 -0.099179,0.03348 -0.01331,0.0059 -0.018222,0.0082 -0.033551,0.01611 -0.00765,0.006 -0.024,0.01305 -0.033552,0.01736 -0.01556,0.007 -0.035362,0.02801 -0.049627,0.03229 -0.021067,0.0059 -0.044218,-0.006 -0.081698,0 -0.026894,0 -0.066454,-0.01735 -0.067122,-0.04961 -5.81e-4,-0.04921 0.086302,-0.02329 0.1326276,-0.03227 0.018422,-0.006 0.028646,-0.02082 0.049622,-0.03348 0.00922,-0.006 0.00677,-0.0095 0.016306,-0.01612 0.016139,-0.01116 0.047062,-0.03695 0.04962,-0.0496 8.632e-4,-0.01179 -8.633e-4,-0.02454 0,-0.03348 8.632e-4,-0.01114 0.019984,-0.01868 0.033551,-0.03349 0.022414,-0.02218 0.038331,-0.05136 0.06564,-0.06576 0.019253,-0.0096 0.040936,-0.0182 0.049621,-0.03349 8.632e-4,-0.01691 -6.02e-4,-0.01647 0,-0.03224 0.010751,-0.01055 0.024,-0.01519 0.033551,-0.01729 0.028722,-0.0064 0.049762,0.0016 0.083179,0 0.014469,0 0.034238,0.0071 0.049622,0 0.013583,-0.0085 0.020057,-0.02591 0.032198,-0.03224 0.014099,-0.0073 0.032747,-0.01632 0.049622,-0.0173 z m 0.2976699,0.315017 h -0.065677 c -0.023274,0 -0.052014,-0.0121 -0.065657,0 0.020273,0.03182 0.055239,0.0417 0.099181,0.04961 0.016132,-0.01178 0.024804,-0.02937 0.03222,-0.04961 z m -3.6214535,-0.29765 h 0.049619 c 0.013848,0 0.02826,-0.0053 0.033551,0 -0.00794,0.03493 -0.087862,0.02881 -0.1152588,0.01612 8.632e-4,-0.01333 0.015872,-0.01417 0.032188,-0.01612 z m -0.1152736,0.06575 c -0.02313,0.01681 -0.046388,0.03815 -0.083177,0.0496 -0.020761,0.0064 -0.045717,0.0062 -0.049622,-0.0161 -0.0034,-0.02751 0.03151,-0.01461 0.049622,-0.01732 0.023345,-0.0054 0.056018,-0.01511 0.083177,-0.01609 z m 3.4391035,0 c -0.018422,0.006 -0.026051,0.04432 0,0.0496 0.01331,-0.0074 0.021086,-0.02689 0.016944,-0.0496 -0.00686,-0.0074 -0.01324,-0.0054 -0.016944,0 z m -0.03222,0.08306 c 5.902e-4,0.02965 0.00494,0.05617 0,0.08187 0.016855,0.0328 0.057464,0.0062 0.065655,-0.0161 0.00922,-0.05502 -0.00784,-0.07263 -0.033552,-0.06578 -0.00794,0.0057 -0.023304,-0.0072 -0.032207,0 z m -4.299814,1.322064 c 0.013828,0.0071 0.032757,0.01307 0.049621,0.0173 0.014101,0.0056 0.020749,-0.0042 0.033552,0 0.028064,0.009 0.059788,0.02218 0.081697,0.03228 0.033699,0.01466 0.070064,0.06611 0.099179,0.08312 8.632e-4,0.01688 -0.00474,0.03688 0,0.04961 0.014105,0.01851 0.027312,0.03689 0.049622,0.04961 0.026894,0.0146 0.041575,0.03788 0.067122,0.04961 0.00814,0.0055 0.019254,-0.0056 0.032212,0 0.034964,0.0107 0.052855,0.05847 0.083168,0.04961 0.020304,-0.0059 0.013654,-0.03054 0.016306,-0.04961 0.013867,-0.01435 0.028855,-0.03352 0.04962,-0.03352 0.032821,0 0.037554,0.05102 0.049619,0.0831 0.00686,0.01791 0.02878,0.03054 0.033551,0.0496 0.00779,0.0328 0.00686,0.129236 0,0.148811 -0.00794,0.02438 -0.04561,0.02304 -0.065631,0.0496 -0.00901,0.0129 -0.00922,0.04068 -0.016934,0.04961 -0.013576,0.01525 -0.022878,0.01873 -0.03222,0.03353 -0.00474,0.008 -0.013578,0.02116 -0.01692,0.03225 -0.016132,0.03388 -0.045551,0.05848 -0.032221,0.09919 0.00474,0.01648 0.032221,0.03001 0.032221,0.04961 0,0.02331 -0.045717,0.04147 -0.049621,0.06705 -9.918e-4,0.01853 0.01069,0.04093 0.016923,0.0657 0.0034,0.01853 0.038439,0.03748 0.049622,0.04962 0.019257,0.02073 0.032781,0.0569 0.049622,0.08313 0.033501,0.05134 0.049056,0.114676 0.081698,0.164936 0.018419,0.02589 0.055249,0.03841 0.067122,0.06569 0.00494,0.01384 -0.00474,0.03693 0,0.04962 0.019783,0.04284 0.105861,0.09549 0.1488176,0.116583 0.020748,0.0099 0.04722,0.0059 0.065661,0.01626 0.028074,0.016 0.08487,0.05841 0.099176,0.08313 0.013577,0.02219 0.0091,0.07991 0.016306,0.115279 0.00779,0.04659 -8.635e-4,0.08238 0,0.132696 8.632e-4,0.0275 0.016926,0.03841 0.016926,0.06575 0,0.0093 5.758e-4,0.0395 0,0.0496 -5.793e-4,0.0328 9.917e-4,0.06583 0,0.09918 -8.633e-4,0.01864 -8.633e-4,0.03429 0,0.0496 8.634e-4,0.0161 0.015718,0.01926 0.016326,0.03355 8.634e-4,0.01558 -0.018667,0.03744 -0.016326,0.0496 0.00124,0.03349 0.025979,0.05115 0.032198,0.08171 0.00474,0.02414 0.021068,0.08743 0.016944,0.116572 -0.571124,0.11165 -1.1326685,-1.809551 -1.1248702,-2.398682 z m 0.9425613,0.198444 c 0.025502,-0.01163 0.021086,0.02979 0,0.03352 -0.020322,0.0056 -0.019762,-0.02397 0,-0.03352 z"
       class="ColorScheme-Text"
       id="path13192" />
    <rect
       x=".01215"
       y=".0060174"
       width="16.924"
       height="16.927"
       fill="none"
       opacity=".15"
       stroke-width="1.052"
       id="rect13045" />
  </g>
  <flowRoot
     transform="matrix(.23625 0 0 .23625 -89.696 -112.94)"
     font-family="sans-serif"
     font-size="32.5px"
     line-height="125%"
     id="flowRoot13055"><flowRegion
       id="flowRegion13051"><rect
         x="452.32"
         y="489.8"
         width="87.75"
         height="48.75"
         id="rect13049" /></flowRegion><flowPara
       id="flowPara13053">Plasm</flowPara></flowRoot>
  <g
     transform="matrix(.85703 0 0 .85703 1.0028 1.4551)"
     stroke-width=".23625"
     id="g13067">
    <path
       d="m10.844 2.5415-1.4175 1.4175 2.5987 2.5987-2.5987 2.5987 1.4175 1.4175 4.0162-4.0162z"
       fill="#434c5e"
       fill-rule="evenodd"
       id="path13057" />
    <rect
       x="4.8787"
       y="2.7777"
       width="1.4765"
       height="1.4765"
       rx=".73827"
       fill="#d08770"
       id="rect13059" />
    <rect
       x="2.5754"
       y="7.3847"
       width="2.1262"
       height="2.1262"
       rx="1.0631"
       fill="#a3be8c"
       id="rect13061" />
    <path
       d="m10.371 8.2114 1.4175 1.4175 1.6537-1.6537-1.4175-1.4175z"
       fill="url(#linearGradient4434)"
       fill-rule="evenodd"
       opacity=".9"
       id="path13065" />
  </g>
</svg>
