<?xml version="1.0" encoding="UTF-8" standalone="no"?>
<!-- Created with Inkscape (http://www.inkscape.org/) -->

<svg
   width="64.0px"
   height="64.0px"
   viewBox="0 0 64.0 64.0"
   version="1.1"
   id="SVGRoot"
   sodipodi:docname="plasmadiscover-1.svg"
   inkscape:version="1.2.1 (9c6d41e410, 2022-07-14)"
   xmlns:inkscape="http://www.inkscape.org/namespaces/inkscape"
   xmlns:sodipodi="http://sodipodi.sourceforge.net/DTD/sodipodi-0.dtd"
   xmlns:xlink="http://www.w3.org/1999/xlink"
   xmlns="http://www.w3.org/2000/svg"
   xmlns:svg="http://www.w3.org/2000/svg">
  <sodipodi:namedview
     id="namedview6863"
     pagecolor="#ffffff"
     bordercolor="#666666"
     borderopacity="1.0"
     inkscape:showpageshadow="2"
     inkscape:pageopacity="0.0"
     inkscape:pagecheckerboard="0"
     inkscape:deskcolor="#d1d1d1"
     inkscape:document-units="px"
     showgrid="true"
     inkscape:zoom="9.5144352"
     inkscape:cx="16.869104"
     inkscape:cy="41.673519"
     inkscape:window-width="1920"
     inkscape:window-height="1002"
     inkscape:window-x="0"
     inkscape:window-y="0"
     inkscape:window-maximized="1"
     inkscape:current-layer="layer1">
    <inkscape:grid
       type="xygrid"
       id="grid6986" />
  </sodipodi:namedview>
  <defs
     id="defs6858">
    <filter
       id="filter1057-6"
       x="-0.026999999"
       y="-0.026999999"
       width="1.054"
       height="1.054"
       color-interpolation-filters="sRGB">
      <feGaussianBlur
         stdDeviation="0.61875"
         id="feGaussianBlur995" />
    </filter>
    <linearGradient
       id="linearGradient1053"
       x1="-127"
       x2="-73.5"
       y1="60"
       y2="4.5100002"
       gradientTransform="matrix(1.036364,0,0,1.036364,135.21421,-0.93364301)"
       gradientUnits="userSpaceOnUse">
      <stop
         stop-color="#32d7ff"
         offset="0"
         id="stop998" />
      <stop
         stop-color="#329bff"
         offset="1"
         id="stop1000" />
    </linearGradient>
    <filter
       id="f-3"
       x="-0.099686647"
       y="-0.1178261"
       width="1.1993733"
       height="1.2356522"
       color-interpolation-filters="sRGB">
      <feGaussianBlur
         stdDeviation="1.4085099"
         id="feGaussianBlur12-6" />
    </filter>
    <filter
       id="g-7"
       x="-0.059999899"
       y="-0.059999899"
       width="1.1199998"
       height="1.1199998"
       color-interpolation-filters="sRGB">
      <feGaussianBlur
         stdDeviation="0.26086955"
         id="feGaussianBlur15-5" />
    </filter>
    <filter
       id="filter1057-6-3"
       x="-0.026999999"
       y="-0.026999999"
       width="1.054"
       height="1.054"
       color-interpolation-filters="sRGB">
      <feGaussianBlur
         stdDeviation="0.61875"
         id="feGaussianBlur995-6" />
    </filter>
    <linearGradient
       inkscape:collect="always"
       xlink:href="#linearGradient950"
       id="linearGradient952"
       x1="3.5"
       y1="60.5"
       x2="60"
       y2="4"
       gradientUnits="userSpaceOnUse"
       gradientTransform="translate(-0.01500011,-0.01500115)" />
    <linearGradient
       inkscape:collect="always"
       id="linearGradient950">
      <stop
         style="stop-color:#88c0d0;stop-opacity:1;"
         offset="0"
         id="stop946" />
      <stop
         style="stop-color:#5e81ac;stop-opacity:1;"
         offset="1"
         id="stop948" />
    </linearGradient>
    <linearGradient
       id="d"
       y1="509.79999"
       x1="394.57001"
       y2="537.95001"
       x2="422.73001"
       gradientUnits="userSpaceOnUse">
      <stop
         stop-color="#e5e7e8"
         id="stop17" />
      <stop
         offset="1"
         stop-color="#dcdee0"
         id="stop19" />
    </linearGradient>
    <linearGradient
       id="e"
       x1="389.57001"
       x2="427.57001"
       gradientUnits="userSpaceOnUse"
       gradientTransform="matrix(0.70711,0.70711,-0.70711,0.70711,490.05,-135.49)">
      <stop
         stop-color="#fcfcfc"
         id="stop22" />
      <stop
         offset="1"
         stop-color="#eff0f1"
         id="stop24" />
    </linearGradient>
    <linearGradient
       id="b"
       y1="44.09"
       x1="26.362"
       y2="33.75"
       x2="44"
       gradientUnits="userSpaceOnUse">
      <stop
         stop-color="#c0392b"
         id="stop7" />
      <stop
         offset="1"
         stop-color="#c0392b"
         stop-opacity="0"
         id="stop9" />
    </linearGradient>
    <linearGradient
       xlink:href="#d"
       id="f"
       y1="133.33"
       x1="771.70001"
       y2="160.66"
       gradientUnits="userSpaceOnUse"
       x2="799.03998" />
    <linearGradient
       id="h"
       y1="557.79999"
       y2="505.79999"
       gradientUnits="userSpaceOnUse"
       x2="0"
       gradientTransform="matrix(0.61141,0,0,0.76923,146.92,114.72)">
      <stop
         stop-color="#42a603"
         id="stop33" />
      <stop
         offset="1"
         stop-color="#78da06"
         id="stop35" />
    </linearGradient>
    <linearGradient
       id="g"
       y1="551.79999"
       y2="528.79999"
       gradientUnits="userSpaceOnUse"
       x2="0"
       gradientTransform="matrix(0.49677,0,0,0.76923,194.57,97.03)">
      <stop
         stop-color="#c6cdd1"
         id="stop28" />
      <stop
         offset="1"
         stop-color="#e0e5e7"
         id="stop30" />
    </linearGradient>
    <linearGradient
       id="i"
       x1="398.57001"
       x2="400.57001"
       gradientUnits="userSpaceOnUse"
       gradientTransform="matrix(1.5625,0,0,1.53847,-227.95,-292.82)">
      <stop
         stop-color="#faae2a"
         id="stop38" />
      <stop
         offset="1"
         stop-color="#ffc35a"
         id="stop40" />
    </linearGradient>
    <linearGradient
       xlink:href="#i"
       id="j"
       x1="398.57001"
       gradientUnits="userSpaceOnUse"
       x2="400.57001"
       gradientTransform="matrix(1.5625,0,0,1.53847,-218.57,-292.82)" />
    <linearGradient
       id="linearGradient792"
       x1="398.57001"
       x2="400.57001"
       gradientUnits="userSpaceOnUse"
       gradientTransform="matrix(1.5625,0,0,1.53847,-227.95,-292.82)">
      <stop
         stop-color="#faae2a"
         id="stop788" />
      <stop
         offset="1"
         stop-color="#ffc35a"
         id="stop790" />
    </linearGradient>
    <linearGradient
       id="a"
       y1="525.26001"
       x1="395.91"
       y2="513.95001"
       x2="425.20999"
       gradientUnits="userSpaceOnUse"
       gradientTransform="translate(-384.57,-499.8)">
      <stop
         stop-color="#da4453"
         id="stop2" />
      <stop
         offset="1"
         stop-color="#ff7336"
         id="stop4" />
    </linearGradient>
    <linearGradient
       id="c"
       y1="519.84998"
       x1="388.57001"
       y2="528.52002"
       x2="398.82001"
       gradientUnits="userSpaceOnUse">
      <stop
         stop-color="#4d4d4d"
         id="stop12" />
      <stop
         offset="1"
         stop-color="#31363b"
         id="stop14" />
    </linearGradient>
    <linearGradient
       id="k"
       y1="539.88"
       x1="410.5"
       y2="529.72998"
       x2="390.64999"
       gradientUnits="userSpaceOnUse">
      <stop
         stop-color="#bcfd93"
         id="stop44" />
      <stop
         offset="1"
         stop-color="#fafff5"
         id="stop46" />
    </linearGradient>
    <linearGradient
       id="l"
       y1="34.612"
       x1="14.187"
       y2="54.612"
       x2="34.189999"
       gradientUnits="userSpaceOnUse">
      <stop
         stop-color="#383e51"
         id="stop49" />
      <stop
         offset="1"
         stop-color="#655c6f"
         stop-opacity="0"
         id="stop51" />
    </linearGradient>
    <linearGradient
       inkscape:collect="always"
       xlink:href="#d"
       id="linearGradient831"
       gradientUnits="userSpaceOnUse"
       x1="394.57001"
       y1="509.79999"
       x2="422.73001"
       y2="537.95001" />
    <linearGradient
       inkscape:collect="always"
       xlink:href="#i"
       id="linearGradient833"
       gradientUnits="userSpaceOnUse"
       gradientTransform="matrix(1.5625,0,0,1.53847,-227.95,-292.82)"
       x1="398.57001"
       x2="400.57001" />
  </defs>
  <g
     inkscape:label="Layer 1"
     inkscape:groupmode="layer"
     id="layer1">
    <rect
       x="4.4850001"
       y="4.4850001"
       width="55"
       height="55"
       ry="15"
       fill="#141414"
       opacity="0.3"
       stroke-linecap="round"
       stroke-width="2.7444"
       id="rect971-7"
       style="filter:url(#filter1057-6-3)" />
    <rect
       x="3.4849997"
       y="3.4849994"
       width="57"
       height="57"
       ry="10.881819"
       stroke-linecap="round"
       stroke-width="2.8442"
       id="rect973-5"
       rx="10.881819"
       style="fill:url(#linearGradient952);fill-opacity:1" />
    <g
       transform="translate(-376.567,-491.298)"
       id="g100">
      <g
         stroke-opacity="0.55"
         stroke-width="8.587"
         id="g70">
        <path
           fill="url(#d)"
           d="m 408.57,503.8 c -11.03,0 -19.913,8.838 -19.996,19.846 l 1.123,0.023 4.684,12.02 10.166,5.922 11.4,-0.707 7.779,-5.48 3.623,-12.02 -2.121,-8.662 -6.189,-7.631 -1.563,-1.156 -0.266,-0.186 c -2.616,-1.251 -5.537,-1.971 -8.641,-1.971 m 0,5 c 8.31,0 15,6.69 15,15 0,8.31 -6.69,15 -15,15 -8.31,0 -15,-6.69 -15,-15 0,-8.31 6.69,-15 15,-15"
           id="path56"
           style="fill:url(#linearGradient831)" />
        <path
           fill="url(#e)"
           d="m 408.57,504.78 c -4.857,0 -9.714,1.861 -13.436,5.582 -7.443,7.443 -7.443,19.428 0,26.871 7.443,7.443 19.428,7.443 26.871,0 7.443,-7.443 7.443,-19.428 0,-26.871 -3.721,-3.721 -8.579,-5.582 -13.436,-5.582 m 0,13.02 c 1.532,0 3.064,0.588 4.238,1.762 2.348,2.348 2.348,6.128 0,8.477 -2.348,2.348 -6.128,2.348 -8.477,0 -2.348,-2.348 -2.348,-6.128 0,-8.477 1.174,-1.174 2.706,-1.762 4.238,-1.762"
           id="path58"
           style="fill:url(#e)" />
        <path
           fill="url(#b)"
           d="m 4.01,23.5 c -0.004,0.167 -0.012,0.332 -0.012,0.5 0,11.08 8.92,20 20,20 11.08,0 20,-8.92 20,-20 0,-0.168 -0.008,-0.333 -0.012,-0.5 C 43.721,34.346 34.906,43 23.998,43 13.086,43 4.274,34.346 4.01,23.5"
           transform="translate(384.57,499.8)"
           id="path60"
           style="fill:url(#b)" />
        <path
           opacity="0.4"
           fill="#f9f9f9"
           d="m 408.57,516.8 c -1.788,0 -3.576,0.685 -4.945,2.055 -2.74,2.74 -2.74,7.151 0,9.891 2.74,2.74 7.151,2.74 9.891,0 2.74,-2.74 2.74,-7.151 0,-9.891 -1.37,-1.37 -3.158,-2.055 -4.945,-2.055 m -0.002,3.95508 a 3.00255,3.00255 0 0 1 3.002,3.0039 3.00255,3.00255 0 0 1 -3.00195,3.00196 3.00255,3.00255 0 0 1 -3.00391,-3.00196 3.00255,3.00255 0 0 1 3.00391,-3.0039"
           id="path62" />
        <path
           fill="url(#f)"
           d="m 408.75893,512.798 a 11,11 0 0 0 -0.7793,0.0273 11,11 0 0 0 -1.08984,0.13281 11,11 0 0 0 -1.07422,0.24024 11,11 0 0 0 -1.04297,0.34765 11,11 0 0 0 -1.0039,0.44727 11,11 0 0 0 -0.95313,0.54883 11,11 0 0 0 -0.89453,0.63867 11,11 0 0 0 -0.82617,0.72656 11,11 0 0 0 -0.74805,0.80469 11,11 0 0 0 -0.66601,0.875 11,11 0 0 0 -0.57422,0.9375 11,11 0 0 0 -0.47852,0.99023 11,11 0 0 0 -0.37891,1.03321 11,11 0 0 0 -0.27148,1.06445 11,11 0 0 0 -0.16406,1.08594 11,11 0 0 0 -0.0547,1.09961 11,11 0 0 0 0.0273,0.7793 11,11 0 0 0 0.13281,1.08984 11,11 0 0 0 0.24219,1.07422 11,11 0 0 0 0.3457,1.04297 11,11 0 0 0 0.44727,1.0039 11,11 0 0 0 0.54883,0.95313 11,11 0 0 0 0.64062,0.89453 11,11 0 0 0 0.72461,0.82617 11,11 0 0 0 0.80469,0.74805 11,11 0 0 0 0.875,0.66601 11,11 0 0 0 0.9375,0.57422 11,11 0 0 0 0.99023,0.47852 11,11 0 0 0 1.03321,0.37891 11,11 0 0 0 1.06445,0.27148 11,11 0 0 0 1.08594,0.16406 11,11 0 0 0 1.09961,0.0547 11,11 0 0 0 0.7793,-0.0273 11,11 0 0 0 1.08984,-0.13281 11,11 0 0 0 1.07422,-0.24219 11,11 0 0 0 1.04297,-0.3457 11,11 0 0 0 1.0039,-0.44727 11,11 0 0 0 0.95313,-0.54883 11,11 0 0 0 0.89453,-0.64062 11,11 0 0 0 0.82617,-0.72461 11,11 0 0 0 0.74805,-0.80469 11,11 0 0 0 0.66602,-0.875 11,11 0 0 0 0.57421,-0.9375 11,11 0 0 0 0.47852,-0.99023 11,11 0 0 0 0.37891,-1.03321 11,11 0 0 0 0.27148,-1.06445 11,11 0 0 0 0.16406,-1.08594 11,11 0 0 0 0.0547,-1.09961 11,11 0 0 0 -0.0273,-0.7793 11,11 0 0 0 -0.13281,-1.08984 11,11 0 0 0 -0.24219,-1.07422 11,11 0 0 0 -0.3457,-1.04297 11,11 0 0 0 -0.44727,-1.0039 11,11 0 0 0 -0.54883,-0.95313 11,11 0 0 0 -0.63867,-0.89453 11,11 0 0 0 -0.72656,-0.82617 11,11 0 0 0 -0.80469,-0.74805 11,11 0 0 0 -0.875,-0.66602 11,11 0 0 0 -0.9375,-0.57421 11,11 0 0 0 -0.99024,-0.47852 11,11 0 0 0 -1.0332,-0.37891 11,11 0 0 0 -1.06445,-0.27148 11,11 0 0 0 -1.08594,-0.16406 11,11 0 0 0 -1.09961,-0.0547 m -0.191,4.998 c 1.533,0 3.068,0.585 4.242,1.76 2.349,2.349 2.349,6.135 0,8.484 -2.349,2.349 -6.133,2.349 -8.482,0 -2.349,-2.349 -2.349,-6.135 0,-8.484 1.175,-1.175 2.707,-1.76 4.24,-1.76"
           id="path64"
           style="fill:url(#f)" />
        <path
           opacity="0.1"
           d="m 408.57,520.75 c -1.659,-10e-4 -3,1.345 -3,3 -10e-4,0.173 0.014,0.345 0.043,0.516 0.237,-1.452 1.49,-2.518 2.961,-2.52 1.46,0 2.709,1.05 2.959,2.488 0.027,-0.16 0.042,-0.322 0.043,-0.484 10e-4,-1.659 -1.343,-3 -3,-3"
           id="path66" />
        <path
           fill="#95a5a6"
           d="m 412.57,523.8 c 0,1.022 -0.391,2.043 -1.174,2.826 -0.783,0.783 -1.804,1.174 -2.826,1.174 v 1 c 1.277,0 2.555,-0.488 3.533,-1.467 0.978,-0.978 1.467,-2.256 1.467,-3.533 z"
           id="path68" />
      </g>
      <rect
         width="25"
         x="388.57001"
         y="521.79999"
         fill="url(#h)"
         rx="0"
         height="22"
         id="rect72"
         style="fill:url(#h)" />
      <rect
         width="25"
         x="388.57001"
         y="542.79999"
         stroke-opacity="0.55"
         fill="#46943b"
         rx="0"
         height="1"
         stroke-width="2.8"
         id="rect74" />
      <rect
         width="21"
         x="390.57001"
         y="503.79999"
         fill="url(#g)"
         rx="0"
         height="18"
         id="rect76"
         style="fill:url(#g)" />
      <g
         fill="#23262c"
         id="g82">
        <rect
           width="6"
           x="393.57001"
           y="506.79999"
           height="6"
           id="rect78" />
        <rect
           width="6"
           x="402.57001"
           y="506.79999"
           height="6"
           id="rect80" />
      </g>
      <rect
         width="4"
         x="394.57001"
         y="506.79999"
         fill="url(#i)"
         height="6"
         id="rect84"
         style="fill:url(#linearGradient833)" />
      <rect
         width="4"
         x="403.57001"
         y="506.79999"
         fill="url(#j)"
         height="6"
         id="rect86"
         style="fill:url(#j)" />
      <path
         fill="url(#a)"
         fill-rule="evenodd"
         d="m 32.467,5.887 c 0.626,0.575 1.438,1.404 1.939,2.301 0.875,1.563 0.75,4.281 -1.938,4.781 -2.688,0.5 -2.79,-0.415 -2.781,-1.5 -1.429,0.197 -2.068,3.364 0.438,4.469 2.125,0.938 2.906,0.563 6.906,0.313 4,-0.25 4.469,4.625 2.594,5.375 -1.875,0.75 -2.591,-0.587 -2.469,-1.313 -1.503,0.587 -1.686,2.224 -0.938,3 5.847,6.06 3.043,10.739 1.438,11.219 -1.989,0.594 -3.391,-0.584 -2.375,-2.156 0.828,-1.281 0.113,-3.394 -0.893,-4.143 -1.01,-0.748 -2.96,-0.569 -3.795,-0.014 1.204,0.455 2.969,1.156 2.5,2.719 -0.362,1.207 -1.548,1.967 -3.03,1.938 -0.42,-0.008 -0.77,-0.063 -1.063,-0.152 v 10.627 c 8.64,-2.212 15,-10 15,-19.35 0,-8.05 -4.715,-14.934 -11.533,-18.11"
         transform="translate(384.57,499.8)"
         id="path88"
         style="fill:url(#a)" />
      <g
         stroke-linejoin="round"
         color="#000000"
         stroke-width="3"
         id="g94">
        <path
           fill="url(#c)"
           d="m 388.94,519.85 c -0.241,1.277 -0.373,2.594 -0.373,3.943 0,1.349 0.132,2.666 0.373,3.943 l 11.627,-1.943 c 1.095,-0.168 2,-0.892 2,-2 0,-1.108 -0.905,-1.832 -2,-2 z"
           id="path90"
           style="fill:url(#c)" />
        <circle
           fill="#27ae60"
           cx="400.57001"
           cy="523.79999"
           r="1"
           stroke-linecap="round"
           id="circle92" />
      </g>
      <path
         fill="url(#k)"
         d="m 410.39,533.89 0.087,-0.016 c 0.024,0.019 0.02,0.057 0.013,0.091 -0.016,0.08 -0.055,0.224 -0.081,0.292 l -0.022,0.056 c -0.031,0.084 -0.062,0.163 -0.12,0.211 -0.162,0.148 -0.422,0.266 -0.829,0.443 -0.629,0.275 -1.648,0.448 -2.594,0.443 -0.339,-0.007 -0.667,-0.045 -0.955,-0.078 -0.882,-0.101 -1.519,-0.173 -1.651,0.629 -0.167,1 0.777,2.225 0.787,2.236 v 0.033 l -0.031,0.007 c 0,0 -1.506,-0.694 -1.543,-0.714 l -0.048,-0.034 -0.038,-0.037 c -0.114,-0.109 -0.342,-0.354 -0.805,-0.891 -0.898,-1.038 -1.949,-1.175 -2.758,-0.977 -0.197,0.047 -0.449,0.191 -0.612,0.354 -0.423,0.417 -0.375,1.257 -0.351,1.562 0.028,0.346 0.046,0.372 0.054,0.4 l -0.005,0.035 -0.03,0.004 -0.017,-0.012 -1.235,-0.604 -0.047,-0.202 c -0.032,-0.133 -0.068,-0.281 -0.138,-0.466 -0.442,-1.164 -1.434,-2.04 -2.528,-2.229 -0.739,-0.127 -2.086,-0.142 -2.799,1.205 -0.298,0.562 -0.28,1.294 0.047,1.911 0.333,0.631 0.929,1.036 1.633,1.114 0.699,0.076 1.224,-0.086 1.519,-0.467 0.297,-0.385 0.353,-0.91 0.142,-1.337 -0.226,-0.459 -0.568,-0.702 -1.043,-0.742 -0.361,-0.033 -0.63,0.118 -0.726,0.272 -0.028,0.048 -0.079,0.137 -0.08,0.263 v 0.005 c 0,0.344 0.315,0.438 0.379,0.443 0.02,0 0.114,-0.003 0.24,-0.034 l 0.103,-0.034 0.031,-0.005 c 0.229,-0.042 0.449,0.093 0.513,0.316 0.011,0.041 0.017,0.082 0.017,0.123 0,0.148 -0.075,0.285 -0.2,0.369 l -0.029,0.018 c -0.066,0.042 -0.126,0.065 -0.19,0.085 -0.179,0.059 -0.338,0.086 -0.498,0.086 -0.545,-0.001 -1.304,-0.47 -1.315,-1.351 -0.005,-0.497 0.244,-0.95 0.683,-1.241 0.506,-0.334 1.38,-0.448 2.19,0.049 0.998,0.611 1.258,1.807 0.998,2.623 -0.378,1.181 -1.443,1.813 -2.848,1.687 -0.995,-0.089 -1.92,-0.614 -2.47,-1.405 -0.244,-0.35 -0.425,-0.741 -0.523,-1.13 -0.225,-0.891 0.003,-1.838 0.172,-2.257 0.538,-1.334 1.568,-2.481 3.059,-3.411 l 0.094,-0.059 c 3.171,-1.949 5.415,-1.87 7.06,-1.813 1.938,0.067 4,0.736 4.289,0.83 10e-4,-0.064 0.012,-0.642 0.012,-0.642 l 0.008,-0.02 0.022,-0.005 c 0.13,0.018 2.914,0.431 4.087,1.115 0.145,0.086 0.217,0.174 0.307,0.267 0.324,0.335 0.753,1.73 0.798,2.02 l -0.017,0.029 c -0.017,0.005 -0.057,0.036 -0.111,0.072 -0.273,0.191 -0.913,0.639 -1.733,0.566 -0.737,-0.065 -1.7,-0.488 -2.861,-1.252 0.051,0.12 0.293,0.693 0.334,0.789 l 0.015,0.019 c 0.168,0.087 1.781,0.909 2.582,0.893 0.646,-0.013 1.335,-0.328 1.611,-0.494 z m -0.75,-1.609 c 0.022,-0.656 -0.493,-1.21 -1.15,-1.233 -0.318,-0.011 -0.621,0.102 -0.853,0.319 -0.233,0.217 -0.366,0.512 -0.378,0.829 -0.021,0.656 0.493,1.209 1.149,1.233 0.32,0.011 0.622,-0.102 0.854,-0.319 0.232,-0.217 0.366,-0.511 0.378,-0.829"
         id="path96"
         style="fill:url(#k)" />
      <path
         opacity="0.2"
         fill="url(#l)"
         fill-rule="evenodd"
         d="m 25.19,31.41 0.008,0.039 c 0.002,0.002 0.004,0.004 0.006,0.006 0.324,0.335 0.754,1.73 0.799,2.02 l -0.018,0.029 c -0.017,0.005 -0.057,0.035 -0.111,0.07 -0.081,0.057 -0.202,0.137 -0.344,0.219 l -0.008,0.439 c 0.099,-0.047 0.239,-0.099 0.301,-0.137 v -0.002 l 0.086,-0.018 c 0.024,0.019 0.021,0.058 0.014,0.092 -0.016,0.08 -0.056,0.225 -0.082,0.293 l -0.021,0.057 c -0.031,0.084 -0.062,0.163 -0.121,0.211 -0.162,0.148 -0.421,0.266 -0.828,0.443 -0.629,0.275 -1.647,0.447 -2.594,0.441 -0.339,-0.007 -0.667,-0.044 -0.955,-0.076 -0.882,-0.101 -1.52,-0.174 -1.652,0.627 -0.167,1 0.778,2.225 0.787,2.236 v 0.033 l -0.031,0.008 c 0,0 -1.506,-0.694 -1.543,-0.715 l -0.047,-0.033 -0.039,-0.037 c -0.114,-0.109 -0.342,-0.354 -0.805,-0.891 -0.898,-1.038 -1.95,-1.176 -2.76,-0.979 -0.197,0.047 -0.448,0.191 -0.611,0.354 -0.423,0.417 -0.374,1.257 -0.35,1.563 0.028,0.346 0.045,0.372 0.053,0.4 L 14.32,38.137 14.289,38.141 14.271,38.129 13.037,37.525 12.99,37.322 C 12.958,37.189 12.921,37.043 12.851,36.857 12.409,35.693 11.417,34.815 10.324,34.627 9.585,34.5 8.238,34.486 7.525,35.832 c -0.298,0.562 -0.28,1.295 0.047,1.912 0.333,0.631 0.928,1.036 1.633,1.113 0.699,0.076 1.225,-0.085 1.52,-0.467 0.297,-0.385 0.352,-0.911 0.141,-1.338 C 10.64,36.593 10.298,36.35 9.823,36.31 9.462,36.278 9.193,36.428 9.096,36.581 9.068,36.629 9.017,36.718 9.016,36.845 v 0.004 c 0,0.344 0.315,0.439 0.379,0.443 0.02,0 0.115,-0.002 0.24,-0.033 l 0.061,-0.02 0.043,-0.016 0.029,-0.004 c 0.229,-0.042 0.45,0.093 0.514,0.316 0.011,0.041 0.018,0.08 0.018,0.121 0,0.148 -0.075,0.285 -0.199,0.369 l -0.029,0.02 c -0.066,0.042 -0.127,0.064 -0.191,0.084 -0.179,0.059 -0.338,0.086 -0.498,0.086 -0.545,-0.001 -1.304,-0.469 -1.314,-1.35 -0.005,-0.497 0.244,-0.951 0.684,-1.242 0.506,-0.334 1.381,-0.448 2.191,0.049 0.998,0.611 1.257,1.807 0.996,2.623 -0.378,1.181 -1.442,1.813 -2.848,1.688 C 8.599,39.939 8.126,39.787 7.705,39.549 l 5.316,4.449 h 15.984 v -8.777 z"
         transform="translate(384.57,499.8)"
         id="path98"
         style="fill:url(#l)" />
    </g>
  </g>
</svg>
