<?xml version="1.0" encoding="UTF-8" standalone="no"?>
<svg
   width="64"
   height="64"
   version="1.1"
   viewBox="0 0 16.933 16.933"
   id="svg24"
   sodipodi:docname="deepin-terminal.svg"
   inkscape:version="1.2.1 (9c6d41e410, 2022-07-14)"
   xmlns:inkscape="http://www.inkscape.org/namespaces/inkscape"
   xmlns:sodipodi="http://sodipodi.sourceforge.net/DTD/sodipodi-0.dtd"
   xmlns:xlink="http://www.w3.org/1999/xlink"
   xmlns="http://www.w3.org/2000/svg"
   xmlns:svg="http://www.w3.org/2000/svg"
   xmlns:rdf="http://www.w3.org/1999/02/22-rdf-syntax-ns#"
   xmlns:cc="http://creativecommons.org/ns#"
   xmlns:dc="http://purl.org/dc/elements/1.1/">
  <sodipodi:namedview
     pagecolor="#ffffff"
     bordercolor="#666666"
     borderopacity="1"
     objecttolerance="10"
     gridtolerance="10"
     guidetolerance="10"
     inkscape:pageopacity="0"
     inkscape:pageshadow="2"
     inkscape:window-width="1920"
     inkscape:window-height="1002"
     id="namedview26"
     showgrid="false"
     inkscape:zoom="6.0546875"
     inkscape:cx="28.820645"
     inkscape:cy="26.508387"
     inkscape:window-x="0"
     inkscape:window-y="0"
     inkscape:window-maximized="1"
     inkscape:current-layer="svg24"
     inkscape:showpageshadow="2"
     inkscape:pagecheckerboard="0"
     inkscape:deskcolor="#d1d1d1"
     inkscape:lockguides="false">
    <inkscape:grid
       type="xygrid"
       id="grid879" />
  </sodipodi:namedview>
  <metadata
     id="metadata2">
    <rdf:RDF>
      <cc:Work
         rdf:about="">
        <dc:format>image/svg+xml</dc:format>
        <dc:type
           rdf:resource="http://purl.org/dc/dcmitype/StillImage" />
      </cc:Work>
    </rdf:RDF>
  </metadata>
  <defs
     id="defs12">
    <linearGradient
       inkscape:collect="always"
       id="linearGradient914">
      <stop
         style="stop-color:#65738e;stop-opacity:1;"
         offset="0"
         id="stop910" />
      <stop
         style="stop-color:#3f4859;stop-opacity:1;"
         offset="0.51415819"
         id="stop7989" />
      <stop
         style="stop-color:#4c566a;stop-opacity:1;"
         offset="1"
         id="stop912" />
    </linearGradient>
    <filter
       id="filter2761"
       x="-.024"
       y="-.024"
       width="1.048"
       height="1.048"
       color-interpolation-filters="sRGB">
      <feGaussianBlur
         stdDeviation="0.14552168"
         id="feGaussianBlur4" />
    </filter>
    <linearGradient
       id="linearGradient1024-6"
       x1="1.3315"
       x2="15.65"
       y1="15.576"
       y2="1.17"
       gradientUnits="userSpaceOnUse"
       gradientTransform="translate(-8.4984e-4,0.14045)">
      <stop
         stop-color="#dddfe1"
         offset="0"
         id="stop7" />
      <stop
         stop-color="#f3f4f6"
         stop-opacity=".99608"
         offset="1"
         id="stop9" />
    </linearGradient>
    <linearGradient
       id="linearGradient947"
       x1="31.952"
       x2="31.952"
       y1="49.045"
       y2="12.132"
       gradientUnits="userSpaceOnUse"
       gradientTransform="matrix(0.26457812,0,0,0.26457812,17.009915,-0.01800424)">
      <stop
         stop-color="#2d2d2d"
         offset="0"
         id="stop853" />
      <stop
         stop-color="#6b6b6b"
         offset="1"
         id="stop855" />
    </linearGradient>
    <style
       type="text/css"
       id="style858" />
    <style
       type="text/css"
       id="style860" />
    <filter
       id="filter1057"
       x="-0.026999999"
       y="-0.026999999"
       width="1.054"
       height="1.054"
       color-interpolation-filters="sRGB">
      <feGaussianBlur
         stdDeviation="0.61875"
         id="feGaussianBlur862" />
    </filter>
    <linearGradient
       id="linearGradient1053"
       x1="-127"
       x2="-72"
       y1="60"
       y2="5"
       gradientTransform="matrix(0.27419925,0,0,0.27419924,35.72287,-0.47417278)"
       gradientUnits="userSpaceOnUse">
      <stop
         stop-color="#dee0e2"
         offset="0"
         id="stop865" />
      <stop
         stop-color="#f1f3f5"
         stop-opacity=".99608"
         offset="1"
         id="stop867" />
    </linearGradient>
    <linearGradient
       inkscape:collect="always"
       xlink:href="#linearGradient914"
       id="linearGradient916"
       x1="7.9373436"
       y1="16.139265"
       x2="8.2019215"
       y2="1.0583125"
       gradientUnits="userSpaceOnUse" />
    <linearGradient
       id="linearGradient1070"
       x1="24.254999"
       x2="24.483"
       y1="-11.18"
       y2="1.0418"
       gradientTransform="matrix(0.97275,0,0,0.83606,6.2895,2.3313)"
       gradientUnits="userSpaceOnUse">
      <stop
         stop-color="#eceff4"
         offset="0"
         id="stop30" />
      <stop
         stop-color="#d8dee9"
         offset="1"
         id="stop32" />
    </linearGradient>
    <linearGradient
       id="linearGradient1424"
       x1="30.250999"
       x2="30.458"
       y1="-6.3155999"
       y2="2.5274"
       gradientUnits="userSpaceOnUse">
      <stop
         stop-color="#4c566a"
         offset="0"
         id="stop35" />
      <stop
         stop-color="#2e3440"
         offset="1"
         id="stop37" />
    </linearGradient>
  </defs>
  <rect
     x="4.5"
     y="4.5"
     width="55"
     height="55"
     ry="15"
     fill="#141414"
     filter="url(#filter1057)"
     opacity="0.3"
     stroke-linecap="round"
     stroke-width="2.7444"
     id="rect872"
     transform="scale(0.26457812)" />
  <rect
     x="0.92602342"
     y="0.92602342"
     width="15.080954"
     height="15.080954"
     ry="3.0691063"
     stroke-linecap="round"
     stroke-width="0.752508"
     id="rect874"
     style="fill:url(#linearGradient916);fill-opacity:1"
     rx="2.7516131" />
  <g
     transform="translate(-7.8163498,-2.52625)"
     id="g20">
    <path
       d="m 11.553,7.0153 -0.18198,0.54747 1.8474,0.74102 -1.8474,0.74102 0.18198,0.54747 2.3768,-1.0065 V 8.02172 Z m 2.3734,3.3291 v 0.56712 H 16.762 V 10.3444 Z"
       enable-background="new"
       id="path18"
       style="fill:#ffffff;fill-opacity:1" />
  </g>
  <g
     transform="translate(-3.9830359,0.02102368)"
     id="g880" />
  <circle
     cx="-333.02695"
     cy="-334.84161"
     r="0"
     id="circle884"
     style="stroke-width:0.264578" />
  <circle
     cx="-42.099483"
     cy="-0.040539417"
     r="0"
     fill-rule="evenodd"
     id="circle886"
     style="stroke-width:0.264578" />
  <g
     transform="matrix(0.55387,0,0,0.55387,-3.7485791,14.070744)"
     id="g72">
    <ellipse
       cx="30.181"
       cy="-1.8933001"
       rx="5.5349998"
       ry="5.5323"
       fill="url(#linearGradient1070)"
       stroke-width="2.1328"
       id="ellipse68"
       style="fill:url(#linearGradient1070)" />
    <path
       class="cls-1"
       d="m 31.158,-5.5918 a 3.804,3.804 0 0 1 0.92441,0.41879 l 0.49751,-0.49995 a 0.61682,0.61682 0 0 1 0.87004,0 l 0.50969,0.51212 a 0.61682,0.61682 0 0 1 0,0.87004 l -0.53566,0.53566 a 3.7821,3.7821 0 0 1 0.35224,0.88708 h 0.77264 a 0.61682,0.61682 0 0 1 0.61844,0.61682 v 0.72232 a 0.61682,0.61682 0 0 1 -0.61519,0.61519 h -0.77995 a 3.8007,3.8007 0 0 1 -0.35467,0.87734 l 0.54215,0.54458 a 0.61682,0.61682 0 0 1 0,0.87004 l -0.50887,0.50968 a 0.61763,0.61763 0 0 1 -0.87085,0 L 32.06538,1.37255 A 3.8324,3.8324 0 0 1 31.1572,1.77835 V 2.47551 A 0.61682,0.61682 0 0 1 30.54201,3.0907 H 29.8205 A 0.61682,0.61682 0 0 1 29.2053,2.47551 V 1.84571 A 3.8462,3.8462 0 0 1 28.203,1.46588 l -0.42203,0.42203 a 0.61844,0.61844 0 0 1 -0.87003,0 L 26.39882,1.37579 a 0.61763,0.61763 0 0 1 0,-0.87004 l 0.38307,-0.38308 a 3.8454,3.8454 0 0 1 -0.45125,-1.0364 H 25.80959 A 0.61682,0.61682 0 0 1 25.1944,-1.52892 v -0.72232 a 0.61682,0.61682 0 0 1 0.61519,-0.61682 h 0.51537 a 3.8308,3.8308 0 0 1 0.44719,-1.0502 l -0.37334,-0.37253 a 0.61844,0.61844 0 0 1 0,-0.87004 l 0.51212,-0.51212 a 0.61682,0.61682 0 0 1 0.87003,0 l 0.4058,0.4058 a 3.7821,3.7821 0 0 1 1.0169,-0.39281 v -0.60221 a 0.61682,0.61682 0 0 1 0.61682,-0.61519 h 0.72232 a 0.61682,0.61682 0 0 1 0.61519,0.61519 z m -1.1054,1.6914 a 1.9965,1.9965 0 1 1 -1.9965,1.9957 1.9957,1.9957 0 0 1 1.9965,-1.9957 z"
       fill="url(#linearGradient1424)"
       stroke-width="0.08116"
       id="path70"
       style="fill:url(#linearGradient1424);fill-rule:evenodd" />
  </g>
</svg>
