<?xml version="1.0" encoding="UTF-8" standalone="no"?>
<!-- Created with Inkscape (http://www.inkscape.org/) -->

<svg
   width="64.0px"
   height="64.0px"
   viewBox="0 0 64.0 64.0"
   version="1.1"
   id="SVGRoot"
   sodipodi:docname="yast-hardware.svg"
   inkscape:version="1.2.1 (9c6d41e410, 2022-07-14)"
   xmlns:inkscape="http://www.inkscape.org/namespaces/inkscape"
   xmlns:sodipodi="http://sodipodi.sourceforge.net/DTD/sodipodi-0.dtd"
   xmlns="http://www.w3.org/2000/svg"
   xmlns:svg="http://www.w3.org/2000/svg">
  <sodipodi:namedview
     id="namedview1238"
     pagecolor="#ffffff"
     bordercolor="#666666"
     borderopacity="1.0"
     inkscape:showpageshadow="2"
     inkscape:pageopacity="0.0"
     inkscape:pagecheckerboard="0"
     inkscape:deskcolor="#d1d1d1"
     inkscape:document-units="px"
     showgrid="true"
     inkscape:zoom="9.5144352"
     inkscape:cx="36.313243"
     inkscape:cy="33.895864"
     inkscape:window-width="1920"
     inkscape:window-height="1002"
     inkscape:window-x="0"
     inkscape:window-y="0"
     inkscape:window-maximized="1"
     inkscape:current-layer="layer1">
    <inkscape:grid
       type="xygrid"
       id="grid1361" />
  </sodipodi:namedview>
  <defs
     id="defs1233">
    <filter
       inkscape:collect="always"
       style="color-interpolation-filters:sRGB"
       id="filter1057"
       x="-0.026999999"
       width="1.054"
       y="-0.026999999"
       height="1.054">
      <feGaussianBlur
         inkscape:collect="always"
         stdDeviation="0.61875"
         id="feGaussianBlur1059" />
    </filter>
    <linearGradient
       id="c"
       x1="32"
       x2="32"
       y1="11"
       y2="53"
       gradientTransform="translate(-1.0175e-5,-0.033043)"
       gradientUnits="userSpaceOnUse">
      <stop
         stop-color="#dcdede"
         offset="0"
         id="stop2" />
      <stop
         stop-color="#939493"
         offset="1"
         id="stop4" />
    </linearGradient>
    <filter
       id="f"
       x="-0.059999947"
       y="-0.060000271"
       width="1.1199999"
       height="1.1200005"
       color-interpolation-filters="sRGB">
      <feGaussianBlur
         stdDeviation="0.18520833"
         id="feGaussianBlur7" />
    </filter>
    <linearGradient
       id="b"
       x1="8.4666004"
       x2="8.4666004"
       y1="284.82999"
       y2="292.23999"
       gradientUnits="userSpaceOnUse">
      <stop
         stop-color="#4c5557"
         offset="0"
         id="stop10" />
      <stop
         stop-color="#282929"
         offset="1"
         id="stop12" />
    </linearGradient>
  </defs>
  <g
     inkscape:label="Layer 1"
     inkscape:groupmode="layer"
     id="layer1">
    <rect
       style="opacity:0.3;fill:#141414;fill-opacity:1;stroke-width:2.74436;stroke-linecap:round;filter:url(#filter1057)"
       id="rect1055"
       width="55"
       height="55"
       x="5.4998684"
       y="5.5430236"
       ry="15" />
    <rect
       ry="9.8454571"
       y="3.5"
       x="3.5"
       height="57"
       width="57"
       id="rect1045"
       style="fill:#008237;fill-opacity:1;stroke-width:2.84416;stroke-linecap:round"
       rx="9.845459" />
    <path
       id="rect4708"
       style="fill:#43a047;fill-opacity:1;stroke-width:1.5;stroke-linecap:round;stroke-linejoin:round;paint-order:stroke fill markers"
       d="m 20.499868,5.5430236 c -0.854072,0 -1.685656,0.08683 -2.5,0.222656 v 5.4492194 l 4,4 V 5.5430236 Z m 3.5,0 V 17.214899 l 3.5,3.5 0.671875,-0.671875 H 26.999868 V 5.5430236 Z m 5,0 V 19.214899 l 3.171875,-3.171875 H 31.999868 V 5.5430236 Z m 5,0 v 8.6718754 l 3,-3 V 5.5430236 Z m 5,0 v 6.5000004 l -10.085938,10.085938 1.085938,1.085937 12,-12 V 5.5430236 Z m 5,0 V 12.043024 L 30.564321,25.478571 29.999868,24.914118 29.435415,25.478571 27.499868,23.543024 25.564321,25.478571 24.999868,24.914118 24.435415,25.478571 10.999868,12.043024 V 8.9199766 C 9.4079965,10.220978 8.1001335,11.84819 7.1541655,13.695368 v 4.271484 l -1.605469,1.603516 c -0.020613,0.32326 -0.048828,0.644015 -0.048828,0.972656 v 2.230469 l 2.730469,2.730469 h 9.5878895 l -7.46875,-7.46875 a 1.5,1.5 0 0 1 -1.3496085,-1.492188 1.5,1.5 0 0 1 1.4999995,-1.5 1.5,1.5 0 0 1 1.5,1.5 1.5,1.5 0 0 1 -0.02734,0.287109 l 8.673828,8.673829 h 28.507813 l 7.537109,-8.615235 h 3.345703 c -0.09055,-0.36367 -0.188263,-0.723702 -0.304687,-1.076172 h -3.041016 v -4.308593 l -8.615234,9.693359 H 44.845575 L 53.46081,11.503962 V 7.8320866 C 52.104616,6.9833086 50.604361,6.3482276 48.999868,5.9668516 V 12.043024 L 35.562368,25.478571 34.148306,24.064508 46.999868,11.214899 V 5.6191956 c -0.493632,-0.048622 -0.993165,-0.076172 -1.5,-0.076172 z m -28,0.681641 c -1.058233,0.330186 -2.058053,0.784881 -3,1.328125 v 3.6621094 l 12,12 1.085938,-1.085937 -2.085938,-2.085938 h -2 v -2 l -6,-6 z M 15.769399,38.425836 v 0.002 L 5.5545565,46.599665 c 0.07085,1.022531 0.239835,2.01584 0.503906,2.970703 l 5.4023435,-3.603516 v 2.152344 l -4.8085935,3.207031 c 0.156645,0.376526 0.333872,0.74147 0.519531,1.101563 h 2.136719 v 3.099609 c 1.7253805,1.933929 3.9395385,3.415206 6.4609365,4.248047 V 49.197321 l 6.460938,-5.384766 h 3.230469 l -6.460938,5.384766 v 11.269531 c 0.493632,0.04862 0.993165,0.07617 1.5,0.07617 h 2.5 v -4.628904 l 13.435547,-13.4375 0.564453,0.564453 0.564453,-0.564453 1.935547,1.935547 1.935547,-1.935547 0.564453,0.564453 0.564453,-0.564453 13.435547,13.4375 v 0.351562 c 0.425786,-0.416936 0.825574,-0.85906 1.199219,-1.324218 L 46.150259,43.89068 47.564321,42.476618 58.355337,53.267633 c 0.782492,-1.303385 1.371837,-2.733298 1.730469,-4.257812 l -6.625,-8.429688 H 51.308462 L 49.154165,38.425836 H 36.199087 l 0.236328,0.236329 -12.462891,12.46289 a 1.5,1.5 0 0 1 0.02734,0.28711 1.5,1.5 0 0 1 -1.5,1.5 1.5,1.5 0 0 1 -1.5,-1.5 1.5,1.5 0 0 1 1.349609,-1.492188 L 33.843618,38.425836 Z m 21.230469,6.316407 -12,12 v 3.800781 h 3 v -4.628906 l 6,-6 v -2 h 2 l 2.085938,-2.085938 z m 5,0 -1.085938,1.085937 10.085938,10.085938 v 3.580078 c 1.064401,-0.41783 2.07173,-0.944391 3,-1.582031 v -1.169922 z m -2.5,2.5 -3.5,3.5 v 9.800781 h 3 V 47.912165 h 1.171875 z m 1.5,1.5 v 11.800781 h 3 v -8.628906 h 0.171875 z m -7,4 -4,4 v 3.800781 h 4 z m 12,1 v 6.77539 c 1.030516,-0.03375 2.033268,-0.168652 3,-0.398437 v -3.376953 z" />
    <g
       transform="matrix(3.7796,0,0,3.7796,0.99985847,-1057.5569)"
       id="g51">
      <g
         transform="translate(0,-0.0088674)"
         id="g39">
        <path
           transform="matrix(0.26458,0,0,0.26458,2.692e-6,280.08)"
           d="m 20,13 -0.5,2 H 19 v 3.9668 H 15 V 19.5 l -2,0.5 2,0.5 v 0.4668 h 4 v 2 H 15 V 23.5 l -2,0.5 2,0.5 v 0.4668 h 4 v 2 H 15 V 27.5 l -2,0.5 2,0.5 v 0.4668 h 4 v 2 H 15 V 31.5 l -2,0.5 2,0.5 v 0.4668 h 4 v 2 H 15 V 35.5 l -2,0.5 2,0.5 v 0.4668 h 4 v 2 H 15 V 39.5 l -2,0.5 2,0.5 v 0.4668 h 4 v 2 H 15 V 43.5 l -2,0.5 2,0.5 v 0.4668 h 4 V 49 h 0.5 l 0.5,2 0.5,-2 H 21 v -4.0332 h 2 V 49 h 0.5 l 0.5,2 0.5,-2 H 25 v -4.0332 h 2 V 49 h 0.5 l 0.5,2 0.5,-2 H 29 v -4.0332 h 2 V 49 h 0.5 l 0.5,2 0.5,-2 H 33 v -4.0332 h 2 V 49 h 0.5 l 0.5,2 0.5,-2 H 37 v -4.0332 h 2 V 49 h 0.5 l 0.5,2 0.5,-2 H 41 v -4.0332 h 2 V 49 h 0.5 l 0.5,2 0.5,-2 H 45 v -4.0332 h 4 V 44.5 L 51,44 49,43.5 v -0.5332 h -4 v -2 h 4 V 40.5 L 51,40 49,39.5 v -0.5332 h -4 v -2 h 4 V 36.5 L 51,36 49,35.5 v -0.5332 h -4 v -2 h 4 V 32.5 L 51,32 49,31.5 v -0.5332 h -4 v -2 h 4 V 28.5 L 51,28 49,27.5 v -0.5332 h -4 v -2 h 4 V 24.5 L 51,24 49,23.5 v -0.5332 h -4 v -2 h 4 V 20.5 L 51,20 49,19.5 V 18.9668 H 45 V 15 H 44.5 L 44,13 43.5,15 H 43 v 3.9668 H 41 V 15 H 40.5 L 40,13 39.5,15 H 39 v 3.9668 H 37 V 15 H 36.5 L 36,13 35.5,15 H 35 v 3.9668 H 33 V 15 H 32.5 L 32,13 31.5,15 H 31 v 3.9668 H 29 V 15 H 28.5 L 28,13 27.5,15 H 27 v 3.9668 H 25 V 15 H 24.5 L 24,13 23.5,15 H 23 v 3.9668 H 21 V 15 h -0.5 z m 1,7.9668 h 2 v 2 h -2 z m 4,0 h 2 v 2 h -2 z m 4,0 h 2 v 2 h -2 z m 4,0 h 2 v 2 h -2 z m 4,0 h 2 v 2 h -2 z m 4,0 h 2 v 2 h -2 z m -20,4 h 2 v 2 h -2 z m 4,0 h 2 v 2 h -2 z m 4,0 h 2 v 2 h -2 z m 4,0 h 2 v 2 h -2 z m 4,0 h 2 v 2 h -2 z m 4,0 h 2 v 2 h -2 z m -20,4 h 2 v 2 h -2 z m 4,0 h 2 v 2 h -2 z m 4,0 h 2 v 2 h -2 z m 4,0 h 2 v 2 h -2 z m 4,0 h 2 v 2 h -2 z m 4,0 h 2 v 2 h -2 z m -20,4 h 2 v 2 h -2 z m 4,0 h 2 v 2 h -2 z m 4,0 h 2 v 2 h -2 z m 4,0 h 2 v 2 h -2 z m 4,0 h 2 v 2 h -2 z m 4,0 h 2 v 2 h -2 z m -20,4 h 2 v 2 h -2 z m 4,0 h 2 v 2 h -2 z m 4,0 h 2 v 2 h -2 z m 4,0 h 2 v 2 h -2 z m 4,0 h 2 v 2 h -2 z m 4,0 h 2 v 2 h -2 z m -20,4 h 2 v 2 h -2 z m 4,0 h 2 v 2 h -2 z m 4,0 h 2 v 2 h -2 z m 4,0 h 2 v 2 h -2 z m 4,0 h 2 v 2 h -2 z m 4,0 h 2 v 2 h -2 z"
           fill="url(#c)"
           id="path33"
           style="fill:url(#c)" />
        <path
           d="m 5.2917,284.83 h 6.35 c 0.29316,0 0.52917,0.236 0.52917,0.52915 v 6.35 c 0,0.29315 -0.23601,0.52915 -0.52917,0.52915 h -6.35 c -0.29316,0 -0.52917,-0.236 -0.52917,-0.52915 v -6.35 c 0,-0.29315 0.23601,-0.52915 0.52917,-0.52915 z"
           fill-rule="evenodd"
           filter="url(#f)"
           opacity="0.5"
           id="path35" />
        <path
           d="m 5.2917,284.83 h 6.35 c 0.29316,0 0.52917,0.236 0.52917,0.52915 v 6.35 c 0,0.29315 -0.23601,0.52915 -0.52917,0.52915 h -6.35 c -0.29316,0 -0.52917,-0.236 -0.52917,-0.52915 v -6.35 c 0,-0.29315 0.23601,-0.52915 0.52917,-0.52915 z"
           fill="url(#b)"
           fill-rule="evenodd"
           id="path37"
           style="fill:url(#b)" />
      </g>
      <g
         fill-rule="evenodd"
         id="g49">
        <path
           d="M 5.5563,285.49 A 0.13229,0.13229 0 0 1 5.42401,285.62229 0.13229,0.13229 0 0 1 5.29172,285.49 0.13229,0.13229 0 0 1 5.42401,285.35771 0.13229,0.13229 0 0 1 5.5563,285.49"
           opacity="0.35"
           style="paint-order:stroke fill markers"
           id="path41" />
        <path
           d="M 11.641,285.49 A 0.13229,0.13229 0 0 1 11.50871,285.62229 0.13229,0.13229 0 0 1 11.37642,285.49 0.13229,0.13229 0 0 1 11.50871,285.35771 0.13229,0.13229 0 0 1 11.641,285.49"
           opacity="0.35"
           style="paint-order:stroke fill markers"
           id="path43" />
        <path
           d="M 5.5563,291.58 A 0.13229,0.13229 0 0 1 5.42401,291.71229 0.13229,0.13229 0 0 1 5.29172,291.58 0.13229,0.13229 0 0 1 5.42401,291.44771 0.13229,0.13229 0 0 1 5.5563,291.58"
           opacity="0.35"
           style="paint-order:stroke fill markers"
           id="path45" />
        <path
           d="M 11.641,291.58 A 0.13229,0.13229 0 0 1 11.50871,291.71229 0.13229,0.13229 0 0 1 11.37642,291.58 0.13229,0.13229 0 0 1 11.50871,291.44771 0.13229,0.13229 0 0 1 11.641,291.58"
           opacity="0.35"
           style="paint-order:stroke fill markers"
           id="path47" />
      </g>
    </g>
    <path
       d="m 35.698868,26.799024 c -2.7223,0.03489 -5.7618,0.79114 -8.211,2.2305 v 0.36523 c 5.5911,-2.7764 13.524,-2.7587 14.246,1.2188 0.20672,1.1197 -0.3197,2.2736 -1.3242,3.0801 v -4.1992 h -1.1094 v 4.666 c 0,0.39152 0.15271,0.73907 0.53711,0.93751 v 0.02344 c 0.0067,-0.0023 0.01287,-0.0074 0.01953,-0.0098 0.14972,0.07304 0.327,0.12791 0.55273,0.14844 v -0.39844 c 1.4432,-0.77326 2.7142,-2.4819 2.2812,-4.5293 -0.51797,-2.4287 -3.492,-3.5781 -6.9922,-3.5332 z m -9.6231,2.8359 v 0.99415 h 1.1094 v -0.99415 z m 6.4824,0.44336 v 4.0469 c 0,0.58222 0.37915,1.1738 1.2793,1.1738 h 0.65039 v -0.8672 h -0.44726 c -0.26231,0 -0.38477,-0.13101 -0.38477,-0.36914 v -2.0234 h 0.83204 v -0.83985 h -0.83204 v -1.1211 h -1.0977 z m -7.1993,0.28906 c -1.6206,1.3723 -2.5005,3.1087 -1.9922,5.1582 0.64822,2.63 4.1025,4.1187 9.3771,3.623 2.0884,-0.19395 4.8222,-0.84457 6.7188,-1.8516 v -1.4297 c -1.7237,0.99304 -4.5754,1.8139 -6.9512,2.0254 -3.8634,0.34393 -7.8896,-0.19726 -8.4532,-3.1133 -0.27993,-1.4357 0.40174,-2.9605 1.3008,-3.9062 v -0.50586 z m 11.447,0.76173 c -1.1586,0 -2.0391,0.76356 -2.0391,2.1152 0,1.5806 1.0089,2.123 2.0625,2.123 0.80739,0 1.2632,-0.24593 1.6992,-0.6504 l -0.67774,-0.61328 c -0.28259,0.26256 -0.5251,0.39062 -1.0137,0.39062 -0.62172,0 -0.97657,-0.39059 -0.97657,-0.92189 h 2.793 v -0.375 c 0,-1.1741 -0.6729,-2.0684 -1.8477,-2.0684 z m -10.73,0.07031 v 3.0469 c 0,0.54823 0.27778,1.026 1.1094,1.1016 v -4.1484 h -1.1094 z m 2.0898,0 v 4.1035 h 1.0996 v -3.2656 l 0.91212,0.002 c 0.32288,0 0.45508,0.14871 0.45508,0.39258 v 2.8711 h 1.1035 v -2.875 c 0,-0.58421 -0.33206,-1.2285 -1.2969,-1.2285 h -2.2734 z m 8.5919,0.78906 c 0.56522,0 0.77849,0.4288 0.80275,0.87696 h -1.6992 c 0.01198,-0.18348 0.03674,-0.29797 0.10938,-0.44727 0.12116,-0.2477 0.41176,-0.42969 0.78712,-0.42969 z"
       fill="#ffffff"
       opacity="0.5"
       id="path53" />
  </g>
</svg>
