<?xml version="1.0" encoding="UTF-8" standalone="no"?>
<svg
   style="isolation:isolate"
   viewBox="0 0 34 34"
   width="34"
   height="34"
   version="1.1"
   id="svg16"
   sodipodi:docname="restart_primary.svg"
   inkscape:version="1.2.1 (9c6d41e410, 2022-07-14)"
   xmlns:inkscape="http://www.inkscape.org/namespaces/inkscape"
   xmlns:sodipodi="http://sodipodi.sourceforge.net/DTD/sodipodi-0.dtd"
   xmlns:xlink="http://www.w3.org/1999/xlink"
   xmlns="http://www.w3.org/2000/svg"
   xmlns:svg="http://www.w3.org/2000/svg"
   xmlns:rdf="http://www.w3.org/1999/02/22-rdf-syntax-ns#"
   xmlns:cc="http://creativecommons.org/ns#"
   xmlns:dc="http://purl.org/dc/elements/1.1/">
  <metadata
     id="metadata22">
    <rdf:RDF>
      <cc:Work
         rdf:about="">
        <dc:format>image/svg+xml</dc:format>
        <dc:type
           rdf:resource="http://purl.org/dc/dcmitype/StillImage" />
      </cc:Work>
    </rdf:RDF>
  </metadata>
  <defs
     id="defs20">
    <linearGradient
       inkscape:collect="always"
       xlink:href="#linearGradient4813"
       id="linearGradient5058"
       x1="148.9608"
       y1="596.36218"
       x2="148.9608"
       y2="636.12817"
       gradientUnits="userSpaceOnUse"
       gradientTransform="matrix(0.70344785,0,0,0.60000184,-86.337865,-354.81842)" />
    <linearGradient
       inkscape:collect="always"
       id="linearGradient4813">
      <stop
         style="stop-color:#5581aa;stop-opacity:1;"
         offset="0"
         id="stop4809" />
      <stop
         style="stop-color:#6db2c5;stop-opacity:1;"
         offset="1"
         id="stop4811" />
    </linearGradient>
  </defs>
  <sodipodi:namedview
     pagecolor="#ffffff"
     bordercolor="#666666"
     borderopacity="1"
     objecttolerance="10"
     gridtolerance="10"
     guidetolerance="10"
     inkscape:pageopacity="0"
     inkscape:pageshadow="2"
     inkscape:window-width="1920"
     inkscape:window-height="1002"
     id="namedview18"
     showgrid="true"
     inkscape:zoom="9.085202"
     inkscape:cx="25.150789"
     inkscape:cy="20.637956"
     inkscape:window-x="0"
     inkscape:window-y="0"
     inkscape:window-maximized="1"
     inkscape:current-layer="svg16"
     inkscape:document-rotation="0"
     inkscape:pagecheckerboard="0"
     inkscape:document-units="px"
     inkscape:showpageshadow="2"
     inkscape:deskcolor="#d1d1d1">
    <inkscape:grid
       type="xygrid"
       id="grid1244"
       originx="0"
       originy="0" />
  </sodipodi:namedview>
  <linearGradient
     id="_lgradient_2"
     x1="0"
     y1="0.5"
     x2="1"
     y2="0.5">
    <stop
       offset="0%"
       stop-opacity="1"
       style="stop-color:#89ddff"
       id="stop2" />
    <stop
       offset="100%"
       stop-opacity="1"
       style="stop-color:#89ddff"
       id="stop4" />
  </linearGradient>
  <linearGradient
     id="_lgradient_3"
     x1="0"
     y1="0.5"
     x2="1"
     y2="0.5"
     gradientTransform="matrix(33,0,0,33,0.5,0.5)"
     gradientUnits="userSpaceOnUse">
    <stop
       offset="0%"
       stop-opacity="1"
       style="stop-color:#89ddff"
       id="stop9" />
    <stop
       offset="100%"
       stop-opacity="1"
       style="stop-color:#89ddff"
       id="stop11" />
  </linearGradient>
  <path
     inkscape:connector-curvature="0"
     id="path9068-9-37-8-0-1"
     d="m 31,3 -28,7e-6 V 27 h 28.137931 z"
     style="display:inline;overflow:visible;visibility:visible;opacity:0.6;fill:url(#linearGradient5058);fill-opacity:1;fill-rule:nonzero;stroke:none;stroke-width:0.90953;marker:none"
     sodipodi:nodetypes="ccccc" />
  <path
     d="m 14.280636,24.33333 h 5.437583 c 3.078711,0 5.881906,-2.917811 5.881906,-6.00997 v -2.323914 c 0,-0.787444 -1.057791,-1.440439 -1.865957,-1.440439 -0.788925,0 -1.86456,0.633649 -1.86456,1.440292 v 2.324061 c 0,1.498061 -0.950036,2.306116 -2.45091,2.306116 h -4.856842 c -1.500872,0 -2.450908,-0.808055 -2.450908,-2.306116 v -3.706742 c 0,-1.498058 0.952937,-2.07228 2.450908,-2.165389 h 4.094713 l -0.502217,0.360041 c -0.640978,0.459492 -0.55803,1.45964 0,2.035825 0.558003,0.556968 1.462382,0.556968 2.039652,0 l 3.367348,-3.361041 c 0.558017,-0.55696 0.558017,-1.459643 0,-2.035823 L 20.194004,6.089199 C 19.90537,5.801107 19.53977,5.666667 19.17417,5.666667 c -0.365598,0 -0.731198,0.134436 -1.019818,0.422532 -0.55803,0.55697 -0.55803,1.459646 0,2.035827 l 0.502217,0.500241 h -4.516545 c -3.078727,0 -5.739903,2.918409 -5.739903,6.01056 v 3.706739 c 0,3.072953 2.801777,5.990764 5.880515,5.990764 z"
     id="path2-5-3"
     sodipodi:nodetypes="sssssssssssscsccscsssccssss"
     style="isolation:isolate;fill:#d3dae3;fill-opacity:1;stroke-width:0.192237" />
  <path
     d="M 26.284842,1 H 7.714761 C 5.934521,1.0019 4.227667,1.710097 2.969001,2.969033 1.710095,4.227716 1.002042,5.9345 1,7.714759 v 18.570735 -2.5e-4 c 0.0014,1.780199 0.710095,3.487042 1.969001,4.74572 1.258666,1.258937 2.96552,1.966965 4.74576,1.969036 h 18.570721 -2.65e-4 c 1.780246,-0.0021 3.487103,-0.710099 4.745756,-1.969036 1.25892,-1.258678 1.966971,-2.965521 1.969014,-4.74572 V 7.715111 C 32.997387,5.934903 32.289894,4.228068 31.030973,2.969385 29.77232,1.710449 28.065463,1.002419 26.285217,1.000352 Z M 7,3 h 20 -0.2 c 2,0 4.2,2.2 4.2,4.2 V 26 H 3 V 7.2 C 3,5.2 5.2,3 7.2,3 Z"
     id="path1193-3-3-3-6"
     style="isolation:isolate;fill:#d3dae3;fill-opacity:1;stroke-width:0.0634922"
     sodipodi:nodetypes="ccccccccccccccccccccccccc" />
</svg>
