<?xml version="1.0" encoding="UTF-8" standalone="no"?>
<svg
   style="isolation:isolate"
   viewBox="0 0 34 34"
   width="34"
   height="34"
   version="1.1"
   id="svg9"
   sodipodi:docname="suspend_primary.svg"
   inkscape:version="1.2.1 (9c6d41e410, 2022-07-14)"
   xmlns:inkscape="http://www.inkscape.org/namespaces/inkscape"
   xmlns:sodipodi="http://sodipodi.sourceforge.net/DTD/sodipodi-0.dtd"
   xmlns:xlink="http://www.w3.org/1999/xlink"
   xmlns="http://www.w3.org/2000/svg"
   xmlns:svg="http://www.w3.org/2000/svg"
   xmlns:rdf="http://www.w3.org/1999/02/22-rdf-syntax-ns#"
   xmlns:cc="http://creativecommons.org/ns#"
   xmlns:dc="http://purl.org/dc/elements/1.1/">
  <metadata
     id="metadata15">
    <rdf:RDF>
      <cc:Work
         rdf:about="">
        <dc:format>image/svg+xml</dc:format>
        <dc:type
           rdf:resource="http://purl.org/dc/dcmitype/StillImage" />
      </cc:Work>
    </rdf:RDF>
  </metadata>
  <defs
     id="defs13">
    <linearGradient
       inkscape:collect="always"
       xlink:href="#linearGradient4813"
       id="linearGradient5058"
       x1="148.9608"
       y1="596.36218"
       x2="148.9608"
       y2="636.12817"
       gradientUnits="userSpaceOnUse"
       gradientTransform="matrix(0.70344789,0,0,0.60000187,-86.337871,-354.81843)" />
    <linearGradient
       inkscape:collect="always"
       id="linearGradient4813">
      <stop
         style="stop-color:#5581aa;stop-opacity:1;"
         offset="0"
         id="stop4809" />
      <stop
         style="stop-color:#6db2c5;stop-opacity:1;"
         offset="1"
         id="stop4811" />
    </linearGradient>
  </defs>
  <sodipodi:namedview
     pagecolor="#ffffff"
     bordercolor="#666666"
     borderopacity="1"
     objecttolerance="10"
     gridtolerance="10"
     guidetolerance="10"
     inkscape:pageopacity="0"
     inkscape:pageshadow="2"
     inkscape:window-width="1920"
     inkscape:window-height="1002"
     id="namedview11"
     showgrid="true"
     inkscape:zoom="16.19536"
     inkscape:cx="7.8726252"
     inkscape:cy="24.482321"
     inkscape:window-x="0"
     inkscape:window-y="0"
     inkscape:window-maximized="1"
     inkscape:current-layer="svg9"
     inkscape:document-rotation="0"
     inkscape:pagecheckerboard="0"
     inkscape:document-units="px"
     inkscape:showpageshadow="2"
     inkscape:deskcolor="#d1d1d1">
    <inkscape:grid
       type="xygrid"
       id="grid4114"
       originx="0"
       originy="0" />
  </sodipodi:namedview>
  <linearGradient
     id="_lgradient_0"
     x1="0"
     y1="0.5"
     x2="1"
     y2="0.5"
     gradientTransform="matrix(33,0,0,33,0.5,0.5)"
     gradientUnits="userSpaceOnUse">
    <stop
       offset="0%"
       stop-opacity="1"
       style="stop-color:#00a9a5"
       id="stop2" />
    <stop
       offset="97.82608695652173%"
       stop-opacity="1"
       style="stop-color:#00a9a5"
       id="stop4" />
  </linearGradient>
  <path
     inkscape:connector-curvature="0"
     id="path9068-9-37-8-0-1"
     d="M 31.000001,3 3,3.0000067 V 27 h 28.137931 z"
     style="display:inline;overflow:visible;visibility:visible;opacity:0.6;isolation:isolate;fill:url(#linearGradient5058);fill-opacity:1;fill-rule:nonzero;stroke:none;stroke-width:0.909531;marker:none"
     sodipodi:nodetypes="ccccc" />
  <path
     d="M 26.284843,1 H 7.714761 C 5.934521,1.0018667 4.2276667,1.7100973 2.9690014,2.9690334 1.7100947,4.2277161 1.0020413,5.9345001 1,7.7147585 v 18.5707355 -2.51e-4 c 0.00133,1.7802 0.7100947,3.487043 1.9690014,4.74572 C 4.2276667,32.289901 5.934521,32.997929 7.714761,33 h 18.570721 -2.64e-4 c 1.780245,-0.0021 3.487103,-0.710099 4.745756,-1.969037 1.25892,-1.258677 1.966971,-2.96552 1.969013,-4.74572 V 7.7151105 C 32.997321,5.9349028 32.289894,4.2280681 31.030974,2.9693854 29.772321,1.7104493 28.065463,1.0024187 26.285218,1.000352 Z M 7,3 h 20.000001 -0.2 c 2,0 4.2,2.2000001 4.2,4.2000005 V 26 H 3 V 7.2000005 C 3,5.2000001 5.2000001,3 7.2,3 Z"
     id="path1193-3-3-3-6"
     style="isolation:isolate;fill:#d3dae3;fill-opacity:1;stroke-width:0.0634921"
     sodipodi:nodetypes="ccccccccccccccccccccccccc" />
  <path
     d="M 16.899111,16.054354 H 12.537342 L 18.520115,9.2245981 C 19.031979,8.6337511 19.138637,7.8225912 18.797371,7.1316134 18.445465,6.4406415 17.709591,6 16.899111,6 H 8.1009156 C 6.9385282,6 6,6.8812597 6,7.9728107 6,9.064381 6.9385282,9.945648 8.1009156,9.945648 H 12.462664 L 6.4798307,16.775406 C 5.9679491,17.366247 5.8614068,18.177396 6.2025688,18.868378 6.5545512,19.559362 7.2903805,20 8.1009156,20 H 16.899111 C 18.061532,20 19,19.118736 19,18.027188 19,16.935615 18.050856,16.054354 16.899111,16.054354 Z"
     id="path4-3-67-5"
     style="isolation:isolate;fill:#d3dae3;fill-opacity:1;stroke-width:0.103346" />
  <path
     d="m 26.993763,22.745335 h -2.348656 l 3.2215,-3.902723 c 0.275618,-0.33763 0.333046,-0.801162 0.149296,-1.195978 C 27.826412,17.251802 27.430172,17 26.993763,17 H 22.256272 C 21.630357,17 21.125,17.503579 21.125,18.127345 c 0,0.623727 0.505357,1.12732 1.131272,1.12732 h 2.348626 l -3.221529,3.902723 c -0.275616,0.33763 -0.333003,0.80114 -0.149314,1.195972 C 21.4236,24.748182 21.819815,25 22.256266,25 h 4.737491 C 27.61967,25 28.125,24.496393 28.125,23.872673 c 0,-0.623745 -0.511069,-1.127338 -1.131243,-1.127338 z"
     id="path4-3-6-5-3"
     style="isolation:isolate;fill:#d3dae3;fill-opacity:1;stroke-width:0.0573253" />
</svg>
