<?xml version="1.0" encoding="UTF-8" standalone="no"?>
<svg
   style="isolation:isolate"
   viewBox="0 0 34 34"
   width="34"
   height="34"
   version="1.1"
   id="svg16"
   sodipodi:docname="switch_primary.svg"
   inkscape:version="1.2.1 (9c6d41e410, 2022-07-14)"
   xmlns:inkscape="http://www.inkscape.org/namespaces/inkscape"
   xmlns:sodipodi="http://sodipodi.sourceforge.net/DTD/sodipodi-0.dtd"
   xmlns:xlink="http://www.w3.org/1999/xlink"
   xmlns="http://www.w3.org/2000/svg"
   xmlns:svg="http://www.w3.org/2000/svg"
   xmlns:rdf="http://www.w3.org/1999/02/22-rdf-syntax-ns#"
   xmlns:cc="http://creativecommons.org/ns#"
   xmlns:dc="http://purl.org/dc/elements/1.1/">
  <metadata
     id="metadata22">
    <rdf:RDF>
      <cc:Work
         rdf:about="">
        <dc:format>image/svg+xml</dc:format>
        <dc:type
           rdf:resource="http://purl.org/dc/dcmitype/StillImage" />
      </cc:Work>
    </rdf:RDF>
  </metadata>
  <defs
     id="defs20">
    <linearGradient
       inkscape:collect="always"
       xlink:href="#linearGradient4813"
       id="linearGradient5058"
       x1="148.9608"
       y1="596.36218"
       x2="148.9608"
       y2="636.12817"
       gradientUnits="userSpaceOnUse"
       gradientTransform="matrix(0.70344789,0,0,0.60000187,-86.337869,-354.81843)" />
    <linearGradient
       inkscape:collect="always"
       id="linearGradient4813">
      <stop
         style="stop-color:#5581aa;stop-opacity:1;"
         offset="0"
         id="stop4809" />
      <stop
         style="stop-color:#6db2c5;stop-opacity:1;"
         offset="1"
         id="stop4811" />
    </linearGradient>
  </defs>
  <sodipodi:namedview
     pagecolor="#ffffff"
     bordercolor="#666666"
     borderopacity="1"
     objecttolerance="10"
     gridtolerance="10"
     guidetolerance="10"
     inkscape:pageopacity="0"
     inkscape:pageshadow="2"
     inkscape:window-width="1920"
     inkscape:window-height="1002"
     id="namedview18"
     showgrid="true"
     inkscape:zoom="6.424208"
     inkscape:cx="18.601515"
     inkscape:cy="27.629865"
     inkscape:window-x="0"
     inkscape:window-y="0"
     inkscape:window-maximized="1"
     inkscape:current-layer="svg16"
     inkscape:document-rotation="0"
     inkscape:lockguides="false"
     inkscape:pagecheckerboard="0"
     inkscape:document-units="px"
     inkscape:showpageshadow="2"
     inkscape:deskcolor="#d1d1d1">
    <inkscape:grid
       type="xygrid"
       id="grid5470"
       originx="0"
       originy="0" />
  </sodipodi:namedview>
  <linearGradient
     id="_lgradient_2"
     x1="0"
     y1="0.5"
     x2="1"
     y2="0.5">
    <stop
       offset="0%"
       stop-opacity="1"
       style="stop-color:#89ddff"
       id="stop2" />
    <stop
       offset="100%"
       stop-opacity="1"
       style="stop-color:#89ddff"
       id="stop4" />
  </linearGradient>
  <linearGradient
     id="_lgradient_3"
     x1="0"
     y1="0.5"
     x2="1"
     y2="0.5"
     gradientTransform="matrix(33,0,0,33,0.5,0.5)"
     gradientUnits="userSpaceOnUse">
    <stop
       offset="0%"
       stop-opacity="1"
       style="stop-color:#89ddff"
       id="stop9" />
    <stop
       offset="100%"
       stop-opacity="1"
       style="stop-color:#89ddff"
       id="stop11" />
  </linearGradient>
  <path
     inkscape:connector-curvature="0"
     id="path9068-9-37-8-0-1"
     d="m 31,2.9999967 -28.0000005,6.7e-6 V 26.999996 H 31.13793 Z"
     style="display:inline;overflow:visible;visibility:visible;opacity:0.6;isolation:isolate;fill:url(#linearGradient5058);fill-opacity:1;fill-rule:nonzero;stroke:none;stroke-width:0.909531;marker:none"
     sodipodi:nodetypes="ccccc" />
  <path
     d="M 26.284842,0.99999665 H 7.7147605 C 5.9345205,1.0018633 4.2276662,1.7100939 2.9690009,2.96903 1.7100942,4.2277127 1.0020408,5.9344967 0.9999995,7.7147551 V 26.285491 26.28524 c 0.00133,1.7802 0.7100947,3.487043 1.9690014,4.74572 1.2586653,1.258938 2.9655196,1.966966 4.7457596,1.969036 h 18.5707205 -2.64e-4 c 1.780245,-0.0021 3.487103,-0.710098 4.745757,-1.969036 1.25892,-1.258677 1.966971,-2.96552 1.969012,-4.74572 V 7.7151072 C 32.99732,5.9348995 32.289895,4.2280647 31.030974,2.9693821 29.77232,1.7104459 28.065463,1.0024153 26.285218,1.0003486 Z M 6.9999995,2.9999967 h 20.0000015 -0.2 c 2,0 4.2,2.2 4.2,4.2000005 V 25.999996 H 2.9999995 V 7.1999972 c 0,-2.0000004 2.2000001,-4.2000005 4.2,-4.2000005 z"
     id="path1193-3-3-3-6"
     style="isolation:isolate;fill:#d3dae3;fill-opacity:1;stroke-width:0.0634921"
     sodipodi:nodetypes="ccccccccccccccccccccccccc" />
  <path
     d="m 28.799428,12.902491 c -0.01111,-0.01403 -0.03639,-0.01809 -0.04847,-0.0315 L 21.590635,6.1614962 c -0.938764,-0.8820016 -2.458796,-0.8820016 -3.395227,0 -0.936463,0.8774964 -0.936463,2.299496 0,3.1792357 l 5.50347,5.1592501 -5.503473,5.159234 c -0.93646,0.879752 -0.93646,2.301746 0,3.179246 0.936434,0.881996 2.456436,0.881996 3.39523,0 L 28.74856,16.12898 c 0.0126,-0.01422 0.03654,-0.01809 0.05028,-0.03153 0.470626,-0.43875 0.703501,-1.019247 0.70114,-1.597494 0.0014,-0.578252 -0.230514,-1.158749 -0.70114,-1.597495 z"
     id="path2-12-7-3-5"
     style="isolation:isolate;fill:#d3dae3;fill-opacity:1;stroke-width:2.32435" />
  <path
     d="m 5.2005631,16.097492 c 0.011112,0.01403 0.036383,0.0179 0.048464,0.03153 l 7.1603109,6.709484 c 0.938766,0.882001 2.458798,0.882001 3.395232,0 0.936458,-0.877496 0.936458,-2.29949 0,-3.179235 L 10.301096,14.500022 15.80457,9.3407923 c 0.936458,-0.879756 0.936458,-2.3017525 0,-3.1792509 -0.936433,-0.8819997 -2.456438,-0.8819997 -3.395232,0 L 5.2514313,12.871015 c -0.012406,0.01422 -0.036396,0.0181 -0.050272,0.03145 -0.4706257,0.438752 -0.703502,1.01925 -0.7011403,1.597497 -0.00142,0.578252 0.2305126,1.15875 0.7011403,1.597492 z"
     id="path2-12-7-0-5-6"
     style="isolation:isolate;fill:#d3dae3;fill-opacity:1;stroke-width:2.32435" />
</svg>
