<?xml version="1.0" encoding="UTF-8" standalone="no"?>
<svg
   width="64"
   height="64"
   enable-background="new 0 0 1024 1024"
   image-rendering="optimizeSpeed"
   version="1.1"
   viewBox="0 0 64 64"
   id="svg43"
   sodipodi:docname="kmousetool.svg"
   inkscape:version="1.2.1 (9c6d41e410, 2022-07-14)"
   xmlns:inkscape="http://www.inkscape.org/namespaces/inkscape"
   xmlns:sodipodi="http://sodipodi.sourceforge.net/DTD/sodipodi-0.dtd"
   xmlns="http://www.w3.org/2000/svg"
   xmlns:svg="http://www.w3.org/2000/svg">
  <sodipodi:namedview
     id="namedview45"
     pagecolor="#ffffff"
     bordercolor="#666666"
     borderopacity="1.0"
     inkscape:showpageshadow="2"
     inkscape:pageopacity="0.0"
     inkscape:pagecheckerboard="0"
     inkscape:deskcolor="#d1d1d1"
     showgrid="false"
     inkscape:zoom="3.6875"
     inkscape:cx="32.135593"
     inkscape:cy="32.135593"
     inkscape:window-width="1920"
     inkscape:window-height="1002"
     inkscape:window-x="0"
     inkscape:window-y="0"
     inkscape:window-maximized="1"
     inkscape:current-layer="svg43" />
  <defs
     id="defs15">
    <linearGradient
       id="a"
       x1="18.601"
       x2="18.601"
       y1=".85446"
       y2="49.956"
       gradientTransform="matrix(1.1117 0 0 .96015 24.948 7.6203)"
       gradientUnits="userSpaceOnUse">
      <stop
         stop-color="#eceff4"
         offset="0"
         id="stop2" />
      <stop
         stop-color="#d8dee9"
         offset="1"
         id="stop4" />
    </linearGradient>
    <filter
       id="c"
       x="-0.083606137"
       y="-0.046789293"
       width="1.1672123"
       height="1.0935786"
       color-interpolation-filters="sRGB">
      <feGaussianBlur
         stdDeviation="0.89678916"
         id="feGaussianBlur7" />
    </filter>
    <linearGradient
       id="linearGradient862-3"
       x1="7.9373"
       x2="7.9373"
       y1="15.081"
       y2="1.852"
       gradientTransform="scale(3.7796)"
       gradientUnits="userSpaceOnUse">
      <stop
         stop-color="#7b88a1"
         offset="0"
         id="stop10" />
      <stop
         stop-color="#d8dee9"
         offset="1"
         id="stop12" />
    </linearGradient>
    <linearGradient
       id="a-3"
       gradientUnits="userSpaceOnUse"
       x1="41"
       x2="23"
       y1="58"
       y2="6"
       gradientTransform="matrix(0.8846153,0,0,0.8846153,3.6933095,3.6925335)">
      <stop
         offset="0"
         stop-color="#848f9a"
         id="stop2-6" />
      <stop
         offset=".33333299"
         stop-color="#bdc2c7"
         id="stop4-7" />
      <stop
         offset="1"
         stop-color="#f6f6f6"
         id="stop6-5" />
    </linearGradient>
    <linearGradient
       id="d-3"
       gradientUnits="userSpaceOnUse"
       x1="32"
       x2="32"
       y1="6"
       y2="28"
       gradientTransform="matrix(0.8846153,0,0,0.8846153,3.6933095,3.6925335)">
      <stop
         offset="0"
         stop-color="#68737e"
         id="stop21-5" />
      <stop
         offset="1"
         stop-color="#7a8692"
         id="stop23-6" />
    </linearGradient>
    <linearGradient
       id="c-2"
       gradientTransform="matrix(-0.8846153,0,0,0.8846153,-18.422085,3.6925335)"
       gradientUnits="userSpaceOnUse"
       x1="-60"
       x2="-54"
       y1="22"
       y2="12">
      <stop
         offset="0"
         stop-color="#8e98a2"
         id="stop16-9" />
      <stop
         offset="1"
         stop-color="#6c7884"
         id="stop18-1" />
    </linearGradient>
    <linearGradient
       id="e-2"
       gradientTransform="matrix(-0.88461542,0,0,0.88461542,-18.422085,3.6925335)"
       gradientUnits="userSpaceOnUse"
       x1="-55"
       x2="-55"
       y1="22"
       y2="12">
      <stop
         offset="0"
         stop-color="#232629"
         id="stop26-7" />
      <stop
         offset=".333"
         stop-color="#373d43"
         id="stop28-0" />
      <stop
         offset=".667"
         stop-color="#565f68"
         id="stop30-9" />
      <stop
         offset="1"
         stop-color="#474e55"
         id="stop32-3" />
    </linearGradient>
    <linearGradient
       id="b-6"
       gradientTransform="matrix(-0.88461542,0,0,0.88461542,-18.422085,3.6925335)"
       gradientUnits="userSpaceOnUse"
       x1="-55"
       x2="-55"
       y1="12"
       y2="22">
      <stop
         offset="0"
         stop-color="#54b5e8"
         id="stop9-0" />
      <stop
         offset=".333"
         stop-color="#8fd9ff"
         id="stop11-6" />
      <stop
         offset="1"
         stop-color="#369acf"
         id="stop13-2" />
    </linearGradient>
    <linearGradient
       id="f-6"
       gradientUnits="userSpaceOnUse"
       x1="21.005859"
       x2="21"
       y1="21.005859"
       y2="58"
       gradientTransform="matrix(0.88461542,0,0,0.88461542,3.6933095,3.6925335)">
      <stop
         offset="0"
         stop-color="#565f68"
         id="stop35-1" />
      <stop
         offset=".5945304"
         stop-color="#68737e"
         id="stop37-8" />
      <stop
         offset="1"
         stop-color="#424950"
         id="stop39-7" />
    </linearGradient>
  </defs>
  <mask
     id="mask19">
    <path
       d="m969.75 392.05c-1.1-4.35-2.35-9-3.65-13.6-1-3.4-2-6.85-3.15-10.5-1.6-5.15-3.4-10.5-5.3-15.85-6.45-18.25-14.15-36.05-23.15-53.65-3.8-7.4-7.95-14.95-12.3-22.4-20.3-34.5-45.8-67.2-76.35-97.75-72.6-72.6-157.15-116.65-253.65-132.05-16.25-2.6-32.8-4.4-50.05-5.35-9.7-0.55-19.85-0.85-30.1-0.85-9.35 0-18.6 0.25-27.9 0.75-118.35 6.1-220.3 51.95-305.85 137.5q-138.25 138.25-138.25 333.75c0 130.35 46.1 241.65 138.25 333.8 56.7 56.65 120.55 95.9 191.1 117.55 36.75 11.25 74.8 17.85 114.75 19.95h0.4c8.5 0.45 16.6 0.7 24.5 0.7h3c10.3 0 20.5-0.3 30.1-0.8 2.5-0.15 4.75-0.3 6.95-0.45 20.2-1.45 39.9-4.05 58.7-7.7 7.95-1.55 15.8-3.3 23.4-5.15 80.8-20.3 152.15-61.6 214.65-124.1 48.6-48.6 84.4-102.5 107.35-161.8 18.45-47.65 28.65-98.8 30.55-153.5 0.2-6.05 0.3-12.25 0.3-18.5v-3c-0.2-40.65-4.95-79.5-14.3-117z"
       fill="#fff"
       id="path17" />
  </mask>
  <path
     d="m 16.514206,2.0000131 c -7.99083,0 -14.5144196,6.7409166 -14.5144196,14.9982089 v 32.003763 c 0,8.256914 6.5235896,14.998209 14.5144196,14.998209 h 30.971555 c 7.99083,0 14.514419,-6.740917 14.514419,-14.998209 V 16.998222 c 0,-8.2569143 -6.523589,-14.9982089 -14.514419,-14.9982089 z m 0.971509,1.9687559 h 29.030351 c 6.970717,0 12.582667,5.7986623 12.582667,13.001824 v 29.997929 c 0,7.203162 -5.611572,13.001824 -12.582667,13.001824 H 17.485715 c -6.970717,0 -12.5826667,-5.798662 -12.5826667,-13.001824 V 16.970593 c 0,-7.2031617 5.6115717,-13.001824 12.5826667,-13.001824 z"
     color="#000000"
     color-rendering="auto"
     dominant-baseline="auto"
     enable-background="accumulate"
     image-rendering="auto"
     opacity="0.01"
     solid-color="#000000"
     stop-color="#000000"
     style="font-variant-ligatures:normal;font-variant-position:normal;font-variant-caps:normal;font-variant-numeric:normal;font-variant-alternates:normal;font-variant-east-asian:normal;font-feature-settings:normal;font-variation-settings:normal;text-indent:0;text-decoration-line:none;text-decoration-style:solid;text-decoration-color:#000000;text-transform:none;text-orientation:mixed;white-space:normal;shape-padding:0;shape-margin:0;inline-size:0;isolation:auto;mix-blend-mode:normal;stroke-width:3.7796;shape-rendering:auto"
     id="path21" />
  <path
     d="m 16.474143,2.9999819 c -7.4337178,0 -13.4701169,6.2469229 -13.4701169,13.9376531 v 32.125088 c 0,7.69073 6.0363991,13.937653 13.4701169,13.937653 h 31.053949 c 7.433717,0 13.472006,-6.246923 13.472006,-13.937653 V 16.937635 c 0,-7.6907302 -6.038289,-13.9376531 -13.472006,-13.9376531 z m 1.028882,0.9687493 h 28.996336 c 6.962779,0 12.567547,5.7986623 12.567547,13.0018238 v 29.997929 c 0,7.203162 -5.605146,13.001824 -12.567547,13.001824 H 17.503025 c -6.962779,0 -12.5675477,-5.798662 -12.5675477,-13.001824 V 16.970555 c 0,-7.2031615 5.6051467,-13.0018238 12.5675477,-13.0018238 z"
     color="#000000"
     color-rendering="auto"
     dominant-baseline="auto"
     enable-background="accumulate"
     image-rendering="auto"
     opacity="0.01"
     solid-color="#000000"
     stop-color="#000000"
     style="font-variant-ligatures:normal;font-variant-position:normal;font-variant-caps:normal;font-variant-numeric:normal;font-variant-alternates:normal;font-variant-east-asian:normal;font-feature-settings:normal;font-variation-settings:normal;text-indent:0;text-decoration-line:none;text-decoration-style:solid;text-decoration-color:#000000;text-transform:none;text-orientation:mixed;white-space:normal;shape-padding:0;shape-margin:0;inline-size:0;isolation:auto;mix-blend-mode:normal;stroke-width:3.7796;shape-rendering:auto"
     id="path23" />
  <path
     d="m 16.288942,3.9999507 c -7.0515996,0 -12.7565278,5.8141587 -12.7565278,12.9980443 v 32.003763 c 0,7.183886 5.933972,12.998044 12.9855718,12.998044 h 30.991208 c 7.0516,0 12.954201,-5.814158 12.954201,-12.998044 V 16.997995 c 0,-7.1838856 -5.707196,-12.9980443 -12.758418,-12.9980443 H 47.33881 c 6.780602,0.3269921 12.146878,5.9789492 12.146878,12.9708313 v 29.997929 c 0,7.203162 -5.691699,13.001824 -12.762197,13.001824 H 17.278517 c -7.070498,0 -12.7621974,-5.798662 -12.7621974,-13.001824 V 16.970782 c 0,-6.9915041 5.3666541,-12.64314 12.1468784,-12.9708313 z"
     color="#000000"
     color-rendering="auto"
     dominant-baseline="auto"
     enable-background="accumulate"
     image-rendering="auto"
     opacity="0.03"
     solid-color="#000000"
     stop-color="#000000"
     style="font-variant-ligatures:normal;font-variant-position:normal;font-variant-caps:normal;font-variant-numeric:normal;font-variant-alternates:normal;font-variant-east-asian:normal;font-feature-settings:normal;font-variation-settings:normal;text-indent:0;text-decoration-line:none;text-decoration-style:solid;text-decoration-color:#000000;text-transform:none;text-orientation:mixed;white-space:normal;shape-padding:0;shape-margin:0;inline-size:0;isolation:auto;mix-blend-mode:normal;stroke-width:3.7796;shape-rendering:auto"
     id="path25" />
  <path
     d="m 4.0000264,46.96931 v 2.031213 c 0,6.647944 5.8957389,12.00008 12.5440826,12.00008 h 30.961205 c 6.647943,0 12.495082,-5.352136 12.495082,-12.00008 V 47.00831 C 59.979226,54.193258 54.190358,59.971396 47.00031,59.971396 H 17.002112 c -7.2032473,0 -13.0020856,-5.798738 -13.0020856,-13.002086 z"
     color="#000000"
     color-rendering="auto"
     dominant-baseline="auto"
     enable-background="accumulate"
     image-rendering="auto"
     opacity="0.03"
     solid-color="#000000"
     stop-color="#000000"
     style="font-variant-ligatures:normal;font-variant-position:normal;font-variant-caps:normal;font-variant-numeric:normal;font-variant-alternates:normal;font-variant-east-asian:normal;font-feature-settings:normal;font-variation-settings:normal;text-indent:0;text-decoration-line:none;text-decoration-style:solid;text-decoration-color:#000000;text-transform:none;text-orientation:mixed;white-space:normal;shape-padding:0;shape-margin:0;inline-size:0;isolation:auto;mix-blend-mode:normal;stroke-width:1.00001;shape-rendering:auto"
     id="path27" />
  <path
     d="m 3.9999507,44.999918 v 2.238808 c 0,7.327132 5.9449328,13.225954 12.5928713,13.225954 h 30.84267 c 6.647938,0 12.564524,-5.8992 12.564524,-13.225954 V 45.042967 C 59.97885,52.961985 54.190015,59.330233 47.000082,59.330233 H 17.002153 c -7.203162,0 -13.0018244,-6.391303 -13.0018244,-14.330353 z"
     color="#000000"
     color-rendering="auto"
     dominant-baseline="auto"
     enable-background="accumulate"
     image-rendering="auto"
     opacity="0.05"
     solid-color="#000000"
     stop-color="#000000"
     style="font-variant-ligatures:normal;font-variant-position:normal;font-variant-caps:normal;font-variant-numeric:normal;font-variant-alternates:normal;font-variant-east-asian:normal;font-feature-settings:normal;font-variation-settings:normal;text-indent:0;text-decoration-line:none;text-decoration-style:solid;text-decoration-color:#000000;text-transform:none;text-orientation:mixed;white-space:normal;shape-padding:0;shape-margin:0;inline-size:0;isolation:auto;mix-blend-mode:normal;stroke-width:3.7796;shape-rendering:auto"
     id="path29" />
  <rect
     x="4"
     y="3.9686"
     width="56.002"
     height="56.002"
     rx="13.002"
     ry="13.002"
     fill="url(#linearGradient862-3)"
     stroke-width="3.7796"
     id="rect33" />
  <path
     d="m 31.116379,9.4421605 c 0,0 -0.71622,0.03392 -0.88461,0.04485 -6.93338,0.454509 -12.38461,5.7301335 -12.38461,12.7823645 0,0 1.76922,6.48715 1.76922,9.730754 0,3.243632 -0.88461,6.473839 -0.88461,9.730782 0,7.351145 5.03346,12.826928 12.38461,12.826928 h 1.76921 c 7.35118,0 12.38464,-5.475783 12.38464,-12.826928 0,-3.256943 -0.88464,-6.48715 -0.88464,-9.730782 0,-3.243604 1.76925,-6.473781 1.76925,-9.730754 0,-7.052231 -5.45833,-12.23094 -12.38461,-12.7823355 -0.19521,-0.01725 -0.88464,-0.04485 -0.88464,-0.04485 v 4.8657645 h -1.76921 z"
     fill-rule="evenodd"
     id="path42-9"
     style="fill:url(#a-3);stroke-width:0.884626" />
  <path
     d="m 31.116379,9.0002155 c 0,0 -0.71622,0.03392 -0.88461,0.04485 -6.93338,0.45448 -12.38461,6.1721075 -12.38461,13.2243385 0,0.177963 0.0115,0.355839 0.0201,0.533859 0.17854,-6.88873 5.55036,-12.426699 12.36733,-12.8735605 0.16819,-0.0115 0.88461,-0.04485 0.88461,-0.04485 h 1.76925 c 0,0 0.68937,0.02932 0.88461,0.04485 6.81047,0.5421965 12.18893,5.9890855 12.36733,12.8753145 0.009,-0.178538 0.0201,-0.356874 0.0201,-0.535613 0,-7.052231 -5.4583,-12.6728845 -12.38461,-13.2243095 -0.19521,-0.01725 -0.88458,-0.04485 -0.88458,-0.04485 z"
     fill="#c9cdd1"
     id="path44-2"
     style="stroke-width:0.884626" />
  <path
     d="m 31.116379,9.0002155 v 3.5384635 l -1.76925,1.769275 v 8.846116 l 0.88464,0.884609 v 3.538464 c 0,0.980174 0.78907,1.769217 1.76921,1.769217 0.98015,0 1.76925,-0.789043 1.76925,-1.769217 v -3.538464 l 0.88461,-0.884609 v -8.846116 l -1.76925,-1.769275 V 9.0002155 Z"
     id="path46-0"
     style="fill:url(#d-3);stroke-width:0.884626" />
  <path
     d="m 17.864409,41.18331 c -0.009,0.182562 -0.0173,0.364895 -0.0173,0.547659 0,7.351173 5.9181,13.269246 13.26927,13.269246 h 1.76919 c 7.35118,0 13.26925,-5.918073 13.26925,-13.269246 0,-0.182563 -0.0115,-0.365039 -0.0201,-0.547659 -0.1794,7.19256 -6.01464,12.932296 -13.25196,12.932296 h -1.76879 c -7.2373,0 -13.07257,-5.739736 -13.25197,-12.932296 z"
     fill="#7a8692"
     fill-rule="evenodd"
     id="path48-2"
     style="stroke-width:0.884626" />
  <path
     d="m 34.654839,14.307954 v 8.846116 l -1.76925,-1.769217 v -5.30771 z m -5.30771,0 1.76925,1.769189 v 5.30771 l -1.76925,1.769217 z"
     id="path50-3"
     style="fill:url(#c-2);stroke-width:0.884626" />
  <rect
     fill="#2a2e32"
     height="2.6538463"
     rx="0.88461542"
     width="1.7692308"
     x="31.116371"
     y="24.923294"
     id="rect52-5"
     style="fill:#2a2e32;fill-opacity:1;fill-rule:evenodd;stroke-width:0.884614" />
  <path
     d="m 32.000979,14.307897 c 0.32994,0 0.62077,0.05664 0.88461,0.134837 v 8.576643 c -0.26392,0.07791 -0.55467,0.134837 -0.88461,0.134837 -0.32993,0 -0.62079,-0.05664 -0.8846,-0.134837 v -8.576614 c 0.26392,-0.07791 0.55467,-0.134837 0.8846,-0.134837 z"
     id="path54-9"
     style="fill:url(#e-2);fill-rule:evenodd;stroke-width:0.884614" />
  <path
     d="m 32.885589,14.442677 c 0.51992,0.153812 0.88461,1.309361 0.88461,1.634466 v 5.307681 c 0,0.325105 -0.36469,1.48074 -0.88461,1.634466 z m -1.76921,0 v 8.576613 c -0.51992,-0.153812 -0.88464,-1.309361 -0.88464,-1.634466 v -5.307681 c 0,-0.325105 0.36472,-1.48074 0.88464,-1.634466 z"
     id="path56-2"
     style="fill:url(#b-6);fill-rule:evenodd;stroke-width:0.884614" />
  <path
     d="m 17.847129,22.274637 c 8.9e-4,3.25519 0.88461,6.470331 0.88461,9.725578 0,3.255247 -0.88366,6.470389 -0.88461,9.725579 v 0.0057 c 0,6.983375 5.34428,12.662075 12.18074,13.21396 -5.36587,-0.541678 -9.52689,-5.046747 -9.52689,-10.560104 V 33.770009 c 0,-2.99394 -0.99354,-9.279265 -2.65385,-11.494826 z m 28.30771,0 c -1.66031,2.215532 -2.65385,8.500857 -2.65385,11.494824 v 10.615363 c 0,5.513388 -4.16102,10.018426 -9.52689,10.560105 6.83646,-0.551884 12.18074,-6.230584 12.18074,-13.213932 v -0.0057 c -9.8e-4,-3.255162 -0.88464,-6.470332 -0.88464,-9.72555 0,-3.255248 0.88369,-6.470389 0.88464,-9.725608 z"
     stroke-width="0.884612"
     id="path58-2"
     style="fill:url(#f-6);fill-rule:evenodd" />
</svg>
