<?xml version="1.0" encoding="UTF-8" standalone="no"?>
<svg
   width="64"
   version="1.1"
   height="64"
   id="svg17"
   sodipodi:docname="folder-comic.svg"
   inkscape:version="1.2.1 (9c6d41e410, 2022-07-14)"
   xmlns:inkscape="http://www.inkscape.org/namespaces/inkscape"
   xmlns:sodipodi="http://sodipodi.sourceforge.net/DTD/sodipodi-0.dtd"
   xmlns:xlink="http://www.w3.org/1999/xlink"
   xmlns="http://www.w3.org/2000/svg"
   xmlns:svg="http://www.w3.org/2000/svg"
   xmlns:rdf="http://www.w3.org/1999/02/22-rdf-syntax-ns#"
   xmlns:cc="http://creativecommons.org/ns#"
   xmlns:dc="http://purl.org/dc/elements/1.1/">
  <sodipodi:namedview
     pagecolor="#ffffff"
     bordercolor="#666666"
     borderopacity="1"
     objecttolerance="10"
     gridtolerance="10"
     guidetolerance="10"
     inkscape:pageopacity="0"
     inkscape:pageshadow="2"
     inkscape:window-width="1920"
     inkscape:window-height="1002"
     id="namedview19"
     showgrid="true"
     inkscape:zoom="4.90625"
     inkscape:cx="-4.5859873"
     inkscape:cy="39.43949"
     inkscape:window-x="0"
     inkscape:window-y="0"
     inkscape:window-maximized="1"
     inkscape:current-layer="layer1"
     inkscape:document-rotation="0"
     inkscape:showpageshadow="2"
     inkscape:pagecheckerboard="0"
     inkscape:deskcolor="#d1d1d1">
    <inkscape:grid
       type="xygrid"
       id="grid925" />
  </sodipodi:namedview>
  <defs
     id="defs5455">
    <linearGradient
       inkscape:collect="always"
       xlink:href="#linearGradient860"
       id="linearGradient862"
       x1="113.94583"
       y1="366.97165"
       x2="406.08234"
       y2="159.71205"
       gradientUnits="userSpaceOnUse"
       gradientTransform="matrix(0.17799897,0,0,0.17852009,370.28919,468.28582)" />
    <linearGradient
       inkscape:collect="always"
       id="linearGradient860">
      <stop
         style="stop-color:#8fbcbb;stop-opacity:1;"
         offset="0"
         id="stop856" />
      <stop
         style="stop-color:#a3be8c;stop-opacity:1;"
         offset="1"
         id="stop858" />
    </linearGradient>
    <linearGradient
       inkscape:collect="always"
       xlink:href="#linearGradient842"
       id="linearGradient844"
       x1="386.3063"
       y1="539.79773"
       x2="447.95114"
       y2="504.71896"
       gradientUnits="userSpaceOnUse"
       gradientTransform="matrix(0.89220779,0,0,1.0832755,44.905939,-43.952033)" />
    <linearGradient
       inkscape:collect="always"
       id="linearGradient842">
      <stop
         style="stop-color:#5e81ac;stop-opacity:1;"
         offset="0"
         id="stop838" />
      <stop
         style="stop-color:#88c0d0;stop-opacity:1;"
         offset="1"
         id="stop840" />
    </linearGradient>
  </defs>
  <metadata
     id="metadata5458">
    <rdf:RDF>
      <cc:Work
         rdf:about="">
        <dc:format>image/svg+xml</dc:format>
        <dc:type
           rdf:resource="http://purl.org/dc/dcmitype/StillImage" />
      </cc:Work>
    </rdf:RDF>
  </metadata>
  <g
     inkscape:label="Capa 1"
     inkscape:groupmode="layer"
     id="layer1"
     transform="translate(-384.57143,-483.798)">
    <path
       style="fill:url(#linearGradient862);fill-opacity:1;stroke-width:0.165167"
       d="m 416.56885,496.79763 c -0.77296,0 -1.68528,-0.50466 -2.0318,-1.11585 l -1.55431,-2.74667 c -0.34485,-0.61114 -1.25998,-1.10996 -2.03256,-1.1111 l -17.10301,-0.026 c -2.52449,-0.004 -3.2764,0.90502 -3.27574,2.90836 l 2.8e-4,0.84425 v 2.48461 l -2.8e-4,32.7624 c -1e-5,0.89375 2.02423,3 3,3 h 46 c 1,0 3,-2 3,-3 v -31 c 0,-2 -1,-3 -2.95097,-3 z"
       id="path4-3"
       sodipodi:nodetypes="sccsssccscsssss" />
    <path
       style="fill:#434c5e;fill-opacity:1;stroke-width:0.169792"
       d="m 438.57143,509.19766 c 0,1.42999 -0.68236,2.59997 -2.24338,2.59997 h -39.59788 c -1.56099,0 -2.15874,-1.16998 -2.15874,-2.59997 v -7.40003 c 0,-2 1,-3 3,-3 h 38 c 2,0 3,1 3,3 z"
       id="path8-6"
       sodipodi:nodetypes="sssssssss" />
    <path
       style="fill:url(#linearGradient844);fill-opacity:1;stroke-width:0.190958"
       d="m 437.57143,502.79763 h -42 c -4,0 -6,2 -6,6 v 27 c 0,3 2,5 5,5 h 44 c 3,0 5,-2 5,-5 v -27 c 0,-4 -2,-6 -6,-6 z"
       id="path10"
       sodipodi:nodetypes="sssssssss" />
    <path
       fill-rule="evenodd"
       clip-rule="evenodd"
       d="m 426.78623,525.22666 c -0.39444,0 -0.7146,0.31983 -0.7146,0.71355 v 0.35753 c 0,0.98629 -0.79976,1.78575 -1.7854,1.78575 -0.39027,0 -0.75083,-0.12497 -1.04451,-0.33737 -6.5e-4,0 0,0 -6.5e-4,0 l -1.69926,-1.27403 c -0.0199,-0.0156 -0.036,-0.0269 -0.0556,-0.0423 -0.68638,-0.52111 -1.12894,-1.3462 -1.12894,-2.27504 v -1.42786 c 0,-0.9863 -0.79942,-1.78637 -1.78571,-1.78637 h -9.28531 c -0.98633,0 -1.78639,0.80007 -1.78639,1.78637 v 4.99993 c 0,0.78194 0.50607,1.43879 1.20679,1.68111 0.0277,0.0657 0.0974,0.10439 0.22202,0.10439 0.5289,0 1.42888,0.7991 1.42888,1.78538 v 0.71459 c 0,0.19677 0.15975,0.35684 0.35676,0.35684 0.0761,0 0.14544,-0.0233 0.20363,-0.0635 0.001,0 0,6.5e-4 0,6.5e-4 l 3.00383,-2.25261 c 0.44849,-0.33972 1.00761,-0.54101 1.61445,-0.54101 h 2.67819 c 0.3945,0 0.71437,0.31949 0.71437,0.71425 0,0.39375 -0.31987,0.71359 -0.71437,0.71359 h -2.50013 c -0.40838,0 -0.78556,0.13712 -1.08567,0.36909 l -2.86884,2.15152 h -6e-4 c -0.29402,0.21205 -0.65472,0.33687 -1.04482,0.33687 -0.98633,0 -1.78563,-0.79908 -1.78563,-1.78536 v -0.35787 c 0,-0.39364 -0.31963,-0.71425 -0.71431,-0.71425 -0.0789,0 -0.0959,-0.0458 -0.0754,-0.11374 -1.19341,-0.34245 -2.06758,-1.43927 -2.06758,-2.74293 v -5.71419 c 0,-1.5782 1.27875,-2.85684 2.85674,-2.85684 h 10.00012 c 1.5778,0 2.85743,1.27868 2.85743,2.85684 v 1.78525 c 0,0.46844 0.22503,0.88417 0.57277,1.14474 l 1.7232,1.29248 c 9.7e-4,0 -6.7e-4,-6.7e-4 0,-6.7e-4 0.0581,0.0401 0.12836,0.0631 0.20401,0.0631 0.19711,0 0.35685,-0.15967 0.35685,-0.35673 v -0.71425 c 0,-0.98633 0.89979,-1.78572 1.42857,-1.78572 0.68879,0 1.42816,-0.79904 1.42816,-1.78533 v -4.99995 c 0,-0.98665 -0.79897,-1.7857 -1.78538,-1.7857 h -9.28579 c -0.98634,0 -1.78548,0.79905 -1.78548,1.7857 v 0.35684 c 0,0.39443 -0.31964,0.71428 -0.71454,0.71428 -0.3946,0 -0.71427,-0.31985 -0.71427,-0.71428 v -0.7147 c 0,-1.57784 1.27953,-2.8567 2.85753,-2.8567 h 9.99977 c 1.57816,0 2.85709,1.27886 2.85709,2.8567 v 5.71461 c 0,1.57784 -1.13037,2.8574 -2.14252,2.8574 z m -5.71458,2.85683 c 0.3941,0 0.71462,0.31982 0.71462,0.71425 0,0.39474 -0.32052,0.71458 -0.71462,0.71458 -0.39438,0 -0.71428,-0.31984 -0.71428,-0.71458 0,-0.39443 0.3199,-0.71425 0.71428,-0.71425 z"
       id="path1947-1"
       style="fill:#434c5e;fill-opacity:1;stroke-width:0.0446418" />
  </g>
</svg>
