<?xml version="1.0" encoding="UTF-8" standalone="no"?>
<svg
   width="64"
   version="1.1"
   height="64"
   id="svg2"
   inkscape:version="1.2.1 (9c6d41e410, 2022-07-14)"
   sodipodi:docname="folder-design.svg"
   xmlns:inkscape="http://www.inkscape.org/namespaces/inkscape"
   xmlns:sodipodi="http://sodipodi.sourceforge.net/DTD/sodipodi-0.dtd"
   xmlns:xlink="http://www.w3.org/1999/xlink"
   xmlns="http://www.w3.org/2000/svg"
   xmlns:svg="http://www.w3.org/2000/svg"
   xmlns:rdf="http://www.w3.org/1999/02/22-rdf-syntax-ns#"
   xmlns:cc="http://creativecommons.org/ns#"
   xmlns:dc="http://purl.org/dc/elements/1.1/">
  <sodipodi:namedview
     pagecolor="#ffffff"
     bordercolor="#666666"
     borderopacity="1"
     objecttolerance="10"
     gridtolerance="10"
     guidetolerance="10"
     inkscape:pageopacity="0"
     inkscape:pageshadow="2"
     inkscape:window-width="1920"
     inkscape:window-height="1002"
     id="namedview45"
     showgrid="true"
     inkscape:zoom="5.2149125"
     inkscape:cx="24.0656"
     inkscape:cy="13.327165"
     inkscape:window-x="0"
     inkscape:window-y="0"
     inkscape:window-maximized="1"
     inkscape:current-layer="layer1"
     inkscape:document-rotation="0"
     inkscape:showpageshadow="2"
     inkscape:pagecheckerboard="0"
     inkscape:deskcolor="#d1d1d1">
    <inkscape:grid
       type="xygrid"
       id="grid921" />
  </sodipodi:namedview>
  <defs
     id="defs5455">
    <linearGradient
       inkscape:collect="always"
       xlink:href="#linearGradient860"
       id="linearGradient862"
       x1="113.94583"
       y1="366.97165"
       x2="406.08234"
       y2="159.71205"
       gradientUnits="userSpaceOnUse"
       gradientTransform="matrix(0.17799897,0,0,0.17852009,370.28919,468.28582)" />
    <linearGradient
       inkscape:collect="always"
       id="linearGradient860">
      <stop
         style="stop-color:#8fbcbb;stop-opacity:1;"
         offset="0"
         id="stop856" />
      <stop
         style="stop-color:#a3be8c;stop-opacity:1;"
         offset="1"
         id="stop858" />
    </linearGradient>
    <linearGradient
       inkscape:collect="always"
       xlink:href="#linearGradient842"
       id="linearGradient844"
       x1="386.3063"
       y1="539.79773"
       x2="447.95114"
       y2="504.71896"
       gradientUnits="userSpaceOnUse"
       gradientTransform="matrix(0.89220779,0,0,1.0832755,44.905939,-43.952039)" />
    <linearGradient
       inkscape:collect="always"
       id="linearGradient842">
      <stop
         style="stop-color:#5e81ac;stop-opacity:1;"
         offset="0"
         id="stop838" />
      <stop
         style="stop-color:#88c0d0;stop-opacity:1;"
         offset="1"
         id="stop840" />
    </linearGradient>
  </defs>
  <metadata
     id="metadata5458">
    <rdf:RDF>
      <cc:Work
         rdf:about="">
        <dc:format>image/svg+xml</dc:format>
        <dc:type
           rdf:resource="http://purl.org/dc/dcmitype/StillImage" />
      </cc:Work>
    </rdf:RDF>
  </metadata>
  <g
     inkscape:label="Capa 1"
     inkscape:groupmode="layer"
     id="layer1"
     transform="translate(-384.57143,-483.798)">
    <path
       style="fill:url(#linearGradient862);fill-opacity:1;stroke-width:0.165167"
       d="m 416.56885,496.79763 c -0.77296,0 -1.68528,-0.50466 -2.0318,-1.11585 l -1.55431,-2.74667 c -0.34485,-0.61114 -1.25998,-1.10996 -2.03256,-1.1111 l -17.10301,-0.026 c -2.52449,-0.004 -3.2764,0.90502 -3.27574,2.90836 l 2.8e-4,0.84425 v 2.48461 l -2.8e-4,32.7624 c -1e-5,0.89375 2.02423,3 3,3 h 46 c 1,0 3,-2 3,-3 v -31 c 0,-2 -1,-3 -2.95097,-3 z"
       id="path4-3"
       sodipodi:nodetypes="sccsssccscsssss" />
    <path
       style="fill:#434c5e;fill-opacity:1;stroke-width:0.169792"
       d="m 438.57143,509.19766 c 0,1.42999 -0.68236,2.59997 -2.24338,2.59997 h -39.59788 c -1.56099,0 -2.15874,-1.16998 -2.15874,-2.59997 v -7.40003 c 0,-2 1,-3 3,-3 h 38 c 2,0 3,1 3,3 z"
       id="path8-6"
       sodipodi:nodetypes="sssssssss" />
    <path
       style="fill:url(#linearGradient844);fill-opacity:1;stroke-width:0.190958"
       d="m 437.57143,502.79763 h -42 c -4,0 -6,2 -6,6 v 27 c 0,3 2,5 5,5 h 44 c 3,0 5,-2 5,-5 v -27 c 0,-4 -2,-6 -6,-6 z"
       id="path10"
       sodipodi:nodetypes="sssssssss" />
    <path
       style="color:#232629;fill:#434c5e;fill-opacity:1;stroke:none;stroke-width:0.766643"
       d="m 417.00695,511.798 c -0.38852,0 -0.70677,0.31364 -0.70677,0.70228 v 0.64233 c -1.25221,0.32152 -2.15323,1.43218 -2.15323,2.7671 0,0.93439 0.44628,1.76613 1.14246,2.28946 0.0748,0.0876 0.11991,0.19847 0.11991,0.322 0,0.0353 2e-5,0.0714 -0.006,0.10475 l -3.09505,6.55992 h -1.28032 c -0.20893,0 -0.38031,0.1684 -0.38031,0.37724 v 0.002 c 0,0.20884 0.17138,0.37743 0.38031,0.37743 h 0.92395 l -2.38991,5.06542 c -0.15038,0.32129 -0.0756,0.69255 0.16037,0.93296 l -0.92093,1.87011 1.45544,-1.57673 c 0.38631,0.10103 0.79956,-0.083 0.97477,-0.45373 l 2.75509,-5.83805 h 2.42117 v 0.50156 c 0,0.31897 0.25974,0.57647 0.58104,0.57647 h 0.0321 c 0.32121,0 0.58245,-0.2575 0.58245,-0.57647 v -0.50156 h 2.47667 l 2.75359,5.83804 c 0.17286,0.37294 0.58911,0.55476 0.97326,0.45373 l 1.45544,1.57673 -0.91786,-1.87012 c 0.23352,-0.2404 0.30917,-0.6094 0.15865,-0.93294 l -2.38977,-5.06544 h 0.86698 c 0.21109,0 0.38034,-0.16858 0.38034,-0.37741 0,-0.20888 -0.16925,-0.37667 -0.38034,-0.3789 h -1.22333 l -3.09349,-6.5598 c -0.006,-0.0335 -0.006,-0.0693 -0.006,-0.10486 0,-0.1213 0.0452,-0.23423 0.11681,-0.3218 0.69645,-0.52349 1.14559,-1.35505 1.14559,-2.28949 0,-1.35316 -0.94346,-2.47753 -2.21011,-2.78203 v -0.62741 c 0,-0.3887 -0.3144,-0.70226 -0.70537,-0.70226 z m 0.67238,2.59039 c 0.59576,0.2503 1.01364,0.83681 1.01364,1.52132 0,0.91203 -0.74106,1.65164 -1.65758,1.65164 -0.92091,0 -1.65757,-0.73961 -1.65757,-1.65164 0,-0.66228 0.39364,-1.22985 0.9613,-1.49285 0.0842,0.29286 0.34469,0.51218 0.66783,0.51218 0.33151,0 0.5975,-0.23259 0.67238,-0.54065 z m -0.65748,5.48479 h 0.0128 0.013 c 0.09,0 0.1692,0.0414 0.21862,0.1049 l 2.45717,5.20776 h -2.12022 v -0.60948 c 0,-0.32124 -0.26122,-0.57946 -0.58247,-0.57946 h -0.0317 c -0.32121,0 -0.58098,0.26048 -0.58098,0.57946 v 0.60948 h -2.06479 l 2.45716,-5.20776 c 0.0524,-0.0649 0.13028,-0.1049 0.22011,-0.1049 z"
       class="ColorScheme-Text"
       id="path8133-5" />
  </g>
</svg>
