<?xml version="1.0" encoding="UTF-8" standalone="no"?>
<svg
   width="64"
   version="1.1"
   height="64"
   id="svg15"
   sodipodi:docname="folder-rpm.svg"
   inkscape:version="1.2.1 (9c6d41e410, 2022-07-14)"
   xmlns:inkscape="http://www.inkscape.org/namespaces/inkscape"
   xmlns:sodipodi="http://sodipodi.sourceforge.net/DTD/sodipodi-0.dtd"
   xmlns="http://www.w3.org/2000/svg"
   xmlns:svg="http://www.w3.org/2000/svg"
   xmlns:rdf="http://www.w3.org/1999/02/22-rdf-syntax-ns#"
   xmlns:cc="http://creativecommons.org/ns#"
   xmlns:dc="http://purl.org/dc/elements/1.1/">
  <sodipodi:namedview
     pagecolor="#ffffff"
     bordercolor="#666666"
     borderopacity="1"
     objecttolerance="10"
     gridtolerance="10"
     guidetolerance="10"
     inkscape:pageopacity="0"
     inkscape:pageshadow="2"
     inkscape:window-width="1920"
     inkscape:window-height="1002"
     id="namedview17"
     showgrid="true"
     inkscape:zoom="4.90625"
     inkscape:cx="-45.961783"
     inkscape:cy="32.509554"
     inkscape:window-x="0"
     inkscape:window-y="0"
     inkscape:window-maximized="1"
     inkscape:current-layer="layer1"
     inkscape:document-rotation="0"
     inkscape:showpageshadow="2"
     inkscape:pagecheckerboard="0"
     inkscape:deskcolor="#d1d1d1">
    <inkscape:grid
       type="xygrid"
       id="grid547" />
  </sodipodi:namedview>
  <defs
     id="defs5455" />
  <metadata
     id="metadata5458">
    <rdf:RDF>
      <cc:Work
         rdf:about="">
        <dc:format>image/svg+xml</dc:format>
        <dc:type
           rdf:resource="http://purl.org/dc/dcmitype/StillImage" />
      </cc:Work>
    </rdf:RDF>
  </metadata>
  <g
     inkscape:label="Capa 1"
     inkscape:groupmode="layer"
     id="layer1"
     transform="translate(-384.57143,-483.798)">
    <path
       style="fill:#88c0d0;fill-opacity:1;stroke-width:0.165167"
       d="m 416.56885,496.79763 c -0.77296,0 -1.68528,-0.50466 -2.0318,-1.11585 l -1.55431,-2.74667 c -0.34485,-0.61114 -1.25998,-1.10996 -2.03256,-1.1111 l -17.10301,-0.026 c -2.52449,-0.004 -3.2764,0.90502 -3.27574,2.90836 l 2.8e-4,0.84425 v 2.48461 l -2.8e-4,32.7624 c -1e-5,0.89375 2.02423,3 3,3 h 46 c 1,0 3,-2 3,-3 v -31 c 0,-2 -1,-3 -2.95097,-3 z"
       id="path4-3"
       sodipodi:nodetypes="sccsssccscsssss" />
    <path
       style="fill:#434c5e;fill-opacity:1;stroke-width:0.169792"
       d="m 438.57143,509.19766 c 0,1.42999 -0.68236,2.59997 -2.24338,2.59997 h -39.59788 c -1.56099,0 -2.15874,-1.16998 -2.15874,-2.59997 v -7.40003 c 0,-2 1,-3 3,-3 h 38 c 2,0 3,1 3,3 z"
       id="path8-6"
       sodipodi:nodetypes="sssssssss" />
    <path
       style="fill:#bf616a;fill-opacity:1;stroke-width:0.190958"
       d="m 437.57143,502.79763 h -42 c -4,0 -6,2 -6,6 v 27 c 0,3 2,5 5,5 h 44 c 3,0 5,-2 5,-5 v -27 c 0,-4 -2,-6 -6,-6 z"
       id="path10"
       sodipodi:nodetypes="sssssssss" />
    <path
       fill-rule="evenodd"
       clip-rule="evenodd"
       d="m 409.47389,523.1722 c 0,-0.34508 0.27986,-0.62494 0.62506,-0.62494 0.34508,0 0.62494,0.27986 0.62494,0.62494 0,0.34522 -0.27986,0.62506 -0.62494,0.62506 -0.3452,0 -0.62506,-0.27984 -0.62506,-0.62506 z m 2.18755,-4.37494 c 0,-0.3452 0.27986,-0.62506 0.62494,-0.62506 0.3452,0 0.62506,0.27986 0.62506,0.62506 0,0.34508 -0.27986,0.62494 -0.62506,0.62494 -0.34508,0 -0.62494,-0.27986 -0.62494,-0.62494 z m 4.68751,-1.87506 c 0,-0.34508 0.27986,-0.62494 0.62494,-0.62494 0.34521,0 0.62506,0.27986 0.62506,0.62494 0,0.34522 -0.27985,0.62506 -0.62506,0.62506 -0.34508,0 -0.62494,-0.27984 -0.62494,-0.62506 z m 5.74947,2.053 c 0.24847,0.24811 0.24847,0.6506 0,0.89871 l -4.04421,4.04444 c -0.2484,0.24816 -0.6506,0.24816 -0.89871,0 -0.24822,-0.24811 -0.24822,-0.65056 0,-0.89867 l 4.04419,-4.04448 c 0.24837,-0.24812 0.65061,-0.24812 0.89873,0 z m 1.75053,3.57206 c 0.34508,0 0.62494,0.27986 0.62494,0.62494 0,0.34522 -0.27986,0.62506 -0.62494,0.62506 -0.3452,0 -0.62506,-0.27984 -0.62506,-0.62506 0,-0.34508 0.27986,-0.62494 0.62506,-0.62494 z m -8.75,6.25 h 3.75 c 0.34508,0 0.62494,0.27986 0.62494,0.62494 0,0.34523 -0.27986,0.62506 -0.62494,0.62506 h -3.75 c -0.3452,0 -0.62506,-0.27983 -0.62506,-0.62506 0,-0.34508 0.27986,-0.62494 0.62506,-0.62494 z m 1.87494,5 c -2.75574,0 -5.25095,-1.11517 -7.05978,-2.91808 -0.12555,-0.11453 -0.20584,-0.27768 -0.20584,-0.4609 0,-0.34508 0.27983,-0.62494 0.62506,-0.62494 0.17761,0 0.337,0.0751 0.45067,0.19381 l 0.002,-0.002 c 1.58348,1.58352 3.771,2.56285 6.18722,2.56285 4.83242,0 8.75,-3.91758 8.75,-8.75 0,-4.83241 -3.91758,-8.75 -8.75,-8.75 -4.83245,0 -8.75,3.91759 -8.75,8.75 0,0.57829 0.0663,1.13958 0.17777,1.68455 0.17678,0.47577 0.63272,0.81545 1.16988,0.81545 h 4.98046 c 0.15683,0 0.29571,-0.0772 0.38082,-0.19534 0.003,-0.004 0.008,-0.007 0.0149,-0.008 0.45348,-0.63137 1.18956,-1.0458 2.02636,-1.0458 0.83676,0 1.57284,0.41443 2.02633,1.04582 0.006,10e-4 0.012,0.004 0.0151,0.008 0.0848,0.11846 0.22399,0.19532 0.38082,0.19532 h 3.20317 c 0.34508,0 0.62494,0.27986 0.62494,0.62506 0,0.34508 -0.27986,0.62494 -0.62494,0.62494 h -3.29107 c -0.53281,0 -1.00245,-0.26769 -1.28445,-0.67509 -0.22245,-0.34509 -0.60822,-0.57491 -1.04954,-0.57491 -0.44132,0 -0.82709,0.22982 -1.0495,0.57491 -0.282,0.4074 -0.75142,0.67509 -1.28449,0.67509 h -5.06835 c -1.17076,0 -2.14612,-0.80783 -2.41804,-1.8942 -0.11385,-0.60181 -0.17965,-1.22067 -0.17965,-1.8558 0,-5.52314 4.47712,-10 10,-10 5.52274,0 10,4.47686 10,10 0,5.52274 -4.47726,10 -10,10 z"
       id="path5690-1"
       style="fill:#434c5e;fill-opacity:1;stroke-width:0.0390622" />
  </g>
</svg>
