<?xml version="1.0" encoding="UTF-8" standalone="no"?>
<svg
   width="64"
   version="1.1"
   height="64"
   id="svg15"
   sodipodi:docname="folder-KDE.svg"
   inkscape:version="1.2.1 (9c6d41e410, 2022-07-14)"
   xmlns:inkscape="http://www.inkscape.org/namespaces/inkscape"
   xmlns:sodipodi="http://sodipodi.sourceforge.net/DTD/sodipodi-0.dtd"
   xmlns:xlink="http://www.w3.org/1999/xlink"
   xmlns="http://www.w3.org/2000/svg"
   xmlns:svg="http://www.w3.org/2000/svg"
   xmlns:rdf="http://www.w3.org/1999/02/22-rdf-syntax-ns#"
   xmlns:cc="http://creativecommons.org/ns#"
   xmlns:dc="http://purl.org/dc/elements/1.1/">
  <sodipodi:namedview
     pagecolor="#ffffff"
     bordercolor="#666666"
     borderopacity="1"
     objecttolerance="10"
     gridtolerance="10"
     guidetolerance="10"
     inkscape:pageopacity="0"
     inkscape:pageshadow="2"
     inkscape:window-width="1920"
     inkscape:window-height="1002"
     id="namedview17"
     showgrid="true"
     inkscape:zoom="6.9384853"
     inkscape:cx="-4.8281431"
     inkscape:cy="26.734942"
     inkscape:window-x="0"
     inkscape:window-y="0"
     inkscape:window-maximized="1"
     inkscape:current-layer="layer1"
     inkscape:document-rotation="0"
     inkscape:showpageshadow="2"
     inkscape:pagecheckerboard="0"
     inkscape:deskcolor="#d1d1d1">
    <inkscape:grid
       type="xygrid"
       id="grid919" />
  </sodipodi:namedview>
  <defs
     id="defs5455">
    <linearGradient
       inkscape:collect="always"
       xlink:href="#linearGradient860"
       id="linearGradient862"
       x1="113.94583"
       y1="366.97165"
       x2="406.08234"
       y2="159.71205"
       gradientUnits="userSpaceOnUse"
       gradientTransform="matrix(0.17799897,0,0,0.17852009,370.28919,468.28582)" />
    <linearGradient
       inkscape:collect="always"
       id="linearGradient860">
      <stop
         style="stop-color:#8fbcbb;stop-opacity:1;"
         offset="0"
         id="stop856" />
      <stop
         style="stop-color:#a3be8c;stop-opacity:1;"
         offset="1"
         id="stop858" />
    </linearGradient>
    <linearGradient
       inkscape:collect="always"
       xlink:href="#linearGradient842"
       id="linearGradient844"
       x1="386.3063"
       y1="539.79773"
       x2="447.95114"
       y2="504.71896"
       gradientUnits="userSpaceOnUse"
       gradientTransform="matrix(0.89220779,0,0,1.0832755,44.905939,-43.95203)" />
    <linearGradient
       inkscape:collect="always"
       id="linearGradient842">
      <stop
         style="stop-color:#5e81ac;stop-opacity:1;"
         offset="0"
         id="stop838" />
      <stop
         style="stop-color:#88c0d0;stop-opacity:1;"
         offset="1"
         id="stop840" />
    </linearGradient>
  </defs>
  <metadata
     id="metadata5458">
    <rdf:RDF>
      <cc:Work
         rdf:about="">
        <dc:format>image/svg+xml</dc:format>
        <dc:type
           rdf:resource="http://purl.org/dc/dcmitype/StillImage" />
      </cc:Work>
    </rdf:RDF>
  </metadata>
  <g
     inkscape:label="Capa 1"
     inkscape:groupmode="layer"
     id="layer1"
     transform="translate(-384.57143,-483.798)">
    <path
       style="fill:url(#linearGradient862);fill-opacity:1;stroke-width:0.165167"
       d="m 416.56885,496.79763 c -0.77296,0 -1.68528,-0.50466 -2.0318,-1.11585 l -1.55431,-2.74667 c -0.34485,-0.61114 -1.25998,-1.10996 -2.03256,-1.1111 l -17.10301,-0.026 c -2.52449,-0.004 -3.2764,0.90502 -3.27574,2.90836 l 2.8e-4,0.84425 v 2.48461 l -2.8e-4,32.7624 c -1e-5,0.89375 2.02423,3 3,3 h 46 c 1,0 3,-2 3,-3 v -31 c 0,-2 -1,-3 -2.95097,-3 z"
       id="path4-3"
       sodipodi:nodetypes="sccsssccscsssss" />
    <path
       style="fill:#434c5e;fill-opacity:1;stroke-width:0.169792"
       d="m 438.57143,509.19766 c 0,1.42999 -0.68236,2.59997 -2.24338,2.59997 h -39.59788 c -1.56099,0 -2.15874,-1.16998 -2.15874,-2.59997 v -7.40003 c 0,-2 1,-3 3,-3 h 38 c 2,0 3,1 3,3 z"
       id="path8-6"
       sodipodi:nodetypes="sssssssss" />
    <path
       style="fill:url(#linearGradient844);fill-opacity:1;stroke-width:0.190958"
       d="m 437.57143,502.79763 h -42 c -4,0 -6,2 -6,6 v 27 c 0,3 2,5 5,5 h 44 c 3,0 5,-2 5,-5 v -27 c 0,-4 -2,-6 -6,-6 z"
       id="path10"
       sodipodi:nodetypes="sssssssss" />
    <path
       style="color:#d3dae3;fill:#434c5e;fill-opacity:1;stroke-width:0.954771"
       d="m 419.05672,513.798 -3.82857,0.57669 v 13.7803 l 3.82857,-1.02312 v -5.32388 l 3.82849,6.2763 3.82852,-1.42865 -4.78563,-5.71448 4.78749,-6.18887 -3.71449,-0.95428 -3.94438,6.24653 z m -7.79541,3.73711 c -0.0905,0 -0.18108,0.0348 -0.25048,0.10416 l -1.5049,1.49751 c -0.1388,0.13817 -0.10537,0.33553 0,0.50037 l 1.55726,2.43314 c -0.11542,0.23833 -0.21529,0.48373 -0.29912,0.73481 -0.004,0.0102 -0.01,0.0208 -0.0128,0.0311 l -2.82468,0.62499 c -0.19164,0.0425 -0.35516,0.15805 -0.35516,0.35351 v 0.93566 0.93565 c 0,0.19539 0.16352,0.31103 0.35516,0.35342 l 2.82468,0.62507 c 0.006,0.0184 0.0159,0.0353 0.0225,0.0536 0.0816,0.24387 0.17833,0.48244 0.28976,0.71434 l -1.55725,2.43124 c -0.10539,0.16486 -0.13884,0.36224 0,0.5004 l 1.50491,1.49743 c 0.13886,0.13817 0.36211,0.13817 0.50095,0 l 2.44147,-1.54765 c 0.23997,0.11615 0.48724,0.21682 0.74024,0.3013 0.0165,0.006 0.0318,0.0145 0.0489,0.0205 l 0.62624,2.80892 c 0,0.19537 0.15884,0.35342 0.3552,0.35342 h 2.12546 c 0.19641,0 0.31261,-0.16272 0.35523,-0.35342 l 0.62622,-2.89447 c 0.28773,-0.10763 0.56702,-0.23635 0.83561,-0.38511 l 2.38349,1.6965 c 0.13884,0.13819 0.36213,0.13819 0.50099,0 l 1.50487,-1.49742 c 0.13884,-0.13816 0.10543,-0.33554 0,-0.5004 l -0.90664,-1.36909 -0.0951,0.0351 c -0.21562,0.0806 -0.45828,-0.003 -0.57765,-0.19903 l -0.95338,-1.56255 c -0.79436,1.89072 -2.67035,3.22 -4.85856,3.22 -2.90735,0 -5.26422,-2.3453 -5.26422,-5.23831 0,-2.22001 1.39051,-4.11291 3.34994,-4.87556 v -1.0436 l -0.008,0.0332 c -0.0212,0.007 -0.0406,0.0186 -0.0617,0.0263 -0.24966,0.0826 -0.49375,0.1806 -0.7309,0.2939 l -2.43776,-1.54584 c -0.0697,-0.0693 -0.15995,-0.10416 -0.25048,-0.10416 z"
       class="ColorScheme-Text"
       id="path10-7-6-7" />
  </g>
</svg>
