<?xml version="1.0" encoding="UTF-8" standalone="no"?>
<svg
   width="64"
   version="1.1"
   height="64"
   id="svg15"
   sodipodi:docname="folder-database.svg"
   inkscape:version="1.2.1 (9c6d41e410, 2022-07-14)"
   xmlns:inkscape="http://www.inkscape.org/namespaces/inkscape"
   xmlns:sodipodi="http://sodipodi.sourceforge.net/DTD/sodipodi-0.dtd"
   xmlns:xlink="http://www.w3.org/1999/xlink"
   xmlns="http://www.w3.org/2000/svg"
   xmlns:svg="http://www.w3.org/2000/svg"
   xmlns:rdf="http://www.w3.org/1999/02/22-rdf-syntax-ns#"
   xmlns:cc="http://creativecommons.org/ns#"
   xmlns:dc="http://purl.org/dc/elements/1.1/">
  <sodipodi:namedview
     pagecolor="#ffffff"
     bordercolor="#666666"
     borderopacity="1"
     objecttolerance="10"
     gridtolerance="10"
     guidetolerance="10"
     inkscape:pageopacity="0"
     inkscape:pageshadow="2"
     inkscape:window-width="1920"
     inkscape:window-height="1002"
     id="namedview17"
     showgrid="true"
     inkscape:zoom="6.9384853"
     inkscape:cx="41.147309"
     inkscape:cy="39.706072"
     inkscape:window-x="0"
     inkscape:window-y="0"
     inkscape:window-maximized="1"
     inkscape:current-layer="layer1"
     inkscape:document-rotation="0"
     showguides="false"
     inkscape:showpageshadow="2"
     inkscape:pagecheckerboard="0"
     inkscape:deskcolor="#d1d1d1">
    <inkscape:grid
       type="xygrid"
       id="grid919" />
  </sodipodi:namedview>
  <defs
     id="defs5455">
    <linearGradient
       inkscape:collect="always"
       xlink:href="#linearGradient860"
       id="linearGradient862"
       x1="113.94583"
       y1="366.97165"
       x2="406.08234"
       y2="159.71205"
       gradientUnits="userSpaceOnUse"
       gradientTransform="matrix(0.17799897,0,0,0.17852009,370.28919,468.28582)" />
    <linearGradient
       inkscape:collect="always"
       id="linearGradient860">
      <stop
         style="stop-color:#8fbcbb;stop-opacity:1;"
         offset="0"
         id="stop856" />
      <stop
         style="stop-color:#a3be8c;stop-opacity:1;"
         offset="1"
         id="stop858" />
    </linearGradient>
    <linearGradient
       inkscape:collect="always"
       xlink:href="#linearGradient842"
       id="linearGradient844"
       x1="386.3063"
       y1="539.79773"
       x2="447.95114"
       y2="504.71896"
       gradientUnits="userSpaceOnUse"
       gradientTransform="matrix(0.89220779,0,0,1.0832755,44.905939,-43.952033)" />
    <linearGradient
       inkscape:collect="always"
       id="linearGradient842">
      <stop
         style="stop-color:#5e81ac;stop-opacity:1;"
         offset="0"
         id="stop838" />
      <stop
         style="stop-color:#88c0d0;stop-opacity:1;"
         offset="1"
         id="stop840" />
    </linearGradient>
  </defs>
  <metadata
     id="metadata5458">
    <rdf:RDF>
      <cc:Work
         rdf:about="">
        <dc:format>image/svg+xml</dc:format>
        <dc:type
           rdf:resource="http://purl.org/dc/dcmitype/StillImage" />
      </cc:Work>
    </rdf:RDF>
  </metadata>
  <g
     inkscape:label="Capa 1"
     inkscape:groupmode="layer"
     id="layer1"
     transform="translate(-384.57143,-483.798)">
    <g
       transform="matrix(0.30872123,0,0,0.34545448,401.36492,176.76352)"
       id="g4" />
    <path
       style="fill:url(#linearGradient862);fill-opacity:1;stroke-width:0.165167"
       d="m 416.56885,496.79763 c -0.77296,0 -1.68528,-0.50466 -2.0318,-1.11585 l -1.55431,-2.74667 c -0.34485,-0.61114 -1.25998,-1.10996 -2.03256,-1.1111 l -17.10301,-0.026 c -2.52449,-0.004 -3.2764,0.90502 -3.27574,2.90836 l 2.8e-4,0.84425 v 2.48461 l -2.8e-4,32.7624 c -1e-5,0.89375 2.02423,3 3,3 h 46 c 1,0 3,-2 3,-3 v -31 c 0,-2 -1,-3 -2.95097,-3 z"
       id="path4-3"
       sodipodi:nodetypes="sccsssccscsssss" />
    <path
       style="fill:#434c5e;fill-opacity:1;stroke-width:0.169792"
       d="m 438.57143,509.19766 c 0,1.42999 -0.68236,2.59997 -2.24338,2.59997 h -39.59788 c -1.56099,0 -2.15874,-1.16998 -2.15874,-2.59997 v -7.40003 c 0,-2 1,-3 3,-3 h 38 c 2,0 3,1 3,3 z"
       id="path8-6"
       sodipodi:nodetypes="sssssssss" />
    <path
       style="fill:url(#linearGradient844);fill-opacity:1;stroke-width:0.190958"
       d="m 437.57143,502.79763 h -42 c -4,0 -6,2 -6,6 v 27 c 0,3 2,5 5,5 h 44 c 3,0 5,-2 5,-5 v -27 c 0,-4 -2,-6 -6,-6 z"
       id="path10"
       sodipodi:nodetypes="sssssssss" />
    <path
       fill-rule="evenodd"
       clip-rule="evenodd"
       d="m 426.73245,530.04871 c -0.34488,0 -0.62531,-0.28013 -0.62531,-0.625 0,-0.34544 0.28043,-0.62561 0.62531,-0.62561 0.34512,0 0.62498,0.28017 0.62498,0.62561 0,0.34487 -0.27986,0.625 -0.62498,0.625 z m 0.60178,-4.67409 c -0.008,0.0673 -0.0195,0.13369 -0.0331,0.19892 -0.006,0.0318 -0.0161,0.0615 -0.0235,0.0927 -0.014,0.0544 -0.0284,0.10902 -0.046,0.16232 -0.007,0.0228 -0.0171,0.0466 -0.0252,0.0698 -0.0223,0.0609 -0.0457,0.12148 -0.072,0.17949 -0.007,0.0162 -0.0155,0.0319 -0.0223,0.0471 -0.0296,0.0604 -0.0604,0.11966 -0.0933,0.17705 -0.0106,0.0185 -0.0212,0.0368 -0.0326,0.0543 -0.0372,0.0593 -0.0757,0.11786 -0.11656,0.17333 -0.006,0.008 -0.0125,0.0174 -0.0193,0.0248 -0.0476,0.0631 -0.099,0.1245 -0.15326,0.18371 -0.002,0.002 -0.004,0.003 -0.005,0.006 -0.0582,0.062 -0.11845,0.12271 -0.18291,0.17883 -0.44008,0.38762 -1.01675,0.62502 -1.65008,0.62502 v 0.0318 c -0.1012,-0.0201 -0.20502,-0.0318 -0.31253,-0.0318 H 410.1719 c -0.86311,0 -1.56318,0.69943 -1.56318,1.56247 v 1.87439 c 0,0.86311 0.70007,1.56253 1.56318,1.56253 h 14.37473 c 0.73704,0 1.36658,-0.58654 1.71817,-1.03452 l 0.002,6.6e-4 c 0.11476,-0.13132 0.28015,-0.21552 0.46812,-0.21552 0.34523,0 0.62507,0.27956 0.62507,0.62502 0,0.64818 -1.11911,1.87498 -2.5,1.87498 H 409.8587 c -1.38073,0 -2.49973,-1.11936 -2.49973,-2.5 v -2.50068 c 0,-1.3806 1.11901,-2.49939 2.49973,-2.49939 h 0.93741 13.75036 c 0.86313,0 1.56219,-0.69949 1.56219,-1.56253 v -1.87516 c 0,-0.86302 -0.69906,-1.56245 -1.56219,-1.56245 h -13.75036 -0.93741 c -1.38073,0 -2.49973,-1.11972 -2.49973,-2.49975 v -2.50029 c 0,-1.38096 1.11901,-2.49975 2.49973,-2.49975 h 15.00027 c 1.38101,0 2.5,1.11879 2.5,2.49975 v 1.87531 c 0,0.34453 -0.27985,0.62498 -0.62493,0.62498 -0.34492,0 -0.62538,-0.28045 -0.62538,-0.62498 v -1.56244 c 0,-0.86304 -0.69906,-1.56311 -1.56219,-1.56311 h -14.3748 c -0.86312,0 -1.56317,0.70007 -1.56317,1.56311 v 1.87469 c 0,0.86305 0.70004,1.56224 1.56317,1.56224 h 14.37455 c 0.10721,0 0.21121,-0.0114 0.31249,-0.0318 v 0.0318 c 0.6333,0 1.21004,0.23741 1.65007,0.62527 0.0641,0.0564 0.12489,0.11655 0.18289,0.17887 0.002,0.002 0.004,0.004 0.005,0.006 0.0541,0.059 0.10532,0.11992 0.15319,0.18372 0.006,0.007 0.0124,0.0174 0.0193,0.0251 0.0411,0.0562 0.0797,0.11417 0.11658,0.17302 0.0114,0.0182 0.0217,0.0366 0.0326,0.0541 0.0329,0.0579 0.0639,0.11661 0.0933,0.17708 0.007,0.0155 0.0155,0.0312 0.0223,0.0471 0.0264,0.0584 0.0494,0.11874 0.072,0.17979 0.008,0.0228 0.0182,0.0466 0.0251,0.0696 0.0177,0.053 0.0318,0.10791 0.046,0.16235 0.007,0.0315 0.0177,0.0609 0.0235,0.0927 0.0136,0.065 0.0249,0.13223 0.0331,0.19899 0.002,0.0188 0.005,0.0359 0.007,0.0548 0.009,0.0889 0.0152,0.17977 0.0152,0.27132 v 2.49986 c 0,0.091 -0.005,0.18188 -0.0152,0.2711 -9.4e-4,0.019 -0.005,0.0367 -0.007,0.0547 z m -19.35164,-2.82579 c 0.3447,0 0.6244,0.27956 0.6244,0.62503 v 1.24915 c 0,0.34553 -0.2797,0.62567 -0.6244,0.62567 -0.34544,0 -0.62516,-0.28014 -0.62516,-0.62567 v -1.24915 c 0,-0.34547 0.27972,-0.62503 0.62516,-0.62503 z"
       id="path2-5"
       style="fill:#434c5e;fill-opacity:1;stroke-width:0.0390622" />
  </g>
</svg>
