<?xml version="1.0" encoding="UTF-8" standalone="no"?>
<svg
   width="64"
   version="1.1"
   height="64"
   id="svg17"
   sodipodi:docname="folder-windows.svg"
   inkscape:version="1.2.1 (9c6d41e410, 2022-07-14)"
   xmlns:inkscape="http://www.inkscape.org/namespaces/inkscape"
   xmlns:sodipodi="http://sodipodi.sourceforge.net/DTD/sodipodi-0.dtd"
   xmlns:xlink="http://www.w3.org/1999/xlink"
   xmlns="http://www.w3.org/2000/svg"
   xmlns:svg="http://www.w3.org/2000/svg"
   xmlns:rdf="http://www.w3.org/1999/02/22-rdf-syntax-ns#"
   xmlns:cc="http://creativecommons.org/ns#"
   xmlns:dc="http://purl.org/dc/elements/1.1/">
  <sodipodi:namedview
     pagecolor="#ffffff"
     bordercolor="#666666"
     borderopacity="1"
     objecttolerance="10"
     gridtolerance="10"
     guidetolerance="10"
     inkscape:pageopacity="0"
     inkscape:pageshadow="2"
     inkscape:window-width="1920"
     inkscape:window-height="1002"
     id="namedview19"
     showgrid="true"
     inkscape:zoom="6.9384856"
     inkscape:cx="53.83019"
     inkscape:cy="35.526484"
     inkscape:window-x="0"
     inkscape:window-y="0"
     inkscape:window-maximized="1"
     inkscape:current-layer="layer1"
     inkscape:document-rotation="0"
     inkscape:showpageshadow="2"
     inkscape:pagecheckerboard="0"
     inkscape:deskcolor="#d1d1d1">
    <inkscape:grid
       type="xygrid"
       id="grid908" />
  </sodipodi:namedview>
  <defs
     id="defs5455">
    <linearGradient
       inkscape:collect="always"
       xlink:href="#linearGradient860"
       id="linearGradient862"
       x1="113.94583"
       y1="366.97165"
       x2="406.08234"
       y2="159.71205"
       gradientUnits="userSpaceOnUse"
       gradientTransform="matrix(0.17799897,0,0,0.17852009,370.28919,468.28582)" />
    <linearGradient
       inkscape:collect="always"
       id="linearGradient860">
      <stop
         style="stop-color:#8fbcbb;stop-opacity:1;"
         offset="0"
         id="stop856" />
      <stop
         style="stop-color:#a3be8c;stop-opacity:1;"
         offset="1"
         id="stop858" />
    </linearGradient>
    <linearGradient
       inkscape:collect="always"
       xlink:href="#linearGradient842"
       id="linearGradient844"
       x1="386.3063"
       y1="539.79773"
       x2="447.95114"
       y2="504.71896"
       gradientUnits="userSpaceOnUse"
       gradientTransform="matrix(0.89220779,0,0,1.0832755,44.905939,-43.952033)" />
    <linearGradient
       inkscape:collect="always"
       id="linearGradient842">
      <stop
         style="stop-color:#5e81ac;stop-opacity:1;"
         offset="0"
         id="stop838" />
      <stop
         style="stop-color:#88c0d0;stop-opacity:1;"
         offset="1"
         id="stop840" />
    </linearGradient>
  </defs>
  <metadata
     id="metadata5458">
    <rdf:RDF>
      <cc:Work
         rdf:about="">
        <dc:format>image/svg+xml</dc:format>
        <dc:type
           rdf:resource="http://purl.org/dc/dcmitype/StillImage" />
      </cc:Work>
    </rdf:RDF>
  </metadata>
  <g
     inkscape:label="Capa 1"
     inkscape:groupmode="layer"
     id="layer1"
     transform="translate(-384.57143,-483.798)">
    <path
       style="fill:url(#linearGradient862);fill-opacity:1;stroke-width:0.165167"
       d="m 416.56885,496.79763 c -0.77296,0 -1.68528,-0.50466 -2.0318,-1.11585 l -1.55431,-2.74667 c -0.34485,-0.61114 -1.25998,-1.10996 -2.03256,-1.1111 l -17.10301,-0.026 c -2.52449,-0.004 -3.2764,0.90502 -3.27574,2.90836 l 2.8e-4,0.84425 v 2.48461 l -2.8e-4,32.7624 c -1e-5,0.89375 2.02423,3 3,3 h 46 c 1,0 3,-2 3,-3 v -31 c 0,-2 -1,-3 -2.95097,-3 z"
       id="path4-3"
       sodipodi:nodetypes="sccsssccscsssss" />
    <path
       style="fill:#434c5e;fill-opacity:1;stroke-width:0.169792"
       d="m 438.57143,509.19766 c 0,1.42999 -0.68236,2.59997 -2.24338,2.59997 h -39.59788 c -1.56099,0 -2.15874,-1.16998 -2.15874,-2.59997 v -7.40003 c 0,-2 1,-3 3,-3 h 38 c 2,0 3,1 3,3 z"
       id="path8-6"
       sodipodi:nodetypes="sssssssss" />
    <path
       style="fill:url(#linearGradient844);fill-opacity:1;stroke-width:0.190958"
       d="m 437.57143,502.79763 h -42 c -4,0 -6,2 -6,6 v 27 c 0,3 2,5 5,5 h 44 c 3,0 5,-2 5,-5 v -27 c 0,-4 -2,-6 -6,-6 z"
       id="path10"
       sodipodi:nodetypes="sssssssss" />
    <path
       fill-rule="evenodd"
       clip-rule="evenodd"
       d="m 424.07027,533.79691 h -4.37488 c -0.34485,0 -0.62533,-0.28017 -0.62533,-0.62494 0,-0.3455 0.28048,-0.62504 0.62533,-0.62504 h 4.06239 c 0.86308,0 1.56248,-0.69941 1.56248,-1.56248 v -4.06239 c 0,-0.34552 0.27954,-0.62565 0.62503,-0.62565 0.34548,0 0.62496,0.28013 0.62496,0.62565 v 4.37488 c 0,1.38064 -1.11931,2.49997 -2.49998,2.49997 z m -16.87481,-13.74955 c 0.34546,0 0.62511,0.27949 0.62511,0.62493 0,0.34448 -0.27965,0.62433 -0.62511,0.62433 -0.34533,0 -0.62503,-0.27985 -0.62503,-0.62433 0,-0.34544 0.2797,-0.62493 0.62503,-0.62493 z m 19.35164,2.82552 c -0.007,0.0671 -0.0189,0.13398 -0.0331,0.19901 -0.006,0.032 -0.0164,0.0615 -0.0235,0.0928 -0.0141,0.0544 -0.0279,0.10939 -0.0458,0.16235 -0.007,0.0229 -0.0168,0.0463 -0.0246,0.0697 -0.0224,0.0609 -0.0451,0.12151 -0.0727,0.17977 -0.006,0.0161 -0.0151,0.0297 -0.0216,0.0449 -0.0307,0.0631 -0.0629,0.12659 -0.0987,0.18673 -0.007,0.013 -0.0155,0.0246 -0.0223,0.0375 -0.0385,0.062 -0.0791,0.12321 -0.12258,0.18237 -0.006,0.007 -0.0132,0.0174 -0.0188,0.0251 -0.0472,0.0616 -0.0971,0.12212 -0.14924,0.17884 -0.003,0.004 -0.008,0.011 -0.0138,0.0156 -0.0571,0.0615 -0.11728,0.12011 -0.18003,0.17581 -0.44068,0.38758 -1.01687,0.62503 -1.64979,0.62503 v 0.032 c -0.10091,-0.0201 -0.20572,-0.032 -0.31245,-0.032 h -4.3749 c -0.86297,0 -1.56247,0.69944 -1.56247,1.5624 v 4.37491 c 0,0.10653 0.0125,0.2118 0.0322,0.31254 h -0.0322 c 0,0.63289 -0.23707,1.20906 -0.62496,1.64976 -0.056,0.0626 -0.11417,0.12331 -0.17576,0.18004 -0.003,0.003 -0.008,0.007 -0.0148,0.0137 -0.0574,0.0525 -0.11749,0.10183 -0.17912,0.14887 -0.007,0.006 -0.0174,0.0132 -0.0246,0.0189 -0.0593,0.043 -0.11989,0.0838 -0.18237,0.12279 -0.013,0.007 -0.0242,0.0159 -0.0374,0.0224 -0.0602,0.0358 -0.12336,0.0677 -0.18696,0.0984 -0.0161,0.007 -0.0299,0.0161 -0.0451,0.0218 -0.0584,0.0274 -0.11853,0.0498 -0.17959,0.0727 -0.0229,0.007 -0.0463,0.018 -0.0695,0.0249 -0.0532,0.018 -0.1079,0.032 -0.16232,0.0459 -0.0315,0.007 -0.0609,0.0174 -0.0929,0.0235 -0.0648,0.0141 -0.13187,0.0239 -0.1988,0.033 -0.0188,0.002 -0.0362,0.006 -0.055,0.007 -0.0887,0.0114 -0.17968,0.0161 -0.27108,0.0161 h -6.24957 c -1.38065,-1.2e-4 -2.50022,-1.11955 -2.50022,-2.5001 v -6.24989 c 0,-1.38076 1.11957,-2.50012 2.50022,-2.50012 h 0.62518 4.06196 c 0.86321,0 1.56251,-0.69951 1.56251,-1.5625 v -4.37497 c 0,-0.86295 -0.6993,-1.5624 -1.56251,-1.5624 h -4.37476 c -0.86296,0 -1.56235,0.69945 -1.56235,1.5624 v 1.56251 c 0,0.34518 -0.27966,0.62503 -0.62511,0.62503 -0.34532,0 -0.62503,-0.27985 -0.62503,-0.62503 v -1.87471 c 4e-5,-1.38084 1.11961,-2.50022 2.50026,-2.50022 h 5.00007 c 0.0916,0 0.18102,0.003 0.26979,0.0149 0.0206,10e-4 0.0403,0.007 0.0609,0.0114 0.0658,0.007 0.13061,0.0188 0.19481,0.0324 0.0301,0.006 0.058,0.0161 0.0873,0.0224 0.0567,0.0143 0.11205,0.0279 0.1665,0.0463 0.0221,0.007 0.0445,0.0171 0.0676,0.0245 0.0608,0.0224 0.12261,0.0459 0.18156,0.073 0.0164,0.007 0.0321,0.0149 0.0477,0.0223 0.062,0.0294 0.12398,0.062 0.18358,0.0976 0.0131,0.007 0.025,0.0161 0.0381,0.0229 0.062,0.0385 0.12337,0.0789 0.18231,0.12259 0.007,0.006 0.0175,0.013 0.0249,0.0188 0.0616,0.0469 0.12199,0.0971 0.17896,0.14882 0.003,0.003 0.008,0.008 0.0153,0.0137 0.0616,0.0574 0.11987,0.11727 0.17561,0.18032 0.38789,0.44068 0.62512,1.01686 0.62512,1.64973 h 0.0321 c -0.0206,0.1006 -0.0321,0.20543 -0.0321,0.31218 v 4.68715 c 0,1.38088 -1.11952,2.50027 -2.49966,2.50027 h -4.68777 c -0.86299,0 -1.56234,0.6996 -1.56234,1.56262 v 5.6249 c 0,0.86301 0.69931,1.56248 1.56234,1.56248 h 5.62523 c 0.86301,0 1.56231,-0.69947 1.56231,-1.56248 v -4.68849 c 0,-1.38057 1.11943,-2.49945 2.49969,-2.49945 h 4.68768 c 0.86306,0 1.56248,-0.69915 1.56248,-1.56217 v -5.62527 c 0,-0.86302 -0.69942,-1.56245 -1.56248,-1.56245 h -5.3121 c -0.34518,0 -0.62533,-0.27952 -0.62533,-0.62502 0,-0.34545 0.28015,-0.62495 0.62533,-0.62495 h 5.62453 c 1.38064,0 2.49999,1.11933 2.49999,2.50025 v 6.24958 c 0,0.0914 -0.005,0.1822 -0.0161,0.271 -0.001,0.0193 -0.005,0.0369 -0.007,0.0552 z"
       id="path2-3-3-7"
       style="fill:#434c5e;fill-opacity:1;stroke-width:0.0390614" />
  </g>
</svg>
