<?xml version="1.0" encoding="UTF-8" standalone="no"?>
<svg
   width="64"
   version="1.1"
   height="64"
   id="svg15"
   sodipodi:docname="folder-crash.svg"
   inkscape:version="1.2.1 (9c6d41e410, 2022-07-14)"
   xmlns:inkscape="http://www.inkscape.org/namespaces/inkscape"
   xmlns:sodipodi="http://sodipodi.sourceforge.net/DTD/sodipodi-0.dtd"
   xmlns="http://www.w3.org/2000/svg"
   xmlns:svg="http://www.w3.org/2000/svg"
   xmlns:rdf="http://www.w3.org/1999/02/22-rdf-syntax-ns#"
   xmlns:cc="http://creativecommons.org/ns#"
   xmlns:dc="http://purl.org/dc/elements/1.1/">
  <sodipodi:namedview
     pagecolor="#ffffff"
     bordercolor="#666666"
     borderopacity="1"
     objecttolerance="10"
     gridtolerance="10"
     guidetolerance="10"
     inkscape:pageopacity="0"
     inkscape:pageshadow="2"
     inkscape:window-width="1920"
     inkscape:window-height="1002"
     id="namedview17"
     showgrid="true"
     inkscape:zoom="4.90625"
     inkscape:cx="-40.050955"
     inkscape:cy="32.509554"
     inkscape:window-x="0"
     inkscape:window-y="0"
     inkscape:window-maximized="1"
     inkscape:current-layer="layer1"
     inkscape:document-rotation="0"
     inkscape:showpageshadow="2"
     inkscape:pagecheckerboard="0"
     inkscape:deskcolor="#d1d1d1">
    <inkscape:grid
       type="xygrid"
       id="grid1384" />
  </sodipodi:namedview>
  <defs
     id="defs5455" />
  <metadata
     id="metadata5458">
    <rdf:RDF>
      <cc:Work
         rdf:about="">
        <dc:format>image/svg+xml</dc:format>
        <dc:type
           rdf:resource="http://purl.org/dc/dcmitype/StillImage" />
      </cc:Work>
    </rdf:RDF>
  </metadata>
  <g
     inkscape:label="Capa 1"
     inkscape:groupmode="layer"
     id="layer1"
     transform="translate(-384.57143,-483.798)">
    <path
       style="fill:#88c0d0;fill-opacity:1;stroke-width:0.165167"
       d="m 416.56885,496.79763 c -0.77296,0 -1.68528,-0.50466 -2.0318,-1.11585 l -1.55431,-2.74667 c -0.34485,-0.61114 -1.25998,-1.10996 -2.03256,-1.1111 l -17.10301,-0.026 c -2.52449,-0.004 -3.2764,0.90502 -3.27574,2.90836 l 2.8e-4,0.84425 v 2.48461 l -2.8e-4,32.7624 c -1e-5,0.89375 2.02423,3 3,3 h 46 c 1,0 3,-2 3,-3 v -31 c 0,-2 -1,-3 -2.95097,-3 z"
       id="path4-3"
       sodipodi:nodetypes="sccsssccscsssss" />
    <path
       style="fill:#434c5e;fill-opacity:1;stroke-width:0.169792"
       d="m 438.57143,509.19766 c 0,1.42999 -0.68236,2.59997 -2.24338,2.59997 h -39.59788 c -1.56099,0 -2.15874,-1.16998 -2.15874,-2.59997 v -7.40003 c 0,-2 1,-3 3,-3 h 38 c 2,0 3,1 3,3 z"
       id="path8-6"
       sodipodi:nodetypes="sssssssss" />
    <path
       style="fill:#bf616a;fill-opacity:1;stroke-width:0.190958"
       d="m 437.57143,502.79763 h -42 c -4,0 -6,2 -6,6 v 27 c 0,3 2,5 5,5 h 44 c 3,0 5,-2 5,-5 v -27 c 0,-4 -2,-6 -6,-6 z"
       id="path10"
       sodipodi:nodetypes="sssssssss" />
    <path
       fill-rule="evenodd"
       clip-rule="evenodd"
       d="m 424.98103,533.798 h -10.715 c -0.39394,0 -0.71362,-0.32056 -0.71362,-0.71425 0,-0.39487 0.31968,-0.71466 0.71362,-0.71466 h 10.715 c 0.78887,0 1.42853,-0.63969 1.42853,-1.42862 v -14.28569 c 0,-0.78891 -0.63966,-1.42818 -1.42853,-1.42818 h -14.28607 c -0.78877,0 -1.42878,0.63927 -1.42878,1.42818 v 13.57142 c 0,0.39485 -0.31947,0.71427 -0.71431,0.71427 -0.39412,0 -0.71444,-0.31942 -0.71444,-0.71427 v -13.57142 c 0,-1.57787 1.27983,-2.85678 2.85753,-2.85678 h 14.28607 c 1.57749,0 2.8564,1.27891 2.8564,2.85678 v 14.28569 c 0,1.57785 -1.27891,2.85753 -2.8564,2.85753 z m -13.57163,-1.42891 c 0.39393,0 0.71425,0.31979 0.71425,0.71466 0,0.39369 -0.32032,0.71425 -0.71425,0.71425 -0.39482,0 -0.71444,-0.32056 -0.71444,-0.71425 0,-0.39487 0.31961,-0.71466 0.71444,-0.71466 z"
       id="path2-0"
       style="fill:#434c5e;fill-opacity:1;stroke-width:0.0446425" />
    <rect
       x="412.67868"
       y="518.70685"
       width="2.4999251"
       height="2.4999316"
       id="rect6-6"
       style="fill:#434c5e;fill-opacity:1;stroke-width:0.21114" />
    <rect
       x="416.47134"
       y="521.18542"
       width="2.4999251"
       height="2.4999316"
       id="rect8-3"
       style="fill:#434c5e;fill-opacity:1;stroke-width:0.21114" />
    <rect
       x="412.36661"
       y="526.20679"
       width="2.4999251"
       height="2.4999316"
       id="rect10-2"
       style="fill:#434c5e;fill-opacity:1;stroke-width:0.21114" />
    <rect
       x="420.57578"
       y="526.20679"
       width="2.4999251"
       height="2.4999316"
       id="rect12-0"
       style="fill:#434c5e;fill-opacity:1;stroke-width:0.21114" />
    <rect
       x="415.0336"
       y="524.87396"
       width="2.4999251"
       height="2.4999316"
       id="rect14-6"
       style="fill:#434c5e;fill-opacity:1;stroke-width:0.21114" />
    <rect
       x="417.90912"
       y="524.87396"
       width="2.4999251"
       height="2.4999316"
       id="rect16-1"
       style="fill:#434c5e;fill-opacity:1;stroke-width:0.21114" />
    <rect
       x="420.17892"
       y="518.70685"
       width="2.4999251"
       height="2.4999316"
       id="rect18-5"
       style="fill:#434c5e;fill-opacity:1;stroke-width:0.21114" />
  </g>
</svg>
