<?xml version="1.0" encoding="UTF-8" standalone="no"?>
<svg
   width="64"
   version="1.1"
   height="64"
   id="svg17"
   sodipodi:docname="folder-presentation.svg"
   inkscape:version="1.2.1 (9c6d41e410, 2022-07-14)"
   xmlns:inkscape="http://www.inkscape.org/namespaces/inkscape"
   xmlns:sodipodi="http://sodipodi.sourceforge.net/DTD/sodipodi-0.dtd"
   xmlns:xlink="http://www.w3.org/1999/xlink"
   xmlns="http://www.w3.org/2000/svg"
   xmlns:svg="http://www.w3.org/2000/svg"
   xmlns:rdf="http://www.w3.org/1999/02/22-rdf-syntax-ns#"
   xmlns:cc="http://creativecommons.org/ns#"
   xmlns:dc="http://purl.org/dc/elements/1.1/">
  <sodipodi:namedview
     pagecolor="#ffffff"
     bordercolor="#666666"
     borderopacity="1"
     objecttolerance="10"
     gridtolerance="10"
     guidetolerance="10"
     inkscape:pageopacity="0"
     inkscape:pageshadow="2"
     inkscape:window-width="1920"
     inkscape:window-height="1002"
     id="namedview19"
     showgrid="true"
     inkscape:zoom="3.4692426"
     inkscape:cx="-59.234831"
     inkscape:cy="-5.0443287"
     inkscape:window-x="0"
     inkscape:window-y="0"
     inkscape:window-maximized="1"
     inkscape:current-layer="layer1"
     inkscape:document-rotation="0"
     inkscape:showpageshadow="2"
     inkscape:pagecheckerboard="0"
     inkscape:deskcolor="#d1d1d1">
    <inkscape:grid
       type="xygrid"
       id="grid931" />
  </sodipodi:namedview>
  <defs
     id="defs5455">
    <linearGradient
       inkscape:collect="always"
       xlink:href="#linearGradient860"
       id="linearGradient862"
       x1="113.94583"
       y1="366.97165"
       x2="406.08234"
       y2="159.71205"
       gradientUnits="userSpaceOnUse"
       gradientTransform="matrix(0.17799897,0,0,0.17852009,370.28919,468.28582)" />
    <linearGradient
       inkscape:collect="always"
       id="linearGradient860">
      <stop
         style="stop-color:#8fbcbb;stop-opacity:1;"
         offset="0"
         id="stop856" />
      <stop
         style="stop-color:#a3be8c;stop-opacity:1;"
         offset="1"
         id="stop858" />
    </linearGradient>
    <linearGradient
       inkscape:collect="always"
       xlink:href="#linearGradient842"
       id="linearGradient844"
       x1="386.3063"
       y1="539.79773"
       x2="447.95114"
       y2="504.71896"
       gradientUnits="userSpaceOnUse"
       gradientTransform="matrix(0.89220779,0,0,1.0832755,44.905939,-43.952041)" />
    <linearGradient
       inkscape:collect="always"
       id="linearGradient842">
      <stop
         style="stop-color:#5e81ac;stop-opacity:1;"
         offset="0"
         id="stop838" />
      <stop
         style="stop-color:#88c0d0;stop-opacity:1;"
         offset="1"
         id="stop840" />
    </linearGradient>
  </defs>
  <metadata
     id="metadata5458">
    <rdf:RDF>
      <cc:Work
         rdf:about="">
        <dc:format>image/svg+xml</dc:format>
        <dc:type
           rdf:resource="http://purl.org/dc/dcmitype/StillImage" />
      </cc:Work>
    </rdf:RDF>
  </metadata>
  <g
     inkscape:label="Capa 1"
     inkscape:groupmode="layer"
     id="layer1"
     transform="translate(-384.57143,-483.798)">
    <path
       style="fill:url(#linearGradient862);fill-opacity:1;stroke-width:0.165167"
       d="m 416.56885,496.79763 c -0.77296,0 -1.68528,-0.50466 -2.0318,-1.11585 l -1.55431,-2.74667 c -0.34485,-0.61114 -1.25998,-1.10996 -2.03256,-1.1111 l -17.10301,-0.026 c -2.52449,-0.004 -3.2764,0.90502 -3.27574,2.90836 l 2.8e-4,0.84425 v 2.48461 l -2.8e-4,32.7624 c -1e-5,0.89375 2.02423,3 3,3 h 46 c 1,0 3,-2 3,-3 v -31 c 0,-2 -1,-3 -2.95097,-3 z"
       id="path4-3"
       sodipodi:nodetypes="sccsssccscsssss" />
    <path
       style="fill:#434c5e;fill-opacity:1;stroke-width:0.169792"
       d="m 438.57143,509.19766 c 0,1.42999 -0.68236,2.59997 -2.24338,2.59997 h -39.59788 c -1.56099,0 -2.15874,-1.16998 -2.15874,-2.59997 v -7.40003 c 0,-2 1,-3 3,-3 h 38 c 2,0 3,1 3,3 z"
       id="path8-6"
       sodipodi:nodetypes="sssssssss" />
    <path
       style="fill:url(#linearGradient844);fill-opacity:1;stroke-width:0.190958"
       d="m 437.57143,502.79763 h -42 c -4,0 -6,2 -6,6 v 27 c 0,3 2,5 5,5 h 44 c 3,0 5,-2 5,-5 v -27 c 0,-4 -2,-6 -6,-6 z"
       id="path10"
       sodipodi:nodetypes="sssssssss" />
    <path
       fill-rule="evenodd"
       clip-rule="evenodd"
       d="m 424.48605,533.798 h -10.71504 c -0.39394,0 -0.71362,-0.32054 -0.71362,-0.71426 0,-0.39488 0.31968,-0.71463 0.71362,-0.71463 h 10.71504 c 0.78883,0 1.42851,-0.63968 1.42851,-1.42866 v -14.28568 c 0,-0.7889 -0.63968,-1.42818 -1.42851,-1.42818 h -14.28607 c -0.78882,0 -1.42882,0.63928 -1.42882,1.42818 v 13.57142 c 0,0.39489 -0.31944,0.71427 -0.71431,0.71427 -0.3941,0 -0.71442,-0.31938 -0.71442,-0.71427 v -13.57142 c 0,-1.57788 1.27984,-2.85677 2.85755,-2.85677 h 14.28607 c 1.57749,0 2.85638,1.27889 2.85638,2.85677 v 14.28568 c 0,1.57788 -1.27889,2.85755 -2.85638,2.85755 z m -13.57165,-1.42889 c 0.39393,0 0.71425,0.31975 0.71425,0.71463 0,0.39372 -0.32032,0.71426 -0.71425,0.71426 -0.3948,0 -0.71442,-0.32054 -0.71442,-0.71426 0,-0.39488 0.31962,-0.71463 0.71442,-0.71463 z"
       id="path2-7"
       style="fill:#434c5e;fill-opacity:1;stroke-width:0.0446425" />
    <path
       fill-rule="evenodd"
       clip-rule="evenodd"
       d="m 422.38073,526.76455 c -0.18408,0 -0.33334,-0.14923 -0.33334,-0.33331 v -5.33334 c 0,-0.18408 -0.14919,-0.33335 -0.33326,-0.33335 h -0.66674 c -0.18408,0 -0.33326,0.14927 -0.33326,0.33335 v 6.83334 c 0,0.46032 -0.37308,0.83331 -0.8334,0.83331 h -0.33334 c -0.46026,0 -0.83326,-0.37299 -0.83326,-0.83331 v -3.5 c 0,-0.18407 -0.14932,-0.33335 -0.3334,-0.33335 h -0.6666 c -0.18407,0 -0.3334,0.14928 -0.3334,0.33335 v 3.5 c 0,0.46032 -0.373,0.83331 -0.83334,0.83331 h -0.33326 c -0.46032,0 -0.8334,-0.37299 -0.8334,-0.83331 v -2.16669 c 0,-0.18412 -0.14918,-0.33331 -0.33334,-0.33331 h -0.66666 c -0.18407,0 -0.33334,0.14918 -0.33334,0.33331 v 2.33335 c 0,0.36815 -0.29852,0.66665 -0.66666,0.66665 -0.7363,0 -1.33334,-0.59696 -1.33334,-1.33331 v -6 -2.33335 c 0,-0.18407 0.14927,-0.33334 0.33334,-0.33334 0.18408,0 0.3334,0.14927 0.3334,0.33334 v 1.17989 1.15346 6 c 0,0.36815 0.25675,0.66665 0.5,0.66665 0.0923,0 0.1666,-0.0745 0.1666,-0.16665 v -2.33335 c 0,-0.46026 0.37308,-0.83334 0.8334,-0.83334 h 1 c 0.46026,0 0.83326,0.37308 0.83326,0.83334 v 2.16667 c 0,0.18407 0.14927,0.33333 0.33334,0.33333 0.18407,0 0.3334,-0.14926 0.3334,-0.33333 v -3.50001 c 0,-0.46032 0.373,-0.83331 0.83326,-0.83331 h 1 c 0.46034,0 0.83334,0.37299 0.83334,0.83331 v 3.50001 c 0,0.18407 0.14932,0.33333 0.3334,0.33333 0.18407,0 0.33326,-0.14926 0.33326,-0.33333 v -6.83332 c 0,-0.46035 0.37308,-0.83335 0.83334,-0.83335 h 1 c 0.46032,0 0.8334,0.373 0.8334,0.83335 v 5.5 c 0,0.18408 -0.14933,0.33331 -0.3334,0.33331 z m 0,0.66669 c 0.18407,0 0.3334,0.14918 0.3334,0.33331 0,0.18408 -0.14933,0.33335 -0.3334,0.33335 -0.18408,0 -0.33334,-0.14927 -0.33334,-0.33335 0,-0.18412 0.14926,-0.33331 0.33334,-0.33331 z"
       id="path2-3-3-5"
       style="fill:#434c5e;fill-opacity:1;stroke-width:0.0208334" />
  </g>
</svg>
