<?xml version="1.0" encoding="UTF-8" standalone="no"?>
<svg
   width="64"
   version="1.1"
   height="64"
   id="svg15"
   sodipodi:docname="folder-Neon.svg"
   inkscape:version="1.2.1 (9c6d41e410, 2022-07-14)"
   xmlns:inkscape="http://www.inkscape.org/namespaces/inkscape"
   xmlns:sodipodi="http://sodipodi.sourceforge.net/DTD/sodipodi-0.dtd"
   xmlns:xlink="http://www.w3.org/1999/xlink"
   xmlns="http://www.w3.org/2000/svg"
   xmlns:svg="http://www.w3.org/2000/svg"
   xmlns:rdf="http://www.w3.org/1999/02/22-rdf-syntax-ns#"
   xmlns:cc="http://creativecommons.org/ns#"
   xmlns:dc="http://purl.org/dc/elements/1.1/">
  <sodipodi:namedview
     pagecolor="#ffffff"
     bordercolor="#666666"
     borderopacity="1"
     objecttolerance="10"
     gridtolerance="10"
     guidetolerance="10"
     inkscape:pageopacity="0"
     inkscape:pageshadow="2"
     inkscape:window-width="1920"
     inkscape:window-height="1002"
     id="namedview17"
     showgrid="true"
     inkscape:zoom="6.9384853"
     inkscape:cx="16.646284"
     inkscape:cy="47.05638"
     inkscape:window-x="0"
     inkscape:window-y="0"
     inkscape:window-maximized="1"
     inkscape:current-layer="layer1"
     inkscape:document-rotation="0"
     showguides="false"
     inkscape:showpageshadow="2"
     inkscape:pagecheckerboard="0"
     inkscape:deskcolor="#d1d1d1">
    <inkscape:grid
       type="xygrid"
       id="grid919" />
  </sodipodi:namedview>
  <defs
     id="defs5455">
    <linearGradient
       inkscape:collect="always"
       xlink:href="#linearGradient860"
       id="linearGradient862"
       x1="113.94583"
       y1="366.97165"
       x2="406.08234"
       y2="159.71205"
       gradientUnits="userSpaceOnUse"
       gradientTransform="matrix(0.17799897,0,0,0.17852009,370.28919,468.28582)" />
    <linearGradient
       inkscape:collect="always"
       id="linearGradient860">
      <stop
         style="stop-color:#8fbcbb;stop-opacity:1;"
         offset="0"
         id="stop856" />
      <stop
         style="stop-color:#a3be8c;stop-opacity:1;"
         offset="1"
         id="stop858" />
    </linearGradient>
    <linearGradient
       inkscape:collect="always"
       xlink:href="#linearGradient842"
       id="linearGradient844"
       x1="386.3063"
       y1="539.79773"
       x2="447.95114"
       y2="504.71896"
       gradientUnits="userSpaceOnUse"
       gradientTransform="matrix(0.89220779,0,0,1.0832755,44.905939,-43.952042)" />
    <linearGradient
       inkscape:collect="always"
       id="linearGradient842">
      <stop
         style="stop-color:#5e81ac;stop-opacity:1;"
         offset="0"
         id="stop838" />
      <stop
         style="stop-color:#88c0d0;stop-opacity:1;"
         offset="1"
         id="stop840" />
    </linearGradient>
  </defs>
  <metadata
     id="metadata5458">
    <rdf:RDF>
      <cc:Work
         rdf:about="">
        <dc:format>image/svg+xml</dc:format>
        <dc:type
           rdf:resource="http://purl.org/dc/dcmitype/StillImage" />
      </cc:Work>
    </rdf:RDF>
  </metadata>
  <g
     inkscape:label="Capa 1"
     inkscape:groupmode="layer"
     id="layer1"
     transform="translate(-384.57143,-483.798)">
    <path
       style="fill:url(#linearGradient862);fill-opacity:1;stroke-width:0.165167"
       d="m 416.56885,496.79763 c -0.77296,0 -1.68528,-0.50466 -2.0318,-1.11585 l -1.55431,-2.74667 c -0.34485,-0.61114 -1.25998,-1.10996 -2.03256,-1.1111 l -17.10301,-0.026 c -2.52449,-0.004 -3.2764,0.90502 -3.27574,2.90836 l 2.8e-4,0.84425 v 2.48461 l -2.8e-4,32.7624 c -1e-5,0.89375 2.02423,3 3,3 h 46 c 1,0 3,-2 3,-3 v -31 c 0,-2 -1,-3 -2.95097,-3 z"
       id="path4-3"
       sodipodi:nodetypes="sccsssccscsssss" />
    <path
       style="fill:#434c5e;fill-opacity:1;stroke-width:0.169792"
       d="m 438.57143,509.19766 c 0,1.42999 -0.68236,2.59997 -2.24338,2.59997 h -39.59788 c -1.56099,0 -2.15874,-1.16998 -2.15874,-2.59997 v -7.40003 c 0,-2 1,-3 3,-3 h 38 c 2,0 3,1 3,3 z"
       id="path8-6"
       sodipodi:nodetypes="sssssssss" />
    <path
       style="fill:url(#linearGradient844);fill-opacity:1;stroke-width:0.190958"
       d="m 437.57143,502.79763 h -42 c -4,0 -6,2 -6,6 v 27 c 0,3 2,5 5,5 h 44 c 3,0 5,-2 5,-5 v -27 c 0,-4 -2,-6 -6,-6 z"
       id="path10"
       sodipodi:nodetypes="sssssssss" />
    <g
       id="g8-3-3-4"
       transform="matrix(0.22222221,0,0,0.22222221,405.81132,512.68689)"
       style="fill:#434c5e;fill-opacity:1">
      <path
         d="m 50,38.312 c -6.455,0 -11.688,5.233 -11.688,11.688 0,6.455 5.233,11.688 11.688,11.688 6.455,0 11.688,-5.233 11.688,-11.688 0,-6.455 -5.233,-11.688 -11.688,-11.688 z m -2.028,3.759 c -2.191,0.559 -4.072,2.022 -5.159,4.02 -0.106,0.193 -0.308,0.305 -0.514,0.305 -0.095,0 -0.19,-0.023 -0.279,-0.071 -0.283,-0.155 -0.389,-0.51 -0.234,-0.793 1.243,-2.28 3.393,-3.954 5.898,-4.592 0.315,-0.084 0.631,0.109 0.71,0.422 0.08,0.313 -0.11,0.63 -0.422,0.709 z"
         id="path2-6-6-5"
         style="fill:#434c5e;fill-opacity:1" />
      <path
         d="M 54.078,23.573 C 54.009,21.374 52.217,19.61 50,19.61 c -2.217,0 -4.009,1.764 -4.078,3.963 C 33.107,25.544 23.263,36.643 23.263,50 c 0,13.357 9.845,24.456 22.659,26.427 0.069,2.199 1.861,3.963 4.078,3.963 2.217,0 4.009,-1.764 4.078,-3.963 C 66.893,74.456 76.737,63.357 76.737,50 76.737,36.643 66.893,25.544 54.078,23.573 Z m -0.062,51.975 c -0.354,-1.9 -2.013,-3.34 -4.016,-3.34 -2.003,0 -3.662,1.439 -4.016,3.34 C 33.625,73.611 24.14,62.895 24.14,50 c 0,-12.895 9.485,-23.611 21.845,-25.548 0.354,1.9 2.013,3.34 4.016,3.34 2.003,0 3.662,-1.439 4.016,-3.34 C 66.375,26.389 75.86,37.105 75.86,50 c 0,12.895 -9.485,23.611 -21.844,25.548 z"
         id="path4-3-7-0"
         style="fill:#434c5e;fill-opacity:1" />
      <path
         d="M 95,50 C 95,47.821 93.294,46.058 91.146,45.933 90.327,37.579 87.011,29.948 81.958,23.795 83.401,22.189 83.365,19.726 81.819,18.18 80.274,16.635 77.81,16.598 76.205,18.042 70.053,12.988 62.421,9.674 54.068,8.854 53.942,6.708 52.179,5 50,5 47.821,5 46.058,6.708 45.933,8.854 37.58,9.673 29.949,12.988 23.796,18.042 22.191,16.598 19.726,16.635 18.18,18.18 16.635,19.726 16.598,22.191 18.042,23.796 12.988,29.948 9.674,37.58 8.854,45.933 6.706,46.058 5,47.821 5,50 c 0,2.179 1.706,3.942 3.854,4.067 0.819,8.353 4.134,15.983 9.187,22.136 -1.444,1.606 -1.407,4.071 0.138,5.617 1.546,1.545 4.01,1.582 5.617,0.138 6.152,5.055 13.784,8.368 22.137,9.188 C 46.058,93.292 47.821,95 50,95 c 2.179,0 3.942,-1.708 4.067,-3.854 8.353,-0.819 15.984,-4.133 22.137,-9.188 1.607,1.444 4.07,1.407 5.616,-0.138 1.545,-1.546 1.582,-4.011 0.138,-5.616 C 87.013,70.052 90.326,62.42 91.146,54.067 93.294,53.942 95,52.179 95,50 Z m -4.73,4.027 c -0.808,8.143 -4.04,15.583 -8.963,21.589 -1.599,-1.15 -3.833,-1.02 -5.271,0.419 -1.438,1.439 -1.57,3.673 -0.419,5.271 -6.005,4.923 -13.446,8.155 -21.591,8.963 -0.308,-1.954 -1.984,-3.451 -4.025,-3.451 -2.041,0 -3.718,1.497 -4.025,3.451 -8.145,-0.808 -15.586,-4.04 -21.591,-8.963 1.151,-1.6 1.02,-3.835 -0.419,-5.272 -1.438,-1.438 -3.673,-1.571 -5.272,-0.42 C 13.771,69.61 10.538,62.17 9.73,54.027 c 1.954,-0.31 3.451,-1.986 3.451,-4.027 0,-2.041 -1.497,-3.718 -3.451,-4.027 0.808,-8.143 4.04,-15.582 8.962,-21.588 1.6,1.152 3.836,1.02 5.273,-0.419 1.438,-1.438 1.569,-3.674 0.419,-5.273 6.006,-4.922 13.445,-8.154 21.59,-8.962 0.308,1.954 1.984,3.451 4.025,3.451 2.041,0 3.718,-1.497 4.025,-3.451 8.145,0.808 15.585,4.04 21.59,8.962 -1.15,1.6 -1.02,3.834 0.419,5.272 1.438,1.438 3.673,1.569 5.272,0.419 4.923,6.005 8.155,13.446 8.963,21.589 -1.954,0.31 -3.451,1.986 -3.451,4.027 0,2.041 1.498,3.718 3.453,4.027 z"
         id="path6-6-5-3"
         style="fill:#434c5e;fill-opacity:1" />
    </g>
  </g>
</svg>
