<?xml version="1.0" encoding="UTF-8" standalone="no"?>
<svg
   width="64"
   version="1.1"
   height="64"
   id="svg15"
   sodipodi:docname="folder-Relax.svg"
   inkscape:version="1.2.1 (9c6d41e410, 2022-07-14)"
   xmlns:inkscape="http://www.inkscape.org/namespaces/inkscape"
   xmlns:sodipodi="http://sodipodi.sourceforge.net/DTD/sodipodi-0.dtd"
   xmlns:xlink="http://www.w3.org/1999/xlink"
   xmlns="http://www.w3.org/2000/svg"
   xmlns:svg="http://www.w3.org/2000/svg"
   xmlns:rdf="http://www.w3.org/1999/02/22-rdf-syntax-ns#"
   xmlns:cc="http://creativecommons.org/ns#"
   xmlns:dc="http://purl.org/dc/elements/1.1/">
  <sodipodi:namedview
     pagecolor="#ffffff"
     bordercolor="#666666"
     borderopacity="1"
     objecttolerance="10"
     gridtolerance="10"
     guidetolerance="10"
     inkscape:pageopacity="0"
     inkscape:pageshadow="2"
     inkscape:window-width="1920"
     inkscape:window-height="1002"
     id="namedview17"
     showgrid="true"
     inkscape:zoom="6.9384853"
     inkscape:cx="38.408959"
     inkscape:cy="26.590818"
     inkscape:window-x="0"
     inkscape:window-y="0"
     inkscape:window-maximized="1"
     inkscape:current-layer="layer1"
     inkscape:document-rotation="0"
     inkscape:showpageshadow="2"
     inkscape:pagecheckerboard="0"
     inkscape:deskcolor="#d1d1d1">
    <inkscape:grid
       type="xygrid"
       id="grid919" />
  </sodipodi:namedview>
  <defs
     id="defs5455">
    <linearGradient
       inkscape:collect="always"
       xlink:href="#linearGradient860"
       id="linearGradient862"
       x1="113.94583"
       y1="366.97165"
       x2="406.08234"
       y2="159.71205"
       gradientUnits="userSpaceOnUse"
       gradientTransform="matrix(0.17799897,0,0,0.17852009,370.28919,468.28582)" />
    <linearGradient
       inkscape:collect="always"
       id="linearGradient860">
      <stop
         style="stop-color:#8fbcbb;stop-opacity:1;"
         offset="0"
         id="stop856" />
      <stop
         style="stop-color:#a3be8c;stop-opacity:1;"
         offset="1"
         id="stop858" />
    </linearGradient>
    <linearGradient
       inkscape:collect="always"
       xlink:href="#linearGradient842"
       id="linearGradient844"
       x1="386.3063"
       y1="539.79773"
       x2="447.95114"
       y2="504.71896"
       gradientUnits="userSpaceOnUse"
       gradientTransform="matrix(0.89220779,0,0,1.0832755,44.905939,-43.952024)" />
    <linearGradient
       inkscape:collect="always"
       id="linearGradient842">
      <stop
         style="stop-color:#5e81ac;stop-opacity:1;"
         offset="0"
         id="stop838" />
      <stop
         style="stop-color:#88c0d0;stop-opacity:1;"
         offset="1"
         id="stop840" />
    </linearGradient>
  </defs>
  <metadata
     id="metadata5458">
    <rdf:RDF>
      <cc:Work
         rdf:about="">
        <dc:format>image/svg+xml</dc:format>
        <dc:type
           rdf:resource="http://purl.org/dc/dcmitype/StillImage" />
      </cc:Work>
    </rdf:RDF>
  </metadata>
  <g
     inkscape:label="Capa 1"
     inkscape:groupmode="layer"
     id="layer1"
     transform="translate(-384.57143,-483.798)">
    <path
       style="fill:url(#linearGradient862);fill-opacity:1;stroke-width:0.165167"
       d="m 416.56885,496.79763 c -0.77296,0 -1.68528,-0.50466 -2.0318,-1.11585 l -1.55431,-2.74667 c -0.34485,-0.61114 -1.25998,-1.10996 -2.03256,-1.1111 l -17.10301,-0.026 c -2.52449,-0.004 -3.2764,0.90502 -3.27574,2.90836 l 2.8e-4,0.84425 v 2.48461 l -2.8e-4,32.7624 c -1e-5,0.89375 2.02423,3 3,3 h 46 c 1,0 3,-2 3,-3 v -31 c 0,-2 -1,-3 -2.95097,-3 z"
       id="path4-3"
       sodipodi:nodetypes="sccsssccscsssss" />
    <path
       style="fill:#434c5e;fill-opacity:1;stroke-width:0.169792"
       d="m 438.57143,509.19766 c 0,1.42999 -0.68236,2.59997 -2.24338,2.59997 h -39.59788 c -1.56099,0 -2.15874,-1.16998 -2.15874,-2.59997 v -7.40003 c 0,-2 1,-3 3,-3 h 38 c 2,0 3,1 3,3 z"
       id="path8-6"
       sodipodi:nodetypes="sssssssss" />
    <path
       style="fill:url(#linearGradient844);fill-opacity:1;stroke-width:0.190958"
       d="m 437.57143,502.79763 h -42 c -4,0 -6,2 -6,6 v 27 c 0,3 2,5 5,5 h 44 c 3,0 5,-2 5,-5 v -27 c 0,-4 -2,-6 -6,-6 z"
       id="path10"
       sodipodi:nodetypes="sssssssss" />
    <path
       d="m 417.9815,521.73825 -10.6166,9.11749 c -0.23261,0.19983 -0.25919,0.55168 -0.0595,0.78432 l 1.48633,1.73069 c 0.19989,0.23279 0.55185,0.25937 0.78428,0.0598 l 10.61658,-9.11754 c 0.23273,-0.19986 0.25936,-0.5518 0.0596,-0.78437 l -1.48636,-1.73074 c -0.19974,-0.23285 -0.55165,-0.25946 -0.7844,-0.0596 z"
       id="path1170-2"
       style="fill:#434c5e;fill-opacity:1;stroke-width:0.0499296" />
    <path
       d="m 419.74965,520.21975 -0.84296,0.72395 c -0.18271,0.1569 -0.20366,0.43252 -0.047,0.61536 l 1.64274,1.91292 c 0.15683,0.18256 0.43246,0.20347 0.61516,0.0471 l 0.84294,-0.72395 c 0.18271,-0.15689 0.20366,-0.43251 0.0473,-0.61513 l -1.64281,-1.9128 c -0.15716,-0.18302 -0.43267,-0.20383 -0.61533,-0.0472 z"
       id="path1172-0"
       style="fill:#434c5e;fill-opacity:1;stroke-width:0.0499296" />
    <path
       d="m 421.44356,518.76505 -0.84296,0.72391 c -0.18271,0.1569 -0.20363,0.43252 -0.0469,0.6154 l 1.64274,1.91286 c 0.15679,0.18255 0.43239,0.20354 0.61513,0.047 l 0.84294,-0.72395 c 0.18288,-0.15706 0.20367,-0.43251 0.0473,-0.61514 L 422.059,518.8123 c -0.15715,-0.18309 -0.4325,-0.20395 -0.61534,-0.0471 z"
       id="path1174-6"
       style="fill:#434c5e;fill-opacity:1;stroke-width:0.0499296" />
    <path
       d="m 422.64588,514.45858 c -2.77894,-2.73596 -1.15884,-4.46715 -1.15884,-4.46715 0,0 -3.92111,3.06997 -0.11362,5.68591 3.31069,2.27502 1.67626,4.16166 1.67626,4.16166 0,3.4e-4 3.06609,-1.96579 -0.40362,-5.38042 z"
       id="path1401-1"
       style="fill:#434c5e;fill-opacity:1;stroke-width:0.106516" />
    <path
       d="m 426.04575,518.14394 c 0,0 3.06504,-1.96538 -0.40478,-5.37988 -2.77894,-2.73495 -1.15884,-4.46606 -1.15884,-4.46606 0,0 -3.92101,3.06996 -0.11292,5.68586 3.31003,2.27365 1.67664,4.16008 1.67664,4.16008 z"
       id="path1403-5"
       style="fill:#434c5e;fill-opacity:1;stroke-width:0.106516" />
  </g>
</svg>
