<?xml version="1.0" encoding="UTF-8" standalone="no"?>
<svg
   width="64"
   version="1.1"
   height="64"
   id="svg15"
   sodipodi:docname="folder-Pop_OS.svg"
   inkscape:version="1.2.1 (9c6d41e410, 2022-07-14)"
   xmlns:inkscape="http://www.inkscape.org/namespaces/inkscape"
   xmlns:sodipodi="http://sodipodi.sourceforge.net/DTD/sodipodi-0.dtd"
   xmlns:xlink="http://www.w3.org/1999/xlink"
   xmlns="http://www.w3.org/2000/svg"
   xmlns:svg="http://www.w3.org/2000/svg"
   xmlns:rdf="http://www.w3.org/1999/02/22-rdf-syntax-ns#"
   xmlns:cc="http://creativecommons.org/ns#"
   xmlns:dc="http://purl.org/dc/elements/1.1/">
  <sodipodi:namedview
     pagecolor="#ffffff"
     bordercolor="#666666"
     borderopacity="1"
     objecttolerance="10"
     gridtolerance="10"
     guidetolerance="10"
     inkscape:pageopacity="0"
     inkscape:pageshadow="2"
     inkscape:window-width="1920"
     inkscape:window-height="1002"
     id="namedview17"
     showgrid="true"
     inkscape:zoom="4.90625"
     inkscape:cx="11.719745"
     inkscape:cy="35.974522"
     inkscape:window-x="0"
     inkscape:window-y="0"
     inkscape:window-maximized="1"
     inkscape:current-layer="layer1"
     inkscape:document-rotation="0"
     inkscape:showpageshadow="2"
     inkscape:pagecheckerboard="0"
     inkscape:deskcolor="#d1d1d1">
    <inkscape:grid
       type="xygrid"
       id="grid919" />
  </sodipodi:namedview>
  <defs
     id="defs5455">
    <linearGradient
       inkscape:collect="always"
       xlink:href="#linearGradient860"
       id="linearGradient862"
       x1="113.94583"
       y1="366.97165"
       x2="406.08234"
       y2="159.71205"
       gradientUnits="userSpaceOnUse"
       gradientTransform="matrix(0.17799897,0,0,0.17852009,370.28919,468.28582)" />
    <linearGradient
       inkscape:collect="always"
       id="linearGradient860">
      <stop
         style="stop-color:#8fbcbb;stop-opacity:1;"
         offset="0"
         id="stop856" />
      <stop
         style="stop-color:#a3be8c;stop-opacity:1;"
         offset="1"
         id="stop858" />
    </linearGradient>
    <linearGradient
       inkscape:collect="always"
       xlink:href="#linearGradient842"
       id="linearGradient844"
       x1="386.3063"
       y1="539.79773"
       x2="447.95114"
       y2="504.71896"
       gradientUnits="userSpaceOnUse"
       gradientTransform="matrix(0.89220779,0,0,1.0832755,44.905939,-43.95203)" />
    <linearGradient
       inkscape:collect="always"
       id="linearGradient842">
      <stop
         style="stop-color:#5e81ac;stop-opacity:1;"
         offset="0"
         id="stop838" />
      <stop
         style="stop-color:#88c0d0;stop-opacity:1;"
         offset="1"
         id="stop840" />
    </linearGradient>
  </defs>
  <metadata
     id="metadata5458">
    <rdf:RDF>
      <cc:Work
         rdf:about="">
        <dc:format>image/svg+xml</dc:format>
        <dc:type
           rdf:resource="http://purl.org/dc/dcmitype/StillImage" />
      </cc:Work>
    </rdf:RDF>
  </metadata>
  <g
     inkscape:label="Capa 1"
     inkscape:groupmode="layer"
     id="layer1"
     transform="translate(-384.57143,-483.798)">
    <path
       style="fill:url(#linearGradient862);fill-opacity:1;stroke-width:0.165167"
       d="m 416.56885,496.79763 c -0.77296,0 -1.68528,-0.50466 -2.0318,-1.11585 l -1.55431,-2.74667 c -0.34485,-0.61114 -1.25998,-1.10996 -2.03256,-1.1111 l -17.10301,-0.026 c -2.52449,-0.004 -3.2764,0.90502 -3.27574,2.90836 l 2.8e-4,0.84425 v 2.48461 l -2.8e-4,32.7624 c -1e-5,0.89375 2.02423,3 3,3 h 46 c 1,0 3,-2 3,-3 v -31 c 0,-2 -1,-3 -2.95097,-3 z"
       id="path4-3"
       sodipodi:nodetypes="sccsssccscsssss" />
    <path
       style="fill:#434c5e;fill-opacity:1;stroke-width:0.169792"
       d="m 438.57143,509.19766 c 0,1.42999 -0.68236,2.59997 -2.24338,2.59997 h -39.59788 c -1.56099,0 -2.15874,-1.16998 -2.15874,-2.59997 v -7.40003 c 0,-2 1,-3 3,-3 h 38 c 2,0 3,1 3,3 z"
       id="path8-6"
       sodipodi:nodetypes="sssssssss" />
    <path
       style="fill:url(#linearGradient844);fill-opacity:1;stroke-width:0.190958"
       d="m 437.57143,502.79763 h -42 c -4,0 -6,2 -6,6 v 27 c 0,3 2,5 5,5 h 44 c 3,0 5,-2 5,-5 v -27 c 0,-4 -2,-6 -6,-6 z"
       id="path10"
       sodipodi:nodetypes="sssssssss" />
    <path
       style="fill:#434c5e;fill-opacity:1;stroke-width:0.0240039"
       id="path2-3-6-4"
       d="m 426.65433,526.43011 c -0.0453,0.19166 -0.14253,0.36152 -0.30874,0.46825 -0.26122,0.16743 -0.57949,0.1189 -0.80502,-0.0849 -0.21142,-0.18927 -0.28265,-0.50952 -0.21614,-0.78611 0.0687,-0.28875 0.28735,-0.54346 0.56753,-0.62358 0.62463,-0.17708 0.88343,0.51679 0.76237,1.02637 z m -0.38235,-1.97016 c -0.3871,-0.15769 -0.25415,-2.23215 0.10008,-4.75057 0.10009,-0.70365 0.27072,-1.03611 0.46305,-1.20595 0.27546,-0.24014 0.7766,-0.24991 1.11613,-0.19897 0.38956,0.0577 0.76232,0.24271 1.04492,0.52169 0.24937,0.24752 0.27793,0.49981 0.19235,0.82737 -0.1401,0.52169 -0.37993,1.0215 -0.61032,1.50917 -0.0542,0.11886 -0.53198,1.04323 -0.596,1.15726 -1.15183,2.07206 -1.38213,2.27351 -1.70991,2.14 z" />
    <path
       style="fill:#434c5e;fill-opacity:1;stroke-width:0.0240039"
       id="path4-6-7-4"
       d="m 418.45889,523.52588 c 0.228,0.99474 0.20424,2.08657 0.008,2.87267 -0.18287,0.74241 -0.67919,1.40718 -1.46766,1.63042 -0.69102,0.19653 -1.49609,0.0529 -1.99003,-0.43186 -0.8122,-0.79578 -1.28714,-2.66401 -1.07578,-4.02027 0.17095,-1.08943 0.74567,-2.48457 2.00667,-2.54522 0.0809,-0.004 0.16148,-0.002 0.24226,0.004 1.28474,0.11889 1.98532,1.22529 2.27503,2.48937 z m -2.32249,2.26363 c 0.0707,0.0125 0.14246,0.0125 0.21374,-0.008 0.23981,-0.0699 0.37755,-0.32521 0.44166,-0.57264 0.0974,-0.37605 0.0835,-0.78129 -0.0426,-1.1501 -0.0646,-0.18683 -0.15908,-0.3688 -0.30401,-0.50467 -0.51056,-0.47796 -1.0211,0.019 -1.10901,0.58474 -0.0687,0.4416 0.0312,0.95352 0.30162,1.31022 0.12586,0.16498 0.30638,0.3081 0.4987,0.34206 z" />
    <path
       style="fill:#434c5e;fill-opacity:1;stroke-width:0.0240039"
       id="path6-7-5-7"
       d="m 421.23982,525.6343 c -0.002,1.83662 0.17808,3.2415 -0.61276,3.40887 -0.64114,0.13347 -0.61975,-0.44155 -0.66967,-0.92437 -0.18991,-1.87066 -0.36328,-4.97871 -0.43697,-6.85904 0.052,-0.80799 0.5819,-1.303 1.13283,-1.42422 0.85015,-0.18683 1.75732,-0.13347 2.5101,0.34205 1.48902,0.94144 1.60773,2.66891 0.70534,4.07852 -0.49392,0.7692 -1.9877,1.32725 -2.62887,1.27871 z m 0.18996,-4.11736 c -0.0925,0.015 -0.24457,0.0577 -0.28734,0.15038 -0.10211,0.21593 -0.0955,1.58678 0.0835,2.16181 0.0287,0.0951 0.0922,0.18439 0.18523,0.21837 0.33727,0.12615 0.64127,-0.29601 0.779,-0.55078 0.19234,-0.35424 0.25405,-0.7715 0.13292,-1.15979 -0.11427,-0.36143 -0.4678,-0.88554 -0.89288,-0.81999 z" />
    <path
       style="fill:#434c5e;fill-opacity:1;stroke-width:0.0240039"
       id="path8-5-3-6"
       d="m 412.72378,522.42918 c -0.55808,1.20589 -1.48422,2.16428 -2.76661,2.63738 0.36814,0.98263 0.74334,1.95315 1.10903,2.93334 0.20428,0.52887 0.39894,1.10882 0.22088,1.63042 -0.18525,0.53378 -0.90718,0.68176 -1.43202,0.11426 -1.00927,-1.09673 -4.42181,-8.04552 -4.67352,-8.56721 -0.21382,-0.44885 -0.53431,-0.92925 -0.52491,-1.44847 0.0167,-0.78126 1.19935,-1.57224 1.76684,-1.97735 0.79322,-0.56537 1.70984,-0.95117 2.69062,-0.95355 0.76473,0 1.41775,0.21355 1.99725,0.59195 0.88816,0.5824 1.50563,1.51159 1.73364,2.56218 0.1994,0.92437 0.1567,1.87071 -0.1211,2.47727 m -2.60038,-1.31997 c -0.19946,-0.73992 -0.65076,-1.42169 -1.21829,-1.89971 -0.12349,-0.10398 -0.25651,-0.20143 -0.41081,-0.25473 -1.06389,-0.3567 -0.60318,1.46058 -0.42982,1.91914 0.23985,0.64298 0.60319,1.45574 1.09,1.94099 0.10652,0.10649 0.23275,0.2014 0.37755,0.23048 0.22087,0.0461 0.42507,-0.11182 0.53676,-0.29596 0.0921,-0.15288 0.1281,-0.33484 0.14962,-0.5119 0.0401,-0.37609 0.004,-0.7595 -0.0955,-1.12831 z" />
    <path
       style="fill:#434c5e;fill-opacity:1;stroke-width:0.0240039"
       id="path10-5-3"
       d="m 425.44637,531.66526 c -0.004,1.06514 -0.6412,2.13034 -2.04466,2.13034 -1.40352,0 -2.05655,-1.04821 -2.05655,-2.11816 0,-1.33446 0.90953,-2.15941 2.08502,-2.15941 1.36312,0.0122 2.02808,1.04578 2.01619,2.14723 z m -2.01619,-1.47516 c -0.88105,0 -1.37504,0.62601 -1.3797,1.48005 0,0.7424 0.40606,1.43878 1.36307,1.43878 0.95703,0 1.32276,-0.75454 1.32276,-1.44609 0.0126,-0.71813 -0.36096,-1.45575 -1.30613,-1.47274 z m 2.60517,3.05952 c 0,0.15771 0.004,-0.74972 0,-0.88802 h 0.64595 l 0.0454,0.55566 c 0.21142,0.12376 0.53911,0.21594 0.80744,0.21594 0.49876,0 1.01883,-0.12868 1.01883,-0.626 -0.0167,-0.45131 -0.5961,-0.54349 -1.06389,-0.59203 -0.79556,-0.083 -1.43674,-0.28141 -1.43674,-1.19367 0,-0.81287 0.89998,-1.21799 1.56968,-1.21799 0.53909,-0.0123 0.92141,0.0747 1.40822,0.47306 0,0.32762 -0.004,0.52169 -0.004,0.84924 h -0.62444 l -0.0401,-0.53861 c -0.25171,-0.12381 -0.51064,-0.15775 -0.71005,-0.15286 -0.42988,0.004 -0.88815,0.21104 -0.88815,0.57984 0,0.36153 0.29678,0.46098 0.82397,0.53868 0.85975,0.11661 1.68854,0.31537 1.68854,1.25194 -0.004,1.02389 -0.94517,1.29317 -1.75259,1.29317 -0.6151,0.002 -0.99979,-0.11426 -1.48665,-0.54836 z"
       inkscape:connector-curvature="0" />
    <path
       style="fill:#434c5e;fill-opacity:1;stroke-width:0.0240039"
       id="path12-6-1"
       d="m 420.47356,533.44615 c 0,0.18685 -0.14722,0.33725 -0.33009,0.33725 h -3.81631 c -0.18279,0 -0.33004,-0.1504 -0.33004,-0.33725 v -0.0294 c 0,-0.18678 0.14725,-0.33726 0.33004,-0.33726 h 3.81631 c 0.18287,0 0.33009,0.15048 0.33009,0.33726 z"
       inkscape:connector-curvature="0" />
  </g>
</svg>
