<?xml version="1.0" encoding="UTF-8" standalone="no"?>
<svg
   height="64"
   width="64"
   version="1.1"
   id="svg19"
   sodipodi:docname="folder-flatpak.svg"
   inkscape:version="1.2.1 (9c6d41e410, 2022-07-14)"
   xmlns:inkscape="http://www.inkscape.org/namespaces/inkscape"
   xmlns:sodipodi="http://sodipodi.sourceforge.net/DTD/sodipodi-0.dtd"
   xmlns:xlink="http://www.w3.org/1999/xlink"
   xmlns="http://www.w3.org/2000/svg"
   xmlns:svg="http://www.w3.org/2000/svg"
   xmlns:rdf="http://www.w3.org/1999/02/22-rdf-syntax-ns#"
   xmlns:cc="http://creativecommons.org/ns#"
   xmlns:dc="http://purl.org/dc/elements/1.1/">
  <metadata
     id="metadata25">
    <rdf:RDF>
      <cc:Work
         rdf:about="">
        <dc:format>image/svg+xml</dc:format>
        <dc:type
           rdf:resource="http://purl.org/dc/dcmitype/StillImage" />
      </cc:Work>
    </rdf:RDF>
  </metadata>
  <defs
     id="defs23">
    <linearGradient
       inkscape:collect="always"
       xlink:href="#linearGradient860"
       id="linearGradient862"
       x1="113.94583"
       y1="366.97165"
       x2="406.08234"
       y2="159.71205"
       gradientUnits="userSpaceOnUse"
       gradientTransform="matrix(0.17799897,0,0,0.17852009,-14.28224,-15.512177)" />
    <linearGradient
       inkscape:collect="always"
       id="linearGradient860">
      <stop
         style="stop-color:#8fbcbb;stop-opacity:1;"
         offset="0"
         id="stop856" />
      <stop
         style="stop-color:#a3be8c;stop-opacity:1;"
         offset="1"
         id="stop858" />
    </linearGradient>
    <linearGradient
       inkscape:collect="always"
       xlink:href="#linearGradient842"
       id="linearGradient844"
       x1="386.3063"
       y1="539.79773"
       x2="447.95114"
       y2="504.71896"
       gradientUnits="userSpaceOnUse"
       gradientTransform="matrix(0.89220779,0,0,1.0832755,-339.66549,-527.75005)" />
    <linearGradient
       inkscape:collect="always"
       id="linearGradient842">
      <stop
         style="stop-color:#5e81ac;stop-opacity:1;"
         offset="0"
         id="stop838" />
      <stop
         style="stop-color:#88c0d0;stop-opacity:1;"
         offset="1"
         id="stop840" />
    </linearGradient>
  </defs>
  <sodipodi:namedview
     pagecolor="#ffffff"
     bordercolor="#666666"
     borderopacity="1"
     objecttolerance="10"
     gridtolerance="10"
     guidetolerance="10"
     inkscape:pageopacity="0"
     inkscape:pageshadow="2"
     inkscape:window-width="1920"
     inkscape:window-height="1002"
     id="namedview21"
     showgrid="true"
     inkscape:zoom="4.90625"
     inkscape:cx="-41.88535"
     inkscape:cy="24.152866"
     inkscape:window-x="0"
     inkscape:window-y="0"
     inkscape:window-maximized="1"
     inkscape:current-layer="svg19"
     inkscape:document-rotation="0"
     inkscape:showpageshadow="2"
     inkscape:pagecheckerboard="0"
     inkscape:deskcolor="#d1d1d1">
    <inkscape:grid
       type="xygrid"
       id="grid879" />
  </sodipodi:namedview>
  <linearGradient
     id="a"
     gradientUnits="userSpaceOnUse"
     x1="3"
     x2="3"
     y1="58"
     y2="16">
    <stop
       offset="0"
       stop-color="#3daee9"
       id="stop2" />
    <stop
       offset="1"
       stop-color="#6cc1ef"
       id="stop4" />
  </linearGradient>
  <path
     style="fill:url(#linearGradient862);fill-opacity:1;stroke-width:0.165167"
     d="m 31.99742,12.999633 c -0.77296,0 -1.68528,-0.50466 -2.0318,-1.11585 L 28.41131,9.137113 C 28.06646,8.525973 27.15133,8.0271531 26.37875,8.0260131 l -17.10301,-0.026 C 6.75125,7.9960131 5.99934,8.905033 6,10.908373 l 2.8e-4,0.84425 v 2.48461 L 6,46.999633 c -10e-6,0.89375 2.02423,3 3,3 h 46 c 1,0 3,-2 3,-3 v -31 c 0,-2 -1,-3 -2.95097,-3 z"
     id="path4-3"
     sodipodi:nodetypes="sccsssccscsssss" />
  <path
     style="fill:#434c5e;fill-opacity:1;stroke-width:0.169792"
     d="m 54,25.399663 c 0,1.42999 -0.68236,2.59997 -2.24338,2.59997 H 12.15874 C 10.59775,27.999633 10,26.829653 10,25.399663 v -7.40003 c 0,-2 1,-3 3,-3 h 38 c 2,0 3,1 3,3 z"
     id="path8-6"
     sodipodi:nodetypes="sssssssss" />
  <path
     style="fill:url(#linearGradient844);fill-opacity:1;stroke-width:0.190958"
     d="M 53,18.999633 H 11 c -4,0 -6,2 -6,6 v 27 c 0,3 2,5 5,5 h 44 c 3,0 5,-2 5,-5 v -27 c 0,-4 -2,-6 -6,-6 z"
     id="path10"
     sodipodi:nodetypes="sssssssss" />
  <path
     style="color:#232629;fill:#434c5e;fill-opacity:1;stroke:none;stroke-width:0.993483"
     d="M 32.599747,30 32.34233,30.199655 23.696,34.089264 V 46.057559 L 32.599747,50.047 41.503154,46.057559 V 34.089264 Z m 0,1.166893 v 5.286064 l -0.494716,0.329074 -7.419578,-2.13445 z m 7.914277,3.989427 v 10.302662 l -7.914277,3.391193 V 37.679761 Z"
     class="ColorScheme-Text"
     id="path12-7" />
</svg>
