<?xml version="1.0" encoding="UTF-8" standalone="no"?>
<svg
   width="64"
   version="1.1"
   height="64"
   id="svg19"
   sodipodi:docname="folder-development.svg"
   inkscape:version="1.2.1 (9c6d41e410, 2022-07-14)"
   xmlns:inkscape="http://www.inkscape.org/namespaces/inkscape"
   xmlns:sodipodi="http://sodipodi.sourceforge.net/DTD/sodipodi-0.dtd"
   xmlns:xlink="http://www.w3.org/1999/xlink"
   xmlns="http://www.w3.org/2000/svg"
   xmlns:svg="http://www.w3.org/2000/svg"
   xmlns:rdf="http://www.w3.org/1999/02/22-rdf-syntax-ns#"
   xmlns:cc="http://creativecommons.org/ns#"
   xmlns:dc="http://purl.org/dc/elements/1.1/">
  <sodipodi:namedview
     pagecolor="#ffffff"
     bordercolor="#666666"
     borderopacity="1"
     objecttolerance="10"
     gridtolerance="10"
     guidetolerance="10"
     inkscape:pageopacity="0"
     inkscape:pageshadow="2"
     inkscape:window-width="1920"
     inkscape:window-height="1002"
     id="namedview21"
     showgrid="true"
     inkscape:zoom="6.9384855"
     inkscape:cx="-14.196182"
     inkscape:cy="27.167312"
     inkscape:window-x="0"
     inkscape:window-y="0"
     inkscape:window-maximized="1"
     inkscape:current-layer="layer1"
     inkscape:document-rotation="0"
     inkscape:showpageshadow="2"
     inkscape:pagecheckerboard="0"
     inkscape:deskcolor="#d1d1d1">
    <inkscape:grid
       type="xygrid"
       id="grid941" />
  </sodipodi:namedview>
  <defs
     id="defs5455">
    <linearGradient
       inkscape:collect="always"
       xlink:href="#linearGradient860"
       id="linearGradient862"
       x1="113.94583"
       y1="366.97165"
       x2="406.08234"
       y2="159.71205"
       gradientUnits="userSpaceOnUse"
       gradientTransform="matrix(0.17799897,0,0,0.17852009,370.28919,468.28582)" />
    <linearGradient
       inkscape:collect="always"
       id="linearGradient860">
      <stop
         style="stop-color:#8fbcbb;stop-opacity:1;"
         offset="0"
         id="stop856" />
      <stop
         style="stop-color:#a3be8c;stop-opacity:1;"
         offset="1"
         id="stop858" />
    </linearGradient>
    <linearGradient
       inkscape:collect="always"
       xlink:href="#linearGradient842"
       id="linearGradient844"
       x1="386.3063"
       y1="539.79773"
       x2="447.95114"
       y2="504.71896"
       gradientUnits="userSpaceOnUse"
       gradientTransform="matrix(0.89220779,0,0,1.0832755,44.905939,-43.952036)" />
    <linearGradient
       inkscape:collect="always"
       id="linearGradient842">
      <stop
         style="stop-color:#5e81ac;stop-opacity:1;"
         offset="0"
         id="stop838" />
      <stop
         style="stop-color:#88c0d0;stop-opacity:1;"
         offset="1"
         id="stop840" />
    </linearGradient>
  </defs>
  <metadata
     id="metadata5458">
    <rdf:RDF>
      <cc:Work
         rdf:about="">
        <dc:format>image/svg+xml</dc:format>
        <dc:type
           rdf:resource="http://purl.org/dc/dcmitype/StillImage" />
      </cc:Work>
    </rdf:RDF>
  </metadata>
  <g
     inkscape:label="Capa 1"
     inkscape:groupmode="layer"
     id="layer1"
     transform="translate(-384.57143,-483.798)">
    <path
       style="fill:url(#linearGradient862);fill-opacity:1;stroke-width:0.165167"
       d="m 416.56885,496.79763 c -0.77296,0 -1.68528,-0.50466 -2.0318,-1.11585 l -1.55431,-2.74667 c -0.34485,-0.61114 -1.25998,-1.10996 -2.03256,-1.1111 l -17.10301,-0.026 c -2.52449,-0.004 -3.2764,0.90502 -3.27574,2.90836 l 2.8e-4,0.84425 v 2.48461 l -2.8e-4,32.7624 c -1e-5,0.89375 2.02423,3 3,3 h 46 c 1,0 3,-2 3,-3 v -31 c 0,-2 -1,-3 -2.95097,-3 z"
       id="path4-3"
       sodipodi:nodetypes="sccsssccscsssss" />
    <path
       style="fill:#434c5e;fill-opacity:1;stroke-width:0.169792"
       d="m 438.57143,509.19766 c 0,1.42999 -0.68236,2.59997 -2.24338,2.59997 h -39.59788 c -1.56099,0 -2.15874,-1.16998 -2.15874,-2.59997 v -7.40003 c 0,-2 1,-3 3,-3 h 38 c 2,0 3,1 3,3 z"
       id="path8-6"
       sodipodi:nodetypes="sssssssss" />
    <path
       style="fill:url(#linearGradient844);fill-opacity:1;stroke-width:0.190958"
       d="m 437.57143,502.79763 h -42 c -4,0 -6,2 -6,6 v 27 c 0,3 2,5 5,5 h 44 c 3,0 5,-2 5,-5 v -27 c 0,-4 -2,-6 -6,-6 z"
       id="path10"
       sodipodi:nodetypes="sssssssss" />
    <path
       fill-rule="evenodd"
       clip-rule="evenodd"
       d="m 408.70543,517.36941 c 0,-0.39447 0.31723,-0.71425 0.70845,-0.71425 0.39134,0 0.70851,0.31978 0.70851,0.71425 0,0.39449 -0.31717,0.71433 -0.70851,0.71433 -0.39122,0 -0.70845,-0.31984 -0.70845,-0.71433 z m 2.83398,0 c 0,-0.39447 0.31725,-0.71425 0.70848,-0.71425 0.39131,0 0.70849,0.31978 0.70849,0.71425 0,0.39449 -0.31718,0.71433 -0.70849,0.71433 -0.39123,0 -0.70848,-0.31984 -0.70848,-0.71433 z m 2.83399,0 c 0,-0.39447 0.31722,-0.71425 0.70846,-0.71425 0.39132,0 0.7085,0.31978 0.7085,0.71425 0,0.39449 -0.31717,0.71433 -0.7085,0.71433 -0.39124,0 -0.70846,-0.31984 -0.70846,-0.71433 z m 14.16994,3.9286 v 9.64283 c 0,1.57787 -1.26895,2.85716 -2.83398,2.85716 h -17.00394 c -1.56509,0 -2.83399,-1.27929 -2.83399,-2.85716 v -7.8571 c 0,-0.39449 0.31723,-0.71433 0.70845,-0.71433 0.39134,0 0.70851,0.31984 0.70851,0.71433 v 7.8571 c 0,0.78896 0.63448,1.42856 1.41703,1.42856 h 17.00394 c 0.78248,0 1.41696,-0.6396 1.41696,-1.42856 v -9.28568 c 0,-0.39448 -0.31716,-0.71431 -0.7085,-0.71431 h -18.77513 c -0.97837,0 -1.77125,-0.79933 -1.77125,-1.78569 v -2.5 c 0,-1.57788 1.26889,-2.85716 2.83399,-2.85716 h 17.00394 c 1.56503,0 2.83398,1.27928 2.83398,2.85716 v 0.71425 c 0,0.39449 -0.31723,0.71433 -0.70852,0.71433 -0.39128,0 -0.70851,-0.31984 -0.70851,-0.71433 v -0.71425 c 0,-0.78897 -0.63448,-1.42856 -1.41696,-1.42856 h -17.00394 c -0.78255,0 -1.41703,0.63959 -1.41703,1.42856 v 2.14284 c 0,0.39443 0.31723,0.71425 0.70857,0.71425 h 18.77514 c 0.97837,0 1.77124,0.79944 1.77124,1.78576 z"
       id="path2-36"
       style="fill:#434c5e;fill-opacity:1;stroke-width:0.0444614" />
    <path
       fill-rule="evenodd"
       clip-rule="evenodd"
       d="m 420.57784,527.75056 c -7.6e-4,5.8e-4 -0.002,9.8e-4 -0.003,9.8e-4 -0.11568,0.0395 -0.19937,0.14984 -0.19937,0.28015 v 3.05918 c 0,0.16345 -0.1312,0.29577 -0.29335,0.29577 -0.16185,0 -0.29304,-0.13232 -0.29304,-0.29577 v -3.05918 c 0,-0.38458 0.24277,-0.71231 0.58253,-0.83537 0.004,-10e-4 0.008,-0.004 0.0122,-0.006 0.33689,-0.12458 0.57867,-0.44796 0.57867,-0.83068 0,-0.24478 -0.0982,-0.46638 -0.25694,-0.62652 -0.0536,-0.0538 -0.0869,-0.12796 -0.0869,-0.20986 0,-0.16339 0.13137,-0.2959 0.29364,-0.2959 0.0858,0 0.16243,0.0381 0.21596,0.0975 0.25959,0.26707 0.421,0.63142 0.421,1.03508 0,0.6413 -0.4048,1.18609 -0.97127,1.39113 z m -0.78469,-2.22879 c -0.004,0.002 -0.008,0.004 -0.0122,0.006 -0.33693,0.12432 -0.57854,0.44773 -0.57854,0.83071 0,0.24507 0.0987,0.4669 0.25783,0.62733 0.0531,0.0535 0.0857,0.12768 0.0857,0.20926 0,0.16315 -0.13115,0.29549 -0.29332,0.29549 -0.0842,0 -0.16011,-0.0368 -0.21384,-0.0943 -0.26111,-0.26725 -0.42323,-0.63294 -0.42323,-1.03792 0,-0.64105 0.40445,-1.18449 0.97024,-1.39019 9.7e-4,-8e-4 0.003,-0.002 0.004,-0.002 0.11576,-0.0396 0.19929,-0.1499 0.19929,-0.2803 v -1.28455 c 0,-0.16322 0.13122,-0.2959 0.29303,-0.2959 0.16219,0 0.29334,0.13269 0.29334,0.2959 v 1.28458 c -2e-5,0.38507 -0.24265,0.71239 -0.58239,0.83545 z m 0.289,-3.00754 c -0.16188,0 -0.29301,-0.13227 -0.29301,-0.29548 0,-0.16347 0.13114,-0.29578 0.29301,-0.29578 0.1621,0 0.29332,0.13231 0.29332,0.29578 0,0.16321 -0.13122,0.29548 -0.29332,0.29548 z m -2.43728,7.602 c -0.002,7.2e-4 -0.002,0.002 -0.003,0.002 -0.11569,0.0395 -0.19938,0.15021 -0.19938,0.28015 v 0.69313 c 0,0.16349 -0.13115,0.29573 -0.29328,0.29573 -0.16187,0 -0.29309,-0.13224 -0.29309,-0.29573 v -0.69313 c 0,-0.38465 0.24278,-0.71226 0.58249,-0.83525 0.004,-9.8e-4 0.008,-0.004 0.0122,-0.006 0.33675,-0.12474 0.57856,-0.44812 0.57856,-0.83068 0,-0.24471 -0.0982,-0.46628 -0.25687,-0.62644 -0.0537,-0.0538 -0.0869,-0.12796 -0.0869,-0.20997 0,-0.16353 0.13139,-0.29578 0.29352,-0.29578 0.0859,0 0.16237,0.038 0.21598,0.0975 0.25971,0.26685 0.42109,0.63136 0.42109,1.03499 -2e-5,0.64097 -0.40467,1.18581 -0.97073,1.39072 z m -0.78535,-2.22844 c -0.005,9.9e-4 -0.008,0.005 -0.0131,0.007 -0.33597,0.1246 -0.57758,0.44773 -0.57758,0.83009 0,0.24491 0.0988,0.46688 0.25785,0.62731 0.0532,0.0535 0.0859,0.12767 0.0859,0.20928 0,0.16322 -0.13124,0.29548 -0.29339,0.29548 -0.0822,0 -0.15686,-0.0348 -0.21012,-0.0904 -0.26385,-0.2672 -0.42701,-0.63506 -0.42701,-1.04184 0,-0.64112 0.40465,-1.18474 0.97035,-1.39015 9.7e-4,-8.9e-4 0.003,-0.002 0.004,-0.002 0.11568,-0.0395 0.19921,-0.14986 0.19921,-0.28017 v -4.83358 c 0,-0.1635 0.13121,-0.29578 0.29307,-0.29578 0.1621,0 0.29329,0.13228 0.29329,0.29578 v 4.83364 c -10e-6,0.38502 -0.2426,0.7127 -0.58237,0.83533 z m -2.1482,-1.3209 c -0.002,7.7e-4 -0.002,9.8e-4 -0.003,9.8e-4 -0.1159,0.0398 -0.19938,0.15016 -0.19938,0.28014 v 4.24238 c 0,0.16354 -0.1312,0.29579 -0.29305,0.29579 -0.1622,0 -0.29343,-0.13225 -0.29343,-0.29579 v -4.24238 c 0,-0.38455 0.24283,-0.71224 0.58266,-0.8353 0.004,-0.002 0.008,-0.004 0.0122,-0.006 0.33675,-0.12437 0.5785,-0.44771 0.5785,-0.83041 0,-0.2451 -0.0989,-0.46693 -0.25794,-0.62736 -0.0534,-0.0538 -0.0857,-0.12734 -0.0857,-0.20921 0,-0.16324 0.13121,-0.2959 0.29335,-0.2959 0.0841,0 0.16031,0.037 0.21387,0.0945 0.26114,0.26738 0.42328,0.63301 0.42328,1.03794 0,0.64106 -0.405,1.18554 -0.9706,1.39047 z m -0.78545,-2.22808 c -0.004,9.7e-4 -0.008,0.004 -0.0122,0.006 -0.33686,0.12461 -0.57868,0.44797 -0.57868,0.83067 0,0.2451 0.0989,0.46656 0.25796,0.6271 0.053,0.0535 0.0859,0.12759 0.0859,0.20922 0,0.16319 -0.1312,0.29577 -0.29334,0.29577 -0.0838,0 -0.15961,-0.0364 -0.21319,-0.0935 -0.26191,-0.26654 -0.42404,-0.63374 -0.42404,-1.03864 0,-0.64111 0.4046,-1.18579 0.97066,-1.3907 9.9e-4,-7.7e-4 0.002,-10e-4 0.004,-10e-4 0.11575,-0.0395 0.19921,-0.15018 0.19921,-0.28016 v -1.28474 c 0,-0.16352 0.13124,-0.29576 0.29344,-0.29576 0.16188,0 0.29307,0.13224 0.29307,0.29576 v 1.28474 c 0,0.38453 -0.24267,0.71226 -0.58247,0.83533 z"
       id="path2-3-0"
       style="fill:#434c5e;fill-opacity:1;stroke-width:0.0184097" />
  </g>
</svg>
