<?xml version="1.0" encoding="UTF-8" standalone="no"?>
<svg
   width="64"
   version="1.1"
   height="64"
   id="svg17"
   sodipodi:docname="certificate-server.svg"
   inkscape:version="1.2.1 (9c6d41e410, 2022-07-14)"
   xmlns:inkscape="http://www.inkscape.org/namespaces/inkscape"
   xmlns:sodipodi="http://sodipodi.sourceforge.net/DTD/sodipodi-0.dtd"
   xmlns:xlink="http://www.w3.org/1999/xlink"
   xmlns="http://www.w3.org/2000/svg"
   xmlns:svg="http://www.w3.org/2000/svg"
   xmlns:rdf="http://www.w3.org/1999/02/22-rdf-syntax-ns#"
   xmlns:cc="http://creativecommons.org/ns#"
   xmlns:dc="http://purl.org/dc/elements/1.1/">
  <sodipodi:namedview
     pagecolor="#ffffff"
     bordercolor="#666666"
     borderopacity="1"
     objecttolerance="10"
     gridtolerance="10"
     guidetolerance="10"
     inkscape:pageopacity="0"
     inkscape:pageshadow="2"
     inkscape:window-width="1920"
     inkscape:window-height="1002"
     id="namedview19"
     showgrid="true"
     inkscape:zoom="16"
     inkscape:cx="35.09375"
     inkscape:cy="38.03125"
     inkscape:window-x="0"
     inkscape:window-y="0"
     inkscape:window-maximized="1"
     inkscape:current-layer="layer1"
     inkscape:document-rotation="0"
     inkscape:lockguides="false"
     inkscape:showpageshadow="2"
     inkscape:pagecheckerboard="0"
     inkscape:deskcolor="#d1d1d1">
    <inkscape:grid
       type="xygrid"
       id="grid903" />
  </sodipodi:namedview>
  <defs
     id="defs5455">
    <linearGradient
       inkscape:collect="always"
       xlink:href="#linearGradient860-3"
       id="linearGradient862"
       x1="113.94583"
       y1="366.97165"
       x2="406.08234"
       y2="159.71205"
       gradientUnits="userSpaceOnUse"
       gradientTransform="matrix(0.17799897,0,0,0.17852009,370.28919,468.28619)" />
    <linearGradient
       inkscape:collect="always"
       id="linearGradient860-3">
      <stop
         style="stop-color:#8fbcbb;stop-opacity:1;"
         offset="0"
         id="stop856-6" />
      <stop
         style="stop-color:#a3be8c;stop-opacity:1;"
         offset="1"
         id="stop858-7" />
    </linearGradient>
    <linearGradient
       inkscape:collect="always"
       xlink:href="#linearGradient842-3"
       id="linearGradient844-5"
       x1="386.3063"
       y1="539.79773"
       x2="447.95114"
       y2="504.71896"
       gradientUnits="userSpaceOnUse"
       gradientTransform="matrix(0.89220779,0,0,1.0832755,44.905939,-43.951678)" />
    <linearGradient
       inkscape:collect="always"
       id="linearGradient842-3">
      <stop
         style="stop-color:#5e81ac;stop-opacity:1;"
         offset="0"
         id="stop838-5" />
      <stop
         style="stop-color:#88c0d0;stop-opacity:1;"
         offset="1"
         id="stop840-6" />
    </linearGradient>
  </defs>
  <metadata
     id="metadata5458">
    <rdf:RDF>
      <cc:Work
         rdf:about="">
        <dc:format>image/svg+xml</dc:format>
        <dc:type
           rdf:resource="http://purl.org/dc/dcmitype/StillImage" />
      </cc:Work>
    </rdf:RDF>
  </metadata>
  <g
     inkscape:label="Capa 1"
     inkscape:groupmode="layer"
     id="layer1"
     transform="translate(-384.57143,-483.798)">
    <path
       inkscape:connector-curvature="0"
       style="fill:#434c5e;fill-opacity:1"
       id="rect4136-3-6"
       d="m 486.57143,492.798 c -2.77,0 -5,2.23 -5,5 v 5 l -1.99378,0.005 v 0 c -0.50202,-0.006 -1.01891,0.19502 -1.00622,0.99502 l 5.6e-4,8.19998 c 0.003,0.7329 0.50127,0.80494 0.90931,0.80129 l 0.16871,-0.002 13.17138,6.4e-4 0.79216,-10e-6 c 0.45788,-0.0222 0.94192,-0.0438 0.93601,-0.79992 l 0.009,-8.24973 c 0.0171,-0.75036 -0.48686,-0.93761 -0.94978,-0.95036 h -0.78707 -1.25001 v -5 c 0,-2.77 -2.23,-5 -5,-5 z m 0,1 c 2.0775,0 4,1.57625 4,4 v 5 h -8 v -5 c 0,-2.42375 1.92251,-4 4,-4 z m -6.48733,10 v 0 h 12.96951 c 0.51822,-0.005 0.52587,0.004 0.5171,0.43633 l 7.2e-4,7.56367 h -14 v -7.57394 c 0.008,-0.45424 0.008,-0.44148 0.51267,-0.42606 z"
       sodipodi:nodetypes="sscccccsccccccccssscccssccccccccc" />
    <path
       style="fill:url(#linearGradient862);fill-opacity:1;stroke-width:0.165167"
       d="m 416.56885,496.798 c -0.77296,0 -1.68528,-0.50466 -2.0318,-1.11585 l -1.55431,-2.74667 c -0.34485,-0.61114 -1.25998,-1.10996 -2.03256,-1.1111 l -17.10301,-0.026 c -2.52449,-0.004 -3.2764,0.90502 -3.27574,2.90836 l 2.8e-4,0.84425 v 2.48461 l -2.8e-4,32.7624 c -1e-5,0.89375 2.02423,3 3,3 h 46 c 1,0 3,-2 3,-3 v -31 c 0,-2 -1,-3 -2.95097,-3 z"
       id="path4-3-2"
       sodipodi:nodetypes="sccsssccscsssss" />
    <path
       style="fill:#434c5e;fill-opacity:1;stroke-width:0.169792"
       d="m 438.57143,509.19803 c 0,1.42999 -0.68236,2.59997 -2.24338,2.59997 h -39.59788 c -1.56099,0 -2.15874,-1.16998 -2.15874,-2.59997 V 501.798 c 0,-2 1,-3 3,-3 h 38 c 2,0 3,1 3,3 z"
       id="path8-6-9"
       sodipodi:nodetypes="sssssssss" />
    <path
       style="fill:url(#linearGradient844-5);fill-opacity:1;stroke-width:0.190958"
       d="m 437.57143,502.798 h -42 c -4,0 -6,2 -6,6 v 27 c 0,3 2,5 5,5 h 44 c 3,0 5,-2 5,-5 v -27 c 0,-4 -2,-6 -6,-6 z"
       id="path10-1"
       sodipodi:nodetypes="sssssssss" />
    <path
       inkscape:connector-curvature="0"
       style="fill:#434c5e;fill-opacity:1"
       id="rect4136-3-6-2"
       d="m 417.17366,513.39809 c -2.76999,0 -5,2.23 -5,5 v 5 l -1.99378,0.005 v 0 c -0.50202,-0.006 -1.01891,0.19502 -1.00622,0.99502 l 5.6e-4,8.19998 c 0.003,0.7329 0.50127,0.80494 0.90931,0.80129 l 0.16871,-0.002 13.17138,6.4e-4 0.79216,-10e-6 c 0.45788,-0.0222 0.94192,-0.0438 0.93602,-0.79992 l 0.009,-8.24973 c 0.0171,-0.75036 -0.48686,-0.93761 -0.94978,-0.95036 h -0.78707 -1.25001 v -5 c 0,-2.77 -2.23,-5 -5,-5 z m 0,1 c 2.0775,0 4,1.57625 4,4 v 5 h -8 v -5 c 0,-2.42375 1.92251,-4 4,-4 z m -6.48732,10 v 0 h 12.96951 c 0.51822,-0.005 0.52587,0.004 0.5171,0.43633 l 7.2e-4,7.56367 h -14 v -7.57394 c 0.008,-0.45424 0.008,-0.44148 0.51267,-0.42606 z"
       sodipodi:nodetypes="sscccccsccccccccssscccssccccccccc" />
  </g>
</svg>
