<?xml version="1.0" encoding="UTF-8" standalone="no"?>
<svg
   height="32"
   width="32"
   version="1.1"
   id="svg23"
   sodipodi:docname="folder-root.svg"
   inkscape:version="1.2.1 (9c6d41e410, 2022-07-14)"
   xmlns:inkscape="http://www.inkscape.org/namespaces/inkscape"
   xmlns:sodipodi="http://sodipodi.sourceforge.net/DTD/sodipodi-0.dtd"
   xmlns:xlink="http://www.w3.org/1999/xlink"
   xmlns="http://www.w3.org/2000/svg"
   xmlns:svg="http://www.w3.org/2000/svg"
   xmlns:rdf="http://www.w3.org/1999/02/22-rdf-syntax-ns#"
   xmlns:cc="http://creativecommons.org/ns#"
   xmlns:dc="http://purl.org/dc/elements/1.1/">
  <metadata
     id="metadata29">
    <rdf:RDF>
      <cc:Work
         rdf:about="">
        <dc:format>image/svg+xml</dc:format>
        <dc:type
           rdf:resource="http://purl.org/dc/dcmitype/StillImage" />
      </cc:Work>
    </rdf:RDF>
  </metadata>
  <defs
     id="defs27">
    <linearGradient
       inkscape:collect="always"
       xlink:href="#linearGradient860-3"
       id="linearGradient862"
       x1="113.94583"
       y1="366.97165"
       x2="406.08234"
       y2="159.71205"
       gradientUnits="userSpaceOnUse"
       gradientTransform="matrix(0.08570321,0,0,0.08743912,-6.284041,-7.5162789)" />
    <linearGradient
       inkscape:collect="always"
       id="linearGradient860-3">
      <stop
         style="stop-color:#8fbcbb;stop-opacity:1;"
         offset="0"
         id="stop856-6" />
      <stop
         style="stop-color:#a3be8c;stop-opacity:1;"
         offset="1"
         id="stop858-7" />
    </linearGradient>
    <linearGradient
       inkscape:collect="always"
       xlink:href="#linearGradient842-3"
       id="linearGradient844-5"
       x1="386.3063"
       y1="539.79773"
       x2="447.95114"
       y2="504.71896"
       gradientUnits="userSpaceOnUse"
       gradientTransform="matrix(0.42958153,0,0,0.53058823,-162.95005,-258.41032)" />
    <linearGradient
       inkscape:collect="always"
       id="linearGradient842-3">
      <stop
         style="stop-color:#5e81ac;stop-opacity:1;"
         offset="0"
         id="stop838-5" />
      <stop
         style="stop-color:#88c0d0;stop-opacity:1;"
         offset="1"
         id="stop840-6" />
    </linearGradient>
  </defs>
  <sodipodi:namedview
     pagecolor="#ffffff"
     bordercolor="#666666"
     borderopacity="1"
     objecttolerance="10"
     gridtolerance="10"
     guidetolerance="10"
     inkscape:pageopacity="0"
     inkscape:pageshadow="2"
     inkscape:window-width="1920"
     inkscape:window-height="1002"
     id="namedview25"
     showgrid="false"
     inkscape:zoom="9.8125"
     inkscape:cx="-11.363057"
     inkscape:cy="3.6178344"
     inkscape:window-x="0"
     inkscape:window-y="0"
     inkscape:window-maximized="1"
     inkscape:current-layer="svg23"
     inkscape:document-rotation="0"
     inkscape:showpageshadow="2"
     inkscape:pagecheckerboard="0"
     inkscape:deskcolor="#d1d1d1" />
  <linearGradient
     id="a"
     gradientUnits="userSpaceOnUse"
     x2="0"
     y1="29"
     y2="8">
    <stop
       offset="0"
       stop-color="#3daee9"
       id="stop2" />
    <stop
       offset="1"
       stop-color="#6cc1ef"
       id="stop4" />
  </linearGradient>
  <path
     style="fill:url(#linearGradient862);fill-opacity:1;stroke-width:0.080209"
     d="m 15.998758,6.4488071 c -0.372166,0 -0.811431,-0.247184 -0.978274,-0.546547 l -0.748372,-1.345316 c -0.166039,-0.29934 -0.606657,-0.543661 -0.97864,-0.544218 L 5.05869,4.0000061 c -1.215496,-0.0019 -1.577526,0.443279 -1.577209,1.424517 l 1.35e-4,0.413513 v 1.216962 L 3.481481,23.102015 c -4e-6,0.437758 0.97463,1.4694 1.444445,1.4694 h 22.148148 c 0.481482,0 1.444445,-0.9796 1.444445,-1.4694 V 7.9182151 c 0,-0.979597 -0.481482,-1.469396 -1.420838,-1.469396 z"
     id="path4-3-2"
     sodipodi:nodetypes="sccsssccscsssss" />
  <path
     style="fill:#434c5e;fill-opacity:1;stroke-width:0.0824549"
     d="m 26.592593,12.522338 c 0,0.700407 -0.328544,1.273464 -1.080146,1.273464 H 6.446801 c -0.751588,0 -1.039394,-0.573057 -1.039394,-1.273464 V 8.8978021 c 0,-0.979599 0.481482,-1.469399 1.444445,-1.469399 h 18.296296 c 0.962963,0 1.444445,0.4898 1.444445,1.469399 z"
     id="path8-6-9"
     sodipodi:nodetypes="sssssssss" />
  <path
     style="fill:url(#linearGradient844-5);fill-opacity:1;stroke-width:0.0927333"
     d="M 26.111111,9.3876041 H 5.888889 C 3.962963,9.3876041 3,10.367204 3,12.326401 V 25.551 c 0,1.4694 0.962963,2.448999 2.407407,2.448999 H 26.592593 C 28.037037,27.999999 29,27.0204 29,25.551 V 12.326401 C 29,10.367204 28.037037,9.3876041 26.111111,9.3876041 Z"
     id="path10-1"
     sodipodi:nodetypes="sssssssss" />
  <path
     d="m 17.251851,14.775584 h -0.962963 l -4.814814,9.795998 h 0.962964 z m -0.962963,9.306197 h 4.814815 v 0.489801 h -4.814815 z"
     id="path17-3-6-3-4"
     style="fill:#434c5e;fill-opacity:1;stroke-width:0.485622" />
</svg>
