<?xml version="1.0" encoding="UTF-8" standalone="no"?>
<svg
   width="32"
   version="1.1"
   height="32"
   viewBox="0 0 32 32"
   id="svg15"
   sodipodi:docname="folder-presentation.svg"
   inkscape:version="1.2.1 (9c6d41e410, 2022-07-14)"
   xmlns:inkscape="http://www.inkscape.org/namespaces/inkscape"
   xmlns:sodipodi="http://sodipodi.sourceforge.net/DTD/sodipodi-0.dtd"
   xmlns:xlink="http://www.w3.org/1999/xlink"
   xmlns="http://www.w3.org/2000/svg"
   xmlns:svg="http://www.w3.org/2000/svg"
   xmlns:rdf="http://www.w3.org/1999/02/22-rdf-syntax-ns#"
   xmlns:cc="http://creativecommons.org/ns#"
   xmlns:dc="http://purl.org/dc/elements/1.1/">
  <sodipodi:namedview
     pagecolor="#ffffff"
     bordercolor="#666666"
     borderopacity="1"
     objecttolerance="10"
     gridtolerance="10"
     guidetolerance="10"
     inkscape:pageopacity="0"
     inkscape:pageshadow="2"
     inkscape:window-width="1920"
     inkscape:window-height="1002"
     id="namedview17"
     showgrid="true"
     inkscape:zoom="9.8125003"
     inkscape:cx="17.681528"
     inkscape:cy="11.363057"
     inkscape:window-x="0"
     inkscape:window-y="0"
     inkscape:window-maximized="1"
     inkscape:current-layer="layer1"
     inkscape:document-rotation="0"
     inkscape:showpageshadow="2"
     inkscape:pagecheckerboard="0"
     inkscape:deskcolor="#d1d1d1">
    <inkscape:grid
       type="xygrid"
       id="grid1205" />
  </sodipodi:namedview>
  <defs
     id="defs5455">
    <linearGradient
       inkscape:collect="always"
       id="linearGradient860">
      <stop
         style="stop-color:#8fbcbb;stop-opacity:1;"
         offset="0"
         id="stop856" />
      <stop
         style="stop-color:#a3be8c;stop-opacity:1;"
         offset="1"
         id="stop858" />
    </linearGradient>
    <linearGradient
       inkscape:collect="always"
       id="linearGradient842">
      <stop
         style="stop-color:#5e81ac;stop-opacity:1;"
         offset="0"
         id="stop838" />
      <stop
         style="stop-color:#88c0d0;stop-opacity:1;"
         offset="1"
         id="stop840" />
    </linearGradient>
    <linearGradient
       inkscape:collect="always"
       xlink:href="#linearGradient860"
       id="linearGradient862-3"
       x1="113.94583"
       y1="366.97165"
       x2="406.08234"
       y2="159.71205"
       gradientUnits="userSpaceOnUse"
       gradientTransform="matrix(0.08570321,0,0,0.08743938,378.28738,508.28163)" />
    <linearGradient
       inkscape:collect="always"
       xlink:href="#linearGradient842"
       id="linearGradient844-5"
       x1="386.3063"
       y1="539.79773"
       x2="447.95114"
       y2="504.71896"
       gradientUnits="userSpaceOnUse"
       gradientTransform="matrix(0.42958153,0,0,0.53058974,221.62137,257.38686)" />
  </defs>
  <metadata
     id="metadata5458">
    <rdf:RDF>
      <cc:Work
         rdf:about="">
        <dc:format>image/svg+xml</dc:format>
        <dc:type
           rdf:resource="http://purl.org/dc/dcmitype/StillImage" />
      </cc:Work>
    </rdf:RDF>
  </metadata>
  <g
     inkscape:label="Capa 1"
     inkscape:groupmode="layer"
     id="layer1"
     transform="translate(-384.57143,-515.798)">
    <path
       style="fill:url(#linearGradient862-3);fill-opacity:1;stroke-width:0.080209"
       d="m 400.57019,522.24682 c -0.37217,0 -0.81143,-0.24718 -0.97828,-0.54656 l -0.74837,-1.34531 c -0.16604,-0.29936 -0.60665,-0.54365 -0.97864,-0.54424 l -8.23478,-0.0127 c -1.2155,-0.002 -1.57753,0.44329 -1.57721,1.42451 l 1.4e-4,0.41352 v 1.21698 l -1.4e-4,16.04705 c 0,0.43777 0.97463,1.4694 1.44445,1.4694 h 22.14814 c 0.48149,0 1.44445,-0.97959 1.44445,-1.4694 v -15.18384 c 0,-0.97959 -0.48148,-1.46939 -1.42084,-1.46939 z"
       id="path4-3-6"
       sodipodi:nodetypes="sccsssccscsssss" />
    <path
       style="fill:#434c5e;fill-opacity:1;stroke-width:0.082455"
       d="m 411.16402,528.32036 c 0,0.70043 -0.32854,1.27348 -1.08014,1.27348 h -19.06565 c -0.75159,0 -1.03939,-0.57305 -1.03939,-1.27348 v -3.62452 c 0,-0.97963 0.48148,-1.46942 1.44444,-1.46942 h 18.2963 c 0.96296,0 1.44444,0.48979 1.44444,1.46942 z"
       id="path8-6-2"
       sodipodi:nodetypes="sssssssss" />
    <path
       style="fill:url(#linearGradient844-5);fill-opacity:1;stroke-width:0.0927335"
       d="m 410.68254,525.18563 h -20.22222 c -1.92593,0 -2.88889,0.97959 -2.88889,2.93881 v 13.22462 c 0,1.46941 0.96296,2.44899 2.40741,2.44899 h 21.18518 c 1.44445,0 2.40741,-0.97958 2.40741,-2.44899 v -13.22462 c 0,-1.95922 -0.96296,-2.93881 -2.88889,-2.93881 z"
       id="path10-9"
       sodipodi:nodetypes="sssssssss" />
    <path
       fill-rule="evenodd"
       clip-rule="evenodd"
       d="m 404.38217,540.36963 h -5.15909 c -0.18968,0 -0.3436,-0.15698 -0.3436,-0.34983 0,-0.19341 0.15392,-0.35003 0.3436,-0.35003 h 5.15909 c 0.37981,0 0.6878,-0.3133 0.6878,-0.69974 v -6.99716 c 0,-0.38641 -0.30799,-0.69953 -0.6878,-0.69953 h -6.87848 c -0.3798,0 -0.68795,0.31312 -0.68795,0.69953 v 6.6473 c 0,0.1934 -0.1538,0.34987 -0.34392,0.34987 -0.18975,0 -0.34398,-0.15647 -0.34398,-0.34987 v -6.6473 c 0,-0.77285 0.61622,-1.39925 1.37585,-1.39925 h 6.87848 c 0.75954,0 1.3753,0.6264 1.3753,1.39925 v 6.99716 c 0,0.77282 -0.61576,1.3996 -1.3753,1.3996 z m -6.5345,-0.69986 c 0.18967,0 0.3439,0.15662 0.3439,0.35003 0,0.19285 -0.15423,0.34983 -0.3439,0.34983 -0.19008,0 -0.34398,-0.15698 -0.34398,-0.34983 0,-0.19341 0.1539,-0.35003 0.34398,-0.35003 z"
       id="path2-7"
       style="fill:#434c5e;fill-opacity:1;stroke-width:0.0216793" />
    <path
       fill-rule="evenodd"
       clip-rule="evenodd"
       d="m 403.3685,536.92466 c -0.0886,0 -0.1605,-0.073 -0.1605,-0.16326 v -2.61227 c 0,-0.0902 -0.0718,-0.16328 -0.16046,-0.16328 h -0.32102 c -0.0886,0 -0.16046,0.0731 -0.16046,0.16328 v 3.34697 c 0,0.22546 -0.17963,0.40815 -0.40126,0.40815 h -0.1605 c -0.22161,0 -0.4012,-0.18269 -0.4012,-0.40815 v -1.71432 c 0,-0.0903 -0.0719,-0.16326 -0.16053,-0.16326 h -0.32095 c -0.0886,0 -0.16053,0.0731 -0.16053,0.16326 v 1.71432 c 0,0.22546 -0.17959,0.40815 -0.40123,0.40815 h -0.16046 c -0.22164,0 -0.40127,-0.18269 -0.40127,-0.40815 v -1.06125 c 0,-0.0904 -0.0718,-0.16324 -0.1605,-0.16324 h -0.32098 c -0.0886,0 -0.1605,0.073 -0.1605,0.16324 v 1.14288 c 0,0.18032 -0.14373,0.32652 -0.32098,0.32652 -0.35452,0 -0.64198,-0.2924 -0.64198,-0.65305 v -2.93881 -1.14289 c 0,-0.0903 0.0719,-0.16326 0.1605,-0.16326 0.0886,0 0.16052,0.0731 0.16052,0.16326 v 0.57793 0.56496 2.93881 c 0,0.18031 0.12362,0.32652 0.24074,0.32652 0.0444,0 0.0802,-0.0366 0.0802,-0.0814 v -1.14287 c 0,-0.22544 0.17963,-0.40817 0.40126,-0.40817 h 0.48149 c 0.2216,0 0.40119,0.18273 0.40119,0.40817 v 1.06123 c 0,0.0902 0.0719,0.16326 0.1605,0.16326 0.0886,0 0.16053,-0.0731 0.16053,-0.16326 v -1.71431 c 0,-0.22547 0.17959,-0.40816 0.4012,-0.40816 h 0.48148 c 0.22164,0 0.40124,0.18269 0.40124,0.40816 v 1.71431 c 0,0.0902 0.0719,0.16326 0.16052,0.16326 0.0886,0 0.16046,-0.0731 0.16046,-0.16326 v -3.34697 c 0,-0.22548 0.17963,-0.40816 0.40124,-0.40816 h 0.48148 c 0.22164,0 0.40127,0.18268 0.40127,0.40816 v 2.69391 c 0,0.0903 -0.0719,0.16326 -0.16053,0.16326 z m 0,0.32654 c 0.0886,0 0.16053,0.073 0.16053,0.16326 0,0.0902 -0.0719,0.16327 -0.16053,0.16327 -0.0886,0 -0.1605,-0.0731 -0.1605,-0.16327 0,-0.0904 0.0719,-0.16326 0.1605,-0.16326 z"
       id="path2-3-3-5"
       style="fill:#434c5e;fill-opacity:1;stroke-width:0.0101172" />
  </g>
</svg>
