<?xml version="1.0" encoding="UTF-8" standalone="no"?>
<svg
   width="32"
   version="1.1"
   height="32"
   viewBox="0 0 32 32"
   id="svg15"
   sodipodi:docname="folder-KDE.svg"
   inkscape:version="1.2.1 (9c6d41e410, 2022-07-14)"
   xmlns:inkscape="http://www.inkscape.org/namespaces/inkscape"
   xmlns:sodipodi="http://sodipodi.sourceforge.net/DTD/sodipodi-0.dtd"
   xmlns:xlink="http://www.w3.org/1999/xlink"
   xmlns="http://www.w3.org/2000/svg"
   xmlns:svg="http://www.w3.org/2000/svg"
   xmlns:rdf="http://www.w3.org/1999/02/22-rdf-syntax-ns#"
   xmlns:cc="http://creativecommons.org/ns#"
   xmlns:dc="http://purl.org/dc/elements/1.1/">
  <sodipodi:namedview
     pagecolor="#ffffff"
     bordercolor="#666666"
     borderopacity="1"
     objecttolerance="10"
     gridtolerance="10"
     guidetolerance="10"
     inkscape:pageopacity="0"
     inkscape:pageshadow="2"
     inkscape:window-width="1920"
     inkscape:window-height="1002"
     id="namedview17"
     showgrid="false"
     inkscape:zoom="9.8125"
     inkscape:cx="-13.095541"
     inkscape:cy="6.4713376"
     inkscape:window-x="0"
     inkscape:window-y="0"
     inkscape:window-maximized="1"
     inkscape:current-layer="layer1"
     inkscape:document-rotation="0"
     inkscape:showpageshadow="2"
     inkscape:pagecheckerboard="0"
     inkscape:deskcolor="#d1d1d1" />
  <defs
     id="defs5455">
    <linearGradient
       inkscape:collect="always"
       xlink:href="#linearGradient860-3"
       id="linearGradient862"
       x1="113.94583"
       y1="366.97165"
       x2="406.08234"
       y2="159.71205"
       gradientUnits="userSpaceOnUse"
       gradientTransform="matrix(0.08570321,0,0,0.08743939,378.28739,508.28165)" />
    <linearGradient
       inkscape:collect="always"
       id="linearGradient860-3">
      <stop
         style="stop-color:#8fbcbb;stop-opacity:1;"
         offset="0"
         id="stop856-6" />
      <stop
         style="stop-color:#a3be8c;stop-opacity:1;"
         offset="1"
         id="stop858-7" />
    </linearGradient>
    <linearGradient
       inkscape:collect="always"
       xlink:href="#linearGradient842-5"
       id="linearGradient844"
       x1="386.3063"
       y1="539.79773"
       x2="447.95114"
       y2="504.71896"
       gradientUnits="userSpaceOnUse"
       gradientTransform="matrix(0.42958153,0,0,0.53058974,221.62138,257.38688)" />
    <linearGradient
       inkscape:collect="always"
       id="linearGradient842-5">
      <stop
         style="stop-color:#5e81ac;stop-opacity:1;"
         offset="0"
         id="stop838-3" />
      <stop
         style="stop-color:#88c0d0;stop-opacity:1;"
         offset="1"
         id="stop840-5" />
    </linearGradient>
  </defs>
  <metadata
     id="metadata5458">
    <rdf:RDF>
      <cc:Work
         rdf:about="">
        <dc:format>image/svg+xml</dc:format>
        <dc:type
           rdf:resource="http://purl.org/dc/dcmitype/StillImage" />
      </cc:Work>
    </rdf:RDF>
  </metadata>
  <g
     inkscape:label="Capa 1"
     inkscape:groupmode="layer"
     id="layer1"
     transform="translate(-384.57143,-515.798)">
    <path
       style="fill:url(#linearGradient862);fill-opacity:1;stroke-width:0.080209"
       d="m 400.57019,522.24682 c -0.37217,0 -0.81143,-0.24718 -0.97828,-0.54656 l -0.74837,-1.34531 c -0.16604,-0.29936 -0.60665,-0.54364 -0.97864,-0.54424 l -8.23478,-0.0127 c -1.2155,-0.002 -1.57753,0.44329 -1.57721,1.42451 l 1.4e-4,0.41352 v 1.21698 l -1.4e-4,16.04705 c 0,0.43777 0.97463,1.4694 1.44445,1.4694 h 22.14814 c 0.48149,0 1.44445,-0.97959 1.44445,-1.4694 v -15.18381 c 0,-0.97959 -0.48148,-1.46939 -1.42084,-1.46939 z"
       id="path4-3"
       sodipodi:nodetypes="sccsssccscsssss" />
    <path
       style="fill:#434c5e;fill-opacity:1;stroke-width:0.082455"
       d="m 411.16402,528.32036 c 0,0.70043 -0.32854,1.27348 -1.08014,1.27348 h -19.06565 c -0.75159,0 -1.03939,-0.57305 -1.03939,-1.27348 v -3.62452 c 0,-0.97963 0.48148,-1.46942 1.44444,-1.46942 h 18.2963 c 0.96296,0 1.44444,0.48979 1.44444,1.46942 z"
       id="path8-6"
       sodipodi:nodetypes="sssssssss" />
    <path
       style="fill:url(#linearGradient844);fill-opacity:1;stroke-width:0.0927335"
       d="m 410.68254,525.18563 h -20.22222 c -1.92593,0 -2.88889,0.97959 -2.88889,2.93881 v 13.22462 c 0,1.46941 0.96296,2.44899 2.40741,2.44899 h 21.18518 c 1.44445,0 2.40741,-0.97958 2.40741,-2.44899 v -13.22462 c 0,-1.95922 -0.96296,-2.93881 -2.88889,-2.93881 z"
       id="path10"
       sodipodi:nodetypes="sssssssss" />
    <path
       style="color:#d3dae3;fill:#434c5e;fill-opacity:1;stroke-width:0.463661"
       d="m 401.76805,530.57362 -1.84338,0.28246 v 6.74961 l 1.84338,-0.50112 v -2.60764 l 1.84335,3.07413 1.84336,-0.69973 -2.30419,-2.79898 2.30509,-3.03133 -1.78846,-0.46739 -1.89915,3.05956 z m -3.75334,1.83043 c -0.0436,0 -0.0872,0.0172 -0.12061,0.051 l -0.72458,0.73347 c -0.0668,0.0677 -0.0507,0.16435 0,0.2451 l 0.74979,1.19174 c -0.0556,0.11675 -0.10365,0.23694 -0.14402,0.35991 -0.002,0.005 -0.005,0.01 -0.006,0.0154 l -1.36003,0.30611 c -0.0923,0.0209 -0.171,0.0773 -0.171,0.17317 v 0.45828 0.4583 c 0,0.0957 0.0787,0.15232 0.171,0.17309 l 1.36003,0.30614 c 0.003,0.009 0.008,0.0174 0.0108,0.0262 0.0393,0.11947 0.0859,0.23633 0.13952,0.3499 l -0.74979,1.19084 c -0.0507,0.0806 -0.0668,0.17742 0,0.24508 l 0.72459,0.73347 c 0.0669,0.0677 0.17435,0.0677 0.2412,0 l 1.17552,-0.75805 c 0.11554,0.0567 0.2346,0.10619 0.35641,0.14756 0.008,0.003 0.0153,0.007 0.0235,0.01 l 0.30153,1.37583 c 0,0.0957 0.0765,0.17312 0.17102,0.17312 h 1.02337 c 0.0946,0 0.15052,-0.0796 0.17104,-0.17312 l 0.30151,-1.41772 c 0.13854,-0.0526 0.27301,-0.11575 0.40233,-0.18863 l 1.14761,0.83097 c 0.0669,0.0677 0.17436,0.0677 0.24121,0 l 0.72457,-0.73345 c 0.0669,-0.0677 0.0508,-0.16435 0,-0.24509 l -0.43653,-0.67058 -0.0458,0.0173 c -0.10382,0.0396 -0.22065,-9.9e-4 -0.27813,-0.0974 l -0.45903,-0.76532 c -0.38247,0.92606 -1.28573,1.57713 -2.33931,1.57713 -1.39983,0 -2.53462,-1.14873 -2.53462,-2.56571 0,-1.08738 0.6695,-2.01452 1.61293,-2.38808 v -0.51116 l -0.004,0.0164 c -0.0102,0.003 -0.0195,0.009 -0.0297,0.0129 -0.1202,0.0406 -0.23773,0.0887 -0.35191,0.14396 l -1.17374,-0.75716 c -0.0336,-0.0339 -0.077,-0.0509 -0.1206,-0.0509 z"
       class="ColorScheme-Text"
       id="path10-7-6-7" />
  </g>
</svg>
