<?xml version="1.0" encoding="UTF-8" standalone="no"?>
<svg
   width="32"
   version="1.1"
   height="32"
   viewBox="0 0 32 32"
   id="svg2"
   inkscape:version="1.2.1 (9c6d41e410, 2022-07-14)"
   sodipodi:docname="favorites.svg"
   xmlns:inkscape="http://www.inkscape.org/namespaces/inkscape"
   xmlns:sodipodi="http://sodipodi.sourceforge.net/DTD/sodipodi-0.dtd"
   xmlns:xlink="http://www.w3.org/1999/xlink"
   xmlns="http://www.w3.org/2000/svg"
   xmlns:svg="http://www.w3.org/2000/svg"
   xmlns:rdf="http://www.w3.org/1999/02/22-rdf-syntax-ns#"
   xmlns:cc="http://creativecommons.org/ns#"
   xmlns:dc="http://purl.org/dc/elements/1.1/">
  <sodipodi:namedview
     pagecolor="#ffffff"
     bordercolor="#666666"
     borderopacity="1"
     objecttolerance="10"
     gridtolerance="10"
     guidetolerance="10"
     inkscape:pageopacity="0"
     inkscape:pageshadow="2"
     inkscape:window-width="1920"
     inkscape:window-height="1002"
     id="namedview19"
     showgrid="true"
     inkscape:zoom="10.429825"
     inkscape:cx="10.498738"
     inkscape:cy="8.772918"
     inkscape:window-x="0"
     inkscape:window-y="0"
     inkscape:window-maximized="1"
     inkscape:current-layer="layer1"
     inkscape:document-rotation="0"
     inkscape:showpageshadow="2"
     inkscape:pagecheckerboard="0"
     inkscape:deskcolor="#d1d1d1">
    <inkscape:grid
       type="xygrid"
       id="grid1449" />
  </sodipodi:namedview>
  <defs
     id="defs5455">
    <linearGradient
       inkscape:collect="always"
       xlink:href="#linearGradient860-6"
       id="linearGradient862-3"
       x1="113.94583"
       y1="366.97165"
       x2="406.08234"
       y2="159.71205"
       gradientUnits="userSpaceOnUse"
       gradientTransform="matrix(0.08570321,0,0,0.08743939,378.28739,508.28166)" />
    <linearGradient
       inkscape:collect="always"
       id="linearGradient860-6">
      <stop
         style="stop-color:#8fbcbb;stop-opacity:1;"
         offset="0"
         id="stop856-7" />
      <stop
         style="stop-color:#a3be8c;stop-opacity:1;"
         offset="1"
         id="stop858-5" />
    </linearGradient>
    <linearGradient
       inkscape:collect="always"
       xlink:href="#linearGradient842"
       id="linearGradient844-3"
       x1="386.3063"
       y1="539.79773"
       x2="447.95114"
       y2="504.71896"
       gradientUnits="userSpaceOnUse"
       gradientTransform="matrix(0.42958153,0,0,0.53058974,221.62138,257.38689)" />
    <linearGradient
       inkscape:collect="always"
       id="linearGradient842">
      <stop
         style="stop-color:#5e81ac;stop-opacity:1;"
         offset="0"
         id="stop838" />
      <stop
         style="stop-color:#88c0d0;stop-opacity:1;"
         offset="1"
         id="stop840" />
    </linearGradient>
  </defs>
  <metadata
     id="metadata5458">
    <rdf:RDF>
      <cc:Work
         rdf:about="">
        <dc:format>image/svg+xml</dc:format>
        <dc:type
           rdf:resource="http://purl.org/dc/dcmitype/StillImage" />
      </cc:Work>
    </rdf:RDF>
  </metadata>
  <g
     inkscape:label="Capa 1"
     inkscape:groupmode="layer"
     id="layer1"
     transform="translate(-384.57143,-515.798)">
    <path
       style="fill:url(#linearGradient862-3);fill-opacity:1;stroke-width:0.080209"
       d="m 400.57019,522.24682 c -0.37217,0 -0.81143,-0.24718 -0.97828,-0.54656 l -0.74837,-1.34531 c -0.16604,-0.29936 -0.60665,-0.54364 -0.97864,-0.54424 l -8.23478,-0.0127 c -1.2155,-0.002 -1.57753,0.44329 -1.57721,1.42451 l 1.4e-4,0.41352 v 1.21698 l -1.4e-4,16.04705 c 0,0.43777 0.97463,1.4694 1.44445,1.4694 h 22.14814 c 0.48149,0 1.44445,-0.97959 1.44445,-1.4694 v -15.18384 c 0,-0.97959 -0.48148,-1.46939 -1.42084,-1.46939 z"
       id="path4-3-5"
       sodipodi:nodetypes="sccsssccscsssss" />
    <path
       style="fill:#434c5e;fill-opacity:1;stroke-width:0.082455"
       d="m 411.16402,528.32036 c 0,0.70043 -0.32854,1.27348 -1.08014,1.27348 h -19.06565 c -0.75159,0 -1.03939,-0.57305 -1.03939,-1.27348 v -3.62452 c 0,-0.97963 0.48148,-1.46942 1.44444,-1.46942 h 18.2963 c 0.96296,0 1.44444,0.48979 1.44444,1.46942 z"
       id="path8-6-6"
       sodipodi:nodetypes="sssssssss" />
    <path
       style="fill:url(#linearGradient844-3);fill-opacity:1;stroke-width:0.0927335"
       d="m 410.68254,525.18563 h -20.22222 c -1.92593,0 -2.88889,0.97959 -2.88889,2.93881 v 13.22462 c 0,1.46941 0.96296,2.44899 2.40741,2.44899 h 21.18518 c 1.44445,0 2.40741,-0.97958 2.40741,-2.44899 v -13.22462 c 0,-1.95922 -0.96296,-2.93881 -2.88889,-2.93881 z"
       id="path10-2"
       sodipodi:nodetypes="sssssssss" />
    <path
       d="m 403.23076,540.36957 a 1.5891016,1.6165608 0 0 1 -0.92785,-0.36053 l -1.53901,-0.98579 -1.53902,0.98579 c -0.75815,0.5604 -1.27668,0.34507 -1.51918,0.16596 -0.24251,-0.17909 -0.60329,-0.6135 -0.31513,-1.51858 l 0.43782,-1.85894 -1.39533,-1.14631 c -0.76084,-0.56099 -0.71981,-1.1302 -0.62716,-1.42039 0.0926,-0.29021 0.38774,-0.77401 1.32483,-0.77401 v 0 l 1.82467,-0.12325 0.67513,-1.71708 c 0.28989,-0.90684 0.83384,-1.04282 1.13337,-1.04282 0.29952,0 0.84347,0.13598 1.13298,1.04263 l 0.67513,1.71708 1.82467,0.12324 v 0 c 0.93709,0 1.23276,0.4844 1.32483,0.77402 0.0921,0.28958 0.13349,0.85823 -0.62485,1.41842 l -1.40054,1.18726 0.11693,0.50554 a 0.38526689,0.39192419 0 0 1 -0.75006,0.17949 l -0.17143,-0.74124 a 0.38523674,0.39189352 0 0 1 0.12848,-0.39092 l 1.59373,-1.35108 c 0.007,-0.006 0.0144,-0.012 0.0218,-0.0174 0.19531,-0.14285 0.41528,-0.35367 0.35306,-0.54867 -0.0622,-0.19496 -0.35268,-0.23297 -0.6025,-0.2326 -0.008,0 -0.0183,0 -0.0275,0 l -2.06699,-0.13888 a 0.39794955,0.404826 0 0 1 -0.34441,-0.24574 l -0.77047,-1.95947 q -0.005,-0.0131 -0.009,-0.0264 c -0.0732,-0.23375 -0.20264,-0.51162 -0.40354,-0.51162 -0.2009,0 -0.33034,0.27787 -0.40354,0.51103 q -0.004,0.0135 -0.009,0.0264 l -0.77047,1.95948 a 0.38523674,0.39189352 0 0 1 -0.3577,0.24631 l -2.05427,0.13888 c -0.009,0 -0.0177,0 -0.0275,0 -0.24598,-9.5e-4 -0.54049,0.0383 -0.60251,0.2326 -0.062,0.1946 0.15776,0.40542 0.35307,0.54867 0.006,0.004 0.0115,0.009 0.0171,0.0134 l 1.59276,1.30852 a 0.38523674,0.39189352 0 0 1 0.13252,0.39621 l -0.49772,2.11544 c -0.002,0.0106 -0.005,0.0214 -0.009,0.0316 -0.0755,0.23236 -0.13156,0.53453 0.031,0.65463 0.16257,0.12011 0.42781,-0.0272 0.62177,-0.17202 0.008,-0.005 0.015,-0.0106 0.0227,-0.016 l 1.75552,-1.12454 a 0.38523674,0.39189352 0 0 1 0.41067,0 l 1.75552,1.12376 c 0.008,0.005 0.0154,0.01 0.0227,0.016 0.19377,0.14482 0.45862,0.29217 0.62177,0.17206 0.16315,-0.12012 0.10651,-0.42227 0.031,-0.65467 a 0.38545284,0.39211334 0 1 1 0.73196,-0.24609 c 0.29778,0.91623 -0.0663,1.35495 -0.30974,1.53483 a 0.99718532,1.0144164 0 0 1 -0.59172,0.19555 z"
       id="path4-5"
       style="fill:#434c5e;fill-opacity:1;stroke-width:0.194276" />
  </g>
</svg>
