<?xml version="1.0" encoding="UTF-8" standalone="no"?>
<svg
   width="32"
   version="1.1"
   height="32"
   viewBox="0 0 32 32"
   id="svg15"
   sodipodi:docname="folder-orange.svg"
   inkscape:version="1.2.1 (9c6d41e410, 2022-07-14)"
   xmlns:inkscape="http://www.inkscape.org/namespaces/inkscape"
   xmlns:sodipodi="http://sodipodi.sourceforge.net/DTD/sodipodi-0.dtd"
   xmlns="http://www.w3.org/2000/svg"
   xmlns:svg="http://www.w3.org/2000/svg"
   xmlns:rdf="http://www.w3.org/1999/02/22-rdf-syntax-ns#"
   xmlns:cc="http://creativecommons.org/ns#"
   xmlns:dc="http://purl.org/dc/elements/1.1/">
  <sodipodi:namedview
     pagecolor="#ffffff"
     bordercolor="#666666"
     borderopacity="1"
     objecttolerance="10"
     gridtolerance="10"
     guidetolerance="10"
     inkscape:pageopacity="0"
     inkscape:pageshadow="2"
     inkscape:window-width="1920"
     inkscape:window-height="1002"
     id="namedview17"
     showgrid="false"
     inkscape:zoom="9.8125"
     inkscape:cx="-10.853503"
     inkscape:cy="9.8343949"
     inkscape:window-x="0"
     inkscape:window-y="0"
     inkscape:window-maximized="1"
     inkscape:current-layer="layer1"
     inkscape:document-rotation="0"
     inkscape:showpageshadow="2"
     inkscape:pagecheckerboard="0"
     inkscape:deskcolor="#d1d1d1" />
  <defs
     id="defs5455">
    <linearGradient
       id="linearGradient4172-0">
      <stop
         style="stop-color:#f89406"
         id="stop4174-4" />
      <stop
         offset="1"
         style="stop-color:#faa938"
         id="stop4176-5" />
    </linearGradient>
  </defs>
  <metadata
     id="metadata5458">
    <rdf:RDF>
      <cc:Work
         rdf:about="">
        <dc:format>image/svg+xml</dc:format>
        <dc:type
           rdf:resource="http://purl.org/dc/dcmitype/StillImage" />
      </cc:Work>
    </rdf:RDF>
  </metadata>
  <g
     inkscape:label="Capa 1"
     inkscape:groupmode="layer"
     id="layer1"
     transform="translate(-384.57143,-515.798)">
    <path
       style="fill:#88c0d0;fill-opacity:1;stroke-width:0.0802092"
       d="m 400.57019,522.24679 c -0.37217,0 -0.81143,-0.24719 -0.97828,-0.54655 l -0.74837,-1.34532 c -0.16604,-0.29933 -0.60665,-0.54365 -0.97864,-0.54421 l -8.23478,-0.0127 c -1.2155,-0.002 -1.57753,0.44328 -1.57721,1.42452 l 1.4e-4,0.41351 v 1.21696 l -1.4e-4,16.04701 c 0,0.43776 0.97463,1.4694 1.44445,1.4694 h 22.14814 c 0.48149,0 1.44445,-0.9796 1.44445,-1.4694 v -15.18379 c 0,-0.9796 -0.48148,-1.46939 -1.42084,-1.46939 z"
       id="path4-3-8"
       sodipodi:nodetypes="sccsssccscsssss" />
    <path
       style="fill:#434c5e;fill-opacity:1;stroke-width:0.082455"
       d="m 411.16402,528.32031 c 0,0.70041 -0.32854,1.27347 -1.08014,1.27347 h -19.06565 c -0.75159,0 -1.03939,-0.57306 -1.03939,-1.27347 v -3.62453 c 0,-0.9796 0.48148,-1.4694 1.44444,-1.4694 h 18.2963 c 0.96296,0 1.44444,0.4898 1.44444,1.4694 z"
       id="path8-6-4"
       sodipodi:nodetypes="sssssssss" />
    <path
       style="fill:#d08770;fill-opacity:1;stroke-width:0.0927338"
       d="m 410.68254,525.18558 h -20.22222 c -1.92593,0 -2.88889,0.9796 -2.88889,2.9388 v 13.22459 c 0,1.4694 0.96296,2.449 2.40741,2.449 h 21.18518 c 1.44445,0 2.40741,-0.9796 2.40741,-2.449 v -13.22459 c 0,-1.9592 -0.96296,-2.9388 -2.88889,-2.9388 z"
       id="path10-8"
       sodipodi:nodetypes="sssssssss" />
  </g>
</svg>
