<?xml version="1.0" encoding="UTF-8" standalone="no"?>
<svg
   width="32"
   version="1.1"
   height="32"
   viewBox="0 0 32 32"
   id="svg15"
   sodipodi:docname="folder-comic.svg"
   inkscape:version="1.2.1 (9c6d41e410, 2022-07-14)"
   xmlns:inkscape="http://www.inkscape.org/namespaces/inkscape"
   xmlns:sodipodi="http://sodipodi.sourceforge.net/DTD/sodipodi-0.dtd"
   xmlns:xlink="http://www.w3.org/1999/xlink"
   xmlns="http://www.w3.org/2000/svg"
   xmlns:svg="http://www.w3.org/2000/svg"
   xmlns:rdf="http://www.w3.org/1999/02/22-rdf-syntax-ns#"
   xmlns:cc="http://creativecommons.org/ns#"
   xmlns:dc="http://purl.org/dc/elements/1.1/">
  <sodipodi:namedview
     pagecolor="#ffffff"
     bordercolor="#666666"
     borderopacity="1"
     objecttolerance="10"
     gridtolerance="10"
     guidetolerance="10"
     inkscape:pageopacity="0"
     inkscape:pageshadow="2"
     inkscape:window-width="1920"
     inkscape:window-height="1002"
     id="namedview17"
     showgrid="true"
     inkscape:zoom="13.876971"
     inkscape:cx="11.637986"
     inkscape:cy="14.088089"
     inkscape:window-x="0"
     inkscape:window-y="0"
     inkscape:window-maximized="1"
     inkscape:current-layer="layer1"
     inkscape:document-rotation="0"
     inkscape:showpageshadow="2"
     inkscape:pagecheckerboard="0"
     inkscape:deskcolor="#d1d1d1">
    <inkscape:grid
       type="xygrid"
       id="grid1205" />
  </sodipodi:namedview>
  <defs
     id="defs5455">
    <linearGradient
       inkscape:collect="always"
       xlink:href="#linearGradient860"
       id="linearGradient862"
       x1="113.94583"
       y1="366.97165"
       x2="406.08234"
       y2="159.71205"
       gradientUnits="userSpaceOnUse"
       gradientTransform="matrix(0.08570319,0,0,0.08743907,378.28739,508.28172)" />
    <linearGradient
       inkscape:collect="always"
       id="linearGradient860">
      <stop
         style="stop-color:#8fbcbb;stop-opacity:1;"
         offset="0"
         id="stop856" />
      <stop
         style="stop-color:#a3be8c;stop-opacity:1;"
         offset="1"
         id="stop858" />
    </linearGradient>
    <linearGradient
       inkscape:collect="always"
       xlink:href="#linearGradient842"
       id="linearGradient844"
       x1="386.3063"
       y1="539.79773"
       x2="447.95114"
       y2="504.71896"
       gradientUnits="userSpaceOnUse"
       gradientTransform="matrix(0.42958147,0,0,0.5305879,221.62139,257.38782)" />
    <linearGradient
       inkscape:collect="always"
       id="linearGradient842">
      <stop
         style="stop-color:#5e81ac;stop-opacity:1;"
         offset="0"
         id="stop838" />
      <stop
         style="stop-color:#88c0d0;stop-opacity:1;"
         offset="1"
         id="stop840" />
    </linearGradient>
  </defs>
  <metadata
     id="metadata5458">
    <rdf:RDF>
      <cc:Work
         rdf:about="">
        <dc:format>image/svg+xml</dc:format>
        <dc:type
           rdf:resource="http://purl.org/dc/dcmitype/StillImage" />
      </cc:Work>
    </rdf:RDF>
  </metadata>
  <g
     inkscape:label="Capa 1"
     inkscape:groupmode="layer"
     id="layer1"
     transform="translate(-384.57143,-515.798)">
    <path
       style="fill:url(#linearGradient862);fill-opacity:1;stroke-width:0.0802087"
       d="m 400.57017,522.24679 c -0.37214,0 -0.8114,-0.24719 -0.97825,-0.54655 l -0.74836,-1.34532 c -0.16607,-0.29933 -0.60667,-0.54365 -0.97866,-0.54421 l -8.23478,-0.0127 c -1.21549,-0.002 -1.57752,0.44328 -1.57721,1.42452 l 1.4e-4,0.41351 v 1.21696 l -1.4e-4,16.04701 c -10e-6,0.43776 0.97464,1.4694 1.44444,1.4694 h 22.14816 c 0.48149,0 1.44444,-0.9796 1.44444,-1.4694 v -15.18379 c 0,-0.9796 -0.4815,-1.46939 -1.42083,-1.46939 z"
       id="path4-3"
       sodipodi:nodetypes="sccsssccscsssss" />
    <path
       style="fill:#434c5e;fill-opacity:1;stroke-width:0.0824548"
       d="m 411.16403,528.32031 c 0,0.70041 -0.32856,1.27347 -1.08017,1.27347 h -19.06564 c -0.75158,0 -1.03939,-0.57306 -1.03939,-1.27347 v -3.62453 c 0,-0.9796 0.4815,-1.4694 1.44447,-1.4694 h 18.29626 c 0.96297,0 1.44447,0.4898 1.44447,1.4694 z"
       id="path8-6"
       sodipodi:nodetypes="sssssssss" />
    <path
       style="fill:url(#linearGradient844);fill-opacity:1;stroke-width:0.0927335"
       d="m 410.68253,525.18558 h -20.2222 c -1.92592,0 -2.8889,0.9796 -2.8889,2.9388 v 13.22459 c 0,1.4694 0.96298,2.449 2.4074,2.449 h 21.1852 c 1.44442,0 2.4074,-0.9796 2.4074,-2.449 v -13.22459 c 0,-1.9592 -0.96298,-2.9388 -2.8889,-2.9388 z"
       id="path10"
       sodipodi:nodetypes="sssssssss" />
    <path
       fill-rule="evenodd"
       clip-rule="evenodd"
       d="m 406.20784,536.51242 c -0.19722,0 -0.3573,0.15991 -0.3573,0.35677 v 0.17877 c 0,0.49314 -0.39988,0.89287 -0.8927,0.89287 -0.19514,0 -0.37542,-0.0625 -0.52226,-0.16868 -3.2e-4,0 0,0 -3.2e-4,0 l -0.84963,-0.63702 c -0.01,-0.008 -0.018,-0.0135 -0.0278,-0.0212 -0.34319,-0.26055 -0.56447,-0.6731 -0.56447,-1.13752 v -0.71393 c 0,-0.49315 -0.39971,-0.89319 -0.89286,-0.89319 h -4.64266 c -0.49316,0 -0.89319,0.40004 -0.89319,0.89319 v 2.49997 c 0,0.39097 0.25303,0.71939 0.60339,0.84055 0.0138,0.0328 0.0487,0.0522 0.11101,0.0522 0.26445,0 0.71444,0.39955 0.71444,0.89269 v 0.35729 c 0,0.0984 0.0799,0.17842 0.17838,0.17842 0.038,0 0.0727,-0.0117 0.10182,-0.0317 5e-4,0 0,3.3e-4 0,3.3e-4 l 1.50191,-1.12631 c 0.22425,-0.16986 0.50381,-0.2705 0.80723,-0.2705 h 1.3391 c 0.19725,0 0.35718,0.15974 0.35718,0.35712 0,0.19688 -0.15993,0.3568 -0.35718,0.3568 h -1.25007 c -0.20419,0 -0.39278,0.0686 -0.54284,0.18454 l -1.43442,1.07576 h -3e-4 c -0.14701,0.10603 -0.32736,0.16844 -0.52241,0.16844 -0.49316,0 -0.89281,-0.39954 -0.89281,-0.89268 v -0.17894 c 0,-0.19682 -0.15982,-0.35712 -0.35716,-0.35712 -0.0394,0 -0.048,-0.0229 -0.0377,-0.0569 -0.5967,-0.17123 -1.03379,-0.71964 -1.03379,-1.37147 v -2.8571 c 0,-0.7891 0.63938,-1.42842 1.42837,-1.42842 h 5.00007 c 0.7889,0 1.42871,0.63934 1.42871,1.42842 v 0.89263 c 0,0.23422 0.11252,0.44209 0.28639,0.57237 l 0.8616,0.64624 c 4.8e-4,0 -3.4e-4,-3.3e-4 0,-3.3e-4 0.029,0.02 0.0642,0.0315 0.102,0.0315 0.0986,0 0.17843,-0.0798 0.17843,-0.17837 v -0.35712 c 0,-0.49317 0.44989,-0.89287 0.71428,-0.89287 0.3444,0 0.71409,-0.39952 0.71409,-0.89266 v -2.49998 c 0,-0.49332 -0.39949,-0.89285 -0.8927,-0.89285 h -4.64289 c -0.49318,0 -0.89275,0.39953 -0.89275,0.89285 v 0.17842 c 0,0.19722 -0.15982,0.35714 -0.35727,0.35714 -0.1973,0 -0.35713,-0.15992 -0.35713,-0.35714 v -0.35735 c 0,-0.78892 0.63976,-1.42835 1.42876,-1.42835 h 4.99989 c 0.78909,0 1.42855,0.63943 1.42855,1.42835 v 2.85731 c 0,0.78892 -0.56518,1.4287 -1.07126,1.4287 z m -2.85729,1.42841 c 0.19705,0 0.35731,0.15991 0.35731,0.35713 0,0.19737 -0.16026,0.35729 -0.35731,0.35729 -0.19719,0 -0.35714,-0.15992 -0.35714,-0.35729 0,-0.19722 0.15995,-0.35713 0.35714,-0.35713 z"
       id="path1947-1"
       style="fill:#434c5e;fill-opacity:1;stroke-width:0.0223209" />
  </g>
</svg>
