<?xml version="1.0" encoding="UTF-8" standalone="no"?>
<svg
   id="svg2"
   viewBox="0 0 32 32"
   height="32"
   version="1.1"
   width="32"
   sodipodi:docname="folder-unlocked.svg"
   inkscape:version="1.2.1 (9c6d41e410, 2022-07-14)"
   xmlns:inkscape="http://www.inkscape.org/namespaces/inkscape"
   xmlns:sodipodi="http://sodipodi.sourceforge.net/DTD/sodipodi-0.dtd"
   xmlns:xlink="http://www.w3.org/1999/xlink"
   xmlns="http://www.w3.org/2000/svg"
   xmlns:svg="http://www.w3.org/2000/svg"
   xmlns:rdf="http://www.w3.org/1999/02/22-rdf-syntax-ns#"
   xmlns:cc="http://creativecommons.org/ns#"
   xmlns:dc="http://purl.org/dc/elements/1.1/">
  <sodipodi:namedview
     pagecolor="#ffffff"
     bordercolor="#666666"
     borderopacity="1"
     objecttolerance="10"
     gridtolerance="10"
     guidetolerance="10"
     inkscape:pageopacity="0"
     inkscape:pageshadow="2"
     inkscape:window-width="1920"
     inkscape:window-height="1002"
     id="namedview18"
     showgrid="false"
     inkscape:zoom="9.8125"
     inkscape:cx="-11.363057"
     inkscape:cy="6.1656051"
     inkscape:window-x="0"
     inkscape:window-y="0"
     inkscape:window-maximized="1"
     inkscape:current-layer="svg2"
     inkscape:document-rotation="0"
     inkscape:showpageshadow="2"
     inkscape:pagecheckerboard="0"
     inkscape:deskcolor="#d1d1d1" />
  <defs
     id="defs5455">
    <linearGradient
       id="linearGradient4172-5">
      <stop
         id="stop4174-6"
         style="stop-color:#3daee9" />
      <stop
         id="stop4176-6"
         style="stop-color:#6cc1ef"
         offset="1" />
    </linearGradient>
    <linearGradient
       x2="0"
       gradientUnits="userSpaceOnUse"
       y2="8"
       y1="29"
       xlink:href="#linearGradient4172-5"
       id="linearGradient4342" />
    <linearGradient
       inkscape:collect="always"
       xlink:href="#linearGradient860-3"
       id="linearGradient862"
       x1="113.94583"
       y1="366.97165"
       x2="406.08234"
       y2="159.71205"
       gradientUnits="userSpaceOnUse"
       gradientTransform="matrix(0.08570321,0,0,0.08743912,-6.2840409,-7.5162779)" />
    <linearGradient
       inkscape:collect="always"
       id="linearGradient860-3">
      <stop
         style="stop-color:#8fbcbb;stop-opacity:1;"
         offset="0"
         id="stop856-6" />
      <stop
         style="stop-color:#a3be8c;stop-opacity:1;"
         offset="1"
         id="stop858-7" />
    </linearGradient>
    <linearGradient
       inkscape:collect="always"
       xlink:href="#linearGradient842-3"
       id="linearGradient844-5"
       x1="386.3063"
       y1="539.79773"
       x2="447.95114"
       y2="504.71896"
       gradientUnits="userSpaceOnUse"
       gradientTransform="matrix(0.42958153,0,0,0.53058823,-162.95004,-258.41033)" />
    <linearGradient
       inkscape:collect="always"
       id="linearGradient842-3">
      <stop
         style="stop-color:#5e81ac;stop-opacity:1;"
         offset="0"
         id="stop838-5" />
      <stop
         style="stop-color:#88c0d0;stop-opacity:1;"
         offset="1"
         id="stop840-6" />
    </linearGradient>
  </defs>
  <metadata
     id="metadata5458">
    <rdf:RDF>
      <cc:Work
         rdf:about="">
        <dc:format>image/svg+xml</dc:format>
        <dc:type
           rdf:resource="http://purl.org/dc/dcmitype/StillImage" />
      </cc:Work>
    </rdf:RDF>
  </metadata>
  <path
     style="fill:url(#linearGradient862);fill-opacity:1;stroke-width:0.080209"
     d="m 15.998758,6.4488061 c -0.372166,0 -0.811431,-0.247183 -0.978274,-0.546546 l -0.748372,-1.345316 c -0.166039,-0.299339 -0.606657,-0.543661 -0.97864,-0.544218 l -8.2347819,-0.01272 c -1.215496,-0.0019 -1.577526,0.443279 -1.577209,1.424517 l 1.35e-4,0.413512 v 1.216963 l -1.35e-4,16.0470179 c -4e-6,0.437758 0.97463,1.469399 1.444445,1.469399 H 27.074074 c 0.481482,0 1.444445,-0.9796 1.444445,-1.469399 V 7.9182051 c 0,-0.979597 -0.481482,-1.469397 -1.420838,-1.469397 z"
     id="path4-3-2"
     sodipodi:nodetypes="sccsssccscsssss" />
  <path
     style="fill:#434c5e;fill-opacity:1;stroke-width:0.0824549"
     d="m 26.592593,12.522338 c 0,0.700407 -0.328544,1.273465 -1.080146,1.273465 H 6.4468011 c -0.751588,0 -1.039394,-0.573058 -1.039394,-1.273465 V 8.8978031 c 0,-0.9796 0.481482,-1.469399 1.444445,-1.469399 H 25.148148 c 0.962963,0 1.444445,0.489799 1.444445,1.469399 z"
     id="path8-6-9"
     sodipodi:nodetypes="sssssssss" />
  <path
     style="fill:url(#linearGradient844-5);fill-opacity:1;stroke-width:0.0927333"
     d="M 26.111111,9.3876041 H 5.8888891 c -1.925926,0 -2.888889,0.9795989 -2.888889,2.9387969 V 25.551 c 0,1.4694 0.962963,2.448999 2.407407,2.448999 H 26.592593 C 28.037037,27.999999 29,27.0204 29,25.551 V 12.326401 C 29,10.367203 28.037037,9.3876041 26.111111,9.3876041 Z"
     id="path10-1"
     sodipodi:nodetypes="sssssssss" />
  <path
     id="rect4136-3-6-9"
     d="m 16,14.775584 c -1.333704,0 -2.407408,1.092252 -2.407408,2.448997 v 0.4898 h 0.481482 v -0.4898 c 0,-1.187153 0.925653,-1.959198 1.925926,-1.959198 1.000277,0 1.925925,0.772045 1.925925,1.959198 v 2.449001 h -3.851851 -0.481482 -1.444444 v 0.489798 4.4082 h 0.842592 6.018519 0.842592 v -4.897998 h -0.842592 -0.601852 v -2.449001 c 0,-1.356745 -1.073704,-2.448997 -2.407407,-2.448997 z m -3.370371,5.387796 h 6.740741 v 3.9184 h -6.740741 z"
     style="fill:#434c5e;fill-opacity:1;stroke-width:0.485622" />
</svg>
