<?xml version="1.0" encoding="UTF-8" standalone="no"?>
<svg
   width="32"
   version="1.1"
   height="32"
   viewBox="0 0 32 32"
   id="svg15"
   sodipodi:docname="folder-Github.svg"
   inkscape:version="1.2.1 (9c6d41e410, 2022-07-14)"
   xmlns:inkscape="http://www.inkscape.org/namespaces/inkscape"
   xmlns:sodipodi="http://sodipodi.sourceforge.net/DTD/sodipodi-0.dtd"
   xmlns:xlink="http://www.w3.org/1999/xlink"
   xmlns="http://www.w3.org/2000/svg"
   xmlns:svg="http://www.w3.org/2000/svg"
   xmlns:rdf="http://www.w3.org/1999/02/22-rdf-syntax-ns#"
   xmlns:cc="http://creativecommons.org/ns#"
   xmlns:dc="http://purl.org/dc/elements/1.1/">
  <sodipodi:namedview
     pagecolor="#ffffff"
     bordercolor="#666666"
     borderopacity="1"
     objecttolerance="10"
     gridtolerance="10"
     guidetolerance="10"
     inkscape:pageopacity="0"
     inkscape:pageshadow="2"
     inkscape:window-width="1920"
     inkscape:window-height="1002"
     id="namedview17"
     showgrid="false"
     inkscape:zoom="9.8125"
     inkscape:cx="-13.095541"
     inkscape:cy="6.4713376"
     inkscape:window-x="0"
     inkscape:window-y="0"
     inkscape:window-maximized="1"
     inkscape:current-layer="layer1"
     inkscape:document-rotation="0"
     inkscape:showpageshadow="2"
     inkscape:pagecheckerboard="0"
     inkscape:deskcolor="#d1d1d1" />
  <defs
     id="defs5455">
    <linearGradient
       inkscape:collect="always"
       xlink:href="#linearGradient860"
       id="linearGradient862"
       x1="113.94583"
       y1="366.97165"
       x2="406.08234"
       y2="159.71205"
       gradientUnits="userSpaceOnUse"
       gradientTransform="matrix(0.08570321,0,0,0.08743902,378.28739,508.28172)" />
    <linearGradient
       inkscape:collect="always"
       id="linearGradient860">
      <stop
         style="stop-color:#8fbcbb;stop-opacity:1;"
         offset="0"
         id="stop856" />
      <stop
         style="stop-color:#a3be8c;stop-opacity:1;"
         offset="1"
         id="stop858" />
    </linearGradient>
    <linearGradient
       inkscape:collect="always"
       xlink:href="#linearGradient842-6"
       id="linearGradient844-3"
       x1="386.3063"
       y1="539.79773"
       x2="447.95114"
       y2="504.71896"
       gradientUnits="userSpaceOnUse"
       gradientTransform="matrix(0.42958153,0,0,0.53058754,221.62138,257.38797)" />
    <linearGradient
       inkscape:collect="always"
       id="linearGradient842-6">
      <stop
         style="stop-color:#5e81ac;stop-opacity:1;"
         offset="0"
         id="stop838-7" />
      <stop
         style="stop-color:#88c0d0;stop-opacity:1;"
         offset="1"
         id="stop840-5" />
    </linearGradient>
  </defs>
  <metadata
     id="metadata5458">
    <rdf:RDF>
      <cc:Work
         rdf:about="">
        <dc:format>image/svg+xml</dc:format>
        <dc:type
           rdf:resource="http://purl.org/dc/dcmitype/StillImage" />
      </cc:Work>
    </rdf:RDF>
  </metadata>
  <g
     inkscape:label="Capa 1"
     inkscape:groupmode="layer"
     id="layer1"
     transform="translate(-384.57143,-515.798)">
    <path
       style="fill:url(#linearGradient862);fill-opacity:1;stroke-width:0.0802088"
       d="m 400.57019,522.24681 c -0.37217,0 -0.81143,-0.24718 -0.97828,-0.54656 l -0.74837,-1.34531 c -0.16604,-0.29935 -0.60665,-0.54363 -0.97864,-0.54423 l -8.23478,-0.0127 c -1.2155,-0.002 -1.57753,0.44329 -1.57721,1.42451 l 1.4e-4,0.41351 v 1.21697 l -1.4e-4,16.04699 c 0,0.43777 0.97463,1.46939 1.44445,1.46939 h 22.14814 c 0.48149,0 1.44445,-0.97958 1.44445,-1.46939 v -15.18378 c 0,-0.97958 -0.48148,-1.46938 -1.42084,-1.46938 z"
       id="path4-3-3"
       sodipodi:nodetypes="sccsssccscsssss" />
    <path
       style="fill:#434c5e;fill-opacity:1;stroke-width:0.0824548"
       d="m 411.16402,528.32032 c 0,0.70043 -0.32854,1.27348 -1.08014,1.27348 h -19.06565 c -0.75159,0 -1.03939,-0.57305 -1.03939,-1.27348 v -3.6245 c 0,-0.97963 0.48148,-1.46942 1.44444,-1.46942 h 18.2963 c 0.96296,0 1.44444,0.48979 1.44444,1.46942 z"
       id="path8-6-5"
       sodipodi:nodetypes="sssssssss" />
    <path
       style="fill:url(#linearGradient844-3);fill-opacity:1;stroke-width:0.0927333"
       d="m 410.68254,525.18561 h -20.22222 c -1.92593,0 -2.88889,0.97958 -2.88889,2.9388 v 13.22456 c 0,1.4694 0.96296,2.44898 2.40741,2.44898 h 21.18518 c 1.44445,0 2.40741,-0.97958 2.40741,-2.44898 v -13.22456 c 0,-1.95922 -0.96296,-2.9388 -2.88889,-2.9388 z"
       id="path10-6"
       sodipodi:nodetypes="sssssssss" />
    <path
       d="m 400.7807,530.57357 c -2.77581,0 -5.02408,2.24879 -5.02408,5.02228 0,2.2194 1.43939,4.10149 3.43521,4.76504 0.2512,0.0472 0.34331,-0.10818 0.34331,-0.24148 0,-0.11925 -0.004,-0.43529 -0.006,-0.85393 -1.39752,0.30282 -1.69227,-0.6738 -1.69227,-0.6738 -0.2286,-0.57966 -0.55893,-0.73468 -0.55893,-0.73468 -0.4551,-0.31135 0.0352,-0.30497 0.0352,-0.30497 0.5045,0.0349 0.76952,0.51749 0.76952,0.51749 0.44798,0.7679 1.17605,0.54603 1.46326,0.41781 0.0452,-0.32496 0.17458,-0.546 0.31819,-0.67165 -1.11576,-0.12563 -2.28847,-0.5575 -2.28847,-2.48175 0,-0.54815 0.19469,-0.99621 0.51707,-1.34758 -0.0565,-0.12691 -0.22609,-0.63756 0.044,-1.32924 0,0 0.42076,-0.13459 1.38162,0.51491 0.40193,-0.11159 0.82897,-0.16695 1.25602,-0.1695 0.42704,0.002 0.85409,0.0577 1.25602,0.1695 0.95458,-0.6495 1.37534,-0.51491 1.37534,-0.51491 0.27005,0.69168 0.10048,1.20233 0.0502,1.32924 0.32029,0.35137 0.51497,0.79943 0.51497,1.34758 0,1.92935 -1.17438,2.35399 -2.29224,2.4775 0.17584,0.15076 0.33913,0.45869 0.33913,0.92932 0,0.67207 -0.006,1.21213 -0.006,1.37524 0,0.13162 0.0879,0.28877 0.3454,0.23852 2.01005,-0.65929 3.4482,-2.54267 3.4482,-4.75866 -10e-6,-2.77349 -2.24954,-5.02228 -5.02408,-5.02228 z"
       id="path2-3-3-3-9"
       style="fill:#434c5e;fill-opacity:1;stroke-width:0.422274" />
  </g>
</svg>
