<?xml version="1.0" encoding="UTF-8" standalone="no"?>
<svg
   width="32"
   version="1.1"
   height="32"
   viewBox="0 0 32 32"
   id="svg17"
   sodipodi:docname="folder-development.svg"
   inkscape:version="1.2.1 (9c6d41e410, 2022-07-14)"
   xmlns:inkscape="http://www.inkscape.org/namespaces/inkscape"
   xmlns:sodipodi="http://sodipodi.sourceforge.net/DTD/sodipodi-0.dtd"
   xmlns:xlink="http://www.w3.org/1999/xlink"
   xmlns="http://www.w3.org/2000/svg"
   xmlns:svg="http://www.w3.org/2000/svg"
   xmlns:rdf="http://www.w3.org/1999/02/22-rdf-syntax-ns#"
   xmlns:cc="http://creativecommons.org/ns#"
   xmlns:dc="http://purl.org/dc/elements/1.1/">
  <sodipodi:namedview
     pagecolor="#ffffff"
     bordercolor="#666666"
     borderopacity="1"
     objecttolerance="10"
     gridtolerance="10"
     guidetolerance="10"
     inkscape:pageopacity="0"
     inkscape:pageshadow="2"
     inkscape:window-width="1920"
     inkscape:window-height="1002"
     id="namedview19"
     showgrid="false"
     inkscape:zoom="9.8125"
     inkscape:cx="-9.4267516"
     inkscape:cy="5.5541401"
     inkscape:window-x="0"
     inkscape:window-y="0"
     inkscape:window-maximized="1"
     inkscape:current-layer="layer1"
     inkscape:document-rotation="0"
     showguides="false"
     inkscape:guide-bbox="true"
     inkscape:showpageshadow="2"
     inkscape:pagecheckerboard="0"
     inkscape:deskcolor="#d1d1d1">
    <sodipodi:guide
       position="-20.382166,30.980892"
       orientation="0,-1"
       id="guide903"
       inkscape:locked="false" />
  </sodipodi:namedview>
  <defs
     id="defs5455">
    <linearGradient
       inkscape:collect="always"
       xlink:href="#linearGradient860-3"
       id="linearGradient862"
       x1="113.94583"
       y1="366.97165"
       x2="406.08234"
       y2="159.71205"
       gradientUnits="userSpaceOnUse"
       gradientTransform="matrix(0.08570321,0,0,0.08743865,378.28739,508.28197)" />
    <linearGradient
       inkscape:collect="always"
       id="linearGradient860-3">
      <stop
         style="stop-color:#8fbcbb;stop-opacity:1;"
         offset="0"
         id="stop856-6" />
      <stop
         style="stop-color:#a3be8c;stop-opacity:1;"
         offset="1"
         id="stop858-7" />
    </linearGradient>
    <linearGradient
       inkscape:collect="always"
       xlink:href="#linearGradient842-3"
       id="linearGradient844-5"
       x1="386.3063"
       y1="539.79773"
       x2="447.95114"
       y2="504.71896"
       gradientUnits="userSpaceOnUse"
       gradientTransform="matrix(0.42958153,0,0,0.53058532,221.62138,257.38929)" />
    <linearGradient
       inkscape:collect="always"
       id="linearGradient842-3">
      <stop
         style="stop-color:#5e81ac;stop-opacity:1;"
         offset="0"
         id="stop838-5" />
      <stop
         style="stop-color:#88c0d0;stop-opacity:1;"
         offset="1"
         id="stop840-6" />
    </linearGradient>
  </defs>
  <metadata
     id="metadata5458">
    <rdf:RDF>
      <cc:Work
         rdf:about="">
        <dc:format>image/svg+xml</dc:format>
        <dc:type
           rdf:resource="http://purl.org/dc/dcmitype/StillImage" />
      </cc:Work>
    </rdf:RDF>
  </metadata>
  <g
     inkscape:label="Capa 1"
     inkscape:groupmode="layer"
     id="layer1"
     transform="translate(-384.57143,-515.798)">
    <path
       style="fill:url(#linearGradient862);fill-opacity:1;stroke-width:0.0802087"
       d="m 400.57019,522.247 c -0.37217,0 -0.81143,-0.24718 -0.97828,-0.54656 l -0.74837,-1.3453 c -0.16604,-0.29935 -0.60665,-0.54363 -0.97864,-0.54423 l -8.23478,-0.0129 c -1.2155,-0.002 -1.57753,0.44329 -1.57721,1.4245 l 1.4e-4,0.41351 v 1.21696 l -1.4e-4,16.04693 c 0,0.43777 0.97463,1.46938 1.44445,1.46938 h 22.14814 c 0.48149,0 1.44445,-0.97958 1.44445,-1.46938 V 523.7162 c 0,-0.97958 -0.48148,-1.46938 -1.42084,-1.46938 z"
       id="path4-3-2"
       sodipodi:nodetypes="sccsssccscsssss" />
    <path
       style="fill:#434c5e;fill-opacity:1;stroke-width:0.0824546"
       d="m 411.16402,528.32048 c 0,0.70043 -0.32854,1.27348 -1.08014,1.27348 h -19.06565 c -0.75159,0 -1.03939,-0.57305 -1.03939,-1.27348 V 524.696 c 0,-0.97962 0.48148,-1.46941 1.44444,-1.46941 h 18.2963 c 0.96296,0 1.44444,0.48979 1.44444,1.46941 z"
       id="path8-6-9"
       sodipodi:nodetypes="sssssssss" />
    <path
       style="fill:url(#linearGradient844-5);fill-opacity:1;stroke-width:0.0927331"
       d="m 410.68254,525.18579 h -20.22222 c -1.92593,0 -2.88889,0.97958 -2.88889,2.93879 v 13.2245 c 0,1.46939 0.96296,2.44897 2.40741,2.44897 h 21.18518 c 1.44445,0 2.40741,-0.97958 2.40741,-2.44897 v -13.2245 c 0,-1.95921 -0.96296,-2.93879 -2.88889,-2.93879 z"
       id="path10-1"
       sodipodi:nodetypes="sssssssss" />
    <path
       fill-rule="evenodd"
       clip-rule="evenodd"
       d="m 396.7841,532.32298 c 0,-0.19319 0.15274,-0.3498 0.3411,-0.3498 0.18843,0 0.34114,0.15661 0.34114,0.3498 0,0.19324 -0.15271,0.34989 -0.34114,0.34989 -0.18836,0 -0.3411,-0.15665 -0.3411,-0.34989 z m 1.36451,0 c 0,-0.19319 0.15275,-0.3498 0.34112,-0.3498 0.1884,0 0.34112,0.15661 0.34112,0.3498 0,0.19324 -0.15272,0.34989 -0.34112,0.34989 -0.18837,0 -0.34112,-0.15665 -0.34112,-0.34989 z m 1.36451,0 c 0,-0.19319 0.15273,-0.3498 0.34111,-0.3498 0.18841,0 0.34113,0.15661 0.34113,0.3498 0,0.19324 -0.15271,0.34989 -0.34113,0.34989 -0.18838,0 -0.34111,-0.15665 -0.34111,-0.34989 z m 6.82256,1.92425 v 4.72303 c 0,0.77284 -0.61097,1.39939 -1.36451,1.39939 h -8.18708 c -0.75356,0 -1.36451,-0.62655 -1.36451,-1.39939 v -3.8484 c 0,-0.19324 0.15274,-0.34989 0.3411,-0.34989 0.18843,0 0.34114,0.15665 0.34114,0.34989 v 3.8484 c 0,0.38643 0.30549,0.69969 0.68227,0.69969 h 8.18708 c 0.37675,0 0.68224,-0.31326 0.68224,-0.69969 v -4.5481 c 0,-0.19324 -0.1527,-0.34988 -0.34113,-0.34988 h -9.03987 c -0.47107,0 -0.85283,-0.3915 -0.85283,-0.87462 v -1.22448 c 0,-0.77286 0.61095,-1.39945 1.36452,-1.39945 h 8.18708 c 0.75353,0 1.36451,0.62659 1.36451,1.39945 v 0.3498 c 0,0.19324 -0.15274,0.34989 -0.34114,0.34989 -0.1884,0 -0.34114,-0.15665 -0.34114,-0.34989 v -0.3498 c 0,-0.38644 -0.30549,-0.69973 -0.68224,-0.69973 h -8.18708 c -0.37678,0 -0.68227,0.31329 -0.68227,0.69973 v 1.04954 c 0,0.19319 0.15274,0.34983 0.34116,0.34983 h 9.03988 c 0.47107,0 0.85282,0.39155 0.85282,0.87468 z"
       id="path2-36"
       style="fill:#434c5e;fill-opacity:1;stroke-width:0.0215913" />
    <path
       fill-rule="evenodd"
       clip-rule="evenodd"
       d="m 402.50044,537.40765 c -3.6e-4,2.8e-4 -9.6e-4,4.7e-4 -0.001,4.7e-4 -0.0557,0.0194 -0.096,0.0734 -0.096,0.13722 v 1.49838 c 0,0.0799 -0.0632,0.14489 -0.14124,0.14489 -0.0779,0 -0.14109,-0.0649 -0.14109,-0.14489 v -1.49838 c 0,-0.18835 0.11689,-0.34887 0.28048,-0.40915 0.002,-4.8e-4 0.004,-0.002 0.006,-0.003 0.16221,-0.0612 0.27862,-0.21943 0.27862,-0.40688 0,-0.11989 -0.0473,-0.22843 -0.12371,-0.30688 -0.0258,-0.0263 -0.0418,-0.0629 -0.0418,-0.10276 0,-0.0799 0.0632,-0.14495 0.14138,-0.14495 0.0413,0 0.0782,0.0187 0.10398,0.0477 0.12499,0.13081 0.2027,0.30927 0.2027,0.50697 0,0.31412 -0.1949,0.58095 -0.46765,0.68138 z m -0.37781,-1.09166 c -0.002,10e-4 -0.004,0.002 -0.006,0.003 -0.16222,0.0611 -0.27855,0.21929 -0.27855,0.40687 0,0.12004 0.0475,0.22867 0.12414,0.30727 0.0256,0.0262 0.0413,0.0628 0.0413,0.1025 0,0.0798 -0.0631,0.14472 -0.14123,0.14472 -0.0405,0 -0.0771,-0.0181 -0.10296,-0.0462 -0.12572,-0.13091 -0.20377,-0.31 -0.20377,-0.50838 0,-0.31399 0.19473,-0.58018 0.46715,-0.68092 4.7e-4,-3.9e-4 10e-4,-9.7e-4 0.002,-9.7e-4 0.0557,-0.0195 0.096,-0.0734 0.096,-0.13729 v -0.62917 c 0,-0.0798 0.0632,-0.14494 0.14109,-0.14494 0.0781,0 0.14124,0.0652 0.14124,0.14494 v 0.62918 c -10e-6,0.18861 -0.11684,0.34893 -0.28041,0.4092 z m 0.13915,-1.47307 c -0.0779,0 -0.14108,-0.065 -0.14108,-0.14474 0,-0.0799 0.0631,-0.14487 0.14108,-0.14487 0.078,0 0.14122,0.065 0.14122,0.14487 0,0.0798 -0.0632,0.14474 -0.14122,0.14474 z m -1.17351,3.72342 c -9.6e-4,3.7e-4 -9.6e-4,9.9e-4 -0.001,9.9e-4 -0.0557,0.0194 -0.096,0.0735 -0.096,0.13722 v 0.33948 c 0,0.0799 -0.0632,0.14486 -0.14121,0.14486 -0.0779,0 -0.14112,-0.065 -0.14112,-0.14486 v -0.33948 c 0,-0.1884 0.1169,-0.34885 0.28046,-0.40909 0.002,-5.1e-4 0.004,-0.002 0.006,-0.003 0.16213,-0.0612 0.27856,-0.21947 0.27856,-0.40685 0,-0.11985 -0.0473,-0.22837 -0.12368,-0.30683 -0.0259,-0.0263 -0.0418,-0.0629 -0.0418,-0.10284 0,-0.0799 0.0633,-0.14488 0.14133,-0.14488 0.0414,0 0.0782,0.0187 0.10399,0.0477 0.12504,0.13069 0.20274,0.30926 0.20274,0.50695 -10e-6,0.31393 -0.19484,0.5808 -0.46738,0.68116 z m -0.37813,-1.09148 c -0.002,4.8e-4 -0.004,0.002 -0.006,0.003 -0.16176,0.0612 -0.27809,0.21929 -0.27809,0.40657 0,0.11996 0.0476,0.2287 0.12415,0.30727 0.0256,0.0262 0.0414,0.0627 0.0414,0.1025 0,0.0798 -0.0632,0.14472 -0.14126,0.14472 -0.0396,0 -0.0755,-0.0172 -0.10117,-0.0443 -0.12704,-0.13089 -0.2056,-0.31107 -0.2056,-0.51031 0,-0.31399 0.19483,-0.58026 0.46721,-0.68088 4.6e-4,-4.2e-4 0.001,-9.9e-4 0.002,-9.9e-4 0.0557,-0.0194 0.0959,-0.0733 0.0959,-0.13723 v -2.36745 c 0,-0.0799 0.0632,-0.14489 0.1411,-0.14489 0.0781,0 0.14122,0.0649 0.14122,0.14489 v 2.36748 c -10e-6,0.18859 -0.11681,0.34911 -0.2804,0.40917 z m -1.03432,-0.64696 c -9.6e-4,3.9e-4 -9.6e-4,4.9e-4 -10e-4,4.9e-4 -0.0558,0.0196 -0.096,0.0735 -0.096,0.13721 v 2.07789 c 0,0.0799 -0.0632,0.14489 -0.1411,0.14489 -0.0781,0 -0.14128,-0.065 -0.14128,-0.14489 v -2.07789 c 0,-0.18837 0.11692,-0.34888 0.28054,-0.40915 0.002,-9.7e-4 0.004,-0.002 0.006,-0.003 0.16214,-0.0612 0.27854,-0.21928 0.27854,-0.40672 0,-0.12005 -0.0476,-0.22873 -0.12419,-0.30729 -0.0257,-0.0263 -0.0413,-0.0626 -0.0413,-0.10247 0,-0.0798 0.0632,-0.14492 0.14125,-0.14492 0.0405,0 0.0772,0.0182 0.10297,0.0463 0.12574,0.13097 0.2038,0.31004 0.2038,0.50839 0,0.31397 -0.195,0.58067 -0.46732,0.68102 z m -0.37818,-1.0913 c -0.002,4.6e-4 -0.004,0.002 -0.006,0.003 -0.16219,0.0611 -0.27863,0.21943 -0.27863,0.40688 0,0.12006 0.0476,0.22852 0.12421,0.30715 0.0255,0.0262 0.0414,0.0627 0.0414,0.10246 0,0.0798 -0.0632,0.14489 -0.14124,0.14489 -0.0403,0 -0.0769,-0.0179 -0.10265,-0.0458 -0.1261,-0.13058 -0.20417,-0.31044 -0.20417,-0.50874 0,-0.31402 0.19481,-0.58079 0.46736,-0.68117 4.8e-4,-3.7e-4 9.6e-4,-4.8e-4 0.002,-4.8e-4 0.0557,-0.0194 0.0959,-0.0735 0.0959,-0.13722 v -0.62926 c 0,-0.0799 0.0632,-0.14488 0.14129,-0.14488 0.0779,0 0.1411,0.065 0.1411,0.14488 v 0.62926 c 0,0.18834 -0.11684,0.34886 -0.28044,0.40914 z"
       id="path2-3-0"
       style="fill:#434c5e;fill-opacity:1;stroke-width:0.00894015" />
  </g>
</svg>
