<?xml version="1.0" encoding="UTF-8" standalone="no"?>
<svg
   width="32"
   version="1.1"
   height="32"
   viewBox="0 0 32 32"
   id="svg15"
   sodipodi:docname="folder-database.svg"
   inkscape:version="1.2.1 (9c6d41e410, 2022-07-14)"
   xmlns:inkscape="http://www.inkscape.org/namespaces/inkscape"
   xmlns:sodipodi="http://sodipodi.sourceforge.net/DTD/sodipodi-0.dtd"
   xmlns:xlink="http://www.w3.org/1999/xlink"
   xmlns="http://www.w3.org/2000/svg"
   xmlns:svg="http://www.w3.org/2000/svg"
   xmlns:rdf="http://www.w3.org/1999/02/22-rdf-syntax-ns#"
   xmlns:cc="http://creativecommons.org/ns#"
   xmlns:dc="http://purl.org/dc/elements/1.1/">
  <sodipodi:namedview
     pagecolor="#ffffff"
     bordercolor="#666666"
     borderopacity="1"
     objecttolerance="10"
     gridtolerance="10"
     guidetolerance="10"
     inkscape:pageopacity="0"
     inkscape:pageshadow="2"
     inkscape:window-width="1920"
     inkscape:window-height="1002"
     id="namedview17"
     showgrid="true"
     inkscape:zoom="13.876971"
     inkscape:cx="11.637986"
     inkscape:cy="14.088089"
     inkscape:window-x="0"
     inkscape:window-y="0"
     inkscape:window-maximized="1"
     inkscape:current-layer="layer1"
     inkscape:document-rotation="0"
     inkscape:showpageshadow="2"
     inkscape:pagecheckerboard="0"
     inkscape:deskcolor="#d1d1d1">
    <inkscape:grid
       type="xygrid"
       id="grid1205" />
  </sodipodi:namedview>
  <defs
     id="defs5455">
    <linearGradient
       inkscape:collect="always"
       xlink:href="#linearGradient860"
       id="linearGradient862"
       x1="113.94583"
       y1="366.97165"
       x2="406.08234"
       y2="159.71205"
       gradientUnits="userSpaceOnUse"
       gradientTransform="matrix(0.08570319,0,0,0.08743907,378.28739,508.28172)" />
    <linearGradient
       inkscape:collect="always"
       id="linearGradient860">
      <stop
         style="stop-color:#8fbcbb;stop-opacity:1;"
         offset="0"
         id="stop856" />
      <stop
         style="stop-color:#a3be8c;stop-opacity:1;"
         offset="1"
         id="stop858" />
    </linearGradient>
    <linearGradient
       inkscape:collect="always"
       xlink:href="#linearGradient842"
       id="linearGradient844"
       x1="386.3063"
       y1="539.79773"
       x2="447.95114"
       y2="504.71896"
       gradientUnits="userSpaceOnUse"
       gradientTransform="matrix(0.42958147,0,0,0.5305879,221.62139,257.38782)" />
    <linearGradient
       inkscape:collect="always"
       id="linearGradient842">
      <stop
         style="stop-color:#5e81ac;stop-opacity:1;"
         offset="0"
         id="stop838" />
      <stop
         style="stop-color:#88c0d0;stop-opacity:1;"
         offset="1"
         id="stop840" />
    </linearGradient>
  </defs>
  <metadata
     id="metadata5458">
    <rdf:RDF>
      <cc:Work
         rdf:about="">
        <dc:format>image/svg+xml</dc:format>
        <dc:type
           rdf:resource="http://purl.org/dc/dcmitype/StillImage" />
      </cc:Work>
    </rdf:RDF>
  </metadata>
  <g
     inkscape:label="Capa 1"
     inkscape:groupmode="layer"
     id="layer1"
     transform="translate(-384.57143,-515.798)">
    <path
       style="fill:url(#linearGradient862);fill-opacity:1;stroke-width:0.0802087"
       d="m 400.57017,522.24679 c -0.37214,0 -0.8114,-0.24719 -0.97825,-0.54655 l -0.74836,-1.34532 c -0.16607,-0.29933 -0.60667,-0.54365 -0.97866,-0.54421 l -8.23478,-0.0127 c -1.21549,-0.002 -1.57752,0.44328 -1.57721,1.42452 l 1.4e-4,0.41351 v 1.21696 l -1.4e-4,16.04701 c -10e-6,0.43776 0.97464,1.4694 1.44444,1.4694 h 22.14816 c 0.48149,0 1.44444,-0.9796 1.44444,-1.4694 v -15.18379 c 0,-0.9796 -0.4815,-1.46939 -1.42083,-1.46939 z"
       id="path4-3"
       sodipodi:nodetypes="sccsssccscsssss" />
    <path
       style="fill:#434c5e;fill-opacity:1;stroke-width:0.0824548"
       d="m 411.16403,528.32031 c 0,0.70041 -0.32856,1.27347 -1.08017,1.27347 h -19.06564 c -0.75158,0 -1.03939,-0.57306 -1.03939,-1.27347 v -3.62453 c 0,-0.9796 0.4815,-1.4694 1.44447,-1.4694 h 18.29626 c 0.96297,0 1.44447,0.4898 1.44447,1.4694 z"
       id="path8-6"
       sodipodi:nodetypes="sssssssss" />
    <path
       style="fill:url(#linearGradient844);fill-opacity:1;stroke-width:0.0927335"
       d="m 410.68253,525.18558 h -20.2222 c -1.92592,0 -2.8889,0.9796 -2.8889,2.9388 v 13.22459 c 0,1.4694 0.96298,2.449 2.4074,2.449 h 21.1852 c 1.44442,0 2.4074,-0.9796 2.4074,-2.449 v -13.22459 c 0,-1.9592 -0.96298,-2.9388 -2.8889,-2.9388 z"
       id="path10"
       sodipodi:nodetypes="sssssssss" />
    <path
       fill-rule="evenodd"
       clip-rule="evenodd"
       d="m 406.25894,538.92314 c -0.17244,0 -0.31265,-0.14007 -0.31265,-0.3125 0,-0.17272 0.14021,-0.31281 0.31265,-0.31281 0.17256,0 0.31249,0.14009 0.31249,0.31281 0,0.17243 -0.13993,0.3125 -0.31249,0.3125 z m 0.30089,-2.33705 c -0.004,0.0336 -0.01,0.0668 -0.0165,0.0995 -0.003,0.0159 -0.008,0.0307 -0.0118,0.0463 -0.007,0.0272 -0.0142,0.0545 -0.023,0.0812 -0.004,0.0114 -0.009,0.0233 -0.0126,0.0349 -0.0111,0.0305 -0.0229,0.0607 -0.036,0.0898 -0.003,0.008 -0.008,0.0159 -0.0111,0.0236 -0.0148,0.0302 -0.0302,0.0598 -0.0466,0.0885 -0.005,0.009 -0.0106,0.0184 -0.0163,0.0272 -0.0186,0.0297 -0.0378,0.0589 -0.0583,0.0867 -0.003,0.004 -0.006,0.009 -0.01,0.0124 -0.0238,0.0316 -0.0495,0.0623 -0.0766,0.0919 -0.001,10e-4 -0.002,0.002 -0.002,0.003 -0.0291,0.031 -0.0592,0.0614 -0.0915,0.0894 -0.22004,0.19381 -0.50838,0.31251 -0.82504,0.31251 v 0.0159 c -0.0506,-0.01 -0.10251,-0.0159 -0.15627,-0.0159 h -7.18734 c -0.43156,0 -0.7816,0.34971 -0.7816,0.78123 v 0.9372 c 0,0.43155 0.35004,0.78126 0.7816,0.78126 h 7.18736 c 0.36852,0 0.68329,-0.29327 0.85909,-0.51726 l 10e-4,3.3e-4 c 0.0574,-0.0657 0.14007,-0.10776 0.23406,-0.10776 0.17261,0 0.31253,0.13978 0.31253,0.31251 0,0.32409 -0.55955,0.93749 -1.25,0.93749 h -7.50065 c -0.69036,0 -1.24986,-0.55968 -1.24986,-1.25 v -1.25034 c 0,-0.6903 0.5595,-1.24969 1.24986,-1.24969 h 0.46871 6.87518 c 0.43157,0 0.7811,-0.34975 0.7811,-0.78127 v -0.93758 c 0,-0.43151 -0.34953,-0.78122 -0.7811,-0.78122 h -6.87518 -0.46871 c -0.69036,0 -1.24986,-0.55986 -1.24986,-1.24988 v -1.25014 c 0,-0.69048 0.5595,-1.24988 1.24986,-1.24988 h 7.50014 c 0.69051,0 1.25,0.5594 1.25,1.24988 v 0.93765 c 0,0.17227 -0.13992,0.31249 -0.31246,0.31249 -0.17246,0 -0.31269,-0.14022 -0.31269,-0.31249 v -0.78122 c 0,-0.43152 -0.34953,-0.78155 -0.7811,-0.78155 h -7.1874 c -0.43156,0 -0.78158,0.35003 -0.78158,0.78155 v 0.93735 c 0,0.43152 0.35001,0.78112 0.78158,0.78112 h 7.18728 c 0.0536,0 0.1056,-0.006 0.15624,-0.0159 v 0.0159 c 0.31665,0 0.60502,0.1187 0.82504,0.31263 0.0321,0.0282 0.0624,0.0583 0.0914,0.0894 10e-4,0.001 0.002,0.002 0.002,0.003 0.0271,0.0295 0.0527,0.06 0.0766,0.0919 0.003,0.004 0.006,0.009 0.01,0.0126 0.0206,0.0281 0.0399,0.0571 0.0583,0.0865 0.006,0.009 0.0109,0.0183 0.0163,0.027 0.0165,0.029 0.0319,0.0583 0.0466,0.0886 0.004,0.008 0.008,0.0156 0.0112,0.0236 0.0132,0.0292 0.0247,0.0594 0.036,0.0899 0.004,0.0114 0.009,0.0233 0.0125,0.0348 0.009,0.0265 0.0159,0.054 0.023,0.0812 0.003,0.0158 0.009,0.0304 0.0117,0.0463 0.007,0.0325 0.0125,0.0661 0.0166,0.0995 10e-4,0.009 0.002,0.0179 0.003,0.0274 0.005,0.0444 0.008,0.0899 0.008,0.13566 v 1.24993 c 0,0.0455 -0.003,0.0909 -0.008,0.13555 -4.7e-4,0.01 -0.002,0.0183 -0.003,0.0273 z m -9.67582,-1.41289 c 0.17235,0 0.3122,0.13978 0.3122,0.31251 v 0.62458 c 0,0.17276 -0.13985,0.31283 -0.3122,0.31283 -0.17272,0 -0.31258,-0.14007 -0.31258,-0.31283 v -0.62458 c 0,-0.17273 0.13986,-0.31251 0.31258,-0.31251 z"
       id="path2-5"
       style="fill:#434c5e;fill-opacity:1;stroke-width:0.0195311" />
  </g>
</svg>
