<?xml version="1.0" encoding="UTF-8" standalone="no"?>
<svg
   width="32"
   version="1.1"
   height="32"
   viewBox="0 0 32 32"
   id="svg15"
   sodipodi:docname="folder-blender.svg"
   inkscape:version="1.2.1 (9c6d41e410, 2022-07-14)"
   xmlns:inkscape="http://www.inkscape.org/namespaces/inkscape"
   xmlns:sodipodi="http://sodipodi.sourceforge.net/DTD/sodipodi-0.dtd"
   xmlns:xlink="http://www.w3.org/1999/xlink"
   xmlns="http://www.w3.org/2000/svg"
   xmlns:svg="http://www.w3.org/2000/svg"
   xmlns:rdf="http://www.w3.org/1999/02/22-rdf-syntax-ns#"
   xmlns:cc="http://creativecommons.org/ns#"
   xmlns:dc="http://purl.org/dc/elements/1.1/">
  <sodipodi:namedview
     pagecolor="#ffffff"
     bordercolor="#666666"
     borderopacity="1"
     objecttolerance="10"
     gridtolerance="10"
     guidetolerance="10"
     inkscape:pageopacity="0"
     inkscape:pageshadow="2"
     inkscape:window-width="1920"
     inkscape:window-height="1002"
     id="namedview17"
     showgrid="true"
     inkscape:zoom="13.876971"
     inkscape:cx="11.637986"
     inkscape:cy="14.088089"
     inkscape:window-x="0"
     inkscape:window-y="0"
     inkscape:window-maximized="1"
     inkscape:current-layer="layer1"
     inkscape:document-rotation="0"
     inkscape:showpageshadow="2"
     inkscape:pagecheckerboard="0"
     inkscape:deskcolor="#d1d1d1">
    <inkscape:grid
       type="xygrid"
       id="grid1205" />
  </sodipodi:namedview>
  <defs
     id="defs5455">
    <linearGradient
       inkscape:collect="always"
       xlink:href="#linearGradient860"
       id="linearGradient862"
       x1="113.94583"
       y1="366.97165"
       x2="406.08234"
       y2="159.71205"
       gradientUnits="userSpaceOnUse"
       gradientTransform="matrix(0.08570319,0,0,0.08743907,378.28739,508.28172)" />
    <linearGradient
       inkscape:collect="always"
       id="linearGradient860">
      <stop
         style="stop-color:#8fbcbb;stop-opacity:1;"
         offset="0"
         id="stop856" />
      <stop
         style="stop-color:#a3be8c;stop-opacity:1;"
         offset="1"
         id="stop858" />
    </linearGradient>
    <linearGradient
       inkscape:collect="always"
       xlink:href="#linearGradient842"
       id="linearGradient844"
       x1="386.3063"
       y1="539.79773"
       x2="447.95114"
       y2="504.71896"
       gradientUnits="userSpaceOnUse"
       gradientTransform="matrix(0.42958147,0,0,0.5305879,221.62139,257.38782)" />
    <linearGradient
       inkscape:collect="always"
       id="linearGradient842">
      <stop
         style="stop-color:#5e81ac;stop-opacity:1;"
         offset="0"
         id="stop838" />
      <stop
         style="stop-color:#88c0d0;stop-opacity:1;"
         offset="1"
         id="stop840" />
    </linearGradient>
  </defs>
  <metadata
     id="metadata5458">
    <rdf:RDF>
      <cc:Work
         rdf:about="">
        <dc:format>image/svg+xml</dc:format>
        <dc:type
           rdf:resource="http://purl.org/dc/dcmitype/StillImage" />
      </cc:Work>
    </rdf:RDF>
  </metadata>
  <g
     inkscape:label="Capa 1"
     inkscape:groupmode="layer"
     id="layer1"
     transform="translate(-384.57143,-515.798)">
    <path
       style="fill:url(#linearGradient862);fill-opacity:1;stroke-width:0.0802087"
       d="m 400.57017,522.24679 c -0.37214,0 -0.8114,-0.24719 -0.97825,-0.54655 l -0.74836,-1.34532 c -0.16607,-0.29933 -0.60667,-0.54365 -0.97866,-0.54421 l -8.23478,-0.0127 c -1.21549,-0.002 -1.57752,0.44328 -1.57721,1.42452 l 1.4e-4,0.41351 v 1.21696 l -1.4e-4,16.04701 c -10e-6,0.43776 0.97464,1.4694 1.44444,1.4694 h 22.14816 c 0.48149,0 1.44444,-0.9796 1.44444,-1.4694 v -15.18379 c 0,-0.9796 -0.4815,-1.46939 -1.42083,-1.46939 z"
       id="path4-3"
       sodipodi:nodetypes="sccsssccscsssss" />
    <path
       style="fill:#434c5e;fill-opacity:1;stroke-width:0.0824548"
       d="m 411.16403,528.32031 c 0,0.70041 -0.32856,1.27347 -1.08017,1.27347 h -19.06564 c -0.75158,0 -1.03939,-0.57306 -1.03939,-1.27347 v -3.62453 c 0,-0.9796 0.4815,-1.4694 1.44447,-1.4694 h 18.29626 c 0.96297,0 1.44447,0.4898 1.44447,1.4694 z"
       id="path8-6"
       sodipodi:nodetypes="sssssssss" />
    <path
       style="fill:url(#linearGradient844);fill-opacity:1;stroke-width:0.0927335"
       d="m 410.68253,525.18558 h -20.2222 c -1.92592,0 -2.8889,0.9796 -2.8889,2.9388 v 13.22459 c 0,1.4694 0.96298,2.449 2.4074,2.449 h 21.1852 c 1.44442,0 2.4074,-0.9796 2.4074,-2.449 v -13.22459 c 0,-1.9592 -0.96298,-2.9388 -2.8889,-2.9388 z"
       id="path10"
       sodipodi:nodetypes="sssssssss" />
    <path
       style="color:#232629;fill:#434c5e;fill-opacity:1;stroke:none;stroke-width:0.454545"
       d="m 401.41002,530.798 a 0.68181817,0.68181817 0 0 0 -0.68182,0.68182 0.68181817,0.68181817 0 0 0 0.21591,0.45454 h -0.0455 l 1.59091,1.59091 h -5.22727 a 0.68181817,0.68181817 0 0 0 -0.68182,0.68182 0.68181817,0.68181817 0 0 0 0.68182,0.68182 h 2.5 l -2.90909,2.90909 a 0.68181817,0.68181817 0 0 0 -0.27273,0.54545 0.68181817,0.68181817 0 0 0 0.68182,0.68182 0.68181817,0.68181817 0 0 0 0.5,-0.22727 c 0,0 0,0 0,0 l 1.54545,-1.54545 a 3.6363636,3.6363636 0 0 0 3.63637,3.54545 3.6363636,3.6363636 0 0 0 3.63636,-3.63636 3.6363636,3.6363636 0 0 0 -1.36364,-2.86364 l -3.31818,-3.27273 a 0.68181817,0.68181817 0 0 0 -0.48863,-0.22727 z m 1.53409,4.09091 a 2.2727272,2.2727272 0 0 1 1.36363,0.45454 l 0.40909,0.4091 v 0 a 2.2727272,2.2727272 0 0 1 0.5,1.40909 2.2727272,2.2727272 0 0 1 -2.27272,2.27272 2.2727272,2.2727272 0 0 1 -2.27273,-2.27272 2.2727272,2.2727272 0 0 1 2.27273,-2.27273 z m 0,1.36364 a 0.90909089,0.90909089 0 0 0 -0.90909,0.90909 0.90909089,0.90909089 0 0 0 0.90909,0.90909 0.90909089,0.90909089 0 0 0 0.90909,-0.90909 0.90909089,0.90909089 0 0 0 -0.90909,-0.90909 z"
       class="ColorScheme-Text"
       id="path145-3" />
  </g>
</svg>
