<?xml version="1.0" encoding="UTF-8" standalone="no"?>
<svg
   width="32"
   version="1.1"
   height="32"
   viewBox="0 0 32 32"
   id="svg15"
   sodipodi:docname="folder-rpm.svg"
   inkscape:version="1.2.1 (9c6d41e410, 2022-07-14)"
   xmlns:inkscape="http://www.inkscape.org/namespaces/inkscape"
   xmlns:sodipodi="http://sodipodi.sourceforge.net/DTD/sodipodi-0.dtd"
   xmlns="http://www.w3.org/2000/svg"
   xmlns:svg="http://www.w3.org/2000/svg"
   xmlns:rdf="http://www.w3.org/1999/02/22-rdf-syntax-ns#"
   xmlns:cc="http://creativecommons.org/ns#"
   xmlns:dc="http://purl.org/dc/elements/1.1/">
  <sodipodi:namedview
     pagecolor="#ffffff"
     bordercolor="#666666"
     borderopacity="1"
     objecttolerance="10"
     gridtolerance="10"
     guidetolerance="10"
     inkscape:pageopacity="0"
     inkscape:pageshadow="2"
     inkscape:window-width="1920"
     inkscape:window-height="1002"
     id="namedview17"
     showgrid="true"
     inkscape:zoom="13.876971"
     inkscape:cx="11.637986"
     inkscape:cy="8.323142"
     inkscape:window-x="0"
     inkscape:window-y="0"
     inkscape:window-maximized="1"
     inkscape:current-layer="layer1"
     inkscape:document-rotation="0"
     inkscape:showpageshadow="2"
     inkscape:pagecheckerboard="0"
     inkscape:deskcolor="#d1d1d1">
    <inkscape:grid
       type="xygrid"
       id="grid1205" />
  </sodipodi:namedview>
  <defs
     id="defs5455" />
  <metadata
     id="metadata5458">
    <rdf:RDF>
      <cc:Work
         rdf:about="">
        <dc:format>image/svg+xml</dc:format>
        <dc:type
           rdf:resource="http://purl.org/dc/dcmitype/StillImage" />
      </cc:Work>
    </rdf:RDF>
  </metadata>
  <g
     inkscape:label="Capa 1"
     inkscape:groupmode="layer"
     id="layer1"
     transform="translate(-384.57143,-515.798)">
    <path
       style="fill:#88c0d0;fill-opacity:1;stroke-width:0.080209"
       d="m 400.57019,522.24682 c -0.37217,0 -0.81143,-0.24718 -0.97828,-0.54656 l -0.74837,-1.34532 c -0.16604,-0.29935 -0.60665,-0.54363 -0.97864,-0.54423 l -8.23478,-0.0127 c -1.2155,-0.002 -1.57753,0.44329 -1.57721,1.42452 l 1.4e-4,0.41351 v 1.21698 l -1.4e-4,16.04705 c 0,0.43778 0.97463,1.4694 1.44445,1.4694 h 22.14814 c 0.48149,0 1.44445,-0.97958 1.44445,-1.4694 v -15.18385 c 0,-0.97958 -0.48148,-1.46938 -1.42084,-1.46938 z"
       id="path4-3-3"
       sodipodi:nodetypes="sccsssccscsssss" />
    <path
       style="fill:#434c5e;fill-opacity:1;stroke-width:0.082455"
       d="m 411.16402,528.32036 c 0,0.70043 -0.32854,1.27349 -1.08014,1.27349 h -19.06565 c -0.75159,0 -1.03939,-0.57306 -1.03939,-1.27349 v -3.62452 c 0,-0.97964 0.48148,-1.46943 1.44444,-1.46943 h 18.2963 c 0.96296,0 1.44444,0.48979 1.44444,1.46943 z"
       id="path8-6-6"
       sodipodi:nodetypes="sssssssss" />
    <path
       style="fill:#bf616a;fill-opacity:1;stroke-width:0.0927335"
       d="m 410.68254,525.18563 h -20.22222 c -1.92593,0 -2.88889,0.97958 -2.88889,2.93882 v 13.22461 c 0,1.46941 0.96296,2.44899 2.40741,2.44899 h 21.18518 c 1.44445,0 2.40741,-0.97958 2.40741,-2.44899 v -13.22461 c 0,-1.95924 -0.96296,-2.93882 -2.88889,-2.93882 z"
       id="path10-7"
       sodipodi:nodetypes="sssssssss" />
    <path
       fill-rule="evenodd"
       clip-rule="evenodd"
       d="m 397.1541,535.1651 c 0,-0.16899 0.13474,-0.30607 0.30095,-0.30607 0.16615,0 0.3009,0.13708 0.3009,0.30607 0,0.1691 -0.13475,0.30617 -0.3009,0.30617 -0.16621,0 -0.30095,-0.13707 -0.30095,-0.30617 z m 1.05326,-2.14283 c 0,-0.16908 0.13475,-0.30617 0.3009,-0.30617 0.16621,0 0.30095,0.13709 0.30095,0.30617 0,0.16899 -0.13474,0.3061 -0.30095,0.3061 -0.16615,0 -0.3009,-0.13711 -0.3009,-0.3061 z m 2.25695,-0.91842 c 0,-0.16899 0.13475,-0.30606 0.3009,-0.30606 0.16621,0 0.30095,0.13707 0.30095,0.30606 0,0.1691 -0.13474,0.30618 -0.30095,0.30618 -0.16615,0 -0.3009,-0.13708 -0.3009,-0.30618 z m 2.76826,1.00557 c 0.11964,0.12152 0.11964,0.31867 0,0.44019 l -1.94721,1.98097 c -0.1196,0.12156 -0.31325,0.12156 -0.43271,0 -0.11951,-0.12151 -0.11951,-0.31865 0,-0.44016 l 1.9472,-1.981 c 0.11959,-0.12153 0.31326,-0.12153 0.43272,0 z m 0.84285,1.74961 c 0.16615,0 0.3009,0.13708 0.3009,0.30607 0,0.1691 -0.13475,0.30617 -0.3009,0.30617 -0.16621,0 -0.30095,-0.13707 -0.30095,-0.30617 0,-0.16899 0.13474,-0.30607 0.30095,-0.30607 z m -4.21296,3.06125 h 1.80555 c 0.16615,0 0.3009,0.13706 0.3009,0.30611 0,0.16907 -0.13475,0.30613 -0.3009,0.30613 h -1.80555 c -0.16621,0 -0.30096,-0.13706 -0.30096,-0.30613 0,-0.16905 0.13475,-0.30611 0.30096,-0.30611 z m 0.90275,2.44899 c -1.32684,0 -2.52824,-0.54619 -3.39916,-1.42927 -0.0604,-0.0559 -0.0991,-0.13601 -0.0991,-0.22575 0,-0.16902 0.13473,-0.30609 0.30095,-0.30609 0.0855,0 0.16226,0.0369 0.21699,0.0949 l 9.6e-4,-9.9e-4 c 0.76242,0.77563 1.81567,1.2553 2.97903,1.2553 2.32673,0 4.21297,-1.91884 4.21297,-4.28575 0,-2.36694 -1.88624,-4.28579 -4.21297,-4.28579 -2.32673,0 -4.21296,1.91885 -4.21296,4.28579 0,0.28323 0.0319,0.55815 0.0856,0.82507 0.0851,0.23303 0.30465,0.39944 0.56328,0.39944 h 2.398 c 0.0755,0 0.14238,-0.038 0.18336,-0.0957 0.001,-0.002 0.004,-0.003 0.007,-0.004 0.21834,-0.30926 0.57275,-0.51223 0.97566,-0.51223 0.40288,0 0.75729,0.20297 0.97564,0.51223 0.003,4.9e-4 0.006,0.002 0.007,0.004 0.0408,0.0578 0.10784,0.0956 0.18335,0.0956 h 1.54227 c 0.16615,0 0.3009,0.13708 0.3009,0.30612 0,0.16903 -0.13475,0.30612 -0.3009,0.30612 h -1.58459 c -0.25654,0 -0.48266,-0.13112 -0.61844,-0.33066 -0.1071,-0.16906 -0.29284,-0.28158 -0.50533,-0.28158 -0.21249,0 -0.39823,0.11252 -0.50532,0.28158 -0.13577,0.19954 -0.36179,0.33066 -0.61845,0.33066 h -2.44032 c -0.5637,0 -1.03332,-0.39567 -1.16424,-0.9278 -0.0548,-0.29477 -0.0865,-0.59788 -0.0865,-0.90895 0,-2.70527 2.15565,-4.89803 4.81481,-4.89803 2.6591,0 4.81482,2.19276 4.81482,4.89803 0,2.70502 -2.15572,4.89798 -4.81482,4.89798 z"
       id="path5690-1"
       style="fill:#434c5e;fill-opacity:1;stroke-width:0.0189696" />
  </g>
</svg>
