<?xml version="1.0" encoding="UTF-8" standalone="no"?>
<svg
   width="32"
   version="1.1"
   height="32"
   viewBox="0 0 32 32"
   id="svg17"
   sodipodi:docname="folder-music.svg"
   inkscape:version="1.2.1 (9c6d41e410, 2022-07-14)"
   xmlns:inkscape="http://www.inkscape.org/namespaces/inkscape"
   xmlns:sodipodi="http://sodipodi.sourceforge.net/DTD/sodipodi-0.dtd"
   xmlns:xlink="http://www.w3.org/1999/xlink"
   xmlns="http://www.w3.org/2000/svg"
   xmlns:svg="http://www.w3.org/2000/svg"
   xmlns:rdf="http://www.w3.org/1999/02/22-rdf-syntax-ns#"
   xmlns:cc="http://creativecommons.org/ns#"
   xmlns:dc="http://purl.org/dc/elements/1.1/">
  <sodipodi:namedview
     pagecolor="#ffffff"
     bordercolor="#666666"
     borderopacity="1"
     objecttolerance="10"
     gridtolerance="10"
     guidetolerance="10"
     inkscape:pageopacity="0"
     inkscape:pageshadow="2"
     inkscape:window-width="1920"
     inkscape:window-height="1002"
     id="namedview19"
     showgrid="false"
     inkscape:zoom="9.8125"
     inkscape:cx="-8.3057325"
     inkscape:cy="7.2866242"
     inkscape:window-x="0"
     inkscape:window-y="0"
     inkscape:window-maximized="1"
     inkscape:current-layer="layer1"
     inkscape:document-rotation="0"
     inkscape:showpageshadow="2"
     inkscape:pagecheckerboard="0"
     inkscape:deskcolor="#d1d1d1" />
  <defs
     id="defs5455">
    <linearGradient
       inkscape:collect="always"
       xlink:href="#linearGradient860-6"
       id="linearGradient862-3"
       x1="113.94583"
       y1="366.97165"
       x2="406.08234"
       y2="159.71205"
       gradientUnits="userSpaceOnUse"
       gradientTransform="matrix(0.08570321,0,0,0.08743865,378.28739,508.28197)" />
    <linearGradient
       inkscape:collect="always"
       id="linearGradient860-6">
      <stop
         style="stop-color:#8fbcbb;stop-opacity:1;"
         offset="0"
         id="stop856-7" />
      <stop
         style="stop-color:#a3be8c;stop-opacity:1;"
         offset="1"
         id="stop858-5" />
    </linearGradient>
    <linearGradient
       inkscape:collect="always"
       xlink:href="#linearGradient842-5"
       id="linearGradient844-3"
       x1="386.3063"
       y1="539.79773"
       x2="447.95114"
       y2="504.71896"
       gradientUnits="userSpaceOnUse"
       gradientTransform="matrix(0.42958153,0,0,0.53058532,221.62138,257.38928)" />
    <linearGradient
       inkscape:collect="always"
       id="linearGradient842-5">
      <stop
         style="stop-color:#5e81ac;stop-opacity:1;"
         offset="0"
         id="stop838-6" />
      <stop
         style="stop-color:#88c0d0;stop-opacity:1;"
         offset="1"
         id="stop840-2" />
    </linearGradient>
  </defs>
  <metadata
     id="metadata5458">
    <rdf:RDF>
      <cc:Work
         rdf:about="">
        <dc:format>image/svg+xml</dc:format>
        <dc:type
           rdf:resource="http://purl.org/dc/dcmitype/StillImage" />
      </cc:Work>
    </rdf:RDF>
  </metadata>
  <g
     inkscape:label="Capa 1"
     inkscape:groupmode="layer"
     id="layer1"
     transform="translate(-384.57143,-515.798)">
    <path
       style="fill:url(#linearGradient862-3);fill-opacity:1;stroke-width:0.0802087"
       d="m 400.57019,522.247 c -0.37217,0 -0.81143,-0.24718 -0.97828,-0.54656 l -0.74837,-1.3453 c -0.16604,-0.29935 -0.60665,-0.54363 -0.97864,-0.54423 l -8.23478,-0.0129 c -1.2155,-0.002 -1.57753,0.44329 -1.57721,1.4245 l 1.4e-4,0.41351 v 1.21696 l -1.4e-4,16.04693 c 0,0.43777 0.97463,1.46938 1.44445,1.46938 h 22.14814 c 0.48149,0 1.44445,-0.97958 1.44445,-1.46938 v -15.18366 c 0,-0.97958 -0.48148,-1.46938 -1.42084,-1.46938 z"
       id="path4-3-9"
       sodipodi:nodetypes="sccsssccscsssss" />
    <path
       style="fill:#434c5e;fill-opacity:1;stroke-width:0.0824546"
       d="m 411.16402,528.32048 c 0,0.70043 -0.32854,1.27348 -1.08014,1.27348 h -19.06565 c -0.75159,0 -1.03939,-0.57305 -1.03939,-1.27348 V 524.696 c 0,-0.97962 0.48148,-1.46941 1.44444,-1.46941 h 18.2963 c 0.96296,0 1.44444,0.48979 1.44444,1.46941 z"
       id="path8-6-1"
       sodipodi:nodetypes="sssssssss" />
    <path
       style="fill:url(#linearGradient844-3);fill-opacity:1;stroke-width:0.0927331"
       d="m 410.68254,525.18579 h -20.22222 c -1.92593,0 -2.88889,0.97958 -2.88889,2.93879 v 13.2245 c 0,1.46939 0.96296,2.44897 2.40741,2.44897 h 21.18518 c 1.44445,0 2.40741,-0.97958 2.40741,-2.44897 v -13.2245 c 0,-1.95921 -0.96296,-2.93879 -2.88889,-2.93879 z"
       id="path10-2"
       sodipodi:nodetypes="sssssssss" />
    <path
       style="fill:#434c5e;fill-opacity:1;stroke-width:0.485621"
       id="rect4128-3-3-8"
       d="m 398.30847,530.57373 v 0.97961 0.97959 0.48979 4.78796 c -0.25561,-0.23374 -0.59064,-0.37978 -0.96297,-0.37978 -0.80022,0 -1.44444,0.65536 -1.44444,1.4694 0,0.81405 0.64422,1.46935 1.44444,1.46935 0.80022,0 1.44445,-0.6553 1.44445,-1.46935 v -5.87758 h 6.25926 v 3.31857 c -0.25561,-0.23374 -0.59064,-0.37978 -0.96297,-0.37978 -0.80022,0 -1.44444,0.65536 -1.44444,1.46939 0,0.81404 0.64422,1.4694 1.44444,1.4694 0.80022,0 1.44445,-0.65536 1.44445,-1.4694 v -6.85717 z m 0.48148,0.97961 h 6.25926 v 0.97959 h -6.25926 z" />
  </g>
</svg>
