<?xml version="1.0" encoding="UTF-8" standalone="no"?>
<svg
   width="64"
   height="64"
   inkscape:version="1.2.1 (9c6d41e410, 2022-07-14)"
   sodipodi:docname="com.gitlab.newsflash.svg"
   version="1.1"
   viewBox="0 0 64 64"
   id="svg21"
   xmlns:inkscape="http://www.inkscape.org/namespaces/inkscape"
   xmlns:sodipodi="http://sodipodi.sourceforge.net/DTD/sodipodi-0.dtd"
   xmlns="http://www.w3.org/2000/svg"
   xmlns:svg="http://www.w3.org/2000/svg">
  <defs
     id="defs11">
    <linearGradient
       x1="-93.749"
       x2="-88.972"
       y1="23.632"
       y2="18.964"
       gradientTransform="matrix(1 0 0 1 131.51 -.51062)"
       gradientUnits="userSpaceOnUse"
       id="linearGradient6">
      <stop
         stop-color="#32d7ff"
         offset="0"
         id="stop2" />
      <stop
         stop-color="#329bff"
         offset="1"
         id="stop4" />
    </linearGradient>
    <filter
       id="filter1057-1"
       x="-0.026999999"
       y="-0.026999999"
       width="1.054"
       height="1.054"
       color-interpolation-filters="sRGB">
      <feGaussianBlur
         stdDeviation="0.61875"
         id="feGaussianBlur8" />
    </filter>
  </defs>
  <sodipodi:namedview
     width="64px"
     bordercolor="#666666"
     borderopacity="1.0"
     inkscape:current-layer="svg21"
     inkscape:cx="20.0625"
     inkscape:cy="28.0625"
     inkscape:pagecheckerboard="0"
     inkscape:pageopacity="0.0"
     inkscape:pageshadow="2"
     inkscape:window-height="1002"
     inkscape:window-maximized="1"
     inkscape:window-width="1920"
     inkscape:window-x="0"
     inkscape:window-y="0"
     inkscape:zoom="8"
     pagecolor="#ffffff"
     showgrid="true"
     id="namedview13"
     inkscape:showpageshadow="2"
     inkscape:deskcolor="#d1d1d1">
    <inkscape:grid
       type="xygrid"
       id="grid351" />
  </sodipodi:namedview>
  <rect
     x="4.5"
     y="4.5"
     width="55"
     height="55"
     ry="15"
     fill="#141414"
     filter="url(#filter1057-1)"
     opacity=".3"
     stroke-linecap="round"
     stroke-width="2.7444"
     id="rect15" />
  <rect
     x="3.5"
     y="3.5"
     width="57.000999"
     height="57.000999"
     ry="10.882224"
     stroke-linecap="round"
     stroke-width="2.8442"
     id="rect17"
     rx="10.882428"
     style="fill:#5e81ac;fill-opacity:1" />
  <path
     d="m29.785 14.952-6.7097 17.544c-0.05105 0.17019-0.01064 0.34888 0.05957 0.44887 0.08934 0.09998 0.17019 0.21912 0.40845 0.24039l4.7057-0.02128c0.15955 0 0.29996 0.0702 0.35952 0.21912 0.03829 0.12977 0.04893 0.25954 0 0.44036l-4.0781 14.934c-0.02978 0.11913-0.0702 0.38718 0.20848 0.568 0.18082 0.1085 0.54035 0.04893 0.75946-0.17019l15.362-19.369c0.09999-0.15955 0.11062-0.43823 0.04893-0.568-0.05957-0.12977-0.18933-0.31059-0.48716-0.34038l-7.1692-0.26804c-0.20848-0.04042-0.27868-0.1404-0.33825-0.21912-0.07871-0.12126-0.09999-0.28932-0.01915-0.47014l5.8715-12.741c0.07872-0.16806 0.07872-0.28719 0.02979-0.37867-0.04042-0.07871-0.17019-0.1787-0.39782-0.1787h-8.0052c-0.11062 0-0.48929 0.04042-0.60842 0.32974z"
     fill="#fff"
     stroke-width=".5446"
     id="path19" />
</svg>
