<?xml version="1.0" encoding="UTF-8" standalone="no"?>
<!-- Created with Inkscape (http://www.inkscape.org/) -->

<svg
   width="64.0px"
   height="64.0px"
   viewBox="0 0 64.0 64.0"
   version="1.1"
   id="SVGRoot"
   sodipodi:docname="juk.svg"
   inkscape:version="1.2.1 (9c6d41e410, 2022-07-14)"
   xmlns:inkscape="http://www.inkscape.org/namespaces/inkscape"
   xmlns:sodipodi="http://sodipodi.sourceforge.net/DTD/sodipodi-0.dtd"
   xmlns:xlink="http://www.w3.org/1999/xlink"
   xmlns="http://www.w3.org/2000/svg"
   xmlns:svg="http://www.w3.org/2000/svg">
  <sodipodi:namedview
     id="namedview400"
     pagecolor="#ffffff"
     bordercolor="#666666"
     borderopacity="1.0"
     inkscape:showpageshadow="2"
     inkscape:pageopacity="0.0"
     inkscape:pagecheckerboard="0"
     inkscape:deskcolor="#d1d1d1"
     inkscape:document-units="px"
     showgrid="true"
     inkscape:zoom="9.5144352"
     inkscape:cx="42.514347"
     inkscape:cy="41.148002"
     inkscape:window-width="1920"
     inkscape:window-height="1002"
     inkscape:window-x="0"
     inkscape:window-y="0"
     inkscape:window-maximized="1"
     inkscape:current-layer="layer1">
    <inkscape:grid
       type="xygrid"
       id="grid523" />
  </sodipodi:namedview>
  <defs
     id="defs395">
    <filter
       id="filter1057"
       x="-0.026999999"
       y="-0.026999999"
       width="1.054"
       height="1.054"
       color-interpolation-filters="sRGB">
      <feGaussianBlur
         stdDeviation="0.61875"
         id="feGaussianBlur860" />
    </filter>
    <linearGradient
       inkscape:collect="always"
       xlink:href="#linearGradient959"
       id="linearGradient961"
       x1="4"
       y1="61"
       x2="60"
       y2="4"
       gradientUnits="userSpaceOnUse"
       gradientTransform="translate(0.485,0.48499882)" />
    <linearGradient
       inkscape:collect="always"
       id="linearGradient959">
      <stop
         style="stop-color:#ebcb8b;stop-opacity:1;"
         offset="0"
         id="stop955" />
      <stop
         style="stop-color:#bf616a;stop-opacity:1;"
         offset="1"
         id="stop957" />
    </linearGradient>
    <filter
       id="filter2174"
       x="-0.15989216"
       y="-0.094877244"
       width="1.3197843"
       height="1.1897545"
       color-interpolation-filters="sRGB">
      <feGaussianBlur
         stdDeviation="0.25608494"
         id="feGaussianBlur4" />
    </filter>
    <linearGradient
       id="a"
       y1="543.79999"
       y2="503.79999"
       x2="0"
       gradientUnits="userSpaceOnUse"
       gradientTransform="translate(-376.068,-491.29999)">
      <stop
         stop-color="#18222a"
         id="stop267" />
      <stop
         offset="1"
         stop-color="#566069"
         id="stop269" />
    </linearGradient>
    <linearGradient
       id="f"
       y1="15"
       x1="15"
       y2="36"
       x2="36"
       gradientUnits="userSpaceOnUse"
       gradientTransform="translate(8.5020004,8.5000124)">
      <stop
         stop-color="#292c2f"
         id="stop288" />
      <stop
         offset="1"
         stop-opacity="0"
         id="stop290" />
    </linearGradient>
    <linearGradient
       id="b"
       y1="539.79999"
       y2="507.79999"
       gradientUnits="userSpaceOnUse"
       x2="0"
       gradientTransform="translate(-376.068,-491.29999)">
      <stop
         stop-color="#2f3943"
         id="stop272" />
      <stop
         offset="1"
         stop-color="#808c9b"
         id="stop274" />
    </linearGradient>
    <linearGradient
       id="e"
       y1="536.79999"
       y2="510.79999"
       gradientUnits="userSpaceOnUse"
       x2="0"
       gradientTransform="translate(-376.068,-491.29999)">
      <stop
         stop-color="#2f3943"
         id="stop283" />
      <stop
         offset="1"
         stop-color="#4d5662"
         id="stop285" />
    </linearGradient>
    <linearGradient
       id="d"
       xlink:href="#c"
       y1="522.79999"
       y2="527.79999"
       gradientUnits="userSpaceOnUse"
       x2="0"
       gradientTransform="translate(-368.068,-503.29999)" />
    <linearGradient
       id="c"
       y1="518.79999"
       y2="520.79999"
       gradientUnits="userSpaceOnUse"
       x2="0"
       gradientTransform="translate(8,-12)">
      <stop
         stop-color="#197cf1"
         id="stop277" />
      <stop
         offset="1"
         stop-color="#21c9fb"
         id="stop279" />
    </linearGradient>
    <linearGradient
       id="linearGradient578"
       y1="518.79999"
       y2="520.79999"
       gradientUnits="userSpaceOnUse"
       x2="0"
       gradientTransform="translate(8,-12)">
      <stop
         stop-color="#197cf1"
         id="stop574" />
      <stop
         offset="1"
         stop-color="#21c9fb"
         id="stop576" />
    </linearGradient>
    <linearGradient
       id="a-3"
       y1="543.79999"
       y2="503.79999"
       x2="0"
       gradientUnits="userSpaceOnUse">
      <stop
         stop-color="#2a2c2f"
         id="stop446" />
      <stop
         offset="1"
         stop-color="#424649"
         id="stop448" />
    </linearGradient>
    <linearGradient
       id="d-6"
       y1="523.79999"
       x1="408.57001"
       y2="537.79999"
       x2="422.57001"
       gradientUnits="userSpaceOnUse"
       gradientTransform="translate(-376.068,-491.29999)">
      <stop
         stop-color="#292c2f"
         id="stop457" />
      <stop
         offset="1"
         stop-opacity="0"
         id="stop459" />
    </linearGradient>
    <linearGradient
       id="b-7"
       y1="530.79999"
       y2="516.79999"
       gradientUnits="userSpaceOnUse"
       x2="0"
       gradientTransform="translate(-376.068,-491.29999)">
      <stop
         stop-color="#ee643a"
         id="stop451" />
      <stop
         offset="1"
         stop-color="#fe9473"
         id="stop453" />
    </linearGradient>
    <linearGradient
       xlink:href="#a-3"
       id="c-5"
       y1="-521.79999"
       y2="-525.79999"
       gradientUnits="userSpaceOnUse"
       x2="0"
       gradientTransform="translate(-376.068,491.29999)" />
    <linearGradient
       id="linearGradient689"
       y1="543.79999"
       y2="503.79999"
       x2="0"
       gradientUnits="userSpaceOnUse">
      <stop
         stop-color="#2a2c2f"
         id="stop685" />
      <stop
         offset="1"
         stop-color="#424649"
         id="stop687" />
    </linearGradient>
    <linearGradient
       inkscape:collect="always"
       xlink:href="#a-3"
       id="linearGradient708"
       gradientUnits="userSpaceOnUse"
       y1="543.79999"
       x2="0"
       y2="503.79999"
       gradientTransform="translate(-376.068,-491.29999)" />
  </defs>
  <g
     inkscape:label="Layer 1"
     inkscape:groupmode="layer"
     id="layer1">
    <rect
       x="4.9850001"
       y="4.9850001"
       width="55"
       height="55"
       ry="15"
       filter="url(#filter1057)"
       opacity="0.3"
       stroke-linecap="round"
       stroke-width="2.7444"
       id="rect896" />
    <rect
       x="3.9849997"
       y="3.9849994"
       width="57"
       height="57"
       ry="15.545461"
       stroke-linecap="round"
       stroke-width="2.8442"
       id="rect898"
       style="fill:url(#linearGradient961);fill-opacity:1" />
    <rect
       width="40"
       x="12.502007"
       y="12.5"
       rx="20"
       height="40"
       id="rect464"
       style="fill:url(#linearGradient708)" />
    <rect
       width="14"
       x="25.502007"
       y="25.500002"
       rx="7"
       height="14"
       id="rect468"
       style="fill:#ff9955;fill-opacity:1" />
    <rect
       width="4"
       x="30.502007"
       y="-34.5"
       rx="2"
       height="4"
       transform="scale(1,-1)"
       id="rect470"
       style="fill:url(#c-5)" />
    <path
       fill-opacity="0.275"
       d="m 32.502,26.500012 c -3.324,0 -6,2.676 -6,6 0,3.324 2.676,6 6,6 3.324,0 6,-2.676 6,-6 0,-3.324 -2.676,-6 -6,-6 m 0,1 c 2.77,0 5,2.23 5,5 0,2.77 -2.23,5 -5,5 -2.77,0 -5,-2.23 -5,-5 0,-2.77 2.23,-5 5,-5"
       id="path472" />
    <g
       id="g488"
       transform="translate(-376.068,-491.29999)">
      <path
         d="m 418.07,507.34 c -0.971,-0.56 -1.973,-1 -2.99,-1.377 l -3.465,9.368 c 0.495,0.179 0.982,0.396 1.454,0.668 0.472,0.273 0.903,0.587 1.306,0.925 l 6.381,-7.685 c -0.83,-0.694 -1.716,-1.34 -2.687,-1.901"
         id="path474" />
      <path
         d="m 399.07,540.25 c -0.971,-0.56 -1.857,-1.207 -2.687,-1.901 l 6.381,-7.685 c 0.403,0.339 0.834,0.653 1.306,0.925 0.472,0.273 0.96,0.489 1.454,0.668 l -3.465,9.368 c -1.016,-0.372 -2.02,-0.816 -2.99,-1.376"
         id="path476" />
      <g
         fill-opacity="0.198"
         id="g486">
        <path
           d="m 422.01,510.36 c -0.793,-0.793 -1.646,-1.481 -2.531,-2.103 l -5.771,8.152 c 0.431,0.301 0.846,0.636 1.232,1.022 0.386,0.386 0.721,0.801 1.022,1.232 l 8.152,-5.771 c -0.622,-0.885 -1.311,-1.739 -2.103,-2.531"
           id="path478" />
        <path
           d="m 395.14,537.23 c -0.793,-0.793 -1.481,-1.646 -2.103,-2.532 l 8.152,-5.771 c 0.301,0.431 0.636,0.846 1.022,1.232 0.386,0.386 0.801,0.721 1.232,1.022 l -5.771,8.152 c -0.885,-0.622 -1.739,-1.311 -2.531,-2.103"
           id="path480" />
        <path
           d="m 425.03,514.3 c -0.56,-0.971 -1.207,-1.857 -1.901,-2.687 l -7.685,6.381 c 0.339,0.403 0.653,0.834 0.925,1.306 0.273,0.472 0.489,0.96 0.668,1.454 l 9.368,-3.465 c -0.372,-1.016 -0.816,-2.02 -1.377,-2.99"
           id="path482" />
        <path
           d="m 392.12,533.3 c -0.56,-0.971 -1,-1.973 -1.377,-2.99 l 9.368,-3.465 c 0.179,0.495 0.396,0.982 0.668,1.454 0.273,0.472 0.587,0.903 0.925,1.306 l -7.685,6.381 c -0.694,-0.83 -1.34,-1.716 -1.901,-2.687"
           id="path484" />
      </g>
    </g>
    <path
       d="m 12.512,32.000012 c -0.004,0.167 -0.012,0.332 -0.012,0.5 0,11.08 8.92,20 20,20 11.08,0 20,-8.92 20,-20 0,-0.168 -0.008,-0.333 -0.012,-0.5 -0.265,10.846 -9.08,19.5 -19.988,19.5 -10.912,0 -19.724,-8.654 -19.988,-19.5"
       id="path490" />
  </g>
</svg>
