<?xml version="1.0" encoding="UTF-8" standalone="no"?>
<svg
   id="svg305"
   width="64"
   height="64"
   version="1.1"
   viewBox="0 0 16.933 16.933"
   sodipodi:docname="kate.svg"
   inkscape:version="1.2.1 (9c6d41e410, 2022-07-14)"
   xmlns:inkscape="http://www.inkscape.org/namespaces/inkscape"
   xmlns:sodipodi="http://sodipodi.sourceforge.net/DTD/sodipodi-0.dtd"
   xmlns:xlink="http://www.w3.org/1999/xlink"
   xmlns="http://www.w3.org/2000/svg"
   xmlns:svg="http://www.w3.org/2000/svg">
  <sodipodi:namedview
     id="namedview1015"
     pagecolor="#ffffff"
     bordercolor="#666666"
     borderopacity="1.0"
     inkscape:showpageshadow="2"
     inkscape:pageopacity="0.0"
     inkscape:pagecheckerboard="0"
     inkscape:deskcolor="#d1d1d1"
     showgrid="false"
     inkscape:zoom="5.2149125"
     inkscape:cx="29.24306"
     inkscape:cy="41.227921"
     inkscape:window-width="1920"
     inkscape:window-height="1002"
     inkscape:window-x="0"
     inkscape:window-y="0"
     inkscape:window-maximized="1"
     inkscape:current-layer="svg305"
     inkscape:lockguides="false">
    <inkscape:grid
       type="xygrid"
       id="grid184" />
  </sodipodi:namedview>
  <defs
     id="defs279">
    <linearGradient
       x1="77.166962"
       x2="64.371704"
       y1="115.71481"
       y2="112.00438"
       gradientTransform="matrix(.43115619 0 0 .44077084 -45.905583 -43.474049)"
       gradientUnits="userSpaceOnUse"
       id="linearGradient387">
      <stop
         id="stop1237"
         stop-color="#0cf"
         offset="0" />
      <stop
         id="stop1239"
         stop-color="#2a7fff"
         offset="1"
         style="stop-color:#297eff;stop-opacity:1;" />
    </linearGradient>
    <filter
       id="filter2076-6"
       x="-0.048000001"
       y="-0.048000001"
       width="1.096"
       height="1.096"
       color-interpolation-filters="sRGB">
      <feGaussianBlur
         id="feGaussianBlur256"
         stdDeviation="1.1" />
    </filter>
    <linearGradient
       id="linearGradient2070"
       x1="145"
       x2="200"
       y1="59"
       y2="4"
       gradientTransform="matrix(0.26458,0,0,0.26458,-12.222244,-3.2552134)"
       gradientUnits="userSpaceOnUse">
      <stop
         id="stop259"
         stop-color="#0669ff"
         offset="0" />
      <stop
         id="stop263"
         stop-color="#0cf"
         offset="1" />
    </linearGradient>
    <linearGradient
       id="c"
       x1="61.163261"
       x2="64.927658"
       y1="105.1096"
       y2="109.0449"
       gradientTransform="matrix(0.50610179,0,0,0.5173877,-26.304223,-50.7516)"
       gradientUnits="userSpaceOnUse">
      <stop
         id="stop12"
         stop-color="#e6e6e6"
         offset="0" />
      <stop
         id="stop14"
         stop-color="#d9d9d9"
         offset="1" />
    </linearGradient>
    <linearGradient
       id="d"
       x1="77.166962"
       x2="64.371704"
       y1="115.71481"
       y2="112.00438"
       gradientTransform="matrix(0.50610179,0,0,0.5173877,-26.304223,-50.7516)"
       gradientUnits="userSpaceOnUse">
      <stop
         id="stop17"
         stop-color="#0cf"
         offset="0" />
      <stop
         id="stop19"
         stop-color="#2a7fff"
         offset="1" />
    </linearGradient>
    <linearGradient
       id="e"
       x1="68.7071"
       x2="75.81916"
       y1="113.06454"
       y2="117.91264"
       gradientTransform="matrix(0.50610179,0,0,0.5173877,-26.304223,-50.7516)"
       gradientUnits="userSpaceOnUse">
      <stop
         id="stop2"
         stop-color="#2a7fff"
         offset="0" />
      <stop
         id="stop4"
         stop-color="#0cf"
         offset="1" />
    </linearGradient>
    <linearGradient
       id="g"
       x1="77.401382"
       x2="68.670082"
       y1="106.36805"
       y2="120.35797"
       gradientTransform="matrix(0.50610179,0,0,0.5173877,-26.304223,-50.7516)"
       gradientUnits="userSpaceOnUse">
      <stop
         id="stop1643"
         stop-color="#fff"
         offset="0" />
      <stop
         id="stop1645"
         stop-color="#d9d9d9"
         offset="1" />
    </linearGradient>
    <linearGradient
       id="h"
       x1="68.228661"
       x2="68.16433"
       y1="112.73174"
       y2="118.55463"
       gradientTransform="matrix(0.50610179,0,0,0.5173877,-26.304223,-50.7516)"
       gradientUnits="userSpaceOnUse">
      <stop
         id="stop29"
         stop-color="#d9d9d9"
         offset="0" />
      <stop
         id="stop31"
         stop-color="#fff"
         offset="1" />
    </linearGradient>
    <linearGradient
       id="i"
       x1="63.36673"
       x2="71.135635"
       y1="106.86487"
       y2="104.88973"
       gradientTransform="matrix(0.50610179,0,0,0.5173877,-26.304223,-50.7516)"
       gradientUnits="userSpaceOnUse">
      <stop
         id="stop23"
         stop-color="#fff"
         offset="0" />
      <stop
         id="stop25"
         stop-color="#d9d9d9"
         offset="1" />
    </linearGradient>
    <linearGradient
       id="j"
       x1="66.951469"
       x2="66.335762"
       y1="104.46095"
       y2="109.66759"
       gradientTransform="matrix(0.50610179,0,0,0.5173877,-26.304223,-50.7516)"
       gradientUnits="userSpaceOnUse">
      <stop
         id="stop35"
         stop-color="#ccc"
         offset="0" />
      <stop
         id="stop37"
         stop-color="#d9d9d9"
         offset="1" />
    </linearGradient>
    <linearGradient
       id="k"
       x1="62.960659"
       x2="77.488457"
       y1="115.88342"
       y2="107.31376"
       gradientTransform="matrix(0.50610179,0,0,0.5173877,-26.304223,-50.7516)"
       gradientUnits="userSpaceOnUse">
      <stop
         id="stop40"
         stop-color="#e6e6e6"
         offset="0" />
      <stop
         id="stop42"
         stop-color="#fff"
         offset="1" />
    </linearGradient>
    <linearGradient
       inkscape:collect="always"
       xlink:href="#linearGradient1567"
       id="linearGradient1569"
       x1="1.1906101"
       y1="15.74251"
       x2="15.743"
       y2="1.1904995"
       gradientUnits="userSpaceOnUse" />
    <linearGradient
       inkscape:collect="always"
       id="linearGradient1184"
       x1="1.1906101"
       y1="15.74251"
       x2="15.74251"
       y2="1.1906101"
       gradientUnits="userSpaceOnUse" />
    <linearGradient
       id="linearGradient1340"
       x1="8.6644001"
       x2="8.6183996"
       y1="15.931"
       y2="1.0002"
       gradientUnits="userSpaceOnUse"
       gradientTransform="translate(-1.7522336e-5,2.0766632e-5)">
      <stop
         stop-color="#88c0d0"
         offset="0"
         id="stop5" />
      <stop
         stop-color="#5e81ac"
         offset="1"
         id="stop7" />
    </linearGradient>
    <linearGradient
       inkscape:collect="always"
       xlink:href="#c"
       id="linearGradient2800"
       gradientUnits="userSpaceOnUse"
       gradientTransform="matrix(0.50610179,0,0,0.5173877,-26.674643,-50.646183)"
       x1="61.163261"
       y1="105.1096"
       x2="64.927658"
       y2="109.0449" />
    <linearGradient
       inkscape:collect="always"
       xlink:href="#d"
       id="linearGradient2802"
       gradientUnits="userSpaceOnUse"
       gradientTransform="matrix(0.50610179,0,0,0.5173877,-26.674643,-50.646183)"
       x1="77.166962"
       y1="115.71481"
       x2="64.371704"
       y2="112.00438" />
    <linearGradient
       inkscape:collect="always"
       xlink:href="#e"
       id="linearGradient2804"
       gradientUnits="userSpaceOnUse"
       gradientTransform="matrix(0.50610179,0,0,0.5173877,-26.674643,-50.646183)"
       x1="68.7071"
       y1="113.06454"
       x2="75.81916"
       y2="117.91264" />
    <linearGradient
       inkscape:collect="always"
       xlink:href="#g"
       id="linearGradient2806"
       gradientUnits="userSpaceOnUse"
       gradientTransform="matrix(0.50610179,0,0,0.5173877,-26.674643,-50.646183)"
       x1="77.401382"
       y1="106.36805"
       x2="68.670082"
       y2="120.35797" />
    <linearGradient
       inkscape:collect="always"
       xlink:href="#h"
       id="linearGradient2808"
       gradientUnits="userSpaceOnUse"
       gradientTransform="matrix(0.50610179,0,0,0.5173877,-26.674643,-50.646183)"
       x1="68.228661"
       y1="112.73174"
       x2="68.16433"
       y2="118.55463" />
    <linearGradient
       inkscape:collect="always"
       xlink:href="#i"
       id="linearGradient2810"
       gradientUnits="userSpaceOnUse"
       gradientTransform="matrix(0.50610179,0,0,0.5173877,-26.674643,-50.646183)"
       x1="63.36673"
       y1="106.86487"
       x2="71.135635"
       y2="104.88973" />
    <linearGradient
       inkscape:collect="always"
       xlink:href="#j"
       id="linearGradient2812"
       gradientUnits="userSpaceOnUse"
       gradientTransform="matrix(0.50610179,0,0,0.5173877,-26.674643,-50.646183)"
       x1="66.951469"
       y1="104.46095"
       x2="66.335762"
       y2="109.66759" />
    <linearGradient
       inkscape:collect="always"
       xlink:href="#k"
       id="linearGradient2814"
       gradientUnits="userSpaceOnUse"
       gradientTransform="matrix(0.50610179,0,0,0.5173877,-26.674643,-50.646183)"
       x1="62.960659"
       y1="115.88342"
       x2="77.488457"
       y2="107.31376" />
  </defs>
  <rect
     id="rect281"
     transform="scale(.26458)"
     x="4.5"
     y="4.5"
     width="55"
     height="55"
     rx="13.002"
     ry="13.002"
     filter="url(#filter2076-6)"
     opacity=".3" />
  <rect
     id="rect283"
     x="1.1905"
     y="1.1905596"
     width="14.552"
     height="14.552"
     rx="3.4400001"
     ry="3.4400001"
     fill="url(#linearGradient2070)"
     stroke-width="0.26458"
     style="fill:url(#linearGradient1184);fill-opacity:1" />
  <rect
     x="0.92602342"
     y="0.92605984"
     width="15.081"
     height="15.081"
     rx="3"
     ry="3"
     fill="url(#linearGradient1340)"
     stroke-linecap="round"
     stroke-linejoin="round"
     stroke-width="1.2274"
     id="rect35"
     style="fill:url(#linearGradient1340)" />
  <path
     id="path57-3-5"
     d="m 6.4389696,6.2247788 c -0.402219,-1.335305 -2.675221,-1.011286 -3.055161,-1.040275 0.426439,-0.211684 0.811817,-0.386173 1.690945,-1.02302 1.693579,-1.22684 3.486631,-0.959284 4.384543,-0.472075 -2.45476,0.09332 -1.98711,1.43067 -1.625546,2.135331 -0.459803,0.133559 -1.185637,0.335175 -1.394781,0.400039 z"
     fill="url(#c)"
     style="fill:url(#linearGradient2800);stroke-width:0.135391" />
  <path
     id="path59-1-6"
     d="m 12.498334,4.3873388 c -0.883961,1.167604 -2.353639,2.745119 -3.9621164,2.952918 -1.608478,0.207798 -3.141899,-0.0224 -3.497103,1.1755151 -0.327108,1.103174 0.823368,2.1331531 2.016608,1.8849161 1.274753,-0.265197 0.99945,-1.7100391 0.302211,-2.6939398 0.529619,-0.03037 0.431103,-0.022506 1.329221,-0.067778 C 10.025849,8.7800635 10.469572,9.105402 12.808352,10.770247 11.006042,10.581484 10.350086,10.408169 9.0574086,9.6349484 9.3922806,10.475507 10.108029,12.38324 10.263069,13.863481 9.5175046,12.792152 9.2348566,12.398441 8.0794086,11.625551 6.5993556,10.63553 5.4006816,10.602014 4.7069096,9.1434094 c -0.692275,-1.4554531 0.224044,-2.5038716 1.86373,-2.9579106 2.343228,-0.648856 4.3622334,-1.26403 5.9276944,-1.79816 z"
     fill="url(#d)"
     style="fill:url(#linearGradient2802);stroke-width:0.135391" />
  <path
     id="path61-9-9"
     d="m 7.3579336,7.7067482 c 0.529619,-0.03037 0.431103,-0.022506 1.329221,-0.067778 C 10.025849,8.7800635 10.469572,9.105402 12.808352,10.770247 10.457564,10.602081 8.6788936,9.9087655 7.3579336,7.7067482 Z"
     fill="url(#e)"
     style="fill:url(#linearGradient2804);stroke-width:0.135391" />
  <path
     id="path63-4-3"
     d="m 12.498334,4.3873388 c -0.883961,1.167604 -2.353639,2.745119 -3.9621164,2.952918 -1.608478,0.207798 -3.141899,-0.0224 -3.497103,1.1755151 -0.327108,1.103174 0.823368,2.1331531 2.016608,1.8849161 1.274753,-0.265197 0.99945,-1.7100391 0.302211,-2.6939398 0.529619,-0.03037 0.431103,-0.022506 1.329221,-0.067778 C 10.025849,8.7800635 10.469572,9.105402 12.808352,10.770247 11.006042,10.581484 10.350086,10.408169 9.0574086,9.6349484 9.3922806,10.475507 10.108029,12.38324 10.263069,13.863481 9.5175046,12.792152 9.2348566,12.398441 8.0794086,11.625551 6.5993556,10.63553 5.4006816,10.602014 4.7069096,9.1434094 c -0.692275,-1.4554531 0.224044,-2.5038716 1.86373,-2.9579106 2.343228,-0.648856 4.3622334,-1.26403 5.9276944,-1.79816 z"
     fill="url(#g)"
     style="fill:url(#linearGradient2806);stroke-width:0.135391" />
  <path
     id="path65-7-7"
     d="m 7.3579336,7.7067482 c 0.529619,-0.03037 0.431103,-0.022506 1.329221,-0.067778 C 10.025849,8.7800635 10.469572,9.105402 12.808352,10.770247 10.457564,10.602081 8.6788936,9.9087655 7.3579336,7.7067482 Z"
     fill="url(#h)"
     style="fill:url(#linearGradient2808);stroke-width:0.135391" />
  <path
     id="path67-8-4"
     d="m 3.3838086,5.1845038 c 0.426439,-0.211684 0.811817,-0.386173 1.690945,-1.02302 1.693579,-1.22684 3.486631,-0.959284 4.384543,-0.472075 -2.45476,0.09332 -2.138471,0.582423 -2.14753,0.965854 -1.63095,-0.343783 -2.107152,0.123966 -3.927958,0.529241 z"
     fill="url(#i)"
     style="fill:url(#linearGradient2810);stroke-width:0.135391" />
  <path
     id="path69-4-5"
     d="m 9.4592966,3.6894088 c -2.45476,0.09332 -1.98711,1.43067 -1.625546,2.135331 -0.286456,0.08321 -0.596934,0.177997 -0.979869,0.279343 -1.545097,-2.753103 1.344342,-3.111264 2.605415,-2.414674 z"
     fill="url(#j)"
     style="fill:url(#linearGradient2812);stroke-width:0.135391" />
  <path
     id="path71-5-2"
     d="M 5.1489356,9.8292692 C 3.9477086,8.2825438 4.1695016,6.8648348 6.5216756,6.1282398 8.8428796,5.4013408 10.932873,4.9214688 12.498334,4.3873388 8.2737306,5.9970038 2.9837016,7.0725758 5.1489356,9.8292692 Z"
     fill="url(#k)"
     style="fill:url(#linearGradient2814);stroke-width:0.135391" />
</svg>
