<?xml version="1.0" encoding="UTF-8" standalone="no"?>
<svg
   viewBox="0 0 64 64"
   version="1.1"
   id="svg33"
   sodipodi:docname="kimagemapeditor.svg"
   width="64"
   height="64"
   inkscape:version="1.2.1 (9c6d41e410, 2022-07-14)"
   xmlns:inkscape="http://www.inkscape.org/namespaces/inkscape"
   xmlns:sodipodi="http://sodipodi.sourceforge.net/DTD/sodipodi-0.dtd"
   xmlns="http://www.w3.org/2000/svg"
   xmlns:svg="http://www.w3.org/2000/svg">
  <defs
     id="defs37" />
  <sodipodi:namedview
     id="namedview35"
     pagecolor="#ffffff"
     bordercolor="#666666"
     borderopacity="1.0"
     inkscape:showpageshadow="2"
     inkscape:pageopacity="0.0"
     inkscape:pagecheckerboard="0"
     inkscape:deskcolor="#d1d1d1"
     showgrid="false"
     inkscape:zoom="4.9166667"
     inkscape:cx="24.101695"
     inkscape:cy="24.101695"
     inkscape:window-width="1920"
     inkscape:window-height="1002"
     inkscape:window-x="0"
     inkscape:window-y="0"
     inkscape:window-maximized="1"
     inkscape:current-layer="svg33" />
  <linearGradient
     id="a"
     gradientUnits="userSpaceOnUse"
     x1="4"
     x2="4"
     y1="3"
     y2="45"
     gradientTransform="matrix(1.4249913,0,0,1.4249913,-2.199965,-2.1996152)">
    <stop
       offset="0"
       stop-color="#27ae60"
       id="stop2" />
    <stop
       offset="1"
       stop-color="#2ecc71"
       id="stop4" />
  </linearGradient>
  <linearGradient
     id="b"
     gradientUnits="userSpaceOnUse"
     x1="4"
     x2="4"
     y1="3"
     y2="45"
     gradientTransform="matrix(1.4249913,0,0,1.4249913,-2.199965,-2.1996152)">
    <stop
       offset="0"
       stop-color="#21c9fb"
       id="stop7" />
    <stop
       offset="1"
       stop-color="#197cf1"
       id="stop9" />
  </linearGradient>
  <path
     d="M 12.049948,3.5003498 C 7.3474764,3.5003498 3.5,7.3478262 3.5,12.050298 V 51.950052 C 3.5,56.686723 7.3474764,60.5 12.049948,60.5 h 39.899755 c 4.702471,0 8.549947,-3.813277 8.549947,-8.549948 V 12.050298 c 0,-4.7024718 -3.847476,-8.5499482 -8.549947,-8.5499482 z"
     style="fill:#34495e;stroke-width:1.42499"
     id="path12" />
  <path
     d="M 12.049948,3.5000016 C 7.3474764,3.5000016 3.5,7.347478 3.5,12.050163 v 38.474623 c 0,4.736671 3.8134747,8.549947 8.549948,8.550161 h 39.899351 c 4.702472,0 8.549948,-3.847476 8.55013,-8.550161 V 12.050163 c 0,-4.7024712 -3.813476,-8.5499475 -8.549947,-8.5499475"
     fill="#34495e"
     id="path14"
     style="stroke-width:1.42499" />
  <path
     style="fill:url(#a);stroke-width:1.42499"
     d="M 12.049948,3.5003498 C 7.3474764,3.5003498 3.5,7.3478262 3.5,12.050298 v 38.474763 c 0,4.736671 3.8474764,8.549948 8.549948,8.549948 h 39.899755 c 4.702471,0 8.549947,-3.813277 8.549947,-8.549948 V 12.050298 c 0,-4.7024718 -3.847476,-8.5499482 -8.549947,-8.5499482 z"
     id="path16" />
  <path
     d="M 31.999825,3.5000016 V 59.074947 h 19.949306 c 4.702471,0 8.549948,-3.847476 8.549948,-8.550161 V 12.050162 C 60.499079,7.3134906 56.685603,3.5 51.949131,3.5 H 31.999825 Z"
     fill="#34495e"
     fill-opacity="0.1"
     id="path20"
     style="stroke-width:1.42499" />
  <path
     d="M 16.324921,16.325272 V 47.675078 H 47.674729 V 16.325272 Z"
     style="fill:#f5a83b;stroke-width:1.42499"
     id="path22" />
  <path
     style="fill:url(#b);stroke-width:1.42499"
     d="M 19.174904,19.175253 V 44.825096 H 44.824746 V 19.175253 Z"
     id="path26" />
  <path
     fill="#f1f2f3"
     d="m 24.162373,20.600244 a 3.5624781,3.5624781 0 0 0 -3.562478,3.562479 3.5624781,3.5624781 0 0 0 3.562478,3.562478 3.5624781,3.5624781 0 0 0 3.562478,-3.562478 3.5624781,3.5624781 0 0 0 -3.562478,-3.562479 z m 12.112426,14.249913 -8.549948,8.549948 h 17.099895 z m -9.974939,1.424991 -7.124956,7.124956 h 5.699965 l 4.274974,-4.274973 z"
     id="path25"
     style="stroke-width:1.42499" />
  <path
     d="m 53.232195,7.7753236 c -1.567491,0 -3.134981,0.5699965 -4.274974,1.7099895 -1.709989,1.7099899 -5.557466,11.1149309 -5.557466,11.1149309 l 1.424991,1.424992 c 0,0 10.259937,-1.852488 12.539923,-4.274974 2.279986,-2.208736 2.279986,-5.984962 0,-8.2649489 -1.139993,-1.139993 -2.707483,-1.7099895 -4.274973,-1.7099895 z"
     style="fill:#0c69cf;stroke-width:1.42499"
     id="path27" />
  <path
     d="m 51.949703,7.6328245 a 4.9874694,4.9874694 0 0 0 -4.844971,4.9874695 4.9874694,4.9874694 0 0 0 4.844971,4.987469 4.9874694,4.9874694 0 0 0 5.129968,-4.98747 4.9874694,4.9874694 0 0 0 -5.129968,-4.9874685 z"
     style="fill:#ffffff;stroke-width:1.42499"
     id="path29" />
  <path
     d="m 51.807204,6.3503323 c -1.567491,0 -3.134981,0.5699965 -4.274974,1.7099895 -2.279986,2.2799862 -4.132475,12.5399222 -4.132475,12.5399222 0,0 10.259937,-1.852488 12.539923,-4.274972 2.279986,-2.208737 2.279986,-5.984964 0,-8.2649502 -1.139993,-1.139993 -2.707483,-1.7099895 -4.274974,-1.7099895 z m -0.1425,1.4249913 a 4.4174729,4.4174729 0 0 1 3.134981,1.3537417 4.4174729,4.4174729 0 0 1 0,6.1987127 4.4174729,4.4174729 0 0 1 -2.992481,1.282492 4.4174729,4.4174729 0 0 1 -3.134981,-1.282492 4.4174729,4.4174729 0 0 1 0,-6.1987127 4.4174729,4.4174729 0 0 1 2.992481,-1.3537417 z"
     style="fill:#1b91f4;stroke-width:1.42499"
     id="path31" />
</svg>
