<?xml version="1.0" encoding="UTF-8" standalone="no"?>
<!-- Created with Inkscape (http://www.inkscape.org/) -->

<svg
   width="64"
   height="64"
   viewBox="0 0 64 64"
   version="1.1"
   id="SVGRoot"
   sodipodi:docname="org.kde.gwenview.svg"
   inkscape:version="1.2.1 (9c6d41e410, 2022-07-14)"
   xmlns:inkscape="http://www.inkscape.org/namespaces/inkscape"
   xmlns:sodipodi="http://sodipodi.sourceforge.net/DTD/sodipodi-0.dtd"
   xmlns:xlink="http://www.w3.org/1999/xlink"
   xmlns="http://www.w3.org/2000/svg"
   xmlns:svg="http://www.w3.org/2000/svg">
  <sodipodi:namedview
     id="namedview525"
     pagecolor="#ffffff"
     bordercolor="#666666"
     borderopacity="1.0"
     inkscape:showpageshadow="2"
     inkscape:pageopacity="0.0"
     inkscape:pagecheckerboard="0"
     inkscape:deskcolor="#d1d1d1"
     inkscape:document-units="px"
     showgrid="true"
     inkscape:zoom="4.7572176"
     inkscape:cx="29.744277"
     inkscape:cy="61.695727"
     inkscape:window-width="1920"
     inkscape:window-height="1002"
     inkscape:window-x="0"
     inkscape:window-y="0"
     inkscape:window-maximized="1"
     inkscape:current-layer="layer1">
    <inkscape:grid
       type="xygrid"
       id="grid648"
       originx="9.9540774"
       originy="79.977257" />
  </sodipodi:namedview>
  <defs
     id="defs520">
    <filter
       id="filter1178"
       x="-0.047999482"
       y="-0.047999482"
       width="1.095999"
       height="1.095999"
       color-interpolation-filters="sRGB">
      <feGaussianBlur
         stdDeviation="0.30691668"
         id="feGaussianBlur2" />
    </filter>
    <linearGradient
       id="linearGradient1023"
       x1="8.2369003"
       x2="8.2369003"
       y1="1.0202"
       y2="16.013"
       gradientUnits="userSpaceOnUse"
       gradientTransform="matrix(3.779602,0,0,3.779602,-10,-80.000001)">
      <stop
         stop-color="#c46e76"
         offset="0"
         id="stop32" />
      <stop
         stop-color="#ba555e"
         offset="1"
         id="stop34" />
    </linearGradient>
    <filter
       id="filter947"
       x="-0.048739926"
       y="-0.076923518"
       width="1.0974799"
       height="1.153847"
       color-interpolation-filters="sRGB">
      <feGaussianBlur
         stdDeviation="0.57829392"
         id="feGaussianBlur29" />
    </filter>
    <linearGradient
       id="linearGradient3738"
       x1="-24.014"
       x2="-24.047001"
       y1="0.14725"
       y2="18.525"
       gradientUnits="userSpaceOnUse"
       gradientTransform="matrix(1.8032481,0,0,1.8032481,64.813442,-65.02673)">
      <stop
         stop-color="#d8dee9"
         offset="0"
         id="stop24" />
      <stop
         stop-color="#eceff4"
         offset="1"
         id="stop26" />
    </linearGradient>
    <linearGradient
       id="linearGradient3334"
       x1="40.855"
       x2="41.063999"
       y1="-15.079"
       y2="-4.4533"
       gradientUnits="userSpaceOnUse"
       gradientTransform="matrix(2.6401356,0,0,2.6401356,-85.932692,-22.378109)">
      <stop
         stop-color="#2e3440"
         offset="0"
         id="stop19" />
      <stop
         stop-color="#4c566a"
         offset="1"
         id="stop21" />
    </linearGradient>
    <linearGradient
       id="linearGradient4322"
       x1="8.7574997"
       x2="8.7258997"
       y1="11.518"
       y2="9.1015997"
       gradientTransform="matrix(4.481366,0,0,5.2219242,-12.457719,-93.87826)"
       gradientUnits="userSpaceOnUse"
       xlink:href="#linearGradient3666" />
    <linearGradient
       id="linearGradient3666">
      <stop
         stop-color="#5e81ac"
         offset="0"
         id="stop8" />
      <stop
         stop-color="#88c0d0"
         offset="1"
         id="stop10" />
    </linearGradient>
    <linearGradient
       id="linearGradient3668"
       x1="8.5200005"
       x2="8.5310001"
       y1="11.545"
       y2="8.0600996"
       gradientTransform="matrix(4.481366,0,0,5.0373787,-20.562935,-91.768792)"
       gradientUnits="userSpaceOnUse"
       xlink:href="#linearGradient3666" />
    <linearGradient
       id="linearGradient5062"
       x1="10.908"
       x2="10.908"
       y1="6.763"
       y2="7.7111001"
       gradientTransform="matrix(4.481366,0,0,4.481366,-20.283081,-87.790108)"
       gradientUnits="userSpaceOnUse">
      <stop
         stop-color="#d8dee9"
         offset="0"
         id="stop14" />
      <stop
         stop-color="#eceff4"
         offset="1"
         id="stop16" />
    </linearGradient>
  </defs>
  <g
     inkscape:label="Layer 1"
     inkscape:groupmode="layer"
     id="layer1"
     transform="translate(9.9540777,79.977257)">
    <rect
       transform="matrix(3.7470218,0,0,3.779602,-9.7241306,-80.000001)"
       x="0.79374999"
       y="0.90544999"
       width="15.346"
       height="15.346"
       rx="3.0525999"
       ry="3.0525999"
       fill="#2e3440"
       filter="url(#filter1178)"
       opacity="0.2"
       stroke-width="1.2489"
       style="mix-blend-mode:normal;stroke-linecap:round;stroke-linejoin:round"
       id="rect39" />
    <rect
       x="-9.9540777"
       y="-79.977257"
       width="63.965984"
       height="63.977322"
       fill="none"
       opacity="0.15"
       stroke-width="3.97614"
       id="rect41"
       style="stroke-linecap:round;stroke-linejoin:round" />
    <rect
       x="-6.5000887"
       y="-76.500092"
       width="57.000179"
       height="57.000179"
       rx="11.338806"
       ry="11.338806"
       fill="url(#linearGradient1023)"
       stroke-width="4.63908"
       id="rect43"
       style="fill:url(#linearGradient1023);stroke-linecap:round;stroke-linejoin:round" />
    <path
       d="m -37.748,9.2412 a 24.727,28.236 0 0 1 2.3912,-2.8786 c 3.3296,-3.4607 7.1156,-5.3101 11.036,-5.4053 3.9204,-0.0952 7.8987,1.5663 11.666,5.1116 a 28.247,32.255 0 0 1 2.9055,3.1749 0.92681,1.0583 0 0 1 0.057922,1.3229 18.508,21.135 0 0 1 -3.5636,4.3417 16.11,18.396 0 0 1 -10.04,4.0877 17.609,20.108 0 0 1 -10.255,-3.7993 20.703,23.64 0 0 1 -4.2425,-4.5984 0.91291,1.0424 0 0 1 0.04402,-1.3573 z"
       fill="#2e3440"
       filter="url(#filter947)"
       opacity="0.34863"
       stroke-width="0.2476"
       id="path47"
       transform="matrix(1.8032481,0,0,1.8032481,64.813442,-65.02673)" />
    <path
       d="m -3.2555678,-49.322783 a 44.588917,50.916515 0 0 1 4.3119268,-5.19083 c 6.0040951,-6.240501 12.831192,-9.575428 19.900646,-9.747097 7.069454,-0.171669 14.243316,2.824428 21.036693,9.217483 a 50.936351,58.16377 0 0 1 5.239337,5.725132 1.6712684,1.9083775 0 0 1 0.104468,2.385517 33.374516,38.111651 0 0 1 -6.426075,7.829163 29.050327,33.172552 0 0 1 -18.104611,7.371139 31.753396,36.259713 0 0 1 -18.4923096,-6.851081 37.332646,42.628785 0 0 1 -7.6502803,-8.292057 1.6462032,1.8797058 0 0 1 0.079379,-2.447549 z"
       fill="url(#linearGradient3738)"
       stroke-width="0.446484"
       id="path49"
       style="fill:url(#linearGradient3738)" />
    <path
       d="m 21.930047,-62.188713 a 14.187032,14.187032 0 1 1 -10.016675,4.191215 14.13819,14.13819 0 0 1 10.016675,-4.191215 z"
       fill="url(#linearGradient3334)"
       stroke-width="0.698527"
       id="path51"
       style="fill:url(#linearGradient3334)" />
    <path
       d="m 26.624208,-47.610677 v 0.0014 c -0.645223,-2.46e-4 -7.818234,7.682794 -11.627949,11.813552 a 14.187032,14.187032 0 0 0 18.997889,-4.622351 v -0.364279 c 0,0 -6.630966,-6.827918 -7.36994,-6.828446 z"
       fill="url(#linearGradient4322)"
       stroke-width="1.27989"
       id="path53"
       style="fill:url(#linearGradient4322)" />
    <path
       d="m 17.552702,-51.271753 c -0.830877,0.03621 -4.190159,4.377081 -8.1640913,9.876221 a 14.187032,14.187032 0 0 0 19.2201863,5.893836 c -3.08579,-4.885306 -9.946974,-15.818635 -11.056359,-15.770057 z"
       fill="url(#linearGradient3668)"
       stroke-width="1.25707"
       id="path55"
       style="fill:url(#linearGradient3668)" />
    <ellipse
       cx="28.606949"
       cy="-55.350761"
       rx="1.7079301"
       ry="2.1285036"
       fill="url(#linearGradient5062)"
       opacity="0.8"
       stroke-width="4.48136"
       id="ellipse57"
       style="fill:url(#linearGradient5062)" />
  </g>
</svg>
