<?xml version="1.0" encoding="UTF-8" standalone="no"?>
<!-- Created with Inkscape (http://www.inkscape.org/) -->

<svg
   width="64.0px"
   height="64.0px"
   viewBox="0 0 64.0 64.0"
   version="1.1"
   id="SVGRoot"
   sodipodi:docname="org.kde.ktorrent.svg"
   inkscape:version="1.2.1 (9c6d41e410, 2022-07-14)"
   xmlns:inkscape="http://www.inkscape.org/namespaces/inkscape"
   xmlns:sodipodi="http://sodipodi.sourceforge.net/DTD/sodipodi-0.dtd"
   xmlns="http://www.w3.org/2000/svg"
   xmlns:svg="http://www.w3.org/2000/svg">
  <sodipodi:namedview
     id="namedview426"
     pagecolor="#ffffff"
     bordercolor="#666666"
     borderopacity="1.0"
     inkscape:showpageshadow="2"
     inkscape:pageopacity="0.0"
     inkscape:pagecheckerboard="0"
     inkscape:deskcolor="#d1d1d1"
     inkscape:document-units="px"
     showgrid="true"
     inkscape:zoom="9.5144352"
     inkscape:cx="27.484553"
     inkscape:cy="30.637657"
     inkscape:window-width="1920"
     inkscape:window-height="1002"
     inkscape:window-x="0"
     inkscape:window-y="0"
     inkscape:window-maximized="1"
     inkscape:current-layer="layer1">
    <inkscape:grid
       type="xygrid"
       id="grid549" />
  </sodipodi:namedview>
  <defs
     id="defs421">
    <filter
       id="filter2286"
       x="-0.17876739"
       y="-0.077369616"
       width="1.3575348"
       height="1.1547392"
       color-interpolation-filters="sRGB">
      <feGaussianBlur
         stdDeviation="1.0015722"
         id="feGaussianBlur15" />
    </filter>
    <linearGradient
       id="linearGradient1993"
       x1="31.104"
       x2="31.104"
       y1="46.189999"
       y2="7.4303002"
       gradientTransform="matrix(1.0000071,0,0,1.0000071,0.47497853,0.49373038)"
       gradientUnits="userSpaceOnUse">
      <stop
         stop-color="#c8c8c8"
         offset="0"
         id="stop10" />
      <stop
         stop-color="#c8c8c8"
         stop-opacity="0"
         offset="1"
         id="stop12" />
    </linearGradient>
    <linearGradient
       id="linearGradient1053-94"
       x1="-127"
       x2="-70.974388"
       y1="60"
       y2="6.0164728"
       gradientTransform="matrix(1.0363747,0,0,1.0363747,135.12092,-1.6940152)"
       gradientUnits="userSpaceOnUse">
      <stop
         stop-color="#dee0e2"
         offset="0"
         id="stop5" />
      <stop
         stop-color="#f1f3f5"
         stop-opacity=".99608"
         offset="1"
         id="stop7" />
    </linearGradient>
    <filter
       id="filter1057-3"
       x="-0.026999999"
       y="-0.026999999"
       width="1.054"
       height="1.054"
       color-interpolation-filters="sRGB">
      <feGaussianBlur
         stdDeviation="0.61875"
         id="feGaussianBlur2" />
    </filter>
  </defs>
  <g
     inkscape:label="Layer 1"
     inkscape:groupmode="layer"
     id="layer1">
    <rect
       transform="matrix(1.0000071,0,0,1.0000071,0.47497853,0.49373038)"
       x="4.5"
       y="4.5"
       width="55"
       height="55"
       ry="15"
       fill="#141414"
       filter="url(#filter1057-3)"
       opacity="0.3"
       stroke-width="2.7444"
       id="rect20"
       style="stroke-linecap:round" />
    <rect
       x="3.5"
       y="3.5"
       width="57.000999"
       height="57.000999"
       ry="10.368616"
       fill="url(#linearGradient1053-94)"
       stroke-width="2.84418"
       id="rect22"
       style="fill:url(#linearGradient1053-94);stroke-linecap:round"
       rx="10.336177" />
    <path
       d="m 19.973946,4.9952364 c -8.309833,0 -15.0001072,6.6898956 -15.0001072,15.0001056 v 2.798834 L 32.665093,48.343151 59.973852,22.802113 v -2.806657 c 0,-8.309833 -6.689896,-15.0001066 -15.000107,-15.0001066 z"
       fill="url(#linearGradient1993)"
       opacity="0.74898"
       stroke-linejoin="round"
       stroke-width="2.00001"
       style="fill:url(#linearGradient1993);stroke-linecap:round;paint-order:stroke fill markers"
       id="path24" />
    <path
       d="m 21.009557,35.492845 c -0.623257,0.623256 -0.623257,1.62674 0,2.249997 l 10.261241,10.261241 c 0.623256,0.623256 1.626741,0.623256 2.249997,0 0.623257,-0.623256 0.623257,-1.626741 4e-6,-2.249997 L 23.259557,35.492845 c -0.623256,-0.623257 -1.62674,-0.623257 -2.249997,0 z"
       color="#000000"
       color-rendering="auto"
       dominant-baseline="auto"
       fill="#646464"
       image-rendering="auto"
       shape-rendering="auto"
       solid-color="#000000"
       stop-color="#000000"
       style="font-variant-ligatures:normal;font-variant-position:normal;font-variant-caps:normal;font-variant-numeric:normal;font-variant-alternates:normal;font-variant-east-asian:normal;font-feature-settings:normal;font-variation-settings:normal;text-indent:0;text-decoration-line:none;text-decoration-style:solid;text-decoration-color:#000000;text-transform:none;text-orientation:mixed;white-space:normal;shape-padding:0;shape-margin:0;inline-size:0;isolation:auto;mix-blend-mode:normal;stroke-width:3.7796"
       id="path28" />
    <path
       transform="matrix(1.0000071,0,0,1.0000071,0.47497853,0.49373038)"
       d="m 30.518,16.91 c -0.8814,0 -1.5898,0.71039 -1.5898,1.5918 v 27.887 c 0,0.08262 0.01142,0.16105 0.02344,0.24023 0.0031,0.02003 0.002,0.04051 0.0059,0.06055 0.01761,0.09226 0.04735,0.17983 0.08008,0.26562 0.004,0.0102 0.0056,0.02105 0.0098,0.03125 0.16099,0.39727 0.47574,0.71403 0.87305,0.875 0.01349,0.0057 0.0274,0.0088 0.04102,0.01367 0.08276,0.03099 0.16712,0.05725 0.25586,0.07422 0.10019,0.01965 0.20106,0.0293 0.30273,0.0293 0.10347,-1.29e-4 0.20489,-0.0104 0.30274,-0.0293 h 0.002 c 0.07522,-0.01474 0.14582,-0.03977 0.2168,-0.06445 0.0268,-0.0094 0.05591,-0.01286 0.08203,-0.02344 0.08693,-0.03553 0.16775,-0.08116 0.24609,-0.13086 0.0088,-0.0057 0.01861,-0.01 0.02734,-0.01563 0.08916,-0.05907 0.1728,-0.12776 0.24805,-0.20312 l 10.262,-10.262 c 0.62326,-0.62326 0.62326,-1.6267 0,-2.25 -0.62326,-0.6233 -1.6267,-0.62326 -2.25,0 l -7.5469,7.5469 v -24.045 c 0,-0.8814 -0.71039,-1.5918 -1.5918,-1.5918 z"
       fill="#c8c8c8"
       filter="url(#filter2286)"
       opacity="0.7"
       stroke-linecap="round"
       stroke-linejoin="round"
       stroke-width="2"
       style="paint-order:stroke fill markers"
       id="path30" />
    <path
       d="m 32.393718,17.403669 c -0.881403,0 -1.589852,0.710377 -1.589852,1.59178 v 27.886659 c 0,0.08262 0.01134,0.161049 0.02343,0.240232 0.0031,0.02003 0.002,0.04052 0.006,0.06055 0.01776,0.09226 0.04736,0.179833 0.08009,0.26563 0.0042,0.0102 0.0057,0.02117 0.0098,0.03137 0.160973,0.397274 0.475738,0.714005 0.87305,0.874978 0.01361,0.0057 0.02721,0.0087 0.04101,0.01361 0.08277,0.03099 0.167134,0.05726 0.255879,0.07423 0.100197,0.01965 0.201074,0.02948 0.302746,0.02948 0.103485,-1.29e-4 0.204892,-0.01058 0.302746,-0.02948 6.12e-4,-1.17e-4 0.0013,1.21e-4 0.002,0 0.07521,-0.01474 0.145817,-0.03976 0.216798,-0.06444 0.02683,-0.0094 0.0559,-0.01285 0.08202,-0.02343 0.08693,-0.03553 0.167738,-0.08115 0.24609,-0.13085 0.0087,-0.0057 0.01852,-0.0098 0.02721,-0.0155 0.08916,-0.05907 0.172803,-0.127751 0.248055,-0.203116 L 43.782409,37.743753 c 0.623257,-0.623257 0.623257,-1.626741 0,-2.249997 -0.623256,-0.623257 -1.62674,-0.623257 -2.249997,0 l -7.546731,7.546731 V 18.995411 c 0,-0.881403 -0.710376,-1.591779 -1.591779,-1.591779 z"
       color="#000000"
       color-rendering="auto"
       dominant-baseline="auto"
       fill="#646464"
       image-rendering="auto"
       shape-rendering="auto"
       solid-color="#000000"
       stop-color="#000000"
       style="font-variant-ligatures:normal;font-variant-position:normal;font-variant-caps:normal;font-variant-numeric:normal;font-variant-alternates:normal;font-variant-east-asian:normal;font-feature-settings:normal;font-variation-settings:normal;text-indent:0;text-decoration-line:none;text-decoration-style:solid;text-decoration-color:#000000;text-transform:none;text-orientation:mixed;white-space:normal;shape-padding:0;shape-margin:0;inline-size:0;isolation:auto;mix-blend-mode:normal;stroke-width:3.7796"
       id="path32" />
  </g>
</svg>
