<?xml version="1.0" encoding="UTF-8" standalone="no"?>
<svg
   height="64"
   viewBox="0 0 64 64"
   width="64"
   version="1.1"
   id="svg117"
   sodipodi:docname="texstudio.svg"
   inkscape:version="1.2.1 (9c6d41e410, 2022-07-14)"
   xmlns:inkscape="http://www.inkscape.org/namespaces/inkscape"
   xmlns:sodipodi="http://sodipodi.sourceforge.net/DTD/sodipodi-0.dtd"
   xmlns:xlink="http://www.w3.org/1999/xlink"
   xmlns="http://www.w3.org/2000/svg"
   xmlns:svg="http://www.w3.org/2000/svg">
  <defs
     id="defs121" />
  <sodipodi:namedview
     id="namedview119"
     pagecolor="#ffffff"
     bordercolor="#666666"
     borderopacity="1.0"
     inkscape:showpageshadow="2"
     inkscape:pageopacity="0.0"
     inkscape:pagecheckerboard="0"
     inkscape:deskcolor="#d1d1d1"
     showgrid="false"
     inkscape:zoom="4.9166667"
     inkscape:cx="24.101695"
     inkscape:cy="24.101695"
     inkscape:window-width="1920"
     inkscape:window-height="1002"
     inkscape:window-x="0"
     inkscape:window-y="0"
     inkscape:window-maximized="1"
     inkscape:current-layer="svg117" />
  <linearGradient
     id="a"
     gradientUnits="userSpaceOnUse"
     x1="0"
     x2="24"
     y1="0"
     y2="48"
     gradientTransform="matrix(1.425,0,0,1.425,-2.2,-2.2)">
    <stop
       offset="0"
       stop-color="#1a2530"
       id="stop2" />
    <stop
       offset=".333333"
       stop-color="#2c3e50"
       id="stop4" />
    <stop
       offset=".458333"
       stop-color="#34495e"
       id="stop6" />
    <stop
       offset=".833333"
       stop-color="#8e44ad"
       id="stop8" />
    <stop
       offset="1"
       stop-color="#9b59b6"
       id="stop10" />
  </linearGradient>
  <linearGradient
     id="b"
     gradientUnits="userSpaceOnUse"
     x1="11"
     x2="6"
     y1="4"
     y2="17"
     gradientTransform="matrix(1.425,0,0,1.425,-2.2,-2.2)">
    <stop
       offset="0"
       stop-color="#194d6f"
       id="stop13" />
    <stop
       offset=".230769"
       stop-color="#115c92"
       id="stop15" />
    <stop
       offset="1"
       stop-color="#9b59b6"
       id="stop17" />
  </linearGradient>
  <radialGradient
     id="c"
     cx="0"
     cy="0"
     gradientTransform="matrix(7.125,0,0,11.4,9.2,16.325)"
     gradientUnits="userSpaceOnUse"
     r="1">
    <stop
       offset="0"
       stop-color="#0c3d61"
       id="stop20" />
    <stop
       offset="1"
       stop-color="#0c3d61"
       stop-opacity=".149"
       id="stop22" />
  </radialGradient>
  <linearGradient
     id="d">
    <stop
       offset="0"
       stop-color="#fdbc4b"
       id="stop25" />
    <stop
       offset="1"
       stop-color="#fdbc4b"
       stop-opacity="0"
       id="stop27" />
  </linearGradient>
  <linearGradient
     id="e"
     gradientUnits="userSpaceOnUse"
     x1="10"
     x2="7"
     xlink:href="#d"
     y1="19"
     y2="11"
     gradientTransform="matrix(1.425,0,0,1.425,-2.2,-2.2)" />
  <linearGradient
     id="f"
     gradientUnits="userSpaceOnUse"
     x1="5"
     x2="15"
     y1="10"
     y2="22"
     gradientTransform="matrix(1.425,0,0,1.425,-2.2,-2.2)">
    <stop
       offset="0"
       stop-color="#3daee9"
       id="stop31" />
    <stop
       offset=".5"
       stop-color="#177ac2"
       id="stop33" />
    <stop
       offset="1"
       stop-color="#9b59b6"
       id="stop35" />
  </linearGradient>
  <linearGradient
     id="g"
     gradientUnits="userSpaceOnUse"
     x1="10.1309"
     x2="20.869101"
     xlink:href="#d"
     y1="14.5049"
     y2="14.5049"
     gradientTransform="matrix(1.425,0,0,1.425,-2.2,-2.2)" />
  <radialGradient
     id="h"
     cx="0"
     cy="0"
     gradientTransform="matrix(41.325024,42.749993,-23.918512,23.121246,19.175,17.75)"
     gradientUnits="userSpaceOnUse"
     r="1">
    <stop
       offset="0"
       stop-color="#fdbc4b"
       stop-opacity=".851"
       id="stop39" />
    <stop
       offset=".3"
       stop-color="#fdbc4b"
       stop-opacity=".349"
       id="stop41" />
    <stop
       offset=".616667"
       stop-color="#2ecc71"
       stop-opacity=".118"
       id="stop43" />
    <stop
       offset="1"
       stop-color="#3daee9"
       stop-opacity=".05"
       id="stop45" />
  </radialGradient>
  <linearGradient
     id="i"
     gradientUnits="userSpaceOnUse"
     x1="8"
     x2="8"
     y1="4"
     y2="14"
     gradientTransform="matrix(1.425,0,0,1.425,-2.2,-2.2)">
    <stop
       offset="0"
       stop-color="#318bba"
       id="stop48" />
    <stop
       offset=".275862"
       stop-color="#177ac2"
       id="stop50" />
    <stop
       offset="1"
       stop-color="#9b59b6"
       id="stop52" />
  </linearGradient>
  <radialGradient
     id="j"
     cx="0"
     cy="0"
     gradientTransform="matrix(34.2,0,0,29.925,43.4,60.5)"
     gradientUnits="userSpaceOnUse"
     r="1"
     xlink:href="#d" />
  <radialGradient
     id="k"
     cx="0"
     cy="0"
     gradientTransform="matrix(22.799991,39.899954,-39.591879,22.623948,17.75,20.6)"
     gradientUnits="userSpaceOnUse"
     r="1">
    <stop
       offset="0"
       stop-opacity=".251"
       id="stop56" />
    <stop
       offset=".395914"
       stop-opacity=".15"
       id="stop58" />
    <stop
       offset="1"
       stop-opacity=".05"
       id="stop60" />
  </radialGradient>
  <linearGradient
     id="l"
     gradientUnits="userSpaceOnUse"
     x1="46"
     x2="32"
     y1="50"
     y2="20"
     gradientTransform="matrix(1.425,0,0,1.425,-2.2,-2.2)">
    <stop
       offset="0"
       stop-color="#9b59b6"
       id="stop63" />
    <stop
       offset="1"
       stop-color="#9b59b6"
       stop-opacity="0"
       id="stop65" />
  </linearGradient>
  <linearGradient
     id="m"
     gradientUnits="userSpaceOnUse"
     x1="28"
     x2="30"
     y1="23"
     y2="31"
     gradientTransform="matrix(1.425,0,0,1.425,-2.2,-2.2)">
    <stop
       offset="0"
       stop-color="#11d116"
       id="stop68" />
    <stop
       offset="1"
       stop-color="#11d116"
       stop-opacity="0"
       id="stop70" />
  </linearGradient>
  <path
     d="M 54.8,3.5 H 9.2 C 6.0520325,3.5 3.5,6.0520325 3.5,9.2 v 45.6 c 0,3.147967 2.5520325,5.7 5.7,5.7 h 45.6 c 3.147967,0 5.7,-2.552033 5.7,-5.7 V 9.2 c 0,-3.1479675 -2.552033,-5.7 -5.7,-5.7 z"
     fill="url(#a)"
     id="path73"
     style="fill:url(#a);stroke-width:1.425" />
  <path
     d="m 17.75,3.5 v 10.598438 c 0,0.44403 0.317775,0.801562 0.7125,0.801562 0.394725,0 0.7125,-0.357532 0.7125,-0.801562 V 3.5 Z"
     fill="#194d6f"
     id="path75"
     style="stroke-width:1.425" />
  <path
     d="m 13.06859,6.363965 c -1.367715,0.098183 -2.654347,0.6861375 -3.6236325,1.6559925 -2.2254225,2.2258505 -2.2254225,5.8342355 0,8.0600845 L 13.475,20.110085 24.385228,14.9 17.505043,8.0199575 C 16.3364,6.850745 14.7176,6.246545 13.06859,6.363965 Z"
     fill="url(#b)"
     id="path77"
     style="fill:url(#b);stroke-width:1.425" />
  <path
     d="M 14.9,7.775 C 13.16321,7.8196025 12.05,8.2462475 10.869958,9.4449575 9.727678,10.96985 9.21824,12.265033 9.2,13.920313 c 0,0.937507 0.63555,1.692187 1.425,1.692187 0.203063,0 0.396008,-0.05173 0.57057,-0.14193 l 0.01952,0.01952 c 0,-0.01012 0,-0.02052 0,-0.03064 C 11.708,15.193693 12.05,14.607163 12.05,13.920313 c 0,-1.34007 0.231847,-2.28228 0.839753,-3.027698 C 13.958645,9.82358 14.9,9.1998575 16.324715,9.1998575 c 2.850285,0 3.551528,1.1910155 4.62042,2.2599075 L 18.930042,9.4446725 C 17.86115,8.3756375 16.411782,7.774715 14.9,7.774715 Z"
     fill="url(#c)"
     id="path79"
     style="fill:url(#c);stroke-width:1.425" />
  <path
     d="m 13.06859,6.363965 c -1.367715,0.098183 -2.654347,0.6861375 -3.6236325,1.6559925 -2.2254225,2.2258505 -2.2254225,5.8342355 0,8.0600845 L 13.475,20.110085 24.385228,14.9 17.505043,8.0199575 C 16.3364,6.850745 14.7176,6.246545 13.06859,6.363965 Z"
     fill="url(#e)"
     opacity="0.35"
     id="path81"
     style="fill:url(#e);stroke-width:1.425" />
  <path
     d="m 26.113468,11.393217 c -0.04931,8.56e-4 -0.09847,0.0051 -0.147488,0.01112 L 17.75,12.940625 C 15.976303,13.207812 14.558142,14.56769 14.198615,16.325 h -0.02223 l -1.90095,7.475692 c -0.02494,0.10488 -0.03819,0.212183 -0.0389,0.320055 0,0.787028 0.637972,1.425 1.425,1.425 0.09405,-0.0023 0.186675,-0.0054 0.278302,-0.02223 l 8.179785,-2.04288 c 1.42671,-0.421942 2.550892,-1.555102 2.936355,-2.99193 L 27.49401,13.16321 c 0.02907,-0.112433 0.0436,-0.228713 0.04446,-0.344993 0,-0.787027 -0.637972,-1.425 -1.424999,-1.425 z"
     fill="url(#f)"
     id="path83"
     style="fill:url(#f);stroke-width:1.425" />
  <path
     d="m 26.113468,11.393217 c -0.04931,8.56e-4 -0.09847,0.0051 -0.147488,0.01112 L 17.75,12.940625 C 15.976303,13.207812 14.558142,14.56769 14.198615,16.325 h -0.02223 l -1.90095,7.475692 c -0.02494,0.10488 -0.03819,0.212183 -0.0389,0.320055 0,0.787028 0.637972,1.425 1.425,1.425 0.09405,-0.0023 0.186675,-0.0054 0.278302,-0.02223 l 8.179785,-2.04288 c 1.42671,-0.421942 2.550892,-1.555102 2.936355,-2.99193 L 27.49401,13.16321 c 0.02907,-0.112433 0.0436,-0.228713 0.04446,-0.344993 0,-0.787027 -0.637972,-1.425 -1.424999,-1.425 z"
     fill="url(#g)"
     opacity="0.5"
     id="path85"
     style="fill:url(#g);stroke-width:1.425" />
  <path
     d="m 18.71843,21.66875 c 1.770847,0 3.78024,-1.435545 4.488465,-3.20625 0.708083,-1.770705 -0.15333,-3.20625 -1.924178,-3.20625 -1.770705,0 -3.78024,1.435545 -4.488322,3.20625 -0.708225,1.770705 0.15333,3.20625 1.924035,3.20625 z"
     fill="#2c3e50"
     opacity="0.5"
     id="path87"
     style="stroke-width:1.425" />
  <path
     d="m 18.71843,21.66875 c 1.770847,0 3.78024,-1.435545 4.488465,-3.20625 0.708083,-1.770705 -0.15333,-3.20625 -1.924178,-3.20625 -1.770705,0 -3.78024,1.435545 -4.488322,3.20625 -0.708225,1.770705 0.15333,3.20625 1.924035,3.20625 z"
     fill="#2c3e50"
     opacity="0.5"
     id="path89"
     style="stroke-width:1.425" />
  <path
     d="m 24.85277,15.164338 c -1.22037,0.0056 -2.44017,0.03719 -3.65712,0.09476 v 0.0029 c -1.515203,0.04546 -3.204683,1.06305 -4.174822,2.685698 -4.196483,9.168307 -6.383145,20.094067 -6.418058,31.416689 0.005,3.76656 0.26049,7.49607 0.748695,11.135663 H 54.8 C 57.947967,60.5 60.5,57.947967 60.5,54.8 V 23.630975 C 50.974587,18.363178 38.508402,15.164338 24.85277,15.164338 Z"
     fill="url(#h)"
     id="path91"
     style="fill:url(#h);stroke-width:1.425" />
  <path
     d="M 9.2,3.5 V 14.098438 C 9.2,14.542468 9.517775,14.9 9.9125,14.9 c 0.394725,0 0.7125,-0.357532 0.7125,-0.801562 V 3.5 Z"
     fill="url(#i)"
     id="path93"
     style="fill:url(#i);stroke-width:1.425" />
  <path
     d="M 54.8,3.5 H 9.2 C 6.0520325,3.5 3.5,6.0520325 3.5,9.2 v 45.6 c 0,3.147967 2.5520325,5.7 5.7,5.7 h 45.6 c 3.147967,0 5.7,-2.552033 5.7,-5.7 V 9.2 c 0,-3.1479675 -2.552033,-5.7 -5.7,-5.7 z"
     fill="url(#j)"
     opacity="0.3"
     id="path95"
     style="fill:url(#j);stroke-width:1.425" />
  <path
     d="m 17.0375,30.575 -0.99636,3.70443 5.98386,5.98386 v 5.480122 L 19.175,47.675 32,60.5 h 22.8 c 3.1578,0 5.7,-2.5422 5.7,-5.7 V 34.85 l -4.275,-4.275 -6.08133,0.73758 1.61424,1.61424 -1.140997,1.845232 L 47.157298,31.31258 40.55,31.627077 45.993928,37.071005 47.05712,38.788272 44.713707,42.576208 39.8375,37.7 h -2.85 l -7.125,-7.125 z"
     fill="url(#k)"
     id="path97"
     style="fill:url(#k);stroke-width:1.425" />
  <path
     d="m 17.0375,30.575 -0.99636,3.70443 2.01495,2.015092 h 1.494682 l 0.770926,-1.92318 H 22.025 v 11.37207 l -2.85,1.931588 2.015093,2.015092 h 8.55 v -1.425 L 27.725,46.25 C 27.445557,46.2483 27.167113,46.23148 26.890093,46.20269 V 34.371342 h 2.565997 l 1.923322,1.92318 h 1.49454 L 31.877592,32.590092 29.8625,30.575 Z m 24.038467,0 -0.525967,1.052077 2.015092,2.01495 c 0.545775,0.120413 1.081433,0.28272 1.603126,0.481508 l 2.888902,4.664737 -4.283407,6.918946 -2.078933,1.967782 2.01495,2.015092 h 5.34375 l 0.73758,-0.73758 -1.647585,-1.647727 2.593928,-4.188645 1.953817,3.15609 -1.335937,1.40277 2.01495,2.015092 h 5.34375 L 58.240092,48.638015 56.225,46.622922 c -0.42408,-0.09348 -0.842033,-0.21261 -1.252433,-0.3534 l -3.058762,-4.94019 4.15815,-6.72429 c 0.855285,-0.433057 1.75959,-0.75696 2.694105,-0.963015 L 58.240092,32.590092 56.225,30.575 l -6.08133,0.73758 1.61424,1.61424 -2.521537,4.077353 -1.903658,-3.072586 C 47.956437,33.763722 48.57104,33.564792 49.17239,33.32753 L 47.157297,31.31258 Z M 39.8375,37.7 28.148083,38.774307 30.575,41.201225 v 11.61717 L 28.351288,54.8 l 2.014949,2.015092 h 12.335228 c 0.169575,-1.465042 0.527677,-2.90187 1.0659,-4.275 L 41.752415,50.525 H 40.21598 c -0.449587,0.850012 -0.826642,1.73622 -1.127175,2.649645 -0.69426,-0.09277 -1.394363,-0.143498 -2.095748,-0.150338 l -0.0056,-0.0056 h -1.547408 v -4.397408 l 1.425001,0.0029 c 0.223439,0.0076 0.439042,0.05002 0.642817,0.122408 l 1.299742,1.299743 h 0.90744 V 45.4151 L 37.7,43.4 h -0.770925 c -0.241823,0.683857 -0.80769,1.185315 -1.488983,1.358167 v -3.261825 h 2.85 v -0.0056 c 0.363375,-0.0036 0.726038,-0.02066 1.08813,-0.04731 l 1.976191,1.976047 h 1.49454 l -0.996361,-3.70443 z"
     opacity="0.08"
     id="path99"
     style="stroke-width:1.425" />
  <path
     d="m 17.0375,30.575 -0.99636,3.70443 h 1.49454 l 0.770925,-1.92318 H 22.025 V 45.743412 C 21.11072,46.073015 20.14685,46.2443 19.175,46.25 v 1.425 h 8.55 V 46.25 c -0.97185,-0.0057 -1.93572,-0.176985 -2.85,-0.506588 V 32.35625 h 3.718395 l 0.770925,1.92318 h 1.49454 L 29.8625,30.575 Z m 24.038467,0 L 40.55,31.627077 c 0.92112,0.203063 1.813455,0.519698 2.65791,0.943493 l 3.84921,6.217702 -4.283407,6.918945 c -0.828781,0.4104 -1.703161,0.716918 -2.605043,0.915705 L 40.69478,47.675 h 5.34375 l 0.737437,-0.73758 c -0.727034,-0.286853 -1.473307,-0.521835 -2.23212,-0.706943 l 3.5625,-5.74731 3.584873,5.789063 c -0.704093,0.178837 -1.397355,0.39843 -2.073518,0.66519 l 0.73758,0.73758 h 5.34375 L 56.225,46.622922 c -0.781042,-0.172282 -1.542705,-0.425505 -2.271165,-0.75696 l -4.055123,-6.551722 4.15815,-6.724148 c 0.855285,-0.433057 1.759733,-0.75696 2.694105,-0.963015 L 56.225,30.575 h -5.34375 l -0.73758,0.73758 c 0.710932,0.28044 1.440675,0.509722 2.182102,0.692978 l -3.473437,5.619345 -3.534713,-5.708408 c 0.623723,-0.167865 1.238326,-0.366653 1.839675,-0.603915 L 46.419718,30.575 Z M 28.351288,37.7 28.148082,38.774307 c 0.88464,0.04731 1.732658,0.36822 2.426918,0.918413 v 13.125675 c -0.690983,0.541785 -1.536578,0.86355 -2.426918,0.907297 L 28.351288,54.8 h 12.335084 c 0.169433,-1.465043 0.527821,-2.90187 1.066043,-4.275 H 40.21598 c -0.449587,0.850012 -0.826642,1.73622 -1.127175,2.649645 -0.696112,-0.09291 -1.398068,-0.143783 -2.101305,-0.150338 v -0.0056 H 33.425 v -6.4125 l 1.425,0.0028 c 0.876232,0.0295 1.648867,0.590948 1.942702,1.42215 H 37.7 V 43.4 h -0.770925 c -0.30096,0.85101 -1.10409,1.421438 -2.006685,1.425 H 33.425 v -5.34375 h 2.85 v -0.0056 c 0.78261,-0.0077 1.563653,-0.06897 2.337855,-0.183682 l 0.726465,2.11242 h 1.49454 L 39.8375,37.7 Z"
     fill="#fcfcfc"
     id="path101"
     style="stroke-width:1.425" />
  <path
     d="m 17.0375,30.575 -0.99636,3.70443 h 1.49454 l 0.770925,-1.92318 H 22.025 V 45.743412 C 21.11072,46.073015 20.14685,46.2443 19.175,46.25 v 1.425 h 8.55 V 46.25 c -0.97185,-0.0057 -1.93572,-0.176985 -2.85,-0.506588 V 32.35625 h 3.718395 l 0.770925,1.92318 h 1.49454 L 29.8625,30.575 Z m 24.038467,0 L 40.55,31.627077 c 0.92112,0.203063 1.813455,0.519698 2.65791,0.943493 l 3.84921,6.217702 -4.283407,6.918945 c -0.828781,0.4104 -1.703161,0.716918 -2.605043,0.915705 L 40.69478,47.675 h 5.34375 l 0.737437,-0.73758 c -0.727034,-0.286853 -1.473307,-0.521835 -2.23212,-0.706943 l 3.5625,-5.74731 3.584873,5.789063 c -0.704093,0.178837 -1.397355,0.39843 -2.073518,0.66519 l 0.73758,0.73758 h 5.34375 L 56.225,46.622922 c -0.781042,-0.172282 -1.542705,-0.425505 -2.271165,-0.75696 l -4.055123,-6.551722 4.15815,-6.724148 c 0.855285,-0.433057 1.759733,-0.75696 2.694105,-0.963015 L 56.225,30.575 h -5.34375 l -0.73758,0.73758 c 0.710932,0.28044 1.440675,0.509722 2.182102,0.692978 l -3.473437,5.619345 -3.534713,-5.708408 c 0.623723,-0.167865 1.238326,-0.366653 1.839675,-0.603915 L 46.419718,30.575 Z M 28.351288,37.7 28.148082,38.774307 c 0.88464,0.04731 1.732658,0.36822 2.426918,0.918413 v 13.125675 c -0.690983,0.541785 -1.536578,0.86355 -2.426918,0.907297 L 28.351288,54.8 h 12.335084 c 0.169433,-1.465043 0.527821,-2.90187 1.066043,-4.275 H 40.21598 c -0.449587,0.850012 -0.826642,1.73622 -1.127175,2.649645 -0.696112,-0.09291 -1.398068,-0.143783 -2.101305,-0.150338 v -0.0056 H 33.425 v -6.4125 l 1.425,0.0028 c 0.876232,0.0295 1.648867,0.590948 1.942702,1.42215 H 37.7 V 43.4 h -0.770925 c -0.30096,0.85101 -1.10409,1.421438 -2.006685,1.425 H 33.425 v -5.34375 h 2.85 v -0.0056 c 0.78261,-0.0077 1.563653,-0.06897 2.337855,-0.183682 l 0.726465,2.11242 h 1.49454 L 39.8375,37.7 Z"
     fill="url(#l)"
     opacity="0.4"
     id="path103"
     style="fill:url(#l);stroke-width:1.425" />
  <path
     d="m 17.0375,30.575 -0.99636,3.70443 h 1.49454 l 0.770925,-1.92318 H 22.025 V 45.743412 C 21.11072,46.073015 20.14685,46.2443 19.175,46.25 v 1.425 h 8.55 V 46.25 c -0.97185,-0.0057 -1.93572,-0.176985 -2.85,-0.506588 V 32.35625 h 3.718395 l 0.770925,1.92318 h 1.49454 L 29.8625,30.575 Z m 24.038467,0 L 40.55,31.627077 c 0.92112,0.203063 1.813455,0.519698 2.65791,0.943493 l 3.84921,6.217702 -4.283407,6.918945 c -0.828781,0.4104 -1.703161,0.716918 -2.605043,0.915705 L 40.69478,47.675 h 5.34375 l 0.737437,-0.73758 c -0.727034,-0.286853 -1.473307,-0.521835 -2.23212,-0.706943 l 3.5625,-5.74731 3.584873,5.789063 c -0.704093,0.178837 -1.397355,0.39843 -2.073518,0.66519 l 0.73758,0.73758 h 5.34375 L 56.225,46.622922 c -0.781042,-0.172282 -1.542705,-0.425505 -2.271165,-0.75696 l -4.055123,-6.551722 4.15815,-6.724148 c 0.855285,-0.433057 1.759733,-0.75696 2.694105,-0.963015 L 56.225,30.575 h -5.34375 l -0.73758,0.73758 c 0.710932,0.28044 1.440675,0.509722 2.182102,0.692978 l -3.473437,5.619345 -3.534713,-5.708408 c 0.623723,-0.167865 1.238326,-0.366653 1.839675,-0.603915 L 46.419718,30.575 Z M 28.351288,37.7 28.148082,38.774307 c 0.88464,0.04731 1.732658,0.36822 2.426918,0.918413 v 13.125675 c -0.690983,0.541785 -1.536578,0.86355 -2.426918,0.907297 L 28.351288,54.8 h 12.335084 c 0.169433,-1.465043 0.527821,-2.90187 1.066043,-4.275 H 40.21598 c -0.449587,0.850012 -0.826642,1.73622 -1.127175,2.649645 -0.696112,-0.09291 -1.398068,-0.143783 -2.101305,-0.150338 v -0.0056 H 33.425 v -6.4125 l 1.425,0.0028 c 0.876232,0.0295 1.648867,0.590948 1.942702,1.42215 H 37.7 V 43.4 h -0.770925 c -0.30096,0.85101 -1.10409,1.421438 -2.006685,1.425 H 33.425 v -5.34375 h 2.85 v -0.0056 c 0.78261,-0.0077 1.563653,-0.06897 2.337855,-0.183682 l 0.726465,2.11242 h 1.49454 L 39.8375,37.7 Z"
     fill="url(#m)"
     opacity="0.05"
     id="path105"
     style="fill:url(#m);stroke-width:1.425" />
  <path
     d="M 46.05791,12.05 44.479865,14.9 H 41.975 v 1.425 H 43.4 v 3.470588 L 46.898518,13.475 H 51.95 V 12.05 Z M 36.275,14.9 v 1.425 H 40.55 V 14.9 Z m 14.25,1.425 c -1.177192,0 -2.85,0.73758 -2.85,3.5625 0,2.189513 1.384387,3.518183 2.85,3.5625 1.005195,0 2.107718,-0.366795 2.614875,-1.14855 l -1.101668,-0.729885 c -0.493192,0.529815 -1.054499,0.542355 -1.467892,0.542355 -0.70851,0 -1.450935,-0.593797 -1.450792,-1.51392 L 53.375,20.38625 V 19.175 c 0,-1.5789 -1.2711,-2.85 -2.85,-2.85 z m -14.25,1.425 v 1.425 H 40.55 V 17.75 Z m 14.243587,-0.13167 c 1.098818,-0.02964 1.480718,0.700103 1.517055,1.55667 l -2.985375,-0.0038 c 0.04232,-0.747556 0.317205,-1.521901 1.46832,-1.552823 z M 39.125,20.6 v 1.425 h 1.425 v 2.85 h 1.425 v -2.85 H 43.4 v 2.85 h 1.425 v -2.85 H 46.25 V 20.6 Z"
     fill="#fcfcfc"
     opacity="0.15"
     id="path107"
     style="stroke-width:1.425" />
  <path
     d="M 3.5,53.375 V 54.8 c 0,3.1578 2.5422,5.7 5.7,5.7 h 45.6 c 3.1578,0 5.7,-2.5422 5.7,-5.7 v -1.425 c 0,3.1578 -2.5422,5.7 -5.7,5.7 H 9.2 c -3.1578,0 -5.7,-2.5422 -5.7,-5.7 z"
     opacity="0.12"
     id="path109"
     style="stroke-width:1.425" />
  <path
     d="M 3.5,10.625 V 9.2 C 3.5,6.0422 6.0422,3.5 9.2,3.5 h 45.6 c 3.1578,0 5.7,2.5422 5.7,5.7 v 1.425 c 0,-3.1578 -2.5422,-5.7 -5.7,-5.7 H 9.2 c -3.1578,0 -5.7,2.5422 -5.7,5.7 z"
     fill="#ffffff"
     opacity="0.12"
     id="path111"
     style="stroke-width:1.425" />
  <path
     d="m 20.920055,11.43497 -4.238805,0.793155 c -1.773697,0.267188 -3.191857,1.627065 -3.551385,3.384375 h -0.02223 l -0.837757,3.292463 0.99636,0.996502 0.910147,-3.576465 h 0.02223 C 14.558142,14.56769 15.976303,13.207812 17.75,12.940625 l 3.938272,-0.73758 z"
     fill="#000018"
     opacity="0.03"
     id="path113"
     style="stroke-width:1.425" />
  <path
     d="m 21.30965,11.824565 -4.05783,0.75981 c -1.773697,0.267188 -3.191857,1.627065 -3.551385,3.384375 h -0.02223 l -0.87951,3.46503 0.467543,0.467685 0.910147,-3.576465 h 0.02223 C 14.558142,14.56769 15.976303,13.207812 17.75,12.940625 l 3.938272,-0.73758 z"
     fill="#000016"
     opacity="0.03"
     id="path115"
     style="stroke-width:1.425" />
</svg>
