<?xml version="1.0" encoding="UTF-8" standalone="no"?>
<svg
   height="64"
   viewBox="0 0 16.932 16.932"
   width="64"
   version="1.1"
   id="svg143"
   sodipodi:docname="hotspot.svg"
   inkscape:version="1.2.1 (9c6d41e410, 2022-07-14)"
   xmlns:inkscape="http://www.inkscape.org/namespaces/inkscape"
   xmlns:sodipodi="http://sodipodi.sourceforge.net/DTD/sodipodi-0.dtd"
   xmlns:xlink="http://www.w3.org/1999/xlink"
   xmlns="http://www.w3.org/2000/svg"
   xmlns:svg="http://www.w3.org/2000/svg">
  <sodipodi:namedview
     id="namedview145"
     pagecolor="#ffffff"
     bordercolor="#666666"
     borderopacity="1.0"
     inkscape:showpageshadow="2"
     inkscape:pageopacity="0.0"
     inkscape:pagecheckerboard="0"
     inkscape:deskcolor="#d1d1d1"
     showgrid="false"
     inkscape:zoom="5.2149125"
     inkscape:cx="11.409587"
     inkscape:cy="5.2733387"
     inkscape:window-width="1920"
     inkscape:window-height="1002"
     inkscape:window-x="0"
     inkscape:window-y="0"
     inkscape:window-maximized="1"
     inkscape:current-layer="svg143" />
  <defs
     id="defs1">
    <style
       type="text/css"
       id="current-color-scheme">
            .ColorScheme-Text {
                color:#eff0f1;
            }
        </style>
    <filter
       inkscape:collect="always"
       style="color-interpolation-filters:sRGB"
       id="filter1057"
       x="-0.026999999"
       width="1.054"
       y="-0.026999999"
       height="1.054">
      <feGaussianBlur
         inkscape:collect="always"
         stdDeviation="0.61875"
         id="feGaussianBlur1059" />
    </filter>
    <linearGradient
       inkscape:collect="always"
       xlink:href="#linearGradient1051"
       id="linearGradient1053"
       x1="-98.535088"
       y1="60.492455"
       x2="-97.570175"
       y2="5.4924579"
       gradientUnits="userSpaceOnUse"
       gradientTransform="matrix(0.27418294,0,0,0.27418297,35.747205,-0.39609824)" />
    <linearGradient
       inkscape:collect="always"
       id="linearGradient1051">
      <stop
         style="stop-color:#5e81ac;stop-opacity:1;"
         offset="0"
         id="stop1047" />
      <stop
         style="stop-color:#8fbcbb;stop-opacity:1;"
         offset="1"
         id="stop1049" />
    </linearGradient>
  </defs>
  <rect
     style="opacity:0.3;fill:#141414;fill-opacity:1;stroke-width:2.74436;stroke-linecap:round;filter:url(#filter1057)"
     id="rect1055"
     width="55"
     height="55"
     x="3.9849999"
     y="5.9850001"
     ry="15"
     transform="matrix(0.2645625,0,0,0.2645625,1.9770192e-6,0.05158976)" />
  <rect
     ry="2.4717591"
     y="0.97755843"
     x="0.92596984"
     height="15.080063"
     width="15.08006"
     id="rect1045"
     style="fill:url(#linearGradient1053);fill-opacity:1;stroke-width:0.752458;stroke-linecap:round"
     rx="2.4635336" />
  <path
     style="color:#eff0f1;fill:currentColor;fill-opacity:1;stroke:none;stroke-width:2.37528"
     class="ColorScheme-Text"
     d="m 7.982053,8.1438398 a 1.8764688,1.8764688 0 0 0 -0.2114,0.01663 C 6.725531,8.2934847 5.958317,9.2055918 5.929813,10.272089 l 0.0048,0.0095 c 0.05938,0.09264 0.12589,0.190021 0.185272,0.299284 l 0.104512,-0.106888 a 1.0593736,1.0593736 0 0 1 0.39192,-0.239901 0.26128047,0.27315686 0 0 1 0.218526,0.491681 c 0.0475,-0.0285 -0.0048,0.01425 -0.02375,0.106887 a 0.93823442,0.93823442 0 0 0 -0.01188,0.289784 c 0.166269,0.617572 0.843223,1.092627 1.705449,0.94061 0.636574,-0.152018 1.256521,-0.527312 1.46317,-1.330155 A 2.2398862,2.2398862 0 0 0 9.872822,9.2744739 2.0949943,2.0949943 0 0 0 7.982102,8.1438418 Z m -2.396655,-1.178138 0.02375,0.831347 -0.17577,0.349166 0.019,0.6175726 0.168644,0.311161 c 0.01188,0.02613 -0.01425,0.04988 0,0.07363 A 2.306394,2.306394 0 0 1 5.996316,8.3053547 L 6.050946,7.9514387 5.889427,7.3338667 Z M 8.972543,2.9752369 c -0.07126,0.111638 -0.13064,0.232777 -0.182896,0.356291 L 8.623378,3.6498157 8.388225,4.4004027 a 0.70545728,0.70545728 0 0 0 -0.0285,0.08788 l 0.370543,0.6080709 0.190022,0.1971481 0.07126,0.07126 -0.06888,-0.42755 -0.0048,-0.038 -0.01663,-1.524928 z m -0.356291,-0.02375 a 4.2113662,4.2113662 0 0 0 -0.370543,0.26128 L 7.801532,3.6308157 7.326476,4.3505247 7.036692,5.1438677 6.92743,6.0132187 c -0.01425,0.437051 0.03563,0.871727 0.140141,1.275524 v 0.0048 l 0.06888,0.275532 c 1.847966,-0.629449 4.007092,0.7909672 3.311136,3.3966433 -0.251779,0.8551 -1.026119,1.270773 -1.769581,1.425166 -1.049873,0.16627 -1.933476,-0.349166 -2.147251,-1.076 -0.038,-0.228027 0.02138,-0.524936 0.156769,-0.622322 l 0.0048,-0.01425 a 0.77909086,0.77909086 0 0 0 -0.30641,0.163895 C 6.172139,11.025102 6.167388,11.086859 5.891856,11.158117 6.027247,10.808951 5.28141,10.526293 5.416801,9.7757088 c 0,-0.01663 -0.03563,0.1425161 -0.03088,0.123514 -0.330164,1.6603162 1.529678,3.5272842 3.591419,3.0213502 1.399038,-0.318288 2.23276,-1.256522 2.505917,-2.315895 A 3.3895203,3.3895203 0 0 0 10.727919,7.5310718 4.6626688,4.6626688 0 0 0 10.371627,7.1605287 l -0.0048,-0.0047 -0.0095,-0.0095 A 9.0022999,9.0022999 0 0 0 9.516479,6.4812507 L 8.699383,5.8399267 a 1.6223142,1.6223142 0 0 1 -0.04513,-0.04751 L 8.400099,5.4883807 a 1.783833,1.783833 0 0 1 -0.05701,-0.09264 l -0.194773,-0.508309 -0.06888,-0.7007069 0.09501,-0.593819 0.01188,-0.038 z M 6.701778,10.671134 a 0.0308786,0.0308786 0 0 0 -0.0095,0.0047 0.03800443,0.03800443 0 0 0 -0.0024,0.0095 c 0.0048,0 0.0071,-0.0095 0.01188,-0.01188 z"
     id="path141-3" />
</svg>
