<?xml version="1.0" encoding="UTF-8" standalone="no"?>
<svg
   height="64"
   width="64"
   version="1.1"
   id="svg12786"
   sodipodi:docname="pattern-java-devel.svg"
   inkscape:version="1.2.1 (9c6d41e410, 2022-07-14)"
   xmlns:inkscape="http://www.inkscape.org/namespaces/inkscape"
   xmlns:sodipodi="http://sodipodi.sourceforge.net/DTD/sodipodi-0.dtd"
   xmlns:xlink="http://www.w3.org/1999/xlink"
   xmlns="http://www.w3.org/2000/svg"
   xmlns:svg="http://www.w3.org/2000/svg">
  <defs
     id="defs12790">
    <linearGradient
       inkscape:collect="always"
       xlink:href="#linearGradient1051"
       id="linearGradient1053"
       x1="-98.535088"
       y1="60.492455"
       x2="-97.570175"
       y2="5.4924579"
       gradientUnits="userSpaceOnUse"
       gradientTransform="matrix(1.0363636,0,0,1.0363637,135.11818,-1.6921826)" />
    <linearGradient
       inkscape:collect="always"
       id="linearGradient1051">
      <stop
         style="stop-color:#5e81ac;stop-opacity:1;"
         offset="0"
         id="stop1047" />
      <stop
         style="stop-color:#8fbcbb;stop-opacity:1;"
         offset="1"
         id="stop1049" />
    </linearGradient>
    <linearGradient
       id="linearGradient13966"
       gradientTransform="matrix(-1.379894,-0.36974149,0.36974149,-1.379894,-96.426894,0.5989993)"
       gradientUnits="userSpaceOnUse"
       x1="-80.458"
       x2="-73.210999"
       y1="16.417999"
       y2="43.464001">
      <stop
         offset="0"
         stop-color="#b0b4b8"
         id="stop12752-1" />
      <stop
         offset="1"
         stop-color="#dadcde"
         id="stop12754-7" />
    </linearGradient>
    <linearGradient
       id="linearGradient13968"
       gradientUnits="userSpaceOnUse"
       x1="18"
       x2="24"
       xlink:href="#b"
       y1="22"
       y2="28"
       gradientTransform="matrix(1.4285714,0,0,1.4285714,17.809999,-35.164285)" />
    <linearGradient
       id="linearGradient13972">
      <stop
         offset="0"
         stop-color="#292c2f"
         id="stop12765-2" />
      <stop
         offset="1"
         stop-color="#0b0000"
         stop-opacity="0"
         id="stop12767-7" />
    </linearGradient>
    <linearGradient
       id="linearGradient13974"
       gradientUnits="userSpaceOnUse"
       x1="13.667"
       x2="18.885"
       xlink:href="#b"
       y1="8.6660004"
       y2="13.885"
       gradientTransform="matrix(1.4285714,0,0,1.4285714,17.809999,-35.164285)" />
    <linearGradient
       id="linearGradient13976"
       gradientUnits="userSpaceOnUse"
       x1="17.666"
       x2="23"
       xlink:href="#b"
       y1="9.3330002"
       y2="14.667"
       gradientTransform="matrix(1.4285714,0,0,1.4285714,17.809999,-35.164285)" />
    <linearGradient
       id="linearGradient13978"
       gradientUnits="userSpaceOnUse"
       x1="21.666"
       x2="21.666"
       xlink:href="#a"
       y1="16"
       y2="6.6669998"
       gradientTransform="matrix(1.4285714,0,0,1.4285714,17.809999,-35.164285)" />
    <linearGradient
       id="linearGradient13982">
      <stop
         offset="0"
         stop-color="#f67400"
         id="stop12760-2" />
      <stop
         offset="1"
         stop-color="#f39c1f"
         id="stop12762-2" />
    </linearGradient>
    <linearGradient
       id="linearGradient13984"
       gradientUnits="userSpaceOnUse"
       x1="11"
       x2="11"
       xlink:href="#a"
       y1="14"
       y2="2"
       gradientTransform="matrix(1.4285714,0,0,1.4285714,17.809999,-35.164285)" />
    <linearGradient
       id="linearGradient13989"
       gradientUnits="userSpaceOnUse"
       x1="15"
       x2="15"
       y1="28"
       y2="15"
       gradientTransform="matrix(1.4285714,0,0,1.4285714,17.809999,-35.164285)">
      <stop
         offset="0"
         stop-color="#375a7d"
         id="stop12745-6" />
      <stop
         offset=".154"
         stop-color="#3b85b5"
         id="stop12747-1" />
      <stop
         offset="1"
         stop-color="#7cbcec"
         id="stop12749-0" />
    </linearGradient>
    <linearGradient
       inkscape:collect="always"
       xlink:href="#c"
       id="linearGradient14000"
       gradientUnits="userSpaceOnUse"
       gradientTransform="matrix(-1.379894,-0.36974149,0.36974149,-1.379894,-105.09404,44.906142)"
       x1="-80.458"
       y1="16.417999"
       x2="-73.210999"
       y2="43.464001" />
    <linearGradient
       inkscape:collect="always"
       xlink:href="#b"
       id="linearGradient14002"
       gradientUnits="userSpaceOnUse"
       gradientTransform="matrix(1.4285714,0,0,1.4285714,9.1428545,9.1428584)"
       x1="18"
       y1="22"
       x2="24"
       y2="28" />
    <linearGradient
       inkscape:collect="always"
       xlink:href="#b"
       id="linearGradient14004"
       gradientUnits="userSpaceOnUse"
       gradientTransform="matrix(1.4285714,0,0,1.4285714,9.1428545,9.1428584)"
       x1="13.667"
       y1="8.6660004"
       x2="18.885"
       y2="13.885" />
    <linearGradient
       inkscape:collect="always"
       xlink:href="#b"
       id="linearGradient14006"
       gradientUnits="userSpaceOnUse"
       gradientTransform="matrix(1.4285714,0,0,1.4285714,9.1428545,9.1428584)"
       x1="17.666"
       y1="9.3330002"
       x2="23"
       y2="14.667" />
    <linearGradient
       inkscape:collect="always"
       xlink:href="#a"
       id="linearGradient14008"
       gradientUnits="userSpaceOnUse"
       gradientTransform="matrix(1.4285714,0,0,1.4285714,9.1428545,9.1428584)"
       x1="21.666"
       y1="16"
       x2="21.666"
       y2="6.6669998" />
    <linearGradient
       inkscape:collect="always"
       xlink:href="#a"
       id="linearGradient14010"
       gradientUnits="userSpaceOnUse"
       gradientTransform="matrix(1.4285714,0,0,1.4285714,9.1428545,9.1428584)"
       x1="11"
       y1="14"
       x2="11"
       y2="2" />
    <linearGradient
       inkscape:collect="always"
       xlink:href="#i"
       id="linearGradient14012"
       gradientUnits="userSpaceOnUse"
       gradientTransform="matrix(1.4285714,0,0,1.4285714,9.1428545,9.1428584)"
       x1="15"
       y1="28"
       x2="15"
       y2="15" />
  </defs>
  <sodipodi:namedview
     id="namedview12788"
     pagecolor="#ffffff"
     bordercolor="#666666"
     borderopacity="1.0"
     inkscape:showpageshadow="2"
     inkscape:pageopacity="0.0"
     inkscape:pagecheckerboard="0"
     inkscape:deskcolor="#d1d1d1"
     showgrid="false"
     inkscape:zoom="7.375"
     inkscape:cx="16.067797"
     inkscape:cy="16.067797"
     inkscape:window-width="1920"
     inkscape:window-height="1002"
     inkscape:window-x="0"
     inkscape:window-y="0"
     inkscape:window-maximized="1"
     inkscape:current-layer="svg12786" />
  <linearGradient
     id="h"
     gradientUnits="userSpaceOnUse"
     x1="11"
     x2="11"
     xlink:href="#a"
     y1="14"
     y2="2"
     gradientTransform="matrix(1.4285714,0,0,1.4285714,17.809999,-35.164285)" />
  <linearGradient
     id="g"
     gradientUnits="userSpaceOnUse"
     x1="21.666"
     x2="21.666"
     xlink:href="#a"
     y1="16"
     y2="6.6669998"
     gradientTransform="matrix(1.4285714,0,0,1.4285714,17.809999,-35.164285)" />
  <linearGradient
     id="i"
     gradientUnits="userSpaceOnUse"
     x1="15"
     x2="15"
     y1="28"
     y2="15"
     gradientTransform="matrix(1.4285714,0,0,1.4285714,17.809999,-35.164285)">
    <stop
       offset="0"
       stop-color="#375a7d"
       id="stop12745" />
    <stop
       offset=".154"
       stop-color="#3b85b5"
       id="stop12747" />
    <stop
       offset="1"
       stop-color="#7cbcec"
       id="stop12749" />
  </linearGradient>
  <linearGradient
     id="c"
     gradientTransform="matrix(-1.379894,-0.36974149,0.36974149,-1.379894,-96.426894,0.5989993)"
     gradientUnits="userSpaceOnUse"
     x1="-80.458"
     x2="-73.210999"
     y1="16.417999"
     y2="43.464001">
    <stop
       offset="0"
       stop-color="#b0b4b8"
       id="stop12752" />
    <stop
       offset="1"
       stop-color="#dadcde"
       id="stop12754" />
  </linearGradient>
  <linearGradient
     id="f"
     gradientUnits="userSpaceOnUse"
     x1="17.666"
     x2="23"
     xlink:href="#b"
     y1="9.3330002"
     y2="14.667"
     gradientTransform="matrix(1.4285714,0,0,1.4285714,17.809999,-35.164285)" />
  <linearGradient
     id="e"
     gradientUnits="userSpaceOnUse"
     x1="13.667"
     x2="18.885"
     xlink:href="#b"
     y1="8.6660004"
     y2="13.885"
     gradientTransform="matrix(1.4285714,0,0,1.4285714,17.809999,-35.164285)" />
  <linearGradient
     id="d"
     gradientUnits="userSpaceOnUse"
     x1="18"
     x2="24"
     xlink:href="#b"
     y1="22"
     y2="28"
     gradientTransform="matrix(1.4285714,0,0,1.4285714,17.809999,-35.164285)" />
  <linearGradient
     id="a">
    <stop
       offset="0"
       stop-color="#f67400"
       id="stop12760" />
    <stop
       offset="1"
       stop-color="#f39c1f"
       id="stop12762" />
  </linearGradient>
  <linearGradient
     id="b">
    <stop
       offset="0"
       stop-color="#292c2f"
       id="stop12765" />
    <stop
       offset="1"
       stop-color="#0b0000"
       stop-opacity="0"
       id="stop12767" />
  </linearGradient>
  <rect
     ry="9.3428173"
     y="3.5"
     x="3.5"
     height="57"
     width="56.999992"
     id="rect1045"
     style="fill:url(#linearGradient1053);fill-opacity:1;stroke-width:2.84416;stroke-linecap:round"
     rx="9.3117266" />
  <path
     d="m 51.999994,32 a 20,20 0 0 1 -19.999995,20 20,20 0 0 1 -20,-20 20,20 0 0 1 20,-20 20,20 0 0 1 19.999995,20 z"
     fill="url(#c)"
     fill-rule="evenodd"
     id="path12770-6"
     style="fill:url(#linearGradient14000);stroke-width:1.42857" />
  <path
     d="m 51.969994,31.162857 a 20,20 0 0 1 -19.969995,19.408572 20,20 0 0 1 -19.97,-19.162857 20,20 0 0 0 -0.03,0.591428 20,20 0 0 0 20,20 20,20 0 0 0 19.999995,-20 20,20 0 0 0 -0.03,-0.837143 z"
     fill="#292c2f"
     opacity="0.2"
     id="path12772-1"
     style="stroke-width:1.42857" />
  <path
     d="M 43.42857,32 24.857142,49.142857 25.024285,49.31 c 2.242857,0.851429 4.577143,1.251429 6.975714,1.261429 A 20,20 0 0 0 50.942854,36.902857 l -2.637142,-2.637143 -3.448571,-0.837143 z m 6.835714,8.088571 c -0.0529,0.122858 -0.10857,0.244286 -0.16429,0.365715 l 0.1,-0.21 c 0.0229,-0.05 0.0429,-0.104286 0.0643,-0.155715 z M 49.607144,41.45 a 20,20 0 0 1 -0.56143,0.98 c 0.14286,-0.225714 0.28,-0.455714 0.41286,-0.685714 0.0514,-0.09714 0.0971,-0.197143 0.14714,-0.294286 z"
     fill="url(#d)"
     opacity="0.3"
     id="path12774-5"
     style="fill:url(#linearGradient14002);stroke-width:1.42857" />
  <path
     d="m 34.379999,12 v 3.808571 l -7.617143,7.62 3.808572,5.714286 1.548571,1.548572 2.962857,-2.5 -1.581428,-5.714286 3.548571,-3.05 3.044286,-0.761429 h 0.954285 z"
     fill="url(#e)"
     opacity="0.3"
     id="path12776-9"
     style="fill:url(#linearGradient14004);stroke-width:1.42857" />
  <path
     d="m 55.332854,44.307143 -5.2,-5.2 -2.41857,-1.392857 -3.809999,-3.81 H 32.475713 L 30.571428,32 l 4.51,-3.81 -1.58,-5.714286 3.548571,-3.047143 3.045714,-0.761428 h 1.904286 L 55.332854,32 Z"
     fill="url(#f)"
     opacity="0.3"
     id="path12778-4"
     style="fill:url(#linearGradient14006);stroke-width:1.42857" />
  <path
     d="m 30.571428,32 1.904285,-1.904286 c 0.374286,-0.374285 0.74,-0.765714 0.962857,-1.244285 0.222858,-0.478572 0.291429,-1.024286 0.205715,-1.542858 -0.08429,-0.521428 -0.311429,-1.007142 -0.554286,-1.475714 -0.244286,-0.467143 -0.507143,-0.935714 -0.614286,-1.451428 -0.151428,-0.734286 0.03143,-1.511429 0.4,-2.162858 0.37,-0.651428 0.914286,-1.188571 1.505715,-1.647142 a 9.8557143,9.8557143 0 0 1 7.618571,-1.904286 10.218571,10.218571 0 0 0 -5.714286,1.904286 c -0.614285,0.442857 -1.19,0.965714 -1.571428,1.621428 a 3.1857143,3.1857143 0 0 0 -0.394286,1.062857 2.5,2.5 0 0 0 0.06143,1.125715 c 0.208571,0.697142 0.734285,1.242857 1.18,1.817142 0.225714,0.287143 0.434285,0.59 0.574285,0.925715 0.138572,0.334285 0.211429,0.708571 0.15,1.065714 -0.07857,0.46 -0.365714,0.862857 -0.72,1.168572 -0.352857,0.304285 -0.77,0.522857 -1.185714,0.737142 C 33.12,30.747143 31.847143,31.381429 30.571428,32 Z"
     fill="url(#g)"
     id="path12780-9"
     style="fill:url(#linearGradient14008);stroke-width:1.42857" />
  <path
     d="m 30.571428,29.142857 a 19.542857,19.542857 0 0 0 -1.904286,-1.904286 c -0.905714,-0.787142 -1.888572,-1.497142 -2.66,-2.417142 A 5.3957143,5.3957143 0 0 1 25.079999,23.29 3.5828571,3.5828571 0 0 1 24.857142,21.524286 c 0.114286,-0.82 0.565714,-1.562857 1.154286,-2.141429 0.59,-0.577143 1.314285,-1.001428 2.061428,-1.352857 1.497143,-0.697143 3.15,-1.144286 4.402857,-2.22 A 5.5542857,5.5542857 0 0 0 34.381428,12 c 0.687142,0.781429 1.077142,1.817143 1.077142,2.857143 0,1.04 -0.39,2.075714 -1.077142,2.857143 -0.934286,1.061428 -2.312858,1.594285 -3.511429,2.344285 -0.597143,0.375715 -1.165714,0.82 -1.584286,1.391429 -0.418571,0.567143 -0.68,1.275714 -0.618571,1.978571 0.06286,0.714286 0.441428,1.357143 0.842857,1.95 0.4,0.592858 0.844286,1.177143 1.061429,1.86 0.195714,0.614286 0.195714,1.288572 0,1.904286 z"
     fill="url(#h)"
     id="path12782-0"
     style="fill:url(#linearGradient14010);stroke-width:1.42857" />
  <path
     d="m 20.571428,32 v 8.571429 a 10,10 0 0 0 4.285714,8.191428 v 0.38 H 39.142856 V 48.774286 A 10,10 0 0 0 43.319999,42 h 2.965713 a 2.8571429,2.8571429 0 0 0 2.857142,-2.857143 V 36.285714 A 2.8571429,2.8571429 0 0 0 46.285712,33.428571 H 43.42857 V 32 Z m 22.857142,2.857143 h 2.857142 a 1.4285714,1.4285714 0 0 1 1.428572,1.428571 v 2.857143 a 1.4285714,1.4285714 0 0 1 -1.428572,1.428572 H 43.42857 Z"
     fill="url(#i)"
     fill-rule="evenodd"
     id="path12784-9"
     style="fill:url(#linearGradient14012);stroke-width:1.42857" />
</svg>
