<?xml version="1.0" encoding="UTF-8" standalone="no"?>
<svg
   height="64"
   width="64"
   version="1.1"
   id="svg16942"
   sodipodi:docname="pattern-perl-devel.svg"
   inkscape:version="1.2.1 (9c6d41e410, 2022-07-14)"
   xmlns:inkscape="http://www.inkscape.org/namespaces/inkscape"
   xmlns:sodipodi="http://sodipodi.sourceforge.net/DTD/sodipodi-0.dtd"
   xmlns:xlink="http://www.w3.org/1999/xlink"
   xmlns="http://www.w3.org/2000/svg"
   xmlns:svg="http://www.w3.org/2000/svg">
  <defs
     id="defs16946">
    <linearGradient
       inkscape:collect="always"
       xlink:href="#linearGradient1051"
       id="linearGradient1053"
       x1="-98.535088"
       y1="60.492455"
       x2="-97.570175"
       y2="5.4924579"
       gradientUnits="userSpaceOnUse"
       gradientTransform="matrix(1.0363636,0,0,1.0363637,135.11818,-1.6921822)" />
    <linearGradient
       inkscape:collect="always"
       id="linearGradient1051">
      <stop
         style="stop-color:#5e81ac;stop-opacity:1;"
         offset="0"
         id="stop1047" />
      <stop
         style="stop-color:#8fbcbb;stop-opacity:1;"
         offset="1"
         id="stop1049" />
    </linearGradient>
    <linearGradient
       id="linearGradient17555"
       gradientUnits="userSpaceOnUse"
       x1="16"
       x2="16"
       y1="30"
       y2="2"
       gradientTransform="matrix(1.3571428,0,0,1.3571428,38.501682,-32.900362)">
      <stop
         offset="0"
         stop-color="#2980b9"
         id="stop16917-4" />
      <stop
         offset="1"
         stop-color="#68afde"
         id="stop16919-8" />
    </linearGradient>
    <linearGradient
       id="linearGradient17559"
       gradientUnits="userSpaceOnUse"
       x1="10"
       x2="24"
       y1="10"
       y2="24"
       gradientTransform="matrix(1.3571428,0,0,1.3571428,38.501682,-32.900362)">
      <stop
         offset="0"
         stop-color="#292c2f"
         id="stop16922-1" />
      <stop
         offset="1"
         stop-opacity="0"
         id="stop16924-2" />
    </linearGradient>
    <linearGradient
       id="linearGradient17563"
       gradientUnits="userSpaceOnUse"
       x1="24"
       x2="24"
       y1="25"
       y2="7"
       gradientTransform="matrix(1.3571428,0,0,1.3571428,38.501682,-32.900362)">
      <stop
         offset="0"
         stop-color="#bb9d71"
         id="stop16912-9" />
      <stop
         offset="1"
         stop-color="#f9f2e7"
         id="stop16914-3" />
    </linearGradient>
    <linearGradient
       inkscape:collect="always"
       xlink:href="#a"
       id="linearGradient17570"
       gradientUnits="userSpaceOnUse"
       gradientTransform="matrix(1.3571428,0,0,1.3571428,10.285709,10.285715)"
       x1="16"
       y1="30"
       x2="16"
       y2="2" />
    <linearGradient
       inkscape:collect="always"
       xlink:href="#c"
       id="linearGradient17572"
       gradientUnits="userSpaceOnUse"
       gradientTransform="matrix(1.3571428,0,0,1.3571428,10.285709,10.285715)"
       x1="10"
       y1="10"
       x2="24"
       y2="24" />
    <linearGradient
       inkscape:collect="always"
       xlink:href="#d"
       id="linearGradient17574"
       gradientUnits="userSpaceOnUse"
       gradientTransform="matrix(1.3571428,0,0,1.3571428,10.285709,10.285715)"
       x1="24"
       y1="25"
       x2="24"
       y2="7" />
  </defs>
  <sodipodi:namedview
     id="namedview16944"
     pagecolor="#ffffff"
     bordercolor="#666666"
     borderopacity="1.0"
     inkscape:showpageshadow="2"
     inkscape:pageopacity="0.0"
     inkscape:pagecheckerboard="0"
     inkscape:deskcolor="#d1d1d1"
     showgrid="false"
     inkscape:zoom="7.375"
     inkscape:cx="16.067797"
     inkscape:cy="16.067797"
     inkscape:window-width="1920"
     inkscape:window-height="1002"
     inkscape:window-x="0"
     inkscape:window-y="0"
     inkscape:window-maximized="1"
     inkscape:current-layer="svg16942" />
  <linearGradient
     id="d"
     gradientUnits="userSpaceOnUse"
     x1="24"
     x2="24"
     y1="25"
     y2="7"
     gradientTransform="matrix(1.3571428,0,0,1.3571428,38.501682,-32.900362)">
    <stop
       offset="0"
       stop-color="#bb9d71"
       id="stop16912" />
    <stop
       offset="1"
       stop-color="#f9f2e7"
       id="stop16914" />
  </linearGradient>
  <linearGradient
     id="a"
     gradientUnits="userSpaceOnUse"
     x1="16"
     x2="16"
     y1="30"
     y2="2"
     gradientTransform="matrix(1.3571428,0,0,1.3571428,38.501682,-32.900362)">
    <stop
       offset="0"
       stop-color="#2980b9"
       id="stop16917" />
    <stop
       offset="1"
       stop-color="#68afde"
       id="stop16919" />
  </linearGradient>
  <linearGradient
     id="c"
     gradientUnits="userSpaceOnUse"
     x1="10"
     x2="24"
     y1="10"
     y2="24"
     gradientTransform="matrix(1.3571428,0,0,1.3571428,38.501682,-32.900362)">
    <stop
       offset="0"
       stop-color="#292c2f"
       id="stop16922" />
    <stop
       offset="1"
       stop-opacity="0"
       id="stop16924" />
  </linearGradient>
  <linearGradient
     id="b"
     gradientUnits="userSpaceOnUse"
     x1="-13"
     x2="-13"
     y1="27"
     y2="5">
    <stop
       offset="0"
       stop-color="#3b85b5"
       id="stop16927" />
    <stop
       offset="1"
       stop-color="#7cbcec"
       id="stop16929" />
  </linearGradient>
  <circle
     cx="16"
     cy="16"
     fill="url(#b)"
     id="ellipse16934"
     r="0"
     style="fill:url(#b)" />
  <rect
     ry="9.3428173"
     y="3.5"
     x="3.5"
     height="57"
     width="56.999992"
     id="rect1045"
     style="fill:url(#linearGradient1053);fill-opacity:1;stroke-width:2.84416;stroke-linecap:round"
     rx="9.3117266" />
  <circle
     cx="31.999996"
     cy="32.000008"
     fill="url(#a)"
     r="19"
     id="circle16932-9"
     style="fill:url(#linearGradient17570);stroke-width:1.35714" />
  <path
     d="m 37.934781,20.636643 -7.384214,4.669928 -3.729428,-3.732143 -5.314572,1.919 2.350572,2.354643 0.350142,5.801786 5.078429,5.078428 -1.110143,6.128858 -1.699143,1.023286 7.0395,7.039499 a 19,19 0 0 0 2.5555,-0.375928 v -2.794357 a 16.285714,16.285714 0 0 0 4.185429,-1.733072 l 1.971928,1.971929 a 19,19 0 0 0 5.773286,-5.746143 l -1.9855,-1.985501 a 16.285714,16.285714 0 0 0 1.739857,-4.185428 h 2.7835 a 19,19 0 0 0 0.366428,-2.467286 z"
     fill="url(#c)"
     opacity="0.3"
     id="path16936-0"
     style="fill:url(#linearGradient17572);stroke-width:1.35714" />
  <path
     d="m 36.241067,19.785714 c -0.708429,0.0041 -2.611143,0.613429 -3.301929,1.055857 -0.223928,0.145215 -0.754571,0.808857 -1.178,1.479286 -0.420714,0.669071 -1.207857,1.476571 -1.748,1.794143 -0.591714,0.350143 -1.309642,1.259428 -1.818571,2.300357 -0.910643,1.859286 -1.362571,1.665214 -0.7125,-0.305357 0.574072,-1.743929 0.226643,-3.782357 -0.798,-4.663143 C 25.720496,20.619 24.861424,20.532143 24.302281,21.208 c -0.219857,0.261928 -0.784428,0.475 -1.258071,0.475 -1.169857,0 -2.157857,1.074857 -1.604143,1.741214 0.219857,0.266 0.684,0.481786 1.031429,0.481786 0.536071,0 0.599857,0.135714 0.404428,0.871285 -0.126214,0.477715 -0.298571,1.7005 -0.384071,2.711572 -0.135714,1.648928 -0.05971,1.957 0.742357,3.014214 1.620429,2.1375 3.0495,2.928714 4.192214,2.316643 0.527929,-0.280929 0.5985,-0.02171 0.912,3.354857 0.394929,4.235643 0.162857,5.523572 -1.218714,6.812858 -0.802071,0.7505 -0.853643,0.887571 -0.366429,1.013785 l 0.0027,0.0014 c 1.771071,0.458714 1.8715,0.359643 2.281357,-2.242 0.823785,-5.219572 0.924214,-5.728501 1.264857,-6.365001 0.19,-0.359642 0.348786,-0.951357 0.348786,-1.312357 0,-0.454643 0.204928,-0.654143 0.670428,-0.654143 0.708429,0 0.7125,0.07871 0.09771,3.129572 -0.195428,0.963571 -0.08957,1.180714 1.095215,2.263714 1.52,1.389714 1.628571,2.000429 0.491285,2.745501 -0.637857,0.418 -0.719285,0.590357 -0.371857,0.784429 0.650072,0.363714 1.825357,-0.02714 1.825357,-0.609358 0,-0.386786 0.146572,-0.342 0.6555,0.202215 0.359643,0.386785 0.787143,0.618857 0.952715,0.518428 0.456,-0.283643 0.352857,-1.293357 -0.179143,-1.734429 -0.681286,-0.565929 -0.597143,-1.004286 0.476357,-2.487643 0.76,-1.047714 0.952714,-1.642143 0.952714,-2.921929 0,-1.635357 0.754572,-3.637142 1.255357,-3.327713 0.153357,0.09229 0.3705,0.727428 0.487215,1.408713 0.112642,0.681286 0.407142,1.502358 0.648714,1.824 0.529286,0.696215 0.628357,5.102857 0.153357,6.758573 -0.314857,1.100643 0.02036,1.735785 0.7885,1.4915 0.301286,-0.095 0.485857,-3.69143 0.386786,-7.506358 -0.07736,-2.936857 0.103143,-5.852 0.374571,-6.124785 0.390857,-0.390857 0.711143,2.597571 0.350143,3.270714 -0.173714,0.322999 -0.222571,0.830571 -0.108571,1.127785 0.361,0.943214 1.347642,-1.395142 1.363928,-3.229999 0.0095,-1.336786 -0.156071,-1.8335 -0.939143,-2.820143 -0.523857,-0.659572 -0.952714,-1.362572 -0.952714,-1.560714 0,-0.1995 -0.494,-1.1305 -1.097929,-2.065572 -0.599857,-0.935071 -1.183428,-2.107643 -1.292,-2.605714 -0.230714,-1.050429 -1.526785,-2.179571 -2.494428,-2.172786 z m -1.045,13.329857 c 0.158786,0.08143 0.260571,0.730143 0.378643,1.982785 0.176428,1.885072 0.115357,2.566358 -0.295857,3.364358 v 0.0027 c -0.6175,1.194285 -0.814286,1.222785 -1.715429,0.263285 -0.842786,-0.895714 -0.856357,-1.188857 -0.101786,-2.157857 0.325715,-0.415286 0.781715,-1.33 1.017858,-2.026214 0.342,-1.020572 0.559142,-1.507785 0.716571,-1.429071 z"
     fill="url(#d)"
     id="path16938-8"
     style="fill:url(#linearGradient17574);stroke-width:1.35714" />
  <path
     d="M 50.971495,31.204714 A 19,19 0 0 1 31.999996,49.642857 19,19 0 0 1 13.028496,31.438142 19,19 0 0 0 12.999996,32 a 19,19 0 0 0 19,19 19,19 0 0 0 18.999999,-19 19,19 0 0 0 -0.0285,-0.795286 z"
     fill="#292c2f"
     opacity="0.2"
     id="path16940-8"
     style="stroke-width:1.35714" />
</svg>
