<?xml version="1.0" encoding="UTF-8" standalone="no"?>
<svg
   height="64"
   width="64"
   version="1.1"
   id="svg18166"
   sodipodi:docname="pattern-python-devel.svg"
   inkscape:version="1.2.1 (9c6d41e410, 2022-07-14)"
   xmlns:inkscape="http://www.inkscape.org/namespaces/inkscape"
   xmlns:sodipodi="http://sodipodi.sourceforge.net/DTD/sodipodi-0.dtd"
   xmlns:xlink="http://www.w3.org/1999/xlink"
   xmlns="http://www.w3.org/2000/svg"
   xmlns:svg="http://www.w3.org/2000/svg">
  <defs
     id="defs18170">
    <linearGradient
       inkscape:collect="always"
       xlink:href="#linearGradient1051"
       id="linearGradient1053"
       x1="-98.535088"
       y1="60.492455"
       x2="-97.570175"
       y2="5.4924579"
       gradientUnits="userSpaceOnUse"
       gradientTransform="matrix(1.0363636,0,0,1.0363637,135.11819,-1.692182)" />
    <linearGradient
       inkscape:collect="always"
       id="linearGradient1051">
      <stop
         style="stop-color:#5e81ac;stop-opacity:1;"
         offset="0"
         id="stop1047" />
      <stop
         style="stop-color:#ebcb8b;stop-opacity:1;"
         offset="1"
         id="stop1049" />
    </linearGradient>
    <linearGradient
       id="linearGradient18752"
       gradientTransform="matrix(-1.3571428,0,0,-1.3571428,85.471316,4.0433249)"
       gradientUnits="userSpaceOnUse"
       x1="10"
       x2="21"
       y1="3"
       y2="14">
      <stop
         offset="0"
         stop-color="#fdbc4b"
         id="stop18153-5" />
      <stop
         offset="1"
         stop-color="#fed286"
         id="stop18155-0" />
    </linearGradient>
    <linearGradient
       id="linearGradient18756"
       gradientUnits="userSpaceOnUse"
       x1="53"
       x2="37.599998"
       y1="-5.4000001"
       y2="-20.799999"
       gradientTransform="matrix(1.3571428,0,0,1.3571428,42.042748,-39.385245)">
      <stop
         offset="0"
         stop-color="#2980b9"
         id="stop18148-9" />
      <stop
         offset="1"
         stop-color="#489ed6"
         id="stop18150-6" />
    </linearGradient>
    <linearGradient
       inkscape:collect="always"
       xlink:href="#a"
       id="linearGradient18763"
       gradientUnits="userSpaceOnUse"
       gradientTransform="matrix(-1.3571428,0,0,-1.3571428,53.714281,53.714286)"
       x1="10"
       y1="3"
       x2="21"
       y2="14" />
    <linearGradient
       inkscape:collect="always"
       xlink:href="#b"
       id="linearGradient18765"
       gradientUnits="userSpaceOnUse"
       gradientTransform="matrix(1.3571428,0,0,1.3571428,10.285713,10.285716)"
       x1="53"
       y1="-5.4000001"
       x2="37.599998"
       y2="-20.799999" />
  </defs>
  <sodipodi:namedview
     id="namedview18168"
     pagecolor="#ffffff"
     bordercolor="#666666"
     borderopacity="1.0"
     inkscape:showpageshadow="2"
     inkscape:pageopacity="0.0"
     inkscape:pagecheckerboard="0"
     inkscape:deskcolor="#d1d1d1"
     showgrid="false"
     inkscape:zoom="7.375"
     inkscape:cx="16.067797"
     inkscape:cy="26.915254"
     inkscape:window-width="1920"
     inkscape:window-height="1002"
     inkscape:window-x="0"
     inkscape:window-y="0"
     inkscape:window-maximized="1"
     inkscape:current-layer="svg18166" />
  <linearGradient
     id="b"
     gradientUnits="userSpaceOnUse"
     x1="53"
     x2="37.599998"
     y1="-5.4000001"
     y2="-20.799999"
     gradientTransform="matrix(1.3571428,0,0,1.3571428,42.042748,-39.385245)">
    <stop
       offset="0"
       stop-color="#2980b9"
       id="stop18148" />
    <stop
       offset="1"
       stop-color="#489ed6"
       id="stop18150" />
  </linearGradient>
  <linearGradient
     id="a"
     gradientTransform="matrix(-1.3571428,0,0,-1.3571428,85.471316,4.0433249)"
     gradientUnits="userSpaceOnUse"
     x1="10"
     x2="21"
     y1="3"
     y2="14">
    <stop
       offset="0"
       stop-color="#fdbc4b"
       id="stop18153" />
    <stop
       offset="1"
       stop-color="#fed286"
       id="stop18155" />
  </linearGradient>
  <rect
     ry="9.3428173"
     y="3.5"
     x="3.5000033"
     height="57"
     width="56.999992"
     id="rect1045"
     style="fill:url(#linearGradient1053);fill-opacity:1;stroke-width:2.84416;stroke-linecap:round"
     rx="9.3117266" />
  <path
     d="m 42.857142,23.857143 v 2.714285 a 6.7857142,6.7857142 0 0 1 -6.785714,6.785714 h -8.142857 a 4.0714285,4.0714285 0 0 0 -4.071428,4.071429 v 9.5 A 4.0714285,4.0714285 0 0 0 27.928571,51 h 9.5 A 4.0714285,4.0714285 0 0 0 41.5,46.928571 V 42.857142 H 32 v -2.714285 h 14.928571 c 2.248785,0 4.071428,-3.645286 4.071428,-8.142857 0,-4.497572 -1.822643,-8.142857 -4.071428,-8.142857 z"
     fill="url(#a)"
     fill-rule="evenodd"
     id="path18158-3"
     style="fill:url(#linearGradient18763);stroke-width:1.35714" />
  <path
     d="M 26.571428,13 A 4.0714285,4.0714285 0 0 0 22.5,17.071428 v 4.071429 H 32 v 2.714286 H 17.071428 C 14.822643,23.857143 13,27.502428 13,32 c 0,4.497571 1.822643,8.142857 4.071428,8.142857 h 4.071429 v -2.714286 a 6.7857142,6.7857142 0 0 1 6.785714,-6.785714 h 8.142857 a 4.0714285,4.0714285 0 0 0 4.071429,-4.071429 v -9.5 A 4.0714285,4.0714285 0 0 0 36.071428,13 Z"
     fill="url(#b)"
     fill-rule="evenodd"
     id="path18160-8"
     style="fill:url(#linearGradient18765);stroke-width:1.35714" />
  <path
     d="m 26.571428,15.714286 a 1.3571428,1.3571428 0 0 0 -1.357143,1.357142 1.3571428,1.3571428 0 0 0 1.357143,1.357143 1.3571428,1.3571428 0 0 0 1.357143,-1.357143 1.3571428,1.3571428 0 0 0 -1.357143,-1.357142 z m 12.214286,31.214285 a 1.3571428,1.3571428 0 0 1 -1.357143,1.357143 1.3571428,1.3571428 0 0 1 -1.357143,-1.357143 1.3571428,1.3571428 0 0 1 1.357143,-1.357143 1.3571428,1.3571428 0 0 1 1.357143,1.357143 z"
     fill="#fcfcfc"
     id="path18162-5"
     style="stroke-width:1.35714" />
  <path
     d="m 50.966071,31.321428 c -0.176429,4.174572 -1.906786,7.464286 -4.0375,7.464286 H 32 v 1.357143 h 14.928571 c 2.248785,0 4.071428,-3.645286 4.071428,-8.142857 0,-0.232072 -0.02443,-0.450572 -0.03393,-0.678572 z m -27.108928,14.25 v 1.357143 A 4.0714285,4.0714285 0 0 0 27.928571,51 h 9.5 A 4.0714285,4.0714285 0 0 0 41.5,46.928571 v -1.357143 a 4.0714285,4.0714285 0 0 1 -4.071429,4.071429 h -9.5 A 4.0714285,4.0714285 0 0 1 23.857143,45.571428 Z M 22.5,19.785714 v 1.357143 H 32 v -1.357143 z m 17.642857,5.428571 a 4.0714285,4.0714285 0 0 1 -4.071429,4.071429 h -8.142857 a 6.7857142,6.7857142 0 0 0 -6.785714,6.785714 v 1.357143 a 6.7857142,6.7857142 0 0 1 6.785714,-6.785714 h 8.142857 a 4.0714285,4.0714285 0 0 0 4.071429,-4.071429 z M 13.033929,31.321428 C 13.024429,31.549428 13,31.767928 13,32 c 0,4.497571 1.822643,8.142857 4.071427,8.142857 h 4.071429 v -1.357143 h -4.071429 c -2.13207,0 -3.862428,-3.289714 -4.037498,-7.464286 z"
     fill="#292c2f"
     fill-rule="evenodd"
     opacity="0.2"
     id="path18164-6"
     style="stroke-width:1.35714" />
</svg>
