<?xml version="1.0" encoding="UTF-8" standalone="no"?>
<svg
   height="64"
   width="64"
   version="1.1"
   id="svg6059"
   sodipodi:docname="pattern-c-devel.svg"
   inkscape:version="1.2.1 (9c6d41e410, 2022-07-14)"
   xmlns:inkscape="http://www.inkscape.org/namespaces/inkscape"
   xmlns:sodipodi="http://sodipodi.sourceforge.net/DTD/sodipodi-0.dtd"
   xmlns:xlink="http://www.w3.org/1999/xlink"
   xmlns="http://www.w3.org/2000/svg"
   xmlns:svg="http://www.w3.org/2000/svg">
  <defs
     id="defs6063">
    <linearGradient
       inkscape:collect="always"
       xlink:href="#linearGradient1051"
       id="linearGradient1053"
       x1="-98.535088"
       y1="60.492455"
       x2="-97.570175"
       y2="5.4924579"
       gradientUnits="userSpaceOnUse"
       gradientTransform="matrix(1.0363636,0,0,1.0363637,135.11818,-1.6921829)" />
    <linearGradient
       inkscape:collect="always"
       id="linearGradient1051">
      <stop
         style="stop-color:#5e81ac;stop-opacity:1;"
         offset="0"
         id="stop1047" />
      <stop
         style="stop-color:#8fbcbb;stop-opacity:1;"
         offset="1"
         id="stop1049" />
    </linearGradient>
    <linearGradient
       id="linearGradient6957"
       gradientTransform="rotate(-165,10.384076,1.1610076)"
       gradientUnits="userSpaceOnUse"
       x1="-27.382999"
       x2="-20.311001"
       y1="21.552999"
       y2="47.945999">
      <stop
         offset="0"
         stop-color="#afb4b9"
         id="stop6036-2" />
      <stop
         offset="1"
         stop-color="#cfd2d5"
         id="stop6038-9" />
    </linearGradient>
    <linearGradient
       id="linearGradient6961"
       gradientUnits="userSpaceOnUse"
       x1="16"
       x2="16"
       y1="27"
       y2="5"
       gradientTransform="translate(39.142346,-38.420797)">
      <stop
         offset="0"
         stop-color="#1d99f3"
         id="stop6025-3" />
      <stop
         offset="1"
         stop-color="#56b3f6"
         id="stop6027-1" />
    </linearGradient>
    <linearGradient
       id="linearGradient6963"
       gradientUnits="userSpaceOnUse"
       x1="11"
       x2="20.947001"
       xlink:href="#a"
       y1="11"
       y2="20.947001"
       gradientTransform="translate(39.142346,-38.420797)" />
    <linearGradient
       id="linearGradient6967">
      <stop
         offset="0"
         stop-color="#292c2f"
         id="stop6019-9" />
      <stop
         offset="1"
         stop-color="#0e0f10"
         stop-opacity="0"
         id="stop6021-4" />
    </linearGradient>
    <linearGradient
       id="linearGradient6969"
       gradientUnits="userSpaceOnUse"
       x1="23"
       x2="30"
       xlink:href="#a"
       y1="15"
       y2="22"
       gradientTransform="translate(39.142346,-38.420797)" />
    <linearGradient
       id="linearGradient6971"
       gradientUnits="userSpaceOnUse"
       x1="24"
       x2="24"
       xlink:href="#b"
       y1="25"
       y2="7"
       gradientTransform="translate(39.142346,-38.420797)" />
    <linearGradient
       id="linearGradient6975">
      <stop
         offset="0"
         stop-color="#eff0f1"
         id="stop6014-7" />
      <stop
         offset="1"
         stop-color="#fcfcfc"
         id="stop6016-8" />
    </linearGradient>
    <linearGradient
       id="linearGradient6977"
       gradientUnits="userSpaceOnUse"
       x1="15"
       x2="22"
       xlink:href="#a"
       y1="15"
       y2="22"
       gradientTransform="translate(39.142346,-38.420797)" />
    <linearGradient
       id="linearGradient6979"
       gradientUnits="userSpaceOnUse"
       x1="16"
       x2="16"
       xlink:href="#b"
       y1="25"
       y2="7"
       gradientTransform="translate(39.142346,-38.420797)" />
    <linearGradient
       id="linearGradient6981"
       gradientUnits="userSpaceOnUse"
       x1="9.6359997"
       x2="17.271999"
       xlink:href="#a"
       y1="22.364"
       y2="30"
       gradientTransform="translate(39.142346,-38.420797)" />
    <linearGradient
       id="linearGradient6983"
       gradientUnits="userSpaceOnUse"
       x1="7"
       x2="7"
       xlink:href="#b"
       y1="25"
       y2="7"
       gradientTransform="translate(39.142346,-38.420797)" />
    <linearGradient
       inkscape:collect="always"
       xlink:href="#c"
       id="linearGradient8620"
       gradientUnits="userSpaceOnUse"
       gradientTransform="matrix(-1.379894,-0.36974149,0.36974149,-1.379894,-18.026958,71.129784)"
       x1="-27.382999"
       y1="21.552999"
       x2="-20.311001"
       y2="47.945999" />
    <linearGradient
       inkscape:collect="always"
       xlink:href="#d"
       id="linearGradient8622"
       gradientUnits="userSpaceOnUse"
       gradientTransform="matrix(1.4285714,0,0,1.4285714,9.1566309,9.1428593)"
       x1="16"
       y1="27"
       x2="16"
       y2="5" />
    <linearGradient
       inkscape:collect="always"
       xlink:href="#a"
       id="linearGradient8624"
       gradientUnits="userSpaceOnUse"
       gradientTransform="matrix(1.4285714,0,0,1.4285714,9.1566309,9.1428593)"
       x1="11"
       y1="11"
       x2="20.947001"
       y2="20.947001" />
    <linearGradient
       inkscape:collect="always"
       xlink:href="#a"
       id="linearGradient8626"
       gradientUnits="userSpaceOnUse"
       gradientTransform="matrix(1.4285714,0,0,1.4285714,9.1566309,9.1428593)"
       x1="23"
       y1="15"
       x2="30"
       y2="22" />
    <linearGradient
       inkscape:collect="always"
       xlink:href="#b"
       id="linearGradient8628"
       gradientUnits="userSpaceOnUse"
       gradientTransform="matrix(1.4285714,0,0,1.4285714,9.1566309,9.1428593)"
       x1="24"
       y1="25"
       x2="24"
       y2="7" />
    <linearGradient
       inkscape:collect="always"
       xlink:href="#a"
       id="linearGradient8630"
       gradientUnits="userSpaceOnUse"
       gradientTransform="matrix(1.4285714,0,0,1.4285714,9.1566309,9.1428593)"
       x1="15"
       y1="15"
       x2="22"
       y2="22" />
    <linearGradient
       inkscape:collect="always"
       xlink:href="#b"
       id="linearGradient8632"
       gradientUnits="userSpaceOnUse"
       gradientTransform="matrix(1.4285714,0,0,1.4285714,9.1566309,9.1428593)"
       x1="16"
       y1="25"
       x2="16"
       y2="7" />
    <linearGradient
       inkscape:collect="always"
       xlink:href="#a"
       id="linearGradient8634"
       gradientUnits="userSpaceOnUse"
       gradientTransform="matrix(1.4285714,0,0,1.4285714,9.1566309,9.1428593)"
       x1="9.6359997"
       y1="22.364"
       x2="17.271999"
       y2="30" />
    <linearGradient
       inkscape:collect="always"
       xlink:href="#b"
       id="linearGradient8636"
       gradientUnits="userSpaceOnUse"
       gradientTransform="matrix(1.4285714,0,0,1.4285714,9.1566309,9.1428593)"
       x1="7"
       y1="25"
       x2="7"
       y2="7" />
  </defs>
  <sodipodi:namedview
     id="namedview6061"
     pagecolor="#ffffff"
     bordercolor="#666666"
     borderopacity="1.0"
     inkscape:showpageshadow="2"
     inkscape:pageopacity="0.0"
     inkscape:pagecheckerboard="0"
     inkscape:deskcolor="#d1d1d1"
     showgrid="false"
     inkscape:zoom="7.375"
     inkscape:cx="16.067797"
     inkscape:cy="26.915254"
     inkscape:window-width="1920"
     inkscape:window-height="1002"
     inkscape:window-x="0"
     inkscape:window-y="0"
     inkscape:window-maximized="1"
     inkscape:current-layer="svg6059" />
  <linearGradient
     id="b">
    <stop
       offset="0"
       stop-color="#eff0f1"
       id="stop6014" />
    <stop
       offset="1"
       stop-color="#fcfcfc"
       id="stop6016" />
  </linearGradient>
  <linearGradient
     id="a">
    <stop
       offset="0"
       stop-color="#292c2f"
       id="stop6019" />
    <stop
       offset="1"
       stop-color="#0e0f10"
       stop-opacity="0"
       id="stop6021" />
  </linearGradient>
  <linearGradient
     id="f"
     gradientUnits="userSpaceOnUse"
     x1="23"
     x2="30"
     xlink:href="#a"
     y1="15"
     y2="22"
     gradientTransform="translate(39.142346,-38.420797)" />
  <linearGradient
     id="d"
     gradientUnits="userSpaceOnUse"
     x1="16"
     x2="16"
     y1="27"
     y2="5"
     gradientTransform="translate(39.142346,-38.420797)">
    <stop
       offset="0"
       stop-color="#1d99f3"
       id="stop6025" />
    <stop
       offset="1"
       stop-color="#56b3f6"
       id="stop6027" />
  </linearGradient>
  <linearGradient
     id="k"
     gradientUnits="userSpaceOnUse"
     x1="7"
     x2="7"
     xlink:href="#b"
     y1="25"
     y2="7"
     gradientTransform="translate(39.142346,-38.420797)" />
  <linearGradient
     id="i"
     gradientUnits="userSpaceOnUse"
     x1="16"
     x2="16"
     xlink:href="#b"
     y1="25"
     y2="7"
     gradientTransform="translate(39.142346,-38.420797)" />
  <linearGradient
     id="g"
     gradientUnits="userSpaceOnUse"
     x1="24"
     x2="24"
     xlink:href="#b"
     y1="25"
     y2="7"
     gradientTransform="translate(39.142346,-38.420797)" />
  <linearGradient
     id="e"
     gradientUnits="userSpaceOnUse"
     x1="11"
     x2="20.947001"
     xlink:href="#a"
     y1="11"
     y2="20.947001"
     gradientTransform="translate(39.142346,-38.420797)" />
  <linearGradient
     id="h"
     gradientUnits="userSpaceOnUse"
     x1="15"
     x2="22"
     xlink:href="#a"
     y1="15"
     y2="22"
     gradientTransform="translate(39.142346,-38.420797)" />
  <linearGradient
     id="j"
     gradientUnits="userSpaceOnUse"
     x1="9.6359997"
     x2="17.271999"
     xlink:href="#a"
     y1="22.364"
     y2="30"
     gradientTransform="translate(39.142346,-38.420797)" />
  <linearGradient
     id="c"
     gradientTransform="rotate(-165,10.384076,1.1610076)"
     gradientUnits="userSpaceOnUse"
     x1="-27.382999"
     x2="-20.311001"
     y1="21.552999"
     y2="47.945999">
    <stop
       offset="0"
       stop-color="#afb4b9"
       id="stop6036" />
    <stop
       offset="1"
       stop-color="#cfd2d5"
       id="stop6038" />
  </linearGradient>
  <rect
     ry="9.3428173"
     y="3.5"
     x="3.5"
     height="57"
     width="56.999992"
     id="rect1045"
     style="fill:url(#linearGradient1053);fill-opacity:1;stroke-width:2.84416;stroke-linecap:round"
     rx="9.3117266" />
  <path
     d="m 32.013774,12.000001 a 20,20 0 0 0 -4.285714,0.48 v 2.941429 a 17.142857,17.142857 0 0 0 -4.405715,1.824285 l -2.075714,-2.075714 a 20,20 0 0 0 -6.077143,6.048571 l 2.09,2.09 a 17.142857,17.142857 0 0 0 -1.831428,4.405715 h -2.928572 a 20,20 0 0 0 -0.485714,4.285714 20,20 0 0 0 0.48,4.285714 h 2.941429 a 17.142857,17.142857 0 0 0 1.824285,4.405715 l -2.075714,2.075714 a 20,20 0 0 0 6.048571,6.077143 l 2.09,-2.09 a 17.142857,17.142857 0 0 0 4.405715,1.831428 v 2.928572 a 20,20 0 0 0 4.285714,0.485714 19.995714,19.995714 0 0 0 4.285714,-0.48 v -2.941429 a 17.142857,17.142857 0 0 0 4.405715,-1.824285 l 2.075714,2.075714 A 20,20 0 0 0 48.85806,42.78143 l -2.09,-2.09 a 17.142857,17.142857 0 0 0 1.831428,-4.405715 h 2.928572 a 20,20 0 0 0 0.485714,-4.285714 19.995714,19.995714 0 0 0 -0.48,-4.285714 H 48.592345 A 17.142857,17.142857 0 0 0 46.76806,23.308572 l 2.075714,-2.075714 a 20,20 0 0 0 -6.048571,-6.077143 l -2.09,2.09 a 17.142857,17.142857 0 0 0 -4.405715,-1.831428 v -2.928572 a 20,20 0 0 0 -4.285714,-0.485714 z"
     fill="url(#c)"
     id="path6041-4-6"
     style="fill:url(#linearGradient8620);stroke-width:1.42857" />
  <circle
     cx="32.013775"
     cy="32.000011"
     fill="url(#d)"
     id="circle6043-5-9"
     style="fill:url(#linearGradient8622);stroke-width:1.42857"
     r="15.714286" />
  <path
     d="M 32.013774,20.57143 A 11.428571,11.428571 0 0 0 20.585203,32.000001 11.428571,11.428571 0 0 0 32.013774,43.428572 11.428571,11.428571 0 0 0 42.41806,36.690001 l -0.404286,-0.404286 -5.714286,5.714286 -8.571428,-8.571429 2.857143,-2.857142 2.857142,-2.857143 5.714286,5.714285 2.857143,-2.857142 1.13,-1.13 a 11.428571,11.428571 0 0 0 -0.148571,-0.594286 l 0.371428,0.371428 1.504286,-1.504285 4.985714,4.985714 1.952857,1.952857 a 20,20 0 0 0 0.1,-0.925714 L 50.585203,32.40143 41.099488,22.915715 40.090917,23.922858 A 11.428571,11.428571 0 0 0 32.013774,20.57143 Z"
     fill="url(#e)"
     opacity="0.2"
     id="path6045-0-3"
     style="fill:url(#linearGradient8624);stroke-width:1.42857" />
  <path
     d="m 44.870917,27.714287 -2.857143,2.857143 -2.857143,2.857142 8.571429,8.571429 0.172857,-0.172857 -1.132857,-1.135714 a 17.142857,17.142857 0 0 0 1.831428,-4.405715 h 2.93 a 20,20 0 0 0 0.281429,-1.632857 z m 6.64,8.63 a 20,20 0 0 1 -0.392857,1.442857 20,20 0 0 0 0.392857,-1.442857 z m -0.392857,1.442857 a 20,20 0 0 1 -0.307143,0.934286 20,20 0 0 0 0.307143,-0.934286 z m -0.307143,0.934286 a 20,20 0 0 1 -0.12,0.314285 l 0.02571,-0.02429 a 20,20 0 0 0 0.09429,-0.29 z"
     fill="url(#f)"
     opacity="0.2"
     id="path6047-3-7"
     style="fill:url(#linearGradient8626);stroke-width:1.42857" />
  <path
     d="m 42.013774,27.714287 v 2.857143 h -2.857143 v 2.857142 h 2.857143 v 2.857143 h 2.857143 V 33.428572 H 47.72806 V 30.57143 h -2.857143 v -2.857143 z"
     fill="url(#g)"
     id="path6049-6-4"
     style="fill:url(#linearGradient8628);stroke-width:1.42857" />
  <path
     d="m 27.72806,33.428572 8.571428,8.571429 5.714286,-5.714286 -8.571429,-8.571428 -2.857142,2.857143 z"
     fill="url(#h)"
     opacity="0.2"
     id="path6051-1-5"
     style="fill:url(#linearGradient8630);stroke-width:1.42857" />
  <path
     d="M 30.585203,27.714287 V 30.57143 H 27.72806 v 2.857142 h 2.857143 v 2.857143 h 2.857142 v -2.857143 h 2.857143 V 30.57143 h -2.857143 v -2.857143 z"
     fill="url(#i)"
     id="path6053-0-2"
     style="fill:url(#linearGradient8632);stroke-width:1.42857" />
  <path
     d="M 40.585203,40.57143 29.156631,43.428572 22.923774,41.090001 33.73806,51.908572 a 20,20 0 0 0 2.561428,-0.388571 v -2.941429 a 17.142857,17.142857 0 0 0 4.405715,-1.824285 l 2.075714,2.075714 a 20,20 0 0 0 3.357143,-2.705714 z m -4.285715,10.948571 a 20,20 0 0 0 1.425715,-0.39 20,20 0 0 1 -1.425715,0.39 z m 1.425715,-0.39 a 20,20 0 0 0 0.934285,-0.307143 20,20 0 0 1 -0.934285,0.307143 z m 0.934285,-0.307143 a 20,20 0 0 0 0.91,-0.348571 20,20 0 0 1 -0.91,0.348571 z m 0.91,-0.348571 a 20,20 0 0 0 0.957143,-0.418572 20,20 0 0 1 -0.957143,0.418572 z m 0.957143,-0.418572 a 20,20 0 0 0 0.862857,-0.438571 20,20 0 0 1 -0.862857,0.438571 z m 0.862857,-0.438571 a 20,20 0 0 0 1.282857,-0.722857 20,20 0 0 1 -1.282857,0.722857 z"
     fill="url(#j)"
     opacity="0.2"
     id="path6055-6-5"
     style="fill:url(#linearGradient8634);stroke-width:1.42857" />
  <path
     d="m 32.013774,19.142858 a 12.857143,12.857143 0 0 0 -12.857143,12.857143 12.857143,12.857143 0 0 0 12.857143,12.857143 12.857143,12.857143 0 0 0 9.085714,-3.771429 l -2.018571,-2.018571 a 10,10 0 0 1 -7.067143,2.932857 10,10 0 0 1 -10,-10 10,10 0 0 1 10,-10 10,10 0 0 1 7.067143,2.932857 l 2.018571,-2.018571 a 12.857143,12.857143 0 0 0 -9.085714,-3.771429 z"
     fill="url(#k)"
     id="path6057-3-4"
     style="fill:url(#linearGradient8636);stroke-width:1.42857" />
</svg>
