<?xml version="1.0" encoding="UTF-8" standalone="no"?>
<!-- Generator: Adobe Illustrator 22.1.0, SVG Export Plug-In . SVG Version: 6.00 Build 0)  -->

<svg
   version="1.1"
   id="Layer_1"
   x="0px"
   y="0px"
   viewBox="0 0 512 512"
   style="enable-background:new 0 0 512 512;"
   xml:space="preserve"
   sodipodi:docname="pattern-deepin.svg"
   inkscape:version="1.2.1 (9c6d41e410, 2022-07-14)"
   xmlns:inkscape="http://www.inkscape.org/namespaces/inkscape"
   xmlns:sodipodi="http://sodipodi.sourceforge.net/DTD/sodipodi-0.dtd"
   xmlns:xlink="http://www.w3.org/1999/xlink"
   xmlns="http://www.w3.org/2000/svg"
   xmlns:svg="http://www.w3.org/2000/svg"><defs
   id="defs10016"><linearGradient
     inkscape:collect="always"
     xlink:href="#linearGradient1051"
     id="linearGradient1053"
     x1="-98.535088"
     y1="60.492455"
     x2="-97.570175"
     y2="5.4924579"
     gradientUnits="userSpaceOnUse"
     gradientTransform="matrix(8.1818179,0,0,8.1818186,1070.0909,-9.9909161)" /><linearGradient
     inkscape:collect="always"
     id="linearGradient1051"><stop
       style="stop-color:#5e81ac;stop-opacity:1;"
       offset="0"
       id="stop1047" /><stop
       style="stop-color:#8fbcbb;stop-opacity:1;"
       offset="1"
       id="stop1049" /></linearGradient></defs><sodipodi:namedview
   id="namedview10014"
   pagecolor="#ffffff"
   bordercolor="#666666"
   borderopacity="1.0"
   inkscape:showpageshadow="2"
   inkscape:pageopacity="0.0"
   inkscape:pagecheckerboard="0"
   inkscape:deskcolor="#d1d1d1"
   showgrid="false"
   inkscape:zoom="0.4609375"
   inkscape:cx="257.08475"
   inkscape:cy="257.08475"
   inkscape:window-width="1920"
   inkscape:window-height="1002"
   inkscape:window-x="0"
   inkscape:window-y="0"
   inkscape:window-maximized="1"
   inkscape:current-layer="Layer_1" />

<rect
   ry="73.759079"
   y="31.000004"
   x="31.000027"
   height="450"
   width="449.99994"
   id="rect1045"
   style="fill:url(#linearGradient1053);fill-opacity:1;stroke-width:22.4539;stroke-linecap:round"
   rx="73.513634" /><g
   id="g10011-7-0-8"
   transform="matrix(0.77780128,0,0,0.77780128,56.882872,56.854644)">
	<title
   id="title10005-4-7-8">deepin</title>
	<g
   id="g10009-4-8-4">
		<path
   d="M 333,44.1 C 300.6,32.3 267.5,29.1 235.4,32.1 198.1,35.1 180,46.6 181.1,44.5 120,66.3 68.5,113 44.7,178.7 2.2,295.6 62.4,424.8 179,467.4 295.7,509.9 424.8,449.7 467.3,332.8 509.8,215.9 449.6,86.6 333,44.1 Z M 186.8,446.2 c -12.2,-4.5 -23.9,-10.2 -35,-16.9 54.4,4.2 125.4,-8.4 173.2,-53.2 0,0 91.3,-72.9 25.3,-192.5 0,0 10.6,48.3 -2.9,87.9 0,0 -13,54 -70.4,69.6 -84.7,23.1 -181.2,-36.2 -221.5,-64.9 -3,-29.5 -0.4,-60 10.5,-89.8 16,-44.1 46.2,-78.5 83,-101.6 -9.2,64.4 -1.9,123.7 8.5,148.5 14.1,33.3 38.4,72.2 86.1,77.2 47.7,5 73.9,-39.6 73.9,-39.6 24.5,-37.1 28.3,-90.4 27.9,-91.8 -0.4,-1.3 -6.5,-4.8 -6.5,-4.8 -16.4,66.5 -43.5,88.8 -43.5,88.8 -42.8,41.2 -73.1,12.6 -73.1,12.6 -32.5,-34.9 -9.7,-91.8 -9.7,-91.8 12.7,-38.7 49.9,-95.3 92,-124.1 7,1.8 14.1,2.9 21,5.3 24.6,9 47.2,22.8 66.6,40.5 -30.8,11.3 -80.4,35 -80.4,35 -78.7,33.2 -84.1,83.3 -84.1,83.3 -8.2,51.7 32.9,29.8 32.9,29.8 42.2,-20.6 63,-84.7 63,-84.7 -13.2,-2.6 -23.6,1.5 -23.6,1.5 -16.8,41.7 -51.3,58.7 -51.3,58.7 -13.6,7.2 -16.7,-5.5 -16.7,-5.5 -2.3,-9.5 9.8,-11.1 9.8,-11.1 18.7,-7.3 30.8,-27 33.5,-35 2.7,-8.1 7.7,-8.7 7.7,-8.7 16,-5 32.4,-8.4 49.1,-10 31.9,-3.9 80.6,11.3 80.6,11.3 11,4.4 21.5,7.7 30.8,10.3 17.9,44.7 20.7,95.6 3,144.3 C 408,430.2 291.8,484.5 186.8,446.2 Z"
   id="path10007-3-6-3" />
	</g>
</g></svg>
