<?xml version="1.0" encoding="UTF-8" standalone="no"?>
<svg
   height="64"
   width="64"
   version="1.1"
   id="svg3948"
   sodipodi:docname="pattern-basis-devel.svg"
   inkscape:version="1.2.1 (9c6d41e410, 2022-07-14)"
   xmlns:inkscape="http://www.inkscape.org/namespaces/inkscape"
   xmlns:sodipodi="http://sodipodi.sourceforge.net/DTD/sodipodi-0.dtd"
   xmlns:xlink="http://www.w3.org/1999/xlink"
   xmlns="http://www.w3.org/2000/svg"
   xmlns:svg="http://www.w3.org/2000/svg">
  <defs
     id="defs3952">
    <linearGradient
       inkscape:collect="always"
       xlink:href="#linearGradient1051"
       id="linearGradient1053"
       x1="-98.535088"
       y1="60.492455"
       x2="-97.570175"
       y2="5.4924579"
       gradientUnits="userSpaceOnUse"
       gradientTransform="matrix(1.0363636,0,0,1.0363637,135.11818,-1.692184)" />
    <linearGradient
       inkscape:collect="always"
       id="linearGradient1051">
      <stop
         style="stop-color:#bf616a;stop-opacity:1;"
         offset="0"
         id="stop1047" />
      <stop
         style="stop-color:#8fbcbb;stop-opacity:1;"
         offset="1"
         id="stop1049" />
    </linearGradient>
    <linearGradient
       id="linearGradient4792"
       gradientUnits="userSpaceOnUse"
       x1="66"
       x2="66"
       y1="66"
       y2="38"
       gradientTransform="matrix(1.4285714,0,0,1.4285714,-33.750029,-87.819608)">
      <stop
         offset="0"
         stop-color="#afb0b3"
         id="stop3939-2" />
      <stop
         offset="1"
         stop-color="#bdc3c7"
         id="stop3941-3" />
    </linearGradient>
    <linearGradient
       id="linearGradient4796"
       gradientUnits="userSpaceOnUse"
       x1="66"
       x2="66"
       y1="63"
       y2="41"
       gradientTransform="matrix(1.4285714,0,0,1.4285714,-33.750029,-87.819608)">
      <stop
         offset="0"
         stop-color="#c0392b"
         id="stop3934-7" />
      <stop
         offset="1"
         stop-color="#e74c3c"
         id="stop3936-5" />
    </linearGradient>
    <linearGradient
       inkscape:collect="always"
       xlink:href="#a"
       id="linearGradient4801"
       gradientUnits="userSpaceOnUse"
       gradientTransform="matrix(1.4285714,0,0,1.4285714,-62.285718,-42.28571)"
       x1="66"
       y1="66"
       x2="66"
       y2="38" />
    <linearGradient
       inkscape:collect="always"
       xlink:href="#b"
       id="linearGradient4803"
       gradientUnits="userSpaceOnUse"
       gradientTransform="matrix(1.4285714,0,0,1.4285714,-62.285718,-42.28571)"
       x1="66"
       y1="63"
       x2="66"
       y2="41" />
  </defs>
  <sodipodi:namedview
     id="namedview3950"
     pagecolor="#ffffff"
     bordercolor="#666666"
     borderopacity="1.0"
     inkscape:showpageshadow="2"
     inkscape:pageopacity="0.0"
     inkscape:pagecheckerboard="0"
     inkscape:deskcolor="#d1d1d1"
     showgrid="false"
     inkscape:zoom="7.375"
     inkscape:cx="13.084746"
     inkscape:cy="26.915254"
     inkscape:window-width="1920"
     inkscape:window-height="1002"
     inkscape:window-x="0"
     inkscape:window-y="0"
     inkscape:window-maximized="1"
     inkscape:current-layer="svg3948" />
  <linearGradient
     id="b"
     gradientUnits="userSpaceOnUse"
     x1="66"
     x2="66"
     y1="63"
     y2="41"
     gradientTransform="matrix(1.4285714,0,0,1.4285714,-33.750029,-87.819608)">
    <stop
       offset="0"
       stop-color="#c0392b"
       id="stop3934" />
    <stop
       offset="1"
       stop-color="#e74c3c"
       id="stop3936" />
  </linearGradient>
  <linearGradient
     id="a"
     gradientUnits="userSpaceOnUse"
     x1="66"
     x2="66"
     y1="66"
     y2="38"
     gradientTransform="matrix(1.4285714,0,0,1.4285714,-33.750029,-87.819608)">
    <stop
       offset="0"
       stop-color="#afb0b3"
       id="stop3939" />
    <stop
       offset="1"
       stop-color="#bdc3c7"
       id="stop3941" />
  </linearGradient>
  <rect
     ry="9.3428173"
     y="3.4999995"
     x="3.5000041"
     height="57"
     width="56.999992"
     id="rect1045"
     style="fill:url(#linearGradient1053);fill-opacity:1;stroke-width:2.84416;stroke-linecap:round"
     rx="9.3117266" />
  <path
     d="m 32,12 a 20,20 0 0 0 -4.285714,0.48 v 2.941429 a 17.142857,17.142857 0 0 0 -4.405714,1.824285 L 21.232857,15.17 a 20,20 0 0 0 -6.077143,6.048572 l 2.09,2.09 a 17.142857,17.142857 0 0 0 -1.831428,4.405714 H 12.485714 A 20,20 0 0 0 12,32 a 20,20 0 0 0 0.479999,4.285715 h 2.941429 a 17.142857,17.142857 0 0 0 1.824285,4.405714 L 15.17,42.767143 a 20,20 0 0 0 6.048572,6.077143 l 2.089999,-2.09 a 17.142857,17.142857 0 0 0 4.405715,1.831428 v 2.928572 A 20,20 0 0 0 32,52 20,20 0 0 0 36.285714,51.52 v -2.941429 a 17.142857,17.142857 0 0 0 4.405714,-1.824285 L 42.767143,48.83 a 20,20 0 0 0 6.077142,-6.048571 l -2.089999,-2.09 a 17.142857,17.142857 0 0 0 1.831429,-4.405714 h 2.92857 A 20,20 0 0 0 52,32 20,20 0 0 0 51.520001,27.714286 H 48.578572 A 17.142857,17.142857 0 0 0 46.754286,23.308572 L 48.83,21.232857 a 20,20 0 0 0 -6.048571,-6.077143 l -2.090001,2.09 A 17.142857,17.142857 0 0 0 36.285714,15.414286 V 12.485714 A 20,20 0 0 0 32,12 Z m 10.781429,3.155714 a 20,20 0 0 0 -6.437143,-2.652857 20,20 0 0 1 6.437143,2.652857 z m 8.738572,12.558572 a 20,20 0 0 0 -2.625715,-6.371429 20,20 0 0 1 2.625715,6.371429 z m -2.675715,15.067143 a 20,20 0 0 0 2.652857,-6.437143 20,20 0 0 1 -2.652857,6.437143 z M 36.285715,51.52 A 20,20 0 0 0 42.657143,48.894286 20,20 0 0 1 36.285715,51.52 Z M 21.218572,48.844286 a 20,20 0 0 0 6.437143,2.652857 20,20 0 0 1 -6.437143,-2.652857 z M 12.48,36.285715 A 20,20 0 0 0 15.105714,42.657143 20,20 0 0 1 12.48,36.285715 Z m 2.675714,-15.067143 a 20,20 0 0 0 -2.652857,6.437143 20,20 0 0 1 2.652857,-6.437143 z M 27.714286,12.48 A 20,20 0 0 0 21.342857,15.105714 20,20 0 0 1 27.714286,12.48 Z"
     fill="url(#a)"
     id="path3944-9"
     style="fill:url(#linearGradient4801);stroke-width:1.42857" />
  <path
     d="M 32,16.285714 A 15.714286,15.714286 0 0 0 21.242857,20.571429 H 34.857143 V 16.557143 A 15.714286,15.714286 0 0 0 32,16.285714 Z m 5.714286,1.077143 v 3.208572 h 5.057143 a 15.714286,15.714286 0 0 0 -5.057143,-3.208572 z m -18.878572,6.065715 a 15.714286,15.714286 0 0 0 -2.471428,7.142857 h 9.921428 v -7.142857 z m 10.307143,0 v 7.142857 h 18.500001 a 15.714286,15.714286 0 0 0 -2.49,-7.142857 z m -12.785714,10 a 15.714286,15.714286 0 0 0 2.49,7.142857 h 16.01 v -7.142857 z m 21.357143,0 v 7.142857 h 7.45 a 15.714286,15.714286 0 0 0 2.471429,-7.142857 z m -16.485714,10 a 15.714286,15.714286 0 0 0 5.057142,3.208571 v -3.208571 z m 7.914285,0 v 4.014285 A 15.714286,15.714286 0 0 0 32,47.714286 15.714286,15.714286 0 0 0 42.757143,43.428572 Z"
     fill="url(#b)"
     id="path3946-2"
     style="fill:url(#linearGradient4803);stroke-width:1.42857" />
</svg>
