<?xml version="1.0" encoding="UTF-8" standalone="no"?>
<svg
   height="32"
   width="32"
   version="1.1"
   id="svg1068"
   sodipodi:docname="pattern-qt-devel.svg"
   inkscape:version="1.2.1 (9c6d41e410, 2022-07-14)"
   xmlns:inkscape="http://www.inkscape.org/namespaces/inkscape"
   xmlns:sodipodi="http://sodipodi.sourceforge.net/DTD/sodipodi-0.dtd"
   xmlns:xlink="http://www.w3.org/1999/xlink"
   xmlns="http://www.w3.org/2000/svg"
   xmlns:svg="http://www.w3.org/2000/svg">
  <defs
     id="defs1072">
    <linearGradient
       inkscape:collect="always"
       xlink:href="#linearGradient901"
       id="linearGradient903"
       x1="0.92602342"
       y1="16.033699"
       x2="15.874687"
       y2="1.0583125"
       gradientUnits="userSpaceOnUse"
       gradientTransform="matrix(2.1218446,0,0,2.1218446,-1.9648773,-2.0210167)" />
    <linearGradient
       inkscape:collect="always"
       id="linearGradient901">
      <stop
         style="stop-color:#5e81ac;stop-opacity:1;"
         offset="0"
         id="stop897" />
      <stop
         style="stop-color:#8fbcbb;stop-opacity:1;"
         offset="0.74249786"
         id="stop2206" />
      <stop
         style="stop-color:#88c0d0;stop-opacity:1;"
         offset="1"
         id="stop899" />
    </linearGradient>
    <linearGradient
       id="linearGradient1912"
       gradientUnits="userSpaceOnUse"
       x1="32"
       x2="32"
       y1="28"
       y2="4"
       gradientTransform="matrix(0.74999998,0,0,0.74999998,3.9999975,4.000006)">
      <stop
         offset="0"
         stop-color="#17a81a"
         id="stop1046-3" />
      <stop
         offset="1"
         stop-color="#41cd52"
         id="stop1048-6" />
    </linearGradient>
    <linearGradient
       id="linearGradient1914"
       gradientUnits="userSpaceOnUse"
       x1="8"
       x2="21"
       xlink:href="#a"
       y1="10"
       y2="23"
       gradientTransform="matrix(0.74999998,0,0,0.74999998,3.9999975,4.000006)" />
    <linearGradient
       id="linearGradient1918"
       gradientTransform="translate(1.01,-1.022)"
       gradientUnits="userSpaceOnUse"
       x1="-14.65"
       x2="-6.4299998"
       y1="9.1780005"
       y2="17.521999">
      <stop
         offset="0"
         stop-color="#292c2f"
         id="stop1053-7" />
      <stop
         offset="1"
         stop-opacity="0"
         id="stop1055-5" />
    </linearGradient>
    <linearGradient
       id="linearGradient1920"
       gradientUnits="userSpaceOnUse"
       x1="20"
       x2="29"
       xlink:href="#a"
       y1="12"
       y2="21"
       gradientTransform="matrix(0.74999998,0,0,0.74999998,3.9999975,4.000006)" />
  </defs>
  <sodipodi:namedview
     id="namedview1070"
     pagecolor="#ffffff"
     bordercolor="#666666"
     borderopacity="1.0"
     inkscape:showpageshadow="2"
     inkscape:pageopacity="0.0"
     inkscape:pagecheckerboard="0"
     inkscape:deskcolor="#d1d1d1"
     showgrid="false"
     inkscape:zoom="7.375"
     inkscape:cx="16.067797"
     inkscape:cy="16.067797"
     inkscape:window-width="1920"
     inkscape:window-height="1002"
     inkscape:window-x="0"
     inkscape:window-y="0"
     inkscape:window-maximized="1"
     inkscape:current-layer="svg1068" />
  <linearGradient
     id="b"
     gradientUnits="userSpaceOnUse"
     x1="32"
     x2="32"
     y1="28"
     y2="4"
     gradientTransform="matrix(0.74999998,0,0,0.74999998,-49.879287,-11.999994)">
    <stop
       offset="0"
       stop-color="#17a81a"
       id="stop1046" />
    <stop
       offset="1"
       stop-color="#41cd52"
       id="stop1048" />
  </linearGradient>
  <linearGradient
     id="d"
     gradientUnits="userSpaceOnUse"
     x1="20"
     x2="29"
     xlink:href="#a"
     y1="12"
     y2="21"
     gradientTransform="matrix(0.74999998,0,0,0.74999998,-49.879287,-11.999994)" />
  <linearGradient
     id="c"
     gradientUnits="userSpaceOnUse"
     x1="8"
     x2="21"
     xlink:href="#a"
     y1="10"
     y2="23"
     gradientTransform="matrix(0.74999998,0,0,0.74999998,-49.879287,-11.999994)" />
  <linearGradient
     id="a"
     gradientTransform="translate(1.01 -1.022)"
     gradientUnits="userSpaceOnUse"
     x1="-14.65"
     x2="-6.43"
     y1="9.178"
     y2="17.522">
    <stop
       offset="0"
       stop-color="#292c2f"
       id="stop1053" />
    <stop
       offset="1"
       stop-opacity="0"
       id="stop1055" />
  </linearGradient>
  <rect
     x="0"
     y="0"
     width="32"
     height="32"
     ry="6.1092281"
     stroke-linecap="round"
     stroke-width="1.59674"
     id="rect28"
     rx="6.1092296"
     style="fill:url(#linearGradient903);fill-opacity:1" />
  <path
     d="m 7.7500035,7 -3.750006,3.750006 V 25 H 24.249998 l 3.750005,-3.750001 V 7 Z"
     fill="url(#b)"
     fill-rule="evenodd"
     id="path1058-3"
     style="fill:url(#linearGradient1912);stroke-width:0.749994" />
  <path
     d="M 24.999992,24.250001 24.249998,25 H 3.9999975 v -0.749999 z"
     fill="#292c2f"
     opacity="0.2"
     id="path1060-6"
     style="stroke-width:0.749994" />
  <path
     d="m 9.8335035,20.447501 3.8025005,3.8025 H 23.61175 L 20.301248,20.939499 V 16.38925 l -1.6515,-1.6515 V 13.66 L 16.088503,11.098748 12.999998,10.750006 10.000004,11.5 Z"
     fill="url(#c)"
     opacity="0.2"
     id="path1062-0"
     style="fill:url(#linearGradient1914);stroke-width:0.749994" />
  <path
     d="m 18.649748,14.73775 1.6515,1.6515 v 4.550249 l 3.310502,3.310502 h 1.388242 l 3.000011,-3.000002 V 17.52775 L 21.40225,10.930006 Z"
     fill="url(#d)"
     opacity="0.2"
     id="path1064-6"
     style="fill:url(#linearGradient1920);stroke-width:0.749994" />
  <path
     d="m 12.997748,21.42625 q -2.496002,0 -3.4875005,-1.344001 -0.9765,-1.343999 -0.9765,-4.240501 0,-2.9115 0.99225,-4.32 Q 10.533998,10.114 12.998492,10.114 q 2.463757,0 3.455255,1.407748 0.99225,1.392004 0.99225,4.304257 0,1.919995 -0.41625,3.104244 -0.399755,1.1835 -1.3275,1.807502 l 1.344003,2.16 -1.648505,0.767999 -1.423498,-2.3355 q -0.304502,0.096 -0.976499,0.096 z m -2.079744,-2.480251 q 0.543746,0.927752 2.079744,0.927752 1.535998,0 2.064002,-0.912002 0.5445,-0.927749 0.5445,-3.120001 0,-2.1915 -0.560258,-3.183742 -0.543746,-0.992258 -2.0475,-0.992258 -1.504488,0 -2.064746,0.992258 -0.559498,0.992242 -0.559498,3.167999 0,2.175746 0.543756,3.119994 z M 23.610246,14.73775 H 21.40225 v 3.520501 q 0,0.975748 0.144,1.296 0.143999,0.3195 0.735742,0.3195 l 1.312511,-0.04799 0.07952,1.392001 q -1.072506,0.208499 -1.631995,0.208499 -1.359753,0 -1.872,-0.624 -0.495756,-0.624 -0.495756,-2.352 v -3.712507 h -1.024509 v -1.488002 h 1.025261 V 10.93001 h 1.728 v 2.319742 h 2.207994 z"
     fill="#fcfcfc"
     id="path1066-2"
     style="stroke-width:0.749994" />
</svg>
