<?xml version="1.0" encoding="UTF-8" standalone="no"?>
<svg
   viewBox="0 0 64 64"
   id="svg6"
   version="1.1"
   sodipodi:docname="plasmavault.svg"
   width="64"
   height="64"
   inkscape:version="1.2.1 (9c6d41e410, 2022-07-14)"
   xmlns:inkscape="http://www.inkscape.org/namespaces/inkscape"
   xmlns:sodipodi="http://sodipodi.sourceforge.net/DTD/sodipodi-0.dtd"
   xmlns:xlink="http://www.w3.org/1999/xlink"
   xmlns="http://www.w3.org/2000/svg"
   xmlns:svg="http://www.w3.org/2000/svg">
  <sodipodi:namedview
     id="namedview2610"
     pagecolor="#ffffff"
     bordercolor="#666666"
     borderopacity="1.0"
     inkscape:showpageshadow="2"
     inkscape:pageopacity="0.0"
     inkscape:pagecheckerboard="0"
     inkscape:deskcolor="#d1d1d1"
     showgrid="true"
     inkscape:zoom="5.2149125"
     inkscape:cx="47.651806"
     inkscape:cy="-1.0546677"
     inkscape:window-width="1920"
     inkscape:window-height="1002"
     inkscape:window-x="0"
     inkscape:window-y="0"
     inkscape:window-maximized="1"
     inkscape:current-layer="svg6">
    <inkscape:grid
       type="xygrid"
       id="grid3259" />
  </sodipodi:namedview>
  <defs
     id="defs3051">
    <style
       type="text/css"
       id="current-color-scheme">
      .ColorScheme-Text {
        color:#eff0f1;
      }
      </style>
    <linearGradient
       inkscape:collect="always"
       xlink:href="#linearGradient1051"
       id="linearGradient1053"
       x1="-98.535088"
       y1="60.492455"
       x2="-97.570175"
       y2="5.4924579"
       gradientUnits="userSpaceOnUse"
       gradientTransform="matrix(1.0363636,0,0,1.0363637,135.11819,-1.6921825)" />
    <linearGradient
       inkscape:collect="always"
       id="linearGradient1051">
      <stop
         style="stop-color:#5e81ac;stop-opacity:1;"
         offset="0"
         id="stop1047" />
      <stop
         style="stop-color:#8fbcbb;stop-opacity:1;"
         offset="1"
         id="stop1049" />
    </linearGradient>
  </defs>
  <rect
     ry="9.3428173"
     y="3.5"
     x="3.5000038"
     height="57"
     width="56.999992"
     id="rect1045"
     style="fill:url(#linearGradient1053);fill-opacity:1;stroke-width:2.84416;stroke-linecap:round"
     rx="9.3117266" />
  <path
     style="color:#eff0f1;fill:currentColor;fill-opacity:1;stroke:none;stroke-width:2.66666"
     d="m 21.654352,16.200025 a 5.1573273,5.1573273 0 0 0 -5.173327,5.173327 v 21.898642 c 0,2.730663 2.19733,4.927994 4.927994,4.927994 h 22.143972 a 4.9173276,4.9173276 0 0 0 4.928,-4.927994 V 26.461346 a 4.9173276,4.9173276 0 0 0 -4.928,-4.927994 H 35.169 l -5.333324,-5.333327 -0.02133,0.02133 v -0.02133 z m -0.32,2.666663 h 7.391992 l 2.671997,2.666664 h -1.583999 v 0.02133 l -0.02133,-0.02133 -0.405333,0.405333 -4.927994,4.927994 h -5.311994 v -5.813327 c 0,-1.213332 0.973332,-2.186664 2.186664,-2.186664 z M 37.793,28.882677 a 6.2506594,6.2506594 0 0 1 0.17333,0 6.2506594,6.2506594 0 0 1 6.234661,5.983993 h 1.61333 V 45.533325 H 29.814342 V 34.86667 H 31.72634 A 6.2506594,6.2506594 0 0 1 37.793,28.882677 Z m 0.152,2.082664 a 4.1679951,4.1679951 0 0 0 -4.13066,3.901329 h 8.306661 a 4.1679951,4.1679951 0 0 0 -4.154671,-3.901329 4.1679951,4.1679951 0 0 0 -0.0213,0 z"
     class="ColorScheme-Text"
     id="path2607-6" />
</svg>
