<?xml version="1.0" encoding="UTF-8" standalone="no"?>
<!-- Created with Inkscape (http://www.inkscape.org/) -->

<svg
   width="63.965984"
   height="64.607323"
   viewBox="0 0 63.965984 64.607323"
   version="1.1"
   id="SVGRoot"
   sodipodi:docname="preferences-desktop-default-applications.svg"
   inkscape:version="1.2.1 (9c6d41e410, 2022-07-14)"
   xmlns:inkscape="http://www.inkscape.org/namespaces/inkscape"
   xmlns:sodipodi="http://sodipodi.sourceforge.net/DTD/sodipodi-0.dtd"
   xmlns="http://www.w3.org/2000/svg"
   xmlns:svg="http://www.w3.org/2000/svg">
  <sodipodi:namedview
     id="namedview194"
     pagecolor="#ffffff"
     bordercolor="#666666"
     borderopacity="1.0"
     inkscape:showpageshadow="2"
     inkscape:pageopacity="0.0"
     inkscape:pagecheckerboard="0"
     inkscape:deskcolor="#d1d1d1"
     inkscape:document-units="px"
     showgrid="true"
     inkscape:zoom="4.7572176"
     inkscape:cx="101.00442"
     inkscape:cy="47.611865"
     inkscape:window-width="1920"
     inkscape:window-height="1002"
     inkscape:window-x="0"
     inkscape:window-y="0"
     inkscape:window-maximized="1"
     inkscape:current-layer="layer1">
    <inkscape:grid
       type="xygrid"
       id="grid317"
       originx="79.954077"
       originy="-15.022743" />
  </sodipodi:namedview>
  <defs
     id="defs189">
    <filter
       id="filter1178"
       x="-0.047999482"
       y="-0.047999482"
       width="1.095999"
       height="1.095999"
       color-interpolation-filters="sRGB">
      <feGaussianBlur
         stdDeviation="0.30691668"
         id="feGaussianBlur2" />
    </filter>
    <linearGradient
       id="linearGradient1340"
       x1="8.3549995"
       x2="8.3996"
       y1="16.007"
       y2="0.79374999"
       gradientUnits="userSpaceOnUse">
      <stop
         stop-color="#d8dee9"
         offset="0"
         id="stop5" />
      <stop
         stop-color="#eceff4"
         offset="1"
         id="stop7" />
    </linearGradient>
    <filter
       id="filter6437"
       x="-0.10795185"
       y="-0.10804809"
       width="1.2159037"
       height="1.2160962"
       color-interpolation-filters="sRGB">
      <feGaussianBlur
         stdDeviation="0.41036932"
         id="feGaussianBlur20" />
    </filter>
    <linearGradient
       id="linearGradient6207"
       x1="7.6350002"
       x2="8.7609997"
       y1="5.7037001"
       y2="14.001"
       gradientUnits="userSpaceOnUse"
       gradientTransform="matrix(3.779602,0,0,3.779602,-80,15)">
      <stop
         stop-color="#2e3440"
         offset="0"
         id="stop15" />
      <stop
         stop-color="#4c566a"
         offset="1"
         id="stop17" />
    </linearGradient>
    <linearGradient
       id="linearGradient1313"
       x1="8.2363997"
       x2="8.2399998"
       y1="1.1605999"
       y2="3.5817001"
       gradientUnits="userSpaceOnUse"
       gradientTransform="matrix(3.779602,0,0,3.779602,-80,15)">
      <stop
         stop-color="#2e3440"
         offset="0"
         id="stop10" />
      <stop
         stop-color="#4c566a"
         offset="1"
         id="stop12" />
    </linearGradient>
    <linearGradient
       id="linearGradient6495"
       x1="12.05"
       x2="12.066"
       y1="1.9716001"
       y2="2.8515"
       gradientUnits="userSpaceOnUse"
       gradientTransform="matrix(3.779602,0,0,3.779602,-80,15)">
      <stop
         stop-color="#ebcb8b"
         offset="0"
         id="stop23" />
      <stop
         stop-color="#eac57b"
         offset="1"
         id="stop25" />
    </linearGradient>
    <linearGradient
       id="linearGradient6567"
       x1="13.286"
       x2="13.275"
       y1="1.9581"
       y2="2.8476"
       gradientUnits="userSpaceOnUse"
       gradientTransform="matrix(3.779602,0,0,3.779602,-80,15)">
      <stop
         stop-color="#a3be8c"
         offset="0"
         id="stop28" />
      <stop
         stop-color="#97b67c"
         offset="1"
         id="stop30" />
    </linearGradient>
    <linearGradient
       id="linearGradient6639"
       x1="14.461"
       x2="14.467"
       y1="1.9502"
       y2="2.8203001"
       gradientUnits="userSpaceOnUse"
       gradientTransform="matrix(3.779602,0,0,3.779602,-80,15)">
      <stop
         stop-color="#bf616a"
         offset="0"
         id="stop33" />
      <stop
         stop-color="#b54a55"
         offset="1"
         id="stop35" />
    </linearGradient>
  </defs>
  <g
     inkscape:label="Layer 1"
     inkscape:groupmode="layer"
     id="layer1"
     transform="translate(79.954078,-15.022743)">
    <g
       stroke-linecap="round"
       stroke-linejoin="round"
       id="g46"
       transform="matrix(3.779602,0,0,3.779602,-80,15)">
      <rect
         transform="matrix(0.99138,0,0,1,0.072989,2.5202e-7)"
         x="0.79374999"
         y="1.0171"
         width="15.346"
         height="15.346"
         rx="3.0525999"
         ry="3.0525999"
         fill="#2e3440"
         filter="url(#filter1178)"
         opacity="0.2"
         stroke-width="1.2489"
         style="mix-blend-mode:normal"
         id="rect40" />
      <rect
         x="0.92603999"
         y="0.92603999"
         width="15.081"
         height="15.081"
         rx="3"
         ry="3"
         fill="url(#linearGradient1340)"
         stroke-width="1.2274"
         id="rect42"
         style="fill:url(#linearGradient1340)" />
      <rect
         x="0.01215"
         y="0.0060174"
         width="16.924"
         height="16.927"
         fill="none"
         opacity="0.15"
         stroke-width="1.052"
         id="rect44" />
    </g>
    <path
       class="st0"
       d="M 10.956,6.2541 C 10.85576,6.184304 10.74216,6.15386 10.62632,6.176878 10.51049,6.199895 10.41248,6.262267 10.34268,6.359538 l -0.3913,0.55169 C 9.81253,6.8496 9.66774,6.802818 9.5133,6.764208 9.35886,6.725598 9.21407,6.694412 9.05962,6.671394 l -0.124,-0.72172 C 8.913344,5.825674 8.850973,5.735834 8.76039,5.666034 8.66015,5.596238 8.55397,5.57322 8.43071,5.596238 L 7.52633,5.758848 C 7.4105,5.781865 7.31991,5.83607 7.24269,5.936308 7.172897,6.036548 7.14245,6.142728 7.165468,6.265988 l 0.11583,0.65935 c -0.14702,0.061628 -0.28364,0.13142 -0.41507,0.21384 -0.13143,0.077222 -0.25988,0.17004 -0.37646,0.25988 L 5.876448,6.976568 C 5.776208,6.906772 5.670028,6.876328 5.554198,6.899346 5.438368,6.922363 5.340358,6.984735 5.270558,7.084976 l -0.52199,0.74549 c -0.069793,0.10024 -0.10024,0.21384 -0.077222,0.32968 0.023015,0.124 0.085388,0.21384 0.18563,0.28364 l 0.55169,0.3913 c -0.061626,0.13885 -0.10841,0.28364 -0.14702,0.43808 -0.038611,0.15444 -0.069792,0.29923 -0.092814,0.45368 l -0.72098,0.124 c -0.61183,0.11509 -0.26582,0.992 -0.19083,1.4093 0.023015,0.11583 0.077221,0.20642 0.17523,0.28364 0.10024,0.06979 0.20642,0.10024 0.32968,0.07722 l 0.65935,-0.11583 c 0.061626,0.14702 0.13143,0.28364 0.21384,0.41506 0.077222,0.13143 0.17004,0.25988 0.25988,0.38388 l -0.42249,0.60589 c -0.069793,0.10024 -0.10024,0.20642 -0.077222,0.32225 0.023015,0.11583 0.084651,0.21384 0.18266,0.28364 l 0.75217,0.52793 c 0.10024,0.06979 0.21384,0.09281 0.32968,0.06979 0.11583,-0.02301 0.21384,-0.07722 0.29107,-0.17523 l 0.39205,-0.55911 c 0.13885,0.06163 0.28364,0.10841 0.43808,0.14702 0.15444,0.03861 0.29849,0.06979 0.45368,0.09281 l 0.124,0.72172 c 0.023015,0.124 0.085388,0.21384 0.17523,0.28364 0.10024,0.06979 0.20642,0.09281 0.32968,0.06979 l 0.90438,-0.1626 c 0.11583,-0.02302 0.20642,-0.07722 0.28364,-0.17524 0.06979,-0.10024 0.10024,-0.20642 0.07722,-0.32968 L 10.013,13.367386 c 0.14702,-0.06163 0.28364,-0.13142 0.41507,-0.21384 0.13142,-0.07722 0.26062,-0.16781 0.38388,-0.25988 l 0.60589,0.42249 c 0.10024,0.06979 0.20642,0.10024 0.32968,0.07722 0.124,-0.02301 0.21384,-0.08539 0.28364,-0.18266 l 0.52793,-0.75291 c 0.06979,-0.10024 0.09281,-0.21384 0.06979,-0.32968 -0.02301,-0.11583 -0.07722,-0.21384 -0.17746,-0.29106 l -0.55986,-0.38388 c 0.06163,-0.13885 0.10841,-0.28364 0.14702,-0.43808 0.03861,-0.15444 0.06979,-0.29923 0.09281,-0.45368 l 0.72173,-0.124 c 0.124,-0.02302 0.21384,-0.08539 0.28364,-0.17746 0.06979,-0.10024 0.09281,-0.20642 0.06979,-0.32968 l -0.1626,-0.90438 C 13.020932,8.910076 12.966727,8.819486 12.86872,8.742266 12.76848,8.67247 12.6623,8.642026 12.53904,8.665044 l -0.65935,0.11583 c -0.06163,-0.13885 -0.13142,-0.27547 -0.21384,-0.41507 -0.07722,-0.13885 -0.17004,-0.25988 -0.25988,-0.37646 l 0.42249,-0.61332 c 0.06979,-0.10024 0.10024,-0.20642 0.07722,-0.32225 -0.02302,-0.11583 -0.08539,-0.21384 -0.18266,-0.28364 L 10.9768,6.245914 Z m -3.2173,3.201 0.64376,0.61257 1.1086,-1.1257 C 9.60095,8.83059 9.66926,8.74075 9.80514,8.880342 l 0.43882,0.44922 c 0.14479,0.14256 0.13662,0.22572 7.15e-4,0.35789 l -1.6112,1.5816 c -0.28661,0.28067 -0.23612,0.29775 -0.52719,0.0097 l -1.1063,-1.099 c -0.060142,-0.06534 -0.054206,-0.13142 0.011881,-0.19751 l 0.50937,-0.52867 c 0.076475,-0.079449 0.13811,-0.074251 0.21756,0.0015 z M 8.65348,7.3456 c 1.5459,0 2.8,1.2534 2.8,2.8 0,1.5459 -1.2534,2.8 -2.8,2.8 -1.5467,0 -2.8,-1.2541 -2.8,-2.8008 0,-1.5459 1.2541,-2.7993 2.8,-2.7993 z"
       fill="#2e3440"
       filter="url(#filter6437)"
       opacity="0.5"
       stroke-width="0.074252"
       id="path50"
       style="clip-rule:evenodd;fill-rule:evenodd"
       transform="matrix(3.779602,0,0,3.779602,-80,15)" />
    <path
       class="st0"
       d="m -39.297466,37.400567 c -0.378867,-0.263801 -0.80823,-0.378867 -1.246059,-0.291868 -0.437792,0.087 -0.80823,0.322736 -1.072047,0.690382 l -1.478958,2.085168 c -0.524798,-0.232929 -1.072046,-0.409746 -1.655768,-0.555677 -0.583722,-0.14593 -1.13097,-0.263801 -1.71473,-0.3508 l -0.46867,-2.727814 c -0.0842,-0.468671 -0.319932,-0.80823 -0.6623,-1.072046 -0.378867,-0.263801 -0.780185,-0.3508 -1.246059,-0.263801 l -3.418197,0.614601 c -0.437791,0.087 -0.780185,0.291868 -1.072046,0.670728 -0.26379,0.378867 -0.378867,0.780185 -0.291868,1.246059 l 0.437791,2.492081 c -0.555677,0.232929 -1.072046,0.496715 -1.568799,0.80823 -0.496754,0.291868 -0.982243,0.642683 -1.422869,0.982243 l -2.318106,-1.596844 c -0.378867,-0.263801 -0.780185,-0.378868 -1.217977,-0.291869 -0.437791,0.087 -0.80823,0.322737 -1.072046,0.701608 l -1.972914,2.817655 c -0.26379,0.378868 -0.378868,0.80823 -0.291869,1.246059 0.08699,0.468671 0.322733,0.808231 0.701608,1.072047 l 2.085168,1.478958 c -0.232921,0.524798 -0.409746,1.072046 -0.555677,1.655768 -0.145934,0.583722 -0.263786,1.13097 -0.3508,1.71473 l -2.725017,0.468671 c -2.312474,0.434994 -1.004694,3.749365 -0.721262,5.326593 0.08699,0.437791 0.291865,0.780185 0.6623,1.072046 0.378867,0.263778 0.780185,0.378867 1.246059,0.291861 l 2.492081,-0.437791 c 0.232921,0.555677 0.496753,1.072046 0.80823,1.568761 0.291868,0.496753 0.642683,0.982243 0.982243,1.450914 l -1.596844,2.290023 c -0.26379,0.378867 -0.378868,0.780185 -0.291869,1.217977 0.08699,0.437791 0.319947,0.80823 0.690382,1.072046 l 2.842904,1.995365 c 0.378867,0.263779 0.80823,0.350785 1.246059,0.263779 0.437791,-0.08697 0.80823,-0.291861 1.100129,-0.6623 l 1.481793,-2.113213 c 0.524797,0.232937 1.072046,0.409746 1.655768,0.555677 0.583721,0.14593 1.128173,0.263778 1.714729,0.350785 l 0.468671,2.727814 c 0.08699,0.468671 0.322733,0.80823 0.6623,1.072046 0.378867,0.263779 0.780185,0.350785 1.246059,0.263779 l 3.418196,-0.614564 c 0.437792,-0.08701 0.780186,-0.29186 1.072047,-0.662337 0.263789,-0.378867 0.378867,-0.780186 0.291868,-1.246059 l -0.437791,-2.492081 c 0.555677,-0.232937 1.072046,-0.496715 1.568799,-0.80823 0.496716,-0.291861 0.98504,-0.634255 1.450914,-0.982243 l 2.290023,1.596844 c 0.378867,0.263779 0.780185,0.378867 1.246059,0.291861 0.468671,-0.08697 0.80823,-0.32274 1.072046,-0.690382 l 1.995366,-2.8457 c 0.263778,-0.378868 0.350785,-0.80823 0.263778,-1.246059 -0.08697,-0.437792 -0.291861,-0.808231 -0.670728,-1.100091 l -2.116048,-1.450914 c 0.232937,-0.524798 0.409747,-1.072046 0.555677,-1.655768 0.14593,-0.583722 0.263778,-1.13097 0.350785,-1.71473 l 2.727852,-0.468671 c 0.468671,-0.08701 0.80823,-0.32274 1.072046,-0.670728 0.263779,-0.378867 0.350785,-0.780185 0.263779,-1.246059 l -0.614564,-3.418196 c -0.08701,-0.437792 -0.29186,-0.780186 -0.662299,-1.072047 -0.378867,-0.263801 -0.780186,-0.378867 -1.246059,-0.291868 l -2.492081,0.437791 c -0.232937,-0.524798 -0.496715,-1.041167 -0.80823,-1.568799 -0.291861,-0.524798 -0.642684,-0.982243 -0.982243,-1.422869 l 1.596844,-2.318106 c 0.263778,-0.378867 0.378867,-0.780185 0.291861,-1.217976 -0.08701,-0.437792 -0.32274,-0.80823 -0.690382,-1.072047 l -2.820415,-1.981343 z m -12.160114,12.098506 2.433157,2.315271 4.190067,-4.254698 c 0.41534,-0.420972 0.673525,-0.760532 1.187097,-0.232929 l 1.658603,1.697872 c 0.547248,0.538821 0.516369,0.853132 0.0027,1.352682 l -6.089694,5.977819 c -1.083272,1.060821 -0.89244,1.125376 -1.992569,0.03666 l -4.181373,-4.153783 c -0.227313,-0.246963 -0.204878,-0.496753 0.0449,-0.746509 l 1.925216,-1.998162 c 0.289045,-0.300286 0.522001,-0.280639 0.82229,0.0057 z m 3.457505,-7.97307 c 5.842886,0 10.582885,4.737353 10.582885,10.582885 0,5.842887 -4.737353,10.582886 -10.582885,10.582886 -5.845911,0 -10.582886,-4.739999 -10.582886,-10.585909 0,-5.842887 4.739999,-10.58024 10.582886,-10.58024 z"
       fill="url(#linearGradient6207)"
       stroke-width="0.280643"
       id="path52"
       style="clip-rule:evenodd;fill:url(#linearGradient6207);fill-rule:evenodd" />
    <path
       d="m -65.161283,18.500063 h 34.322566 c 6.281699,0 11.338806,5.057107 11.338806,11.338806 h -57.000178 c 0,-6.281699 5.057108,-11.338806 11.338806,-11.338806 z"
       fill="url(#linearGradient1313)"
       stroke-linecap="round"
       stroke-linejoin="round"
       stroke-width="4.63908"
       id="path54"
       style="fill:url(#linearGradient1313)" />
    <ellipse
       cx="-34.417999"
       cy="24.169315"
       rx="1.6801842"
       ry="1.9273325"
       fill="url(#linearGradient6495)"
       id="ellipse56"
       style="fill:url(#linearGradient6495);stroke-width:3.7796" />
    <ellipse
       cx="-29.776648"
       cy="24.169315"
       rx="1.6801842"
       ry="1.9273325"
       fill="url(#linearGradient6567)"
       id="ellipse58"
       style="fill:url(#linearGradient6567);stroke-width:3.7796" />
    <ellipse
       cx="-25.263802"
       cy="24.169315"
       rx="1.6801842"
       ry="1.9273325"
       fill="url(#linearGradient6639)"
       id="ellipse60"
       style="fill:url(#linearGradient6639);stroke-width:3.7796" />
  </g>
</svg>
