<?xml version="1.0" encoding="UTF-8" standalone="no"?>
<svg
   width="64"
   height="64"
   viewBox="0 0 64 64.000002"
   id="svg6548"
   version="1.1"
   inkscape:version="1.2.1 (9c6d41e410, 2022-07-14)"
   sodipodi:docname="system-file-manager.svg"
   xmlns:inkscape="http://www.inkscape.org/namespaces/inkscape"
   xmlns:sodipodi="http://sodipodi.sourceforge.net/DTD/sodipodi-0.dtd"
   xmlns:xlink="http://www.w3.org/1999/xlink"
   xmlns="http://www.w3.org/2000/svg"
   xmlns:svg="http://www.w3.org/2000/svg"
   xmlns:rdf="http://www.w3.org/1999/02/22-rdf-syntax-ns#"
   xmlns:cc="http://creativecommons.org/ns#"
   xmlns:dc="http://purl.org/dc/elements/1.1/">
  <defs
     id="defs6550">
    <linearGradient
       id="linearGradient4274"
       inkscape:collect="always">
      <stop
         id="stop4276"
         offset="0"
         style="stop-color:#ffffff;stop-opacity:1;" />
      <stop
         id="stop4278"
         offset="1"
         style="stop-color:#ffffff;stop-opacity:0.48760331" />
    </linearGradient>
    <linearGradient
       inkscape:collect="always"
       xlink:href="#linearGradient4274"
       id="linearGradient7243-3"
       gradientUnits="userSpaceOnUse"
       gradientTransform="matrix(0.46149782,0,0,0.46149782,-180.18094,1102.9563)"
       x1="390.57144"
       y1="498.298"
       x2="442.57144"
       y2="498.298" />
    <radialGradient
       id="radialGradient14805"
       cx="8.4665003"
       cy="8.4665003"
       r="7.5405002"
       gradientUnits="userSpaceOnUse"
       gradientTransform="matrix(3.7925733,0,0,3.7795898,-89.593785,1003.0133)">
      <stop
         stop-color="#4c566a"
         offset="0"
         id="stop5" />
      <stop
         stop-color="#3b4252"
         offset="1"
         id="stop7" />
    </radialGradient>
    <linearGradient
       id="linearGradient1340-7"
       x1="8.5010996"
       x2="8.4890003"
       y1="16.007"
       y2="0.79374999"
       gradientUnits="userSpaceOnUse"
       gradientTransform="matrix(3.8579541,0,0,3.8705207,-148.32026,985.34754)">
      <stop
         stop-color="#2e3440"
         offset="0"
         id="stop5-3" />
      <stop
         stop-color="#4c566a"
         offset="1"
         id="stop7-6"
         style="stop-color:#3f4758;stop-opacity:1;" />
    </linearGradient>
    <linearGradient
       inkscape:collect="always"
       id="linearGradient860">
      <stop
         style="stop-color:#8fbcbb;stop-opacity:1;"
         offset="0"
         id="stop856" />
      <stop
         style="stop-color:#a3be8c;stop-opacity:1;"
         offset="1"
         id="stop858" />
    </linearGradient>
    <linearGradient
       inkscape:collect="always"
       id="linearGradient842">
      <stop
         style="stop-color:#5e81ac;stop-opacity:1;"
         offset="0"
         id="stop838" />
      <stop
         style="stop-color:#88c0d0;stop-opacity:1;"
         offset="1"
         id="stop840" />
    </linearGradient>
    <linearGradient
       id="linearGradient1340-3"
       x1="8.5010996"
       x2="8.4890003"
       y1="16.007"
       y2="0.79374999"
       gradientUnits="userSpaceOnUse"
       gradientTransform="matrix(3.8579547,0,0,3.8705207,-63.320261,945.34767)">
      <stop
         stop-color="#2e3440"
         offset="0"
         id="stop5-3-6" />
      <stop
         stop-color="#4c566a"
         offset="1"
         id="stop7-6-7" />
    </linearGradient>
    <linearGradient
       inkscape:collect="always"
       xlink:href="#linearGradient860"
       id="linearGradient862-5"
       x1="113.94583"
       y1="366.97165"
       x2="406.08234"
       y2="159.71205"
       gradientUnits="userSpaceOnUse"
       gradientTransform="matrix(0.1726052,0,0,0.14886288,-75.536472,938.08891)" />
    <linearGradient
       inkscape:collect="always"
       xlink:href="#linearGradient842"
       id="linearGradient844-6"
       x1="386.3063"
       y1="539.79773"
       x2="447.95114"
       y2="504.71896"
       gradientUnits="userSpaceOnUse"
       gradientTransform="matrix(0.86517112,0,0,0.90331305,-391.05965,510.94819)" />
  </defs>
  <sodipodi:namedview
     id="base"
     pagecolor="#ffffff"
     bordercolor="#666666"
     borderopacity="1.0"
     inkscape:pageopacity="0.0"
     inkscape:pageshadow="2"
     inkscape:zoom="5.6568545"
     inkscape:cx="48.878754"
     inkscape:cy="45.34322"
     inkscape:document-units="px"
     inkscape:current-layer="layer1"
     showgrid="true"
     units="px"
     inkscape:snap-bbox="true"
     inkscape:bbox-nodes="true"
     inkscape:object-nodes="true"
     inkscape:snap-global="true"
     showborder="true"
     inkscape:document-rotation="0"
     inkscape:window-width="1920"
     inkscape:window-height="1002"
     inkscape:window-x="0"
     inkscape:window-y="0"
     inkscape:window-maximized="1"
     inkscape:pagecheckerboard="0"
     inkscape:showpageshadow="2"
     inkscape:deskcolor="#d1d1d1"
     inkscape:lockguides="true">
    <inkscape:grid
       type="xygrid"
       id="grid1006"
       originx="-27.000006"
       originy="57.000015" />
  </sodipodi:namedview>
  <metadata
     id="metadata6553">
    <rdf:RDF>
      <cc:Work
         rdf:about="">
        <dc:format>image/svg+xml</dc:format>
        <dc:type
           rdf:resource="http://purl.org/dc/dcmitype/StillImage" />
      </cc:Work>
    </rdf:RDF>
  </metadata>
  <g
     inkscape:label="Livello 1"
     inkscape:groupmode="layer"
     id="layer1"
     transform="translate(62.65675,-946.01349)">
    <rect
       x="-62.65675"
       y="946.01349"
       width="64"
       height="64"
       fill="none"
       opacity="0.15"
       stroke-width="3.97792"
       id="rect19-1"
       style="stroke-linecap:round;stroke-linejoin:round" />
    <rect
       x="-59.747639"
       y="948.93207"
       width="58.181816"
       height="58.371326"
       rx="11.573864"
       ry="11.611563"
       stroke-width="4.74295"
       id="rect14-2"
       style="fill:#556177;stroke-linecap:round;stroke-linejoin:round;fill-opacity:1" />
    <path
       style="fill:url(#linearGradient862-5);fill-opacity:1;stroke-width:0.148522"
       d="m -30.65931,960.60633 c -2.906529,0 0.002,-0.035 -1.97014,0 l -1.50723,-1.96304 c -0.334495,-0.50958 -1.221802,-0.92548 -1.971003,-0.92634 l -16.584742,-0.0292 c -2.447965,0 -3.177028,0.75474 -3.17643,2.42504 l 2.34e-4,0.70426 v 2.07188 l -2.34e-4,27.31946 c -2.3e-5,0.7454 1.96286,2.5016 2.909046,2.5016 h 44.6061203 c 0.9696645,0 2.9090463,-1.6676 2.9090463,-2.5016 v -26.43248 c 0,-1.66768 -1.5515644,-3.16956 -3.4433837,-3.16956 z"
       id="path4-3-7"
       sodipodi:nodetypes="cccsssccscssssc" />
    <path
       style="fill:#434c5e;fill-opacity:1;stroke-width:0.152682"
       d="m -9.3233909,972.20441 c 0,1.19224 -0.6618083,2.16792 -2.1754931,2.16792 h -38.397883 c -1.513693,0 -2.093363,-0.97568 -2.093363,-2.16792 v -6.17072 c 0,-1.66768 0.96974,-2.5018 2.90919,-2.5018 h 36.848382 c 1.939404,0 2.9091671,0.83412 2.9091671,2.5018 z"
       id="path8-6-0"
       sodipodi:nodetypes="sssssssss" />
    <path
       style="fill:url(#linearGradient844-6);fill-opacity:1;stroke-width:0.171715"
       d="M -10.293154,966.86753 H -51.02039 c -3.878741,0 -5.818168,1.66766 -5.818168,5.0033 v 22.51436 c 0,2.5018 1.939427,4.1694 4.848428,4.1694 h 42.6667391 c 2.9090274,0 4.8484508,-1.6676 4.8484508,-4.1694 v -22.51436 c 0,-3.33564 -1.9394234,-5.0033 -5.8182139,-5.0033 z"
       id="path10-9"
       sodipodi:nodetypes="sssssssss" />
    <path
       d="m -8.4556304,980.04407 c 0.04218,-0.83562 -0.85072,-1.69621 -1.213074,-2.00826 -2.0032416,-5.06859 -9.1958436,-3.29683 -10.6001766,-2.89444 -3.659274,-2.32524 -6.477872,0.15104 -6.503157,0.17574 -0.135809,0.12027 -0.195897,0.30836 -0.155981,0.4881 0.04217,0.17575 0.175423,0.31697 0.352048,0.36717 1.127603,0.32227 1.978127,1.41471 2.335361,1.94321 -2.627291,3.07514 -2.722932,7.45889 -2.697782,8.58684 -3.276803,2.71282 -2.239863,5.50644 -2.189675,5.62702 0.07026,0.17582 0.230994,0.30233 0.422976,0.31707 0.004,0 0.02767,0 0.04662,0 0.170963,0 0.33705,-0.0926 0.427453,-0.24065 0.599125,-0.96605 1.349046,-1.55006 2.22472,-1.7363 1.565324,-0.33212 3.085428,0.6796 3.100534,0.68945 0.115588,0.0803 0.261481,0.11093 0.402961,0.074 0.135945,-0.0363 0.256782,-0.12645 0.321788,-0.25293 0.790271,-1.45428 -0.433142,-3.30652 -0.886086,-3.91549 0.578983,-2.45659 1.998262,-3.88085 3.110497,-4.6508 l -0.226247,0.37649 c -0.0703,0.12641 -0.0906,0.27134 -0.04653,0.40765 0.04218,0.14183 0.140186,0.25283 0.272434,0.31205 0.49351,0.21583 1.182819,0.23742 2.058753,0.0555 0.729777,-0.15725 1.434537,-0.53344 2.038547,-1.09217 0.790126,-0.72461 1.67111,-0.78012 1.67111,-0.78012 h 5.0032016 c 0.115656,0 0.221372,-0.0401 0.312196,-0.10484 0.427571,-0.33733 0.548356,-0.70488 0.578868,-0.95618 0.04218,-0.33302 -0.06694,-0.61484 -0.160746,-0.79615 z m -3.5384666,-0.54361 h -0.276931 c -0.277007,0 -0.503439,-0.22508 -0.503439,-0.50352 0,-0.27751 0.22636,-0.50353 0.503439,-0.50353 h 0.276931 c 0.281694,0 0.503443,0.22508 0.503443,0.50353 0,0.27751 -0.221409,0.50352 -0.503443,0.50352 z"
       id="path49"
       style="fill:#ffffff;fill-opacity:1;stroke-width:0.0494345" />
  </g>
</svg>
