<?xml version="1.0" encoding="UTF-8" standalone="no"?>
<svg
   width="31.999998"
   height="31.999998"
   viewBox="0 0 8.466666 8.4666664"
   version="1.1"
   id="svg847"
   inkscape:version="1.2.1 (9c6d41e410, 2022-07-14)"
   sodipodi:docname="activities.svg"
   xmlns:inkscape="http://www.inkscape.org/namespaces/inkscape"
   xmlns:sodipodi="http://sodipodi.sourceforge.net/DTD/sodipodi-0.dtd"
   xmlns:xlink="http://www.w3.org/1999/xlink"
   xmlns="http://www.w3.org/2000/svg"
   xmlns:svg="http://www.w3.org/2000/svg"
   xmlns:rdf="http://www.w3.org/1999/02/22-rdf-syntax-ns#"
   xmlns:cc="http://creativecommons.org/ns#"
   xmlns:dc="http://purl.org/dc/elements/1.1/">
  <style
     id="current-color-scheme"
     type="text/css">.ColorScheme-Text { color:#d6dbf1; }
</style>
  <defs
     id="defs841">
    <linearGradient
       inkscape:collect="always"
       id="linearGradient1490">
      <stop
         style="stop-color:#5581aa;stop-opacity:1;"
         offset="0"
         id="stop1486" />
      <stop
         style="stop-color:#6db2c5;stop-opacity:1;"
         offset="1"
         id="stop1488" />
    </linearGradient>
    <linearGradient
       inkscape:collect="always"
       xlink:href="#linearGradient1490"
       id="linearGradient5058"
       x1="147.00002"
       y1="605.53644"
       x2="147.00002"
       y2="634.89417"
       gradientUnits="userSpaceOnUse"
       gradientTransform="matrix(0.15552859,0,0,0.14419836,-18.629371,-84.671532)" />
    <linearGradient
       inkscape:collect="always"
       xlink:href="#linearGradient1490"
       id="linearGradient411"
       gradientUnits="userSpaceOnUse"
       gradientTransform="matrix(0.14421741,0,0,0.10958265,-9.7964258,-61.990745)"
       x1="147.00002"
       y1="605.53644"
       x2="147.00002"
       y2="634.89417" />
  </defs>
  <sodipodi:namedview
     id="base"
     pagecolor="#ffffff"
     bordercolor="#000000"
     borderopacity="1"
     inkscape:pageopacity="0.0"
     inkscape:pageshadow="2"
     inkscape:zoom="11.2"
     inkscape:cx="26.116071"
     inkscape:cy="18.080357"
     inkscape:document-units="px"
     inkscape:current-layer="layer1"
     inkscape:document-rotation="0"
     showgrid="false"
     units="px"
     inkscape:window-width="1920"
     inkscape:window-height="1002"
     inkscape:window-x="0"
     inkscape:window-y="0"
     inkscape:window-maximized="1"
     inkscape:snap-bbox="true"
     inkscape:bbox-nodes="true"
     inkscape:showpageshadow="false"
     inkscape:lockguides="false"
     inkscape:pagecheckerboard="0"
     showguides="true"
     inkscape:deskcolor="#d1d1d1">
    <inkscape:grid
       type="xygrid"
       id="grid1410"
       originx="7.9999998e-07"
       originy="0" />
  </sodipodi:namedview>
  <metadata
     id="metadata844">
    <rdf:RDF>
      <cc:Work
         rdf:about="">
        <dc:format>image/svg+xml</dc:format>
        <dc:type
           rdf:resource="http://purl.org/dc/dcmitype/StillImage" />
      </cc:Work>
    </rdf:RDF>
    <style
       id="style14" />
  </metadata>
  <g
     inkscape:label="Layer 1"
     inkscape:groupmode="layer"
     id="layer1">
    <g
       id="activities">
      <rect
         y="0"
         x="0"
         height="8.4666662"
         width="8.4666662"
         id="rect1430"
         style="opacity:0.003;fill:#000000;stroke-width:0.529167" />
      <path
         inkscape:connector-curvature="0"
         id="path9068-9-37-8-0-1"
         d="m 7.2829152,1.3229167 -6.1601558,1.6e-6 v 5.767915 h 6.2211479 z"
         style="display:inline;overflow:visible;visibility:visible;opacity:0.6;fill:url(#linearGradient5058);fill-opacity:1;fill-rule:nonzero;stroke:none;stroke-width:0.209657;marker:none"
         sodipodi:nodetypes="cccccc" />
      <path
         d="m 7.8052082,6.5003071 c 0,0.4987392 -0.408873,0.9080262 -0.9081663,0.9080262 H 1.5696256 c -0.4992365,0 -0.908167,-0.409287 -0.908167,-0.9080262 V 1.9655954 c 0,-0.4987393 0.4088744,-0.9072621 0.908167,-0.9072621 h 5.3274163 c 0.4984723,0 0.9081663,0.4084672 0.9081663,0.9072621 z M 1.8196548,5.55625 c -0.071661,0 -0.1300647,-0.060703 -0.1300647,-0.1322916 0,-0.071588 0.058398,-0.1322913 0.1300647,-0.1322913 l 2.5459709,-4e-7 c 0.071659,0 0.1322913,0.060702 0.1322913,0.1322917 0,0.071588 -0.060629,0.1322916 -0.1322913,0.1322916 z M 4.3656257,4.2333334 c -0.071661,0 -0.1359962,-0.060702 -0.1359962,-0.1322917 0,-0.071588 0.06433,-0.1322917 0.1359962,-0.1322917 h 2.3283329 c 0.071658,0 0.1322917,0.060701 0.1322917,0.1322917 0,0.071588 -0.06063,0.1322917 -0.1322917,0.1322917 z M 7.2760422,2.6458333 H 4.1990245 1.1906257 V 6.35 c 0,0.3563634 0.02217,0.5291667 0.3788888,0.5291667 h 5.3274162 c 0.3559685,0 0.3791115,-0.1735678 0.3791115,-0.5291667 z M 1.5742712,1.6069254 c -0.1433238,0 -0.2593614,0.1166908 -0.2593614,0.2598669 0,0.1431761 0.1160476,0.2591024 0.2593614,0.2591024 0.1433239,0 0.2593615,-0.1159319 0.2593615,-0.2591024 0,-0.1431705 -0.1160486,-0.2598669 -0.2593615,-0.2598669 z"
         id="path921-2"
         style="color:#d6dbf1;fill:#d3dae3;fill-opacity:1;stroke-width:0.0139014"
         sodipodi:nodetypes="sssssssssssssssssssssssccccccccccccc"
         class="ColorScheme-Text" />
    </g>
    <g
       id="22-22-activities">
      <rect
         style="opacity:0.003;fill:#000000;stroke-width:0.363802"
         id="rect1430-3-7-5"
         width="5.8208323"
         height="5.8208323"
         x="8.4666681"
         y="2.6458333" />
      <path
         inkscape:connector-curvature="0"
         id="path9068-9-37-8-0-1-7"
         d="M 14.102293,3.3602083 H 8.7047931 v 4.435475 h 5.3974999 z"
         style="display:inline;overflow:visible;visibility:visible;opacity:0.6;fill:url(#linearGradient411);fill-opacity:1.0;fill-rule:nonzero;stroke:none;stroke-width:0.175991;marker:none"
         sodipodi:nodetypes="ccccc" />
      <path
         d="m 14.287501,7.4453944 c 0,0.415616 -0.333156,0.756689 -0.739987,0.756689 H 9.2066565 c -0.4067851,0 -0.7399883,-0.341073 -0.7399883,-0.756689 v -3.778926 c 0,-0.4156161 0.3331563,-0.7560518 0.7399883,-0.7560518 h 4.3408575 c 0.406162,0 0.739987,0.3403893 0.739987,0.7560518 z M 9.4103834,6.6145834 c -0.058394,0 -0.1059774,-0.07264 -0.1059774,-0.132292 0,-0.05966 0.04759,-0.132291 0.1059774,-0.132291 h 2.0744956 c 0.05839,0 0.107792,0.07263 0.107792,0.132291 0,0.05966 -0.0494,0.132292 -0.107792,0.132292 z m 2.0744956,-1.058333 c -0.05837,0 -0.110811,-0.07263 -0.110811,-0.132292 0,-0.05966 0.05241,-0.132292 0.110811,-0.132292 h 1.897161 c 0.05837,0 0.107794,0.07263 0.107794,0.132292 0,0.05966 -0.04942,0.132292 -0.107794,0.132292 z m 2.273455,-1.322917 H 8.9958341 l 8e-7,3.007519 c 0,0.296969 0.053295,0.432064 0.3439583,0.432064 h 4.0745828 c 0.290049,0 0.343959,-0.16219 0.343959,-0.458523 z M 9.2104425,3.3675764 c -0.1167831,0 -0.2113322,0.09724 -0.2113322,0.216556 0,0.119314 0.09456,0.215919 0.2113322,0.215919 0.1167819,0 0.211331,-0.09661 0.211331,-0.215919 0,-0.119309 -0.09456,-0.216556 -0.211331,-0.216556 z"
         id="path921-6-5"
         style="color:#d6dbf1;fill:#d3dae3;fill-opacity:1;stroke-width:0.0114551"
         sodipodi:nodetypes="ssssssssssssssssssssssscccccccccccc"
         class="ColorScheme-Text" />
    </g>
  </g>
</svg>
