<?xml version="1.0" encoding="UTF-8" standalone="no"?>
<svg
   width="32"
   height="32"
   version="1.1"
   id="svg12"
   sodipodi:docname="corectrl.svg"
   inkscape:version="1.2.2 (b0a8486541, 2022-12-01)"
   xmlns:inkscape="http://www.inkscape.org/namespaces/inkscape"
   xmlns:sodipodi="http://sodipodi.sourceforge.net/DTD/sodipodi-0.dtd"
   xmlns:xlink="http://www.w3.org/1999/xlink"
   xmlns="http://www.w3.org/2000/svg"
   xmlns:svg="http://www.w3.org/2000/svg"
   xmlns:rdf="http://www.w3.org/1999/02/22-rdf-syntax-ns#"
   xmlns:cc="http://creativecommons.org/ns#"
   xmlns:dc="http://purl.org/dc/elements/1.1/">
  <metadata
     id="metadata18">
    <rdf:RDF>
      <cc:Work
         rdf:about="">
        <dc:format>image/svg+xml</dc:format>
        <dc:type
           rdf:resource="http://purl.org/dc/dcmitype/StillImage" />
      </cc:Work>
    </rdf:RDF>
  </metadata>
  <defs
     id="defs16">
    <linearGradient
       inkscape:collect="always"
       id="linearGradient4016">
      <stop
         style="stop-color:#5581aa;stop-opacity:1;"
         offset="0"
         id="stop4012" />
      <stop
         style="stop-color:#6db2c5;stop-opacity:1;"
         offset="1"
         id="stop4014" />
    </linearGradient>
    <linearGradient
       inkscape:collect="always"
       xlink:href="#linearGradient4016"
       id="linearGradient5058"
       x1="148.9608"
       y1="596.36218"
       x2="148.9608"
       y2="636.12817"
       gradientUnits="userSpaceOnUse"
       gradientTransform="matrix(0.50999969,0,0,0.42750131,-58.969959,-248.94562)" />
    <linearGradient
       inkscape:collect="always"
       xlink:href="#linearGradient4016"
       id="linearGradient2947"
       gradientUnits="userSpaceOnUse"
       gradientTransform="matrix(0.43219982,0,0,0.36977632,-52.450368,-217.8167)"
       x1="146.80794"
       y1="597.1629"
       x2="146.80794"
       y2="635.02362" />
  </defs>
  <sodipodi:namedview
     pagecolor="#ffffff"
     bordercolor="#000000"
     borderopacity="1"
     objecttolerance="10"
     gridtolerance="10"
     guidetolerance="10"
     inkscape:pageopacity="0"
     inkscape:pageshadow="2"
     inkscape:window-width="1920"
     inkscape:window-height="1000"
     id="namedview14"
     showgrid="false"
     inkscape:zoom="9.8125003"
     inkscape:cx="24.458598"
     inkscape:cy="19.21019"
     inkscape:window-x="0"
     inkscape:window-y="0"
     inkscape:window-maximized="1"
     inkscape:current-layer="svg12"
     inkscape:lockguides="true"
     inkscape:document-rotation="0"
     inkscape:showpageshadow="true"
     inkscape:pagecheckerboard="0"
     inkscape:deskcolor="#d1d1d1">
    <inkscape:grid
       type="xygrid"
       id="grid882"
       originx="-1e-06"
       originy="0" />
  </sodipodi:namedview>
  <g
     id="audacious">
    <rect
       style="opacity:0.00100002"
       width="32"
       height="32"
       x="0"
       y="0"
       id="rect7" />
    <path
       inkscape:connector-curvature="0"
       id="path9068-9-37-8-0-1"
       d="m 26,6 -20.2,5e-6 V 23.1 h 20.4 z"
       style="display:inline;overflow:visible;visibility:visible;opacity:0.6;fill:url(#linearGradient5058);fill-opacity:1;fill-rule:nonzero;stroke:none;stroke-width:0.653705;marker:none"
       sodipodi:nodetypes="cccccc" />
    <path
       d="M 22.963626,4 H 9.036072 C 7.700891,4.0015 6.420748,4.532574 5.476754,5.476775 4.532568,6.420788 4.001525,7.700876 4,9.03607 v 13.92805 -1.89e-4 c 0.0015,1.335156 0.532568,2.615282 1.476754,3.559295 0.943994,0.944201 2.224137,1.475225 3.559318,1.476775 h 13.928035 -1.94e-4 c 1.335183,-0.0015 2.615324,-0.532574 3.559318,-1.476775 0.944187,-0.944013 1.475232,-2.224139 1.476755,-3.559295 V 9.036334 C 27.998186,7.701178 27.467418,6.421052 26.523231,5.47704 25.579237,4.532838 24.299096,4.001815 22.963912,4.000265 Z M 9.2,6.000013 h 13.6 c 0.887095,0.0011 1.603761,0.04384 2.231,0.671244 C 25.658232,7.29847 25.998901,8.11292 26,9.000013 V 23.000026 H 6 V 9.000013 C 6.0011,8.11292 6.341775,7.298508 6.969,6.671257 7.596201,6.044045 8.312916,6.001109 9.2,6.000013 Z"
       id="path1193-2"
       style="fill:#d3dae3;fill-opacity:1;stroke-width:0.047619"
       sodipodi:nodetypes="ccccccccccccccccccccccccc" />
    <rect
       x="11.625"
       y="10.174999"
       width="8.749999"
       height="8.750001"
       ry="1.1104347"
       id="rect29970-7"
       style="fill:#d3dae3;fill-opacity:1;stroke-width:1.14352" />
    <rect
       x="-15.424996"
       y="20.375008"
       width="1.7499985"
       height="2.6250024"
       opacity="0.8"
       id="rect29976-1"
       style="fill:#d3dae3;fill-opacity:1;stroke-width:1.37407"
       transform="rotate(-90)" />
    <rect
       x="-11.925004"
       y="20.375008"
       width="0.8749963"
       height="2.6250024"
       opacity="0.8"
       id="rect29982-9"
       style="fill:#d3dae3;fill-opacity:1;stroke-width:0.97163"
       transform="rotate(-90)" />
    <rect
       x="-18.050013"
       y="20.375008"
       width="0.8750031"
       height="2.6250021"
       opacity="0.8"
       id="rect29988-1"
       style="fill:#d3dae3;fill-opacity:1;stroke-width:0.97163"
       transform="rotate(-90)" />
    <rect
       x="13.675001"
       y="-11.705896"
       width="1.7500017"
       height="2.705833"
       opacity="0.8"
       id="rect29994-4"
       style="fill:#d3dae3;fill-opacity:1;stroke-width:1.39507"
       transform="rotate(90)" />
    <rect
       x="11.050002"
       y="-11.705896"
       width="0.87500072"
       height="2.705833"
       opacity="0.8"
       id="rect30000-8"
       style="fill:#d3dae3;fill-opacity:1;stroke-width:0.986438"
       transform="rotate(90)" />
    <rect
       x="17.175005"
       y="-11.705896"
       width="0.87499923"
       height="2.705833"
       opacity="0.8"
       id="rect30006-5"
       style="fill:#d3dae3;fill-opacity:1;stroke-width:0.986438"
       transform="rotate(90)" />
    <rect
       x="15.125082"
       y="18.860929"
       width="1.7499993"
       height="2.6890733"
       opacity="0.8"
       id="rect30014-6"
       style="fill:#d3dae3;fill-opacity:1;stroke-width:1.39082" />
    <rect
       x="18.625092"
       y="18.860929"
       width="0.87500101"
       height="2.6890733"
       opacity="0.8"
       id="rect30020-0"
       style="fill:#d3dae3;fill-opacity:1;stroke-width:0.983445" />
    <rect
       x="12.500011"
       y="18.860929"
       width="0.87499863"
       height="2.6890733"
       opacity="0.8"
       id="rect30026-3"
       style="fill:#d3dae3;fill-opacity:1;stroke-width:0.983445" />
    <rect
       x="-16.875008"
       y="-10.175003"
       width="1.7499977"
       height="2.625"
       opacity="0.8"
       id="rect30032-0"
       style="fill:#d3dae3;fill-opacity:1;stroke-width:1.37407"
       transform="scale(-1)" />
    <rect
       x="-19.500084"
       y="-10.175003"
       width="0.87499923"
       height="2.625001"
       opacity="0.8"
       id="rect30038-1"
       style="fill:#d3dae3;fill-opacity:1;stroke-width:0.97163"
       transform="scale(-1)" />
    <rect
       x="-13.375061"
       y="-10.175003"
       width="0.87499672"
       height="2.625"
       opacity="0.8"
       id="rect30044-5"
       style="fill:#d3dae3;fill-opacity:1;stroke-width:0.97163"
       transform="scale(-1)" />
    <path
       d="m 12.500051,13.675004 v 1.749999 h 2.625001 v -1.749999 z"
       id="path29704-5-4"
       style="fill:#1a1a1a;fill-opacity:1;fill-rule:evenodd;stroke-width:0.53583" />
    <path
       d="m 13.375051,11.050004 v 7 h 0.875001 v -7 z"
       id="path29706-0-7"
       style="fill:#1a1a1a;fill-opacity:1;fill-rule:evenodd;stroke-width:0.373102" />
    <path
       d="m 19.500053,11.050124 h -0.875001 v 2.62488 h 0.875001 z"
       id="path29704-5-3-65"
       style="fill:#1a1a1a;fill-opacity:1;fill-rule:evenodd;stroke-width:0.37888" />
    <path
       d="m 19.500053,15.425003 h -0.875001 v 2.625002 h 0.875001 z"
       id="path29704-5-3-6-6"
       style="fill:#1a1a1a;fill-opacity:1;fill-rule:evenodd;stroke-width:0.37889" />
  </g>
  <g
     id="22-22-audacious"
     transform="translate(32,10.000001)">
    <rect
       style="opacity:0.00100002"
       width="22"
       height="22"
       x="0"
       y="0"
       id="rect2" />
    <path
       inkscape:connector-curvature="0"
       id="path9068-9-37-8-0-1-0"
       d="M 19.557509,2.704 2.439,2.7040048 V 17.495 h 17.288 z"
       style="display:inline;overflow:visible;visibility:visible;opacity:0.6;fill:url(#linearGradient2947);fill-opacity:1;fill-rule:nonzero;stroke:none;stroke-width:0.55969;marker:none"
       sodipodi:nodetypes="cccccc" />
    <path
       d="M 16.803006,1 H 5.196737 C 4.084086,1.0015 3.017276,1.44383 2.230617,2.230652 1.443764,3.017322 1.001257,4.084056 0.999995,5.196749 V 16.803451 16.8033 c 8.62e-4,1.112617 0.443769,2.179389 1.230622,2.96606 0.786659,0.786822 1.853469,1.229367 2.96612,1.230652 h 11.606699 -1.9e-4 c 1.11265,-0.0012 2.17946,-0.44383 2.96611,-1.230652 0.78686,-0.786671 1.22937,-1.853443 1.23063,-2.96606 V 5.196976 c -0.002,-1.112655 -0.44377,-2.179427 -1.23063,-2.966098 -0.78665,-0.786822 -1.85346,-1.229366 -2.96611,-1.230652 z M 5.616998,3.00005 h 10.765998 c 0.73924,0.0011 1.43628,-0.113764 1.959,0.408983 0.52269,0.52267 0.6571,1.018431 0.658,1.757669 v 11.833323 h -16 V 5.166702 C 3.000847,4.427464 3.135303,3.931741 3.657997,3.409033 4.180675,2.886362 4.877775,3.000957 5.616998,3.00005 Z"
       id="path1193-3-7"
       style="fill:#d3dae3;fill-opacity:1;stroke-width:0.0396828"
       sodipodi:nodetypes="ccccccccccccccccccccccccc" />
    <rect
       x="7.2499661"
       y="6.2499971"
       width="7.4999986"
       height="7.5"
       ry="0.95180076"
       id="rect29970-7-3"
       style="fill:#d3dae3;fill-opacity:1;stroke-width:0.980126" />
    <rect
       x="-10.749996"
       y="14.749974"
       width="1.4999985"
       height="2.2500019"
       opacity="0.8"
       id="rect29976-1-6"
       style="fill:#d3dae3;fill-opacity:1;stroke-width:1.17779"
       transform="rotate(-90)" />
    <rect
       x="-7.7500048"
       y="14.749974"
       width="0.74999672"
       height="2.2500019"
       opacity="0.8"
       id="rect29982-9-7"
       style="fill:#d3dae3;fill-opacity:1;stroke-width:0.83283"
       transform="rotate(-90)" />
    <rect
       x="-13.000008"
       y="14.749974"
       width="0.75000256"
       height="2.2500017"
       opacity="0.8"
       id="rect29988-1-5"
       style="fill:#d3dae3;fill-opacity:1;stroke-width:0.83283"
       transform="rotate(-90)" />
    <rect
       x="9.2500038"
       y="-7.3192849"
       width="1.500001"
       height="2.3192849"
       opacity="0.8"
       id="rect29994-4-3"
       style="fill:#d3dae3;fill-opacity:1;stroke-width:1.1958"
       transform="rotate(90)" />
    <rect
       x="7.0000029"
       y="-7.3192849"
       width="0.75000036"
       height="2.3192849"
       opacity="0.8"
       id="rect30000-8-5"
       style="fill:#d3dae3;fill-opacity:1;stroke-width:0.845518"
       transform="rotate(90)" />
    <rect
       x="12.25"
       y="-7.3192849"
       width="0.74999923"
       height="2.3192849"
       opacity="0.8"
       id="rect30006-5-6"
       style="fill:#d3dae3;fill-opacity:1;stroke-width:0.845518"
       transform="rotate(90)" />
    <rect
       x="10.25002"
       y="13.69508"
       width="1.4999986"
       height="2.304919"
       opacity="0.8"
       id="rect30014-6-2"
       style="fill:#d3dae3;fill-opacity:1;stroke-width:1.19219" />
    <rect
       x="13.250043"
       y="13.69508"
       width="0.75000066"
       height="2.304919"
       opacity="0.8"
       id="rect30020-0-9"
       style="fill:#d3dae3;fill-opacity:1;stroke-width:0.842947" />
    <rect
       x="7.9999514"
       y="13.69508"
       width="0.74999893"
       height="2.304919"
       opacity="0.8"
       id="rect30026-3-1"
       style="fill:#d3dae3;fill-opacity:1;stroke-width:0.842947" />
    <rect
       x="-11.749951"
       y="-6.250001"
       width="1.4999983"
       height="2.25"
       opacity="0.8"
       id="rect30032-0-2"
       style="fill:#d3dae3;fill-opacity:1;stroke-width:1.17779"
       transform="scale(-1)" />
    <rect
       x="-14.00002"
       y="-6.250001"
       width="0.74999923"
       height="2.250001"
       opacity="0.8"
       id="rect30038-1-7"
       style="fill:#d3dae3;fill-opacity:1;stroke-width:0.83283"
       transform="scale(-1)" />
    <rect
       x="-8.7500124"
       y="-6.250001"
       width="0.74999714"
       height="2.25"
       opacity="0.8"
       id="rect30044-5-0"
       style="fill:#d3dae3;fill-opacity:1;stroke-width:0.83283"
       transform="scale(-1)" />
    <path
       d="M 8.0000048,9.2500047 V 10.750004 H 10.250005 V 9.2500047 Z"
       id="path29704-5-4-9"
       style="fill:#1a1a1a;fill-opacity:1;fill-rule:evenodd;stroke-width:0.459289" />
    <path
       d="m 8.7500048,7.0000047 v 5.9999983 h 0.750001 V 7.0000047 Z"
       id="path29706-0-7-3"
       style="fill:#1a1a1a;fill-opacity:1;fill-rule:evenodd;stroke-width:0.319802" />
    <path
       d="m 14.000006,7.0001047 h -0.750001 v 2.2499 h 0.750001 z"
       id="path29704-5-3-65-6"
       style="fill:#1a1a1a;fill-opacity:1;fill-rule:evenodd;stroke-width:0.324759" />
    <path
       d="m 14.000006,10.750004 h -0.750001 v 2.25 h 0.750001 z"
       id="path29704-5-3-6-6-0"
       style="fill:#1a1a1a;fill-opacity:1;fill-rule:evenodd;stroke-width:0.324769" />
  </g>
</svg>
