<?xml version="1.0" encoding="UTF-8" standalone="no"?>
<svg
   width="22"
   height="22"
   id="svg3869"
   version="1.1"
   viewBox="0 0 22 22.000001"
   sodipodi:docname="fcitx.svg"
   inkscape:version="1.3 (0e150ed6c4, 2023-07-21)"
   xmlns:inkscape="http://www.inkscape.org/namespaces/inkscape"
   xmlns:sodipodi="http://sodipodi.sourceforge.net/DTD/sodipodi-0.dtd"
   xmlns:xlink="http://www.w3.org/1999/xlink"
   xmlns="http://www.w3.org/2000/svg"
   xmlns:svg="http://www.w3.org/2000/svg"
   xmlns:rdf="http://www.w3.org/1999/02/22-rdf-syntax-ns#"
   xmlns:cc="http://creativecommons.org/ns#"
   xmlns:dc="http://purl.org/dc/elements/1.1/">
  <sodipodi:namedview
     id="namedview132"
     pagecolor="#d1d1d1"
     bordercolor="#000000"
     borderopacity="1"
     inkscape:pageshadow="2"
     inkscape:pageopacity="0"
     inkscape:pagecheckerboard="0"
     showgrid="false"
     inkscape:showpageshadow="false"
     inkscape:zoom="2.0400609"
     inkscape:cx="-4.9018145"
     inkscape:cy="48.773054"
     inkscape:window-width="1920"
     inkscape:window-height="994"
     inkscape:window-x="0"
     inkscape:window-y="0"
     inkscape:window-maximized="1"
     inkscape:current-layer="svg3869"
     inkscape:deskcolor="#cccccc" />
  <metadata
     id="metadata25">
    <rdf:RDF>
      <cc:Work
         rdf:about="">
        <dc:format>image/svg+xml</dc:format>
        <dc:type
           rdf:resource="http://purl.org/dc/dcmitype/StillImage" />
      </cc:Work>
    </rdf:RDF>
  </metadata>
  <defs
     id="defs3871">
    <linearGradient
       inkscape:collect="always"
       id="linearGradient2">
      <stop
         style="stop-color:#5581aa;stop-opacity:0.60000002;"
         offset="0"
         id="stop1" />
      <stop
         style="stop-color:#6db2c5;stop-opacity:0.60487145;"
         offset="1"
         id="stop2" />
    </linearGradient>
    <style
       type="text/css"
       id="current-color-scheme">&#10;      .ColorScheme-Text {&#10;        color:#31363b;&#10;      }&#10;      .ColorScheme-Background {&#10;        color:#eff0f1;&#10;      }&#10;      .ColorScheme-Highlight {&#10;        color:#3daee9;&#10;      }&#10;      .ColorScheme-ViewText {&#10;        color:#31363b;&#10;      }&#10;      .ColorScheme-ViewBackground {&#10;        color:#fcfcfc;&#10;      }&#10;      .ColorScheme-ViewHover {&#10;        color:#93cee9;&#10;      }&#10;      .ColorScheme-ViewFocus{&#10;        color:#3daee9;&#10;      }&#10;      .ColorScheme-ButtonText {&#10;        color:#31363b;&#10;      }&#10;      .ColorScheme-ButtonBackground {&#10;        color:#eff0f1;&#10;      }&#10;      .ColorScheme-ButtonHover {&#10;        color:#93cee9;&#10;      }&#10;      .ColorScheme-ButtonFocus{&#10;        color:#3daee9;&#10;      }&#10;      </style>
    <linearGradient
       inkscape:collect="always"
       xlink:href="#linearGradient2"
       id="linearGradient6958"
       gradientUnits="userSpaceOnUse"
       gradientTransform="matrix(0.34575985,0,0,0.29582116,-39.758907,-172.05667)"
       x1="146.80391"
       y1="596.36243"
       x2="146.99998"
       y2="636.3623" />
    <linearGradient
       inkscape:collect="always"
       xlink:href="#linearGradient2"
       id="linearGradient3594"
       gradientUnits="userSpaceOnUse"
       gradientTransform="matrix(0.3457598,0,0,0.2958211,-39.758897,-172.05659)"
       x1="146.80391"
       y1="596.36243"
       x2="146.99998"
       y2="636.3623" />
    <linearGradient
       inkscape:collect="always"
       xlink:href="#linearGradient2"
       id="linearGradient1"
       gradientUnits="userSpaceOnUse"
       gradientTransform="matrix(0.34575983,0,0,0.29582114,-39.7589,-172.05663)"
       x1="146.80391"
       y1="596.36243"
       x2="146.99998"
       y2="636.3623" />
  </defs>
  <g
     id="fcitx-bopomofo-libpinyin"
     transform="translate(-65.999995,-44.000031)"
     style="fill:#cccccc">
    <rect
       y="0"
       x="0"
       height="22"
       width="22"
       id="rect4147"
       style="fill:none;fill-rule:evenodd;stroke:none;stroke-width:1px;stroke-linecap:butt;stroke-linejoin:miter;stroke-opacity:1" />
    <path
       class="ColorScheme-Text"
       style="fill:#d1d5e9;fill-opacity:1;stroke:none"
       d="M 3,3.0000076 V 19.000008 H 19 V 3.0000076 Z"
       id="path4274" />
    <path
       class="ColorScheme-Text"
       style="fill:#24273a;fill-opacity:1;stroke:none"
       d="m 11.300781,4.5996166 -0.601562,0.800782 2,1.5 0.601562,-0.800782 z"
       id="path4270" />
    <path
       class="ColorScheme-Text"
       style="fill:#24273a;fill-opacity:1;stroke:none"
       d="m 5.3535156,4.6464866 -0.7070312,0.707032 2,2 0.7070312,-0.707032 z"
       id="path4268" />
    <path
       class="ColorScheme-Text"
       style="fill:#24273a;fill-opacity:1;stroke:none"
       d="m 8,7.0000076 v 1 h 4 V 11.000008 H 9 v 1 h 3 v 4 H 8 v 1 h 9 v -1 h -4 v -4 h 3 v -1 H 13 V 8.0000076 h 4 v -1 z"
       id="path4266" />
    <path
       class="ColorScheme-Text"
       style="fill:#24273a;fill-opacity:1;stroke:none"
       d="m 5.3535156,7.6464916 -0.7070312,0.707032 2,2.0000004 0.7070312,-0.7070324 z"
       id="path4264" />
    <path
       class="ColorScheme-Text"
       style="fill:#24273a;fill-opacity:1;stroke:none"
       d="m 6.5253906,10.841805 -2,6 0.9492188,0.316406 2,-6 z"
       id="path4166" />
  </g>
  <g
     id="fcitx-pinyin"
     transform="translate(-131.99998,-66.000031)">
    <path
       id="path6"
       class="ColorScheme-Text"
       d="M 3,3.0019531 V 19 H 19 V 3.0019531 Z M 4,4 H 18 V 18 H 4 Z M 10.900391,4.7011719 10.099609,5.3007812 11.375,7 H 10 v 1 h 1 v 3 H 9.1171875 L 9.2226562,10.94727 8.7773438,10.052734 8,10.441406 V 8 H 9 V 7 H 8 V 5 H 7 V 7 H 5 v 1 h 2 v 2.941406 L 4.7773438,12.052734 5.2226562,12.947266 7,12.058594 V 16 H 5 v 1 h 3 v -5.441406 l 1,-0.5 V 12 h 1.960938 c -0.08868,0.895032 -0.391653,1.61152 -0.792969,2.306641 -0.4973153,0.8613 -1.5097659,1.830078 -1.5097659,1.830078 l 0.6835938,0.728515 c 0,0 1.0706891,-0.983593 1.6914061,-2.058593 C 11.481893,14.02943 11.862844,13.118701 11.958984,12 H 14 v 5 h 1 v -5 h 2 V 11 H 15 V 8 h 2 V 7 h -2.375 l 1.275391,-1.6992188 -0.800782,-0.5996093 -1.5,2 L 13.998047,7 H 12.001953 L 12.400391,6.7011719 Z M 12,8 h 2 v 3 h -2 z"
       style="fill:#d1d5e9;fill-opacity:1;stroke:none" />
    <rect
       y="0"
       x="0"
       height="22"
       width="22"
       id="rect4138"
       style="fill:none;fill-opacity:1;stroke:none" />
  </g>
  <g
     id="fcitx-shuangpin"
     transform="translate(-87.999995,-66.000031)">
    <path
       id="path6-1"
       class="ColorScheme-Text"
       d="M 3,3.0019531 V 19 H 19 V 3.0019531 Z M 4,4 H 18 V 18 H 4 Z M 5,5 V 6 H 9.4277344 C 9.3567399,6.6433848 9.1095505,8.7368774 8.5585938,10.642578 7.8640436,9.6798255 7.0718951,8.6616876 5.890625,7.1875 l -0.78125,0.6269531 c 1.4174333,1.768857 2.2870807,2.8838839 3.0527344,3.9902349 -1.2932813,3.342269 -3.2636719,4.656249 -3.2636719,4.65625 l 0.5566406,0.832031 c 0,0 1.9707929,-1.362982 3.3652344,-4.488281 0.4371629,0.686564 0.8829906,1.421585 1.4218755,2.375 l 0.86914,-0.490235 C 10.412442,13.452965 9.856111,12.550817 9.2734375,11.677734 10.169908,9.0698901 10.498047,5.5488281 10.498047,5.5488281 L 10.548828,5 Z m 6,0 v 1 h 0.589844 c 0.101934,0.5915985 0.552462,3.1367245 1.310547,5.09375 0.265281,0.684811 0.549026,1.343749 0.886718,1.992188 -1.288059,2.041728 -3.068359,3.142578 -3.068359,3.142578 l 0.517578,0.855468 c 0,0 1.710317,-1.050173 3.103516,-3.037109 0.655672,1.023639 1.52165,2.030149 2.802734,3.064453 l 0.626953,-0.779297 c -1.383561,-1.117032 -2.21998,-2.147051 -2.84375,-3.230469 0.12558,-0.227385 0.256224,-0.447093 0.367188,-0.693359 C 16.167139,10.468103 17,7.6466006 17,5.5 V 5 Z m 1.607422,1 h 3.316406 c -0.108623,1.8531004 -0.786023,4.318047 -1.542969,5.998047 -0.0025,0.0055 -0.0053,0.01017 -0.0078,0.01563 -0.18806,-0.413838 -0.365555,-0.833366 -0.539063,-1.28125 C 13.175782,9.0332602 12.746688,6.7654286 12.607422,6 Z"
       style="fill:#d1d5e9;fill-opacity:1;stroke:none" />
    <rect
       y="0"
       x="0"
       height="22"
       width="22"
       id="rect4138-4"
       style="fill:none;fill-opacity:1;stroke:none" />
  </g>
  <g
     id="fcitx-wubi"
     transform="translate(22,-66.000031)">
    <path
       id="path6-6"
       class="ColorScheme-Text"
       d="M 3,3.0019531 V 19 H 19 V 3.0019531 Z M 4,4 H 18 V 18 H 4 Z M 6,6 V 7 H 9.8769531 L 9.2109375,10 H 7 v 1 H 8.9882812 L 8.0996094,15 H 6 v 1 H 16 V 15 H 14 V 10 H 10.236328 L 10.902344,7 H 15 V 6 Z m 4.013672,5 H 13 v 4 H 9.1230469 Z"
       style="fill:#d1d5e9;fill-opacity:1;stroke:none" />
    <rect
       y="0"
       x="0"
       height="22"
       width="22"
       id="rect4138-8"
       style="fill:none;fill-opacity:1;stroke:none" />
  </g>
  <g
     id="fcitx-googlepinyin"
     transform="translate(-131.99998,-22.000023)">
    <path
       id="path6-12"
       class="ColorScheme-Text"
       d="M 3,3.0019531 V 19 H 19 V 3.0019531 Z M 4,4 H 18 V 18 H 4 Z m 6.898438,1.5039062 C 9.6042556,5.5279065 8.3182667,6.0036341 7.3007812,6.9277344 5.2658109,8.775735 4.9123412,11.865153 6.4746094,14.126953 8.0368776,16.388753 11.051478,17.149791 13.5,15.900391 15.689334,14.783333 16.832231,12.354748 16.398438,10 h -2.056641 c 7.82e-4,0.0026 0.0012,0.0052 0.002,0.0078 h -3.34375 v 2 h 3.335938 c -0.262982,0.884961 -0.864025,1.661241 -1.746094,2.111329 -1.569389,0.8008 -3.4693016,0.320896 -4.4707034,-1.128907 C 7.1177389,11.540434 7.3421217,9.5928037 8.6464844,8.4082031 9.9508467,7.2237028 11.909227,7.1880182 13.255859,8.3242188 L 14.546875,6.7949219 C 13.496412,5.9086216 12.192617,5.4804062 10.898438,5.5039062 Z"
       style="fill:#d1d5e9;fill-opacity:1;stroke:none" />
    <rect
       y="0"
       x="0"
       height="22"
       width="22"
       id="rect4147-4"
       style="fill:none;fill-opacity:1;stroke:none" />
  </g>
  <g
     id="fcitx-pinyin-libpinyin"
     transform="translate(-131.99998,-44.000023)">
    <path
       id="path6-4"
       class="ColorScheme-Text"
       d="M 3,3 V 19 H 19 V 3 Z m 7.900391,1.7011719 1.5,2 L 12.001953,7 h 1.996094 l -0.398438,-0.2988281 1.5,-2 0.800782,0.5996093 L 14.625,7 H 17 v 1 h -2 v 3 h 2 v 1 h -2 v 5 h -1 v -5 h -2.041016 c -0.09614,1.118701 -0.477091,2.02943 -0.925781,2.806641 -0.620717,1.075 -1.6914061,2.058593 -1.6914061,2.058593 L 8.6582031,16.136719 c 0,0 1.0124506,-0.968778 1.5097659,-1.830078 C 10.569285,13.61152 10.872261,12.895032 10.960938,12 H 9 v -0.941406 l -1,0.5 V 17 H 5 V 16 H 7 V 12.058594 L 5.2226562,12.947266 4.7773438,12.052734 7,10.941406 V 8 H 5 V 7 H 7 V 5 H 8 V 7 H 9 V 8 H 8 v 2.441406 L 8.7773438,10.052734 9.2226562,10.947266 9.1171875,11 H 11 V 8 H 10 V 7 h 1.375 L 10.099609,5.3007812 Z M 12,8 v 3 h 2 V 8 Z"
       style="fill:#d1d5e9;fill-opacity:1;stroke:none" />
    <rect
       y="0"
       x="0"
       height="22"
       width="22"
       id="rect4138-2"
       style="fill:none;fill-opacity:1;stroke:none" />
  </g>
  <g
     id="fcitx-shuangpin-libpinyin"
     transform="translate(-87.999995,-44.000023)">
    <path
       id="path6-3"
       class="ColorScheme-Text"
       d="M 3,3 V 19 H 19 V 3 Z m 2,2 h 5.548828 l -0.05078,0.5488281 c 0,0 -0.328139,3.521106 -1.2246095,6.1289059 0.5826734,0.8731 1.1390045,1.775219 1.8378905,3.011719 l -0.86914,0.490235 c -0.5388845,-0.953401 -0.9847126,-1.6884 -1.4218755,-2.375 -1.3944413,3.1253 -3.3652344,4.488281 -3.3652344,4.488281 L 4.8984375,16.460938 c 0,0 1.9703908,-1.31395 3.2636719,-4.65625 C 7.3964558,10.698287 6.5268081,9.5832533 5.109375,7.8144531 L 5.890625,7.1875 C 7.0718949,8.6617002 7.8640436,9.679778 8.5585938,10.642578 9.1095504,8.7368779 9.3567404,6.6434001 9.4277344,6 H 5 Z m 6,0 h 6 v 0.5 c 0,2.1466003 -0.832862,4.968103 -1.707031,6.908203 -0.110964,0.2463 -0.241608,0.465959 -0.367188,0.693359 0.62377,1.083401 1.46019,2.113469 2.84375,3.230469 l -0.626953,0.779297 c -1.281085,-1.0343 -2.147062,-2.040853 -2.802734,-3.064453 -1.393199,1.9869 -3.103516,3.037109 -3.103516,3.037109 L 10.71875,16.228516 c 0,0 1.7803,-1.100778 3.068359,-3.142578 C 13.449417,12.437537 13.165672,11.77865 12.900391,11.09375 12.142306,9.1367498 11.691778,6.5916001 11.589844,6 H 11 Z m 1.607422,1 c 0.139266,0.7654001 0.568348,3.0333217 1.226562,4.732422 0.173508,0.4479 0.351003,0.86735 0.539063,1.28125 0.0025,-0.006 0.0053,-0.0056 0.0078,-0.01563 0.756947,-1.68 1.434346,-4.1449468 1.542969,-5.998047 H 12.60741 Z"
       style="fill:#d1d5e9;fill-opacity:1;stroke:none" />
    <rect
       y="0"
       x="0"
       height="22"
       width="22"
       id="rect4138-44"
       style="fill:none;fill-opacity:1;stroke:none" />
  </g>
  <g
     id="fcitx-sunpinyin"
     transform="translate(-109.99999,-22.000023)">
    <path
       id="path6-8"
       class="ColorScheme-Text"
       d="m 11,1.5136719 c -0.255619,0 -0.511163,0.099053 -0.707031,0.2949219 L 8.1015625,4 H 5 C 4.4459998,4 4,4.4459998 4,5 V 8.0996094 L 1.8066406,10.292969 c -0.3917372,0.391737 -0.3917372,1.022325 0,1.414062 L 4,13.900391 V 17 c 0,0.554 0.4459998,1 1,1 h 3.0996094 l 2.1933596,2.193359 c 0.391737,0.391738 1.022325,0.391738 1.414062,0 L 13.900391,18 H 17 c 0.554,0 1,-0.446 1,-1 v -3.101562 l 2.191406,-2.191407 c 0.391737,-0.391737 0.391737,-1.022325 0,-1.414062 L 18,8.1015625 V 5 C 18,4.4459998 17.554,4 17,4 H 13.898438 L 11.707031,1.8085938 C 11.511163,1.612725 11.255619,1.5136719 11,1.5136719 Z m -0.09961,3.1875 1.5,2 L 12.001953,7 h 1.996094 l -0.398438,-0.2988281 1.5,-2 0.800782,0.5996093 L 14.625,7 H 17 v 1 h -2 v 3 h 2 v 1 h -2 v 5 h -1 v -5 h -2.041016 c -0.09614,1.118701 -0.477091,2.02943 -0.925781,2.806641 -0.620717,1.075 -1.6914061,2.058593 -1.6914061,2.058593 L 8.6582031,16.136719 c 0,0 1.0124506,-0.968778 1.5097659,-1.830078 C 10.569285,13.61152 10.872261,12.895032 10.960938,12 H 9 v -0.941406 l -1,0.5 V 17 H 5 V 16 H 7 V 12.058594 L 5.2226562,12.947266 4.7773438,12.052734 7,10.941406 V 8 H 5 V 7 H 7 V 5 H 8 V 7 H 9 V 8 H 8 v 2.441406 L 8.7773438,10.052734 9.2226562,10.947266 9.1171875,11 H 11 V 8 H 10 V 7 h 1.375 L 10.099609,5.3007812 10.900391,4.7011719 Z M 12,8 v 3 h 2 V 8 Z"
       style="fill:#d1d5e9;fill-opacity:1;stroke:none" />
    <rect
       y="0"
       x="0"
       height="22"
       width="22"
       id="rect4138-6"
       style="fill:none;fill-opacity:1;stroke:none" />
  </g>
  <g
     id="fcitx-emoji"
     transform="translate(-131.99998,-104.00002)">
    <rect
       style="fill:none;fill-opacity:1;stroke:none"
       id="rect4372"
       width="22"
       height="22"
       x="-2.4709701e-09"
       y="170" />
    <path
       class="ColorScheme-Text"
       style="fill:#d1d5e9;fill-opacity:1;stroke:none"
       d="m 3.2226562,150.05273 -0.4453124,0.89454 4,2 0.4453124,-0.89454 z m 15.5546878,0 -4,2 0.445312,0.89454 4,-2 z M 4,153 a 1,1 0 0 0 -1,1 1,1 0 0 0 1,1 1,1 0 0 0 1,-1 1,1 0 0 0 -1,-1 z m 14,0 a 1,1 0 0 0 -1,1 1,1 0 0 0 1,1 1,1 0 0 0 1,-1 1,1 0 0 0 -1,-1 z m -9.9003906,1.69922 c -0.81,1.08 -1.2349527,2.28879 -1.1601563,3.33594 0.037398,0.52357 0.2100311,1.02143 0.5683594,1.39062 C 7.8661408,159.79497 8.3958333,160 9,160 c 0.9612309,0 1.638831,-0.68084 2,-1.45703 0.361169,0.77619 1.038769,1.45703 2,1.45703 0.604167,0 1.133858,-0.20503 1.492188,-0.57422 0.358328,-0.36919 0.530961,-0.86705 0.568359,-1.39062 0.0748,-1.04715 -0.350156,-2.25594 -1.160156,-3.33594 l -0.800782,0.60156 c 0.69,0.92 1.015048,1.96121 0.964844,2.66406 -0.0251,0.35143 -0.13372,0.60357 -0.291015,0.76563 C 13.616141,158.89253 13.395833,159 13,159 12.472222,159 12.15973,158.6932 11.892578,158.10547 11.625426,157.51773 11.5,156.69444 11.5,156 h -1 c 0,0.69444 -0.125426,1.51773 -0.392578,2.10547 C 9.84027,158.6932 9.5277778,159 9,159 c -0.3958333,0 -0.6161408,-0.10747 -0.7734375,-0.26953 -0.1572967,-0.16206 -0.2659138,-0.4142 -0.2910156,-0.76563 -0.050204,-0.70285 0.2748437,-1.74406 0.9648437,-2.66406 z"
       transform="translate(0,26)"
       id="path4549" />
  </g>
  <g
     id="fcitx-erbi"
     transform="translate(0,-66.000031)">
    <path
       id="rect4205"
       d="M 3,3 V 3.5 19 H 19 V 3 Z M 4,4 H 18 V 18 H 4 Z M 6,7 V 8 H 16 V 7 Z m -1,7 v 1 h 12 v -1 z"
       class="ColorScheme-Text"
       style="fill:#d1d5e9;fill-opacity:1;stroke:none" />
    <rect
       y="0"
       x="0"
       height="22"
       width="22"
       id="rect4219"
       style="fill:none;fill-opacity:1;stroke:none;stroke-linejoin:miter" />
  </g>
  <g
     id="fcitx-ziranma"
     transform="translate(66,-66.000031)">
    <path
       class="ColorScheme-Text"
       style="fill:#d1d5e9;fill-opacity:1;stroke:none"
       d="M 3,3 V 19 H 19 V 3 Z M 4,4 H 18 V 18 H 4 Z M 9.6796875,4.6152344 6.8183594,7 H 6 V 17 H 7 15.5 16 V 7 H 8.3828125 L 10.320312,5.3847656 Z M 7,8 h 8 v 8 H 7 v -2 h 6 V 13 H 7 v -2 h 6 V 10 H 7 Z"
       id="path4227" />
    <rect
       style="fill:none;fill-opacity:1;stroke:none;stroke-linejoin:miter"
       id="rect4229"
       width="22"
       height="22"
       x="0"
       y="0" />
  </g>
  <g
     id="fcitx-quanpin"
     transform="translate(-109.99999,-66.000031)">
    <path
       class="ColorScheme-Text"
       style="fill:#d1d5e9;fill-opacity:1;stroke:none"
       d="M 3,3 V 19 H 19 V 3 Z M 4,4 H 18 V 18 H 4 Z m 6.509766,0.9023438 C 10.323881,5.8317693 8.9615007,6.9634215 7.5664062,7.7519531 6.1713119,8.5404847 4.8300781,9.0292969 4.8300781,9.0292969 l 0.3398438,0.9414062 c 0,0 0.8013817,-0.2932064 1.8300781,-0.7949219 L 7,10 h 3.5 v 2 H 8 v 1 h 2.5 v 3 H 6 v 1 H 16 V 16 H 11.5 V 13 H 14 V 12 H 11.5 V 10 H 15 V 9.1308594 C 16.015788,9.6469945 16.824219,9.96875 16.824219,9.96875 l 0.351562,-0.9375 c 0,0 -3.856017,-1.4980606 -5.732422,-3.7871094 0.01285,-0.049766 0.03674,-0.095781 0.04687,-0.1464844 z M 11,6.2324219 C 12.116196,7.4472455 13.543014,8.3695184 14.734375,9 H 7.3378906 C 7.5754268,8.8790495 7.8107881,8.7631109 8.0585938,8.6230469 9.1538606,8.0039829 10.332412,7.2293319 11,6.2324219 Z"
       id="path4261" />
    <rect
       y="0"
       x="0"
       height="22"
       width="22"
       id="rect4263"
       style="fill:none;fill-opacity:1;stroke:none;stroke-linejoin:miter" />
  </g>
  <g
     id="fcitx-cangjie"
     transform="translate(88,-66.000031)">
    <path
       class="ColorScheme-Text"
       style="fill:#d1d5e9;fill-opacity:1;stroke:none"
       d="m 179,15 v 16 h 16 V 15 Z m 1,1 h 14 v 14 h -14 z m 6.58398,0.722656 c -1.84354,2.765319 -5.64648,3.28125 -5.64648,3.28125 l 0.125,0.992188 c 0,0 0.83386,-0.123824 1.9375,-0.535156 V 24.5 c 0,0.833333 -0.45395,1.912573 -0.93359,2.751953 -0.47965,0.83938 -0.95704,1.435547 -0.95703,1.435547 l 0.78124,0.625 c 0,0 0.52262,-0.653833 1.04297,-1.564453 0.0223,-0.03907 0.044,-0.08499 0.0664,-0.125 L 183,29 h 0.5 7.5 v -3 h -7.27539 c 0.107,-0.326656 0.17843,-0.661039 0.2207,-1 H 191 v -4.539062 c 1.10364,0.411332 1.9375,0.535156 1.9375,0.535156 l 0.125,-0.992188 c 0,0 -3.80294,-0.515931 -5.64648,-3.28125 z M 187,17.703125 c 0.85882,1.069604 1.93347,1.798543 2.93359,2.296875 H 187.5 l 0.27734,-0.416016 -1.5,-1 -0.55468,0.832032 0.875,0.583984 h -2.53125 C 185.06653,19.501668 186.14118,18.772729 187,17.703125 Z M 184,21 h 6 v 3 h -6 v -1 h 5 v -1 h -5 z m 0,6 h 6 v 1 h -6 z"
       transform="translate(-176,-12)"
       id="path4280" />
    <rect
       style="fill:none;fill-opacity:1;stroke:none;stroke-linejoin:miter"
       id="rect4282"
       width="22"
       height="22"
       x="0"
       y="0" />
  </g>
  <g
     transform="translate(44,-66.000031)"
     id="fcitx-wbpy">
    <path
       class="ColorScheme-Text"
       style="fill:#d1d5e9;fill-opacity:1;stroke:none"
       d="M 28,98.001953 V 114 h 9 v 1 h 8 V 105 H 44 V 98.001953 Z M 29,99 h 14 v 6 h -3.5 -4.263672 l 0.666016,-3 H 40 v -1 h -9 v 1 h 3.876953 l -0.666015,3 H 32 v 1 h 1.988281 l -0.888672,4 H 31 v 1 h 6 v 2 h -8 z m 6.013672,7 H 37 v 4 H 34.123047 Z M 39,107 h 0.5 c 0.75,0 1.531712,-0.0168 2.220703,0.21289 0.344496,0.11483 0.676391,0.30519 0.916016,0.61328 C 42.876343,108.13426 43,108.54167 43,109 c 0,0.45833 -0.123657,0.86574 -0.363281,1.17383 -0.239625,0.30809 -0.57152,0.49845 -0.916016,0.61328 -0.533836,0.17794 -1.133444,0.15946 -1.720703,0.16406 V 113 h -1 z m 1,1.04297 v 1.91406 c 0.528068,-0.0121 1.082776,-0.012 1.404297,-0.11914 0.218004,-0.0727 0.354859,-0.16356 0.443359,-0.27734 C 41.93616,109.44676 42,109.29167 42,109 c 0,-0.29167 -0.06384,-0.44676 -0.152344,-0.56055 -0.0885,-0.11378 -0.225355,-0.20467 -0.443359,-0.27734 C 41.082776,108.05494 40.528068,108.05507 40,108.04297 Z"
       transform="translate(-25,-95)"
       id="path4312" />
    <rect
       style="fill:none;fill-opacity:1;stroke:none"
       id="rect4314"
       width="22"
       height="22"
       x="0"
       y="0" />
  </g>
  <g
     id="fcitx-quanpin-libpinyin"
     transform="translate(-109.99999,-44.000023)">
    <path
       class="ColorScheme-Text"
       style="fill:#d1d5e9;fill-opacity:1;stroke:none"
       d="M -22.5,-15 V 1 h 16 v -16 z m 7.509766,1.902344 0.980468,0.195312 c -0.01013,0.0507 -0.03402,0.09672 -0.04687,0.146485 1.876405,2.289048 5.7324222,3.787109 5.7324222,3.787109 l -0.3515624,0.9375 c -1e-7,0 -0.8084308,-0.3217555 -1.8242188,-0.8378906 L -10.5,-8 H -14 v 2 h 2.5 v 1 H -14 v 3 h 4.5 v 1 h -10 v -1 h 4.5 v -3 h -2.5 v -1 h 2.5 v -2 h -3.5 v -0.8242188 c -1.028696,0.5017155 -1.830078,0.7949219 -1.830078,0.7949219 l -0.339844,-0.9414062 c 0,0 1.341234,-0.4888121 2.736328,-1.2773439 1.395095,-0.788531 2.757475,-1.920184 2.94336,-2.849609 z M -14.5,-11.767578 c -0.667588,0.99691 -1.846139,1.7715609 -2.941406,2.3906249 -0.247806,0.140064 -0.483167,0.2560026 -0.720703,0.3769531 h 7.396484 c -1.191361,-0.6304816 -2.618179,-1.552755 -3.734375,-2.767578 z"
       transform="translate(25.5,18)"
       id="path4202" />
    <rect
       style="fill:none;fill-opacity:1;stroke:none;stroke-linejoin:miter"
       id="rect4196"
       width="22"
       height="22"
       x="0"
       y="0" />
  </g>
  <g
     style="fill:#cccccc"
     transform="translate(-65.999995,-66.000031)"
     id="fcitx-bopomofo">
    <rect
       style="fill:none;fill-rule:evenodd;stroke:none;stroke-width:1px;stroke-linecap:butt;stroke-linejoin:miter;stroke-opacity:1"
       id="rect4212"
       width="22"
       height="22"
       x="0"
       y="0" />
    <path
       class="ColorScheme-Text"
       style="fill:#d1d5e9;fill-opacity:1;stroke:none"
       d="m 91,37 v 16 h 16 V 37 Z m 1,1 h 14 V 52 H 92 Z m 7.300781,0.599609 -0.601562,0.800782 2.000001,1.5 0.60156,-0.800782 z m -5.947265,0.04687 -0.707032,0.707032 2,2 0.707032,-0.707032 z M 96,41 v 1 h 4 v 3 h -3 v 1 h 3 v 4 h -4 v 1 h 9 v -1 h -4 v -4 h 3 v -1 h -3 v -3 h 4 v -1 z m -2.646484,0.646484 -0.707032,0.707032 2,2 0.707032,-0.707032 z m 1.171875,3.195313 -2,6 0.949218,0.316406 2,-6 z"
       transform="translate(-88,-33.999992)"
       id="path4214" />
  </g>
  <g
     transform="translate(-44.000005,-66.000031)"
     id="fcitx-chewing">
    <path
       class="ColorScheme-Text"
       style="fill:#d1d5e9;fill-opacity:1;stroke:none"
       d="M 91,37 V 37.5 53 h 16 V 37 Z m 1,1 h 14 V 52 H 92 Z m 1,1 v 1 h 1 v 3 h -1 v 8 h 1 4.5 0.5 V 43 H 98.5 97 v -3 h 2 v -1 z m 6,4 0.400391,0.300781 c 0,0 0.398251,-0.511169 0.796879,-1.300781 H 102 v 2 h -2 v 1 h 5 v -1 h -2 v -2 h 2 v -1 h -2 v -2 h -1 v 2 h -1.38281 C 100.83463,40.388658 101,39.708749 101,39 h -1 c 0,1.75 -1.400391,3.699219 -1.400391,3.699219 z m -4,-3 h 1 v 3 h -1 z m 0,4 h 1 v 3 h 1 v -3 h 1 v 6 h -4 v -1 h 3 v -1 h -3 v -1 h 1 z m 5,2 v 0.5 4.5 h 5 v -5 z m 1,1 h 3 v 3 h -3 z"
       id="path4265"
       transform="translate(-88,-34)" />
    <rect
       style="fill:none;fill-opacity:1;stroke:none;stroke-linejoin:miter"
       id="rect4267"
       width="22"
       height="22"
       x="0"
       y="0" />
  </g>
  <g
     id="fcitx-chewing-libpinyin"
     transform="translate(-44.000005,-44.000023)">
    <path
       class="ColorScheme-Text"
       style="fill:#d1d5e9;fill-opacity:1;stroke:none"
       d="M 91,37 V 37.5 53 h 16 V 37 Z m 2,2 h 6 v 1 h -2 v 3 H 98.5 99 L 98.599609,42.699219 C 98.599609,42.699219 100,40.75 100,39 h 1 c 0,0.708749 -0.16537,1.388658 -0.38281,2 H 102 v -2 h 1 v 2 h 2 v 1 h -2 v 2 h 2 v 1 h -5 v -1 h 2 v -2 h -1.80273 c -0.398628,0.789612 -0.796879,1.300781 -0.796879,1.300781 L 99,43 v 8 H 98.5 94 93 v -8 h 1 v -3 h -1 z m 2,1 v 3 h 1 v -3 z m 0,4 v 3 h -1 v 1 h 3 v 1 h -3 v 1 h 4 v -6 h -1 v 3 h -1 v -3 z m 5,2 h 5 v 5 h -5 v -4.5 z m 1,1 v 3 h 3 v -3 z"
       transform="translate(-88,-34)"
       id="path4360" />
    <rect
       y="0"
       x="0"
       height="22"
       width="22"
       id="rect4353"
       style="fill:none;fill-opacity:1;stroke:none;stroke-linejoin:miter" />
  </g>
  <g
     transform="translate(-22.000005,-66.000031)"
     id="fcitx-rime">
    <path
       class="ColorScheme-Text"
       style="fill:#d1d5e9;fill-opacity:1;stroke:none"
       d="m 113,15 v 16 h 16 V 15 Z m 1,1 h 14 v 14 h -14 z m 6,1 v 6.982422 c -1.81096,-0.08165 -2.72052,-0.606587 -3.26172,-1.492188 C 116.14843,21.525025 116,19.979167 116,18 h -1 c 0,2.020833 0.10157,3.724975 0.88672,5.009766 0.72658,1.188957 2.06293,1.873963 4.11328,1.970703 V 28 h -5 v 1 h 11 v -1 h -5 v -3.019531 c 2.05035,-0.09674 3.3867,-0.781746 4.11328,-1.970703 C 125.89843,21.724975 126,20.020833 126,18 h -1 c 0,1.979167 -0.14843,3.525025 -0.73828,4.490234 -0.5412,0.885601 -1.45076,1.410542 -3.26172,1.492188 V 17 Z"
       transform="translate(-110,-12)"
       id="path4365" />
    <rect
       style="fill:none;fill-opacity:1;stroke:none;stroke-linejoin:miter"
       id="rect4367"
       width="22"
       height="22"
       x="0"
       y="0" />
  </g>
  <g
     transform="translate(-131.99998,-126.00002)"
     id="fcitx-unikey">
    <rect
       y="170"
       x="-2.4709701e-09"
       height="22"
       width="22"
       id="rect4386"
       style="fill:none;fill-opacity:1;stroke:none" />
    <path
       class="ColorScheme-Text"
       style="fill:#d1d5e9;fill-opacity:1;stroke:none"
       d="m 4,126 v 0.5 7.5 h 3 v 7 h 8 v -7 h 3 v -8 h -6 -1 z m 1,1 h 6 v 6 H 5 Z m 7,0 h 5 v 6 h -2 -3 z m -6,1 v 1.5 c 0,0.80556 0.1226409,1.42283 0.484375,1.875 C 6.8461091,131.82717 7.4166667,132 8,132 8.5833333,132 9.1538909,131.82717 9.515625,131.375 9.8773591,130.92283 10,130.30556 10,129.5 V 128 H 9 v 1.5 c 0,0.69444 -0.1273591,1.07717 -0.265625,1.25 C 8.5961091,130.92283 8.4166667,131 8,131 7.5833333,131 7.4038909,130.92283 7.265625,130.75 7.1273591,130.57717 7,130.19444 7,129.5 V 128 Z m 8,0 v 4 h 1 v -4 z m -6,6 h 3 1 2 v 6 H 8 Z m 2,1 H 9 v 4 h 1 v -2.49805 L 12,139 h 1 v -4 h -1 v 2.49805 z"
       transform="translate(0,48)"
       id="rect4402" />
  </g>
  <g
     id="fcitx-anthy"
     transform="translate(-131.99998,-170.00002)">
    <rect
       style="fill:none;fill-opacity:1;stroke:none"
       id="rect4431"
       width="22"
       height="22"
       x="-2.4709701e-09"
       y="170" />
    <path
       class="ColorScheme-Text"
       style="fill:#d1d5e9;fill-opacity:1;stroke:none"
       d="m 11,173 c -1.0986472,0 -2,0.90135 -2,2 v 0.002 c 0.00127,0.60896 0.3333856,1.12216 0.7949219,1.4961 -0.1451277,0.97576 -0.372921,2.23303 -0.7695313,3.25586 -0.211868,0.54639 -0.4670557,1.01446 -0.734375,1.3164 C 8.0236963,181.37225 7.783792,181.5 7.5,181.5 7.2018151,181.5 6.9605212,181.38854 6.7070312,181.15234 6.4535413,180.91615 6.211675,180.55139 6.0058594,180.11523 5.6264439,179.3112 5.398232,178.29965 5.2441406,177.4707 5.6835044,177.09584 5.9995503,176.5918 6,176 c 0,-1.09865 -0.9013528,-2 -2,-2 -1.0986472,0 -2,0.90135 -2,2 9.876e-4,0.82143 0.564308,1.45548 1.2988281,1.75781 L 5.0800781,188 H 16.919922 l 1.78125,-10.24023 C 19.436582,177.45711 20.000082,176.82244 20,176 c 0,-1.09865 -0.901353,-2 -2,-2 -1.098647,0 -2,0.90135 -2,2 4.5e-4,0.5918 0.316496,1.09584 0.755859,1.4707 -0.154091,0.82895 -0.382303,1.8405 -0.761718,2.64453 -0.205816,0.43616 -0.447682,0.80092 -0.701172,1.03711 C 15.039479,181.38854 14.798185,181.5 14.5,181.5 c -0.283716,0 -0.52375,-0.12794 -0.791016,-0.42969 -0.267266,-0.30174 -0.522495,-0.77029 -0.734375,-1.3164 C 12.577992,178.73163 12.3503,177.47582 12.205078,176.5 12.667324,176.12551 12.999524,175.6099 13,175 c 0,-1.09865 -0.901353,-2 -2,-2 z m 0,1 c 0.558207,0 1,0.44179 1,1 -3e-4,0.3835 -0.21765,0.73066 -0.5625,0.89844 l -0.326172,0.1582 0.04883,0.36133 c 0.145112,1.03434 0.406928,2.47067 0.882813,3.69726 0.237942,0.6133 0.527371,1.17816 0.917969,1.61914 0.390597,0.44099 0.920669,0.76563 1.539062,0.76563 0.575171,0 1.084763,-0.25198 1.474609,-0.61523 0.389847,-0.36326 0.683068,-0.83355 0.923829,-1.34375 0.403261,-0.85457 0.595886,-1.78757 0.759765,-2.61524 L 16.080078,187 H 5.9199219 L 4.34375,177.92773 c 0.1638928,0.82721 0.3549092,1.75948 0.7578125,2.61329 0.2407609,0.5102 0.5339819,0.98049 0.9238281,1.34375 C 6.4152368,182.24802 6.9248292,182.5 7.5,182.5 c 0.6185835,0 1.1503906,-0.32637 1.5410156,-0.76758 0.390625,-0.44121 0.6800565,-1.00363 0.9179688,-1.61719 0.4758246,-1.22711 0.7358526,-2.66508 0.8808596,-3.69921 l 0.04883,-0.36133 -0.326172,-0.15821 C 10.218615,175.72917 10.001472,175.38231 10,175 v -0.002 C 10.001,174.44077 10.442451,174 11,174 Z m -7,1 c 0.5582071,0 1,0.44179 1,1 -2.85e-4,0.375 -0.2077182,0.71484 -0.5410156,0.88672 l -0.2929688,0.15234 -0.328125,-0.0547 C 3.3513935,176.90478 3.0005927,176.49296 3,176 c 0,-0.55821 0.4417929,-1 1,-1 z m 14,0 c 0.558207,0 1,0.44179 1,1 4.9e-5,0.49347 -0.350892,0.90665 -0.837891,0.98633 l -0.326171,0.0547 -0.294922,-0.1543 C 17.207718,176.71484 17.000285,176.375 17,176 c 0,-0.55821 0.441793,-1 1,-1 z"
       id="circle4437" />
  </g>
  <g
     transform="translate(-109.99999,-170.00002)"
     id="fcitx-libkkc">
    <rect
       y="170"
       x="-2.4709701e-09"
       height="22"
       width="22"
       id="rect4452"
       style="fill:none;fill-opacity:1;stroke:none" />
    <path
       class="ColorScheme-Text"
       style="fill:#d1d5e9;fill-opacity:1;stroke:none"
       d="M 25,81 V 81.5 97 H 41 V 81 Z m 1,1 H 40 V 96 H 26 Z m 1,3 v 8 h 1 V 90.707031 L 30.292969,93 H 31 31.707031 32 V 90.707031 L 34.292969,93 h 1.414062 l -3,-3 3,-3 H 34.292969 L 32,89.292969 V 85 h -1 v 2 H 30.292969 L 28,89.292969 V 85 Z m 10,2 c -0.583333,0 -1.110664,0.153634 -1.478516,0.521484 C 35.153633,87.889344 35,88.41667 35,89 v 2 c 0,0.58333 0.153633,1.110656 0.521484,1.478516 C 35.889336,92.846366 36.416667,93 37,93 37.583333,93 38.110664,92.846366 38.478516,92.478516 38.846367,92.110656 39,91.58333 39,91 h -1 c 0,0.41667 -0.09637,0.639344 -0.228516,0.771484 C 37.639336,91.903634 37.416667,92 37,92 36.583333,92 36.360664,91.903604 36.228516,91.771484 36.096367,91.639344 36,91.41667 36,91 v -2 c 0,-0.41667 0.09637,-0.639344 0.228516,-0.771484 C 36.360664,88.096366 36.583333,88 37,88 c 0.416667,0 0.639336,0.0964 0.771484,0.228516 C 37.903633,88.360656 38,88.58333 38,89 h 1 C 39,88.41667 38.846367,87.889344 38.478516,87.521484 38.110664,87.153634 37.583333,87 37,87 Z m -6,0.707031 v 4.585938 L 28.707031,90 Z"
       transform="translate(-22,92)"
       id="rect4456" />
  </g>
  <g
     id="fcitx-libskk"
     transform="translate(-87.978515,-169.97854)">
    <rect
       style="fill:none;fill-opacity:1;stroke:none"
       id="rect4493"
       width="22"
       height="22"
       x="-2.4709701e-09"
       y="170" />
    <path
       class="ColorScheme-Text"
       style="fill:#d1d5e9;fill-opacity:1;stroke:none"
       d="m 47.021484,81.021484 v 0.5 15.5 h 16 v -16 z m 1,1 h 14 v 14 h -14 z M 53,85 v 3 3 2 h 1 V 90.707031 L 56.292969,93 H 57 57.707031 58 V 90.707031 L 60.292969,93 h 1.414062 l -3,-3 3,-3 H 60.292969 L 58,89.292969 V 85 h -1 v 2 H 56.292969 L 54,89.292969 V 85 Z m 0,6 C 53,90.41666 52.846367,89.889334 52.478516,89.521484 52.110665,89.153634 51.583333,89 51,89 50.583333,89 50.360665,88.903604 50.228516,88.771484 50.096367,88.639334 50,88.41666 50,88 50,87.58333 50.096367,87.360666 50.228516,87.228516 50.360665,87.096366 50.583333,87 51,87 c 0.416667,0 0.639335,0.09641 0.771484,0.228516 C 51.903633,87.360666 52,87.58333 52,88 h 1 C 53,87.41666 52.846367,86.889334 52.478516,86.521484 52.110665,86.153634 51.583333,86 51,86 50.416667,86 49.889335,86.153634 49.521484,86.521484 49.153633,86.889334 49,87.41666 49,88 c 0,0.58333 0.153633,1.110666 0.521484,1.478516 C 49.889335,89.846366 50.416667,90 51,90 c 0.416667,0 0.639335,0.09641 0.771484,0.228516 C 51.903633,90.360666 52,90.58333 52,91 52,91.41666 51.90363,91.639334 51.771484,91.771484 51.639335,91.903634 51.416667,92 51,92 50.583333,92 50.360665,91.903604 50.228516,91.771484 50.096367,91.639334 50,91.41666 50,91 h -1 c 0,0.58333 0.153633,1.110666 0.521484,1.478516 C 49.889335,92.846366 50.416667,93 51,93 51.583333,93 52.110665,92.846366 52.478516,92.478516 52.846367,92.110666 53,91.58333 53,91 Z m 4,-3.292969 v 4.585938 L 54.707031,90 Z"
       transform="translate(-44.021484,91.978516)"
       id="path4495" />
  </g>
  <g
     id="fcitx-hangul"
     transform="translate(-131.99998,-148.00002)">
    <rect
       style="fill:none;fill-opacity:1;stroke:none"
       id="rect4504"
       width="22"
       height="22"
       x="-2.4709701e-09"
       y="170" />
    <path
       class="ColorScheme-Text"
       style="fill:#d1d5e9;fill-opacity:1;stroke:none"
       d="m 3,103 v 0.5 15.5 h 16 v -16 z m 1,1 h 14 v 14 H 4 Z m 4,1 v 1 h 2 v -1 z m 6,1 v 8 h 1 v -4 h 2 v -1 h -2 v -3 z m -8,1 v 1 h 6 v -1 z m 3,2 c -1.5968879,0 -3,1.05766 -3,2.5 0,1.44234 1.4031121,2.5 3,2.5 1.596888,0 3,-1.05766 3,-2.5 0,-1.44234 -1.403112,-2.5 -3,-2.5 z m 0,1 c 1.164536,0 2,0.73321 2,1.5 0,0.76679 -0.835464,1.5 -2,1.5 -1.1645358,0 -2,-0.73321 -2,-1.5 0,-0.76679 0.8354642,-1.5 2,-1.5 z m -1,5 v 2 h 8 v -1 H 9 v -1 z"
       transform="translate(0,70)"
       id="path4506" />
  </g>
  <g
     id="fcitx-fullwidth-active"
     transform="translate(0,-148)">
    <rect
       style="fill:none;fill-opacity:1;stroke:none"
       id="rect4214"
       width="22"
       height="22"
       x="-2.4709701e-09"
       y="170" />
    <ellipse
       class="ColorScheme-Text"
       style="fill:#d1d5e9;fill-opacity:1;stroke:none"
       id="path4218"
       cx="11"
       cy="181"
       rx="8"
       ry="7.9999995" />
  </g>
  <g
     transform="translate(22,-148)"
     id="fcitx-fullwidth-inactive">
    <rect
       y="170"
       x="-2.4709701e-09"
       height="22"
       width="22"
       id="rect4222"
       style="fill:none;fill-opacity:1;stroke:none" />
    <path
       class="ColorScheme-Text"
       style="fill:#d1d5e9;fill-opacity:1;stroke:none"
       d="M 167.56641,91.431641 A 8,7.9999995 0 0 1 168,94 a 8,7.9999995 0 0 1 -8,8 8,7.9999995 0 0 1 -2.56641,-0.43164 A 8,7.9999995 0 0 0 165,107 a 8,7.9999995 0 0 0 8,-8 8,7.9999995 0 0 0 -5.43359,-7.568359 z"
       transform="translate(-154,81.999973)"
       id="ellipse4224" />
  </g>
  <g
     transform="translate(22,-126)"
     id="fcitx-punc-inactive">
    <rect
       y="170"
       x="-2.4709701e-09"
       height="22"
       width="22"
       id="rect4231"
       style="fill:none;fill-opacity:1;stroke:none" />
    <circle
       cy="180.5"
       cx="7.5"
       id="ellipse4233"
       class="ColorScheme-Text"
       style="fill:#d1d5e9;fill-opacity:1;stroke:none"
       r="1.5" />
    <path
       class="ColorScheme-Text"
       style="fill:#d1d5e9;fill-opacity:1;stroke:none"
       d="m 14.5,178.99997 a 1.5,1.5 0 0 0 -1.5,1.5 1.5,1.5 0 0 0 1.5,1.5 1.5,1.5 0 0 0 0.04688,-0.002 c -0.53325,0.93921 -1.34766,1.60156 -1.34766,1.60156 l 0.60156,0.80078 c 0,0 1.96734,-1.42635 2.16211,-3.57226 A 1.5,1.5 0 0 0 16,180.49997 a 1.5,1.5 0 0 0 -1.5,-1.5 z"
       id="circle4235" />
  </g>
  <g
     id="fcitx-punc-active"
     transform="translate(0,-126)">
    <path
       class="ColorScheme-Text"
       style="fill:#d1d5e9;fill-opacity:1;stroke:none"
       d="m 7.5,178 c -1.3747895,0 -2.5,1.12521 -2.5,2.5 0,1.37479 1.1252105,2.5 2.5,2.5 1.3747895,0 2.5,-1.12521 2.5,-2.5 0,-1.37479 -1.1252105,-2.5 -2.5,-2.5 z m 0,1 C 8.3343495,179 9,179.66565 9,180.5 9,181.33435 8.3343495,182 7.5,182 6.6656505,182 6,181.33435 6,180.5 6,179.66565 6.6656505,179 7.5,179 Z"
       id="path4251" />
    <rect
       style="fill:none;fill-opacity:1;stroke:none"
       id="rect4245"
       width="22"
       height="22"
       x="-2.4709701e-09"
       y="170" />
    <path
       class="ColorScheme-Text"
       style="fill:#d1d5e9;fill-opacity:1;stroke:none"
       d="m 212.5,96 c -1.37479,0 -2.5,1.12521 -2.5,2.5 0,1.37479 1.12521,2.5 2.5,2.5 0.36519,0 0.70988,-0.0842 1.02344,-0.22656 -0.34093,0.6932 -0.81988,1.1673 -1.30664,1.50195 -0.89509,0.61537 -1.7793,0.72852 -1.7793,0.72852 l 0.125,0.99218 c 0,0 1.11579,-0.13685 2.2207,-0.89648 C 213.88812,102.33998 215,100.89815 215,98.5 215,97.12521 213.87479,96 212.5,96 Z m 0,1 c 0.83435,0 1.5,0.66565 1.5,1.5 0,0.83435 -0.66565,1.5 -1.5,1.5 -0.83435,0 -1.5,-0.66565 -1.5,-1.5 0,-0.83435 0.66565,-1.5 1.5,-1.5 z"
       transform="translate(-198,81.999973)"
       id="path4255" />
  </g>
  <g
     transform="translate(0,-104)"
     id="fcitx-chttrans-inactive">
    <rect
       y="170"
       x="-2.4709701e-09"
       height="22"
       width="22"
       id="rect4264"
       style="fill:none;fill-opacity:1;stroke:none" />
    <path
       class="ColorScheme-Text"
       style="fill:#d1d5e9;fill-opacity:1;stroke:none"
       d="m 138.81055,113.40625 c -0.50782,1.36719 -1.34766,2.59765 -2.51953,3.69141 l 0.99609,0.76172 c 0.19531,-0.0391 0.74219,-0.72266 1.64062,-2.05079 h 0.76172 c 0.42969,0.625 0.80078,1.26953 1.11328,1.9336 l 1.17188,-0.64453 -0.9375,-1.28907 h 2.05078 v -1.11328 h -3.63281 l 0.46875,-0.9375 z m 6.03515,0 c -0.46875,1.32813 -1.26953,2.53907 -2.40234,3.63281 l 0.99609,0.76172 c 0.66407,-0.625 1.17188,-1.28906 1.52344,-1.99219 h 0.99609 c 0.42969,0.58594 0.80079,1.21094 1.11329,1.875 l 1.05468,-0.64453 c -0.27343,-0.42968 -0.5664,-0.83984 -0.8789,-1.23047 h 2.46093 v -1.11328 h -4.16015 c 0.15625,-0.3125 0.29297,-0.625 0.41015,-0.9375 z m -5.44922,4.10156 -0.99609,0.58594 c 0.54688,0.54687 0.95703,1.09375 1.23047,1.64063 l 1.11328,-0.58594 c -0.35156,-0.58594 -0.80078,-1.13281 -1.34766,-1.64063 z m 1.99219,0.52735 v 0.99609 h 6.38672 v 6.03516 c 0,0.54687 -0.13672,0.82031 -0.41016,0.82031 -0.39062,0 -0.89843,-0.0195 -1.52343,-0.0586 l 0.29297,1.11329 c 0.54687,0.0391 1.01562,0.0586 1.40625,0.0586 0.46875,0 0.82031,-0.13672 1.05468,-0.41016 0.23438,-0.27343 0.35157,-0.66406 0.35157,-1.17187 v -7.38281 h -7.5586 z m -3.98437,1.58203 V 127 h 1.17187 v -7.38281 z m 2.87109,0.64453 v 5.03906 h 5.39063 v -5.03906 z m 1.11328,0.99609 h 3.16406 v 0.9961 h -3.16406 z m 0,1.9336 h 3.16406 v 1.11328 h -3.16406 z M 135,128 v 1 h 16 v -1 z"
       transform="translate(-132,59.999974)"
       id="path4368" />
  </g>
  <g
     id="fcitx-chttrans-active"
     transform="translate(22,-104)">
    <rect
       style="fill:none;fill-opacity:1;stroke:none"
       id="rect4343"
       width="22"
       height="22"
       x="-2.4709701e-09"
       y="170" />
    <path
       class="ColorScheme-Text"
       style="fill:#d1d5e9;fill-opacity:1;stroke:none"
       d="m 160.01953,113.46484 c -0.3125,0.70313 -0.89844,1.38672 -1.75781,2.05078 l 0.82031,0.64454 c 0.39063,-0.27344 0.76172,-0.64453 1.11328,-1.11328 h 5.44922 v -0.87891 h -4.86328 c 0.0391,-0.11719 0.0977,-0.2539 0.17578,-0.41016 z m 7.14844,0 c -0.39063,1.25 -1.01563,2.36328 -1.875,3.33985 l 0.70312,0.76172 0.58594,-0.70313 c 0.35156,0.58594 0.76172,1.09375 1.23047,1.52344 -0.625,0.50781 -1.36719,0.95704 -2.22656,1.34766 l 0.82031,0.8789 c 0.85938,-0.46875 1.60156,-0.95703 2.22656,-1.46484 0.70313,0.54687 1.48438,1.03515 2.34375,1.46484 l 0.76172,-0.9375 c -0.9375,-0.39063 -1.73828,-0.82031 -2.40234,-1.28906 0.66406,-0.74219 1.13281,-1.58203 1.40625,-2.51953 h 0.82031 v -0.9961 h -3.86719 l 0.46875,-1.11328 z m -7.26563,2.28516 -0.35156,1.69922 h -1.17187 v 0.9375 h 0.99609 l -0.35156,1.75781 h 4.39453 v 0.35156 h 0.99609 l 0.0586,-0.35156 H 165 v -0.87891 h -0.46875 l 0.11719,-0.8789 h 0.9375 v -0.9375 h -0.82032 L 165,115.75 Z m 7.32422,0.11719 h 2.40235 c -0.19532,0.66406 -0.54688,1.28906 -1.05469,1.875 -0.50781,-0.50782 -0.97656,-1.09375 -1.40625,-1.75781 0.0391,-0.0391 0.0586,-0.0781 0.0586,-0.11719 z m -6.44531,0.70312 h 0.76172 c 0.19531,0.23438 0.39062,0.52734 0.58594,0.87891 h -1.52344 z m 1.69922,0 h 1.46484 l -0.11719,0.87891 h -0.76171 z m -1.99219,1.81641 H 161.25 c 0.19531,0.23437 0.41016,0.52735 0.64453,0.8789 h -1.58203 z m 1.75781,0 h 1.46485 l -0.17578,0.8789 h -0.76172 c -0.15625,-0.3125 -0.33203,-0.60547 -0.52735,-0.8789 z m 5.6836,1.93359 c -1.25,0.74219 -2.10938,1.15234 -2.57813,1.23047 -0.70312,0.11719 -1.95312,0.19531 -3.75,0.23438 0.625,-0.19532 1.25,-0.48828 1.875,-0.87891 l -0.76172,-0.52734 c -0.78125,0.54687 -1.75781,0.97656 -2.92968,1.28906 l 0.11718,0.82031 c 1.17188,0 2.36328,-0.0391 3.57422,-0.11719 -1.25,0.46876 -2.77344,0.87891 -4.57031,1.23047 l 0.17578,0.9375 c 1.75781,0 3.53516,-0.0586 5.33203,-0.17578 v 1.23047 c 0,0.3125 -0.11718,0.46875 -0.35156,0.46875 -0.42969,0 -0.85937,-0.0586 -1.28906,-0.17578 l 0.17578,1.05469 c 0.35156,0.0781 0.72265,0.11718 1.11328,0.11718 0.625,0 1.03516,-0.0977 1.23047,-0.29297 0.19531,-0.1953 0.29297,-0.52734 0.29297,-0.99609 v -1.52344 c 1.32812,-0.11718 2.65625,-0.27343 3.98437,-0.46875 0.3125,0.3125 0.58594,0.64453 0.82031,0.9961 l 1.11329,-0.52735 c -0.78125,-0.9375 -1.71875,-1.79687 -2.8125,-2.57812 l -1.05469,0.46875 c 0.42969,0.27343 0.82031,0.58593 1.17187,0.9375 -1.5625,0.3125 -3.96484,0.52734 -7.20703,0.64453 2.61719,-0.58594 5.03906,-1.50391 7.26563,-2.75391 z m -0.87891,4.27735 -0.46875,0.9375 c 1.28906,0.3125 2.57813,0.74219 3.86719,1.28906 l 0.46875,-0.9961 c -1.21094,-0.46874 -2.5,-0.8789 -3.86719,-1.23046 z m -4.6875,0.11718 c -1.13281,0.46876 -2.38281,0.83985 -3.75,1.11328 l 0.70313,0.9961 c 1.48437,-0.39063 2.7539,-0.89844 3.80859,-1.52344 z M 157,128 v 1 h 16 v -1 z"
       transform="translate(-154,59.999974)"
       id="path4357" />
  </g>
  <g
     id="fcitx-handwriting-active"
     transform="translate(-131.99998,-60.600023)">
    <path
       class="ColorScheme-Text"
       style="fill:#d1d5e9;fill-opacity:1;stroke:none"
       d="m 213.13672,112.56836 -3.27149,12.20703 1.07032,3.73828 2.79492,-2.70312 3.26953,-12.20703 -0.48242,-0.13086 z m 0.70703,1.22266 1.93164,0.51757 -0.25977,0.96875 -1.93164,-0.51953 z m -0.51758,1.93359 1.93164,0.51758 -2.42187,9.04297 -1.39649,1.35156 -0.53515,-1.86914 z m -11.0039,3.72656 c -0.19319,0.004 -0.40565,0.0236 -0.64454,0.0566 a 0.50078273,0.50078273 0 1 0 0.13672,0.99219 c 0.41874,-0.0578 0.71009,-0.056 0.8711,-0.0293 0.161,0.0267 0.16413,0.0574 0.15234,0.041 -0.0118,-0.0164 0.006,-0.009 -0.006,0.0918 -0.0114,0.10109 -0.0582,0.26431 -0.125,0.45117 -0.13364,0.37372 -0.35128,0.82336 -0.41015,1.32617 -0.0294,0.25141 -0.0149,0.53952 0.13281,0.80664 0.14773,0.26712 0.41956,0.46728 0.73828,0.57422 0.15253,0.0511 0.21329,0.0406 0.30859,0.0449 0.0953,0.004 0.20075,0.006 0.31641,0.006 0.23131,7e-5 0.50355,-0.003 0.75781,0.004 0.032,8.8e-4 0.0467,0.006 0.0781,0.008 -0.0907,0.0554 -0.14559,0.0982 -0.25196,0.1582 -0.53281,0.30067 -1.21797,0.64435 -1.78125,1.02149 -0.28163,0.18856 -0.53612,0.38276 -0.73632,0.62109 -0.20021,0.23833 -0.36943,0.5761 -0.28711,0.94922 0.0823,0.37312 0.37008,0.63181 0.73046,0.82617 0.36039,0.19436 0.83345,0.35158 1.48047,0.49805 1.05119,0.23796 2.36032,0.16845 3.54297,0.2207 1.18266,0.0523 2.16839,0.26022 2.55274,0.70313 a 0.50005,0.50005 0 1 0 0.7539,-0.65625 c -0.75608,-0.87128 -2.01587,-0.99183 -3.26172,-1.04688 -1.24584,-0.0551 -2.54984,-0.0103 -3.36718,-0.19531 -0.59572,-0.13486 -0.99936,-0.27981 -1.22657,-0.40235 -0.22721,-0.12254 -0.23579,-0.19509 -0.22851,-0.1621 0.007,0.033 -0.0185,0.0229 0.0762,-0.0898 0.0947,-0.11274 0.28674,-0.2725 0.52734,-0.43359 0.48121,-0.32219 1.15138,-0.66336 1.7168,-0.98242 0.28271,-0.15954 0.5384,-0.31224 0.75195,-0.47852 0.21356,-0.16628 0.46591,-0.33012 0.47657,-0.75195 0.006,-0.24594 -0.16427,-0.47043 -0.30469,-0.56446 -0.14042,-0.094 -0.26745,-0.13056 -0.39649,-0.16015 -0.25808,-0.0592 -0.53621,-0.0742 -0.81836,-0.082 -0.28212,-0.008 -0.56257,-0.004 -0.7832,-0.004 -0.11031,-3e-5 -0.20637,-8.4e-4 -0.27148,-0.004 -0.0275,-0.001 -0.0496,-0.005 -0.0645,-0.008 0.012,0.005 0.0131,0.007 0.0274,0.0117 -0.0504,-0.0169 -0.0476,-0.0156 -0.0274,-0.0117 -0.11428,-0.0431 -0.14247,-0.0763 -0.15429,-0.0977 -0.0131,-0.0236 -0.0302,-0.0805 -0.0156,-0.20507 0.0292,-0.24917 0.2055,-0.67516 0.35938,-1.10547 0.0769,-0.21516 0.14852,-0.43604 0.17578,-0.67774 0.0273,-0.2417 0.006,-0.53533 -0.17578,-0.78711 -0.18155,-0.25177 -0.47836,-0.39019 -0.79883,-0.44335 -0.16024,-0.0266 -0.33415,-0.0375 -0.52734,-0.0332 z"
       id="path4530" />
    <rect
       y="110.00002"
       x="198"
       height="22"
       width="22"
       id="rect4532"
       style="fill:none;fill-opacity:1;stroke:none;stroke-linecap:round;stroke-linejoin:miter" />
    <rect
       style="fill:none;fill-opacity:1;stroke:none;stroke-linecap:round;stroke-linejoin:miter"
       id="rect4545"
       width="22"
       height="22"
       x="198"
       y="110.00002" />
    <ellipse
       style="fill:#a6da95;fill-opacity:1;stroke:none;stroke-linecap:round;stroke-linejoin:miter"
       id="path4601"
       cx="202.5"
       cy="114.50002"
       rx="2.5"
       ry="2.5000026" />
  </g>
  <g
     id="fcitx-handwriting-inactive"
     transform="translate(-109.99999,-60.600023)">
    <path
       class="ColorScheme-Text"
       style="fill:#d1d5e9;fill-opacity:1;stroke:none"
       d="m 235.13672,112.56836 -3.27149,12.20703 1.07032,3.73828 2.79492,-2.70312 3.26953,-12.20703 -0.48242,-0.13086 z m 0.70703,1.22266 1.93164,0.51757 -0.25977,0.96875 -1.93164,-0.51953 z m -0.51758,1.93359 1.93164,0.51758 -2.42187,9.04297 -1.39649,1.35156 -0.53515,-1.86914 z m -11.0039,3.72656 c -0.19319,0.004 -0.40565,0.0236 -0.64454,0.0566 a 0.50078273,0.50078273 0 0 0 0.11524,0.99414 0.50078273,0.50078273 0 0 0 0.0215,-0.002 c 0.41874,-0.0578 0.71009,-0.056 0.8711,-0.0293 0.161,0.0267 0.16413,0.0574 0.15234,0.041 -0.0118,-0.0164 0.006,-0.009 -0.006,0.0918 -0.0114,0.10109 -0.0582,0.26431 -0.125,0.45117 -0.13364,0.37372 -0.35128,0.82336 -0.41015,1.32617 -0.0294,0.25141 -0.0149,0.53952 0.13281,0.80664 0.14773,0.26712 0.41956,0.46728 0.73828,0.57422 0.15253,0.0511 0.21329,0.0406 0.30859,0.0449 0.0953,0.004 0.20075,0.006 0.31641,0.006 0.23131,7e-5 0.50355,-0.003 0.75781,0.004 0.032,8.8e-4 0.0467,0.006 0.0781,0.008 -0.0907,0.0554 -0.14559,0.0982 -0.25196,0.1582 -0.53281,0.30067 -1.21797,0.64435 -1.78125,1.02149 -0.28163,0.18856 -0.53612,0.38276 -0.73632,0.62109 -0.20021,0.23833 -0.36943,0.5761 -0.28711,0.94922 0.0823,0.37312 0.37008,0.63181 0.73046,0.82617 0.36039,0.19436 0.83345,0.35158 1.48047,0.49805 1.05119,0.23796 2.36032,0.16845 3.54297,0.2207 1.18266,0.0523 2.16839,0.26022 2.55274,0.70313 a 0.50005,0.50005 0 1 0 0.7539,-0.65625 c -0.75608,-0.87128 -2.01587,-0.99183 -3.26172,-1.04688 -1.24584,-0.0551 -2.54984,-0.0103 -3.36718,-0.19531 -0.59572,-0.13486 -0.99936,-0.27981 -1.22657,-0.40235 -0.22721,-0.12254 -0.23579,-0.19509 -0.22851,-0.1621 0.007,0.033 -0.0185,0.0229 0.0762,-0.0898 0.0947,-0.11274 0.28674,-0.2725 0.52734,-0.43359 0.48121,-0.32219 1.15138,-0.66336 1.7168,-0.98242 0.28271,-0.15954 0.5384,-0.31224 0.75195,-0.47852 0.21356,-0.16628 0.46591,-0.33012 0.47657,-0.75195 0.006,-0.24594 -0.16427,-0.47043 -0.30469,-0.56446 -0.14042,-0.094 -0.26745,-0.13056 -0.39649,-0.16015 -0.25808,-0.0592 -0.53621,-0.0742 -0.81836,-0.082 -0.28212,-0.008 -0.56257,-0.004 -0.7832,-0.004 -0.11031,-3e-5 -0.20637,-8.4e-4 -0.27148,-0.004 -0.0275,-0.001 -0.0496,-0.005 -0.0645,-0.008 0.012,0.005 0.0131,0.007 0.0274,0.0117 -0.0504,-0.0169 -0.0476,-0.0156 -0.0274,-0.0117 -0.11428,-0.0431 -0.14247,-0.0763 -0.15429,-0.0977 -0.0131,-0.0236 -0.0302,-0.0805 -0.0156,-0.20507 0.0292,-0.24917 0.2055,-0.67516 0.35938,-1.10547 0.0769,-0.21516 0.14852,-0.43604 0.17578,-0.67774 0.0273,-0.2417 0.006,-0.53533 -0.17578,-0.78711 -0.18155,-0.25177 -0.47836,-0.39019 -0.79883,-0.44335 -0.16024,-0.0266 -0.33415,-0.0375 -0.52734,-0.0332 z"
       transform="translate(-22)"
       id="path4564" />
    <rect
       style="fill:none;fill-opacity:1;stroke:none;stroke-linecap:round;stroke-linejoin:miter"
       id="rect4570"
       width="22"
       height="22"
       x="198"
       y="110.00002" />
    <rect
       y="110.00002"
       x="198"
       height="22"
       width="22"
       id="rect4576"
       style="fill:none;fill-opacity:1;stroke:none;stroke-linecap:round;stroke-linejoin:miter" />
  </g>
  <g
     id="fcitx-vk-inactive"
     transform="translate(66)">
    <path
       id="path6-4-6"
       class="ColorScheme-Text"
       transform="translate(0,-1030.3622)"
       d="m 2,1038.3622 v 11 h 18 v -11 z m 1,1 h 7 1 8 v 1 H 3 Z m 0,2 h 16 v 7 H 15 7 3 Z m 1,1 v 1 h 2 v -1 z m 3,0 v 1 h 2 v -1 z m 3,0 v 1 h 2 v -1 z m 3,0 v 1 h 2 v -1 z m 3,0 v 1 h 2 v -1 z m -12,2 v 1 h 2 v -1 z m 3,0 v 1 h 2 v -1 z m 3,0 v 1 h 2 v -1 z m 3,0 v 1 h 2 v -1 z m 3,0 v 1 h 2 v -1 z m -12,2 v 1 h 2 v -1 z m 3,0 v 1 h 8 v -1 z m 9,0 v 1 h 2 v -1 z"
       style="fill:#d1d5e9;fill-opacity:1;stroke:none" />
    <rect
       y="0"
       x="0"
       height="22"
       width="22"
       id="rect4138-1"
       style="fill:none;fill-opacity:1;stroke:none;stroke-linejoin:bevel" />
  </g>
  <g
     id="fcitx-vk-active"
     transform="translate(44)">
    <path
       id="path6-6-3"
       class="ColorScheme-Text"
       transform="translate(0,-1030.3622)"
       d="m 2,1038.3622 v 11 h 18 v -11 z m 1,1 h 7 1 8 v 1 H 3 Z m 0,2 h 16 v 7 H 15 7 3 Z m 1,1 v 1 h 2 v -1 z m 3,0 v 1 h 2 v -1 z m 3,0 v 1 h 2 v -1 z m 3,0 v 1 h 2 v -1 z m 3,0 v 1 h 2 v -1 z m -12,2 v 1 h 2 v -1 z m 3,0 v 1 h 2 v -1 z m 3,0 v 1 h 2 v -1 z m 3,0 v 1 h 2 v -1 z m 3,0 v 1 h 2 v -1 z m -12,2 v 1 h 2 v -1 z m 3,0 v 1 h 8 v -1 z m 9,0 v 1 h 2 v -1 z"
       style="fill:#d1d5e9;fill-opacity:1;stroke:none" />
    <path
       id="path8"
       d="m 4.5,2.0000008 a 2.4999997,2.4999855 0 0 0 -2.5,2.5 2.4999997,2.4999855 0 0 0 2.5,2.5 2.4999997,2.4999855 0 0 0 2.5,-2.5 2.4999997,2.4999855 0 0 0 -2.5,-2.5 z"
       class="ColorScheme-PositiveText"
       style="fill:#a6da95;fill-opacity:1;stroke:none" />
    <rect
       y="0"
       x="0"
       height="22"
       width="22"
       id="rect4140"
       style="fill:none;fill-opacity:1;stroke:none;stroke-linejoin:bevel" />
  </g>
  <g
     id="fcitx-kbd"
     transform="translate(22)">
    <rect
       style="fill:none;fill-rule:evenodd;stroke:none;stroke-width:1px;stroke-linecap:butt;stroke-linejoin:miter;stroke-opacity:1"
       id="rect4209"
       width="22"
       height="22"
       x="0"
       y="0" />
    <path
       style="fill:#d1d5e9;fill-opacity:1;stroke:none"
       d="m 13,1033.3622 v 1 1 c 0,0.554 -0.446,1 -1,1 -1.108,0 -2,0.892 -2,2 H 2 v 11 h 18 v -11 h -9 c 0,-0.554 0.446,-1 1,-1 1.108,0 2,-0.892 2,-2 v -1 -1 z m -10,6 h 7 1 8 v 1 H 3 Z m 0,2 h 16 v 7 H 15 7 3 Z m 1,1 v 1 h 2 v -1 z m 3,0 v 1 h 2 v -1 z m 3,0 v 1 h 2 v -1 z m 3,0 v 1 h 2 v -1 z m 3,0 v 1 h 2 v -1 z m -12,2 v 1 h 2 v -1 z m 3,0 v 1 h 2 v -1 z m 3,0 v 1 h 2 v -1 z m 3,0 v 1 h 2 v -1 z m 3,0 v 1 h 2 v -1 z m -12,2 v 1 h 2 v -1 z m 3,0 v 1 h 8 v -1 z m 9,0 v 1 h 2 v -1 z"
       transform="translate(0,-1030.3622)"
       class="ColorScheme-Text"
       id="path4211" />
  </g>
  <g
     id="fcitx-remind-active"
     transform="translate(66.127025,23.499998)">
    <rect
       y="-4.8242191e-07"
       x="0"
       height="22"
       width="22"
       id="rect4473"
       style="fill:none;fill-opacity:1;stroke:none;stroke-linejoin:miter" />
    <path
       inkscape:connector-curvature="0"
       id="path9068-9-37-8-0-1-0-1-3-7-4-6-1"
       d="m 17.847402,4.3600211 -13.6948023,2.6e-6 V 16.192826 H 17.982998 Z"
       style="display:inline;overflow:visible;visibility:visible;fill:url(#linearGradient6958);fill-opacity:1;fill-rule:nonzero;stroke:none;stroke-width:0.447754;marker:none"
       sodipodi:nodetypes="cccccc" />
    <path
       d="M 15.64241,3 H 6.357392 C 5.4672717,3.0012 4.613824,3.3550514 3.984496,3.9845191 3.3550157,4.6138579 3.001008,5.4672498 3,6.3573798 v 9.2853732 -1.26e-4 c 6.88e-4,0.890091 0.3550157,1.743522 0.984496,2.372853 0.629328,0.62947 1.4827757,0.983478 2.372896,0.984521 h 9.285368 -1.58e-4 c 0.890115,-0.0012 1.743555,-0.355051 2.372879,-0.98452 0.629499,-0.629332 0.983497,-1.482763 0.984509,-2.372854 V 6.3575579 C 18.99839,5.4674485 18.64498,4.6140361 18.015481,3.9846941 17.386157,3.3552274 16.532717,3.001207 15.642602,3.00018 Z M 6.6936,4.6000211 h 8.6128 c 0.5914,8.468e-4 1.149032,-0.09107 1.5672,0.3271999 0.418157,0.418144 0.525677,0.8147257 0.5264,1.4061218 V 15.800026 H 4.6 V 6.3333428 C 4.6006797,5.7419467 4.708256,5.3453938 5.1264,4.927221 5.544544,4.5090781 6.102224,4.600748 6.6936,4.6000211 Z"
       id="path1193-3-8"
       style="fill:#d3dae3;fill-opacity:1;stroke-width:0.0317469"
       sodipodi:nodetypes="ccccccccccccccccccccccccc" />
    <path
       d="M 11.015733,5.3999998 C 8.9032601,5.3999998 7,7.2103796 7,9.46734 c 0,1.363629 0.82461,2.609703 1.8808717,3.361964 0.089822,0.07059 0.1671293,0.164674 0.1671293,0.282097 V 13.91072 C 9.048001,14.286942 9.3051117,15 9.6421647,15 h 2.6516723 c 0.359593,0 0.594164,-0.736676 0.594164,-1.08928 v -0.822642 c 0,-0.117569 0.08291,-0.211546 0.172818,-0.282064 1.033818,-0.728793 1.87518,-1.9514 1.87518,-3.3619773 0.08998,-2.280721 -1.807762,-4.0440369 -3.920241,-4.0440369 z m 2.9e-5,0 v 0 0 h -2.9e-5 v 0 z m 0,0 v 0 0 h -2.9e-5 v 0 0 z"
       id="path2971-4-3-2-1"
       sodipodi:nodetypes="sscssssccccssccccccccccccc"
       style="fill:#d3dae3;fill-opacity:1;stroke-width:0.041047" />
    <circle
       cx="10.967981"
       cy="9.3039942"
       id="circle2-3-2-0-2-3-0"
       style="fill:#088699;fill-opacity:1;stroke-width:0.0976966"
       r="1.2018309" />
    <path
       d="M 10.489222,7.9946798 10.645549,7.936024 10.450132,7.3888485 c -0.01953,-0.0488 -0.0684,-0.068381 -0.107479,-0.0488 -0.03908,0.01954 -0.06841,0.068409 -0.04878,0.1074825 z"
       id="path4-5-0-3-9-7-6"
       style="fill:#088699;fill-opacity:1;stroke-width:0.0976966" />
    <path
       d="m 11.007088,6.8319437 c 0,-0.04883 -0.03915,-0.087944 -0.08794,-0.087944 -0.04882,0 -0.07815,0.03906 -0.07815,0.087944 v 1.084576 h 0.175873 v -1.084576 z"
       id="path6-6-2-6-1-5-3"
       style="fill:#088699;fill-opacity:1;stroke-width:0.0976966" />
    <path
       d="m 10.919144,11.776061 c 0,0.04883 0.03913,0.08794 0.08794,0.08794 0.04877,0 0.08794,-0.0391 0.08794,-0.08794 V 10.69148 h -0.175887 z"
       id="path8-2-3-1-2-9-2"
       style="fill:#088699;fill-opacity:1;stroke-width:0.0976966" />
    <path
       d="m 11.446782,10.593768 -0.156329,0.05867 0.205174,0.547166 c 0.01958,0.04885 0.06835,0.0684 0.10749,0.04885 0.04883,-0.01956 0.06835,-0.06841 0.04883,-0.107485 z"
       id="path10-9-7-0-7-2-0"
       style="fill:#088699;fill-opacity:1;stroke-width:0.0976966" />
    <path
       d="M 9.8931917,8.4148397 10.00067,8.2878227 9.560973,7.9067475 c -0.03903,-0.02929 -0.087933,-0.02929 -0.117247,0.00978 -0.02925,0.03906 -0.02925,0.087933 0.00978,0.1172563 z"
       id="path12-1-5-6-0-2-6"
       style="fill:#088699;fill-opacity:1;stroke-width:0.0976966" />
    <path
       d="M 10.166773,8.1705693 10.313346,8.082626 9.766172,7.1348407 c -0.01952,-0.03906 -0.078184,-0.058691 -0.1172523,-0.02928 -0.03902,0.019539 -0.05872,0.078172 -0.02925,0.1172492 z"
       id="path14-3-2-9-3-9-8-1"
       style="fill:#088699;fill-opacity:1;stroke-width:0.0976966" />
    <path
       d="m 11.769219,10.437433 -0.146581,0.08794 0.547199,0.938021 c 0.0196,0.03913 0.0781,0.05859 0.117246,0.02931 0.03904,-0.01955 0.05859,-0.07815 0.02935,-0.117252 z"
       id="path16-7-2-2-3-9-5"
       style="fill:#088699;fill-opacity:1;stroke-width:0.0976966" />
    <path
       d="m 12.023277,10.183389 -0.107499,0.12702 0.449467,0.381071 c 0.03912,0.02929 0.08794,0.02929 0.117254,-0.0099 0.0293,-0.03902 0.0293,-0.08794 -0.0099,-0.117257 z"
       id="path18-0-2-0-6-7-5"
       style="fill:#088699;fill-opacity:1;stroke-width:0.0976966" />
    <path
       d="m 9.04312,8.7959066 c -0.0488,-0.00979 -0.087941,0.01954 -0.097722,0.068404 -0.00978,0.04879 0.01954,0.087939 0.068413,0.097711 l 0.5764848,0.097714 0.029243,-0.1661043 z"
       id="path20-9-8-6-0-3-4"
       style="fill:#088699;fill-opacity:1;stroke-width:0.0976966" />
    <path
       d="M 8.7597517,8.1803278 9.697768,8.7275036 9.7857057,8.5809436 8.8476939,8.0337747 c -0.039059,-0.019539 -0.097716,-0.0098 -0.117247,0.02929 -0.02929,0.03906 -0.00979,0.087941 0.02927,0.117249 z"
       id="path22-3-9-1-6-6-7"
       style="fill:#088699;fill-opacity:1;stroke-width:0.0976966" />
    <path
       d="m 13.176237,10.427665 -0.938016,-0.5471773 -0.08792,0.1465653 0.938002,0.547178 c 0.03911,0.01952 0.09771,0.0099 0.117256,-0.02926 0.01956,-0.03902 0.01,-0.09771 -0.02932,-0.117254 z"
       id="path24-6-7-5-2-1-6"
       style="fill:#088699;fill-opacity:1;stroke-width:0.0976966" />
    <path
       d="m 12.873353,9.8023133 c 0.04875,0.00976 0.08792,-0.01951 0.0977,-0.068423 0.0099,-0.0488 -0.01959,-0.087943 -0.06839,-0.097716 l -0.576502,-0.097714 -0.02928,0.166111 z"
       id="path26-0-3-5-6-2-5"
       style="fill:#088699;fill-opacity:1;stroke-width:0.0976966" />
    <path
       d="m 8.994256,9.9293393 c 0.01954,0.0488 0.06841,0.068423 0.107489,0.0488 L 9.6489197,9.772952 9.5901997,9.616621 9.0430226,9.8218023 c -0.03906,0.01951 -0.058629,0.068432 -0.0488,0.107487 z"
       id="path28-6-6-4-1-9-6"
       style="fill:#088699;fill-opacity:1;stroke-width:0.0976966" />
    <path
       d="M 9.5805213,9.2551437 H 8.4959437 c -0.048852,0 -0.087944,0.03906 -0.087944,0.087933 0,0.04877 0.03906,0.087943 0.087944,0.087943 h 1.0845776 z"
       id="path30-2-1-7-8-3-9"
       style="fill:#088699;fill-opacity:1;stroke-width:0.0976966" />
    <path
       d="M 13.440062,9.1769756 H 12.355478 V 9.352849 h 1.084584 c 0.04883,0 0.08793,-0.03905 0.08793,-0.087933 0,-0.0488 -0.03921,-0.08794 -0.08793,-0.08794 z"
       id="path32-6-2-6-7-1-3"
       style="fill:#088699;fill-opacity:1;stroke-width:0.0976966" />
    <path
       d="m 12.922193,8.678652 c -0.01958,-0.0488 -0.06838,-0.068405 -0.107473,-0.0488 l -0.54717,0.2051876 0.05858,0.156339 0.547179,-0.2051934 c 0.03909,-0.01954 0.05858,-0.068406 0.04883,-0.1074771 z"
       id="path34-1-9-5-9-9-7"
       style="fill:#088699;fill-opacity:1;stroke-width:0.0976966" />
    <path
       d="M 10.069075,10.369034 9.94205,10.261561 9.560973,10.711026 c -0.02925,0.03902 -0.02925,0.08793 0.00977,0.11725 0.03902,0.02926 0.087933,0.02926 0.1172533,-0.0099 z"
       id="path36-8-3-6-2-4-4"
       style="fill:#088699;fill-opacity:1;stroke-width:0.0976966" />
    <path
       d="m 9.746622,9.958659 -0.938016,0.547168 c -0.03906,0.01952 -0.058595,0.07818 -0.02927,0.117254 0.02927,0.03902 0.078152,0.0587 0.1172499,0.02927 L 9.8346013,10.10515 Z"
       id="path38-7-1-9-0-7-5"
       style="fill:#088699;fill-opacity:1;stroke-width:0.0976966" />
    <path
       d="M 12.189363,8.6493476 13.1274,8.1021677 c 0.03908,-0.01954 0.05854,-0.078157 0.0293,-0.117248 -0.0293,-0.03906 -0.07812,-0.058637 -0.11725,-0.0293 l -0.938023,0.5471737 z"
       id="path40-9-9-3-2-8-2"
       style="fill:#088699;fill-opacity:1;stroke-width:0.0976966" />
    <path
       d="m 11.8474,8.2389597 0.127011,0.107488 0.381067,-0.449469 c 0.02933,-0.03906 0.02933,-0.087933 -0.0099,-0.1172574 -0.03908,-0.0293 -0.08792,-0.0293 -0.117258,0.00978 z"
       id="path42-2-4-7-3-4-5"
       style="fill:#088699;fill-opacity:1;stroke-width:0.0976966" />
    <path
       d="m 10.459908,11.219116 c -0.0099,0.04877 0.01956,0.08793 0.06839,0.09771 0.04878,0.0098 0.08794,-0.01956 0.09772,-0.06842 l 0.09771,-0.576504 -0.166106,-0.02924 z"
       id="path44-0-7-4-7-5-4"
       style="fill:#088699;fill-opacity:1;stroke-width:0.0976966" />
    <path
       d="m 9.688,11.424304 c -0.01952,0.03908 -0.00976,0.09771 0.02926,0.117247 0.03902,0.01955 0.097717,0.0098 0.1172567,-0.0293 L 10.381693,10.57429 10.235131,10.48635 Z"
       id="path46-2-8-5-5-0-7"
       style="fill:#088699;fill-opacity:1;stroke-width:0.0976966" />
    <path
       d="m 12.238221,7.1836987 c 0.01959,-0.03906 0.01,-0.097719 -0.0293,-0.1172573 -0.0391,-0.01954 -0.09771,-0.0098 -0.117242,0.02928 L 11.54451,8.03374 11.691072,8.121674 Z"
       id="path48-3-4-2-9-3-4"
       style="fill:#088699;fill-opacity:1;stroke-width:0.0976966" />
    <path
       d="m 11.466317,7.3986527 c 0.0098,-0.0488 -0.01959,-0.087932 -0.06839,-0.09771 -0.04875,-0.00978 -0.08792,0.01954 -0.09771,0.068407 l -0.09772,0.5764887 0.166112,0.0293 z"
       id="path50-7-5-5-2-6-4"
       style="fill:#088699;fill-opacity:1;stroke-width:0.0976966" />
  </g>
  <g
     id="fcitx-remind-inactive"
     transform="translate(88.127025,23.500027)">
    <rect
       style="fill:none;fill-opacity:1;stroke:none;stroke-linejoin:miter"
       id="rect4483"
       width="22"
       height="22"
       x="0"
       y="-4.8242191e-07" />
    <path
       inkscape:connector-curvature="0"
       id="path9068-9-37-8-0-1-0-1-3-7-4-6-1-7"
       d="M 17.847401,4.3600236 4.1526,4.3600274 V 16.192825 h 13.830394 z"
       style="display:inline;overflow:visible;visibility:visible;opacity:1;fill:url(#linearGradient3594);fill-opacity:1;fill-rule:nonzero;stroke:none;stroke-width:0.447758;marker:none"
       sodipodi:nodetypes="cccccc" />
    <path
       d="M 15.642409,3 H 6.3573918 C 5.467272,3.0013336 4.6138239,3.355052 3.9844959,3.9845214 3.355016,4.613853 3.001008,5.4672526 3,6.357375 v 9.285377 -1.25e-4 c 6.88e-4,0.890093 0.355016,1.743522 0.9844959,2.372851 C 4.6138239,18.644949 5.467272,18.99896 6.3573918,19 h 9.2853682 -1.58e-4 c 0.890118,-0.0012 1.743558,-0.355051 2.372878,-0.984521 0.629498,-0.62933 0.983495,-1.482759 0.984508,-2.372852 V 6.357556 C 18.998207,5.4674446 18.644977,4.614034 18.01548,3.9846964 17.38616,3.35523 16.53272,3.001202 15.642602,3.0001826 Z M 6.6935998,4.6000236 H 15.3064 c 0.5914,9.503e-4 1.149031,-0.091072 1.567198,0.3272 0.418162,0.4181364 0.525681,0.8147264 0.5264,1.4061234 v 9.466678 H 4.5999999 V 6.333347 C 4.60068,5.74195 4.7082559,5.345391 5.1263999,4.9272236 5.5445438,4.509076 6.1022238,4.6007454 6.6935998,4.6000236 Z"
       id="path1193-3-8-8"
       style="fill:#d3dae3;fill-opacity:1;stroke-width:0.0317469"
       sodipodi:nodetypes="ccccccccccccccccccccccccc" />
    <path
       d="m 11.015732,5.4 c -2.1124676,0 -4.0157322,1.8103774 -4.0157322,4.0673374 0,1.3636226 0.8246099,2.6097026 1.880876,3.3619656 0.089823,0.07059 0.1671256,0.164675 0.1671256,0.282098 v 0.799318 c 0,0.376223 0.2571106,1.08928 0.594159,1.08928 h 2.6516806 c 0.359589,0 0.59416,-0.736676 0.59416,-1.08928 V 13.08808 c 0,-0.117573 0.08291,-0.211548 0.172818,-0.282067 1.033822,-0.728793 1.87518,-1.951393 1.87518,-3.3619726 C 15.025999,7.163313 13.12824,5.4 11.015761,5.4 Z m 2.8e-5,0 v 0 0 h -2.8e-5 v 0 z m 0,0 v 0 0 h -2.8e-5 v 0 0 z"
       id="path2971-4-3-2-1-6"
       sodipodi:nodetypes="sscssssccccssccccccccccccc"
       style="fill:#d3dae3;fill-opacity:0.4;stroke-width:0.0410471" />
  </g>
  <g
     id="fcitx">
    <rect
       y="0"
       x="0"
       height="22"
       width="22"
       id="rect4204"
       style="fill:none;fill-opacity:1;stroke:none" />
    <path
       inkscape:connector-curvature="0"
       id="path9068-9-37-8-0-1-0-1-3-7-4-6-1-9"
       d="m 17.847404,4.3600202 -13.6947999,3e-6 V 16.192826 H 17.983006 Z"
       style="display:inline;overflow:visible;visibility:visible;fill:url(#linearGradient1);fill-opacity:1;fill-rule:nonzero;stroke:none;stroke-width:0.44775;marker:none"
       sodipodi:nodetypes="cccccc" />
    <path
       d="M 15.642415,3 H 6.3573968 C 5.4672761,3.0011559 4.6138288,3.3550521 3.9845009,3.9845182 3.3550202,4.6138579 3.0010129,5.4672499 3.0000049,6.3573798 v 9.2853712 -1.29e-4 c 6.879e-4,0.890091 0.3550152,1.743522 0.984496,2.372859 C 4.6138288,18.644949 5.4672761,18.998953 6.3573968,19 h 9.2853672 -1.6e-4 c 0.890114,-0.0012 1.743554,-0.355051 2.372883,-0.984519 0.629498,-0.629337 0.9835,-1.482768 0.984508,-2.372859 V 6.3575572 C 18.998395,5.4674486 18.644985,4.6140358 18.015487,3.9846933 17.386158,3.3552276 16.532718,3.0012063 15.642604,3.0001799 Z M 6.6936048,4.6000212 h 8.6128002 c 0.591399,8.471e-4 1.149028,-0.091069 1.5672,0.3271999 0.418153,0.4181442 0.525673,0.8147265 0.5264,1.4061217 V 15.800025 H 4.6000048 V 6.3333429 c 6.793e-4,-0.5913953 0.108256,-0.987949 0.5264,-1.4061217 0.418144,-0.418143 0.975824,-0.3264722 1.5672,-0.3272 z"
       id="path1193-3-8-7"
       style="fill:#d3dae3;fill-opacity:1;stroke-width:0.0317468"
       sodipodi:nodetypes="ccccccccccccccccccccccccc" />
    <path
       id="path106-4-1-4"
       d="M 10.126116,5.5110636 C 9.5536742,5.5002816 9.0037371,5.8384746 8.7916476,6.3897502 8.5384999,7.0477396 8.6105358,7.7608586 8.6211012,8.44771 c 0.00365,0.2223753 -0.056125,0.425347 -0.147091,0.6167113 -0.043511,0.049734 -0.086737,0.096861 -0.1281973,0.1362967 -0.449696,0.4968941 -1.567471,1.802744 -1.2114968,3.140754 -0.089681,0.03946 -0.1936044,0.04413 -0.307346,0.05731 -0.1340402,0.01557 -0.2834054,0.04972 -0.4016383,0.190447 -0.1056431,0.122358 -0.1215393,0.289806 -0.1337687,0.447522 -0.012233,0.157882 -0.02176,0.309187 -0.076755,0.402317 -0.1602145,0.249316 -0.2149825,0.433455 -0.1786372,0.583643 0.036437,0.15061 0.1622017,0.244562 0.3142618,0.3173 0.3041087,0.145473 0.743835,0.233185 1.0456732,0.503354 l 1.77e-4,1.78e-4 c 0.3207767,0.284018 0.6756524,0.442818 0.9866372,0.444988 0.2583446,0.0021 0.4863119,-0.114523 0.6167126,-0.34918 0.1158047,0.02076 0.2366047,0.01849 0.3591326,-0.01639 0.4130234,-0.117629 0.8480617,-0.123691 1.2703677,-0.03628 0.253072,0.05239 0.505634,0.03265 0.744917,-0.03995 0.101728,0.193277 0.275014,0.324081 0.484464,0.38038 0.302948,0.08141 0.678018,0.01529 1.037414,-0.20343 l 1.73e-4,-1.73e-4 h 3.35e-4 c 0.347636,-0.216203 0.794093,-0.197115 1.116359,-0.266523 0.161133,-0.0347 0.302261,-0.09882 0.36031,-0.24223 0.05803,-0.143355 0.03037,-0.33989 -0.09043,-0.634425 -0.04093,-0.101768 -0.02377,-0.253915 -0.0067,-0.414294 0.01716,-0.160249 0.0339,-0.331456 -0.04828,-0.474673 -0.09108,-0.163634 -0.232152,-0.227487 -0.361496,-0.270066 -0.129414,-0.04258 -0.247593,-0.07018 -0.334671,-0.154693 l -1.72e-4,-1.68e-4 c -0.09477,-0.09723 -0.188241,-0.229228 -0.306834,-0.333492 -0.0015,-0.0014 -0.0026,-0.0022 -0.0039,-0.0031 -0.0048,-0.183846 -0.03471,-0.372254 -0.08366,-0.560708 0.260407,-0.345589 0.524304,-0.733066 0.720625,-1.110962 6.13e-4,-8.7e-5 0.0017,-8e-5 0.0022,-1.73e-4 l 0.146927,-0.02076 -0.03864,-0.182685 0.02326,-0.01823 0.480416,-0.9038149 c 0.263036,0.01383 0.55025,-0.114242 0.718429,-0.4193533 0.362816,-0.6583157 0.784169,-1.2574001 0.784169,-1.2574001 -1.152779,0.1640371 -2.046666,0.1479714 -2.095745,1.0303315 -0.0053,0.1002465 0.0097,0.189847 0.03979,0.2687136 l -0.66445,0.7784833 -0.0061,0.02614 -0.20377,0.03241 0.06112,0.1438909 c -0.146598,0.172312 -0.288358,0.363761 -0.422051,0.561046 -0.03898,0.05753 -0.07717,0.11569 -0.114707,0.173917 0.03738,-0.05817 0.07561,-0.116223 0.114707,-0.173917 -0.03373,-0.05887 -0.06746,-0.11762 -0.102016,-0.174545 -0.1938,-0.396125 -0.446417,-0.7624049 -0.694048,-1.1256889 -0.298056,-0.437246 -0.35145,-0.9716262 -0.356267,-1.5043302 -0.01002,-1.1080243 -0.128047,-2.2571011 -1.40464,-2.2811307 z m 0.546883,1.3850793 c 0.100645,-0.00587 0.204403,0.04537 0.281862,0.1536703 0.07749,0.1083147 0.127816,0.3140834 0.128544,0.4314958 0.0014,0.1592573 -0.05629,0.3194357 -0.121118,0.4360553 -0.01706,0.03071 -0.03735,0.056097 -0.05853,0.079447 -0.0686,-0.040132 -0.125996,-0.073207 -0.160249,-0.092776 -0.02365,-0.01352 -0.02683,-0.015616 -0.03694,-0.021619 a 0.19952716,0.3627631 8.7269718 0 0 0.138672,-0.290139 0.19952716,0.3627631 8.7269718 0 0 -0.15974,-0.3851082 0.19952716,0.3627631 8.7269718 0 0 -0.236162,0.3345057 0.19952716,0.3627631 8.7269718 0 0 0.0015,0.1788063 c -0.03365,-0.014409 -0.06993,-0.026899 -0.10916,-0.035424 -0.01127,-0.00239 -0.02331,-0.00394 -0.03507,-0.00535 -0.01175,-0.049677 -0.02118,-0.1004649 -0.02412,-0.1526545 -0.0089,-0.1591051 0.02356,-0.261438 0.0884,-0.378194 0.06482,-0.1167499 0.201806,-0.246549 0.302454,-0.2525161 z m -1.3071512,0.098679 a 0.56857959,0.43198791 82.236562 0 1 0.017877,5.077e-4 0.56857959,0.43198791 82.236562 0 1 0.4402704,0.4927307 0.56864793,0.43203981 82.236562 0 1 -0.032561,0.3485066 c -0.023627,0.017367 -0.047229,0.035085 -0.07151,0.055869 v 1.7e-4 h -1.721e-4 c -0.047805,0.04126 -0.095342,0.065457 -0.1583947,0.097161 A 0.3379647,0.21259572 80.265788 0 0 9.6591899,7.6277677 0.3379647,0.21259572 80.265788 0 0 9.4242168,7.3389759 0.3379647,0.21259572 80.265788 0 0 9.2437208,7.7193662 0.3379647,0.21259572 80.265788 0 0 9.5352059,8.0029241 c -0.042961,0.02176 -0.091211,0.046783 -0.1555249,0.085183 -0.01459,0.00843 -0.0269,0.017653 -0.039811,0.026657 A 0.56864793,0.43203981 82.236562 0 1 8.9721319,7.6341812 0.56857959,0.43198791 82.236562 0 1 9.3658449,6.9948679 Z m 0.8449502,0.7378305 c 0.04186,-0.00121 0.08109,0.00359 0.11774,0.011263 0.146559,0.031769 0.252417,0.1234749 0.317467,0.1725628 0.0122,0.00925 0.02848,0.017637 0.06764,0.039957 0.03923,0.022347 0.09803,0.056029 0.182855,0.1057688 0.0759,0.044509 0.107388,0.1118729 0.09312,0.1966867 -0.01425,0.08482 -0.0794,0.1879624 -0.209167,0.286259 l -1.77e-4,1.73e-4 -3.34e-4,1.704e-4 c -0.07991,0.062718 -0.130229,0.14011 -0.191303,0.2046119 -0.06111,0.064498 -0.131041,0.1177989 -0.255562,0.1411899 -0.146318,0.027244 -0.260153,-0.00471 -0.3626808,-0.048267 C 9.8678638,8.79917 9.7785052,8.7413129 9.6819389,8.7222507 H 9.681767 9.6815977 C 9.483265,8.6853527 9.3322289,8.5798079 9.2750652,8.4673653 c -0.022107,-0.043537 -0.030427,-0.08736 -0.024107,-0.1305614 0.03567,0.00601 0.083651,0.025173 0.1398443,0.05362 0.06776,0.034357 0.1470979,0.080402 0.2339647,0.1260055 0.173739,0.091217 0.3779568,0.1814632 0.5866878,0.1708774 0.208533,-0.01058 0.368906,-0.1175339 0.483791,-0.2204721 0.05743,-0.051457 0.103828,-0.102144 0.139169,-0.1395016 0.01772,-0.01871 0.03271,-0.034009 0.04417,-0.044035 0.01152,-0.010013 0.02081,-0.01266 0.01704,-0.01249 l -0.0026,-0.045067 c -0.01925,0.00121 -0.03045,0.011273 -0.04436,0.023441 -0.0139,0.01215 -0.02935,0.02816 -0.04725,0.047084 -0.03578,0.037825 -0.08098,0.087282 -0.136459,0.136973 C 10.554252,8.5326322 10.403604,8.632386 10.209225,8.642239 10.015049,8.6521149 9.8172601,8.5665237 9.645649,8.4764233 9.5598448,8.4313387 9.4805916,8.3854997 9.4110087,8.3502463 9.3554614,8.3220954 9.306765,8.3008686 9.2629029,8.292913 9.2836579,8.239793 9.3291079,8.1866763 9.4101639,8.1399122 h 1.728e-4 l 1.716e-4,-1.711e-4 C 9.5852349,8.0354637 9.6647419,8.019439 9.7590129,7.9381639 9.9354556,7.7876799 10.085115,7.735693 10.210752,7.7325357 Z m 0.771396,0.6926196 c 0.02222,0.053057 0.04123,0.1099287 0.0536,0.1742549 0.115143,0.5983137 0.242355,0.9685192 0.821667,1.9557361 0.05986,0.150738 0.105142,0.258451 0.156367,0.383248 -0.03988,-0.297249 -0.157499,-0.56451 -0.239697,-0.723826 -0.354359,-0.7488149 -0.0016,-0.2869839 0.158059,0.04673 0.116299,0.217236 0.252493,0.590608 0.334667,1.008743 -0.351471,0.613645 -0.585392,1.13779 -0.58905,1.146043 -0.05111,0.083 -0.07972,0.165434 -0.07776,0.24797 0.0017,0.05257 0.01904,0.103655 0.04686,0.147427 -0.314925,0.232164 -0.329791,0.688047 0.0018,0.853213 -0.03333,0.04806 -0.06537,0.09353 -0.09783,0.142534 -0.04724,0.07132 -0.09201,0.143754 -0.131911,0.216595 -0.69586,0.49468 -1.8077069,0.557511 -2.6331844,-0.339905 -0.077885,-0.169103 -0.1484394,-0.32944 -0.1749819,-0.453254 l -1.732e-4,-5.1e-4 v -1.7e-4 c -0.059671,-0.294107 -0.1219546,-0.565379 -0.2136446,-0.784898 -0.015146,-0.03622 -0.031431,-0.07064 -0.048406,-0.104071 0.064278,-0.152211 0.096257,-0.312205 0.08434,-0.409231 -0.044188,-0.258582 -0.2344772,-0.311171 -0.6634409,-0.212717 -0.3643981,0.08788 -0.5851734,0.261577 -0.4939094,0.524446 -0.016401,0.01392 -0.032747,0.0262 -0.048931,0.03879 -0.120681,-0.308177 0.12865,-0.511418 0.547382,-0.614521 -0.061394,-0.569152 0.2716607,-1.14686 0.5882065,-1.522385 0.0092,0.01196 -0.013731,0.07981 -0.094972,0.245769 -0.1792679,0.307702 -0.3554837,0.809294 -0.2752942,1.235788 0.060443,-0.0082 0.1171865,-0.01434 0.1666594,-0.01451 0.028854,-0.309005 0.1050541,-0.600375 0.235637,-0.835159 0.2499511,-0.531224 0.8936194,-1.4282489 0.9120834,-2.1721555 0.08627,0.083484 0.2132057,0.1481432 0.364192,0.1762758 0.079797,0.01577 0.1682974,0.07087 0.276305,0.1170674 0.1080093,0.046196 0.2372883,0.08184 0.3975903,0.051962 0.13731,-0.025813 0.222247,-0.089502 0.288119,-0.1590681 0.06574,-0.06946 0.114414,-0.1430567 0.184538,-0.198207 l 3.55e-4,-3.375e-4 c 0.07151,-0.054245 0.126203,-0.1108905 0.164975,-0.1676676 z m 3.102627,0.8623211 c 0.03409,0.02836 0.07157,0.05247 0.111332,0.07287 l -0.422047,0.7941669 -0.09919,0.07793 c -0.03332,-0.01672 -0.06665,-0.03151 -0.100377,-0.05719 -0.04434,-0.03373 -0.05688,-0.06328 -0.09145,-0.101718 L 13.509059,9.96232 14.084782,9.2875841 Z M 13.27209,10.277266 c 0.04114,0.04153 0.08543,0.0816 0.134443,0.118928 0.05099,0.03885 0.105191,0.07567 0.162449,0.104919 -0.538711,0.991351 -1.57741,2.102447 -1.586317,2.111935 -0.0632,0.05541 -0.103989,0.04453 -0.105259,0.04576 0,-0.0014 2.01e-4,4.6e-5 1.7e-4,-0.0016 -3.14e-4,-0.01299 0.0058,-0.05002 0.04119,-0.104583 l 0.0055,-0.0089 0.0047,-0.0098 c 0,0 0.63356,-1.391573 1.343245,-2.257173 z m -0.258087,1.552246 c -0.04838,0.06205 -0.09556,0.121527 -0.142366,0.179647 0.04672,-0.05794 0.09416,-0.11776 0.142366,-0.179647 z m -5.6872184,0.523764 c 0.1454923,0.257649 0.4598463,0.47171 0.7103321,0.363686 0.097036,-0.04071 0.1802249,-0.132535 0.2451001,-0.242063 0.00233,0.0048 0.0049,0.01 0.00693,0.0152 0.085731,0.205266 0.147721,0.471333 0.2069769,0.763804 l 1.771e-4,3.37e-4 v 1.72e-4 c 0.048393,0.226608 0.1992293,0.502229 0.3184763,0.775117 0.1192471,0.272879 0.2007315,0.538522 0.1411903,0.7164 l -1.771e-4,0.0011 -1.697e-4,0.0011 C 8.8626544,15.048035 8.6548036,15.17436 8.3836059,15.172475 8.1125061,15.170551 7.7785528,15.026653 7.4738885,14.757004 7.1402478,14.458376 6.6802042,14.369052 6.4008849,14.235443 6.2612252,14.168629 6.1743322,14.097637 6.1497159,13.995907 6.1250941,13.894172 6.160606,13.73923 6.3140156,13.50098 l 9.504e-4,-0.0014 5.074e-4,-0.0014 c 0.07776,-0.131714 0.080771,-0.297655 0.092776,-0.452578 0.01201,-0.154931 0.032206,-0.295611 0.1057683,-0.380558 l 3.337e-4,-3.39e-4 3.391e-4,-3.34e-4 c 0.094222,-0.112311 0.1998759,-0.135102 0.3260695,-0.149778 0.1261964,-0.0147 0.2706713,-0.01516 0.403328,-0.09919 l 9.509e-4,-5.08e-4 9.504e-4,-3.35e-4 c 0.028087,-0.01888 0.055103,-0.03989 0.081643,-0.06141 z m 5.8920064,0.03696 c 0.07685,0.08149 0.149917,0.176709 0.230252,0.258933 l 5.12e-4,5.13e-4 0.0011,5.09e-4 c 0.114892,0.111638 0.257475,0.141818 0.379543,0.18201 0.122069,0.04025 0.223068,0.08419 0.29638,0.216252 l 1.72e-4,5.1e-4 3.42e-4,3.4e-4 c 0.05766,0.100347 0.05037,0.246372 0.03339,0.40434 -0.01695,0.157962 -0.04396,0.325088 0.01451,0.470293 v 1.69e-4 l 1.73e-4,1.73e-4 c 0.116099,0.283044 0.12848,0.452248 0.09025,0.546708 -0.03825,0.09447 -0.129811,0.140401 -0.276814,0.172059 -0.29401,0.06332 -0.765943,0.04046 -1.153301,0.281371 -0.337279,0.205171 -0.682112,0.261038 -0.945992,0.190106 -0.263957,-0.07095 -0.450198,-0.260809 -0.489518,-0.577073 v -0.0011 l -1.73e-4,-0.0011 c -0.02794,-0.190209 0.0916,-0.42695 0.248642,-0.664289 0.03702,-0.05594 0.07562,-0.110173 0.114367,-0.165475 0.161426,0.03962 0.37826,0.02448 0.654499,-0.08013 0.54738,-0.313544 0.772575,-0.753658 0.802096,-1.235953 z m -0.725346,0.07054 c -0.01878,0.02153 -0.03215,0.03672 -0.04959,0.0565 0.01618,-0.01831 0.0323,-0.03665 0.04959,-0.0565 z m -0.194494,0.218445 c -0.0706,0.07752 -0.12044,0.131071 -0.12044,0.131071 0,0 0.0676,-0.07357 0.12044,-0.131071 z m -0.623465,0.170711 c 0.01195,0.01306 0.02434,0.02568 0.03867,0.03576 -0.0143,-0.01018 -0.02697,-0.02235 -0.03867,-0.03576 z"
       class="ColorScheme-Text"
       style="color:#31363b;fill:#d3dae3;fill-opacity:1;stroke:none;stroke-width:0.611113" />
  </g>
</svg>
