<?xml version="1.0" encoding="UTF-8" standalone="no"?>
<svg
   width="32.000145"
   height="32"
   version="1.1"
   id="svg654"
   sodipodi:docname="notifications.svg"
   inkscape:version="1.2.1 (9c6d41e410, 2022-07-14)"
   xmlns:inkscape="http://www.inkscape.org/namespaces/inkscape"
   xmlns:sodipodi="http://sodipodi.sourceforge.net/DTD/sodipodi-0.dtd"
   xmlns:xlink="http://www.w3.org/1999/xlink"
   xmlns="http://www.w3.org/2000/svg"
   xmlns:svg="http://www.w3.org/2000/svg">
  <g
     id="22-22-notifications-disabled"
     transform="translate(39.999988,12.999966)">
    <rect
       style="opacity:0.00100002;stroke-width:0.999999"
       width="22"
       height="22"
       x="-4.086914e-06"
       y="2.3632813e-06"
       id="rect601-2" />
    <path
       inkscape:connector-curvature="0"
       id="path9068-9-37-8-0-1-9-7"
       d="M 21,0.99997714 H 5.95452 L 2.53846,3.2556571 V 16.081887 L 20.23077,16.037687 21,15.285827 Z"
       style="display:inline;overflow:visible;visibility:visible;opacity:0.6;fill:url(#linearGradient556);fill-opacity:1;fill-rule:nonzero;stroke:none;stroke-width:0.588366;marker:none"
       sodipodi:nodetypes="ccccccc" />
    <path
       d="m 4,7.9999771 h 7 v 1 H 4 Z"
       id="path6-3-1-0-7-2-3"
       style="fill:#d3dae3;fill-opacity:1;stroke-width:0.0241615"
       sodipodi:nodetypes="ccccc" />
    <path
       d="m 4,10.999977 h 9 v 1 H 4 Z"
       id="path8-27-6-5-7-5"
       style="fill:#d3dae3;fill-opacity:1;stroke-width:0.0252127"
       sodipodi:nodetypes="ccccc" />
    <path
       d="m 4,4.9999771 h 9 v 1 H 4 Z"
       id="path4-5-6-3-3-1-5-9-2"
       style="fill:#d3dae3;fill-opacity:1;stroke-width:0.0265001"
       sodipodi:nodetypes="ccccc" />
    <path
       d="m 15.000012,1.000034 v 0 L 5.19671,0.99997714 C 4.08407,1.0007471 3.01732,1.3474971 2.23062,2.0573971 1.44382,2.7671671 1.00129,3.7296971 1,4.7336271 v 10.4723499 -1.5e-4 c 7.7e-4,1.00392 0.44382,1.96644 1.23062,2.67623 0.7867,0.70993 1.85345,1.16215 2.96609,1.16329 h 1.63664 l 4.166662,1.954687 4.166638,-1.954687 h 1.6368 -1.6e-4 c 1.11263,-0.002 2.17939,-0.45336 2.96609,-1.16329 0.7868,-0.70979 1.22933,-1.67231 1.23062,-2.67623 l 1.2e-5,-8.205793 z M 5,2.9999771 15.000012,3.000034 v 0 -2 0 l 6,6 h -2 L 19,14.999977 H 3 V 4.9999771 c 0,-1 1,-2 2,-2 z"
       id="path1193-7-3-6-9-6-3-9"
       style="fill:#d3dae3;fill-opacity:1;stroke-width:0.0376936"
       sodipodi:nodetypes="ccccccccccccccccccccccccccccc" />
    <circle
       id="circle-transparent-6-9-8-1"
       cx="19.100008"
       cy="3"
       r="3"
       class="ColorScheme-Text"
       style="fill:#bf616a;fill-opacity:1;stroke-width:0.375" />
  </g>
  <g
     id="notifications-disabled">
    <path
       style="opacity:0.00100002;stroke-width:1.45455"
       d="M 0,0 H 32 V 32 H 0 Z"
       id="path647" />
    <path
       style="fill:none;stroke-width:1.45455"
       inkscape:connector-curvature="0"
       d="M 0,0 H 32 V 32 H 0 Z"
       id="path14" />
    <path
       inkscape:connector-curvature="0"
       id="path9068-9-37-8-0-1-9"
       d="M 29,4.000005 H 9 l -4,3 v 17.05866 L 28,23.999965 29,23 Z"
       style="display:inline;overflow:visible;visibility:visible;opacity:0.6;fill:url(#linearGradient2031);fill-opacity:1;fill-rule:nonzero;stroke:none;stroke-width:0.773646;marker:none"
       sodipodi:nodetypes="ccccccc" />
    <path
       d="M 28.00007,1 C 26.939154,1 25.921814,1.4214273 25.171634,2.1716105 24.421447,2.9217836 24,3.9391015 24,5 24,6.0608886 24.421447,7.0782164 25.171634,7.8283895 25.921824,8.5785526 26.939154,9 28.00007,9 29.060988,9 30.078326,8.5785626 30.828496,7.8283895 31.578693,7.0782064 32.000144,6.0608886 32.000144,5 31.999136,3.9394714 31.577093,2.9228336 30.82709,2.1730194 30.077267,1.4230374 29.060619,1.0012304 28.00007,1 Z m 0,6.399992 c -0.636621,0 -1.246972,-0.2528544 -1.697174,-0.7028526 C 25.852882,6.2469616 25.600028,5.6366111 25.600028,5 c 0,-0.6366212 0.252854,-1.2469518 0.702868,-1.6971497 0.450193,-0.4499989 1.060553,-0.7028519 1.697174,-0.7028519 0.636634,0 1.246972,0.252853 1.69718,0.7028519 C 30.147258,3.7530384 30.400112,4.3633788 30.400112,5 c 0,0.6366111 -0.252854,1.2469418 -0.702862,1.6971394 -0.450198,0.4499982 -1.060546,0.7028526 -1.69718,0.7028526 z"
       id="path4-9-6-6-1"
       style="fill:#bf616a;fill-opacity:1;stroke-width:0.0457147" />
    <path
       d="m 7,14.000005 h 9 v 1 H 7 Z"
       id="path6-3-1-0-7-2"
       style="fill:#d3dae3;fill-opacity:1;stroke-width:0.03177"
       sodipodi:nodetypes="ccccc" />
    <path
       d="m 7,19.000005 h 12 v 1 H 7 Z"
       id="path8-27-6-5-7"
       style="fill:#d3dae3;fill-opacity:1;stroke-width:0.0331523"
       sodipodi:nodetypes="ccccc" />
    <ellipse
       id="circle-transparent-6-0-2-3-0"
       cx="28"
       cy="4.9000001"
       class="ColorScheme-Text"
       style="fill:#bf616a;fill-opacity:1;stroke-width:0.321877"
       rx="2.5749993"
       ry="2.575" />
    <path
       d="m 7,9.000005 h 12 v 1 H 7 Z"
       id="path4-5-6-3-3-1-5-9"
       style="fill:#d3dae3;fill-opacity:1;stroke-width:0.034845"
       sodipodi:nodetypes="ccccc" />
    <path
       d="m 22,4 v 0 l -13.54428,5e-6 C 7.00929,4.001005 5.62251,4.462175 4.5998,5.406365 3.57697,6.350355 3.00168,7.630495 3,8.965675 v 13.92805 -1.9e-4 c 10e-4,1.33518 0.57697,2.61531 1.5998,3.55931 1.02271,0.94419 2.40949,1.54563 3.85592,1.54716 h 2.12764 L 16,31 21.41664,28.000005 h 2.12784 -2e-4 c 1.44642,-0.002 2.83321,-0.60297 3.85592,-1.54716 1.02283,-0.944 1.59812,-2.22413 1.5998,-3.55931 V 11 Z M 8.63336,6.000005 22,6 V 6 4 4 l 7,7 H 27 V 23.000005 H 5 v -14 c 9.8e-4,-0.88709 0.64528,-1.77191 1.32485,-2.39914 0.6794,-0.62724 1.34751,-0.59977 2.30856,-0.60087 z"
       id="path1193-7-3-6-9-6-3"
       style="fill:#d3dae3;fill-opacity:1;stroke-width:0.0495636"
       sodipodi:nodetypes="ccccccccccccccccccccccccccccccc" />
  </g>
  <sodipodi:namedview
     id="namedview656"
     pagecolor="#ffffff"
     bordercolor="#666666"
     borderopacity="1.0"
     inkscape:showpageshadow="2"
     inkscape:pageopacity="0.0"
     inkscape:pagecheckerboard="0"
     inkscape:deskcolor="#d1d1d1"
     showgrid="false"
     inkscape:zoom="10.727273"
     inkscape:cx="32.673728"
     inkscape:cy="17.012711"
     inkscape:window-width="1920"
     inkscape:window-height="1002"
     inkscape:window-x="0"
     inkscape:window-y="0"
     inkscape:window-maximized="1"
     inkscape:current-layer="svg654"
     inkscape:lockguides="true">
    <inkscape:grid
       type="xygrid"
       id="grid15581"
       originx="0"
       originy="0" />
  </sodipodi:namedview>
  <defs
     id="rounded">
    <linearGradient
       inkscape:collect="always"
       id="linearGradient12631">
      <stop
         style="stop-color:#5581aa;stop-opacity:1;"
         offset="0"
         id="stop12627" />
      <stop
         style="stop-color:#6db2c5;stop-opacity:1;"
         offset="1"
         id="stop12629" />
    </linearGradient>
    <style
       type="text/css"
       id="current-color-scheme">
        .ColorScheme-Text {
        color:#eff0f1;
        }
        .ColorScheme-NegativeText {
        color:#da4453;
        }
        .ColorScheme-Highlight {
        color:#3daee9;
        }
        .ColorScheme-Background {
        color:#31363b;
      }
      .ColorScheme-ButtonBackground {
        color:#444c53;
      }
    </style>
    <linearGradient
       inkscape:collect="always"
       xlink:href="#linearGradient12631"
       id="linearGradient2031"
       gradientUnits="userSpaceOnUse"
       gradientTransform="matrix(0.60895488,0,0,0.50146777,-72.33729,-295.05646)"
       x1="146.70592"
       y1="597.24854"
       x2="146.70592"
       y2="634.91577" />
    <linearGradient
       inkscape:collect="always"
       xlink:href="#linearGradient12631"
       id="linearGradient556"
       gradientUnits="userSpaceOnUse"
       gradientTransform="matrix(0.46842683,0,0,0.3770488,-56.95176,-223.85771)"
       x1="146.70592"
       y1="597.24854"
       x2="146.70592"
       y2="634.91577" />
  </defs>
</svg>
