<?xml version="1.0" encoding="UTF-8" standalone="no"?>
<svg
   width="8.4666662mm"
   height="8.4666662mm"
   viewBox="0 0 31.999999 32"
   version="1.1"
   id="svg881"
   inkscape:version="1.2.1 (9c6d41e410, 2022-07-14)"
   sodipodi:docname="notification.svg"
   xmlns:inkscape="http://www.inkscape.org/namespaces/inkscape"
   xmlns:sodipodi="http://sodipodi.sourceforge.net/DTD/sodipodi-0.dtd"
   xmlns:xlink="http://www.w3.org/1999/xlink"
   xmlns="http://www.w3.org/2000/svg"
   xmlns:svg="http://www.w3.org/2000/svg"
   xmlns:rdf="http://www.w3.org/1999/02/22-rdf-syntax-ns#"
   xmlns:cc="http://creativecommons.org/ns#"
   xmlns:dc="http://purl.org/dc/elements/1.1/">
  <defs
     id="defs875">
    <linearGradient
       inkscape:collect="always"
       xlink:href="#4813"
       id="linearGradient5058-3"
       x1="148.81818"
       y1="596.59601"
       x2="148.81818"
       y2="636.36194"
       gradientUnits="userSpaceOnUse"
       gradientTransform="matrix(0.62499958,0,0,0.50294271,129.45002,425.19184)" />
    <linearGradient
       inkscape:collect="always"
       xlink:href="#4813"
       id="linearGradient5058"
       x1="146.70592"
       y1="597.24854"
       x2="146.70592"
       y2="634.91577"
       gradientUnits="userSpaceOnUse"
       gradientTransform="matrix(0.55820858,0,0,0.451321,138.93243,420.69465)" />
    <linearGradient
       inkscape:collect="always"
       id="4813">
      <stop
         style="stop-color:#008080;stop-opacity:1;"
         offset="0"
         id="stop4809-8" />
      <stop
         style="stop-color:#aa87de;stop-opacity:1"
         offset="1"
         id="stop4811-9" />
    </linearGradient>
    <linearGradient
       inkscape:collect="always"
       xlink:href="#4813"
       id="linearGradient2031"
       gradientUnits="userSpaceOnUse"
       gradientTransform="matrix(0.60895488,0,0,0.50146777,132.48764,346.189)"
       x1="146.70592"
       y1="597.24854"
       x2="146.70592"
       y2="634.91577" />
    <linearGradient
       inkscape:collect="always"
       xlink:href="#4813"
       id="linearGradient556"
       gradientUnits="userSpaceOnUse"
       gradientTransform="matrix(0.46842683,0,0,0.3770488,186.87318,427.38778)"
       x1="146.70592"
       y1="597.24854"
       x2="146.70592"
       y2="634.91577" />
    <linearGradient
       inkscape:collect="always"
       xlink:href="#4813"
       id="linearGradient2065"
       gradientUnits="userSpaceOnUse"
       gradientTransform="matrix(0.46842683,0,0,0.3770488,187.87318,507.38778)"
       x1="146.70592"
       y1="597.24854"
       x2="146.70592"
       y2="634.91577" />
    <linearGradient
       inkscape:collect="always"
       xlink:href="#4813"
       id="linearGradient3112"
       gradientUnits="userSpaceOnUse"
       gradientTransform="matrix(0.42939122,0,0,0.33849078,192.83067,494.58229)"
       x1="146.70592"
       y1="597.24854"
       x2="146.70592"
       y2="634.91577" />
  </defs>
  <sodipodi:namedview
     id="base"
     pagecolor="#ffffff"
     bordercolor="#000000"
     borderopacity="1"
     inkscape:pageopacity="0.0"
     inkscape:pageshadow="2"
     inkscape:zoom="4.581395"
     inkscape:cx="50.093912"
     inkscape:cy="-14.733504"
     inkscape:document-units="px"
     inkscape:current-layer="layer1"
     showgrid="false"
     inkscape:window-width="1920"
     inkscape:window-height="1002"
     inkscape:window-x="0"
     inkscape:window-y="0"
     inkscape:window-maximized="1"
     inkscape:lockguides="false"
     inkscape:document-rotation="0"
     inkscape:pagecheckerboard="0"
     inkscape:showpageshadow="true"
     showguides="false"
     inkscape:deskcolor="#d1d1d1">
    <inkscape:grid
       type="xygrid"
       id="grid4000"
       originx="5.9999998e-06"
       originy="-37.000004" />
  </sodipodi:namedview>
  <metadata
     id="metadata878">
    <rdf:RDF>
      <cc:Work
         rdf:about="">
        <dc:format>image/svg+xml</dc:format>
        <dc:type
           rdf:resource="http://purl.org/dc/dcmitype/StillImage" />
      </cc:Work>
    </rdf:RDF>
  </metadata>
  <g
     inkscape:label="Layer 1"
     inkscape:groupmode="layer"
     id="layer1"
     transform="translate(-204.82493,-721.24546)">
    <g
       id="22-22-notification-inactive">
      <rect
         style="opacity:0.00100002;stroke-width:0.999999"
         width="22"
         height="22"
         x="244.82491"
         y="694.24542"
         id="rect601" />
      <path
         inkscape:connector-curvature="0"
         id="path9068-9-37-8-0-1-5"
         d="m 264.28644,696.44542 h -16.92308 v 13.53957 l 16.92308,-0.0791 z"
         style="display:inline;overflow:visible;visibility:visible;opacity:0.6;fill:url(#linearGradient3112);fill-opacity:1;fill-rule:nonzero;stroke:none;stroke-width:0.533739;marker:none"
         sodipodi:nodetypes="ccccc" />
      <path
         d="m 249.82494,702.24546 h 7 v 1 h -7 z"
         id="path6-3-1-0-4-2-9"
         style="fill:#d3dae3;fill-opacity:1;stroke-width:0.0240642"
         sodipodi:nodetypes="ccccc" />
      <path
         d="m 249.82494,706.24546 h 9 v 1 h -9 z"
         id="path8-27-6-9-6-2"
         style="fill:#d3dae3;fill-opacity:1;stroke-width:0.0241314"
         sodipodi:nodetypes="ccccc" />
      <path
         d="m 249.82494,699.24546 h 9 v 1 h -9 z"
         id="path4-5-6-3-3-1-2-6-2"
         style="fill:#d3dae3;fill-opacity:1;stroke-width:0.0264667"
         sodipodi:nodetypes="ccccc" />
      <path
         d="m 261.62796,695.24542 h -11.60634 c -1.11265,7.7e-4 -2.17942,0.39944 -2.96609,1.10759 -0.78681,0.70795 -1.22935,1.66807 -1.23063,2.66945 v 10.44604 -1.4e-4 c 7.7e-4,1.00138 0.44382,1.96149 1.23063,2.66949 0.78667,0.70815 1.85344,1.10642 2.96609,1.10759 h 1.63662 l 4.1667,2.00002 4.16662,-2.00002 h 1.63677 -1.5e-4 c 1.11264,-0.002 2.17941,-0.39944 2.96609,-1.10759 0.78681,-0.708 1.22935,-1.66811 1.23063,-2.66949 v -10.44569 c -0.002,-1.00137 -0.44382,-1.96149 -1.23063,-2.66949 -0.78668,-0.7081 -1.85345,-1.10642 -2.96609,-1.10754 z m -11.80302,2.00004 h 12 c 1,0 2,1 2,2 v 0 10 h -16 v -10 c 0,-1 1,-2 2,-2 z"
         id="path1193-7-3-6-4-8"
         style="fill:#d3dae3;fill-opacity:1;stroke-width:0.0376464"
         sodipodi:nodetypes="ccccccccccccccccccccccccccc" />
    </g>
    <g
       id="notification-disabled">
      <path
         style="fill:none;stroke-width:1.45455"
         inkscape:connector-curvature="0"
         d="m 204.82493,641.24546 h 32 v 32 h -32 z"
         id="path25" />
      <path
         inkscape:connector-curvature="0"
         id="path9068-9-37-8-0-1-9"
         d="m 233.82493,645.24546 h -20 l -4,3 v 17.05866 l 23,-0.0587 1,-0.99996 z"
         style="display:inline;overflow:visible;visibility:visible;opacity:0.6;fill:url(#linearGradient2031);fill-opacity:1;fill-rule:nonzero;stroke:none;stroke-width:0.773646;marker:none"
         sodipodi:nodetypes="ccccccc" />
      <path
         d="m 232.825,643.24546 c -0.79571,0 -1.55869,0.31603 -2.12137,0.8787 -0.56265,0.56266 -0.8787,1.3256 -0.8787,2.1213 0,0.79569 0.31605,1.55863 0.8787,2.1213 0.56269,0.56265 1.32566,0.8787 2.12137,0.8787 0.79569,0 1.55866,-0.31604 2.12126,-0.8787 0.56273,-0.56267 0.87881,-1.32561 0.87881,-2.1213 -8e-4,-0.79536 -0.31728,-1.5579 -0.87985,-2.12021 -0.56239,-0.56255 -1.32486,-0.87889 -2.12022,-0.87979 z m 0,4.79999 c -0.47745,0 -0.93521,-0.18965 -1.27294,-0.52709 -0.33745,-0.33771 -0.5271,-0.79547 -0.5271,-1.2729 0,-0.47744 0.18965,-0.93518 0.5271,-1.2729 0.33772,-0.33745 0.79549,-0.5271 1.27294,-0.5271 0.47743,0 0.93517,0.18965 1.27283,0.5271 0.33756,0.33771 0.52721,0.79546 0.52721,1.2729 0,0.47743 -0.18965,0.93518 -0.52721,1.2729 -0.33765,0.33744 -0.7954,0.52709 -1.27283,0.52709 z"
         id="path4-9-6-6-1"
         style="fill:#bf616a;fill-opacity:1;stroke-width:0.0342864" />
      <path
         d="m 211.82493,655.24546 h 9 v 1 h -9 z"
         id="path6-3-1-0-7-2"
         style="fill:#d3dae3;fill-opacity:1;stroke-width:0.03177"
         sodipodi:nodetypes="ccccc" />
      <path
         d="m 211.82493,660.24546 h 12 v 1 h -12 z"
         id="path8-27-6-5-7"
         style="fill:#d3dae3;fill-opacity:1;stroke-width:0.0331523"
         sodipodi:nodetypes="ccccc" />
      <circle
         id="circle-transparent-6-0-2-3-0"
         cx="232.825"
         cy="646.24536"
         r="1.8750329"
         class="ColorScheme-Text"
         style="fill:#bf616a;fill-opacity:1;stroke-width:0.234382" />
      <path
         d="m 211.82493,650.24546 h 12 v 1 h -12 z"
         id="path4-5-6-3-3-1-5-9"
         style="fill:#d3dae3;fill-opacity:1;stroke-width:0.034845"
         sodipodi:nodetypes="ccccc" />
      <path
         d="m 228.82493,645.24546 v 0 h -15.54428 c -1.44643,10e-4 -2.83321,0.46217 -3.85592,1.40636 -1.02283,0.94399 -1.59812,2.22413 -1.5998,3.55931 v 13.92805 -1.9e-4 c 0.001,1.33518 0.57697,2.61531 1.5998,3.55931 1.02271,0.94419 2.40949,1.54563 3.85592,1.54716 h 2.12764 l 5.41665,3 5.41663,-3 h 2.12784 -2e-4 c 1.44642,-0.002 2.83321,-0.60297 3.85592,-1.54716 1.02283,-0.944 1.59812,-2.22413 1.5998,-3.55931 v -13.89353 z m -15.36664,2 h 15.36664 v 0 -2 0 l 5,5 h -2 v 14 h -22 v -14 c 9.8e-4,-0.88709 0.64528,-1.77191 1.32485,-2.39914 0.6794,-0.62724 1.34751,-0.59977 2.30856,-0.60087 z"
         id="path1193-7-3-6-9-6-3"
         style="fill:#d3dae3;fill-opacity:1;stroke-width:0.0495636"
         sodipodi:nodetypes="ccccccccccccccccccccccccccccccc" />
    </g>
    <g
       id="notification-active">
      <path
         style="fill:none;stroke-width:1.45455"
         inkscape:connector-curvature="0"
         d="m 204.82493,721.24546 h 32 v 32 h -32 z"
         id="path14" />
      <path
         inkscape:connector-curvature="0"
         id="path9068-9-37-8-0-1-2"
         d="m 233.82493,725.24546 h -20 l -4,2 -1,18 h 24.69792 -0.69792 l 1,-1.01824 z"
         style="display:inline;overflow:visible;visibility:visible;opacity:0.5;fill:url(#linearGradient5058-3);fill-opacity:1;fill-rule:nonzero;stroke:none;stroke-width:0.784925;marker:none"
         sodipodi:nodetypes="cccccccc" />
      <path
         d="m 232.825,723.24546 c -0.79571,0 -1.55867,0.31603 -2.12137,0.8787 -0.56265,0.56268 -0.8787,1.3256 -0.8787,2.1213 0,0.79569 0.31605,1.55863 0.8787,2.1213 0.56271,0.56265 1.32566,0.8787 2.12137,0.8787 0.79571,0 1.55866,-0.31604 2.12124,-0.8787 0.56277,-0.56268 0.87883,-1.32561 0.87883,-2.1213 -8e-4,-0.79534 -0.31726,-1.5579 -0.87985,-2.12019 -0.56239,-0.56257 -1.32486,-0.87891 -2.12022,-0.87981 z m 0,4.79999 c -0.47743,0 -0.93519,-0.18965 -1.27296,-0.52709 -0.33743,-0.33773 -0.52708,-0.79548 -0.52708,-1.2729 0,-0.47742 0.18965,-0.93516 0.52708,-1.2729 0.33776,-0.33745 0.79553,-0.5271 1.27296,-0.5271 0.47743,0 0.93517,0.18965 1.27283,0.5271 0.33756,0.33773 0.52721,0.79548 0.52721,1.2729 0,0.47742 -0.18965,0.93516 -0.52721,1.2729 -0.33765,0.33744 -0.7954,0.52709 -1.27283,0.52709 z"
         id="path4-9-6-3"
         style="fill:#088699;fill-opacity:1;stroke-width:0.0342866" />
      <path
         d="m 212.82494,735.27946 8.99999,-0.034 v 0.966 l -8.99999,0.034 z"
         id="path6-3-1-0-6"
         style="fill:#d3dae3;fill-opacity:1;stroke-width:0.03177"
         sodipodi:nodetypes="ccccc" />
      <path
         d="m 212.82493,740.24546 h 12 v 1 h -12 z"
         id="path8-27-6-7"
         style="fill:#d3dae3;fill-opacity:1;stroke-width:0.0331523"
         sodipodi:nodetypes="ccccc" />
      <circle
         id="circle-transparent-6-0-2-5"
         cx="232.82503"
         cy="726.24536"
         r="1.8750334"
         class="ColorScheme-Text"
         style="fill:#088699;fill-opacity:1;stroke-width:0.234384" />
      <path
         d="m 212.82493,730.24546 h 12 v 1 h -11.99999 z"
         id="path4-5-6-3-3-1-3"
         style="fill:#d3dae3;fill-opacity:1;stroke-width:0.034845"
         sodipodi:nodetypes="ccccc" />
      <path
         d="m 228.82493,725.24546 v 0 h -15.54426 c -1.44645,10e-4 -2.83325,0.53257 -3.85592,1.47676 -1.02285,0.94399 -1.59816,2.22413 -1.59982,3.55931 v 13.92805 -1.9e-4 c 0.001,1.33518 0.57697,2.61531 1.59982,3.55931 1.02267,0.94419 2.40947,1.47523 3.85592,1.47676 h 2.1276 l 5.41667,3 5.41665,-3 h 2.1278 -2e-4 c 1.44644,-0.002 2.83325,-0.53257 3.85592,-1.47676 1.02285,-0.944 1.59816,-2.22413 1.59982,-3.55931 v -13.96393 z m -16,2 h 16 v 0 -2 0 l 5,5 h -2 v 14 h -22 v -14 0 c 0,-2 2,-3 3,-3 z"
         id="path1193-7-3-6-9-5"
         style="fill:#d3dae3;fill-opacity:1;stroke-width:0.0495635"
         sodipodi:nodetypes="cccccccccccccccccccccccccccccc" />
    </g>
    <g
       id="notification-progress-active"
       transform="translate(278.82493,688.24546)">
      <path
         style="fill:none"
         inkscape:connector-curvature="0"
         id="empty-rectangle"
         d="M 1,1 H 23 V 23 H 1 Z" />
      <circle
         id="circle-blue"
         cx="12"
         cy="12"
         r="8"
         class="ColorScheme-ButtonFocus"
         style="fill:#5e81ac;fill-opacity:1" />
    </g>
    <g
       id="notification-progress-inactive"
       transform="translate(278.82493,728.24546)">
      <path
         style="fill:none"
         inkscape:connector-curvature="0"
         id="path10"
         d="M 1,1 H 23 V 23 H 1 Z" />
      <circle
         id="circle-transparent"
         cx="12"
         cy="12"
         r="8"
         class="ColorScheme-Text"
         style="opacity:0.4;fill:#5e81ac;fill-opacity:1" />
    </g>
    <path
       inkscape:connector-curvature="0"
       id="expander-bottom"
       d="m 191.82493,709.24546 2,-2 2,2 z"
       class="ColorScheme-Text"
       style="fill:#088699;fill-opacity:1" />
    <path
       inkscape:connector-curvature="0"
       id="expander-top"
       d="m 191.82493,703.24546 2,2 2,-2 z"
       class="ColorScheme-Text"
       style="fill:#088699;fill-opacity:1" />
    <path
       inkscape:connector-curvature="0"
       id="expander-right"
       d="m 196.82493,704.24546 -2,2 2,2 z"
       class="ColorScheme-Text"
       style="fill:#088699;fill-opacity:1" />
    <path
       inkscape:connector-curvature="0"
       id="expander-left"
       d="m 190.82493,704.24546 2,2 -2,2 z"
       class="ColorScheme-Text"
       style="fill:#088699;fill-opacity:1" />
    <g
       id="notification-empty"
       transform="translate(278.82493,648.24546)">
      <path
         style="fill:none"
         inkscape:connector-curvature="0"
         id="path31"
         d="M 1,1 H 23 V 23 H 1 Z" />
      <path
         inkscape:connector-curvature="0"
         id="circle-outline"
         d="m 12,4 a 8,8 0 0 0 -8,8 8,8 0 0 0 8,8 8,8 0 0 0 8,-8 8,8 0 0 0 -8,-8 z m 0,1 a 7,7 0 0 1 7,7 7,7 0 0 1 -7,7 7,7 0 0 1 -7,-7 7,7 0 0 1 7,-7 z"
         class="ColorScheme-Text"
         style="fill:#d3dae3;fill-opacity:1" />
    </g>
    <g
       id="22-22-notification-active">
      <rect
         style="opacity:0.00100002;stroke-width:0.999999"
         width="22"
         height="22"
         x="244.82494"
         y="731.24542"
         id="rect601-0" />
      <path
         inkscape:connector-curvature="0"
         id="path9068-9-37-8-0-1-9-7-8"
         d="m 265.82494,732.24546 h -15.38462 l -3.07692,2.25568 v 12.82623 l 17.69231,-0.0442 0.76923,-0.75186 z"
         style="display:inline;overflow:visible;visibility:visible;opacity:0.6;fill:url(#linearGradient2065);fill-opacity:1;fill-rule:nonzero;stroke:none;stroke-width:0.588366;marker:none"
         sodipodi:nodetypes="ccccccc" />
      <path
         d="m 248.82494,739.24546 h 7 v 1 h -7 z"
         id="path6-3-1-0-7-2-3-7"
         style="fill:#d3dae3;fill-opacity:1;stroke-width:0.0241615"
         sodipodi:nodetypes="ccccc" />
      <path
         d="m 248.82494,742.24546 h 9 v 1 h -9 z"
         id="path8-27-6-5-7-5-9"
         style="fill:#d3dae3;fill-opacity:1;stroke-width:0.0252127"
         sodipodi:nodetypes="ccccc" />
      <path
         d="m 248.82494,736.24546 h 9 v 1 h -9 z"
         id="path4-5-6-3-3-1-5-9-2-2"
         style="fill:#d3dae3;fill-opacity:1;stroke-width:0.0265001"
         sodipodi:nodetypes="ccccc" />
      <path
         d="m 261.82494,732.24546 v 0 h -11.80329 c -1.11264,7.7e-4 -2.17939,0.34752 -2.96609,1.05742 -0.7868,0.70977 -1.22933,1.6723 -1.23062,2.67623 v 10.47235 -1.5e-4 c 7.7e-4,1.00392 0.44382,1.96644 1.23062,2.67623 0.7867,0.70993 1.85345,1.16215 2.96609,1.16329 h 1.63664 l 4.16665,1.95463 4.16665,-1.95463 h 1.6368 -1.6e-4 c 1.11263,-0.002 2.17939,-0.45336 2.96609,-1.16329 0.7868,-0.70979 1.22933,-1.67231 1.23062,-2.67623 v -10.20585 z m -12,2 h 12 v 0 -2 0 l 4,4 h -2 v 10 h -16 v -10 c 0,-1 1,-2 2,-2 z"
         id="path1193-7-3-6-9-6-3-9-0"
         style="fill:#d3dae3;fill-opacity:1;stroke-width:0.0376936"
         sodipodi:nodetypes="ccccccccccccccccccccccccccccc" />
      <circle
         id="circle-transparent-6-9-8-1-2"
         cx="264.82495"
         cy="733.24548"
         r="2"
         class="ColorScheme-Text"
         style="fill:#088699;fill-opacity:1;stroke-width:0.25" />
    </g>
    <g
       id="notification-inactive">
      <path
         style="fill:none;stroke-width:1.45455"
         inkscape:connector-curvature="0"
         d="m 204.82493,684.24546 h 32 v 32 h -32 z"
         id="path14-1" />
      <path
         inkscape:connector-curvature="0"
         id="path9068-9-37-8-0-1"
         d="m 231.82493,689.84546 h -22 v 18.05279 l 22,-0.10558 z"
         style="display:inline;overflow:visible;visibility:visible;opacity:0.6;fill:url(#linearGradient5058);fill-opacity:1;fill-rule:nonzero;stroke:none;stroke-width:0.702699;marker:none"
         sodipodi:nodetypes="ccccc" />
      <path
         d="m 212.82493,698.24546 h 9 v 1 h -8.99998 z"
         id="path6-3-1-0-4-2"
         style="fill:#d3dae3;fill-opacity:1;stroke-width:0.0316821"
         sodipodi:nodetypes="ccccc" />
      <path
         d="m 212.87494,703.27946 11.94999,-0.034 v 1 l -12,2e-5 z"
         id="path8-27-6-9-6"
         style="fill:#d3dae3;fill-opacity:1;stroke-width:0.0317705"
         sodipodi:nodetypes="ccccc" />
      <path
         d="m 212.82493,693.24546 h 12 v 1 h -11.99999 z"
         id="path4-5-6-3-3-1-2-6"
         style="fill:#d3dae3;fill-opacity:1;stroke-width:0.034845"
         sodipodi:nodetypes="ccccc" />
      <path
         d="m 228.36891,688.24546 h -15.08824 c -1.44645,10e-4 -2.83325,0.53257 -3.85592,1.47676 -1.02285,0.94399 -1.59816,2.22413 -1.59982,3.55931 v 13.92805 -1.9e-4 c 0.001,1.33518 0.57697,2.61531 1.59982,3.55931 1.02267,0.94419 2.40947,1.47523 3.85592,1.47676 h 2.1276 l 5.41667,3 5.41665,-3 h 2.1278 -2e-4 c 1.44644,-0.002 2.83324,-0.53257 3.85592,-1.47676 1.02285,-0.944 1.59815,-2.22413 1.59982,-3.55931 v -13.92757 c -0.002,-1.33518 -0.57697,-2.61532 -1.59982,-3.55932 -1.02268,-0.94418 -2.40948,-1.47523 -3.85592,-1.47675 z m -14.91064,2 h 14.625 c 0.96101,10e-4 1.63662,0.0441 2.31612,0.67128 0.67957,0.6272 1.42431,1.44163 1.42555,2.32872 v 14 h -22 v -14 c 0.001,-0.88709 0.64524,-1.70149 1.32479,-2.32872 0.6794,-0.62724 1.34751,-0.67018 2.30854,-0.67128 z"
         id="path1193-7-3-6-4"
         style="fill:#d3dae3;fill-opacity:1;stroke-width:0.0495635"
         sodipodi:nodetypes="cccccccccccccccccccccccccccc" />
    </g>
    <g
       id="22-22-notification-disabled">
      <rect
         style="opacity:0.00100002;stroke-width:0.999999"
         width="22"
         height="22"
         x="243.82494"
         y="651.24542"
         id="rect601-2" />
      <path
         inkscape:connector-curvature="0"
         id="path9068-9-37-8-0-1-9-7"
         d="m 264.82494,652.24546 h -15.04548 l -3.41606,2.25568 v 12.82623 l 17.69231,-0.0442 0.76923,-0.75186 z"
         style="display:inline;overflow:visible;visibility:visible;opacity:0.6;fill:url(#linearGradient556);fill-opacity:1;fill-rule:nonzero;stroke:none;stroke-width:0.588366;marker:none"
         sodipodi:nodetypes="ccccccc" />
      <path
         d="m 247.82494,659.24546 h 7 v 1 h -7 z"
         id="path6-3-1-0-7-2-3"
         style="fill:#d3dae3;fill-opacity:1;stroke-width:0.0241615"
         sodipodi:nodetypes="ccccc" />
      <path
         d="m 247.82494,662.24546 h 9 v 1 h -9 z"
         id="path8-27-6-5-7-5"
         style="fill:#d3dae3;fill-opacity:1;stroke-width:0.0252127"
         sodipodi:nodetypes="ccccc" />
      <path
         d="m 247.82494,656.24546 h 9 v 1 h -9 z"
         id="path4-5-6-3-3-1-5-9-2"
         style="fill:#d3dae3;fill-opacity:1;stroke-width:0.0265001"
         sodipodi:nodetypes="ccccc" />
      <path
         d="m 260.82494,652.24546 v 0 h -11.80329 c -1.11264,7.7e-4 -2.17939,0.34752 -2.96609,1.05742 -0.7868,0.70977 -1.22933,1.6723 -1.23062,2.67623 v 10.47235 -1.5e-4 c 7.7e-4,1.00392 0.44382,1.96644 1.23062,2.67623 0.7867,0.70993 1.85345,1.16215 2.96609,1.16329 h 1.63664 l 4.16665,1.95463 4.16665,-1.95463 h 1.6368 -1.6e-4 c 1.11263,-0.002 2.17939,-0.45336 2.96609,-1.16329 0.7868,-0.70979 1.22933,-1.67231 1.23062,-2.67623 v -10.20585 z m -12,2 h 12 v 0 -2 0 l 4,4 h -2 v 10 h -16 v -10 c 0,-1 1,-2 2,-2 z"
         id="path1193-7-3-6-9-6-3-9"
         style="fill:#d3dae3;fill-opacity:1;stroke-width:0.0376936"
         sodipodi:nodetypes="ccccccccccccccccccccccccccccc" />
      <circle
         id="circle-transparent-6-9-8-1"
         cx="263.82495"
         cy="653.24548"
         r="2"
         class="ColorScheme-Text"
         style="fill:#bf616a;fill-opacity:1;stroke-width:0.25" />
    </g>
  </g>
</svg>
