<?xml version="1.0" encoding="UTF-8" standalone="no"?>
<svg
   width="32"
   height="32"
   version="1.1"
   id="svg654"
   sodipodi:docname="notifications.svg"
   inkscape:version="1.2.1 (9c6d41e410, 2022-07-14)"
   xmlns:inkscape="http://www.inkscape.org/namespaces/inkscape"
   xmlns:sodipodi="http://sodipodi.sourceforge.net/DTD/sodipodi-0.dtd"
   xmlns:xlink="http://www.w3.org/1999/xlink"
   xmlns="http://www.w3.org/2000/svg"
   xmlns:svg="http://www.w3.org/2000/svg">
  <g
     id="22-22-notifications-disabled"
     transform="translate(39.999988,12.999966)">
    <rect
       style="opacity:0.00100002;stroke-width:0.999999"
       width="22"
       height="22"
       x="-4.086914e-06"
       y="2.3632813e-06"
       id="rect601-2" />
    <path
       inkscape:connector-curvature="0"
       id="path9068-9-37-8-0-1-9-7"
       d="M 21,0.99997714 H 5.95452 L 2.53846,3.2556571 V 16.081887 L 20.23077,16.037687 21,15.285827 Z"
       style="display:inline;overflow:visible;visibility:visible;opacity:0.6;fill:url(#linearGradient556);fill-opacity:1;fill-rule:nonzero;stroke:none;stroke-width:0.588366;marker:none"
       sodipodi:nodetypes="ccccccc" />
    <path
       d="m 4,7.9999771 h 7 v 1 H 4 Z"
       id="path6-3-1-0-7-2-3"
       style="fill:#d3dae3;fill-opacity:1;stroke-width:0.0241615"
       sodipodi:nodetypes="ccccc" />
    <path
       d="m 4,10.999977 h 9 v 1 H 4 Z"
       id="path8-27-6-5-7-5"
       style="fill:#d3dae3;fill-opacity:1;stroke-width:0.0252127"
       sodipodi:nodetypes="ccccc" />
    <path
       d="m 4,4.9999771 h 9 v 1 H 4 Z"
       id="path4-5-6-3-3-1-5-9-2"
       style="fill:#d3dae3;fill-opacity:1;stroke-width:0.0265001"
       sodipodi:nodetypes="ccccc" />
    <path
       d="m 17,0.99997714 v 0 H 5.19671 C 4.08407,1.0007471 3.01732,1.3474971 2.23062,2.0573971 1.44382,2.7671671 1.00129,3.7296971 1,4.7336271 v 10.4723499 -1.5e-4 c 7.7e-4,1.00392 0.44382,1.96644 1.23062,2.67623 0.7867,0.70993 1.85345,1.16215 2.96609,1.16329 h 1.63664 l 4.166662,1.954687 4.166638,-1.954687 h 1.6368 -1.6e-4 c 1.11263,-0.002 2.17939,-0.45336 2.96609,-1.16329 0.7868,-0.70979 1.22933,-1.67231 1.23062,-2.67623 V 4.9999771 Z M 5,2.9999771 h 12 v 0 -1.99999996 0 L 21,4.9999771 H 19 V 14.999977 H 3 V 4.9999771 c 0,-1 1,-2 2,-2 z"
       id="path1193-7-3-6-9-6-3-9"
       style="fill:#d3dae3;fill-opacity:1;stroke-width:0.0376936"
       sodipodi:nodetypes="ccccccccccccccccccccccccccccc" />
    <circle
       id="circle-transparent-6-9-8-1"
       cx="20.000013"
       cy="2"
       r="2"
       class="ColorScheme-Text"
       style="fill:#bf616a;fill-opacity:1;stroke-width:0.25" />
  </g>
  <g
     id="notifications-disabled">
    <path
       style="opacity:0.00100002;stroke-width:1.45455"
       d="M 0,0 H 32 V 32 H 0 Z"
       id="path647" />
    <path
       style="fill:none;stroke-width:1.45455"
       inkscape:connector-curvature="0"
       d="M 0,0 H 32 V 32 H 0 Z"
       id="path14" />
    <path
       inkscape:connector-curvature="0"
       id="path9068-9-37-8-0-1-9"
       d="M 29,4.000005 H 9 l -4,3 v 17.05866 L 28,23.999965 29,23 Z"
       style="display:inline;overflow:visible;visibility:visible;opacity:0.6;fill:url(#linearGradient2031);fill-opacity:1;fill-rule:nonzero;stroke:none;stroke-width:0.773646;marker:none"
       sodipodi:nodetypes="ccccccc" />
    <path
       d="M 28.00005,2 C 27.20437,2 26.441358,2.3160709 25.87873,2.8787081 25.316087,3.4413376 25,4.2043259 25,5 25,5.7956666 25.316087,6.5586624 25.87873,7.1212919 26.441364,7.6839146 27.20437,8 28.00005,8 28.795744,8 29.558746,7.6839222 30.121376,7.1212919 30.684017,6.5586544 31.000104,5.7956666 31.000104,5 30.999356,4.2046034 30.682817,3.4421256 30.120314,2.879765 29.557947,2.3172778 28.795463,2.0009224 28.00005,2 Z m 0,4.799994 c -0.477461,0 -0.935228,-0.1896404 -1.272874,-0.527139 C 26.389662,5.9352216 26.200024,5.4774587 26.200024,5 c 0,-0.4774656 0.189638,-0.9352138 0.527152,-1.2728621 0.337637,-0.3374989 0.795413,-0.5271395 1.272874,-0.5271395 0.477474,0 0.935232,0.1896406 1.272884,0.5271395 C 29.610442,4.0647784 29.800088,4.5225344 29.800088,5 c 0,0.4774587 -0.189646,0.9352062 -0.527154,1.272855 -0.337642,0.3374986 -0.79541,0.527139 -1.272884,0.527139 z"
       id="path4-9-6-6-1"
       style="fill:#bf616a;fill-opacity:1;stroke-width:0.0342863" />
    <path
       d="m 7,14.000005 h 9 v 1 H 7 Z"
       id="path6-3-1-0-7-2"
       style="fill:#d3dae3;fill-opacity:1;stroke-width:0.03177"
       sodipodi:nodetypes="ccccc" />
    <path
       d="m 7,19.000005 h 12 v 1 H 7 Z"
       id="path8-27-6-5-7"
       style="fill:#d3dae3;fill-opacity:1;stroke-width:0.0331523"
       sodipodi:nodetypes="ccccc" />
    <circle
       id="circle-transparent-6-0-2-3-0"
       cx="28.000057"
       cy="4.9999318"
       r="1.8750327"
       class="ColorScheme-Text"
       style="fill:#bf616a;fill-opacity:1;stroke-width:0.234381" />
    <path
       d="m 7,9.000005 h 12 v 1 H 7 Z"
       id="path4-5-6-3-3-1-5-9"
       style="fill:#d3dae3;fill-opacity:1;stroke-width:0.034845"
       sodipodi:nodetypes="ccccc" />
    <path
       d="m 24,4 v 0 l -15.54428,5e-6 C 7.00929,4.001005 5.62251,4.462175 4.5998,5.406365 3.57697,6.350355 3.00168,7.630495 3,8.965675 v 13.92805 -1.9e-4 c 10e-4,1.33518 0.57697,2.61531 1.5998,3.55931 1.02271,0.94419 2.40949,1.54563 3.85592,1.54716 h 2.12764 L 16,31 21.41664,28.000005 h 2.12784 -2e-4 c 1.44642,-0.002 2.83321,-0.60297 3.85592,-1.54716 1.02283,-0.944 1.59812,-2.22413 1.5998,-3.55931 V 9 Z M 8.63336,6.000005 24,6 V 6 4 4 l 5,5 H 27 V 23.000005 H 5 v -14 c 9.8e-4,-0.88709 0.64528,-1.77191 1.32485,-2.39914 0.6794,-0.62724 1.34751,-0.59977 2.30856,-0.60087 z"
       id="path1193-7-3-6-9-6-3"
       style="fill:#d3dae3;fill-opacity:1;stroke-width:0.0495636"
       sodipodi:nodetypes="ccccccccccccccccccccccccccccccc" />
  </g>
  <sodipodi:namedview
     id="namedview656"
     pagecolor="#ffffff"
     bordercolor="#666666"
     borderopacity="1.0"
     inkscape:showpageshadow="2"
     inkscape:pageopacity="0.0"
     inkscape:pagecheckerboard="0"
     inkscape:deskcolor="#d1d1d1"
     showgrid="false"
     inkscape:zoom="10.727273"
     inkscape:cx="35.190677"
     inkscape:cy="21.394067"
     inkscape:window-width="1920"
     inkscape:window-height="1002"
     inkscape:window-x="0"
     inkscape:window-y="0"
     inkscape:window-maximized="1"
     inkscape:current-layer="svg654"
     inkscape:lockguides="true">
    <inkscape:grid
       type="xygrid"
       id="grid15581"
       originx="0"
       originy="0" />
  </sodipodi:namedview>
  <defs
     id="rounded">
    <style
       type="text/css"
       id="current-color-scheme">
        .ColorScheme-Text {
        color:#eff0f1;
        }
        .ColorScheme-NegativeText {
        color:#da4453;
        }
        .ColorScheme-Highlight {
        color:#3daee9;
        }
        .ColorScheme-Background {
        color:#31363b;
      }
      .ColorScheme-ButtonBackground {
        color:#444c53;
      }
    </style>
    <linearGradient
       inkscape:collect="always"
       id="4813">
      <stop
         style="stop-color:#008080;stop-opacity:1"
         offset="0"
         id="stop4809-8" />
      <stop
         style="stop-color:#aa87de;stop-opacity:1;"
         offset="1"
         id="stop4811-9" />
    </linearGradient>
    <linearGradient
       inkscape:collect="always"
       xlink:href="#4813"
       id="linearGradient2031"
       gradientUnits="userSpaceOnUse"
       gradientTransform="matrix(0.60895488,0,0,0.50146777,-72.33729,-295.05646)"
       x1="146.70592"
       y1="597.24854"
       x2="146.70592"
       y2="634.91577" />
    <linearGradient
       inkscape:collect="always"
       xlink:href="#4813"
       id="linearGradient556"
       gradientUnits="userSpaceOnUse"
       gradientTransform="matrix(0.46842683,0,0,0.3770488,-56.95176,-223.85771)"
       x1="146.70592"
       y1="597.24854"
       x2="146.70592"
       y2="634.91577" />
  </defs>
</svg>
