<?xml version="1.0" encoding="UTF-8" standalone="no"?>
<svg
   width="32"
   height="32"
   version="1.1"
   id="svg1404"
   sodipodi:docname="solaar.svg"
   inkscape:version="1.3.2 (091e20ef0f, 2023-11-25)"
   xmlns:inkscape="http://www.inkscape.org/namespaces/inkscape"
   xmlns:sodipodi="http://sodipodi.sourceforge.net/DTD/sodipodi-0.dtd"
   xmlns:xlink="http://www.w3.org/1999/xlink"
   xmlns="http://www.w3.org/2000/svg"
   xmlns:svg="http://www.w3.org/2000/svg">
  <sodipodi:namedview
     id="namedview1406"
     pagecolor="#ffffff"
     bordercolor="#000000"
     borderopacity="1"
     inkscape:showpageshadow="2"
     inkscape:pageopacity="0.0"
     inkscape:pagecheckerboard="0"
     inkscape:deskcolor="#cccccc"
     showgrid="false"
     inkscape:zoom="10.429825"
     inkscape:cx="16.970563"
     inkscape:cy="24.401176"
     inkscape:window-width="1920"
     inkscape:window-height="994"
     inkscape:window-x="0"
     inkscape:window-y="0"
     inkscape:window-maximized="1"
     inkscape:current-layer="svg1404">
    <inkscape:grid
       type="xygrid"
       id="grid1730"
       originx="0"
       originy="0"
       spacingy="1"
       spacingx="1"
       units="px"
       visible="false" />
  </sodipodi:namedview>
  <defs
     id="l4k1">
    <style
       type="text/css"
       id="current-color-scheme" />
    <linearGradient
       inkscape:collect="always"
       xlink:href="#linearGradient11400"
       id="linearGradient986"
       gradientUnits="userSpaceOnUse"
       gradientTransform="matrix(0.50999971,0,0,0.43250135,-58.869594,-252.09551)"
       x1="148.9608"
       y1="596.70898"
       x2="148.9608"
       y2="636.01526" />
    <linearGradient
       inkscape:collect="always"
       id="linearGradient11400">
      <stop
         style="stop-color:#5581aa;stop-opacity:1;"
         offset="0"
         id="stop11396" />
      <stop
         style="stop-color:#6db2c5;stop-opacity:1;"
         offset="1"
         id="stop11398" />
    </linearGradient>
    <linearGradient
       inkscape:collect="always"
       xlink:href="#linearGradient11400"
       id="linearGradient6958"
       gradientUnits="userSpaceOnUse"
       gradientTransform="matrix(0.43219982,0,0,0.36977632,-52.533369,-217.92269)"
       x1="146.80391"
       y1="596.36243"
       x2="146.99998"
       y2="636.3623" />
  </defs>
  <g
     id="solaar">
    <rect
       style="opacity:0.00100002"
       width="32"
       height="32"
       x="0"
       y="0"
       id="rect1394" />
    <rect
       y="4.0000024"
       x="4.00038"
       height="24"
       width="24"
       id="rect2996-7"
       style="opacity:0.01;fill:#d6dbf1;fill-opacity:1;stroke:none;stroke-width:1" />
    <path
       inkscape:connector-curvature="0"
       id="path9068-9-37-8-0-1-5"
       d="m 26.100377,5.832003 -20.2000039,7e-6 V 23.132 L 26.100377,22.982001 Z"
       style="display:inline;overflow:visible;visibility:visible;opacity:0.6;fill:url(#linearGradient986);fill-opacity:1;fill-rule:nonzero;stroke:none;stroke-width:0.657512;marker:none;enable-background:new"
       sodipodi:nodetypes="ccccc" />
    <path
       d="M 22.964,4 H 9.0364471 c -1.335173,0.0018 -2.615312,0.532576 -3.559308,1.476781 -0.944192,0.944001 -1.475231,2.224098 -1.476761,3.559283 v 13.928052 -1.82e-4 c 0.0018,1.335152 0.532569,2.615282 1.476761,3.559292 0.943996,0.944202 2.224135,1.47522 3.559308,1.476773 H 22.964481 22.96429 c 1.335187,-0.0016 2.61532,-0.532571 3.559324,-1.476773 0.944187,-0.94401 1.475229,-2.22414 1.476754,-3.559292 V 9.036333 C 27.998568,7.701169 27.467801,6.42105 26.523614,5.477043 25.57961,4.532842 24.299477,4.001805 22.964289,4.000269 Z M 9.2003771,6.000019 H 22.800377 c 0.887099,0.0013 1.603763,0.04387 2.230994,0.671242 0.627241,0.627203 0.967903,1.441662 0.969008,2.328757 V 23.000026 H 6.0003811 V 9.000018 c 0.0013,-0.887095 0.341778,-1.701516 0.968993,-2.328757 0.627209,-0.627224 1.343924,-0.670155 2.231003,-0.671242 z"
       id="path1193-36-3"
       style="fill:#d3dae3;fill-opacity:1;stroke-width:0.0476193;enable-background:new"
       sodipodi:nodetypes="ccccccccccccccccccccccccc" />
    <path
       d="m 11.772218,21.874398 c -0.596563,-0.342848 -1.084656,-0.665087 -1.084656,-0.716087 0,-0.05096 0.458208,-0.883066 1.018247,-1.849047 0.560036,-0.965982 1.018247,-1.827028 1.018247,-1.913438 0,-0.08641 -0.06972,-0.253715 -0.154953,-0.371791 -0.08524,-0.118076 -0.274478,-0.435164 -0.420578,-0.704629 L 11.88289,15.829457 9.6914487,15.805807 7.5,15.782177 v -1.278455 -1.278457 l 2.1914487,-0.02364 2.1914413,-0.02363 0.265635,-0.489946 c 0.1461,-0.269474 0.335357,-0.586553 0.420578,-0.704629 0.08524,-0.118074 0.154953,-0.285385 0.154953,-0.371797 0,-0.08641 -0.458211,-0.947454 -1.018247,-1.913436 -0.560039,-0.9659361 -1.018247,-1.79578 -1.018247,-1.844051 0,-0.04828 0.328716,-0.277342 0.730478,-0.509047 0.401766,-0.231705 0.895344,-0.516633 1.096838,-0.633178 L 12.881237,6.5 13.83484,8.159751 c 1.353534,2.355827 1.096265,2.107719 2.179398,2.10178 l 0.915308,-0.0052 1.062678,-1.823954 C 18.576697,7.4292 19.080453,6.595086 19.11168,6.57879 c 0.08639,-0.04511 2.201081,1.170293 2.201081,1.265038 0,0.04555 -0.475991,0.9025259 -1.057756,1.904444 -1.020816,1.758055 -1.053255,1.829686 -0.92892,2.051141 0.07086,0.126202 0.279845,0.487982 0.46442,0.80395 l 0.335584,0.574483 2.187111,0.02363 2.18712,0.02363 v 1.278457 1.278463 l -2.18712,0.02362 -2.187111,0.02362 -0.335584,0.574486 c -0.184575,0.31597 -0.393563,0.677746 -0.46442,0.80395 -0.124332,0.221451 -0.0919,0.293085 0.928924,2.051143 0.581764,1.00192 1.057752,1.857448 1.057752,1.901169 0,0.0727 -1.925336,1.227176 -2.128972,1.276589 -0.04839,0.01175 -0.575391,-0.81276 -1.171112,-1.832236 l -1.083131,-1.853493 -0.915308,-0.0049 c -1.081723,-0.0062 -0.820233,-0.25812 -2.176705,2.099209 -0.524468,0.911446 -0.959672,1.656142 -0.96712,1.654887 -0.008,-0.0017 -0.501636,-0.282798 -1.098195,-0.625653 z m 5.508775,-4.529682 c 0.641942,-0.293354 1.199469,-0.825516 1.513976,-1.445102 0.236022,-0.464959 0.259941,-0.593377 0.259941,-1.395892 0,-0.802516 -0.02389,-0.930934 -0.259941,-1.395897 -0.317244,-0.624973 -0.870718,-1.149959 -1.539695,-1.460445 -0.419568,-0.194729 -0.626699,-0.233084 -1.255116,-0.232428 -0.967996,0.0014 -1.649177,0.286715 -2.285869,0.9587 -1.627746,1.717968 -0.764231,4.592915 1.555029,5.177239 0.536378,0.13514 1.47539,0.0389 2.011675,-0.206175 z"
       id="path12"
       style="color:#d6dbf1;fill:#d3dae3;fill-opacity:1;stroke:none;stroke-opacity:1"
       class="ColorScheme-Text"
       stroke-width="0.396311" />
  </g>
  <g
     id="22-22-solaar"
     transform="translate(32,10)">
    <rect
       style="opacity:0.00100002"
       width="22"
       height="22"
       x="0"
       y="0"
       id="rect1399" />
    <path
       inkscape:connector-curvature="0"
       id="path9068-9-37-8-0-1-0-1-3-7-4-6-1"
       d="M 19.474508,2.598 2.356,2.598005 v 14.790996 h 17.288 z"
       style="display:inline;overflow:visible;visibility:visible;opacity:0.6;fill:url(#linearGradient6958);fill-opacity:1;fill-rule:nonzero;stroke:none;stroke-width:0.55969;marker:none"
       sodipodi:nodetypes="cccccc" />
    <path
       d="M 16.80301,1 H 5.19674 C 4.08409,1.0015 3.01728,1.443813 2.23062,2.230647 1.44377,3.017321 1.00126,4.084062 1,5.196723 v 11.60671 -1.58e-4 c 8.6e-4,1.11263 0.44377,2.179402 1.23062,2.96608 C 3.01728,20.556189 4.08409,20.998709 5.19674,21 h 11.6067 -1.9e-4 c 1.11265,-0.0012 2.17946,-0.443811 2.96611,-1.230645 0.78686,-0.786678 1.22937,-1.85345 1.23063,-2.96608 V 5.196946 C 20.99799,4.084311 20.55622,3.017544 19.76936,2.230866 18.98271,1.444033 17.9159,1.001508 16.80325,1.000224 Z M 5.617,3.000025 h 10.766 c 0.73924,0.0011 1.43628,-0.113833 1.959,0.409 0.52269,0.52268 0.6571,1.018408 0.658,1.757653 V 17.000025 H 3 V 5.166678 C 3.00085,4.427433 3.13532,3.931741 3.658,3.409025 4.18068,2.886346 4.87778,3.000935 5.617,3.000025 Z"
       id="path1193-3-3"
       style="fill:#d3dae3;fill-opacity:1;stroke-width:0.0396829"
       sodipodi:nodetypes="ccccccccccccccccccccccccc" />
    <path
       d="m 7.804155,15.530764 c -0.447419,-0.257135 -0.81349,-0.498813 -0.81349,-0.537063 0,-0.03818 0.343657,-0.662297 0.763684,-1.38678 0.420025,-0.724485 0.763684,-1.370269 0.763684,-1.435079 0,-0.06481 -0.05227,-0.190284 -0.116214,-0.278841 -0.06394,-0.08857 -0.20586,-0.326369 -0.315433,-0.528468 L 7.88716,10.997074 6.243581,10.979334 4.6,10.961624 V 10.002787 9.043945 L 6.243581,9.026215 7.88716,9.008485 8.086386,8.641027 C 8.195959,8.438922 8.337903,8.201113 8.401819,8.112556 8.465749,8.023996 8.518033,7.898517 8.518033,7.833708 8.518033,7.768898 8.174374,7.123119 7.754349,6.398634 7.334322,5.674182 6.990665,5.051804 6.990665,5.015601 c 0,-0.03622 0.246538,-0.208007 0.54786,-0.381786 C 7.839848,4.460036 8.210029,4.246341 8.36115,4.158937 L 8.635918,4 9.351119,5.244812 c 1.015148,1.766865 0.822197,1.580783 1.634544,1.576329 l 0.68648,-0.004 0.797006,-1.367963 c 0.438354,-0.752379 0.81617,-1.377965 0.83959,-1.390185 0.06479,-0.03384 1.650807,0.877717 1.650807,0.948773 0,0.03421 -0.356992,0.676894 -0.793315,1.42833 -0.76561,1.318542 -0.789939,1.372261 -0.696688,1.538352 0.05314,0.09465 0.209883,0.365985 0.348314,0.602962 l 0.251687,0.430862 1.64033,0.01773 1.640336,0.01773 v 0.958842 0.958845 l -1.640336,0.01773 -1.64033,0.01771 -0.251687,0.430866 c -0.138431,0.236976 -0.295172,0.508307 -0.348314,0.602959 -0.09325,0.166089 -0.06893,0.219814 0.696691,1.538351 0.436322,0.751439 0.793312,1.393084 0.793312,1.425875 0,0.05457 -1.443998,0.92038 -1.596725,0.95744 -0.03629,0.0088 -0.431542,-0.60957 -0.878332,-1.374174 l -0.812346,-1.390116 -0.68648,-0.0037 c -0.81129,-0.005 -0.615173,-0.193589 -1.632525,1.574403 -0.39335,0.683584 -0.719752,1.242104 -0.725337,1.241162 -0.0061,-0.0017 -0.376227,-0.212099 -0.823646,-0.469239 z m 4.131572,-3.397252 c 0.481456,-0.220015 0.8996,-0.619135 1.13548,-1.083824 0.177016,-0.348717 0.194955,-0.445031 0.194955,-1.046915 0,-0.601887 -0.01792,-0.6982 -0.194955,-1.046921 C 12.833274,8.487123 12.418169,8.093385 11.916438,7.86052 11.601763,7.714475 11.446415,7.685708 10.975103,7.6862 10.249109,7.6876 9.738223,7.901236 9.260707,8.405226 c -1.220807,1.288472 -0.573172,3.444676 1.166268,3.88292 0.402282,0.101353 1.106539,0.02918 1.508752,-0.154634 z"
       id="path12-3"
       style="color:#d6dbf1;fill:#d3dae3;fill-opacity:1;stroke:none;stroke-opacity:1"
       class="ColorScheme-Text"
       stroke-width="0.297231" />
  </g>
</svg>
