<?xml version="1.0" encoding="UTF-8" standalone="no"?>
<svg
   viewBox="0 0 32 32"
   id="svg2"
   version="1.1"
   sodipodi:docname="start.svg"
   inkscape:version="1.2.1 (9c6d41e410, 2022-07-14)"
   width="32"
   height="32"
   xmlns:inkscape="http://www.inkscape.org/namespaces/inkscape"
   xmlns:sodipodi="http://sodipodi.sourceforge.net/DTD/sodipodi-0.dtd"
   xmlns="http://www.w3.org/2000/svg"
   xmlns:svg="http://www.w3.org/2000/svg"
   xmlns:rdf="http://www.w3.org/1999/02/22-rdf-syntax-ns#"
   xmlns:cc="http://creativecommons.org/ns#"
   xmlns:dc="http://purl.org/dc/elements/1.1/">
  <sodipodi:namedview
     pagecolor="#ffffff"
     bordercolor="#000000"
     borderopacity="1"
     objecttolerance="10"
     gridtolerance="10"
     guidetolerance="10"
     inkscape:pageopacity="0"
     inkscape:pageshadow="2"
     inkscape:window-width="1920"
     inkscape:window-height="1002"
     id="namedview17"
     showgrid="false"
     inkscape:zoom="5.656854"
     inkscape:cx="11.402097"
     inkscape:cy="25.72101"
     inkscape:window-x="0"
     inkscape:window-y="0"
     inkscape:window-maximized="1"
     inkscape:current-layer="svg2"
     inkscape:lockguides="true"
     inkscape:document-rotation="0"
     inkscape:showpageshadow="true"
     inkscape:pagecheckerboard="0"
     inkscape:deskcolor="#d1d1d1">
    <inkscape:grid
       type="xygrid"
       id="grid842"
       originx="-22"
       originy="0" />
  </sodipodi:namedview>
  <metadata
     id="metadata21">
    <rdf:RDF>
      <cc:Work
         rdf:about="">
        <dc:format>image/svg+xml</dc:format>
        <dc:type
           rdf:resource="http://purl.org/dc/dcmitype/StillImage" />
      </cc:Work>
    </rdf:RDF>
  </metadata>
  <defs
     id="defs3051">
    <style
       type="text/css"
       id="current-color-scheme">
      .ColorScheme-Text {
        color:#31363b;
      }
      </style>
  </defs>
  <g
     id="start-here-kde">
    <rect
       style="fill:none;fill-rule:evenodd;stroke:none;stroke-width:1px;stroke-linecap:butt;stroke-linejoin:miter;stroke-opacity:1"
       id="rect3343"
       width="32"
       height="32"
       x="0"
       y="0" />
    <path
       id="rect4328"
       d="M 5.7946495,1 H 26.20535 C 28.861585,1 31,3.1677066 31,5.8603289 V 26.139671 C 31,28.832295 28.861586,31 26.20535,31 H 5.7946495 c -2.656236,0 -4.794649,-2.167705 -4.794649,-4.860329 V 5.8603289 C 1.0000005,3.1677066 3.1384135,1 5.7946495,1 Z"
       style="fill:#3b5a87;fill-opacity:0.35;fill-rule:nonzero;stroke:none;stroke-width:0;stroke-linecap:round;stroke-linejoin:round;stroke-miterlimit:4;stroke-dasharray:none;stroke-opacity:1"
       inkscape:connector-curvature="0" />
    <path
       d="m 17.145392,9.89099 c 0,0.62245 -0.50451,1.12719 -1.127189,1.12719 -0.62246,0 -1.1272,-0.50476 -1.1272,-1.12719 0,-0.62271 0.50476,-1.127458 1.1272,-1.127458 0.622699,0 1.127189,0.504758 1.127189,1.127458"
       id="path958"
       style="fill:#d3dae3;fill-opacity:1;stroke-width:0.0649343" />
    <path
       d="m 22.708963,7.236473 c 0,0.522266 -0.42309,0.945572 -0.94538,0.945572 -0.52227,0 -0.94538,-0.423339 -0.94538,-0.945572 0,-0.522013 0.423089,-0.945378 0.94538,-0.945378 0.522269,0 0.94538,0.4233389 0.94538,0.945378"
       id="path960"
       style="fill:#d3dae3;fill-opacity:1;stroke-width:0.0649343" />
    <path
       d="m 24.381672,7.600105 c 0,0.30108 -0.24427,0.545343 -0.5456,0.545343 -0.301079,0 -0.545349,-0.244263 -0.545349,-0.545343 0,-0.301334 0.24427,-0.545598 0.545349,-0.545598 0.30133,0 0.5456,0.244264 0.5456,0.545598"
       id="path962"
       style="fill:#d3dae3;fill-opacity:1;stroke-width:0.0649343" />
    <path
       d="m 19.536922,6.763102 c 0.732,0.458092 0.95421,1.42271 0.49614,2.154778 -0.45835,0.7319999 -1.42297,0.95421 -2.15504,0.49614 -0.732009,-0.45809 -0.95421,-1.422972 -0.49614,-2.155041 0.458091,-0.732004 1.42297,-0.954209 2.15504,-0.495884"
       id="path964"
       style="fill:#d3dae3;fill-opacity:1;stroke-width:0.0649343" />
    <path
       d="m 20.708983,11.12733 c 0,0.62246 -0.504761,1.1272 -1.12745,1.1272 -0.62245,0 -1.12719,-0.50476 -1.12719,-1.1272 0,-0.6227 0.50476,-1.12719 1.12719,-1.12719 0.62271,0 1.12745,0.50451 1.12745,1.12719"
       id="path966"
       style="fill:#d3dae3;fill-opacity:1;stroke-width:0.0649343" />
    <path
       d="m 26.708912,12.36368 c 0,0.52227 -0.42334,0.94538 -0.94538,0.94538 -0.522269,0 -0.94557,-0.42309 -0.94557,-0.94538 0,-0.52229 0.42334,-0.94538 0.94557,-0.94538 0.522011,0 0.94538,0.42309 0.94538,0.94538"
       id="path968"
       style="fill:#d3dae3;fill-opacity:1;stroke-width:0.0649343" />
    <path
       d="m 27.799803,13.89094 c 0,0.30133 -0.24426,0.54559 -0.54559,0.54559 -0.30108,0 -0.54535,-0.24426 -0.54535,-0.54559 0,-0.30134 0.24427,-0.54535 0.54535,-0.54535 0.30133,0 0.54559,0.24401 0.54559,0.54535"
       id="path970"
       style="fill:#d3dae3;fill-opacity:1;stroke-width:0.0649343" />
    <path
       d="m 24.418032,11.23642 c 0,0.86343 -0.70006,1.56349 -1.56349,1.56349 -0.86369,0 -1.56375,-0.70006 -1.56375,-1.56349 0,-0.86369 0.70006,-1.5637401 1.56375,-1.5637401 0.86343,0 1.56349,0.7000501 1.56349,1.5637401"
       id="path972"
       style="fill:#d3dae3;fill-opacity:1;stroke-width:0.0649343" />
    <path
       d="m 22.890772,14.2182 c 0,0.62271 -0.50476,1.12746 -1.127189,1.12746 -0.62245,0 -1.12719,-0.50476 -1.12719,-1.12746 0,-0.62245 0.50476,-1.12719 1.12719,-1.12719 0.62245,0 1.127189,0.50476 1.127189,1.12719"
       id="path974"
       style="fill:#d3dae3;fill-opacity:1;stroke-width:0.0649343" />
    <path
       d="m 26.963452,18.87269 c 0,0.52227 -0.42308,0.94557 -0.94538,0.94557 -0.52201,0 -0.94537,-0.42333 -0.94537,-0.94557 0,-0.52201 0.42333,-0.94538 0.94537,-0.94538 0.52227,0 0.94538,0.42334 0.94538,0.94538"
       id="path976"
       style="fill:#d3dae3;fill-opacity:1;stroke-width:0.0649343" />
    <path
       d="m 26.272552,20.43631 c -0.29094,0.0363 -0.4728,0.32721 -0.43628,0.618141 0.0363,0.29094 0.32721,0.4728 0.61814,0.436279 0.29094,-0.0363 0.4728,-0.32721 0.43628,-0.618139 -0.0365,-0.29094 -0.327459,-0.472551 -0.61814,-0.436281 z"
       id="path978"
       style="fill:#d3dae3;fill-opacity:1;stroke-width:0.0649343" />
    <path
       d="m 25.872563,16.21818 c 0,0.86369 -0.700061,1.56375 -1.56375,1.56375 -0.86343,0 -1.563491,-0.70006 -1.563491,-1.56375 0,-0.86343 0.700061,-1.56349 1.563491,-1.56349 0.863689,0 1.56375,0.70006 1.56375,1.56349"
       id="path980"
       style="fill:#d3dae3;fill-opacity:1;stroke-width:0.0649343" />
    <path
       d="m 22.818052,17.99998 c 0,0.62245 -0.50451,1.12719 -1.127199,1.12719 -0.62245,0 -1.12719,-0.50476 -1.12719,-1.12719 0,-0.62271 0.50476,-1.1272 1.12719,-1.1272 0.62271,0 1.127199,0.50451 1.127199,1.1272"
       id="path982"
       style="fill:#d3dae3;fill-opacity:1;stroke-width:0.0649343" />
    <path
       d="m 22.762203,23.38108 c 0.485749,0.19201 0.72389,0.74116 0.531909,1.22693 -0.191759,0.48549 -0.7409,0.72369 -1.22668,0.5319 -0.48574,-0.19176 -0.72388,-0.74116 -0.5319,-1.22667 0.19176,-0.48574 0.7409,-0.72389 1.22667,-0.53216"
       id="path984"
       style="fill:#d3dae3;fill-opacity:1;stroke-width:0.0649343" />
    <path
       d="m 21.690792,25.67261 c -0.25467,-0.14535 -0.581869,-0.0363 -0.7272,0.21814 -0.14534,0.25466 -0.0363,0.58187 0.21814,0.7272 0.25467,0.14534 0.58187,0.0363 0.7272,-0.21814 0.1456,-0.25467 0.0365,-0.58187 -0.21814,-0.7272 z"
       id="path986"
       style="fill:#d3dae3;fill-opacity:1;stroke-width:0.0649343" />
    <path
       d="m 24.127122,21.12721 c 0,0.86343 -0.70005,1.56349 -1.56348,1.56349 -0.863689,0 -1.563749,-0.70006 -1.563749,-1.56349 0,-0.86369 0.70006,-1.56375 1.563749,-1.56375 0.863431,0 1.56348,0.70006 1.56348,1.56375"
       id="path988"
       style="fill:#d3dae3;fill-opacity:1;stroke-width:0.0649343" />
    <path
       d="m 20.527172,21.018121 c 0,0.622449 -0.50476,1.12719 -1.1272,1.12719 -0.6227,0 -1.127449,-0.504761 -1.127449,-1.12719 0,-0.62271 0.50476,-1.12719 1.127449,-1.12719 0.62246,0 1.1272,0.504499 1.1272,1.12719"
       id="path990"
       style="fill:#d3dae3;fill-opacity:1;stroke-width:0.0649343" />
    <path
       d="m 16.807732,25.71352 c 0.445921,0.27165 0.586951,0.8533 0.315291,1.2992 -0.271661,0.44592 -0.853561,0.5872 -1.29946,0.31554 -0.44592,-0.27166 -0.5872,-0.85356 -0.31529,-1.29946 0.27166,-0.44592 0.85356,-0.5872 1.29946,-0.31529"
       id="path992"
       style="fill:#d3dae3;fill-opacity:1;stroke-width:0.0649343" />
    <path
       d="m 14.963603,27.4544 c 0,0.30134 -0.24426,0.5456 -0.5456,0.5456 -0.30108,0 -0.54534,-0.24426 -0.54534,-0.5456 0,-0.30108 0.24426,-0.54534 0.54534,-0.54534 0.30134,0 0.5456,0.24426 0.5456,0.54534"
       id="path994"
       style="fill:#d3dae3;fill-opacity:1;stroke-width:0.0649343" />
    <path
       d="m 19.044722,22.70836 c 0.7559,0.41751 1.03031,1.36868 0.61307,2.12458 -0.41751,0.7559 -1.36843,1.03057 -2.12459,0.61307 -0.75589,-0.41725 -1.03031,-1.36842 -0.61307,-2.124579 0.41751,-0.755901 1.36843,-1.030311 2.12459,-0.613071"
       id="path996"
       style="fill:#d3dae3;fill-opacity:1;stroke-width:0.0649343" />
    <path
       d="m 16.801242,21.59474 c 0.283581,0.55422 0.0642,1.23323 -0.49005,1.51679 -0.554479,0.28359 -1.233489,0.0639 -1.517059,-0.490299 -0.28357,-0.554231 -0.0639,-1.233231 0.4903,-1.5168 0.554229,-0.283581 1.233499,-0.0642 1.5168,0.490309"
       id="path998"
       style="fill:#d3dae3;fill-opacity:1;stroke-width:0.0649343" />
    <path
       d="m 11.000014,24.76353 c 0,0.52201 -0.423081,0.94538 -0.945371,0.94538 -0.5222705,0 -0.9453795,-0.42334 -0.9453795,-0.94538 0,-0.52227 0.423079,-0.94558 0.9453795,-0.94558 0.52226,0 0.945371,0.42334 0.945371,0.94558"
       id="path1000"
       style="fill:#d3dae3;fill-opacity:1;stroke-width:0.0649343" />
    <path
       d="m 8.5273235,24.3999 c 0,0.30133 -0.244271,0.54559 -0.545351,0.54559 -0.30133,0 -0.54559,-0.24426 -0.54559,-0.54559 0,-0.30109 0.24426,-0.54535 0.54559,-0.54535 0.30108,0 0.545351,0.24426 0.545351,0.54535"
       id="path1002"
       style="fill:#d3dae3;fill-opacity:1;stroke-width:0.0649343" />
    <path
       d="m 13.342843,22.357711 c 0.85376,0.130629 1.43972,0.928369 1.30908,1.782119 -0.13063,0.85356 -0.92863,1.43973 -1.782121,1.30908 -0.853759,-0.13063 -1.43973,-0.92863 -1.30908,-1.78238 0.13063,-0.85356 0.92863,-1.43972 1.782121,-1.308819"
       id="path1004"
       style="fill:#d3dae3;fill-opacity:1;stroke-width:0.0649343" />
    <path
       d="m 13.363623,20.87267 c 0,0.6227 -0.50476,1.12719 -1.127189,1.12719 -0.62271,0 -1.12746,-0.50451 -1.12746,-1.12719 0,-0.622459 0.504759,-1.1272 1.12746,-1.1272 0.622449,0 1.127189,0.50476 1.127189,1.1272"
       id="path1006"
       style="fill:#d3dae3;fill-opacity:1;stroke-width:0.0649343" />
    <path
       d="m 7.0000625,19.636321 c 0,0.522259 -0.42334,0.945379 -0.94557,0.945379 -0.52201,0 -0.94538,-0.42309 -0.94538,-0.945379 0,-0.522291 0.42334,-0.945381 0.94538,-0.945381 0.52227,0 0.94557,0.42309 0.94557,0.945381"
       id="path1008"
       style="fill:#d3dae3;fill-opacity:1;stroke-width:0.0649343" />
    <path
       d="m 4.9273625,18.50906 c 0.21814,-0.21814 0.21814,-0.54534 0,-0.76376 -0.21814,-0.21814 -0.54534,-0.21814 -0.76375,0 -0.21815,0.21814 -0.21815,0.54535 0,0.76376 0.21839,0.18187 0.54559,0.18187 0.76375,0 z"
       id="path1010"
       style="fill:#d3dae3;fill-opacity:1;stroke-width:0.0649343" />
    <path
       d="m 10.527293,20.76358 c 0,0.863691 -0.7000505,1.563741 -1.5637395,1.563741 -0.863441,0 -1.563491,-0.70005 -1.563491,-1.563741 0,-0.86343 0.70005,-1.563489 1.563491,-1.563489 0.863689,0 1.5637395,0.700059 1.5637395,1.563489"
       id="path1012"
       style="fill:#d3dae3;fill-opacity:1;stroke-width:0.0649343" />
    <path
       d="m 11.181833,17.7818 c 0,0.62245 -0.50476,1.12719 -1.12719,1.12719 -0.6224595,0 -1.1272005,-0.50476 -1.1272005,-1.12719 0,-0.62271 0.50476,-1.12746 1.1272005,-1.12746 0.622451,0 1.12719,0.50476 1.12719,1.12746"
       id="path1014"
       style="fill:#d3dae3;fill-opacity:1;stroke-width:0.0649343" />
    <path
       d="m 6.7455225,13.12731 c 0,0.52201 -0.42334,0.94538 -0.94538,0.94538 -0.52226,0 -0.94537,-0.42334 -0.94537,-0.94538 0,-0.52227 0.42308,-0.94557 0.94537,-0.94557 0.52202,0 0.94538,0.42333 0.94538,0.94557"
       id="path1016"
       style="fill:#d3dae3;fill-opacity:1;stroke-width:0.0649343" />
    <path
       d="m 5.5455425,11.56369 c 0.29093,-0.0363 0.4728,-0.32721 0.43628,-0.61814 -0.0363,-0.29094 -0.32721,-0.4728 -0.61815,-0.43628 -0.29093,0.0363 -0.47279,0.32721 -0.43628,0.61814 0.0728,0.29094 0.32747,0.47255 0.61815,0.43628 z"
       id="path1018"
       style="fill:#d3dae3;fill-opacity:1;stroke-width:0.0649343" />
    <path
       d="m 9.0727625,15.78182 c 0,0.86343 -0.70005,1.56349 -1.56348,1.56349 -0.86369,0 -1.56375,-0.70006 -1.56375,-1.56349 0,-0.86369 0.70006,-1.56375 1.56375,-1.56375 0.86343,0 1.56348,0.70006 1.56348,1.56375"
       id="path1020"
       style="fill:#d3dae3;fill-opacity:1;stroke-width:0.0649343" />
    <path
       d="m 11.254564,14.00002 c 0,0.62271 -0.504761,1.1272 -1.127201,1.1272 -0.6226995,0 -1.1271905,-0.50451 -1.1271905,-1.1272 0,-0.62245 0.5045,-1.12719 1.1271905,-1.12719 0.62246,0 1.127201,0.50476 1.127201,1.12719"
       id="path1022"
       style="fill:#d3dae3;fill-opacity:1;stroke-width:0.0649343" />
    <path
       d="m 9.7987325,6.879984 c 0.4745805,0.21738 0.6831105,0.778691 0.4654505,1.253296 -0.21738,0.474831 -0.7784305,0.68311 -1.2533005,0.465702 -0.47458,-0.217634 -0.68311,-0.778692 -0.4657,-1.253556 0.21763,-0.474579 0.77869,-0.6831081 1.25356,-0.4654491"
       id="path1024"
       style="fill:#d3dae3;fill-opacity:1;stroke-width:0.0649343" />
    <path
       d="m 10.127303,6.327393 c 0.25466,0.145342 0.58187,0.03627 0.7272,-0.21814 0.14534,-0.254666 0.0363,-0.5818691 -0.21814,-0.727199 -0.25467,-0.145342 -0.58187,-0.03627 -0.7272,0.21814 -0.1455995,0.254666 -0.0365,0.58187 0.21814,0.727199 z"
       id="path1026"
       style="fill:#d3dae3;fill-opacity:1;stroke-width:0.0649343" />
    <path
       d="m 10.818203,10.87279 c 0,0.86369 -0.70006,1.56375 -1.5637505,1.56375 -0.86343,0 -1.56349,-0.70006 -1.56349,-1.56375 0,-0.86343 0.70006,-1.56349 1.56349,-1.56349 0.8636905,0 1.5637505,0.70006 1.5637505,1.56349"
       id="path1028"
       style="fill:#d3dae3;fill-opacity:1;stroke-width:0.0649343" />
    <path
       d="m 13.209083,10.18059 c 0.44008,0.44008 0.44008,1.15388 0,1.5942 -0.44034,0.44008 -1.15408,0.44008 -1.5942,0 -0.44034,-0.44033 -0.44034,-1.15407 0,-1.5942 0.44007,-0.44033 1.15388,-0.44033 1.5942,0"
       id="path1030"
       style="fill:#d3dae3;fill-opacity:1;stroke-width:0.0649343" />
    <path
       d="m 15.725933,4.559233 c 0.507299,0.123525 0.818299,0.635135 0.69473,1.142454 -0.12352,0.507298 -0.63513,0.818301 -1.14245,0.694731 -0.5073,-0.123777 -0.8183,-0.635135 -0.69473,-1.142453 0.12357,-0.507318 0.63513,-0.818496 1.14245,-0.694732"
       id="path1032"
       style="fill:#d3dae3;fill-opacity:1;stroke-width:0.0649343" />
    <path
       d="m 17.945383,4.545597 c 0,0.301081 -0.244261,0.545344 -0.54534,0.545344 -0.30134,0 -0.5456,-0.244263 -0.5456,-0.545344 0,-0.301334 0.24426,-0.545597 0.5456,-0.545597 0.301079,0 0.54534,0.244263 0.54534,0.545597"
       id="path1034"
       style="fill:#d3dae3;fill-opacity:1;stroke-width:0.0649343" />
    <path
       d="m 14.322703,6.576091 c 0.74343,0.4395729 0.98973,1.39836 0.55017,2.141792 -0.43932,0.7431769 -1.39836,0.989467 -2.14153,0.550167 -0.74344,-0.43957 -0.989729,-1.398358 -0.550169,-2.14179 0.439319,-0.7431731 1.398099,-0.989468 2.141529,-0.550169"
       id="path1036"
       style="fill:#d3dae3;fill-opacity:1;stroke-width:0.0649343" />
  </g>
  <g
     id="22-22-start-here-kde"
     transform="translate(-2e-5,32.037)">
    <rect
       style="fill:none;fill-opacity:1;stroke:none"
       id="rect4150"
       width="22"
       height="22"
       x="0"
       y="0" />
    <path
       id="rect4328-3"
       d="M 4.196433,1 H 17.803567 C 19.57439,1 21,2.445138 21,4.240219 V 17.759781 C 21,19.554863 19.574391,21 17.803567,21 H 4.196433 C 2.425609,21 1,19.554863 1,17.759781 V 4.240219 C 1,2.445138 2.425609,1 4.196433,1 Z"
       style="fill:#3b5a87;fill-opacity:0.35;fill-rule:nonzero;stroke:none;stroke-width:0;stroke-linecap:round;stroke-linejoin:round;stroke-miterlimit:4;stroke-dasharray:none;stroke-opacity:1"
       inkscape:connector-curvature="0" />
    <path
       d="m 11.763595,6.927327 c 0,0.414966 -0.33634,0.75146 -0.75146,0.75146 -0.414973,0 -0.751466,-0.336507 -0.751466,-0.75146 0,-0.41514 0.336506,-0.751639 0.751466,-0.751639 0.415133,0 0.75146,0.336505 0.75146,0.751639"
       id="path958-6"
       style="fill:#d3dae3;fill-opacity:1;stroke-width:0.0432895" />
    <path
       d="m 15.472642,5.157649 c 0,0.348177 -0.28206,0.630381 -0.630253,0.630381 -0.34818,0 -0.630254,-0.282226 -0.630254,-0.630381 0,-0.348009 0.28206,-0.630252 0.630254,-0.630252 0.348179,0 0.630253,0.282226 0.630253,0.630252"
       id="path960-7"
       style="fill:#d3dae3;fill-opacity:1;stroke-width:0.0432895" />
    <path
       d="m 16.587781,5.40007 c 0,0.20072 -0.162846,0.363562 -0.363733,0.363562 -0.200719,0 -0.363566,-0.162842 -0.363566,-0.363562 0,-0.200889 0.162847,-0.363732 0.363566,-0.363732 0.200887,0 0.363733,0.162843 0.363733,0.363732"
       id="path962-5"
       style="fill:#d3dae3;fill-opacity:1;stroke-width:0.0432895" />
    <path
       d="m 13.357948,4.842068 c 0.488,0.305395 0.63614,0.948473 0.33076,1.436519 -0.305567,0.488 -0.948647,0.63614 -1.436693,0.33076 -0.488006,-0.305394 -0.63614,-0.948648 -0.33076,-1.436694 0.305394,-0.488003 0.948646,-0.63614 1.436693,-0.33059"
       id="path964-3"
       style="fill:#d3dae3;fill-opacity:1;stroke-width:0.0432895" />
    <path
       d="m 14.139322,7.751553 c 0,0.414974 -0.336507,0.751467 -0.751633,0.751467 -0.414967,0 -0.75146,-0.336507 -0.75146,-0.751467 0,-0.415133 0.336506,-0.75146 0.75146,-0.75146 0.41514,0 0.751633,0.33634 0.751633,0.75146"
       id="path966-5"
       style="fill:#d3dae3;fill-opacity:1;stroke-width:0.0432895" />
    <path
       d="m 18.139275,8.575787 c 0,0.34818 -0.282227,0.630253 -0.630254,0.630253 -0.348179,0 -0.63038,-0.28206 -0.63038,-0.630253 0,-0.348194 0.282227,-0.630254 0.63038,-0.630254 0.348008,0 0.630254,0.28206 0.630254,0.630254"
       id="path968-6"
       style="fill:#d3dae3;fill-opacity:1;stroke-width:0.0432895" />
    <path
       d="m 18.866535,9.59396 c 0,0.200887 -0.16284,0.363727 -0.363726,0.363727 -0.20072,0 -0.363567,-0.16284 -0.363567,-0.363727 0,-0.200893 0.162847,-0.363567 0.363567,-0.363567 0.200886,0 0.363726,0.162674 0.363726,0.363567"
       id="path970-2"
       style="fill:#d3dae3;fill-opacity:1;stroke-width:0.0432895" />
    <path
       d="m 16.612021,7.82428 c 0,0.57562 -0.466706,1.042327 -1.042326,1.042327 -0.575794,0 -1.0425,-0.466707 -1.0425,-1.042327 0,-0.575793 0.466706,-1.042493 1.0425,-1.042493 0.57562,0 1.042326,0.4667 1.042326,1.042493"
       id="path972-9"
       style="fill:#d3dae3;fill-opacity:1;stroke-width:0.0432895" />
    <path
       d="m 15.593848,9.812133 c 0,0.41514 -0.336507,0.75164 -0.751459,0.75164 -0.414967,0 -0.75146,-0.336506 -0.75146,-0.75164 0,-0.414966 0.336506,-0.75146 0.75146,-0.75146 0.414966,0 0.751459,0.336507 0.751459,0.75146"
       id="path974-1"
       style="fill:#d3dae3;fill-opacity:1;stroke-width:0.0432895" />
    <path
       d="m 18.308968,12.915127 c 0,0.34818 -0.282053,0.63038 -0.630253,0.63038 -0.348007,0 -0.630247,-0.28222 -0.630247,-0.63038 0,-0.348007 0.28222,-0.630254 0.630247,-0.630254 0.34818,0 0.630253,0.282227 0.630253,0.630254"
       id="path976-2"
       style="fill:#d3dae3;fill-opacity:1;stroke-width:0.0432895" />
    <path
       d="m 17.848368,13.95754 c -0.19396,0.0242 -0.3152,0.21814 -0.290853,0.412094 0.0242,0.19396 0.21814,0.3152 0.412093,0.290853 0.19396,-0.0242 0.3152,-0.21814 0.290853,-0.412093 -0.02433,-0.19396 -0.218306,-0.315034 -0.412093,-0.290854 z"
       id="path978-7"
       style="fill:#d3dae3;fill-opacity:1;stroke-width:0.0432895" />
    <path
       d="m 17.581709,11.145453 c 0,0.575794 -0.466708,1.0425 -1.0425,1.0425 -0.57562,0 -1.042328,-0.466706 -1.042328,-1.0425 0,-0.57562 0.466708,-1.042326 1.042328,-1.042326 0.575792,0 1.0425,0.466706 1.0425,1.042326"
       id="path980-0"
       style="fill:#d3dae3;fill-opacity:1;stroke-width:0.0432895" />
    <path
       d="m 15.545368,12.33332 c 0,0.414967 -0.33634,0.75146 -0.751466,0.75146 -0.414967,0 -0.75146,-0.336507 -0.75146,-0.75146 0,-0.41514 0.336507,-0.751467 0.75146,-0.751467 0.41514,0 0.751466,0.33634 0.751466,0.751467"
       id="path982-9"
       style="fill:#d3dae3;fill-opacity:1;stroke-width:0.0432895" />
    <path
       d="m 15.508135,15.92072 c 0.323833,0.128007 0.482594,0.494107 0.354606,0.817953 -0.127839,0.32366 -0.493933,0.48246 -0.817786,0.3546 -0.323827,-0.12784 -0.482587,-0.494106 -0.3546,-0.81778 0.12784,-0.323826 0.493933,-0.482593 0.81778,-0.354773"
       id="path984-3"
       style="fill:#d3dae3;fill-opacity:1;stroke-width:0.0432895" />
    <path
       d="m 14.793861,17.448407 c -0.16978,-0.0969 -0.387912,-0.0242 -0.4848,0.145426 -0.09689,0.169774 -0.0242,0.387914 0.145427,0.4848 0.16978,0.09689 0.387913,0.0242 0.4848,-0.145426 0.09707,-0.16978 0.02433,-0.387914 -0.145427,-0.4848 z"
       id="path986-6"
       style="fill:#d3dae3;fill-opacity:1;stroke-width:0.0432895" />
    <path
       d="m 16.418081,14.41814 c 0,0.57562 -0.4667,1.042327 -1.04232,1.042327 -0.575792,0 -1.042499,-0.466707 -1.042499,-1.042327 0,-0.575793 0.466707,-1.0425 1.042499,-1.0425 0.575621,0 1.04232,0.466707 1.04232,1.0425"
       id="path988-0"
       style="fill:#d3dae3;fill-opacity:1;stroke-width:0.0432895" />
    <path
       d="m 14.018115,14.345414 c 0,0.414966 -0.336507,0.75146 -0.751467,0.75146 -0.415133,0 -0.751633,-0.336507 -0.751633,-0.75146 0,-0.41514 0.336507,-0.75146 0.751633,-0.75146 0.414973,0 0.751467,0.336333 0.751467,0.75146"
       id="path990-6"
       style="fill:#d3dae3;fill-opacity:1;stroke-width:0.0432895" />
    <path
       d="m 11.538488,17.47568 c 0.297281,0.1811 0.391301,0.568867 0.210194,0.866133 -0.181107,0.29728 -0.569041,0.391467 -0.866307,0.21036 -0.29728,-0.181106 -0.391466,-0.56904 -0.210193,-0.866306 0.181107,-0.29728 0.56904,-0.391467 0.866307,-0.210194"
       id="path992-2"
       style="fill:#d3dae3;fill-opacity:1;stroke-width:0.0432895" />
    <path
       d="M 10.309069,18.636267 C 10.309069,18.83716 10.146229,19 9.945335,19 c -0.20072,0 -0.36356,-0.16284 -0.36356,-0.363733 0,-0.20072 0.16284,-0.36356 0.36356,-0.36356 0.200894,0 0.363734,0.16284 0.363734,0.36356"
       id="path994-6"
       style="fill:#d3dae3;fill-opacity:1;stroke-width:0.0432895" />
    <path
       d="m 13.029815,15.47224 c 0.503933,0.27834 0.686873,0.912453 0.408713,1.416387 -0.27834,0.503933 -0.912287,0.687046 -1.416393,0.408713 -0.503927,-0.278167 -0.686874,-0.91228 -0.408714,-1.416386 0.27834,-0.503934 0.912287,-0.686874 1.416394,-0.408714"
       id="path996-1"
       style="fill:#d3dae3;fill-opacity:1;stroke-width:0.0432895" />
    <path
       d="m 11.534161,14.729827 c 0.189054,0.36948 0.0428,0.822153 -0.3267,1.011193 -0.369652,0.18906 -0.822326,0.0426 -1.011372,-0.326866 -0.189047,-0.369487 -0.0426,-0.822154 0.326866,-1.0112 0.369486,-0.189054 0.822333,-0.0428 1.0112,0.326873"
       id="path998-8"
       style="fill:#d3dae3;fill-opacity:1;stroke-width:0.0432895" />
    <path
       d="m 7.666676,16.842353 c 0,0.348007 -0.282054,0.630254 -0.630247,0.630254 -0.34818,0 -0.630254,-0.282227 -0.630254,-0.630254 0,-0.34818 0.282053,-0.630386 0.630254,-0.630386 0.348173,0 0.630247,0.282226 0.630247,0.630386"
       id="path1000-7"
       style="fill:#d3dae3;fill-opacity:1;stroke-width:0.0432895" />
    <path
       d="m 6.018216,16.599933 c 0,0.200887 -0.162848,0.363727 -0.363568,0.363727 -0.200887,0 -0.363726,-0.16284 -0.363726,-0.363727 0,-0.200726 0.162839,-0.363566 0.363726,-0.363566 0.20072,0 0.363568,0.16284 0.363568,0.363566"
       id="path1002-9"
       style="fill:#d3dae3;fill-opacity:1;stroke-width:0.0432895" />
    <path
       d="m 9.228562,15.238474 c 0.569173,0.08709 0.959813,0.618913 0.87272,1.188079 -0.08709,0.56904 -0.619087,0.95982 -1.188081,0.87272 -0.569172,-0.08709 -0.95982,-0.619086 -0.87272,-1.188253 0.08709,-0.56904 0.619087,-0.959813 1.188081,-0.872546"
       id="path1004-2"
       style="fill:#d3dae3;fill-opacity:1;stroke-width:0.0432895" />
    <path
       d="m 9.242415,14.248447 c 0,0.415133 -0.336506,0.75146 -0.751459,0.75146 -0.41514,0 -0.75164,-0.33634 -0.75164,-0.75146 0,-0.414973 0.336506,-0.751467 0.75164,-0.751467 0.414966,0 0.751459,0.336507 0.751459,0.751467"
       id="path1006-0"
       style="fill:#d3dae3;fill-opacity:1;stroke-width:0.0432895" />
    <path
       d="m 5.000041,13.424214 c 0,0.348173 -0.282226,0.630253 -0.630379,0.630253 -0.348007,0 -0.630253,-0.28206 -0.630253,-0.630253 0,-0.348194 0.282226,-0.630254 0.630253,-0.630254 0.34818,0 0.630379,0.28206 0.630379,0.630254"
       id="path1008-2"
       style="fill:#d3dae3;fill-opacity:1;stroke-width:0.0432895" />
    <path
       d="m 3.618242,12.672707 c 0.145427,-0.145427 0.145427,-0.36356 0,-0.509174 -0.145427,-0.145426 -0.363561,-0.145426 -0.509167,0 -0.145434,0.145427 -0.145434,0.363567 0,0.509174 0.145593,0.121246 0.363727,0.121246 0.509167,0 z"
       id="path1010-3"
       style="fill:#d3dae3;fill-opacity:1;stroke-width:0.0432895" />
    <path
       d="m 7.351529,14.17572 c 0,0.575794 -0.466701,1.042494 -1.042493,1.042494 -0.575627,0 -1.042328,-0.4667 -1.042328,-1.042494 0,-0.57562 0.466701,-1.042326 1.042328,-1.042326 0.575792,0 1.042493,0.466706 1.042493,1.042326"
       id="path1012-7"
       style="fill:#d3dae3;fill-opacity:1;stroke-width:0.0432895" />
    <path
       d="m 7.787889,12.187867 c 0,0.414966 -0.336507,0.75146 -0.75146,0.75146 -0.414973,0 -0.751468,-0.336507 -0.751468,-0.75146 0,-0.41514 0.336507,-0.75164 0.751468,-0.75164 0.414967,0 0.75146,0.336506 0.75146,0.75164"
       id="path1014-5"
       style="fill:#d3dae3;fill-opacity:1;stroke-width:0.0432895" />
    <path
       d="m 4.830349,9.084873 c 0,0.348007 -0.282228,0.630254 -0.630254,0.630254 -0.348174,0 -0.630247,-0.282227 -0.630247,-0.630254 0,-0.34818 0.282054,-0.63038 0.630247,-0.63038 0.348013,0 0.630254,0.28222 0.630254,0.63038"
       id="path1016-9"
       style="fill:#d3dae3;fill-opacity:1;stroke-width:0.0432895" />
    <path
       d="m 4.030361,8.04246 c 0.193954,-0.0242 0.315201,-0.21814 0.290854,-0.412093 -0.0242,-0.19396 -0.21814,-0.3152 -0.4121,-0.290854 -0.193954,0.0242 -0.315193,0.21814 -0.290854,0.412094 0.04853,0.19396 0.218314,0.315033 0.4121,0.290853 z"
       id="path1018-2"
       style="fill:#d3dae3;fill-opacity:1;stroke-width:0.0432895" />
    <path
       d="m 6.381841,10.854547 c 0,0.57562 -0.4667,1.042326 -1.04232,1.042326 -0.575792,0 -1.042499,-0.466706 -1.042499,-1.042326 0,-0.575794 0.466707,-1.0425 1.042499,-1.0425 0.57562,0 1.04232,0.466706 1.04232,1.0425"
       id="path1020-2"
       style="fill:#d3dae3;fill-opacity:1;stroke-width:0.0432895" />
    <path
       d="m 7.836376,9.66668 c 0,0.41514 -0.336507,0.751467 -0.751467,0.751467 -0.415133,0 -0.75146,-0.33634 -0.75146,-0.751467 0,-0.414967 0.336332,-0.75146 0.75146,-0.75146 0.414973,0 0.751467,0.336507 0.751467,0.75146"
       id="path1022-8"
       style="fill:#d3dae3;fill-opacity:1;stroke-width:0.0432895" />
    <path
       d="M 6.865822,4.919989 C 7.182209,5.064909 7.321229,5.439117 7.176122,5.75552 7.031202,6.072074 6.657168,6.210927 6.340589,6.065988 6.024201,5.920899 5.885182,5.54686 6.030121,5.230284 6.175208,4.913898 6.549249,4.774879 6.865829,4.919985"
       id="path1024-9"
       style="fill:#d3dae3;fill-opacity:1;stroke-width:0.0432895" />
    <path
       d="m 7.084869,4.551595 c 0.169773,0.09689 0.387913,0.02418 0.4848,-0.145426 0.09689,-0.169778 0.0242,-0.387913 -0.145427,-0.4848 -0.16978,-0.09689 -0.387913,-0.02418 -0.4848,0.145427 -0.09707,0.169777 -0.02433,0.387913 0.145427,0.484799 z"
       id="path1026-7"
       style="fill:#d3dae3;fill-opacity:1;stroke-width:0.0432895" />
    <path
       d="m 7.545469,7.58186 c 0,0.575793 -0.466707,1.0425 -1.0425,1.0425 -0.57562,0 -1.042328,-0.466707 -1.042328,-1.0425 0,-0.57562 0.466708,-1.042327 1.042328,-1.042327 0.575793,0 1.0425,0.466707 1.0425,1.042327"
       id="path1028-3"
       style="fill:#d3dae3;fill-opacity:1;stroke-width:0.0432895" />
    <path
       d="m 9.139389,7.120393 c 0.293386,0.293387 0.293386,0.769254 0,1.0628 -0.29356,0.293387 -0.769387,0.293387 -1.0628,0 -0.29356,-0.293553 -0.29356,-0.76938 0,-1.0628 0.29338,-0.293553 0.769253,-0.293553 1.0628,0"
       id="path1030-6"
       style="fill:#d3dae3;fill-opacity:1;stroke-width:0.0432895" />
    <path
       d="m 10.817289,3.372822 c 0.338199,0.08235 0.545532,0.423423 0.463153,0.761636 -0.08235,0.338199 -0.42342,0.545534 -0.761633,0.463154 -0.3382,-0.08252 -0.545534,-0.423423 -0.463154,-0.761635 0.08238,-0.338212 0.42342,-0.545664 0.761634,-0.463155"
       id="path1032-1"
       style="fill:#d3dae3;fill-opacity:1;stroke-width:0.0432895" />
    <path
       d="m 12.296922,3.363731 c 0,0.200721 -0.162841,0.363563 -0.36356,0.363563 -0.200893,0 -0.363733,-0.162842 -0.363733,-0.363563 C 11.569629,3.162842 11.732469,3 11.933362,3 c 0.200719,0 0.36356,0.162842 0.36356,0.363731"
       id="path1034-2"
       style="fill:#d3dae3;fill-opacity:1;stroke-width:0.0432895" />
    <path
       d="m 9.881802,4.717394 c 0.49562,0.293049 0.65982,0.93224 0.36678,1.427861 C 9.955702,6.640707 9.316342,6.8049 8.820895,6.512033 8.325269,6.218987 8.161076,5.579795 8.454116,5.084173 8.746995,4.588725 9.386182,4.424528 9.881802,4.717394"
       id="path1036-9"
       style="fill:#d3dae3;fill-opacity:1;stroke-width:0.0432895" />
  </g>
  <g
     id="16-16-start-here-kde"
     transform="translate(-2e-5,54.037)">
    <path
       style="fill:none"
       d="M 0,0 V 16 H 16 V 0 Z"
       id="path17" />
    <path
       id="rect4328-3-3"
       d="m 3.237503,1 h 9.524994 C 14.002073,1 15,2.011597 15,3.268153 v 9.463694 C 15,13.988404 14.002074,15 12.762497,15 H 3.237503 C 1.997926,15 1,13.988404 1,12.731847 V 3.268153 C 1,2.011597 1.997926,1 3.237503,1 Z"
       style="fill:#3b5a87;fill-opacity:0.35;fill-rule:nonzero;stroke:none;stroke-width:0;stroke-linecap:round;stroke-linejoin:round;stroke-miterlimit:4;stroke-dasharray:none;stroke-opacity:1"
       inkscape:connector-curvature="0" />
    <path
       d="m 8.534516,5.149129 c 0,0.290476 -0.235437,0.526022 -0.526022,0.526022 -0.290481,0 -0.526026,-0.235555 -0.526026,-0.526022 0,-0.290598 0.235554,-0.526147 0.526026,-0.526147 0.290594,0 0.526022,0.235553 0.526022,0.526147"
       id="path958-6-1"
       style="fill:#d3dae3;fill-opacity:1;stroke-width:0.0303027" />
    <path
       d="m 11.130849,3.910354 c 0,0.243724 -0.197442,0.441267 -0.441177,0.441267 -0.243726,0 -0.441178,-0.197558 -0.441178,-0.441267 0,-0.243606 0.197442,-0.441176 0.441178,-0.441176 0.243726,0 0.441177,0.197558 0.441177,0.441176"
       id="path960-7-9"
       style="fill:#d3dae3;fill-opacity:1;stroke-width:0.0303027" />
    <path
       d="m 11.911447,4.080049 c 0,0.140504 -0.113992,0.254493 -0.254613,0.254493 -0.140504,0 -0.254497,-0.113989 -0.254497,-0.254493 0,-0.140622 0.113993,-0.254612 0.254497,-0.254612 0.140621,0 0.254613,0.11399 0.254613,0.254612"
       id="path962-5-4"
       style="fill:#d3dae3;fill-opacity:1;stroke-width:0.0303027" />
    <path
       d="m 9.650564,3.689448 c 0.3416,0.213776 0.445298,0.663931 0.231532,1.005563 C 9.668199,5.036611 9.218043,5.140309 8.87641,4.926543 8.534806,4.712767 8.431112,4.262489 8.644878,3.920857 8.858654,3.579255 9.308931,3.475559 9.650564,3.689444"
       id="path964-3-7"
       style="fill:#d3dae3;fill-opacity:1;stroke-width:0.0303027" />
    <path
       d="m 10.197525,5.726087 c 0,0.290482 -0.235554,0.526027 -0.526143,0.526027 -0.290477,0 -0.526022,-0.235555 -0.526022,-0.526027 0,-0.290593 0.235554,-0.526022 0.526022,-0.526022 0.290598,0 0.526143,0.235438 0.526143,0.526022"
       id="path966-5-8"
       style="fill:#d3dae3;fill-opacity:1;stroke-width:0.0303027" />
    <path
       d="m 12.997492,6.303051 c 0,0.243726 -0.197558,0.441177 -0.441177,0.441177 -0.243726,0 -0.441266,-0.197442 -0.441266,-0.441177 0,-0.243736 0.197559,-0.441178 0.441266,-0.441178 0.243605,0 0.441177,0.197442 0.441177,0.441178"
       id="path968-6-4"
       style="fill:#d3dae3;fill-opacity:1;stroke-width:0.0303027" />
    <path
       d="m 13.506575,7.015772 c 0,0.140621 -0.113989,0.254609 -0.254609,0.254609 -0.140504,0 -0.254497,-0.113988 -0.254497,-0.254609 0,-0.140625 0.113993,-0.254497 0.254497,-0.254497 0.14062,0 0.254609,0.113872 0.254609,0.254497"
       id="path970-2-5"
       style="fill:#d3dae3;fill-opacity:1;stroke-width:0.0303027" />
    <path
       d="m 11.928415,5.776996 c 0,0.402934 -0.326694,0.729629 -0.729629,0.729629 -0.403055,0 -0.729749,-0.326695 -0.729749,-0.729629 0,-0.403055 0.326694,-0.729745 0.729749,-0.729745 0.402935,0 0.729629,0.32669 0.729629,0.729745"
       id="path972-9-0"
       style="fill:#d3dae3;fill-opacity:1;stroke-width:0.0303027" />
    <path
       d="m 11.215694,7.168493 c 0,0.290598 -0.235555,0.526148 -0.526022,0.526148 -0.290477,0 -0.526022,-0.235554 -0.526022,-0.526148 0,-0.290476 0.235554,-0.526022 0.526022,-0.526022 0.290476,0 0.526022,0.235555 0.526022,0.526022"
       id="path974-1-3"
       style="fill:#d3dae3;fill-opacity:1;stroke-width:0.0303027" />
    <path
       d="m 13.116278,9.340589 c 0,0.243726 -0.197438,0.441266 -0.441177,0.441266 -0.243605,0 -0.441173,-0.197554 -0.441173,-0.441266 0,-0.243605 0.197554,-0.441178 0.441173,-0.441178 0.243725,0 0.441177,0.197559 0.441177,0.441178"
       id="path976-2-6"
       style="fill:#d3dae3;fill-opacity:1;stroke-width:0.0303027" />
    <path
       d="m 12.793858,10.070278 c -0.135772,0.01694 -0.22064,0.152698 -0.203597,0.288466 0.01694,0.135772 0.152698,0.22064 0.288465,0.203597 0.135772,-0.01694 0.22064,-0.152698 0.203597,-0.288465 -0.01703,-0.135772 -0.152815,-0.220524 -0.288465,-0.203598 z"
       id="path978-7-1"
       style="fill:#d3dae3;fill-opacity:1;stroke-width:0.0303027" />
    <path
       d="m 12.607196,8.101817 c 0,0.403056 -0.326695,0.72975 -0.72975,0.72975 -0.402934,0 -0.729629,-0.326694 -0.729629,-0.72975 0,-0.402934 0.326695,-0.729628 0.729629,-0.729628 0.403055,0 0.72975,0.326694 0.72975,0.729628"
       id="path980-0-0"
       style="fill:#d3dae3;fill-opacity:1;stroke-width:0.0303027" />
    <path
       d="m 11.181758,8.933324 c 0,0.290477 -0.235438,0.526022 -0.526027,0.526022 -0.290476,0 -0.526022,-0.235555 -0.526022,-0.526022 0,-0.290598 0.235555,-0.526027 0.526022,-0.526027 0.290598,0 0.526027,0.235438 0.526027,0.526027"
       id="path982-9-6"
       style="fill:#d3dae3;fill-opacity:1;stroke-width:0.0303027" />
    <path
       d="m 11.155694,11.444504 c 0.226684,0.0896 0.337816,0.345875 0.248225,0.572567 -0.08949,0.226562 -0.345753,0.337722 -0.57245,0.24822 -0.226679,-0.08949 -0.337811,-0.345874 -0.248221,-0.572446 0.08949,-0.226678 0.345754,-0.337815 0.572446,-0.248341"
       id="path984-3-3"
       style="fill:#d3dae3;fill-opacity:1;stroke-width:0.0303027" />
    <path
       d="m 10.655703,12.513885 c -0.118846,-0.06783 -0.271539,-0.01694 -0.33936,0.101798 -0.06782,0.118842 -0.01694,0.27154 0.101799,0.33936 0.118846,0.06782 0.271539,0.01694 0.33936,-0.101798 0.06795,-0.118846 0.01703,-0.27154 -0.101799,-0.33936 z"
       id="path986-6-2"
       style="fill:#d3dae3;fill-opacity:1;stroke-width:0.0303027" />
    <path
       d="m 11.792657,10.392698 c 0,0.402934 -0.32669,0.729629 -0.729624,0.729629 -0.403055,0 -0.72975,-0.326695 -0.72975,-0.729629 0,-0.403055 0.326695,-0.72975 0.72975,-0.72975 0.402934,0 0.729624,0.326695 0.729624,0.72975"
       id="path988-0-0"
       style="fill:#d3dae3;fill-opacity:1;stroke-width:0.0303027" />
    <path
       d="m 10.11268,10.34179 c 0,0.290476 -0.235554,0.526022 -0.526026,0.526022 -0.290593,0 -0.526143,-0.235555 -0.526143,-0.526022 0,-0.290598 0.235554,-0.526022 0.526143,-0.526022 0.290481,0 0.526026,0.235433 0.526026,0.526022"
       id="path990-6-6"
       style="fill:#d3dae3;fill-opacity:1;stroke-width:0.0303027" />
    <path
       d="m 8.376942,12.532976 c 0.208096,0.12677 0.27391,0.398207 0.147135,0.606293 C 8.397303,13.347365 8.125749,13.413296 7.917662,13.286521 7.709566,13.159747 7.643636,12.888193 7.770527,12.680107 7.897302,12.472011 8.168855,12.40608 8.376942,12.532971"
       id="path992-2-1"
       style="fill:#d3dae3;fill-opacity:1;stroke-width:0.0303027" />
    <path
       d="M 7.516348,13.345387 C 7.516348,13.486012 7.40236,13.6 7.261734,13.6 7.12123,13.6 7.007242,13.486012 7.007242,13.345387 c 0,-0.140504 0.113988,-0.254492 0.254492,-0.254492 0.140626,0 0.254614,0.113988 0.254614,0.254492"
       id="path994-6-5"
       style="fill:#d3dae3;fill-opacity:1;stroke-width:0.0303027" />
    <path
       d="m 9.42087,11.130568 c 0.352754,0.194838 0.480812,0.638717 0.2861,0.991471 -0.194838,0.352753 -0.638601,0.480932 -0.991476,0.286099 -0.352748,-0.194717 -0.480811,-0.638596 -0.286099,-0.99147 0.194838,-0.352754 0.638601,-0.480812 0.991475,-0.2861"
       id="path996-1-5"
       style="fill:#d3dae3;fill-opacity:1;stroke-width:0.0303027" />
    <path
       d="m 8.373913,10.610879 c 0.132337,0.258636 0.02996,0.575507 -0.22869,0.707835 -0.258757,0.132342 -0.575629,0.02982 -0.707961,-0.228806 -0.132333,-0.258641 -0.02982,-0.575508 0.228806,-0.70784 0.258641,-0.132338 0.575634,-0.02996 0.707841,0.228811"
       id="path998-8-4"
       style="fill:#d3dae3;fill-opacity:1;stroke-width:0.0303027" />
    <path
       d="m 5.666673,12.089647 c 0,0.243605 -0.197438,0.441178 -0.441173,0.441178 -0.243726,0 -0.441177,-0.197559 -0.441177,-0.441178 0,-0.243726 0.197437,-0.44127 0.441177,-0.44127 0.243721,0 0.441173,0.197558 0.441173,0.44127"
       id="path1000-7-7"
       style="fill:#d3dae3;fill-opacity:1;stroke-width:0.0303027" />
    <path
       d="m 4.512751,11.919953 c 0,0.140621 -0.113993,0.254609 -0.254497,0.254609 -0.140621,0 -0.254609,-0.113988 -0.254609,-0.254609 0,-0.140508 0.113988,-0.254496 0.254609,-0.254496 0.140504,0 0.254497,0.113988 0.254497,0.254496"
       id="path1002-9-6"
       style="fill:#d3dae3;fill-opacity:1;stroke-width:0.0303027" />
    <path
       d="m 6.759993,10.966932 c 0.398421,0.06096 0.671869,0.433239 0.610904,0.831655 -0.06096,0.398328 -0.433361,0.671874 -0.831656,0.610904 -0.398421,-0.06096 -0.671874,-0.43336 -0.610904,-0.831777 0.06096,-0.398328 0.433361,-0.671869 0.831656,-0.610782"
       id="path1004-2-5"
       style="fill:#d3dae3;fill-opacity:1;stroke-width:0.0303027" />
    <path
       d="m 6.76969,10.273913 c 0,0.290593 -0.235554,0.526022 -0.526021,0.526022 -0.290598,0 -0.526148,-0.235438 -0.526148,-0.526022 0,-0.290481 0.235554,-0.526027 0.526148,-0.526027 0.290476,0 0.526021,0.235555 0.526021,0.526027"
       id="path1006-0-6"
       style="fill:#d3dae3;fill-opacity:1;stroke-width:0.0303027" />
    <path
       d="m 3.800029,9.69695 c 0,0.243721 -0.197559,0.441177 -0.441266,0.441177 -0.243604,0 -0.441177,-0.197442 -0.441177,-0.441177 0,-0.243736 0.197559,-0.441178 0.441177,-0.441178 0.243726,0 0.441266,0.197442 0.441266,0.441178"
       id="path1008-2-9"
       style="fill:#d3dae3;fill-opacity:1;stroke-width:0.0303027" />
    <path
       d="m 2.832769,9.170895 c 0.101799,-0.101799 0.101799,-0.254492 0,-0.356422 -0.101799,-0.101798 -0.254492,-0.101798 -0.356416,0 -0.101804,0.101799 -0.101804,0.254497 0,0.356422 0.101915,0.08487 0.254608,0.08487 0.356416,0 z"
       id="path1010-3-3"
       style="fill:#d3dae3;fill-opacity:1;stroke-width:0.0303027" />
    <path
       d="m 5.44607,10.223004 c 0,0.403056 -0.32669,0.729746 -0.729745,0.729746 -0.402939,0 -0.729629,-0.32669 -0.729629,-0.729746 0,-0.402934 0.32669,-0.729628 0.729629,-0.729628 0.403055,0 0.729745,0.326694 0.729745,0.729628"
       id="path1012-7-7"
       style="fill:#d3dae3;fill-opacity:1;stroke-width:0.0303027" />
    <path
       d="m 5.751522,8.831507 c 0,0.290476 -0.235555,0.526022 -0.526022,0.526022 -0.290481,0 -0.526027,-0.235555 -0.526027,-0.526022 0,-0.290598 0.235555,-0.526148 0.526027,-0.526148 0.290477,0 0.526022,0.235554 0.526022,0.526148"
       id="path1014-5-4"
       style="fill:#d3dae3;fill-opacity:1;stroke-width:0.0303027" />
    <path
       d="m 3.681244,6.659411 c 0,0.243605 -0.197559,0.441178 -0.441178,0.441178 -0.243721,0 -0.441172,-0.197559 -0.441172,-0.441178 0,-0.243726 0.197437,-0.441266 0.441172,-0.441266 0.24361,0 0.441178,0.197554 0.441178,0.441266"
       id="path1016-9-5"
       style="fill:#d3dae3;fill-opacity:1;stroke-width:0.0303027" />
    <path
       d="M 3.121253,5.929722 C 3.25702,5.912782 3.341893,5.777024 3.32485,5.641257 3.30791,5.505485 3.172152,5.420617 3.03638,5.437659 2.900613,5.454599 2.815745,5.590357 2.832783,5.726125 c 0.03397,0.135772 0.15282,0.220523 0.28847,0.203597 z"
       id="path1018-2-2"
       style="fill:#d3dae3;fill-opacity:1;stroke-width:0.0303027" />
    <path
       d="m 4.767289,7.898183 c 0,0.402934 -0.32669,0.729628 -0.729624,0.729628 -0.403055,0 -0.72975,-0.326694 -0.72975,-0.729628 0,-0.403056 0.326695,-0.72975 0.72975,-0.72975 0.402934,0 0.729624,0.326694 0.729624,0.72975"
       id="path1020-2-5"
       style="fill:#d3dae3;fill-opacity:1;stroke-width:0.0303027" />
    <path
       d="m 5.785463,7.066676 c 0,0.290598 -0.235555,0.526027 -0.526027,0.526027 -0.290593,0 -0.526022,-0.235438 -0.526022,-0.526027 0,-0.290477 0.235433,-0.526022 0.526022,-0.526022 0.290481,0 0.526027,0.235555 0.526027,0.526022"
       id="path1022-8-4"
       style="fill:#d3dae3;fill-opacity:1;stroke-width:0.0303027" />
    <path
       d="M 5.106075,3.743992 C 5.327546,3.845436 5.42486,4.107382 5.323285,4.328864 5.221841,4.550452 4.960018,4.647649 4.738412,4.546192 4.516941,4.444629 4.419627,4.182802 4.521085,3.961199 4.622646,3.739729 4.884474,3.642415 5.10608,3.74399"
       id="path1024-9-7"
       style="fill:#d3dae3;fill-opacity:1;stroke-width:0.0303027" />
    <path
       d="M 5.259408,3.486117 C 5.378249,3.553937 5.530947,3.503047 5.598768,3.384318 5.666588,3.265474 5.615708,3.112779 5.496969,3.044958 5.378123,2.977138 5.22543,3.028028 5.157609,3.146757 5.089659,3.265601 5.140579,3.418296 5.259408,3.486117 Z"
       id="path1026-7-4"
       style="fill:#d3dae3;fill-opacity:1;stroke-width:0.0303027" />
    <path
       d="m 5.581828,5.607302 c 0,0.403055 -0.326695,0.72975 -0.72975,0.72975 -0.402934,0 -0.729629,-0.326695 -0.729629,-0.72975 0,-0.402934 0.326695,-0.729629 0.729629,-0.729629 0.403055,0 0.72975,0.326695 0.72975,0.729629"
       id="path1028-3-4"
       style="fill:#d3dae3;fill-opacity:1;stroke-width:0.0303027" />
    <path
       d="m 6.697572,5.284275 c 0.20537,0.205371 0.20537,0.538478 0,0.74396 -0.205492,0.205371 -0.538571,0.205371 -0.74396,0 -0.205492,-0.205487 -0.205492,-0.538566 0,-0.74396 0.205366,-0.205487 0.538477,-0.205487 0.74396,0"
       id="path1030-6-3"
       style="fill:#d3dae3;fill-opacity:1;stroke-width:0.0303027" />
    <path
       d="M 7.872102,2.660975 C 8.108842,2.718625 8.253975,2.957371 8.196309,3.194121 8.138659,3.43086 7.899915,3.575994 7.663166,3.518328 7.426426,3.460568 7.281293,3.221932 7.338958,2.985184 7.396628,2.748436 7.635352,2.603219 7.872102,2.660975"
       id="path1032-1-0"
       style="fill:#d3dae3;fill-opacity:1;stroke-width:0.0303027" />
    <path
       d="m 8.907845,2.654612 c 0,0.140504 -0.113988,0.254494 -0.254492,0.254494 -0.140625,0 -0.254613,-0.11399 -0.254613,-0.254494 C 8.39874,2.513989 8.512728,2.4 8.653353,2.4 c 0.140504,0 0.254492,0.113989 0.254492,0.254612"
       id="path1034-2-7"
       style="fill:#d3dae3;fill-opacity:1;stroke-width:0.0303027" />
    <path
       d="M 7.217261,3.602176 C 7.564195,3.80731 7.679135,4.254744 7.474007,4.601678 7.268991,4.948495 6.821439,5.06343 6.474627,4.858423 6.127688,4.653291 6.012753,4.205856 6.217881,3.858921 6.422896,3.512107 6.870327,3.39717 7.217261,3.602176"
       id="path1036-9-8"
       style="fill:#d3dae3;fill-opacity:1;stroke-width:0.0303027" />
  </g>
</svg>
