<?xml version="1.0" encoding="UTF-8" standalone="no"?>
<svg
   id="window"
   viewBox="0 0 22 22"
   version="1.1"
   sodipodi:docname="window.svg"
   width="22"
   height="22"
   inkscape:version="1.2.1 (9c6d41e410, 2022-07-14)"
   xmlns:inkscape="http://www.inkscape.org/namespaces/inkscape"
   xmlns:sodipodi="http://sodipodi.sourceforge.net/DTD/sodipodi-0.dtd"
   xmlns="http://www.w3.org/2000/svg"
   xmlns:svg="http://www.w3.org/2000/svg"
   xmlns:rdf="http://www.w3.org/1999/02/22-rdf-syntax-ns#"
   xmlns:cc="http://creativecommons.org/ns#"
   xmlns:dc="http://purl.org/dc/elements/1.1/">
  <g
     id="16-16-window-unpin"
     transform="translate(-16,6)">
    <path
       id="rect847-9"
       d="M 0,0 H 16 V 16 H 0 Z"
       fill="none" />
    <path
       d="M 13.878253,5.8573572 10.148415,2.1295773 c -0.08309,-0.0846 -0.1972475,-0.1313981 -0.315917,-0.129523 -0.118564,-2.25e-4 -0.232401,0.04696 -0.315915,0.131062 -0.08034,0.08182 -0.125288,0.191754 -0.125288,0.306296 0,0.1145299 0.04495,0.224568 0.125288,0.3062879 l 3.739147,3.737368 c 0.08506,0.07676 0.196141,0.118399 0.310764,0.11664 0.114608,-0.0019 0.224233,-0.04681 0.306993,-0.1261139 0.08024,-0.08181 0.125617,-0.191645 0.126504,-0.30618 7.51e-4,-0.114531 -0.04285,-0.225017 -0.121764,-0.308071 z"
       id="path1834-5-4"
       style="fill:#089bb2;fill-opacity:1;stroke-width:0.0282025" />
    <path
       d="m 9.582817,4.1204912 c 7.31e-4,0.315229 -0.12408,0.617656 -0.347536,0.840044 L 6.909869,7.2910972 C 6.781821,7.4186332 6.619624,7.5064152 6.442749,7.5439753 6.26589,7.5814353 6.081977,7.5671153 5.913064,7.5026653 5.342807,7.2878913 3.998466,6.8836823 3.164315,7.4411053 l 5.399553,5.3938797 c 0.557696,-0.832118 0.158018,-2.175824 -0.06161,-2.747437 -0.06303,-0.1682984 -0.07692,-0.3510114 -0.04,-0.5268144 0.03692,-0.175893 0.123081,-0.337588 0.248594,-0.466336 l 2.333227,-2.3305583 c 0.223467,-0.222152 0.451576,-0.42058 0.766841,-0.417594 l 1.307873,-0.449999 -3.085473,-3.156 z"
       id="path1836-4-4"
       style="fill:#089bb2;fill-opacity:1;stroke-width:0.0282025"
       sodipodi:nodetypes="ccccccccccccccc" />
    <path
       d="M 2.965185,12.474658 2,13.999999 3.527594,13.036826 5.77244,10.793057 5.211554,10.232542 Z"
       id="path1838-7-3"
       style="fill:#089bb2;fill-opacity:1;stroke-width:0.0282025" />
  </g>
  <g
     id="window-unpin">
    <path
       id="rect838-6"
       d="M 0,0 H 22 V 22 H 0 Z"
       fill="none" />
    <path
       d="m 18.83012,8.1431481 -4.97075,-4.970374 c -0.11073,-0.112784 -0.26287,-0.175198 -0.42102,-0.172702 -0.15801,-2.93e-4 -0.30972,0.06256 -0.42102,0.174755 -0.10706,0.10911 -0.16697,0.255673 -0.16697,0.408389 0,0.152717 0.0599,0.299433 0.16697,0.40839 l 4.98315,4.983156 c 0.11337,0.102359 0.2614,0.157867 0.41415,0.155517 0.15274,-0.0023 0.29884,-0.06241 0.40914,-0.168149 0.10691,-0.109111 0.16741,-0.255526 0.16859,-0.408239 9.97e-4,-0.152713 -0.0571,-0.300023 -0.16228,-0.410758 z"
       id="path1834-4"
       style="fill:#089bb2;fill-opacity:1;stroke-width:0.0375945" />
    <path
       d="m 13.1056,5.8273241 c 9.75e-4,0.420307 -0.16536,0.823546 -0.46316,1.120055 L 9.54337,10.054793 c -0.17065,0.170055 -0.38681,0.287098 -0.62253,0.337178 -0.2357,0.04993 -0.4808,0.03084 -0.70591,-0.05507 C 7.45495,10.050536 5.66335,9.5115881 4.55168,10.254811 l 7.19597,7.191835 c 0.74324,-1.10949 0.21059,-2.901095 -0.0821,-3.663249 -0.084,-0.224395 -0.10251,-0.468015 -0.0533,-0.702417 0.0492,-0.234526 0.16403,-0.450119 0.3313,-0.621776 l 3.10948,-3.1074139 c 0.29782,-0.296204 0.60182,-0.560775 1.02197,-0.55679 l 1.743,-0.6 -4.112,-4.208 z"
       id="path1836-5"
       style="fill:#089bb2;fill-opacity:1;stroke-width:0.0375945"
       sodipodi:nodetypes="ccccccccccccccc" />
    <path
       d="M 4.2863,16.966211 3,19 5.03582,17.715771 8.02752,14.724072 7.28003,13.97673 Z"
       id="path1838-2"
       style="fill:#089bb2;fill-opacity:1;stroke-width:0.0375945" />
  </g>
  <metadata
     id="metadata28">
    <rdf:RDF>
      <cc:Work
         rdf:about="">
        <dc:format>image/svg+xml</dc:format>
        <dc:type
           rdf:resource="http://purl.org/dc/dcmitype/StillImage" />
      </cc:Work>
    </rdf:RDF>
  </metadata>
  <defs
     id="defs26" />
  <sodipodi:namedview
     pagecolor="#ffffff"
     bordercolor="#666666"
     borderopacity="1"
     objecttolerance="10"
     gridtolerance="10"
     guidetolerance="10"
     inkscape:pageopacity="0"
     inkscape:pageshadow="2"
     inkscape:window-width="1920"
     inkscape:window-height="1002"
     id="namedview24"
     showgrid="false"
     inkscape:zoom="6.3398551"
     inkscape:cx="-39.985141"
     inkscape:cy="38.723282"
     inkscape:window-x="0"
     inkscape:window-y="0"
     inkscape:window-maximized="1"
     inkscape:current-layer="window"
     inkscape:document-rotation="0"
     showguides="false"
     inkscape:pagecheckerboard="0"
     inkscape:lockguides="true"
     inkscape:showpageshadow="2"
     inkscape:deskcolor="#b2b2b2">
    <inkscape:grid
       type="xygrid"
       id="grid872"
       originx="-54"
       originy="0" />
  </sodipodi:namedview>
  <style
     id="current-color-scheme"
     type="text/css">.ColorScheme-Highlight { color:#cdd8e5; }
.ColorScheme-Text { color:#eff0f1; }
</style>
  <g
     id="window-list"
     transform="translate(-318,-539.36218)"
     style="fill:#d3dae3;fill-opacity:1">
    <path
       id="rect3004"
       d="m 286,561.36218 h 32 v 32 h -32 z"
       opacity="0"
       style="fill:#d3dae3;fill-opacity:1" />
    <path
       id="rect3008"
       d="m 290,565.3622 v 10 h 10 v -10 z m 1,1 h 8 v 8 h -8 z"
       class="ColorScheme-Text "
       style="fill:#d3dae3;fill-opacity:1" />
    <path
       id="rect3010"
       d="m 304,565.3622 v 10 h 10 v -10 z m 1,1 h 8 v 8 h -8 z"
       class="ColorScheme-Text"
       style="fill:#d3dae3;fill-opacity:1" />
    <path
       id="rect3012"
       d="m 290,579.3622 v 10 h 10 v -10 z m 1,1 h 8 v 8 h -8 z"
       class="ColorScheme-Text"
       style="fill:#d3dae3;fill-opacity:1" />
    <path
       id="rect3014"
       d="m 304,579.3622 v 10 h 10 v -10 z m 1,1 h 8 v 8 h -8 z"
       class="ColorScheme-Text"
       style="fill:#d3dae3;fill-opacity:1" />
  </g>
  <g
     transform="translate(-74.589055,32)"
     id="22-22-window-close"
     style="fill:#d3dae3;fill-opacity:1">
    <rect
       id="rect18"
       y="0"
       x="0"
       height="22"
       width="22"
       style="opacity:0.00100002;fill:#d3dae3;fill-opacity:1" />
    <g
       id="g24"
       transform="matrix(1.7493122,0,0,1.7499488,-107.95048,-909.47286)"
       style="fill:#d3dae3;fill-opacity:1">
      <g
         id="g22"
         transform="translate(19,-242)"
         style="fill:#d3dae3;fill-opacity:1">
        <path
           id="path20"
           d="m 45.571203,764.57141 h 0.857142 c 0.0089,-1.1e-4 0.01782,-4e-4 0.02679,0 0.21853,0.01 0.437032,0.11021 0.589286,0.26785 l 1.955357,1.95536 1.982143,-1.95536 c 0.227678,-0.19757 0.382861,-0.26185 0.589285,-0.26785 h 0.857143 v 0.85714 c 0,0.24555 -0.02943,0.47199 -0.214285,0.64286 l -1.955357,1.95535 1.928571,1.92858 c 0.161304,0.16128 0.241064,0.38867 0.241071,0.61607 v 0.85714 h -0.857143 c -0.2274,-10e-6 -0.454788,-0.0798 -0.616071,-0.24107 l -1.955357,-1.95536 -1.955357,1.95536 c -0.161288,0.1613 -0.388684,0.24107 -0.616076,0.24107 h -0.857142 v -0.85714 c -3e-6,-0.22739 0.07977,-0.45479 0.241071,-0.61607 l 1.955357,-1.92858 -1.955357,-1.95535 c -0.180636,-0.16683 -0.259851,-0.40222 -0.241071,-0.64286 z"
           style="fill:#d3dae3;fill-opacity:1"
           class="ColorScheme-Text" />
      </g>
    </g>
  </g>
  <g
     transform="translate(-52.589055,53.999998)"
     id="16-16-window-close"
     style="fill:#d3dae3;fill-opacity:1">
    <rect
       id="rect27"
       y="-16"
       x="0"
       height="16"
       width="16"
       style="opacity:0.00100002;fill:#d3dae3;fill-opacity:1" />
    <g
       id="g33"
       transform="matrix(1.2495087,0,0,1.2499635,-76.964626,-665.48065)"
       style="fill:#d3dae3;fill-opacity:1">
      <g
         id="g31"
         transform="translate(19,-242)"
         style="fill:#d3dae3;fill-opacity:1">
        <path
           id="path29"
           d="m 45.000045,763.99995 h 0.999997 c 0.0103,-10e-5 0.02083,-3.7e-4 0.0312,0 0.254951,0.009 0.509869,0.12866 0.687499,0.3126 l 2.281251,2.2812 2.3125,-2.2812 c 0.265626,-0.2306 0.446671,-0.3056 0.687501,-0.3126 h 0.999999 v 1 c 0,0.28658 -0.03427,0.55072 -0.249999,0.75 l -2.281252,2.28129 2.250003,2.25 c 0.188185,0.18819 0.281241,0.45347 0.281248,0.71874 v 1.00001 h -0.999993 c -0.2653,-10e-6 -0.530586,-0.0925 -0.71875,-0.28124 l -2.281252,-2.28122 -2.281251,2.28122 c -0.188161,0.18818 -0.453456,0.28124 -0.718748,0.28124 h -0.999999 v -1.00001 c -3e-6,-0.26526 0.09305,-0.53055 0.28126,-0.71874 l 2.281251,-2.25 -2.281251,-2.28129 c -0.210734,-0.1945 -0.303168,-0.4692 -0.28126,-0.75 z"
           style="fill:#d3dae3;fill-opacity:1;stroke-width:1.25"
           class="ColorScheme-Text" />
      </g>
    </g>
  </g>
  <g
     id="window-close"
     transform="translate(-106.58906,22)"
     style="fill:#d3dae3;fill-opacity:1">
    <rect
       id="rect36"
       style="opacity:0.00100002;fill:#d3dae3;fill-opacity:1"
       y="0"
       x="0"
       height="32"
       width="32" />
    <g
       id="g46"
       transform="matrix(1.7493122,0,0,1.7499488,-102.95048,-903.47286)"
       style="opacity:0.2;fill:#d3dae3;fill-opacity:1">
      <g
         id="g44"
         transform="translate(19,-242)"
         style="fill:#d3dae3;fill-opacity:1" />
    </g>
    <g
       id="g52"
       style="fill:#d3dae3;fill-opacity:1"
       transform="matrix(1.7493122,0,0,1.7499488,-102.95048,-904.47286)">
      <g
         id="g50"
         style="fill:#d3dae3;fill-opacity:1"
         transform="translate(19,-242)">
        <path
           id="path48"
           style="fill:#d3dae3;fill-opacity:1;stroke-width:1.5"
           d="m 43.857588,762.85718 h 1.285713 c 0.01335,-1.6e-4 0.02673,-6e-4 0.04019,0 0.327795,0.015 0.655548,0.16532 0.883929,0.40178 l 2.933035,2.93304 2.973214,-2.93304 c 0.341516,-0.29636 0.574291,-0.39278 0.883927,-0.40178 h 1.285714 v 1.28571 c 0,0.36833 -0.04415,0.70799 -0.321427,0.96429 l -2.933035,2.93303 2.892856,2.89287 c 0.241956,0.24192 0.361596,0.583 0.361606,0.9241 v 1.28571 h -1.285714 c -0.3411,-10e-6 -0.682182,-0.1197 -0.924106,-0.3616 l -2.933035,-2.93304 -2.933035,2.93304 c -0.241932,0.24195 -0.583026,0.3616 -0.924114,0.3616 h -1.285713 v -1.28571 c -4e-6,-0.34108 0.119655,-0.68218 0.361607,-0.9241 l 2.933034,-2.89287 -2.933034,-2.93303 c -0.270954,-0.25024 -0.389777,-0.60333 -0.361607,-0.96429 z"
           class="ColorScheme-Text" />
      </g>
    </g>
  </g>
  <g
     id="window-pin"
     transform="translate(-54)">
    <path
       id="rect838"
       d="M 0,0 H 22 V 22 H 0 Z"
       fill="none" />
    <path
       d="M 18.83012,8.143148 13.85937,3.172774 C 13.74864,3.0599901 13.5965,2.9975761 13.43835,3.0000721 c -0.15801,-2.931e-4 -0.30972,0.06256 -0.42102,0.174755 -0.10706,0.10911 -0.16697,0.255673 -0.16697,0.408389 0,0.152717 0.0599,0.299433 0.16697,0.40839 l 4.98315,4.9831559 c 0.11337,0.102359 0.2614,0.157867 0.41415,0.155517 0.15274,-0.0023 0.29884,-0.06241 0.40914,-0.168149 0.10691,-0.109111 0.16741,-0.255526 0.16859,-0.408239 9.97e-4,-0.152713 -0.0571,-0.300023 -0.16228,-0.410758 z"
       id="path1834"
       style="fill:#d3dae3;fill-opacity:1;stroke-width:0.0375945" />
    <path
       d="m 13.1056,5.827324 c 9.75e-4,0.4203071 -0.16536,0.823546 -0.46316,1.1200551 L 9.54337,10.054793 c -0.17065,0.170055 -0.38681,0.287098 -0.62253,0.337178 -0.2357,0.04993 -0.4808,0.03084 -0.70591,-0.05507 C 7.45495,10.050536 5.66335,9.511588 4.55168,10.254811 l 7.19597,7.191835 c 0.74324,-1.10949 0.21059,-2.901095 -0.0821,-3.663249 -0.084,-0.224395 -0.10251,-0.468015 -0.0533,-0.702417 0.0492,-0.234526 0.16403,-0.450119 0.3313,-0.621776 L 15.05303,9.35179 C 15.35085,9.055586 15.65485,8.791015 16.075,8.795 l 1.743,-0.6 -4.112,-4.208 z"
       id="path1836"
       style="fill:#d3dae3;fill-opacity:1;stroke-width:0.0375945"
       sodipodi:nodetypes="ccccccccccccccc" />
    <path
       d="M 4.2863,16.966211 3,19 5.03582,17.715771 8.02752,14.724072 7.28003,13.97673 Z"
       id="path1838"
       style="fill:#d3dae3;fill-opacity:1;stroke-width:0.0375945" />
  </g>
  <g
     id="16-16-window-pin"
     transform="translate(-32.000006,6)">
    <path
       id="rect847"
       d="M 0,0 H 16 V 16 H 0 Z"
       fill="none" />
    <path
       d="m 13.878253,5.8573573 -3.729839,-3.72778 c -0.08309,-0.0846 -0.1972466,-0.131398 -0.3159158,-0.129523 -0.118564,-2.25e-4 -0.2324008,0.04696 -0.3159156,0.131062 -0.080336,0.08182 -0.1252875,0.191754 -0.1252875,0.306296 0,0.11453 0.044948,0.224568 0.1252875,0.306288 l 3.7391464,3.737368 c 0.08506,0.07676 0.196142,0.118399 0.310764,0.11664 0.114608,-0.0019 0.224234,-0.04681 0.306993,-0.126114 0.08024,-0.08181 0.125617,-0.191645 0.126504,-0.30618 7.51e-4,-0.114531 -0.04285,-0.225017 -0.121764,-0.308071 z"
       id="path1834-5"
       style="fill:#d3dae3;fill-opacity:1;stroke-width:0.0282025" />
    <path
       d="m 9.5828166,4.1204913 c 7.318e-4,0.315229 -0.1240791,0.617656 -0.347536,0.840044 l -2.3254113,2.330562 c -0.1280484,0.127536 -0.2902457,0.215318 -0.4671207,0.252878 -0.176859,0.03746 -0.360772,0.02314 -0.5296847,-0.04131 -0.5702568,-0.214774 -1.914598,-0.618983 -2.7487486,-0.06156 L 8.5638684,12.834985 C 9.1215644,12.002867 8.7218863,10.659161 8.5022624,10.087548 8.4392324,9.9192493 8.4253424,9.7365363 8.4622664,9.5607333 8.4991824,9.3848403 8.5853475,9.2231453 8.71086,9.0943973 l 2.333227,-2.330558 c 0.223467,-0.222152 0.451576,-0.42058 0.766841,-0.417594 l 1.307873,-0.449999 -3.085473,-3.156 z"
       id="path1836-4"
       style="fill:#d3dae3;fill-opacity:1;stroke-width:0.0282025"
       sodipodi:nodetypes="ccccccccccccccc" />
    <path
       d="M 2.9651853,12.474658 2,13.999999 3.5275935,13.036826 5.7724396,10.793057 5.2115539,10.232542 Z"
       id="path1838-7"
       style="fill:#d3dae3;fill-opacity:1;stroke-width:0.0282025" />
  </g>
</svg>
