<?xml version="1.0" encoding="UTF-8" standalone="no"?>
<svg
   id="svg18"
   width="32"
   height="32"
   version="1"
   sodipodi:docname="yakuake.svg"
   inkscape:version="1.2.1 (9c6d41e410, 2022-07-14)"
   xmlns:inkscape="http://www.inkscape.org/namespaces/inkscape"
   xmlns:sodipodi="http://sodipodi.sourceforge.net/DTD/sodipodi-0.dtd"
   xmlns:xlink="http://www.w3.org/1999/xlink"
   xmlns="http://www.w3.org/2000/svg"
   xmlns:svg="http://www.w3.org/2000/svg">
  <g
     id="22-22-yakuake"
     transform="translate(32,10)">
    <rect
       id="rect2"
       width="22"
       height="22"
       opacity="0.00100002"
       x="0"
       y="0" />
    <path
       inkscape:connector-curvature="0"
       id="path9068-9-37-8-0-1-0-1-3-7-4-6-1-2"
       d="M 19.474508,2.9143069 2.356,2.9143129 V 17.705308 h 17.288 z"
       style="display:inline;overflow:visible;visibility:visible;opacity:0.6;fill:url(#linearGradient24340);fill-opacity:1.0;fill-rule:nonzero;stroke:none;stroke-width:0.55969;marker:none"
       sodipodi:nodetypes="cccccc" />
    <path
       d="m 5.918002,5.000241 -0.918003,0.93829 3.671963,3.75311 -3.671963,3.75311 0.918003,0.938293 4.59006,-4.691499 -4.59006,-4.691495 z m 4.081997,7.99981 v 2 h 7 v -2 z"
       id="path7-36-3-5"
       style="color:#eceff4;fill:#d3dae3;fill-opacity:1;stroke-width:1.31262"
       class="ColorScheme-Text "
       sodipodi:nodetypes="ccccccccccccc" />
    <path
       d="m 13.03787,5.72599 0.478484,0.500829 c 0.06661,0.06972 0.09898,0.152377 0.09788,0.2487 -0.0011,0.09633 -0.03582,0.178525 -0.103654,0.246242 L 10.40625,9.820078 C 10.338,9.888148 10.257173,9.921245 10.16293,9.920122 10.0687,9.919022 9.988626,9.883932 9.922011,9.814178 L 9.443542,9.313353 c -0.06662,-0.06976 -0.099,-0.152379 -0.09787,-0.248698 0.0011,-0.09631 0.03579,-0.178522 0.103643,-0.246242 l 3.103946,-3.097951 c 0.06824,-0.06809 0.149086,-0.101189 0.24332,-0.100034 0.09464,9.18e-4 0.174671,0.03587 0.241288,0.10556 z"
       id="path6-5-7-4"
       style="color:#eceff4;fill:#d3dae3;fill-opacity:0.5;stroke-width:0.00518265"
       class="ColorScheme-Text " />
    <path
       d="M 16.80301,1 H 5.196741 C 4.08409,1.0015 3.01728,1.44383 2.230621,2.230652 1.443768,3.017322 1.001261,4.084056 0.999999,5.196749 v 11.606701 -1.51e-4 c 8.62e-4,1.112617 0.443769,2.17939 1.230622,2.966061 0.786659,0.786821 1.853469,1.229366 2.96612,1.230652 h 11.606699 -1.9e-4 c 1.11265,-0.0012 2.17946,-0.44383 2.96611,-1.230652 0.78686,-0.786671 1.22937,-1.853444 1.23063,-2.966061 V 5.196976 C 20.99799,4.084321 20.55622,3.017549 19.76936,2.230878 18.98271,1.444056 17.9159,1.001512 16.80325,1.000226 Z M 5.617002,3.00005 H 16.383 c 0.73924,0.0011 1.43628,-0.113764 1.959,0.408983 0.52269,0.52267 0.6571,1.018431 0.658,1.757669 V 17.000025 H 3 V 5.166702 C 3.000851,4.427464 3.135307,3.931741 3.658001,3.409033 4.180679,2.886362 4.877779,3.000957 5.617002,3.00005 Z"
       id="path1193-3-4"
       style="fill:#d3dae3;fill-opacity:1;stroke-width:0.0396828"
       sodipodi:nodetypes="ccccccccccccccccccccccccc" />
  </g>
  <g
     id="yakuake">
    <rect
       id="rect11"
       width="32"
       height="32"
       opacity="0.00100002"
       x="0"
       y="0" />
    <path
       inkscape:connector-curvature="0"
       id="path9068-9-37-8-0-1"
       d="m 26.2,6 -20.4,5e-6 V 23.1 h 20.4 z"
       style="display:inline;overflow:visible;visibility:visible;opacity:0.6;fill:url(#linearGradient5058);fill-opacity:1;fill-rule:nonzero;stroke:none;stroke-width:0.653705;marker:none"
       sodipodi:nodetypes="ccccc" />
    <path
       d="M 9.2240055,8.000236 8.0000005,9.220014 12.895956,14.099057 8.0000005,18.9781 9.2240055,20.197879 15.344093,14.098933 9.2240055,7.999988 Z m 5.7759955,10.999752 v 2 H 24 v -2 z"
       id="path7-4"
       style="color:#eceff4;fill:#d3dae3;fill-opacity:1;stroke-width:1.72816"
       class="ColorScheme-Text"
       sodipodi:nodetypes="ccccccccccccc" />
    <path
       d="m 18.717162,8.94371 0.63798,0.651078 c 0.08882,0.09064 0.131996,0.19809 0.1305,0.323309 -0.0014,0.125234 -0.04774,0.232085 -0.138187,0.320115 l -4.139108,4.027811 c -0.09098,0.0885 -0.198773,0.131541 -0.324419,0.130062 -0.125676,-0.0014 -0.232416,-0.04705 -0.321231,-0.13772 l -0.637968,-0.651079 c -0.08887,-0.09067 -0.131996,-0.198091 -0.130512,-0.323306 0.0014,-0.125232 0.04774,-0.232079 0.138194,-0.320114 l 4.13861,-4.027339 c 0.09098,-0.08851 0.198773,-0.131539 0.324428,-0.130055 0.126157,0.0012 0.232894,0.04662 0.321713,0.137238 z"
       id="path6-9"
       style="color:#eceff4;fill:#d3dae3;fill-opacity:0.5;stroke-width:0.00682324"
       class="ColorScheme-Text" />
    <path
       d="M 22.963625,3.999976 H 9.0360725 c -1.335181,0.0015 -2.615323,0.532573 -3.559318,1.476774 -0.944187,0.944013 -1.475229,2.224101 -1.476754,3.5592946 v 13.9280504 -1.9e-4 c 0.0015,1.335156 0.532567,2.615282 1.476754,3.559294 0.943995,0.944202 2.224137,1.475226 3.559318,1.476775 h 13.9280335 -1.94e-4 c 1.335183,-0.0015 2.615324,-0.532573 3.559319,-1.476775 0.944185,-0.944012 1.475232,-2.224138 1.476754,-3.559294 V 9.0363092 C 27.998186,7.701153 27.467417,6.421027 26.523231,5.477015 25.579236,4.532813 24.299095,4.00179 22.963911,4.00024 Z M 9.2000015,5.999988 H 22.799998 c 0.887096,0.0011 1.603761,0.04384 2.231001,0.671244 C 25.658231,7.298445 25.9989,8.112895 26,8.999988 V 23 H 6.0000005 V 8.999988 c 0.0011,-0.887093 0.341774,-1.701506 0.969,-2.328756 0.627202,-0.627213 1.343917,-0.670148 2.231001,-0.671244 z"
       id="path1193-2"
       style="fill:#d3dae3;fill-opacity:1;stroke-width:0.047619"
       sodipodi:nodetypes="ccccccccccccccccccccccccc" />
  </g>
  <style
     id="current-color-scheme"
     type="text/css">.ColorScheme-Text { color:#eceff4; }
</style>
  <sodipodi:namedview
     id="namedview14"
     pagecolor="#ffffff"
     bordercolor="#666666"
     borderopacity="1.0"
     inkscape:pageshadow="2"
     inkscape:pageopacity="0.0"
     inkscape:pagecheckerboard="0"
     showgrid="false"
     inkscape:zoom="9.71875"
     inkscape:cx="35.652733"
     inkscape:cy="27.009646"
     inkscape:window-width="1920"
     inkscape:window-height="1002"
     inkscape:window-x="0"
     inkscape:window-y="0"
     inkscape:window-maximized="1"
     inkscape:current-layer="svg18"
     inkscape:lockguides="true"
     inkscape:showpageshadow="2"
     inkscape:deskcolor="#d1d1d1">
    <inkscape:grid
       type="xygrid"
       id="grid865"
       originx="0"
       originy="0" />
  </sodipodi:namedview>
  <defs
     id="1987">
    <linearGradient
       inkscape:collect="always"
       id="linearGradient1452">
      <stop
         style="stop-color:#5581aa;stop-opacity:1;"
         offset="0"
         id="stop1448" />
      <stop
         style="stop-color:#6db2c5;stop-opacity:1;"
         offset="1"
         id="stop1450" />
    </linearGradient>
    <style
       id="style9"
       type="text/css" />
    <linearGradient
       inkscape:collect="always"
       xlink:href="#linearGradient1452"
       id="linearGradient5058"
       x1="148.9608"
       y1="596.36218"
       x2="148.9608"
       y2="636.12817"
       gradientUnits="userSpaceOnUse"
       gradientTransform="matrix(0.50999969,0,0,0.42750131,-58.969959,-248.94562)" />
    <linearGradient
       inkscape:collect="always"
       xlink:href="#linearGradient1452"
       id="linearGradient24340"
       gradientUnits="userSpaceOnUse"
       gradientTransform="matrix(0.43219982,0,0,0.36977632,-52.533369,-217.60639)"
       x1="146.80391"
       y1="596.36243"
       x2="146.99998"
       y2="636.3623" />
  </defs>
</svg>
