<?xml version="1.0" encoding="UTF-8" standalone="no"?>
<svg
   width="64"
   height="64"
   viewBox="0 0 64 64"
   version="1.1"
   id="svg52"
   sodipodi:docname="system-file-manager.svg"
   inkscape:version="1.2.1 (9c6d41e410, 2022-07-14)"
   xmlns:inkscape="http://www.inkscape.org/namespaces/inkscape"
   xmlns:sodipodi="http://sodipodi.sourceforge.net/DTD/sodipodi-0.dtd"
   xmlns:xlink="http://www.w3.org/1999/xlink"
   xmlns="http://www.w3.org/2000/svg"
   xmlns:svg="http://www.w3.org/2000/svg">
  <sodipodi:namedview
     id="namedview54"
     pagecolor="#a4a4a4"
     bordercolor="#eeeeee"
     borderopacity="1"
     inkscape:pageshadow="0"
     inkscape:pageopacity="0"
     inkscape:pagecheckerboard="0"
     showgrid="false"
     inkscape:zoom="5.2604167"
     inkscape:cx="36.40396"
     inkscape:cy="10.930693"
     inkscape:window-width="1920"
     inkscape:window-height="1002"
     inkscape:window-x="0"
     inkscape:window-y="0"
     inkscape:window-maximized="1"
     inkscape:current-layer="svg52"
     inkscape:showpageshadow="2"
     inkscape:deskcolor="#c9c9c9" />
  <defs
     id="defs32">
    <linearGradient
       inkscape:collect="always"
       id="linearGradient1572">
      <stop
         style="stop-color:#3f475a;stop-opacity:1;"
         offset="0"
         id="stop1568" />
      <stop
         style="stop-color:#556077;stop-opacity:1;"
         offset="1"
         id="stop1570" />
    </linearGradient>
    <linearGradient
       xlink:href="#linearGradient4393"
       id="linearGradient4399"
       x1="424.44101"
       y1="502.85001"
       x2="440.87799"
       y2="529.57599"
       gradientUnits="userSpaceOnUse"
       gradientTransform="matrix(0.69224711,0,0,0.69224711,-215.22899,-357.13539)" />
    <linearGradient
       id="linearGradient4393">
      <stop
         style="stop-color:#000000;stop-opacity:1;"
         offset="0"
         id="stop3" />
      <stop
         style="stop-color:#000000;stop-opacity:0;"
         offset="1"
         id="stop5" />
    </linearGradient>
    <linearGradient
       xlink:href="#linearGradient4274"
       id="linearGradient4217"
       gradientUnits="userSpaceOnUse"
       gradientTransform="matrix(0.69224711,0,0,0.69224711,-199.3073,1639.8968)"
       x1="390.57101"
       y1="498.298"
       x2="442.57101"
       y2="498.298" />
    <linearGradient
       id="linearGradient4274">
      <stop
         offset="0"
         style="stop-color:#ffffff;stop-opacity:1;"
         id="stop9" />
      <stop
         offset="1"
         style="stop-color:#ffffff;stop-opacity:0.48760331"
         id="stop11" />
    </linearGradient>
    <linearGradient
       xlink:href="#linearGradient4227"
       id="linearGradient4225"
       gradientUnits="userSpaceOnUse"
       x1="396.57101"
       y1="498.798"
       x2="426.57101"
       y2="511.798"
       gradientTransform="matrix(0.69224711,0,0,0.69224711,-199.3073,-360.21214)" />
    <linearGradient
       id="linearGradient4227">
      <stop
         offset="0"
         style="stop-color:#f5f5f5;stop-opacity:1"
         id="stop21" />
      <stop
         offset="1"
         style="stop-color:#f9f9f9;stop-opacity:1"
         id="stop23" />
    </linearGradient>
    <style
       id="current-color-scheme"
       type="text/css">      .ColorScheme-Highlight {
        color:#3593e6;
      }
</style>
    <linearGradient
       inkscape:collect="always"
       xlink:href="#linearGradient860"
       id="linearGradient862"
       x1="113.94583"
       y1="366.97165"
       x2="406.08234"
       y2="159.71205"
       gradientUnits="userSpaceOnUse"
       gradientTransform="matrix(0.15890282,0,0,0.15318421,-9.3169708,-10.559157)" />
    <linearGradient
       inkscape:collect="always"
       id="linearGradient860">
      <stop
         style="stop-color:#8fbcbb;stop-opacity:1;"
         offset="0"
         id="stop856" />
      <stop
         style="stop-color:#a3be8c;stop-opacity:1;"
         offset="1"
         id="stop858" />
    </linearGradient>
    <linearGradient
       inkscape:collect="always"
       xlink:href="#linearGradient842"
       id="linearGradient844"
       x1="386.3063"
       y1="539.79773"
       x2="447.95114"
       y2="504.71896"
       gradientUnits="userSpaceOnUse"
       gradientTransform="matrix(0.79648933,0,0,0.92953507,-299.79222,-450.0992)" />
    <linearGradient
       inkscape:collect="always"
       id="linearGradient842">
      <stop
         style="stop-color:#5e81ac;stop-opacity:1;"
         offset="0"
         id="stop838" />
      <stop
         style="stop-color:#88c0d0;stop-opacity:1;"
         offset="1"
         id="stop840" />
    </linearGradient>
    <linearGradient
       inkscape:collect="always"
       xlink:href="#linearGradient1572"
       id="linearGradient1574"
       x1="2.9999986"
       y1="61"
       x2="61"
       y2="3"
       gradientUnits="userSpaceOnUse" />
  </defs>
  <path
     d="m 2.9999985,10.25 c 0,-4.0041748 3.245938,-7.25 7.2500005,-7.25 h 43.500003 c 4.004173,0 7.249999,3.2458252 7.249999,7.25 v 43.5 c 0,4.004173 -3.245827,7.25 -7.25,7.25 H 10.249999 C 6.2459365,61 2.9999985,57.754173 2.9999985,53.75 Z"
     id="path736"
     style="fill:#545c78;fill-opacity:1;stroke-width:3.625" />
  <path
     d="M 2.9999985,9.796875 C 2.9999985,6.0431877 6.2459365,3 10.249999,3 h 43.500003 c 4.004173,0 7.249999,3.0431877 7.249999,6.796875 v 40.781249 c 0,3.753693 -3.245827,6.796876 -7.25,6.796876 H 10.249999 c -4.0040625,0 -7.2500005,-3.043183 -7.2500005,-6.796876 z"
     id="path738"
     style="fill:url(#linearGradient1574);fill-opacity:1;stroke-width:3.625" />
  <path
     style="fill:url(#linearGradient862);fill-opacity:1;stroke-width:0.144556"
     d="m 31.997637,12.611823 c -2.675807,0 0.0014,-0.03604 -1.813723,0 L 28.796316,10.591815 C 28.488434,10.067439 27.6715,9.639473 26.981784,9.638569 L 11.713663,9.608539 c -2.2536455,0 -2.9248775,0.776651 -2.9243055,2.495433 l 2.13e-4,0.724692 v 2.132033 l -2.13e-4,28.112571 c -8e-6,0.767039 1.8070405,2.574116 2.6780945,2.574116 h 41.065072 c 0.892696,0 2.678117,-1.716078 2.678117,-2.574116 v -27.19987 c 0,-1.71608 -1.428381,-3.26157 -3.170039,-3.26157 z"
     id="path4-3"
     sodipodi:nodetypes="cccsssccscssssc" />
  <path
     style="fill:#434c5e;fill-opacity:1;stroke-width:0.148605"
     d="m 51.63981,24.546586 c 0,1.226846 -0.60923,2.230841 -2.002809,2.230841 H 14.287344 c -1.393521,0 -1.927153,-1.003995 -1.927153,-2.230841 v -6.349849 c 0,-1.716078 0.892752,-2.574417 2.678195,-2.574417 H 48.96159 c 1.785432,0 2.678219,0.858339 2.678219,2.574417 z"
     id="path8-6"
     sodipodi:nodetypes="sssssssss" />
  <path
     style="fill:url(#linearGradient844);fill-opacity:1;stroke-width:0.16714"
     d="m 50.747023,19.054778 h -37.49408 c -3.5708385,0 -5.3563135,1.716077 -5.3563135,5.148541 v 23.16795 c 0,2.574423 1.785475,4.2905 4.4635615,4.2905 H 51.63981 c 2.678063,0 4.463539,-1.716077 4.463539,-4.2905 v -23.16795 c 0,-3.432464 -1.785477,-5.148541 -5.356326,-5.148541 z"
     id="path10"
     sodipodi:nodetypes="sssssssss" />
  <path
     d="m 50.024343,33.372348 c 0.03512,-0.813889 -0.738813,-1.652105 -1.05362,-1.956044 -1.739905,-4.936799 -7.987003,-3.211112 -9.206798,-2.819182 -3.178272,-2.264774 -5.626368,0.147175 -5.64828,0.171179 -0.117885,0.117112 -0.17033,0.300327 -0.135478,0.475423 0.03506,0.171179 0.153168,0.308739 0.306078,0.357686 0.979334,0.313848 1.718146,1.377916 2.028413,1.892682 -2.281986,2.995168 -2.365023,7.264943 -2.343201,8.363545 -2.846027,2.64229 -1.945407,5.363275 -1.901783,5.480709 0.06121,0.171231 0.201165,0.294315 0.367307,0.308731 0.01192,0 0.02642,0 0.03907,0 0.148738,0 0.293017,-0.09008 0.371669,-0.234252 0.520268,-0.940923 1.171704,-1.50975 1.932308,-1.691147 1.359529,-0.323456 2.679808,0.661927 2.692926,0.671531 0.100437,0.07811 0.227299,0.108089 0.349669,0.07205 0.118175,-0.03607 0.222905,-0.123122 0.279755,-0.246267 0.686298,-1.416652 -0.376016,-3.22073 -0.76952,-3.813875 0.50267,-2.392726 1.735576,-3.779943 2.70164,-4.529867 l -0.196594,0.366702 c -0.06124,0.123153 -0.07865,0.264287 -0.03962,0.397036 0.03501,0.138137 0.122493,0.246282 0.236187,0.303941 0.428322,0.210239 1.027269,0.231259 1.78805,0.05404 0.634008,-0.153216 1.24599,-0.51957 1.770615,-1.06376 0.686281,-0.705774 1.451438,-0.75984 1.451438,-0.75984 h 4.345588 c 0.100565,0 0.192363,-0.03909 0.271035,-0.102145 0.371676,-0.328552 0.476478,-0.686546 0.50264,-0.931315 0.03531,-0.324361 -0.05637,-0.598857 -0.13941,-0.775449 z m -3.07329,-0.529482 h -0.240489 c -0.240489,0 -0.437278,-0.219229 -0.437278,-0.490437 0,-0.270295 0.196728,-0.490429 0.437278,-0.490429 h 0.240489 c 0.244815,0 0.437244,0.219231 0.437244,0.490429 0,0.270303 -0.192308,0.490437 -0.437244,0.490437 z"
     id="path49"
     style="fill:#ffffff;fill-opacity:1;stroke-width:0.0454694" />
</svg>
