<?xml version="1.0" encoding="UTF-8" standalone="no"?>
<svg
   width="136"
   height="136"
   viewBox="0 0 35.983333 35.983334"
   id="svg2"
   version="1.1"
   inkscape:version="1.2.1 (9c6d41e410, 2022-07-14)"
   sodipodi:docname="busywidget.svg"
   xmlns:inkscape="http://www.inkscape.org/namespaces/inkscape"
   xmlns:sodipodi="http://sodipodi.sourceforge.net/DTD/sodipodi-0.dtd"
   xmlns="http://www.w3.org/2000/svg"
   xmlns:svg="http://www.w3.org/2000/svg"
   xmlns:rdf="http://www.w3.org/1999/02/22-rdf-syntax-ns#"
   xmlns:cc="http://creativecommons.org/ns#"
   xmlns:dc="http://purl.org/dc/elements/1.1/">
  <defs
     id="defs4">
    <style
       type="text/css"
       id="current-color-scheme" />
  </defs>
  <sodipodi:namedview
     id="base"
     pagecolor="#ffffff"
     bordercolor="#000000"
     borderopacity="1"
     inkscape:pageopacity="0"
     inkscape:pageshadow="2"
     inkscape:zoom="2.0000001"
     inkscape:cx="88.499996"
     inkscape:cy="76.749996"
     inkscape:document-units="px"
     inkscape:current-layer="layer1"
     showgrid="false"
     units="px"
     inkscape:showpageshadow="true"
     borderlayer="true"
     inkscape:window-width="1920"
     inkscape:window-height="1002"
     inkscape:window-x="0"
     inkscape:window-y="0"
     inkscape:window-maximized="1"
     fit-margin-top="0"
     fit-margin-left="0"
     fit-margin-right="0"
     fit-margin-bottom="0"
     inkscape:document-rotation="0"
     showguides="false"
     inkscape:lockguides="true"
     inkscape:pagecheckerboard="0"
     inkscape:deskcolor="#808080">
    <sodipodi:guide
       position="-5.8455811e-08,35.983344"
       orientation="136.00001,0"
       id="guide4155"
       inkscape:locked="true" />
    <sodipodi:guide
       position="-5.8455811e-08,6.6152344e-06"
       orientation="0,136"
       id="guide4157"
       inkscape:locked="true" />
    <sodipodi:guide
       position="35.983333,6.6152344e-06"
       orientation="-136.00001,0"
       id="guide4159"
       inkscape:locked="true" />
    <sodipodi:guide
       position="35.983333,35.983344"
       orientation="0,-136"
       id="guide4161"
       inkscape:locked="true" />
    <sodipodi:guide
       position="1.1488343e-09,17.991675"
       orientation="68.000007,0"
       id="guide4165"
       inkscape:locked="true" />
    <sodipodi:guide
       position="1.1488343e-09,6.6152344e-06"
       orientation="0,67.999998"
       id="guide4167"
       inkscape:locked="true" />
    <sodipodi:guide
       position="17.991666,6.6152344e-06"
       orientation="-68.000007,0"
       id="guide4169"
       inkscape:locked="true" />
    <sodipodi:guide
       position="17.991666,17.991675"
       orientation="0,-67.999998"
       id="guide4171"
       inkscape:locked="true" />
    <sodipodi:guide
       position="1.8520831,34.131232"
       orientation="122.00003,0"
       id="guide4199"
       inkscape:locked="true" />
    <sodipodi:guide
       position="1.8520831,1.8520574"
       orientation="0,121.99999"
       id="guide4201"
       inkscape:locked="true" />
    <sodipodi:guide
       position="34.131248,1.8520574"
       orientation="-122.00003,0"
       id="guide4203"
       inkscape:locked="true" />
    <sodipodi:guide
       position="34.131248,34.131232"
       orientation="0,-121.99999"
       id="guide4205"
       inkscape:locked="true" />
    <inkscape:grid
       type="xygrid"
       id="grid199" />
  </sodipodi:namedview>
  <metadata
     id="metadata7">
    <rdf:RDF>
      <cc:Work
         rdf:about="">
        <dc:format>image/svg+xml</dc:format>
        <dc:type
           rdf:resource="http://purl.org/dc/dcmitype/StillImage" />
      </cc:Work>
    </rdf:RDF>
  </metadata>
  <g
     inkscape:label="Capa 1"
     inkscape:groupmode="layer"
     id="layer1"
     transform="translate(0.52916664,-249.37498)">
    <g
       id="stopped">
      <rect
         style="opacity:1;fill:none;fill-opacity:1;stroke:none;stroke-width:0.0264583;stroke-linecap:square;stroke-linejoin:miter;stroke-miterlimit:4;stroke-dasharray:none;stroke-dashoffset:0;stroke-opacity:1"
         id="rect4234"
         width="35.983334"
         height="35.983334"
         x="-42.862503"
         y="249.37497" />
      <ellipse
         ry="1.3229166"
         rx="1.322917"
         cy="38.364582"
         cx="267.36664"
         id="ellipse4238"
         style="opacity:1;fill:#6db2c5;fill-opacity:1;stroke:none;stroke-width:0.0132292;stroke-linecap:square;stroke-linejoin:miter;stroke-miterlimit:4;stroke-dasharray:none;stroke-dashoffset:0;stroke-opacity:1"
         transform="rotate(90)" />
      <ellipse
         transform="rotate(90)"
         style="opacity:1;fill:#6db2c5;fill-opacity:1;stroke:none;stroke-width:0.0105833;stroke-linecap:square;stroke-linejoin:miter;stroke-miterlimit:4;stroke-dasharray:none;stroke-dashoffset:0;stroke-opacity:1"
         id="ellipse4261"
         cx="267.36664"
         cy="11.377067"
         rx="1.0583339"
         ry="1.0583336" />
      <ellipse
         ry="2.1166663"
         rx="2.116667"
         cy="24.870825"
         cx="267.36664"
         id="ellipse4263"
         style="opacity:1;fill:#6db2c5;fill-opacity:1;stroke:none;stroke-width:0.0211667;stroke-linecap:square;stroke-linejoin:miter;stroke-miterlimit:4;stroke-dasharray:none;stroke-dashoffset:0;stroke-opacity:1"
         transform="rotate(90)" />
    </g>
    <rect
       style="opacity:0.01;fill:#00cccc;fill-opacity:1;fill-rule:nonzero;stroke:none;stroke-width:0.264583"
       id="hint-rotation-angle"
       width="3.7041671"
       height="3.7041693"
       x="-0.52916706"
       y="285.35831" />
    <g
       id="22-22-busywidget">
      <rect
         y="279.53748"
         x="51.329166"
         height="5.8208337"
         width="5.8208337"
         id="rect3007"
         style="fill:none;stroke:none" />
      <path
         sodipodi:nodetypes="sccccccccccccccccsssss"
         inkscape:connector-curvature="0"
         id="path3009"
         transform="matrix(0.26458334,0,0,0.26458334,-0.52916714,249.37498)"
         d="m 206.90625,115 c -5.68285,0 -9.90626,4.76331 -9.90625,10 0,5.11064 3.86041,9.24196 8.53125,9.90625 0.007,0.001 0.0245,-0.001 0.0313,0 0.1869,0.0265 0.37435,0.0459 0.5625,0.0625 0.0726,0.008 0.11478,-0.004 0.1875,0 h 0.0313 c 0.0253,0.002 0.0371,0 0.0625,0 0.16207,0.008 0.3377,0.0313 0.5,0.0313 0.0253,-1.1e-4 0.0373,0 0.0625,0 0.22673,-0.003 0.46154,-0.0123 0.6875,-0.0313 0.0336,-0.003 0.06,0.002 0.0937,0 2.08268,-0.2143 4.08105,-1.19024 5.5625,-2.6875 2.29078,-2.85585 2.42433,-5.2927 1.42433,-9.29269 1.22819,5.24703 -2.45297,9.87167 -7.86188,10.0102 -4.24948,0 -7.87455,-3.58819 -7.87457,-7.99871 0.0682,-4.85133 3.99957,-7.98861 7.93707,-8.00652 h 0.15625 c 0.16789,0 0.31534,-0.15426 0.3125,-0.32394 -0.006,-0.3677 -0.0216,-0.97956 -0.0313,-1.32579 C 207.36994,115.1624 207.24222,115 207.0625,115 Z"
         style="fill:#6db2c5;fill-opacity:1;stroke:none"
         class="ColorScheme-ButtonFocus" />
    </g>
    <g
       id="16-16-busywidget">
      <rect
         style="fill:none;stroke:none"
         id="rect3792"
         width="4.2333336"
         height="4.2333336"
         x="58.472801"
         y="281.12497" />
      <path
         style="fill:#6db2c5;fill-opacity:1;stroke:none"
         d="m 60.57642,281.3808 c -1.05492,0 -1.838921,0.88423 -1.838919,1.85633 0,0.9487 0.716617,1.71561 1.583674,1.83892 0.0013,1.8e-4 0.0045,-1.8e-4 0.0058,0 0.03469,0.005 0.06949,0.008 0.104418,0.0115 0.01348,9.5e-4 0.02132,-7.1e-4 0.03481,0 h 0.0058 c 0.0047,3.7e-4 0.0068,0 0.0116,0 0.03009,9.5e-4 0.06269,0.006 0.09281,0.006 0.0047,-10e-6 0.007,0 0.01161,0 0.04209,-5.5e-4 0.08568,-0.002 0.127622,-0.006 0.0062,-5.5e-4 0.01115,3.7e-4 0.01739,0 0.386612,-0.0397 0.757573,-0.22096 1.032578,-0.49889 0.425244,-0.53014 0.450034,-0.98249 0.264402,-1.72502 0.227992,0.97402 -0.455349,1.8325 -1.459418,1.85821 -0.788838,0 -1.461768,-0.66608 -1.461773,-1.48481 0.01267,-0.90056 0.74245,-1.48294 1.473376,-1.48626 h 0.029 c 0.03117,0 0.05855,-0.0288 0.05801,-0.0601 -0.0011,-0.0683 -0.0039,-0.18183 -0.0058,-0.2461 -9.11e-4,-0.0337 -0.02464,-0.0638 -0.058,-0.0638 z"
         id="path3794"
         inkscape:connector-curvature="0"
         sodipodi:nodetypes="sccccccccccccccccsssss"
         class="ColorScheme-ButtonFocus" />
    </g>
    <g
       id="busywidget">
      <rect
         style="fill:none;stroke:none"
         id="rect3016"
         width="35.983334"
         height="35.983334"
         x="-0.52916682"
         y="249.37498" />
      <path
         d="m 18.708659,261.30548 c 0,0.61752 -0.504778,1.11821 -1.127786,1.11821 -0.622789,0 -1.127807,-0.50069 -1.127807,-1.11821 0,-0.61804 0.505038,-1.11868 1.127807,-1.11868 0.623028,0 1.127786,0.50068 1.127786,1.11868"
         id="path958"
         style="fill:#d3dae3;fill-opacity:1;stroke-width:0.0646965" />
      <path
         d="m 24.275209,258.67152 c 0,0.51839 -0.423324,0.93828 -0.945889,0.93828 -0.522543,0 -0.945886,-0.41993 -0.945886,-0.93828 0,-0.51779 0.423321,-0.93805 0.945886,-0.93805 0.52255,0 0.945889,0.42026 0.945889,0.93805"
         id="path960"
         style="fill:#d3dae3;fill-opacity:1;stroke-width:0.0646965" />
      <path
         d="m 25.948807,259.03232 c 0,0.299 -0.244402,0.54116 -0.545894,0.54116 -0.301237,0 -0.545639,-0.2422 -0.545639,-0.54116 0,-0.2989 0.244402,-0.54136 0.545639,-0.54136 0.301508,0 0.545894,0.24222 0.545894,0.54136"
         id="path962"
         style="fill:#d3dae3;fill-opacity:1;stroke-width:0.0646965" />
      <path
         d="m 21.101478,258.20178 c 0.732391,0.45474 0.954714,1.41186 0.496398,2.13816 -0.458596,0.72616 -1.423746,0.94681 -2.156196,0.49212 -0.7324,-0.45431 -0.954714,-1.41178 -0.496404,-2.13807 0.45833,-0.72648 1.423742,-0.94675 2.156202,-0.49221"
         id="path964"
         style="fill:#d3dae3;fill-opacity:1;stroke-width:0.0646965" />
      <path
         d="m 22.274156,262.53201 c 0,0.61775 -0.505031,1.11843 -1.128052,1.11843 -0.622772,0 -1.127794,-0.50072 -1.127794,-1.11843 0,-0.61773 0.505046,-1.11826 1.127794,-1.11826 0.623045,0 1.128052,0.50057 1.128052,1.11826"
         id="path966"
         style="fill:#d3dae3;fill-opacity:1;stroke-width:0.0646965" />
      <path
         d="m 28.27729,263.75876 c 0,0.51814 -0.423571,0.93809 -0.945889,0.93809 -0.522544,0 -0.946066,-0.41995 -0.946066,-0.93809 0,-0.51817 0.423559,-0.93808 0.946066,-0.93808 0.522287,0 0.945889,0.41991 0.945889,0.93808"
         id="path968"
         style="fill:#d3dae3;fill-opacity:1;stroke-width:0.0646965" />
      <path
         d="m 29.36875,265.27416 c 0,0.29874 -0.244393,0.54125 -0.545874,0.54125 -0.301238,0 -0.545639,-0.24227 -0.545639,-0.54125 0,-0.29888 0.244401,-0.54107 0.545639,-0.54107 0.301504,0 0.545874,0.24223 0.545874,0.54107"
         id="path970"
         style="fill:#d3dae3;fill-opacity:1;stroke-width:0.0646965" />
      <path
         d="m 25.985186,262.64022 c 0,0.85674 -0.700438,1.55142 -1.564323,1.55142 -0.864149,0 -1.56458,-0.69468 -1.56458,-1.55142 0,-0.85693 0.700431,-1.55133 1.56458,-1.55133 0.863885,0 1.564323,0.6944 1.564323,1.55133"
         id="path972"
         style="fill:#d3dae3;fill-opacity:1;stroke-width:0.0646965" />
      <path
         d="m 24.457114,265.59887 c 0,0.61785 -0.505033,1.11852 -1.127794,1.11852 -0.622779,0 -1.127786,-0.50071 -1.127786,-1.11852 0,-0.61773 0.505027,-1.11839 1.127786,-1.11839 0.622784,0 1.127794,0.50066 1.127794,1.11839"
         id="path974"
         style="fill:#d3dae3;fill-opacity:1;stroke-width:0.0646965" />
      <path
         d="m 28.531959,270.21688 c 0,0.51825 -0.423305,0.93817 -0.945879,0.93817 -0.522285,0 -0.945876,-0.41992 -0.945876,-0.93817 0,-0.51788 0.423559,-0.93788 0.945876,-0.93788 0.522544,0 0.945879,0.42 0.945879,0.93788"
         id="path976"
         style="fill:#d3dae3;fill-opacity:1;stroke-width:0.0646965" />
      <path
         d="m 27.840695,271.76833 c -0.291104,0.0387 -0.47306,0.3248 -0.436505,0.61337 0.0363,0.28875 0.327358,0.46908 0.618463,0.43287 0.291098,-0.0389 0.47305,-0.32478 0.436515,-0.61332 -0.0367,-0.2888 -0.327631,-0.46892 -0.618473,-0.43292 z"
         id="path978"
         style="fill:#d3dae3;fill-opacity:1;stroke-width:0.0646965" />
      <path
         d="m 27.440499,267.58312 c 0,0.85704 -0.700447,1.5516 -1.564586,1.5516 -0.863891,0 -1.564323,-0.69456 -1.564323,-1.5516 0,-0.85673 0.700432,-1.5513 1.564323,-1.5513 0.864139,0 1.564586,0.69457 1.564586,1.5513"
         id="path980"
         style="fill:#d3dae3;fill-opacity:1;stroke-width:0.0646965" />
      <path
         d="m 24.384344,269.35107 c 0,0.61753 -0.504766,1.11829 -1.127793,1.11829 -0.622786,0 -1.127791,-0.50076 -1.127791,-1.11829 0,-0.61794 0.505025,-1.11835 1.127791,-1.11835 0.62305,0 1.127793,0.50041 1.127793,1.11835"
         id="path982"
         style="fill:#d3dae3;fill-opacity:1;stroke-width:0.0646965" />
      <path
         d="m 24.328474,274.69007 c 0.48601,0.19046 0.724281,0.73543 0.532196,1.21735 -0.191881,0.48173 -0.741303,0.71802 -1.227338,0.52771 -0.486004,-0.19006 -0.724269,-0.73536 -0.53218,-1.21702 0.191872,-0.48196 0.74129,-0.71821 1.227322,-0.52804"
         id="path984"
         style="fill:#d3dae3;fill-opacity:1;stroke-width:0.0646965" />
      <path
         d="m 23.256488,276.96372 c -0.254797,-0.14401 -0.582173,-0.0387 -0.727581,0.21639 -0.145403,0.25274 -0.0363,0.57732 0.218268,0.72156 0.254806,0.144 0.582175,0.0385 0.727587,-0.2164 0.14566,-0.25274 0.0367,-0.57732 -0.218274,-0.72155 z"
         id="path986"
         style="fill:#d3dae3;fill-opacity:1;stroke-width:0.0646965" />
      <path
         d="m 25.694117,272.45387 c 0,0.85671 -0.700419,1.55118 -1.564311,1.55118 -0.864151,0 -1.564582,-0.69447 -1.564582,-1.55118 0,-0.85701 0.700431,-1.55162 1.564582,-1.55162 0.863892,0 1.564311,0.69461 1.564311,1.55162"
         id="path988"
         style="fill:#d3dae3;fill-opacity:1;stroke-width:0.0646965" />
      <path
         d="m 22.092252,272.34562 c 0,0.61752 -0.505038,1.11837 -1.127796,1.11837 -0.623048,0 -1.128044,-0.50085 -1.128044,-1.11837 0,-0.61779 0.505008,-1.11847 1.128044,-1.11847 0.62278,0 1.127796,0.50068 1.127796,1.11847"
         id="path990"
         style="fill:#d3dae3;fill-opacity:1;stroke-width:0.0646965" />
      <path
         d="m 18.370822,277.0043 c 0.446166,0.26962 0.587258,0.84661 0.315466,1.28907 -0.271827,0.44247 -0.85402,0.58259 -1.300161,0.31313 -0.446151,-0.26963 -0.587509,-0.84694 -0.315449,-1.28933 0.271809,-0.4424 0.854012,-0.58259 1.300144,-0.31271"
         id="path992"
         style="fill:#d3dae3;fill-opacity:1;stroke-width:0.0646965" />
      <path
         d="m 16.525707,278.73156 c 0,0.2989 -0.244396,0.54134 -0.545884,0.54134 -0.301238,0 -0.545637,-0.24226 -0.545637,-0.54134 0,-0.29877 0.244405,-0.54107 0.545637,-0.54107 0.3015,0 0.545884,0.24234 0.545884,0.54107"
         id="path994"
         style="fill:#d3dae3;fill-opacity:1;stroke-width:0.0646965" />
      <path
         d="m 20.608999,274.02267 c 0.756322,0.41423 1.03087,1.35799 0.613403,2.10789 -0.417718,0.75005 -1.369157,1.02259 -2.125713,0.60835 -0.756297,-0.414 -1.030872,-1.35772 -0.613408,-2.10798 0.417726,-0.75005 1.369171,-1.02222 2.125718,-0.60826"
         id="path996"
         style="fill:#d3dae3;fill-opacity:1;stroke-width:0.0646965" />
      <path
         d="m 18.364334,272.91768 c 0.283733,0.54989 0.06429,1.22356 -0.490313,1.50494 -0.554775,0.28132 -1.234146,0.0625 -1.517869,-0.48647 -0.283727,-0.54993 -0.06397,-1.22361 0.490561,-1.50499 0.554527,-0.28117 1.234158,-0.0628 1.517611,0.48652"
         id="path998"
         style="fill:#d3dae3;fill-opacity:1;stroke-width:0.0646965" />
      <path
         d="m 12.560008,276.06177 c 0,0.51788 -0.423311,0.93799 -0.945879,0.93799 -0.522547,0 -0.945885,-0.42007 -0.945885,-0.93799 0,-0.51818 0.423306,-0.93828 0.945885,-0.93828 0.522541,0 0.945879,0.42014 0.945879,0.93828"
         id="path1000"
         style="fill:#d3dae3;fill-opacity:1;stroke-width:0.0646965" />
      <path
         d="m 10.085997,275.70094 c 0,0.29894 -0.2444046,0.54136 -0.545645,0.54136 -0.3015016,0 -0.5458805,-0.24224 -0.5458805,-0.54136 0,-0.29886 0.2444008,-0.54109 0.5458805,-0.54109 0.3012374,0 0.545645,0.24227 0.545645,0.54109"
         id="path1002"
         style="fill:#d3dae3;fill-opacity:1;stroke-width:0.0646965" />
      <path
         d="m 14.904085,273.67469 c 0.854219,0.12984 1.440489,0.92119 1.309782,1.76826 -0.130689,0.84686 -0.929127,1.42846 -1.783069,1.29882 -0.854215,-0.12971 -1.440501,-0.92135 -1.309787,-1.76843 0.130694,-0.84693 0.92913,-1.4285 1.783074,-1.29865"
         id="path1004"
         style="fill:#d3dae3;fill-opacity:1;stroke-width:0.0646965" />
      <path
         d="m 14.92488,272.20132 c 0,0.61778 -0.505027,1.11842 -1.127794,1.11842 -0.623046,0 -1.128062,-0.50066 -1.128062,-1.11842 0,-0.61757 0.505024,-1.11848 1.128062,-1.11848 0.622785,0 1.127794,0.50091 1.127794,1.11848"
         id="path1006"
         style="fill:#d3dae3;fill-opacity:1;stroke-width:0.0646965" />
      <path
         d="m 8.5579184,270.97453 c 0,0.51827 -0.4235671,0.93804 -0.9460735,0.93804 -0.5222887,0 -0.945885,-0.41973 -0.945885,-0.93804 0,-0.51812 0.4235673,-0.93796 0.945885,-0.93796 0.5225489,0 0.9460735,0.41984 0.9460735,0.93796"
         id="path1008"
         style="fill:#d3dae3;fill-opacity:1;stroke-width:0.0646965" />
      <path
         d="m 6.4841127,269.85609 c 0.2182704,-0.21626 0.2182704,-0.541 0,-0.75771 -0.2182712,-0.21636 -0.5456314,-0.21636 -0.7641593,0 -0.2182709,0.21638 -0.2182709,0.54109 0,0.75771 0.2184982,0.1804 0.5458814,0.1804 0.7641593,0 z"
         id="path1010"
         style="fill:#d3dae3;fill-opacity:1;stroke-width:0.0646965" />
      <path
         d="m 12.087033,272.09309 c 0,0.85693 -0.700422,1.55154 -1.564573,1.55154 -0.8639043,0 -1.564329,-0.69461 -1.564329,-1.55154 0,-0.85678 0.7004247,-1.55137 1.564329,-1.55137 0.864151,0 1.564573,0.69459 1.564573,1.55137"
         id="path1012"
         style="fill:#d3dae3;fill-opacity:1;stroke-width:0.0646965" />
      <path
         d="m 12.741936,269.1346 c 0,0.61753 -0.505039,1.11828 -1.127807,1.11828 -0.622792,0 -1.1278,-0.50079 -1.1278,-1.11828 0,-0.61797 0.505028,-1.11868 1.1278,-1.11868 0.622788,0 1.127807,0.50071 1.127807,1.11868"
         id="path1014"
         style="fill:#d3dae3;fill-opacity:1;stroke-width:0.0646965" />
      <path
         d="m 8.3032432,264.51651 c 0,0.51776 -0.423567,0.93796 -0.945885,0.93796 -0.522538,0 -0.945873,-0.42016 -0.945873,-0.93796 0,-0.51838 0.4233054,-0.93827 0.945873,-0.93827 0.5222995,0 0.945885,0.41993 0.945885,0.93827"
         id="path1016"
         style="fill:#d3dae3;fill-opacity:1;stroke-width:0.0646965" />
      <path
         d="m 7.1026217,262.96494 c 0.2911036,-0.0387 0.4730525,-0.32476 0.4365154,-0.61331 -0.0363,-0.28878 -0.327368,-0.46909 -0.6184831,-0.4329 -0.2911028,0.0389 -0.4730401,0.32478 -0.4365111,0.61336 0.072841,0.28875 0.3276329,0.46885 0.6184788,0.43285 z"
         id="path1018"
         style="fill:#d3dae3;fill-opacity:1;stroke-width:0.0646965" />
      <path
         d="m 10.631732,267.15015 c 0,0.85677 -0.7004312,1.55138 -1.5643214,1.55138 -0.8641515,0 -1.5645835,-0.69461 -1.5645835,-1.55138 0,-0.85693 0.700432,-1.55144 1.5645835,-1.55144 0.8638902,0 1.5643214,0.69451 1.5643214,1.55144"
         id="path1020"
         style="fill:#d3dae3;fill-opacity:1;stroke-width:0.0646965" />
      <path
         d="m 12.814692,265.38235 c 0,0.61785 -0.505025,1.11828 -1.127804,1.11828 -0.62303,0 -1.127784,-0.50043 -1.127784,-1.11828 0,-0.61768 0.504759,-1.11833 1.127784,-1.11833 0.622799,0 1.127804,0.50069 1.127804,1.11833"
         id="path1022"
         style="fill:#d3dae3;fill-opacity:1;stroke-width:0.0646965" />
      <path
         d="m 11.358083,258.3179 c 0.474835,0.21574 0.683478,0.77273 0.465701,1.2434 -0.217477,0.47122 -0.778849,0.67786 -1.253967,0.46218 -0.474839,-0.216 -0.6834808,-0.77254 -0.465951,-1.24384 0.217742,-0.47074 0.779107,-0.67773 1.254227,-0.46174"
         id="path1024"
         style="fill:#d3dae3;fill-opacity:1;stroke-width:0.0646965" />
      <path
         d="m 11.686834,257.76947 c 0.254798,0.14439 0.582189,0.0391 0.727582,-0.21635 0.145408,-0.25248 0.0363,-0.57709 -0.218261,-0.72129 -0.254798,-0.144 -0.582187,-0.0391 -0.727594,0.2164 -0.145674,0.25267 -0.0367,0.577 0.218273,0.7212 z"
         id="path1026"
         style="fill:#d3dae3;fill-opacity:1;stroke-width:0.0646965" />
      <path
         d="m 12.378096,262.27943 c 0,0.85697 -0.700432,1.55165 -1.564587,1.55165 -0.8638864,0 -1.5643238,-0.69468 -1.5643238,-1.55165 0,-0.85653 0.7004374,-1.55108 1.5643238,-1.55108 0.864155,0 1.564587,0.69455 1.564587,1.55108"
         id="path1028"
         style="fill:#d3dae3;fill-opacity:1;stroke-width:0.0646965" />
      <path
         d="m 14.770261,261.5928 c 0.440304,0.43649 0.440304,1.1447 0,1.58172 -0.440584,0.43649 -1.1547,0.43649 -1.595055,0 -0.440565,-0.43702 -0.440565,-1.14516 0,-1.58172 0.44031,-0.43704 1.154491,-0.43704 1.595055,0"
         id="path1030"
         style="fill:#d3dae3;fill-opacity:1;stroke-width:0.0646965" />
      <path
         d="m 17.288452,256.01518 c 0.507573,0.12281 0.818736,0.63016 0.695095,1.13348 -0.12358,0.50337 -0.63547,0.81198 -1.143056,0.68955 -0.507571,-0.12318 -0.818736,-0.63019 -0.695109,-1.13354 0.123659,-0.50336 0.635476,-0.81219 1.14307,-0.68949"
         id="path1032"
         style="fill:#d3dae3;fill-opacity:1;stroke-width:0.0646965" />
      <path
         d="m 19.50907,256.00184 c 0,0.29891 -0.244394,0.54107 -0.545625,0.54107 -0.301489,0 -0.54588,-0.2422 -0.54588,-0.54107 0,-0.299 0.244405,-0.54144 0.54588,-0.54144 0.30124,0 0.545625,0.2422 0.545625,0.54144"
         id="path1034"
         style="fill:#d3dae3;fill-opacity:1;stroke-width:0.0646965" />
      <path
         d="m 15.884472,258.01636 c 0.743821,0.43628 0.990257,1.38756 0.550454,2.12516 -0.439547,0.73732 -1.399096,0.98174 -2.142661,0.5457 -0.743842,-0.43595 -0.990265,-1.38747 -0.550465,-2.12508 0.43955,-0.73732 1.398847,-0.98179 2.142672,-0.54578"
         id="path1036"
         style="fill:#d3dae3;fill-opacity:1;stroke-width:0.0646965" />
      <ellipse
         ry="2.6013873"
         rx="2.57969"
         cy="-17.562647"
         cx="267.36685"
         id="ellipse4263-3"
         style="fill:#6db2c5;fill-opacity:1;stroke:none;stroke-width:0.0259045;stroke-linecap:square;stroke-linejoin:miter;stroke-miterlimit:4;stroke-dasharray:none;stroke-dashoffset:0;stroke-opacity:1"
         transform="rotate(90)" />
    </g>
  </g>
</svg>
