<?xml version="1.0" encoding="UTF-8" standalone="no"?>
<!-- Created with Inkscape (http://www.inkscape.org/) -->

<svg
   width="128"
   height="128"
   id="svg2"
   sodipodi:version="0.32"
   inkscape:version="1.2.1 (9c6d41e410, 2022-07-14)"
   version="1.0"
   sodipodi:docname="containment-controls.svg"
   inkscape:output_extension="org.inkscape.output.svg.inkscape"
   inkscape:export-filename="arrow-up.png"
   inkscape:export-xdpi="11.25"
   inkscape:export-ydpi="11.25"
   xmlns:inkscape="http://www.inkscape.org/namespaces/inkscape"
   xmlns:sodipodi="http://sodipodi.sourceforge.net/DTD/sodipodi-0.dtd"
   xmlns:xlink="http://www.w3.org/1999/xlink"
   xmlns="http://www.w3.org/2000/svg"
   xmlns:svg="http://www.w3.org/2000/svg"
   xmlns:rdf="http://www.w3.org/1999/02/22-rdf-syntax-ns#"
   xmlns:cc="http://creativecommons.org/ns#"
   xmlns:dc="http://purl.org/dc/elements/1.1/">
  <sodipodi:namedview
     id="base"
     pagecolor="#ffffff"
     bordercolor="#000000"
     borderopacity="1"
     gridtolerance="10000"
     guidetolerance="10"
     objecttolerance="10"
     inkscape:pageopacity="1"
     inkscape:pageshadow="2"
     inkscape:zoom="4"
     inkscape:cx="57.874999"
     inkscape:cy="55.624999"
     inkscape:document-units="px"
     inkscape:current-layer="layer1"
     width="128px"
     height="128px"
     showgrid="false"
     inkscape:window-width="1920"
     inkscape:window-height="1002"
     inkscape:window-x="0"
     inkscape:window-y="0"
     inkscape:snap-nodes="true"
     inkscape:snap-global="true"
     inkscape:window-maximized="1"
     showguides="true"
     inkscape:guide-bbox="true"
     inkscape:snap-page="true"
     inkscape:snap-bbox="true"
     inkscape:snap-bbox-edge-midpoints="true"
     inkscape:pagecheckerboard="0"
     inkscape:showpageshadow="true"
     inkscape:lockguides="false"
     inkscape:deskcolor="#d1d1d1">
    <inkscape:grid
       enabled="true"
       visible="true"
       empspacing="2"
       empopacity="0.03921569"
       opacity="0.01960784"
       empcolor="#0000ff"
       color="#0000ff"
       spacingy="1"
       spacingx="1"
       originy="0"
       originx="0"
       type="xygrid"
       id="GridFromPre046Settings"
       snapvisiblegridlinesonly="true" />
  </sodipodi:namedview>
  <defs
     id="defs4">
    <linearGradient
       id="linearGradient587">
      <stop
         style="stop-color:#ff00ff;stop-opacity:1"
         offset="0"
         id="stop583" />
      <stop
         style="stop-color:#000000;stop-opacity:0;"
         offset="1"
         id="stop585" />
    </linearGradient>
    <linearGradient
       id="linearGradient3937">
      <stop
         style="stop-color:#888888;stop-opacity:1;"
         offset="0"
         id="stop3939" />
      <stop
         style="stop-color:#232323;stop-opacity:1;"
         offset="1"
         id="stop3941" />
    </linearGradient>
    <linearGradient
       id="linearGradient3488">
      <stop
         id="stop3490"
         offset="0"
         style="stop-color:#ffffff;stop-opacity:0.78431374;" />
      <stop
         id="stop3492"
         offset="1"
         style="stop-color:#ffffff;stop-opacity:0.19607843;" />
    </linearGradient>
    <linearGradient
       id="linearGradient4157">
      <stop
         style="stop-color:#ffffff;stop-opacity:1;"
         offset="0"
         id="stop4159" />
      <stop
         style="stop-color:#b4b4b4;stop-opacity:1;"
         offset="1"
         id="stop4161" />
    </linearGradient>
    <linearGradient
       id="linearGradient6476"
       inkscape:swatch="solid">
      <stop
         id="stop6478"
         offset="0"
         style="stop-color:#ffffff;stop-opacity:1;" />
    </linearGradient>
    <linearGradient
       id="linearGradient6476-1"
       inkscape:swatch="solid">
      <stop
         id="stop6478-5"
         offset="0"
         style="stop-color:#ffffff;stop-opacity:1;" />
    </linearGradient>
    <linearGradient
       id="linearGradient3852-7">
      <stop
         id="stop3854-7"
         offset="0"
         style="stop-color:#000000;stop-opacity:0.07843138;" />
      <stop
         id="stop3856-1"
         offset="1"
         style="stop-color:#000000;stop-opacity:0.3137255;" />
    </linearGradient>
    <linearGradient
       id="linearGradient3765-0">
      <stop
         id="stop3767-9"
         offset="0"
         style="stop-color:#fafafa;stop-opacity:1;" />
      <stop
         id="stop3769-1"
         offset="1"
         style="stop-color:#e2e2e2;stop-opacity:0.70588237;" />
    </linearGradient>
    <style
       type="text/css"
       id="style23" />
    <linearGradient
       inkscape:collect="always"
       xlink:href="#linearGradient4422-9"
       id="linearGradient4746-0"
       gradientUnits="userSpaceOnUse"
       x1="97.5"
       y1="102.5"
       x2="97.5"
       y2="106.5" />
    <linearGradient
       inkscape:collect="always"
       id="linearGradient4422-9">
      <stop
         style="stop-color:#000000;stop-opacity:0.251"
         offset="0"
         id="stop4424-2" />
      <stop
         style="stop-color:#000000;stop-opacity:0;"
         offset="1"
         id="stop4426-8" />
    </linearGradient>
    <linearGradient
       inkscape:collect="always"
       xlink:href="#linearGradient4402-2"
       id="linearGradient4744-1"
       gradientUnits="userSpaceOnUse"
       x1="97.5"
       y1="102.5"
       x2="97.5"
       y2="106.5" />
    <linearGradient
       id="linearGradient4402-2">
      <stop
         style="stop-color:#000000;stop-opacity:1;"
         offset="0"
         id="stop4404-2" />
      <stop
         style="stop-color:#000000;stop-opacity:0;"
         offset="1"
         id="stop4406-7" />
    </linearGradient>
    <linearGradient
       inkscape:collect="always"
       xlink:href="#linearGradient4402-2"
       id="linearGradient968"
       gradientUnits="userSpaceOnUse"
       x1="97.5"
       y1="102.5"
       x2="97.5"
       y2="106.5" />
    <linearGradient
       inkscape:collect="always"
       xlink:href="#linearGradient4422-9"
       id="linearGradient970"
       gradientUnits="userSpaceOnUse"
       x1="97.5"
       y1="102.5"
       x2="97.5"
       y2="106.5" />
    <linearGradient
       inkscape:collect="always"
       xlink:href="#linearGradient4402-2"
       id="linearGradient4438"
       x1="97.5"
       y1="102.5"
       x2="97.5"
       y2="106.5"
       gradientUnits="userSpaceOnUse" />
    <linearGradient
       inkscape:collect="always"
       xlink:href="#linearGradient4402-2"
       id="linearGradient1179"
       gradientUnits="userSpaceOnUse"
       x1="97.5"
       y1="102.5"
       x2="97.5"
       y2="106.5" />
    <linearGradient
       inkscape:collect="always"
       xlink:href="#linearGradient4422-9"
       id="linearGradient1181"
       gradientUnits="userSpaceOnUse"
       x1="97.5"
       y1="102.5"
       x2="97.5"
       y2="106.5" />
    <linearGradient
       inkscape:collect="always"
       xlink:href="#linearGradient4402-2"
       id="linearGradient1183"
       gradientUnits="userSpaceOnUse"
       x1="97.5"
       y1="102.5"
       x2="97.5"
       y2="106.5" />
    <radialGradient
       inkscape:collect="always"
       xlink:href="#linearGradient4213"
       id="radialGradient2719"
       gradientUnits="userSpaceOnUse"
       gradientTransform="matrix(2.6250001,0,0,2.2075201,-241,-197.90313)"
       cx="88"
       cy="93.5"
       fx="88"
       fy="93.5"
       r="8" />
    <linearGradient
       id="linearGradient4213">
      <stop
         id="stop4215"
         offset="0"
         style="stop-color:#ffffff;stop-opacity:0.39215687;" />
      <stop
         id="stop4217"
         offset="1"
         style="stop-color:#ffffff;stop-opacity:0;" />
    </linearGradient>
    <radialGradient
       inkscape:collect="always"
       xlink:href="#linearGradient3272"
       id="radialGradient2716"
       gradientUnits="userSpaceOnUse"
       gradientTransform="matrix(2.6250001,0,0,2.2075201,-241,-196.90313)"
       cx="88"
       cy="93.5"
       fx="88"
       fy="93.5"
       r="8" />
    <linearGradient
       id="linearGradient3272">
      <stop
         style="stop-color:#000000;stop-opacity:0.35294119;"
         offset="0"
         id="stop3274" />
      <stop
         style="stop-color:#ffffff;stop-opacity:0;"
         offset="1"
         id="stop3276" />
    </linearGradient>
    <radialGradient
       inkscape:collect="always"
       xlink:href="#linearGradient3272"
       id="radialGradient2723"
       gradientUnits="userSpaceOnUse"
       gradientTransform="matrix(2.6250001,0,0,2.2075201,-241,-198.90313)"
       cx="88"
       cy="93.5"
       fx="88"
       fy="93.5"
       r="8" />
    <radialGradient
       inkscape:collect="always"
       xlink:href="#linearGradient4213"
       id="radialGradient2704"
       gradientUnits="userSpaceOnUse"
       gradientTransform="matrix(2.6250001,0,0,2.2075201,-199.00001,-173.90313)"
       cx="88"
       cy="93.5"
       fx="88"
       fy="93.5"
       r="8" />
    <radialGradient
       inkscape:collect="always"
       xlink:href="#linearGradient3272"
       id="radialGradient2701"
       gradientUnits="userSpaceOnUse"
       gradientTransform="matrix(2.6250001,0,0,2.2075201,-199.00001,-172.90313)"
       cx="88"
       cy="93.5"
       fx="88"
       fy="93.5"
       r="8" />
    <radialGradient
       inkscape:collect="always"
       xlink:href="#linearGradient3272"
       id="radialGradient2708"
       gradientUnits="userSpaceOnUse"
       gradientTransform="matrix(2.6250001,0,0,2.2075201,-199.00001,-174.90313)"
       cx="88"
       cy="93.5"
       fx="88"
       fy="93.5"
       r="8" />
    <linearGradient
       inkscape:collect="always"
       xlink:href="#linearGradient4402-2"
       id="linearGradient4278"
       x1="13"
       y1="2"
       x2="13"
       y2="15"
       gradientUnits="userSpaceOnUse" />
    <linearGradient
       inkscape:collect="always"
       xlink:href="#linearGradient4402-2"
       id="linearGradient4258"
       x1="61"
       y1="5.3000002"
       x2="61"
       y2="17"
       gradientUnits="userSpaceOnUse" />
    <linearGradient
       inkscape:collect="always"
       xlink:href="#linearGradient4402-2"
       id="linearGradient4248"
       x1="106"
       y1="32"
       x2="106"
       y2="45"
       gradientUnits="userSpaceOnUse" />
    <linearGradient
       inkscape:collect="always"
       xlink:href="#linearGradient4402-2"
       id="linearGradient4220"
       x1="64"
       y1="14.3"
       x2="51"
       y2="14.3"
       gradientUnits="userSpaceOnUse" />
    <linearGradient
       inkscape:collect="always"
       xlink:href="#linearGradient4402-2"
       id="linearGradient4268"
       x1="62"
       y1="5.3000002"
       x2="62"
       y2="17"
       gradientUnits="userSpaceOnUse" />
    <linearGradient
       inkscape:collect="always"
       xlink:href="#linearGradient4402-2"
       id="linearGradient1362"
       gradientUnits="userSpaceOnUse"
       x1="106"
       y1="32"
       x2="106"
       y2="45" />
  </defs>
  <metadata
     id="metadata7">
    <rdf:RDF>
      <cc:Work
         rdf:about="">
        <dc:format>image/svg+xml</dc:format>
        <dc:type
           rdf:resource="http://purl.org/dc/dcmitype/StillImage" />
      </cc:Work>
    </rdf:RDF>
  </metadata>
  <g
     id="layer1"
     inkscape:groupmode="layer"
     inkscape:label="Layer 1">
    <rect
       y="0"
       x="-10"
       height="5.4025974"
       width="5.2207794"
       id="hint-tile-center"
       style="opacity:0.01;fill:#008080;fill-opacity:1;fill-rule:nonzero;stroke:none;stroke-width:1;stroke-linecap:round;stroke-linejoin:round;stroke-miterlimit:4;stroke-dasharray:none;stroke-dashoffset:0;stroke-opacity:1" />
    <g
       id="g4025"
       style="fill:#ffffff;fill-opacity:1"
       transform="rotate(-90,85.72097,51.27903)" />
    <g
       inkscape:label="#g5481"
       transform="matrix(0.73968509,0,0,0.73968509,168.58899,116.36301)"
       id="south-maxslider">
      <rect
         style="opacity:0.01;fill:#fcfcfc;fill-opacity:0.00392157;stroke:none"
         id="rect3850"
         width="36"
         height="15"
         x="8.000001"
         y="57"
         transform="matrix(1.3519267,0,0,1.3519267,-107.51398,-181.4377)"
         rx="3"
         ry="3" />
      <rect
         class="ColorScheme-Background"
         y="-101.67403"
         x="-73.715813"
         height="14.871195"
         width="2.7038541"
         id="rect5489"
         style="color:#eff0f1;fill:currentColor;fill-opacity:1;stroke:none" />
      <path
         style="color:#eff0f1;fill:currentColor;fill-opacity:1;stroke:none"
         d="m 19.6875,59.15625 -0.75,0.6875 L 23.09375,64 H 11.000001 v 1 H 23.09375 l -4.15625,4.15625 0.6875,0.6875 5,-5 L 25,64.5 24.625,64.15625 Z"
         transform="matrix(1.3519267,0,0,1.3519267,-107.51398,-181.4377)"
         id="path3852"
         class="ColorScheme-Background"
         inkscape:connector-curvature="0"
         sodipodi:nodetypes="cccccccccccc" />
    </g>
    <g
       inkscape:label="#g5494"
       transform="matrix(0.73968509,0,0,0.73968509,149.5296,131.20016)"
       id="south-offsetslider">
      <rect
         style="opacity:0.01;fill:#fcfcfc;fill-opacity:0.00392157;stroke:none"
         id="rect3080"
         width="28"
         height="19"
         x="-40"
         y="56"
         transform="matrix(1.3519267,0,0,1.3519267,-37.218,-180.07685)" />
      <path
         style="color:#eff0f1;fill:currentColor;fill-opacity:1;stroke:none"
         inkscape:transform-center-y="0.9853864"
         d="m -72.265772,-88.18535 9.733014,-13.47975 h -19.466029 z"
         id="path5500"
         inkscape:connector-curvature="0"
         class="ColorScheme-Background" />
    </g>
    <g
       id="south-minslider"
       transform="matrix(-0.73968509,0,0,0.73968509,23.567264,116.20676)"
       inkscape:label="#g5481">
      <rect
         ry="3"
         rx="3"
         transform="matrix(1.3519267,0,0,1.3519267,-107.51398,-181.4377)"
         y="57"
         x="8.000001"
         height="15"
         width="36"
         id="rect3863"
         style="opacity:0.01;fill:#fcfcfc;fill-opacity:0.00392157;stroke:none" />
      <rect
         style="color:#eff0f1;fill:currentColor;fill-opacity:1;stroke:none"
         id="rect3865"
         width="2.7038541"
         height="14.871195"
         x="-73.715813"
         y="-101.67403"
         class="ColorScheme-Background" />
      <path
         id="path3867"
         transform="matrix(1.3519267,0,0,1.3519267,-107.51398,-181.4377)"
         d="m 19.625001,59.15625 -0.6875,0.6875 L 23.093751,64 H 11.000002 v 1 h 12.093749 l -4.15625,4.15625 0.6875,0.6875 5,-5 0.375,-0.34375 -0.375,-0.34375 z"
         style="color:#eff0f1;fill:currentColor;fill-opacity:1;stroke:none"
         inkscape:connector-curvature="0"
         class="ColorScheme-Background"
         sodipodi:nodetypes="cccccccccccc" />
    </g>
    <g
       id="north-maxslider"
       transform="matrix(0.73968509,0,0,0.73968509,168.43274,79.20676)"
       inkscape:label="#g5481">
      <rect
         ry="3"
         rx="3"
         transform="matrix(1.3519267,0,0,1.3519267,-107.51398,-181.4377)"
         y="57"
         x="8.000001"
         height="15"
         width="36"
         id="rect3845"
         style="opacity:0.01;fill:#fcfcfc;fill-opacity:0.00392157;stroke:none" />
      <rect
         style="color:#eff0f1;fill:currentColor;fill-opacity:1;stroke:none"
         id="rect3847"
         width="2.7038541"
         height="14.871195"
         x="-73.715813"
         y="-101.67403"
         class="ColorScheme-Background" />
      <path
         sodipodi:nodetypes="cccccccccccc"
         inkscape:connector-curvature="0"
         class="ColorScheme-Background"
         id="path3849"
         transform="matrix(1.3519267,0,0,1.3519267,-107.51398,-181.4377)"
         d="m 19.6875,59.15625 -0.75,0.6875 L 23.09375,64 H 11.000001 v 1 H 23.09375 l -4.15625,4.15625 0.6875,0.6875 5,-5 L 25,64.5 24.625,64.15625 Z"
         style="color:#eff0f1;fill:currentColor;fill-opacity:1;stroke:none" />
    </g>
    <g
       id="north-offsetslider"
       transform="matrix(0.73968509,0,0,-0.73968509,149.45391,-47.229389)"
       inkscape:label="#g5494">
      <rect
         transform="matrix(1.3519267,0,0,1.3519267,-37.218,-180.07685)"
         y="56"
         x="-40"
         height="19"
         width="28"
         id="rect3853"
         style="opacity:0.01;fill:#fcfcfc;fill-opacity:0.00392157;stroke:none" />
      <path
         class="ColorScheme-Background"
         inkscape:connector-curvature="0"
         id="path3855"
         d="m -72.265772,-88.18535 9.733014,-13.47975 h -19.466029 z"
         inkscape:transform-center-y="0.9853864"
         style="color:#eff0f1;fill:currentColor;fill-opacity:1;stroke:none" />
    </g>
    <g
       inkscape:label="#g5481"
       transform="matrix(-0.73968509,0,0,0.73968509,23.567264,79.20676)"
       id="north-minslider">
      <rect
         style="opacity:0.01;fill:#fcfcfc;fill-opacity:0.00392157;stroke:none"
         id="rect3859"
         width="36"
         height="15"
         x="8.000001"
         y="57"
         transform="matrix(1.3519267,0,0,1.3519267,-107.51398,-181.4377)"
         rx="3"
         ry="3" />
      <rect
         class="ColorScheme-Background"
         y="-101.67403"
         x="-73.715813"
         height="14.871195"
         width="2.7038541"
         id="rect3861"
         style="color:#eff0f1;fill:currentColor;fill-opacity:1;stroke:none" />
      <path
         sodipodi:nodetypes="cccccccccccc"
         class="ColorScheme-Background"
         inkscape:connector-curvature="0"
         style="color:#eff0f1;fill:currentColor;fill-opacity:1;stroke:none"
         d="m 19.625001,59.15625 -0.6875,0.6875 L 23.093751,64 H 11.000002 v 1 h 12.093749 l -4.15625,4.15625 0.6875,0.6875 5,-5 0.375,-0.34375 -0.375,-0.34375 z"
         transform="matrix(1.3519267,0,0,1.3519267,-107.51398,-181.4377)"
         id="path3863" />
    </g>
    <g
       inkscape:label="#g5481"
       transform="matrix(0,0.73968509,-0.73968509,0,31.79324,168.52649)"
       id="east-maxslider">
      <rect
         style="opacity:0.01;fill:#fcfcfc;fill-opacity:0.00392157;stroke:none"
         id="rect3873"
         width="36"
         height="15"
         x="8.000001"
         y="57"
         transform="matrix(1.3519267,0,0,1.3519267,-107.51398,-181.4377)"
         rx="3"
         ry="3" />
      <rect
         class="ColorScheme-Background"
         y="-101.67403"
         x="-73.715813"
         height="14.871195"
         width="2.7038541"
         id="rect3875"
         style="color:#eff0f1;fill:currentColor;fill-opacity:1;stroke:none" />
      <path
         style="color:#eff0f1;fill:currentColor;fill-opacity:1;stroke:none"
         d="m 19.6875,59.15625 -0.75,0.6875 L 23.09375,64 H 11.000001 v 1 H 23.09375 l -4.15625,4.15625 0.6875,0.6875 5,-5 L 25,64.5 24.625,64.15625 Z"
         transform="matrix(1.3519267,0,0,1.3519267,-107.51398,-181.4377)"
         id="path3877"
         class="ColorScheme-Background"
         inkscape:connector-curvature="0"
         sodipodi:nodetypes="cccccccccccc" />
    </g>
    <g
       inkscape:label="#g5494"
       transform="matrix(0,0.73968509,0.73968509,0,186.22939,151.45391)"
       id="east-offsetslider">
      <rect
         style="opacity:0.01;fill:#fcfcfc;fill-opacity:0.00392157;stroke:none"
         id="rect3881"
         width="28"
         height="19"
         x="-40"
         y="56"
         transform="matrix(1.3519267,0,0,1.3519267,-37.218,-180.07685)" />
      <path
         style="color:#eff0f1;fill:currentColor;fill-opacity:1;stroke:none"
         inkscape:transform-center-y="0.9853864"
         d="m -72.265772,-88.18535 9.733014,-13.47975 h -19.466029 z"
         id="path3883"
         inkscape:connector-curvature="0"
         class="ColorScheme-Background" />
    </g>
    <g
       id="east-minslider"
       transform="matrix(0,-0.73968509,-0.73968509,0,31.94949,27.411013)"
       inkscape:label="#g5481">
      <rect
         ry="3"
         rx="3"
         transform="matrix(1.3519267,0,0,1.3519267,-107.51398,-181.4377)"
         y="57"
         x="8.000001"
         height="15"
         width="36"
         id="rect3887"
         style="opacity:0.01;fill:#fcfcfc;fill-opacity:0.00392157;stroke:none" />
      <rect
         style="color:#eff0f1;fill:currentColor;fill-opacity:1;stroke:none"
         id="rect3889"
         width="2.7038541"
         height="14.871195"
         x="-73.715813"
         y="-101.67403"
         class="ColorScheme-Background" />
      <path
         id="path3891"
         transform="matrix(1.3519267,0,0,1.3519267,-107.51398,-181.4377)"
         d="m 19.625001,59.15625 -0.6875,0.6875 L 23.093751,64 H 11.000002 v 1 h 12.093749 l -4.15625,4.15625 0.6875,0.6875 5,-5 0.375,-0.34375 -0.375,-0.34375 z"
         style="color:#eff0f1;fill:currentColor;fill-opacity:1;stroke:none"
         inkscape:connector-curvature="0"
         class="ColorScheme-Background"
         sodipodi:nodetypes="cccccccccccc" />
    </g>
    <g
       id="west-maxslider"
       transform="matrix(0,0.73968509,-0.73968509,0,-43.20676,170.52649)"
       inkscape:label="#g5481">
      <rect
         ry="3"
         rx="3"
         transform="matrix(1.3519267,0,0,1.3519267,-107.51398,-181.4377)"
         y="57"
         x="8.000001"
         height="15"
         width="36"
         id="rect3901"
         style="opacity:0.01;fill:#fcfcfc;fill-opacity:0.00392157;stroke:none" />
      <rect
         style="color:#eff0f1;fill:currentColor;fill-opacity:1;stroke:none"
         id="rect3903"
         width="2.7038541"
         height="14.871195"
         x="-73.715813"
         y="-101.67403"
         class="ColorScheme-Background" />
      <path
         sodipodi:nodetypes="cccccccccccc"
         inkscape:connector-curvature="0"
         class="ColorScheme-Background"
         id="path3905"
         transform="matrix(1.3519267,0,0,1.3519267,-107.51398,-181.4377)"
         d="m 19.6875,59.15625 -0.75,0.6875 L 23.09375,64 H 11.000001 v 1 H 23.09375 l -4.15625,4.15625 0.6875,0.6875 5,-5 L 25,64.5 24.625,64.15625 Z"
         style="color:#eff0f1;fill:currentColor;fill-opacity:1;stroke:none" />
    </g>
    <g
       id="west-offsetslider"
       transform="matrix(0,0.73968509,-0.73968509,0,-58.20016,151.5296)"
       inkscape:label="#g5494">
      <rect
         transform="matrix(1.3519267,0,0,1.3519267,-37.218,-180.07685)"
         y="56"
         x="-40"
         height="19"
         width="28"
         id="rect3909"
         style="opacity:0.01;fill:#fcfcfc;fill-opacity:0.00392157;stroke:none" />
      <path
         class="ColorScheme-Background"
         inkscape:connector-curvature="0"
         id="path3911"
         d="m -72.265772,-88.18535 9.733014,-13.47975 h -19.466029 z"
         inkscape:transform-center-y="0.9853864"
         style="color:#eff0f1;fill:currentColor;fill-opacity:1;stroke:none" />
    </g>
    <g
       inkscape:label="#g5481"
       transform="matrix(0,-0.73968509,-0.73968509,0,-43.05051,25.411013)"
       id="west-minslider">
      <rect
         style="opacity:0.01;fill:#fcfcfc;fill-opacity:0.00392157;stroke:none"
         id="rect3915"
         width="36"
         height="15"
         x="8.000001"
         y="57"
         transform="matrix(1.3519267,0,0,1.3519267,-107.51398,-181.4377)"
         rx="3"
         ry="3" />
      <rect
         class="ColorScheme-Background"
         y="-101.67403"
         x="-73.715813"
         height="14.871195"
         width="2.7038541"
         id="rect3917"
         style="color:#eff0f1;fill:currentColor;fill-opacity:1;stroke:none" />
      <path
         sodipodi:nodetypes="cccccccccccc"
         class="ColorScheme-Background"
         inkscape:connector-curvature="0"
         style="color:#eff0f1;fill:currentColor;fill-opacity:1;stroke:none"
         d="m 19.625001,59.15625 -0.6875,0.6875 L 23.093751,64 H 11.000002 v 1 h 12.093749 l -4.15625,4.15625 0.6875,0.6875 5,-5 0.375,-0.34375 -0.375,-0.34375 z"
         transform="matrix(1.3519267,0,0,1.3519267,-107.51398,-181.4377)"
         id="path3919" />
    </g>
    <rect
       y="30.5"
       x="61"
       height="5"
       width="5"
       id="west-center"
       style="fill:#000000;fill-opacity:0.156863;stroke:none"
       inkscape:label="#west-center" />
    <g
       id="west-right"
       transform="rotate(90,119.5,55)"
       inkscape:label="#g4702">
      <rect
         style="fill:#000000;fill-opacity:0.352941;stroke:none"
         id="rect4704"
         width="5"
         height="1"
         x="95"
         y="101.5" />
      <rect
         y="102.5"
         x="95"
         height="4"
         width="5"
         id="rect4706"
         style="fill:#000000;fill-opacity:0.156863;stroke:none" />
      <rect
         y="100.5"
         x="95"
         height="1"
         width="5"
         id="rect4708"
         style="fill:#ffffff;fill-opacity:0.392157;stroke:none" />
      <rect
         style="opacity:0.25;fill:url(#linearGradient968);fill-opacity:1;stroke:none"
         id="rect4710"
         width="5"
         height="4"
         x="95"
         y="102.5" />
    </g>
    <g
       transform="matrix(0,1,1,0,-47.5,-64.5)"
       id="west-left"
       inkscape:label="#west-left">
      <rect
         y="101.5"
         x="95"
         height="1"
         width="5"
         id="rect4714"
         style="fill:#000000;fill-opacity:0.352941;stroke:none" />
      <rect
         style="fill:#000000;fill-opacity:0.156863;stroke:none"
         id="rect4716"
         width="5"
         height="4"
         x="95"
         y="102.5" />
      <rect
         style="fill:#ffffff;fill-opacity:0.392157;stroke:none"
         id="rect4718"
         width="5"
         height="1"
         x="95"
         y="100.5" />
      <rect
         y="102.5"
         x="95"
         height="4"
         width="5"
         id="rect4720"
         style="fill:url(#linearGradient970);fill-opacity:1;stroke:none" />
    </g>
    <rect
       y="20"
       x="61"
       height="5"
       width="5"
       id="east-center"
       style="fill:#000000;fill-opacity:0.156863;stroke:none"
       inkscape:label="#east-center" />
    <g
       id="east-right"
       transform="rotate(90,124.75,49.75)"
       inkscape:label="#east-right">
      <rect
         style="fill:#000000;fill-opacity:0.352941;stroke:none"
         id="rect4704-0"
         width="5"
         height="1"
         x="95"
         y="101.5" />
      <rect
         y="102.5"
         x="95"
         height="4"
         width="5"
         id="rect4706-3"
         style="fill:#000000;fill-opacity:0.156863;stroke:none" />
      <rect
         y="100.5"
         x="95"
         height="1"
         width="5"
         id="rect4708-0"
         style="fill:#ffffff;fill-opacity:0.392157;stroke:none" />
      <rect
         style="opacity:0.25;fill:url(#linearGradient4744-1);fill-opacity:1;stroke:none"
         id="rect4710-7"
         width="5"
         height="4"
         x="95"
         y="102.5" />
    </g>
    <g
       transform="matrix(0,1,1,0,-47.5,-75)"
       id="east-left"
       inkscape:label="#east-left">
      <rect
         y="101.5"
         x="95"
         height="1"
         width="5"
         id="rect4714-9"
         style="fill:#000000;fill-opacity:0.352941;stroke:none" />
      <rect
         style="fill:#000000;fill-opacity:0.156863;stroke:none"
         id="rect4716-8"
         width="5"
         height="4"
         x="95"
         y="102.5" />
      <rect
         style="fill:#ffffff;fill-opacity:0.392157;stroke:none"
         id="rect4718-5"
         width="5"
         height="1"
         x="95"
         y="100.5" />
      <rect
         y="102.5"
         x="95"
         height="4"
         width="5"
         id="rect4720-8"
         style="fill:url(#linearGradient4746-0);fill-opacity:1;stroke:none" />
    </g>
    <rect
       style="fill:#000000;fill-opacity:0.156863;stroke:none"
       id="south-center"
       width="5"
       height="5"
       x="61"
       y="93.5" />
    <g
       transform="translate(-34,-14.5)"
       id="south-top">
      <rect
         y="101.5"
         x="95"
         height="1"
         width="5"
         id="rect4079"
         style="fill:#000000;fill-opacity:0.352941;stroke:none" />
      <rect
         style="fill:#000000;fill-opacity:0.156863;stroke:none"
         id="rect4081"
         width="5"
         height="4"
         x="95"
         y="102.5" />
      <rect
         style="fill:#5b7ca6;fill-opacity:0.40000001;stroke:none"
         id="rect4298"
         width="5"
         height="1"
         x="95"
         y="100.5" />
      <rect
         y="102.5"
         x="95"
         height="4"
         width="5"
         id="rect4400"
         style="opacity:0.25;fill:url(#linearGradient1179);fill-opacity:1;stroke:none" />
    </g>
    <g
       id="south-bottom"
       transform="matrix(1,0,0,-1,-34,206)">
      <rect
         style="fill:#000000;fill-opacity:0.352941;stroke:none"
         id="rect4203"
         width="5"
         height="1"
         x="95"
         y="101.5" />
      <rect
         y="102.5"
         x="95"
         height="4"
         width="5"
         id="rect4205"
         style="fill:#000000;fill-opacity:0.156863;stroke:none" />
      <rect
         y="100.5"
         x="95"
         height="1"
         width="5"
         id="rect4300"
         style="fill:#077080;fill-opacity:0.40000001;stroke:none" />
      <rect
         style="fill:url(#linearGradient1181);fill-opacity:1;stroke:none"
         id="rect4420"
         width="5"
         height="4"
         x="95"
         y="102.5" />
    </g>
    <rect
       style="fill:#000000;fill-opacity:0.156863;stroke:none"
       id="north-center"
       width="5"
       height="5"
       x="69.5"
       y="93.5"
       inkscape:label="#south-center" />
    <g
       transform="translate(-25.5,-14.5)"
       id="north-top">
      <rect
         y="101.5"
         x="95"
         height="1"
         width="5"
         id="rect4079-3"
         style="fill:#000000;fill-opacity:0.352941;stroke:none" />
      <rect
         style="fill:#000000;fill-opacity:0.156863;stroke:none"
         id="rect4081-7"
         width="5"
         height="4"
         x="95"
         y="102.5" />
      <rect
         style="fill:#5b7ca6;fill-opacity:0.40000001;stroke:none"
         id="rect4298-3"
         width="5"
         height="1"
         x="95"
         y="100.5" />
      <rect
         y="102.5"
         x="95"
         height="4"
         width="5"
         id="rect4410"
         style="opacity:0.25;fill:url(#linearGradient1183);fill-opacity:1;stroke:none" />
    </g>
    <g
       id="north-bottom"
       transform="matrix(1,0,0,-1,-25.5,206)"
       inkscape:label="#south-bottom">
      <rect
         style="fill:#000000;fill-opacity:0.352941;stroke:none"
         id="rect4203-5"
         width="5"
         height="1"
         x="95"
         y="101.5" />
      <rect
         y="102.5"
         x="95"
         height="4"
         width="5"
         id="rect4205-7"
         style="fill:#000000;fill-opacity:0.156863;stroke:none" />
      <rect
         y="100.5"
         x="95"
         height="1"
         width="5"
         id="rect4300-8"
         style="fill:#077080;fill-opacity:0.40000001;stroke:none" />
      <rect
         style="opacity:0.25;fill:url(#linearGradient4438);fill-opacity:1;stroke:none"
         id="rect4430"
         width="5"
         height="4"
         x="95"
         y="102.5" />
    </g>
    <g
       id="vertical-centerindicator"
       transform="translate(-5,19)">
      <rect
         style="fill:url(#radialGradient2704);fill-opacity:1;fill-rule:nonzero;stroke:none"
         id="rect4223"
         width="42"
         height="1"
         x="11"
         y="32" />
      <rect
         y="33"
         x="11"
         height="1"
         width="42"
         id="rect4209"
         style="fill:url(#radialGradient2701);fill-opacity:1;fill-rule:nonzero;stroke:none" />
      <rect
         style="fill:url(#radialGradient2708);fill-opacity:1;fill-rule:nonzero;stroke:none"
         id="rect2706"
         width="42"
         height="1"
         x="11"
         y="31" />
    </g>
    <g
       id="horizontal-centerindicator"
       transform="translate(-5,19)">
      <rect
         transform="rotate(-90)"
         y="8"
         x="-31"
         height="1"
         width="42"
         id="rect4227"
         style="fill:url(#radialGradient2719);fill-opacity:1;fill-rule:nonzero;stroke:none" />
      <rect
         transform="rotate(-90)"
         style="fill:url(#radialGradient2716);fill-opacity:1;fill-rule:nonzero;stroke:none"
         id="rect4229"
         width="42"
         height="1"
         x="-31"
         y="9" />
      <rect
         y="7"
         x="-31"
         height="1"
         width="42"
         id="rect2721"
         style="fill:url(#radialGradient2723);fill-opacity:1;fill-rule:nonzero;stroke:none"
         transform="rotate(-90)" />
    </g>
    <g
       transform="translate(-71,-20)"
       id="base-topright">
      <path
         style="fill:#000000;fill-opacity:0.27451;stroke:none"
         d="m 105,32 v 3 h 3 v -2 c 0,-0.554 -0.446,-1 -1,-1 z"
         id="path4903"
         inkscape:connector-curvature="0" />
      <path
         sodipodi:nodetypes="ccssccssc"
         style="fill:#ffffff;fill-opacity:0.392157;stroke:none"
         d="m 105,30 v 1 h 2 c 1.108,0 2,0.892 2,2 v 2 h 1 v -2 c 0,-1.662 -1.338,-3 -3,-3 z"
         id="path4905"
         inkscape:connector-curvature="0" />
      <path
         inkscape:connector-curvature="0"
         id="path4907"
         d="m 105,31 v 1 h 2 c 0.554,0 1,0.446 1,1 v 2 h 1 v -2 c 0,-1.108 -0.892,-2 -2,-2 z"
         style="fill:#000000;fill-opacity:0.352941;stroke:none"
         sodipodi:nodetypes="ccssccssc" />
      <path
         inkscape:connector-curvature="0"
         id="path4230"
         d="m 105,32 v 3 h 3 v -2 c 0,-0.554 -0.446,-1 -1,-1 z"
         style="opacity:0.25;fill:url(#linearGradient1362);fill-opacity:1;stroke:none" />
    </g>
    <g
       transform="matrix(1,0,0,1.1111111,-27,6.111111)"
       id="base-right">
      <path
         inkscape:connector-curvature="0"
         style="fill:#ffffff;fill-opacity:0.392157;stroke:none"
         d="m 65,8 h 1 v 9 h -1 z"
         id="path4911" />
      <path
         id="path4913"
         d="m 61,8 h 3 v 9 h -3 z"
         style="fill:#000000;fill-opacity:0.27451;stroke:none"
         inkscape:connector-curvature="0" />
      <path
         id="path4915"
         d="m 64,8 h 1 v 9 h -1 z"
         style="fill:#000000;fill-opacity:0.352941;stroke:none"
         inkscape:connector-curvature="0" />
      <path
         inkscape:connector-curvature="0"
         style="opacity:0.25;fill:url(#linearGradient4268);fill-opacity:1;stroke:none"
         d="m 61,8 h 3 v 9 h -3 z"
         id="path4260" />
    </g>
    <g
       id="base-bottomright"
       transform="matrix(1,0,0,-1,-71,60)">
      <path
         inkscape:connector-curvature="0"
         id="path4919"
         d="m 105,32 v 3 h 3 v -2 c 0,-0.554 -0.446,-1 -1,-1 z"
         style="fill:#000000;fill-opacity:0.27451;stroke:none" />
      <path
         inkscape:connector-curvature="0"
         id="path4921"
         d="m 105,30 v 1 h 2 c 1.108,0 2,0.892 2,2 v 2 h 1 v -2 c 0,-1.662 -1.338,-3 -3,-3 z"
         style="fill:#ffffff;fill-opacity:0.392157;stroke:none"
         sodipodi:nodetypes="ccssccssc" />
      <path
         sodipodi:nodetypes="ccssccssc"
         style="fill:#000000;fill-opacity:0.352941;stroke:none"
         d="m 105,31 v 1 h 2 c 0.554,0 1,0.446 1,1 v 2 h 1 v -2 c 0,-1.108 -0.892,-2 -2,-2 z"
         id="path4923"
         inkscape:connector-curvature="0" />
    </g>
    <g
       id="base-top"
       transform="matrix(0,-1,1.1111111,0,15.11111,76)">
      <path
         id="path4927"
         d="m 65,8 h 1 v 9 h -1 z"
         style="fill:#ffffff;fill-opacity:0.392157;stroke:none"
         inkscape:connector-curvature="0" />
      <path
         inkscape:connector-curvature="0"
         style="fill:#000000;fill-opacity:0.27451;stroke:none"
         d="m 61,8 h 3 v 9 h -3 z"
         id="path4929" />
      <path
         inkscape:connector-curvature="0"
         style="fill:#000000;fill-opacity:0.352941;stroke:none"
         d="m 64,8 h 1 v 9 h -1 z"
         id="path4931" />
      <path
         id="path4212"
         d="m 61,8 h 3 v 9 h -3 z"
         style="opacity:0.25;fill:url(#linearGradient4220);fill-opacity:1;stroke:none"
         inkscape:connector-curvature="0" />
    </g>
    <g
       id="base-topleft"
       transform="matrix(-1,0,0,1,129,-20)">
      <path
         inkscape:connector-curvature="0"
         id="path4935"
         d="m 105,32 v 3 h 3 v -2 c 0,-0.554 -0.446,-1 -1,-1 z"
         style="fill:#000000;fill-opacity:0.27451;stroke:none" />
      <path
         inkscape:connector-curvature="0"
         id="path4937"
         d="m 105,30 v 1 h 2 c 1.108,0 2,0.892 2,2 v 2 h 1 v -2 c 0,-1.662 -1.338,-3 -3,-3 z"
         style="fill:#ffffff;fill-opacity:0.392157;stroke:none"
         sodipodi:nodetypes="ccssccssc" />
      <path
         sodipodi:nodetypes="ccssccssc"
         style="fill:#000000;fill-opacity:0.352941;stroke:none"
         d="m 105,31 v 1 h 2 c 0.554,0 1,0.446 1,1 v 2 h 1 v -2 c 0,-1.108 -0.892,-2 -2,-2 z"
         id="path4939"
         inkscape:connector-curvature="0" />
      <path
         style="opacity:0.25;fill:url(#linearGradient4248);fill-opacity:1;stroke:none"
         d="m 105,32 v 3 h 3 v -2 c 0,-0.554 -0.446,-1 -1,-1 z"
         id="path4240"
         inkscape:connector-curvature="0" />
    </g>
    <g
       id="base-left"
       transform="matrix(-1,0,0,1.1111111,85.000001,6.111111)">
      <path
         id="path4943"
         d="m 65,8 h 1 v 9 h -1 z"
         style="fill:#ffffff;fill-opacity:0.392157;stroke:none"
         inkscape:connector-curvature="0" />
      <path
         inkscape:connector-curvature="0"
         style="fill:#000000;fill-opacity:0.27451;stroke:none"
         d="m 61,8 h 3 v 9 h -3 z"
         id="path4945" />
      <path
         inkscape:connector-curvature="0"
         style="fill:#000000;fill-opacity:0.352941;stroke:none"
         d="m 64,8 h 1 v 9 h -1 z"
         id="path4947" />
      <path
         id="path4250"
         d="m 61,8 h 3 v 9 h -3 z"
         style="opacity:0.25;fill:url(#linearGradient4258);fill-opacity:1;stroke:none"
         inkscape:connector-curvature="0" />
    </g>
    <g
       transform="rotate(180,64.500001,30)"
       id="base-bottomleft">
      <path
         style="fill:#000000;fill-opacity:0.27451;stroke:none"
         d="m 105,32 v 3 h 3 v -2 c 0,-0.554 -0.446,-1 -1,-1 z"
         id="path4951"
         inkscape:connector-curvature="0" />
      <path
         sodipodi:nodetypes="ccssccssc"
         style="fill:#ffffff;fill-opacity:0.392157;stroke:none"
         d="m 105,30 v 1 h 2 c 1.108,0 2,0.892 2,2 v 2 h 1 v -2 c 0,-1.662 -1.338,-3 -3,-3 z"
         id="path4953"
         inkscape:connector-curvature="0" />
      <path
         inkscape:connector-curvature="0"
         id="path4955"
         d="m 105,31 v 1 h 2 c 0.554,0 1,0.446 1,1 v 2 h 1 v -2 c 0,-1.108 -0.892,-2 -2,-2 z"
         style="fill:#000000;fill-opacity:0.352941;stroke:none"
         sodipodi:nodetypes="ccssccssc" />
    </g>
    <g
       transform="matrix(0,1,1.1111111,0,15.11111,-36)"
       id="base-bottom">
      <path
         inkscape:connector-curvature="0"
         style="fill:#ffffff;fill-opacity:0.392157;stroke:none"
         d="m 65,8 h 1 v 9 h -1 z"
         id="path4959" />
      <path
         id="path4961"
         d="m 61,8 h 3 v 9 h -3 z"
         style="fill:#000000;fill-opacity:0.27451;stroke:none"
         inkscape:connector-curvature="0" />
      <path
         id="path4963"
         d="m 64,8 h 1 v 9 h -1 z"
         style="fill:#000000;fill-opacity:0.352941;stroke:none"
         inkscape:connector-curvature="0" />
    </g>
    <rect
       y="27"
       x="27.5"
       height="3"
       width="3"
       id="base-hint-bottom-margin"
       style="fill:#008080;fill-opacity:1;fill-rule:nonzero;stroke:none;opacity:0.01" />
    <rect
       style="fill:#008080;fill-opacity:1;fill-rule:nonzero;stroke:none;opacity:0.01"
       id="base-hint-right-margin"
       width="3"
       height="3"
       x="36"
       y="18.5" />
    <rect
       y="18.5"
       x="19"
       height="3"
       width="3.0000002"
       id="base-hint-left-margin"
       style="fill:#008080;fill-opacity:1;fill-rule:nonzero;stroke:none;opacity:0.01" />
    <rect
       style="fill:#008080;fill-opacity:1;fill-rule:nonzero;stroke:none;opacity:0.01"
       id="base-hint-top-margin"
       width="3"
       height="3"
       x="27.5"
       y="10" />
    <g
       id="base-center"
       transform="translate(19,10)">
      <path
         style="fill:#000000;fill-opacity:0.27451;stroke:none"
         d="M 5,5 H 15 V 15 H 5 Z"
         id="path4286"
         inkscape:connector-curvature="0" />
      <path
         inkscape:connector-curvature="0"
         id="path4270"
         d="M 5,5 H 15 V 15 H 5 Z"
         style="opacity:0.25;fill:url(#linearGradient4278);fill-opacity:1.0;stroke:none" />
    </g>
  </g>
</svg>
