<?xml version="1.0" encoding="UTF-8" standalone="no"?>
<svg
   width="32"
   version="1.1"
   height="32"
   viewBox="0 0 32 32"
   id="svg15"
   sodipodi:docname="folder-blue.svg"
   inkscape:version="1.2.1 (9c6d41e410, 2022-07-14)"
   xmlns:inkscape="http://www.inkscape.org/namespaces/inkscape"
   xmlns:sodipodi="http://sodipodi.sourceforge.net/DTD/sodipodi-0.dtd"
   xmlns="http://www.w3.org/2000/svg"
   xmlns:svg="http://www.w3.org/2000/svg"
   xmlns:rdf="http://www.w3.org/1999/02/22-rdf-syntax-ns#"
   xmlns:cc="http://creativecommons.org/ns#"
   xmlns:dc="http://purl.org/dc/elements/1.1/">
  <sodipodi:namedview
     pagecolor="#ffffff"
     bordercolor="#666666"
     borderopacity="1"
     objecttolerance="10"
     gridtolerance="10"
     guidetolerance="10"
     inkscape:pageopacity="0"
     inkscape:pageshadow="2"
     inkscape:window-width="1920"
     inkscape:window-height="1002"
     id="namedview17"
     showgrid="false"
     inkscape:zoom="9.8125"
     inkscape:cx="-8.2038217"
     inkscape:cy="4.5350318"
     inkscape:window-x="0"
     inkscape:window-y="0"
     inkscape:window-maximized="1"
     inkscape:current-layer="layer1"
     inkscape:document-rotation="0"
     inkscape:showpageshadow="2"
     inkscape:pagecheckerboard="0"
     inkscape:deskcolor="#d1d1d1" />
  <defs
     id="defs5455">
    <linearGradient
       id="linearGradient4172-7-9">
      <stop
         style="stop-color:#4183d7"
         id="stop4174-9-8" />
      <stop
         offset="1"
         style="stop-color:#5b94df"
         id="stop4176-4-6" />
    </linearGradient>
  </defs>
  <metadata
     id="metadata5458">
    <rdf:RDF>
      <cc:Work
         rdf:about="">
        <dc:format>image/svg+xml</dc:format>
        <dc:type
           rdf:resource="http://purl.org/dc/dcmitype/StillImage" />
      </cc:Work>
    </rdf:RDF>
  </metadata>
  <g
     inkscape:label="Capa 1"
     inkscape:groupmode="layer"
     id="layer1"
     transform="translate(-384.57143,-515.798)">
    <path
       style="fill:#88c0d0;fill-opacity:1;stroke-width:0.0802088"
       d="m 400.57019,522.24681 c -0.37216,0 -0.81143,-0.24718 -0.97827,-0.54656 l -0.74837,-1.34531 c -0.16605,-0.29935 -0.60666,-0.54363 -0.97864,-0.54423 l -8.23479,-0.0127 c -1.21549,-0.002 -1.57752,0.44329 -1.5772,1.42451 l 1.3e-4,0.41351 v 1.21697 l -1.3e-4,16.04699 c -10e-6,0.43777 0.97463,1.46939 1.44444,1.46939 h 22.14815 c 0.48148,0 1.44444,-0.97958 1.44444,-1.46939 v -15.18378 c 0,-0.97958 -0.48148,-1.46938 -1.42083,-1.46938 z"
       id="path4-3-3"
       sodipodi:nodetypes="sccsssccscsssss" />
    <path
       style="fill:#434c5e;fill-opacity:1;stroke-width:0.0824548"
       d="m 411.16402,528.32032 c 0,0.70043 -0.32854,1.27348 -1.08014,1.27348 h -19.06564 c -0.7516,0 -1.0394,-0.57305 -1.0394,-1.27348 v -3.6245 c 0,-0.97963 0.48148,-1.46942 1.44444,-1.46942 h 18.2963 c 0.96296,0 1.44444,0.48979 1.44444,1.46942 z"
       id="path8-6-6"
       sodipodi:nodetypes="sssssssss" />
    <path
       style="fill:#5e81ac;fill-opacity:1;stroke-width:0.0927333"
       d="m 410.68254,525.18561 h -20.22222 c -1.92593,0 -2.88889,0.97958 -2.88889,2.9388 v 13.22456 c 0,1.4694 0.96296,2.44898 2.40741,2.44898 h 21.18518 c 1.44445,0 2.40741,-0.97958 2.40741,-2.44898 v -13.22456 c 0,-1.95922 -0.96296,-2.9388 -2.88889,-2.9388 z"
       id="path10-7"
       sodipodi:nodetypes="sssssssss" />
  </g>
</svg>
