<?xml version="1.0" encoding="UTF-8" standalone="no"?>
<svg
   width="32"
   version="1.1"
   height="32"
   viewBox="0 0 32 32"
   id="svg15"
   sodipodi:docname="folder-paint.svg"
   inkscape:version="1.2.1 (9c6d41e410, 2022-07-14)"
   xmlns:inkscape="http://www.inkscape.org/namespaces/inkscape"
   xmlns:sodipodi="http://sodipodi.sourceforge.net/DTD/sodipodi-0.dtd"
   xmlns:xlink="http://www.w3.org/1999/xlink"
   xmlns="http://www.w3.org/2000/svg"
   xmlns:svg="http://www.w3.org/2000/svg"
   xmlns:rdf="http://www.w3.org/1999/02/22-rdf-syntax-ns#"
   xmlns:cc="http://creativecommons.org/ns#"
   xmlns:dc="http://purl.org/dc/elements/1.1/">
  <sodipodi:namedview
     pagecolor="#ffffff"
     bordercolor="#666666"
     borderopacity="1"
     objecttolerance="10"
     gridtolerance="10"
     guidetolerance="10"
     inkscape:pageopacity="0"
     inkscape:pageshadow="2"
     inkscape:window-width="1920"
     inkscape:window-height="1002"
     id="namedview17"
     showgrid="true"
     inkscape:zoom="9.8125003"
     inkscape:cx="10.140127"
     inkscape:cy="12.280254"
     inkscape:window-x="0"
     inkscape:window-y="0"
     inkscape:window-maximized="1"
     inkscape:current-layer="layer1"
     inkscape:document-rotation="0"
     inkscape:showpageshadow="2"
     inkscape:pagecheckerboard="0"
     inkscape:deskcolor="#d1d1d1">
    <inkscape:grid
       type="xygrid"
       id="grid1205" />
  </sodipodi:namedview>
  <defs
     id="defs5455">
    <linearGradient
       inkscape:collect="always"
       id="linearGradient860">
      <stop
         style="stop-color:#8fbcbb;stop-opacity:1;"
         offset="0"
         id="stop856" />
      <stop
         style="stop-color:#a3be8c;stop-opacity:1;"
         offset="1"
         id="stop858" />
    </linearGradient>
    <linearGradient
       inkscape:collect="always"
       id="linearGradient842">
      <stop
         style="stop-color:#5e81ac;stop-opacity:1;"
         offset="0"
         id="stop838" />
      <stop
         style="stop-color:#88c0d0;stop-opacity:1;"
         offset="1"
         id="stop840" />
    </linearGradient>
    <linearGradient
       inkscape:collect="always"
       xlink:href="#linearGradient860"
       id="linearGradient862-3"
       x1="113.94583"
       y1="366.97165"
       x2="406.08234"
       y2="159.71205"
       gradientUnits="userSpaceOnUse"
       gradientTransform="matrix(0.08570321,0,0,0.08743937,378.28739,508.28165)" />
    <linearGradient
       inkscape:collect="always"
       xlink:href="#linearGradient842"
       id="linearGradient844-5"
       x1="386.3063"
       y1="539.79773"
       x2="447.95114"
       y2="504.71896"
       gradientUnits="userSpaceOnUse"
       gradientTransform="matrix(0.42958153,0,0,0.53058969,221.62137,257.3869)" />
  </defs>
  <metadata
     id="metadata5458">
    <rdf:RDF>
      <cc:Work
         rdf:about="">
        <dc:format>image/svg+xml</dc:format>
        <dc:type
           rdf:resource="http://purl.org/dc/dcmitype/StillImage" />
      </cc:Work>
    </rdf:RDF>
  </metadata>
  <g
     inkscape:label="Capa 1"
     inkscape:groupmode="layer"
     id="layer1"
     transform="translate(-384.57143,-515.798)">
    <path
       style="fill:url(#linearGradient862-3);fill-opacity:1;stroke-width:0.080209"
       d="m 400.57019,522.24681 c -0.37217,0 -0.81143,-0.24718 -0.97828,-0.54655 l -0.74837,-1.34531 c -0.16605,-0.29936 -0.60665,-0.54364 -0.97864,-0.54424 l -8.23478,-0.0127 c -1.2155,-0.002 -1.57754,0.44329 -1.57721,1.42451 l 1.4e-4,0.41353 v 1.21696 l -1.4e-4,16.04706 c 0,0.43777 0.97463,1.46939 1.44445,1.46939 h 22.14814 c 0.48149,0 1.44445,-0.97959 1.44445,-1.46939 v -15.18378 c 0,-0.9796 -0.48148,-1.46941 -1.42084,-1.46941 z"
       id="path4-3-6"
       sodipodi:nodetypes="sccsssccscsssss" />
    <path
       style="fill:#434c5e;fill-opacity:1;stroke-width:0.082455"
       d="m 411.16401,528.32036 c 0,0.70043 -0.32853,1.27348 -1.08013,1.27348 h -19.06565 c -0.7516,0 -1.0394,-0.57305 -1.0394,-1.27348 v -3.62452 c 0,-0.97962 0.48148,-1.46942 1.44444,-1.46942 h 18.2963 c 0.96296,0 1.44444,0.4898 1.44444,1.46942 z"
       id="path8-6-2"
       sodipodi:nodetypes="sssssssss" />
    <path
       style="fill:url(#linearGradient844-5);fill-opacity:1;stroke-width:0.0927335"
       d="m 410.68254,525.18563 h -20.22222 c -1.92593,0 -2.88889,0.9796 -2.88889,2.93881 v 13.22463 c 0,1.4694 0.96296,2.44898 2.40741,2.44898 h 21.18518 c 1.44445,0 2.40741,-0.97958 2.40741,-2.44898 v -13.22463 c 0,-1.95921 -0.96296,-2.93881 -2.88889,-2.93881 z"
       id="path10-9"
       sodipodi:nodetypes="sssssssss" />
    <path
       style="color:#232629;fill:#434c5e;fill-opacity:1;stroke:none;stroke-width:0.383973"
       d="m 405.50053,529.10423 c -0.68526,0.0773 -6.16728,5.92525 -6.16728,5.92525 l -1.75115,1.97511 c -0.22845,0.0774 -0.66553,0.008 -0.91373,0.11618 -0.60912,0.23237 -0.9898,0.49534 -1.29431,1.35548 -0.26651,0.73582 0.49489,1.99836 1.14202,1.78149 -0.30449,0 -0.68522,-0.42604 -0.49491,-0.73582 0.38072,-0.73583 1.88451,-0.57433 1.82735,-2.20747 l 1.90355,-1.82023 c 0,0 6.20532,-5.92531 5.82464,-6.31259 h -0.0384 z m -2.0177,5.92525 c -0.22838,0 -0.6091,0.38733 -1.37051,1.54917 -0.72332,1.23927 -2.62677,2.09127 -2.51258,0.89068 0.0384,-0.30978 -0.68522,-0.1936 -1.37051,-0.1936 0,2.09126 -1.1683,1.54905 -1.86537,2.43979 -0.0762,0.69712 3.12169,1.11419 4.83484,-0.0773 2.05575,-1.43295 2.47452,-3.3693 2.51256,-4.02771 0,-0.34852 -0.0761,-0.58088 -0.22843,-0.58088 z m -2.70294,1.51045 c 0,0.11615 -0.26646,0.039 -0.38071,0.11615 -0.26642,0.15491 -0.38978,0.38694 -0.30451,0.54221 0.0761,0.15485 0.34258,0.15485 0.60912,0 0.26648,-0.15494 0.38993,-0.3873 0.30451,-0.54221 -0.0381,-0.0773 -0.1142,-0.11615 -0.22841,-0.11615 z"
       class="ColorScheme-Text"
       id="path10248-1" />
  </g>
</svg>
