<?xml version="1.0" encoding="UTF-8" standalone="no"?>
<svg
   width="32"
   version="1.1"
   height="32"
   viewBox="0 0 32 32"
   id="svg15"
   sodipodi:docname="folder-trash.svg"
   inkscape:version="1.2.1 (9c6d41e410, 2022-07-14)"
   xmlns:inkscape="http://www.inkscape.org/namespaces/inkscape"
   xmlns:sodipodi="http://sodipodi.sourceforge.net/DTD/sodipodi-0.dtd"
   xmlns="http://www.w3.org/2000/svg"
   xmlns:svg="http://www.w3.org/2000/svg"
   xmlns:rdf="http://www.w3.org/1999/02/22-rdf-syntax-ns#"
   xmlns:cc="http://creativecommons.org/ns#"
   xmlns:dc="http://purl.org/dc/elements/1.1/">
  <sodipodi:namedview
     pagecolor="#ffffff"
     bordercolor="#666666"
     borderopacity="1"
     objecttolerance="10"
     gridtolerance="10"
     guidetolerance="10"
     inkscape:pageopacity="0"
     inkscape:pageshadow="2"
     inkscape:window-width="1920"
     inkscape:window-height="1002"
     id="namedview17"
     showgrid="true"
     inkscape:zoom="13.876971"
     inkscape:cx="11.637986"
     inkscape:cy="14.088089"
     inkscape:window-x="0"
     inkscape:window-y="0"
     inkscape:window-maximized="1"
     inkscape:current-layer="layer1"
     inkscape:document-rotation="0"
     inkscape:showpageshadow="2"
     inkscape:pagecheckerboard="0"
     inkscape:deskcolor="#d1d1d1">
    <inkscape:grid
       type="xygrid"
       id="grid1205" />
  </sodipodi:namedview>
  <defs
     id="defs5455" />
  <metadata
     id="metadata5458">
    <rdf:RDF>
      <cc:Work
         rdf:about="">
        <dc:format>image/svg+xml</dc:format>
        <dc:type
           rdf:resource="http://purl.org/dc/dcmitype/StillImage" />
      </cc:Work>
    </rdf:RDF>
  </metadata>
  <g
     inkscape:label="Capa 1"
     inkscape:groupmode="layer"
     id="layer1"
     transform="translate(-384.57143,-515.798)">
    <path
       style="fill:#88c0d0;fill-opacity:1;stroke-width:0.080209"
       d="m 400.57019,522.24682 c -0.37217,0 -0.81143,-0.24718 -0.97828,-0.54656 l -0.74837,-1.34531 c -0.16604,-0.29936 -0.60665,-0.54365 -0.97864,-0.54424 l -8.23478,-0.0127 c -1.2155,-0.002 -1.57753,0.44329 -1.57721,1.42451 l 1.4e-4,0.41352 v 1.21698 l -1.4e-4,16.04705 c 0,0.43777 0.97463,1.4694 1.44445,1.4694 h 22.14814 c 0.48149,0 1.44445,-0.97959 1.44445,-1.4694 v -15.18384 c 0,-0.97959 -0.48148,-1.46939 -1.42084,-1.46939 z"
       id="path4-3-3"
       sodipodi:nodetypes="sccsssccscsssss" />
    <path
       style="fill:#434c5e;fill-opacity:1;stroke-width:0.082455"
       d="m 411.16402,528.32036 c 0,0.70043 -0.32854,1.27348 -1.08014,1.27348 h -19.06565 c -0.75159,0 -1.03939,-0.57305 -1.03939,-1.27348 v -3.62452 c 0,-0.97963 0.48148,-1.46942 1.44444,-1.46942 h 18.2963 c 0.96296,0 1.44444,0.48979 1.44444,1.46942 z"
       id="path8-6-6"
       sodipodi:nodetypes="sssssssss" />
    <path
       style="fill:#a3be8c;fill-opacity:1;stroke-width:0.0927335"
       d="m 410.68254,525.18563 h -20.22222 c -1.92593,0 -2.88889,0.97959 -2.88889,2.93881 v 13.22462 c 0,1.46941 0.96296,2.44899 2.40741,2.44899 h 21.18518 c 1.44445,0 2.40741,-0.97958 2.40741,-2.44899 v -13.22462 c 0,-1.95922 -0.96296,-2.93881 -2.88889,-2.93881 z"
       id="path10-7"
       sodipodi:nodetypes="sssssssss" />
    <path
       style="color:#232629;fill:#434c5e;fill-opacity:1;stroke:none;stroke-width:0.454032"
       d="m 399.66318,530.67159 c 0.27215,0.11538 0.49923,0.324 0.66909,0.6234 l 1.21244,2.14477 -0.75877,0.43738 2.45916,0.0357 1.20191,-2.19218 -0.74736,0.4508 -0.69192,-1.19943 c -0.11379,-0.19623 -0.30624,-0.30049 -0.55567,-0.30049 z m -0.64534,0.10375 c -0.43043,0 -0.78276,0.20758 -0.9979,0.58853 l -1.03134,1.81026 2.16462,1.27992 1.33817,-2.35232 -0.38597,-0.6574 c -0.26044,-0.44915 -0.623,-0.66899 -1.08758,-0.66899 z m 5.66654,3.15904 -2.16462,1.25665 1.33729,2.35318 h 0.74819 c 0.23741,0 0.47594,-0.0582 0.64623,-0.15116 0.3623,-0.20732 0.62336,-0.64556 0.62336,-1.06073 0,-0.19982 -0.0568,-0.40309 -0.15912,-0.58765 z m -6.96954,0.53131 -2.47148,0.0474 0.75963,0.43738 -0.68049,1.21102 c -0.0454,0.0805 -0.0791,0.20717 -0.0791,0.31126 0,0.10394 0.0337,0.21925 0.0791,0.29962 l 1.41729,2.47841 c -0.0112,-0.0802 -0.0115,-0.13774 -0.0115,-0.18336 0,-0.19635 0.0906,-0.50847 0.20395,-0.71553 h -9.6e-4 l 1.21333,-2.13315 0.77107,0.44987 z m 4.48663,2.45511 -1.26871,2.15643 1.26871,2.15641 v -0.88814 h 1.32673 c 0.23798,0 0.44149,-0.11537 0.55479,-0.31124 l 1.40587,-2.49005 c -0.23786,0.18411 -0.52105,0.27637 -0.86075,0.27637 h -2.42664 z m -4.64666,0.87744 -0.36222,0.65649 c -0.11332,0.19588 -0.19257,0.50768 -0.19257,0.70014 0,0.6493 0.53215,1.19153 1.17816,1.19153 h 2.06353 v -2.54816 z"
       class="ColorScheme-Text"
       id="path17553-6" />
  </g>
</svg>
