<?xml version="1.0" encoding="UTF-8" standalone="no"?>
<svg
   width="32"
   version="1.1"
   height="32"
   viewBox="0 0 32 32"
   id="svg15"
   sodipodi:docname="folder-notes.svg"
   inkscape:version="1.2.1 (9c6d41e410, 2022-07-14)"
   xmlns:inkscape="http://www.inkscape.org/namespaces/inkscape"
   xmlns:sodipodi="http://sodipodi.sourceforge.net/DTD/sodipodi-0.dtd"
   xmlns:xlink="http://www.w3.org/1999/xlink"
   xmlns="http://www.w3.org/2000/svg"
   xmlns:svg="http://www.w3.org/2000/svg"
   xmlns:rdf="http://www.w3.org/1999/02/22-rdf-syntax-ns#"
   xmlns:cc="http://creativecommons.org/ns#"
   xmlns:dc="http://purl.org/dc/elements/1.1/">
  <sodipodi:namedview
     pagecolor="#ffffff"
     bordercolor="#666666"
     borderopacity="1"
     objecttolerance="10"
     gridtolerance="10"
     guidetolerance="10"
     inkscape:pageopacity="0"
     inkscape:pageshadow="2"
     inkscape:window-width="1920"
     inkscape:window-height="1002"
     id="namedview17"
     showgrid="true"
     inkscape:zoom="13.876971"
     inkscape:cx="11.493863"
     inkscape:cy="8.323142"
     inkscape:window-x="0"
     inkscape:window-y="0"
     inkscape:window-maximized="1"
     inkscape:current-layer="layer1"
     inkscape:document-rotation="0"
     inkscape:showpageshadow="2"
     inkscape:pagecheckerboard="0"
     inkscape:deskcolor="#d1d1d1">
    <inkscape:grid
       type="xygrid"
       id="grid1205" />
  </sodipodi:namedview>
  <defs
     id="defs5455">
    <linearGradient
       inkscape:collect="always"
       id="linearGradient860">
      <stop
         style="stop-color:#8fbcbb;stop-opacity:1;"
         offset="0"
         id="stop856" />
      <stop
         style="stop-color:#a3be8c;stop-opacity:1;"
         offset="1"
         id="stop858" />
    </linearGradient>
    <linearGradient
       inkscape:collect="always"
       id="linearGradient842">
      <stop
         style="stop-color:#5e81ac;stop-opacity:1;"
         offset="0"
         id="stop838" />
      <stop
         style="stop-color:#88c0d0;stop-opacity:1;"
         offset="1"
         id="stop840" />
    </linearGradient>
    <linearGradient
       inkscape:collect="always"
       xlink:href="#linearGradient860"
       id="linearGradient862-3"
       x1="113.94583"
       y1="366.97165"
       x2="406.08234"
       y2="159.71205"
       gradientUnits="userSpaceOnUse"
       gradientTransform="matrix(0.08570321,0,0,0.08743938,378.28739,508.28164)" />
    <linearGradient
       inkscape:collect="always"
       xlink:href="#linearGradient842"
       id="linearGradient844-5"
       x1="386.3063"
       y1="539.79773"
       x2="447.95114"
       y2="504.71896"
       gradientUnits="userSpaceOnUse"
       gradientTransform="matrix(0.42958153,0,0,0.53058974,221.62138,257.38687)" />
  </defs>
  <metadata
     id="metadata5458">
    <rdf:RDF>
      <cc:Work
         rdf:about="">
        <dc:format>image/svg+xml</dc:format>
        <dc:type
           rdf:resource="http://purl.org/dc/dcmitype/StillImage" />
      </cc:Work>
    </rdf:RDF>
  </metadata>
  <g
     inkscape:label="Capa 1"
     inkscape:groupmode="layer"
     id="layer1"
     transform="translate(-384.57143,-515.798)">
    <path
       style="fill:url(#linearGradient862-3);fill-opacity:1;stroke-width:0.080209"
       d="m 400.57019,522.24682 c -0.37217,0 -0.81143,-0.24718 -0.97828,-0.54656 l -0.74837,-1.34531 c -0.16604,-0.29936 -0.60665,-0.54365 -0.97864,-0.54424 l -8.23478,-0.0127 c -1.2155,-0.002 -1.57753,0.44329 -1.57721,1.42451 l 1.4e-4,0.41352 v 1.21698 l -1.4e-4,16.04705 c 0,0.43777 0.97463,1.4694 1.44445,1.4694 h 22.14814 c 0.48149,0 1.44445,-0.97959 1.44445,-1.4694 v -15.18384 c 0,-0.97959 -0.48148,-1.46939 -1.42084,-1.46939 z"
       id="path4-3-6"
       sodipodi:nodetypes="sccsssccscsssss" />
    <path
       style="fill:#434c5e;fill-opacity:1;stroke-width:0.082455"
       d="m 411.16402,528.32036 c 0,0.70043 -0.32854,1.27348 -1.08014,1.27348 h -19.06565 c -0.75159,0 -1.03939,-0.57305 -1.03939,-1.27348 v -3.62452 c 0,-0.97963 0.48148,-1.46942 1.44444,-1.46942 h 18.2963 c 0.96296,0 1.44444,0.48979 1.44444,1.46942 z"
       id="path8-6-2"
       sodipodi:nodetypes="sssssssss" />
    <path
       style="fill:url(#linearGradient844-5);fill-opacity:1;stroke-width:0.0927335"
       d="m 410.68254,525.18563 h -20.22222 c -1.92593,0 -2.88889,0.97959 -2.88889,2.93881 v 13.22462 c 0,1.46941 0.96296,2.44899 2.40741,2.44899 h 21.18518 c 1.44445,0 2.40741,-0.97958 2.40741,-2.44899 v -13.22462 c 0,-1.95922 -0.96296,-2.93881 -2.88889,-2.93881 z"
       id="path10-9"
       sodipodi:nodetypes="sssssssss" />
    <path
       fill-rule="evenodd"
       clip-rule="evenodd"
       d="m 401.03706,533.17503 c 0,-0.16922 0.13475,-0.30612 0.30108,-0.30612 0.16618,0 0.30091,0.1369 0.30091,0.30612 0,0.16873 -0.13473,0.30582 -0.30091,0.30582 -0.16633,0 -0.30108,-0.13709 -0.30108,-0.30582 z m 4.31746,0.024 -0.12679,0.12883 c -9.7e-4,9.7e-4 -0.002,9.7e-4 -0.003,0.002 -0.23097,0.23511 -0.60258,0.23767 -0.83842,0.0103 l -0.77553,-0.78941 c -0.11741,-0.11941 -0.11741,-0.31328 0,-0.43272 0.11741,-0.11944 0.308,-0.11944 0.4254,0 l 0.65533,0.6662 c 4.1e-4,9.9e-4 9.7e-4,0 0.001,9.9e-4 0.0586,0.0597 0.15387,0.0597 0.21246,0 0.002,-0.002 0.003,-4e-4 0.005,-9.9e-4 l 0.0183,-0.0187 c 0.23524,-0.23903 0.23524,-0.62659 0,-0.86592 l -0.53176,-0.54095 c -0.23522,-0.23931 -0.61627,-0.23931 -0.85121,0 l -1.0325,1.05036 h -0.85151 -2.58038 -1.65527 c -0.41553,0 -0.75228,0.3429 -0.75228,0.76562 v 5.81624 c 0,0.42273 0.33675,0.76535 0.75228,0.76535 h 5.71747 c 0.41569,0 0.75234,-0.34262 0.75234,-0.76535 v -3.93671 c 0,-0.0843 -0.0673,-0.15292 -0.15034,-0.15292 -0.0415,0 -0.0792,0.0174 -0.10621,0.0449 -4.8e-4,3.9e-4 -3.9e-4,-0.002 -9.7e-4,-10e-4 l -1.67212,1.70077 c -0.18121,0.18445 -0.40586,0.2961 -0.64053,0.33826 -0.0444,0.0104 -0.0904,0.0177 -0.13783,0.0177 h -0.0424 c -0.0198,4.2e-4 -0.0402,4.2e-4 -0.0601,0 h -1.10143 c -0.33222,0 -0.60153,-0.27396 -0.60153,-0.61193 v -1.12047 c -3.3e-4,-0.0202 -3.3e-4,-0.041 0,-0.0611 v -0.0432 c 0,-0.0485 0.007,-0.0952 0.0174,-0.14039 0.0416,-0.23856 0.15135,-0.46753 0.33268,-0.65186 l 0.63917,-0.65034 10e-4,10e-4 c 0.0543,-0.0555 0.1299,-0.0899 0.21291,-0.0899 0.16635,0 0.30094,0.13706 0.30094,0.30632 0,0.0928 -0.0417,0.17534 -0.10595,0.23135 l -0.62301,0.63378 c -0.1312,0.13322 -0.1863,0.31208 -0.17131,0.48639 -3e-4,0.009 -0.002,0.0175 -0.002,0.026 v 0.45904 c -10e-6,0.33793 0.26978,0.6124 0.60201,0.6124 h 0.45124 c 0.009,0 0.017,-0.002 0.0256,-0.002 0.17146,0.0155 0.34719,-0.0411 0.47811,-0.17446 l 1.93253,-1.96591 c 0.10859,-0.10857 0.2579,-0.1532 0.42261,-0.1532 0.3325,0 0.60199,0.27397 0.60199,0.61225 v 4.43865 c 0,0.67638 -0.53882,1.22482 -1.20357,1.22482 h -6.01854 c -0.66488,0 -1.20384,-0.54844 -1.20384,-1.22482 v -6.12233 c 0,-0.67637 0.53896,-1.22434 1.20384,-1.22434 h 4.98766 l 0.85663,-0.87147 c 0.23499,-0.23915 0.54305,-0.35305 0.85114,-0.35305 0.30808,0 0.61617,0.1139 0.85126,0.35305 l 0.53207,0.54126 c 0.23534,0.23942 0.34738,0.55729 0.34706,0.87109 -3.2e-4,0.31298 -0.11235,0.62188 -0.34706,0.86076 z"
       id="path2-1"
       style="fill:#434c5e;fill-opacity:1;stroke-width:0.0189698" />
  </g>
</svg>
