<?xml version="1.0" encoding="UTF-8" standalone="no"?>
<svg
   width="32"
   version="1.1"
   height="32"
   viewBox="0 0 32 32"
   id="svg15"
   sodipodi:docname="folder-build.svg"
   inkscape:version="1.2.1 (9c6d41e410, 2022-07-14)"
   xmlns:inkscape="http://www.inkscape.org/namespaces/inkscape"
   xmlns:sodipodi="http://sodipodi.sourceforge.net/DTD/sodipodi-0.dtd"
   xmlns:xlink="http://www.w3.org/1999/xlink"
   xmlns="http://www.w3.org/2000/svg"
   xmlns:svg="http://www.w3.org/2000/svg"
   xmlns:rdf="http://www.w3.org/1999/02/22-rdf-syntax-ns#"
   xmlns:cc="http://creativecommons.org/ns#"
   xmlns:dc="http://purl.org/dc/elements/1.1/">
  <sodipodi:namedview
     pagecolor="#ffffff"
     bordercolor="#666666"
     borderopacity="1"
     objecttolerance="10"
     gridtolerance="10"
     guidetolerance="10"
     inkscape:pageopacity="0"
     inkscape:pageshadow="2"
     inkscape:window-width="1920"
     inkscape:window-height="1002"
     id="namedview17"
     showgrid="true"
     inkscape:zoom="13.876971"
     inkscape:cx="11.637986"
     inkscape:cy="14.088089"
     inkscape:window-x="0"
     inkscape:window-y="0"
     inkscape:window-maximized="1"
     inkscape:current-layer="layer1"
     inkscape:document-rotation="0"
     inkscape:showpageshadow="2"
     inkscape:pagecheckerboard="0"
     inkscape:deskcolor="#d1d1d1">
    <inkscape:grid
       type="xygrid"
       id="grid1205" />
  </sodipodi:namedview>
  <defs
     id="defs5455">
    <linearGradient
       inkscape:collect="always"
       xlink:href="#linearGradient860"
       id="linearGradient862"
       x1="113.94583"
       y1="366.97165"
       x2="406.08234"
       y2="159.71205"
       gradientUnits="userSpaceOnUse"
       gradientTransform="matrix(0.08570319,0,0,0.08743907,378.28739,508.28172)" />
    <linearGradient
       inkscape:collect="always"
       id="linearGradient860">
      <stop
         style="stop-color:#8fbcbb;stop-opacity:1;"
         offset="0"
         id="stop856" />
      <stop
         style="stop-color:#a3be8c;stop-opacity:1;"
         offset="1"
         id="stop858" />
    </linearGradient>
    <linearGradient
       inkscape:collect="always"
       xlink:href="#linearGradient842"
       id="linearGradient844"
       x1="386.3063"
       y1="539.79773"
       x2="447.95114"
       y2="504.71896"
       gradientUnits="userSpaceOnUse"
       gradientTransform="matrix(0.42958147,0,0,0.5305879,221.62139,257.38782)" />
    <linearGradient
       inkscape:collect="always"
       id="linearGradient842">
      <stop
         style="stop-color:#5e81ac;stop-opacity:1;"
         offset="0"
         id="stop838" />
      <stop
         style="stop-color:#88c0d0;stop-opacity:1;"
         offset="1"
         id="stop840" />
    </linearGradient>
  </defs>
  <metadata
     id="metadata5458">
    <rdf:RDF>
      <cc:Work
         rdf:about="">
        <dc:format>image/svg+xml</dc:format>
        <dc:type
           rdf:resource="http://purl.org/dc/dcmitype/StillImage" />
      </cc:Work>
    </rdf:RDF>
  </metadata>
  <g
     inkscape:label="Capa 1"
     inkscape:groupmode="layer"
     id="layer1"
     transform="translate(-384.57143,-515.798)">
    <path
       style="fill:url(#linearGradient862);fill-opacity:1;stroke-width:0.0802087"
       d="m 400.57017,522.24679 c -0.37214,0 -0.8114,-0.24719 -0.97825,-0.54655 l -0.74836,-1.34532 c -0.16607,-0.29933 -0.60667,-0.54365 -0.97866,-0.54421 l -8.23478,-0.0127 c -1.21549,-0.002 -1.57752,0.44328 -1.57721,1.42452 l 1.4e-4,0.41351 v 1.21696 l -1.4e-4,16.04701 c -10e-6,0.43776 0.97464,1.4694 1.44444,1.4694 h 22.14816 c 0.48149,0 1.44444,-0.9796 1.44444,-1.4694 v -15.18379 c 0,-0.9796 -0.4815,-1.46939 -1.42083,-1.46939 z"
       id="path4-3"
       sodipodi:nodetypes="sccsssccscsssss" />
    <path
       style="fill:#434c5e;fill-opacity:1;stroke-width:0.0824548"
       d="m 411.16403,528.32031 c 0,0.70041 -0.32856,1.27347 -1.08017,1.27347 h -19.06564 c -0.75158,0 -1.03939,-0.57306 -1.03939,-1.27347 v -3.62453 c 0,-0.9796 0.4815,-1.4694 1.44447,-1.4694 h 18.29626 c 0.96297,0 1.44447,0.4898 1.44447,1.4694 z"
       id="path8-6"
       sodipodi:nodetypes="sssssssss" />
    <path
       style="fill:url(#linearGradient844);fill-opacity:1;stroke-width:0.0927335"
       d="m 410.68253,525.18558 h -20.2222 c -1.92592,0 -2.8889,0.9796 -2.8889,2.9388 v 13.22459 c 0,1.4694 0.96298,2.449 2.4074,2.449 h 21.1852 c 1.44442,0 2.4074,-0.9796 2.4074,-2.449 v -13.22459 c 0,-1.9592 -0.96298,-2.9388 -2.8889,-2.9388 z"
       id="path10"
       sodipodi:nodetypes="sssssssss" />
    <path
       style="color:#232629;fill:#434c5e;fill-opacity:1;stroke:none;stroke-width:0.435738"
       d="m 404.88742,530.798 -0.13531,0.46212 c -0.27713,-0.0231 -0.55632,0.007 -0.82212,0.0894 l -0.23063,-0.42212 -0.7651,0.41787 0.23064,0.42212 c -0.21308,0.17952 -0.38927,0.39764 -0.52,0.64339 l -0.46041,-0.13446 -0.24511,0.83573 0.46212,0.13531 c -0.0231,0.27713 0.007,0.55717 0.0885,0.82297 l -0.42212,0.23064 0.41786,0.76509 0.42213,-0.23148 c 0.17952,0.21307 0.39849,0.39012 0.64424,0.52084 l -0.13531,0.46042 0.83658,0.2451 0.13532,-0.46212 c 0.27713,0.0231 0.55631,-0.007 0.82211,-0.0894 l 0.23149,0.42212 0.76424,-0.41787 -0.23063,-0.42212 c 0.21307,-0.17952 0.38927,-0.39764 0.51999,-0.64339 l 0.46042,0.13447 0.2451,-0.83574 -0.46212,-0.13531 c 0.0231,-0.27713 -0.007,-0.55717 -0.0885,-0.82297 l 0.42212,-0.23064 -0.41786,-0.76509 -0.42213,0.23148 c -0.17952,-0.21307 -0.39848,-0.39012 -0.64424,-0.52084 l 0.13531,-0.46042 z m -0.43063,0.89275 c 0.0865,-0.006 0.17374,-0.005 0.26042,0.003 0.11557,0.01 0.23086,0.0307 0.34383,0.0638 0.43486,0.12768 0.80327,0.41968 1.02637,0.81446 0.23181,0.40959 0.2882,0.89621 0.15574,1.34807 -0.12767,0.43486 -0.41968,0.80327 -0.81446,1.02636 -0.40959,0.23182 -0.8962,0.28821 -1.34806,0.15575 -0.43487,-0.12768 -0.80412,-0.41968 -1.02722,-0.81446 -0.23181,-0.40959 -0.28821,-0.8962 -0.15574,-1.34807 0.12767,-0.43486 0.41967,-0.80327 0.81445,-1.02636 0.2304,-0.1304 0.48523,-0.20523 0.74467,-0.22213 z m -5.80842,1.27317 -0.86722,0.0851 0.0468,0.47914 c -0.2658,0.0819 -0.51322,0.21376 -0.72935,0.38893 l -0.37276,-0.30552 -0.55318,0.67318 0.37191,0.30552 c -0.13072,0.24619 -0.21207,0.5152 -0.2417,0.79233 l -0.47744,0.0468 0.0851,0.86722 0.47915,-0.0468 c 0.0819,0.2658 0.21376,0.51322 0.38893,0.72935 l -0.30553,0.37275 0.67318,0.55319 0.30553,-0.37191 c 0.24619,0.13072 0.5152,0.21207 0.79233,0.2417 l 0.0468,0.47744 0.86723,-0.0851 -0.0468,-0.47914 c 0.2658,-0.0819 0.51322,-0.21376 0.72935,-0.38893 l 0.37276,0.30553 0.55318,-0.67318 -0.3719,-0.30553 c 0.13072,-0.24619 0.21206,-0.5152 0.24169,-0.79233 l 0.47744,-0.0468 -0.0851,-0.86722 -0.47913,0.0468 c -0.0819,-0.2658 -0.21377,-0.51322 -0.38893,-0.72935 l 0.30552,-0.37276 -0.67318,-0.55318 -0.30552,0.3719 c -0.2462,-0.13072 -0.5152,-0.21206 -0.79233,-0.24169 z m -0.0119,0.90893 c 0.33379,0.0321 0.65397,0.16066 0.91999,0.37276 0.3682,0.29369 0.60189,0.72347 0.64765,1.19232 0.0444,0.45143 -0.0891,0.90231 -0.37191,1.257 -0.29369,0.3682 -0.72432,0.6019 -1.19317,0.64765 -0.45143,0.0444 -0.90147,-0.0891 -1.25616,-0.37191 -0.3682,-0.29368 -0.6019,-0.72432 -0.64765,-1.19317 -0.0444,-0.45143 0.0891,-0.90146 0.37191,-1.25615 0.29369,-0.3682 0.72347,-0.6019 1.19233,-0.64765 0.11285,-0.0112 0.22575,-0.0115 0.33701,-8.7e-4 z m 3.75484,1.73529 v 0.4817 c -0.27277,0.0558 -0.532,0.16321 -0.76425,0.31659 l -0.34042,-0.34042 -0.61616,0.61616 0.34042,0.34042 c -0.15381,0.23225 -0.26208,0.49147 -0.31829,0.76424 h -0.47999 v 0.87148 h 0.48169 c 0.0558,0.27277 0.16321,0.532 0.31659,0.76424 l -0.34042,0.34042 0.61616,0.61616 0.34042,-0.34042 c 0.23225,0.15382 0.49148,0.26209 0.76425,0.3183 v 0.47999 h 0.87147 v -0.4817 c 0.27278,-0.0558 0.532,-0.16321 0.76425,-0.31659 l 0.34042,0.34042 0.61616,-0.61616 -0.34042,-0.34042 c 0.15382,-0.23224 0.26208,-0.49147 0.31829,-0.76424 h 0.48 v -0.87148 h -0.4817 c -0.0558,-0.27277 -0.16321,-0.53199 -0.31659,-0.76424 l 0.34042,-0.34042 -0.61616,-0.61616 -0.34042,0.34042 c -0.23225,-0.15382 -0.49147,-0.26209 -0.76425,-0.3183 v -0.47999 z m 0.43574,0.87148 c 0.4536,0 0.88895,0.17685 1.21445,0.49276 0.33769,0.32811 0.5285,0.77916 0.5285,1.25019 0,0.4536 -0.17685,0.88895 -0.49276,1.21445 -0.32811,0.3377 -0.77916,0.5285 -1.25019,0.5285 -0.45361,0 -0.88896,-0.17685 -1.21445,-0.49276 -0.3377,-0.32811 -0.52851,-0.77916 -0.52851,-1.25019 0,-0.4536 0.17685,-0.88895 0.49276,-1.21445 0.32811,-0.3377 0.77916,-0.5285 1.2502,-0.5285 z"
       class="ColorScheme-Text"
       id="path1935-0" />
  </g>
</svg>
