<?xml version="1.0" encoding="UTF-8" standalone="no"?>
<svg
   width="32"
   version="1.1"
   height="32"
   viewBox="0 0 32 32"
   id="svg17"
   sodipodi:docname="folder_html.svg"
   inkscape:version="1.2.1 (9c6d41e410, 2022-07-14)"
   xmlns:inkscape="http://www.inkscape.org/namespaces/inkscape"
   xmlns:sodipodi="http://sodipodi.sourceforge.net/DTD/sodipodi-0.dtd"
   xmlns:xlink="http://www.w3.org/1999/xlink"
   xmlns="http://www.w3.org/2000/svg"
   xmlns:svg="http://www.w3.org/2000/svg"
   xmlns:rdf="http://www.w3.org/1999/02/22-rdf-syntax-ns#"
   xmlns:cc="http://creativecommons.org/ns#"
   xmlns:dc="http://purl.org/dc/elements/1.1/">
  <sodipodi:namedview
     pagecolor="#ffffff"
     bordercolor="#666666"
     borderopacity="1"
     objecttolerance="10"
     gridtolerance="10"
     guidetolerance="10"
     inkscape:pageopacity="0"
     inkscape:pageshadow="2"
     inkscape:window-width="1920"
     inkscape:window-height="1002"
     id="namedview19"
     showgrid="false"
     inkscape:zoom="6.9384853"
     inkscape:cx="-29.040921"
     inkscape:cy="34.661744"
     inkscape:window-x="0"
     inkscape:window-y="0"
     inkscape:window-maximized="1"
     inkscape:current-layer="layer1"
     inkscape:document-rotation="0"
     inkscape:showpageshadow="2"
     inkscape:pagecheckerboard="0"
     inkscape:deskcolor="#d1d1d1" />
  <defs
     id="defs5455">
    <linearGradient
       inkscape:collect="always"
       xlink:href="#linearGradient860-7"
       id="linearGradient862"
       x1="113.94583"
       y1="366.97165"
       x2="406.08234"
       y2="159.71205"
       gradientUnits="userSpaceOnUse"
       gradientTransform="matrix(0.0871839,0,0,0.08743914,378.12699,508.28171)" />
    <linearGradient
       inkscape:collect="always"
       id="linearGradient860-7">
      <stop
         style="stop-color:#8fbcbb;stop-opacity:1;"
         offset="0"
         id="stop856-0" />
      <stop
         style="stop-color:#a3be8c;stop-opacity:1;"
         offset="1"
         id="stop858-9" />
    </linearGradient>
    <linearGradient
       inkscape:collect="always"
       xlink:href="#linearGradient842"
       id="linearGradient844-3"
       x1="386.3063"
       y1="539.79773"
       x2="447.95114"
       y2="504.71896"
       gradientUnits="userSpaceOnUse"
       gradientTransform="matrix(0.43700337,0,0,0.53058833,218.75428,257.38761)" />
    <linearGradient
       inkscape:collect="always"
       id="linearGradient842">
      <stop
         style="stop-color:#5e81ac;stop-opacity:1;"
         offset="0"
         id="stop838" />
      <stop
         style="stop-color:#88c0d0;stop-opacity:1;"
         offset="1"
         id="stop840" />
    </linearGradient>
  </defs>
  <metadata
     id="metadata5458">
    <rdf:RDF>
      <cc:Work
         rdf:about="">
        <dc:format>image/svg+xml</dc:format>
        <dc:type
           rdf:resource="http://purl.org/dc/dcmitype/StillImage" />
      </cc:Work>
    </rdf:RDF>
  </metadata>
  <g
     inkscape:label="Capa 1"
     inkscape:groupmode="layer"
     id="layer1"
     transform="translate(-384.57143,-515.798)">
    <path
       style="fill:url(#linearGradient862);fill-opacity:1;stroke-width:0.0808988"
       d="m 400.79477,522.24679 c -0.3786,0 -0.82545,-0.24719 -0.99518,-0.54654 l -0.7613,-1.34532 c -0.16891,-0.29935 -0.61713,-0.54366 -0.99555,-0.54422 l -8.37705,-0.0127 c -1.2365,-0.002 -1.60479,0.44328 -1.60446,1.42451 l 1.4e-4,0.41353 v 1.21695 l -1.4e-4,16.04703 c 0,0.43775 0.99147,1.46939 1.4694,1.46939 h 22.53079 c 0.48981,0 1.46941,-0.97959 1.46941,-1.46939 v -15.18381 c 0,-0.97959 -0.4898,-1.46939 -1.44539,-1.46939 z"
       id="path4-3-6"
       sodipodi:nodetypes="sccsssccscsssss" />
    <path
       style="fill:#434c5e;fill-opacity:1;stroke-width:0.0831641"
       d="m 411.57163,528.32032 c 0,0.70041 -0.33422,1.27347 -1.0988,1.27347 h -19.39505 c -0.76458,0 -1.05735,-0.57306 -1.05735,-1.27347 v -3.62453 c 0,-0.97961 0.4898,-1.4694 1.4694,-1.4694 h 18.6124 c 0.9796,0 1.4694,0.48979 1.4694,1.4694 z"
       id="path8-6-0"
       sodipodi:nodetypes="sssssssss" />
    <path
       style="fill:url(#linearGradient844-3);fill-opacity:1;stroke-width:0.0935312"
       d="m 411.08183,525.18559 h -20.5716 c -1.9592,0 -2.9388,0.9796 -2.9388,2.9388 v 13.2246 c 0,1.4694 0.9796,2.44899 2.449,2.44899 h 21.5512 c 1.4694,0 2.449,-0.97959 2.449,-2.44899 v -13.2246 c 0,-1.9592 -0.9796,-2.9388 -2.9388,-2.9388 z"
       id="path10-6"
       sodipodi:nodetypes="sssssssss" />
    <path
       d="m 405.77848,534.33129 v 0 0 c 0,0 0,0 0,0 0,0 0,0 0,0 z m -3.50635,5.89904 c -2.38167,0.5844 -4.90668,-0.7167 -5.7557,-3.1094 -0.30874,-0.87107 -0.3749,-1.7642 -0.17643,-2.66835 0.011,-0.0221 0.0221,-0.0551 0.0331,-0.0772 0,0.0221 0,0.0551 0.011,0.0772 0,0.011 0.011,0.0331 0.0221,0.0441 0,-0.0221 0.011,-0.0331 0.011,-0.0551 0,-0.0661 0,-0.13232 0.011,-0.2095 0.0661,0.0551 0.0221,0.13232 0.044,0.18744 0.0331,0.0882 0.0331,0.17643 0.0331,0.27566 -0.011,0.14335 0.12129,0.24258 0.22052,0.2536 0.18746,0.0221 0.29772,0.1654 0.46311,0.22053 0.0772,0.0221 0.12129,0.0993 0.13231,0.13232 0.0221,0.14334 0.13232,0.18744 0.22053,0.24258 0.0221,0.011 0.0441,0.0331 0.0661,0 0.0772,-0.15438 0.0882,-0.044 0.12129,0.0221 0.0772,0.16539 0.011,0.29771 -0.0772,0.43002 -0.0661,0.0882 -0.14334,0.17642 -0.0661,0.29771 0.011,0.011 0,0.0442 -0.011,0.0551 -0.0551,0.0882 -0.0221,0.15437 0.0331,0.23155 0.0772,0.11026 0.14335,0.22052 0.19847,0.34181 0.0772,0.15437 0.14335,0.29771 0.31976,0.3749 0.11027,0.0441 0.17643,0.14334 0.18746,0.27565 0.0331,0.37489 0.0882,0.74979 0.14333,1.11366 0.0331,0.22052 0.20951,0.37488 0.28669,0.57336 0.0331,0.0882 0.0882,0.16539 0.15436,0.24257 0.12129,0.14335 0.29772,0.15438 0.45208,0.23156 0.011,0 0.0331,0 0.044,0 -0.011,-0.011 -0.0331,-0.0221 -0.044,-0.0331 -0.0993,-0.0882 -0.30873,-0.11026 -0.17642,-0.31976 0,-0.011 -0.011,-0.0331 -0.011,-0.0331 -0.15437,-0.0331 -0.0772,-0.14334 -0.0661,-0.22052 0,-0.0441 0.0442,-0.0772 -0.0221,-0.0882 -0.011,0 -0.0221,-0.0221 -0.0221,-0.0331 0.12128,0.0331 0.0772,-0.14335 0.17641,-0.14335 0.14335,0 0.19847,-0.0551 0.12129,-0.19847 -0.0221,-0.0331 -0.0551,-0.0772 0.0331,-0.0551 0.0882,0.0221 0.13232,-0.011 0.15437,-0.0882 0.0221,-0.0772 0.0551,-0.15436 0.12129,-0.22053 0.0551,-0.0661 0.0882,-0.14333 0.0661,-0.24257 -0.0331,-0.1654 0.13231,-0.19848 0.23155,-0.2095 0.2095,-0.0221 0.22053,-0.16539 0.26462,-0.30874 0.0331,-0.11025 0.0331,-0.22052 0.0221,-0.3418 -0.011,-0.12129 0.0882,-0.19848 0.15437,-0.28669 0.0882,-0.11026 0.14334,-0.25361 0.0551,-0.35284 -0.0882,-0.0993 -0.19847,-0.20949 -0.35285,-0.22053 -0.22052,-0.011 -0.38591,-0.15436 -0.57336,-0.23154 -0.0661,-0.0221 -0.0661,-0.13232 -0.0882,-0.19847 -0.0551,-0.15437 -0.15436,-0.22054 -0.30873,-0.24258 -0.18745,-0.0221 -0.26463,-0.1654 -0.34181,-0.29772 -0.0551,-0.0992 -0.13232,-0.0551 -0.17643,-0.0442 -0.11026,0.0331 -0.19847,0 -0.27565,-0.044 -0.18745,-0.0992 -0.34181,-0.0661 -0.47413,0.13232 -0.0221,0.0331 -0.0551,0.0882 -0.11026,0.0331 -0.0331,-0.0331 -0.0772,-0.0331 -0.13232,-0.011 -0.0992,0.0442 -0.18744,-0.0331 -0.17642,-0.14334 0,-0.0442 0.011,-0.0882 0.0221,-0.13232 0.0331,-0.18744 0.0221,-0.20949 -0.1654,-0.18744 -0.0772,0.011 -0.0882,-0.011 -0.0551,-0.0772 0.0331,-0.0661 0.0661,-0.13231 0.0772,-0.2095 0.011,-0.0441 0.0772,-0.0993 0,-0.13232 -0.0551,-0.0221 -0.15438,0 -0.1654,0.0772 -0.0221,0.13231 -0.0993,0.16538 -0.20949,0.14334 -0.12129,-0.0331 -0.11027,-0.15437 -0.0882,-0.24258 0.0221,-0.17643 0.0331,-0.3749 0.22053,-0.48516 0.044,-0.0331 0.0882,-0.044 0.14334,-0.0331 0.0551,0.011 0.0993,0.011 0.15437,-0.044 0.0772,-0.0772 0.16539,-0.0221 0.2536,0 0.0661,0.0221 0.0331,0.0882 0.0441,0.13231 0.011,0.0661 0.011,0.1654 0.0772,0.15437 0.0772,0 0.0882,-0.0993 0.0661,-0.17642 -0.0441,-0.1654 0.011,-0.30873 0.1654,-0.38592 0.1654,-0.0882 0.24258,-0.23155 0.34182,-0.37489 0.0661,-0.11026 0.18744,-0.1654 0.2977,-0.24258 0.11026,-0.0661 0.19847,-0.18744 0.34182,-0.24258 0.0221,-0.011 0.044,-0.011 0.0551,-0.0221 -0.011,0.0221 -0.011,0.0331 -0.0221,0.0551 -0.011,0.0221 -0.0221,0.0331 0,0.044 0.011,0 0.0331,0 0.0442,-0.011 0.0331,-0.0442 0.0882,-0.0551 0.14334,-0.0661 0.0331,-0.011 0.0882,-0.0331 0.0993,-0.0551 0,-0.0441 -0.0551,-0.0221 -0.0772,-0.0441 -0.0442,-0.0331 -0.0442,-0.0661 -0.0221,-0.0993 0.0221,-0.0551 0.0992,-0.11026 -0.0331,-0.11026 0,0 -0.011,-0.011 -0.011,-0.0221 0.011,0 0.0221,-0.011 0.0331,-0.011 0.15437,-0.0331 0.31976,0.0221 0.4631,-0.0882 0.011,0 0.0221,0.011 0.0331,0.011 -0.011,0.011 -0.011,0.0221 -0.0221,0.0331 -0.0331,0.0772 -0.17642,0.11026 -0.13231,0.19847 0.0221,0.0441 0.15436,-0.0331 0.24257,0.0331 0.0331,0.0221 0.0882,0 0.0661,-0.0331 -0.0331,-0.0551 0.0772,-0.14335 -0.0221,-0.14335 -0.0993,-0.011 -0.0661,-0.044 -0.0442,-0.0882 0.0661,-0.11027 0.0882,-0.19847 -0.0551,-0.2536 -0.0772,-0.0331 -0.0331,-0.11027 -0.0551,-0.1654 -0.0221,-0.0882 -0.0331,-0.15437 -0.14335,-0.0661 -0.0442,0.0331 -0.16539,0.14335 -0.13231,-0.0551 0.011,-0.0441 -0.0661,-0.0882 -0.0993,-0.0882 -0.0882,0 -0.19847,-0.0551 -0.24258,0.0551 -0.044,0.0882 -0.15436,0.14334 -0.15436,0.26463 0,0.0331 -0.0551,0.0661 -0.0993,0.0882 -0.0882,0.0331 -0.15437,0.0772 -0.16539,0.17642 -0.011,0.0551 -0.0551,0.0993 -0.11027,0.0772 -0.0661,-0.0331 -0.011,-0.0882 0.011,-0.12129 0.0442,-0.0551 0.0442,-0.0992 -0.0442,-0.0882 -0.0882,0.011 -0.14335,-0.0772 -0.24258,-0.0882 -0.0331,0 -0.0331,-0.0882 0.011,-0.12129 0.14335,-0.14334 0.33079,-0.18745 0.49619,-0.29771 0.0441,-0.0331 0.0551,0.0993 0.0882,0.0331 0.0331,-0.0661 0.24258,0.0441 0.14334,-0.14334 0.0551,-0.0221 0.0993,-0.0331 0.15436,-0.0551 0.0772,-0.0331 0.0992,-0.13231 0.19848,-0.15437 0.0882,-0.011 0.18744,-0.0221 0.19847,0.0551 0.011,0.0772 -0.0993,0.0992 -0.16539,0.13232 -0.0331,0.011 -0.0661,0 -0.0993,0.011 -0.0221,0.011 -0.0551,0.0331 -0.0551,0.044 0,0.0331 0.0442,0.0221 0.0661,0.0221 0.0661,-0.011 0.12129,-0.011 0.16539,0.0551 0.0331,0.0441 0.15437,0.0661 0.15437,0.0441 0.011,-0.0993 0.26463,-0.0221 0.13231,-0.19848 0,-0.011 0,-0.0331 0,-0.0331 0.0221,-0.0221 0.0442,-0.011 0.0661,0.011 0.0772,0.0882 0.14334,0.011 0.17642,-0.0331 0.044,-0.0661 -0.0772,-0.0661 -0.0772,-0.0882 0,-0.14334 -0.13231,-0.12128 -0.19847,-0.16539 -0.0661,-0.0442 -0.12129,-0.0442 -0.18744,-0.0331 0.0221,0.011 0.0221,0.0441 0,0.0331 -0.0882,-0.0551 -0.15437,-0.011 -0.23155,0 -0.0772,0.0221 -0.14335,0.0221 -0.2095,-0.0221 -0.0442,-0.0331 -0.0882,-0.0221 -0.13232,0 -0.011,0 -0.0221,0.011 -0.0221,0.0221 0,0 0.011,0.011 0.0221,0.011 0.0331,0 0.0661,-0.0551 0.0993,-0.011 -0.0442,0.0331 -0.0882,0.0551 -0.14334,0.0661 v 0 c 0,0 0,0 0,0 -0.13232,-0.0221 -0.17642,0.0221 -0.1654,0.13232 0,0.0221 -0.011,0.0442 -0.0221,0.0661 -0.0551,-0.044 -0.16539,0.0331 -0.16539,-0.011 0,-0.0661 -0.0331,-0.1654 0.0551,-0.22053 1.05851,-0.62849 2.18318,-0.86004 3.39607,-0.65055 0.80492,0.14335 1.52163,0.46311 2.17217,0.95929 0.0331,0.0221 0.0551,0.0551 0.0772,0.0772 -0.0441,0.0221 -0.0661,-0.0221 -0.0993,-0.0331 -0.0993,-0.044 -0.18744,-0.12129 -0.29771,-0.14335 -0.14334,-0.0221 -0.28668,-0.0442 -0.39694,0.0772 -0.0772,0.0772 -0.1654,0.13232 -0.27566,0.15437 -0.0882,0.0221 -0.11026,0.0661 -0.0661,0.15437 0.0331,0.0882 0.0772,0.14334 0.16539,0.0992 0.0772,-0.044 0.11026,-0.011 0.15437,0.0441 0.0551,0.0661 0.0331,0.0882 -0.011,0.13231 -0.011,0.011 0.011,0.0551 -0.0331,0.044 -0.0551,0.011 -0.0442,-0.011 -0.0442,-0.044 0,-0.0331 0.0442,-0.0882 -0.0221,-0.0882 -0.0551,0 -0.0993,0.0551 -0.0772,0.11026 0.0442,0.0882 -0.011,0.11026 -0.0772,0.11026 -0.11025,0.011 -0.15436,0.14335 -0.25361,0.15437 -0.0551,0.12129 -0.18744,0.0551 -0.27565,0.11027 -0.0221,0.011 -0.0661,0 -0.0772,0.0331 0,0.011 0.0331,0.0331 0.0551,0.0441 0.0442,0.0221 0.0772,0.0551 0.11025,0.0882 0.0442,0.0551 0.0331,0.11026 0.011,0.1654 -0.0221,0.0661 -0.0772,0.0331 -0.12129,0.0331 -0.011,0 -0.0221,0 -0.0221,0 -0.28668,-0.0331 -0.37489,0.0551 -0.33079,0.34181 0.011,0.0551 0.011,0.13231 0.11027,0.12128 0.0772,0 0.11026,0.0551 0.0551,0.12129 -0.11026,0.13232 -0.23155,0.26464 -0.28669,0.44105 -0.0331,0.0772 -0.15436,0.0772 -0.20949,0.17643 -0.0772,0.17642 -0.27565,0.29771 -0.19847,0.54028 0.0331,0.0992 0,0.19848 -0.0331,0.30874 -0.0331,0.0992 -0.0331,0.22052 0.0661,0.30873 0.1654,0.13232 0.22052,0.35284 0.40798,0.46311 0.0772,0.0442 0.1323,0.0551 0.22052,0.0442 0.2095,-0.0221 0.40797,-0.0882 0.60644,-0.0993 0.12129,-0.011 0.25361,0.12128 0.38592,0.17642 0.0772,0.0331 0,0.17641 -0.011,0.26462 -0.011,0.0772 -0.011,0.13233 0.0441,0.18745 0.1654,0.17642 0.18745,0.39695 0.23155,0.61747 0.0221,0.0993 -0.0882,0.1654 -0.11026,0.26464 -0.0331,0.1323 -0.0551,0.25359 0.0221,0.37488 0.0772,0.12129 0.11026,0.25361 0.0882,0.39695 -0.011,0.14335 0.11026,0.22053 0.13232,0.34182 0.044,0.24258 0.0551,0.23154 0.30873,0.18744 0.28668,-0.0551 0.419,-0.28669 0.54029,-0.51823 0.0331,-0.0551 0.0331,-0.11026 0.0992,-0.13232 0.0661,-0.0331 0.0993,-0.12129 0.0772,-0.18744 -0.0331,-0.14334 0.0441,-0.24258 0.14334,-0.30873 0.2095,-0.13232 0.23155,-0.3308 0.17642,-0.51824 -0.0993,-0.36386 0.0772,-0.61747 0.28668,-0.86005 0.16539,-0.18744 0.22053,-0.39694 0.25361,-0.61747 0.011,-0.0551 0,-0.0992 -0.0772,-0.0551 -0.0331,0.0221 -0.0661,0.0331 -0.11026,0.044 -0.0551,0.011 -0.12129,0.0331 -0.15437,-0.044 -0.0442,-0.0992 0.0551,-0.0772 0.0882,-0.0882 0.19847,-0.11026 0.40797,-0.22053 0.44105,-0.48516 0.011,-0.0772 0,-0.15436 -0.0551,-0.22052 -0.0331,-0.0442 -0.0551,-0.0993 -0.0331,-0.15437 0.24257,0.26464 0.2095,0.61747 0.22052,0.9262 0.12129,2.3486 -1.45546,4.38845 -3.6938,4.93977 z m -4.24511,-5.5903 c -0.12129,-0.0772 -0.22052,-0.19848 -0.38591,-0.19848 -0.0442,0.011 -0.0993,0.0221 -0.14335,0.0661 -0.011,0.011 -0.0221,0.0551 0.011,0.0442 0.17642,-0.0661 0.27565,0.011 0.38591,0.13232 0.0221,0.0221 0.0882,0.0442 0.14335,0.011 0,-0.0221 -0.011,-0.0551 -0.011,-0.0551 z m 0.33079,0.12128 c -0.0442,-0.0661 -0.11026,-0.0772 -0.18744,-0.0882 -0.0993,-0.0221 -0.0551,0.12129 -0.13232,0.11026 0.0331,0.011 0.0661,0.0331 0.11026,0.0441 0.0661,-0.0331 0.14335,-0.0441 0.2095,-0.0661 z m 3.81508,-3.18658 c 0,-0.044 -0.0442,-0.0551 -0.0772,-0.0551 -0.0882,0 -0.17642,0 -0.26463,0 -0.0331,0 -0.0772,-0.0331 -0.0993,0.011 0.0441,0.0221 0.011,0.0993 0.0772,0.12129 0.0331,0.011 0.0772,0.011 0.12129,0.0221 0.0551,-0.011 0.12129,-0.0331 0.17642,-0.044 0.0331,-0.0221 0.0661,-0.0221 0.0661,-0.0551 z m 0.35284,0.59541 c 0.0661,0.0331 0.17642,0.0441 0.0551,0.15437 -0.0331,0.0331 0,0.11027 -0.0441,0.15437 0.0551,0.0331 0.0993,-0.011 0.14335,-0.011 0.0661,0 0.14333,-0.011 0.20949,-0.0221 0,-0.0992 -0.0551,-0.17641 -0.13231,-0.25359 -0.0221,-0.0221 -0.0551,-0.0551 -0.0551,-0.0882 0.011,-0.11025 -0.0551,-0.16539 -0.14333,-0.14334 -0.0882,0.0331 -0.0772,0.12129 -0.0331,0.2095 z m -0.0992,-0.0221 c -0.0551,0.011 -0.14333,0.0331 -0.14333,0.0992 0,0.044 -0.0661,0.11025 0,0.13232 0.0441,0.011 0.13231,-0.011 0.16539,-0.0441 0.044,-0.0442 0.0551,-0.11026 0.0772,-0.16539 -0.0331,-0.011 -0.0661,-0.0221 -0.0992,-0.0221 z m -0.7167,-0.77184 c 0.0442,0 0.0882,-0.0331 0.13232,-0.0551 0.0221,-0.011 0.044,-0.0221 0.0331,-0.0442 -0.12129,-0.13231 0.0442,-0.0551 0.0661,-0.0882 0.0221,-0.0221 0.0882,-0.0331 0.0993,-0.0551 0.0331,-0.14334 0.14334,-0.16539 0.27566,-0.16539 -0.011,0 0.011,-0.011 0.0221,-0.011 -0.011,-0.011 -0.0221,-0.0221 -0.0442,-0.0221 -0.12128,-0.0221 -0.24257,-0.0441 -0.36386,-0.0661 -0.51823,-0.0661 -1.03647,0.0442 -1.56573,0.011 -0.2977,-0.0221 -0.57337,0.11026 -0.87107,0.14334 -0.0441,0 -0.0882,0.0331 -0.13231,0.0442 -0.011,0 -0.0442,0.0331 -0.011,0.0331 0.0993,0.0221 0,0.0442 0,0.0442 -0.0331,0.044 -0.0882,0.0221 -0.13232,0.0331 -0.0221,0.011 -0.0551,0.0331 -0.0551,0.0441 0.011,0.0331 0.0442,0.011 0.0661,0.011 0.0772,0 0.15438,0 0.23156,-0.011 v 0 c 0.1654,-0.12129 0.35284,-0.16539 0.54028,-0.23156 0.0221,-0.011 0.0442,0 0.0661,-0.011 0,0.19847 0.14334,0.0661 0.20949,0.0882 0.0882,0.0221 0.22054,-0.0331 0.18746,0.14334 0,0.011 0.011,0.0221 0.0221,0.0331 0.0661,0.0551 0.0442,0.11025 -0.0221,0.13231 -0.13232,0.0331 -0.11026,0.14334 -0.12129,0.24258 0,0.15437 0.13232,0.16539 0.23155,0.2095 0.0882,0.0331 0.12129,-0.0441 0.16539,-0.0882 0.0882,-0.0772 0.14334,-0.18745 0.26463,-0.19847 0.24257,-0.0331 0.46311,-0.15437 0.70568,-0.1654 z m 3.83714,5.6344 c -0.011,-0.0331 -0.0221,-0.0551 -0.0221,-0.0882 -0.0221,0.0221 -0.0442,0.0442 -0.0551,0.0661 -0.0221,0.0331 -0.0331,0.0992 -0.0772,0.12129 -0.20949,0.14333 -0.15437,0.37488 -0.23155,0.57335 -0.011,0.0331 -0.011,0.0772 0.0331,0.0882 0.0331,0.011 0.0661,-0.011 0.0882,-0.0441 0.11025,-0.23154 0.2095,-0.46309 0.26463,-0.7167 z m -0.78287,-3.16452 c -0.0331,0.0772 -0.11026,0 -0.15437,0.011 -0.18744,0.044 -0.33079,-0.0441 -0.48515,-0.12129 -0.0551,-0.0221 -0.12129,-0.011 -0.13232,0.0331 -0.0772,0.25361 -0.17641,-0.0221 -0.25359,0.011 -0.011,0 -0.0331,-0.0551 -0.044,-0.0551 -0.17642,-0.0221 -0.29771,-0.0772 -0.24258,-0.2977 0.011,-0.0331 -0.0551,-0.0551 -0.0882,-0.044 -0.22053,0.0331 -0.46311,-0.0442 -0.66158,0.11027 -0.0221,0.0221 -0.0661,0 -0.0993,0 -0.0331,0 -0.0992,0.011 -0.0992,-0.0331 0,-0.0551 0.0551,-0.0441 0.0992,-0.0551 0.11026,-0.011 0.1654,-0.0772 0.2095,-0.17641 0.0551,-0.14335 0.19847,-0.2095 0.2977,-0.27566 0.22053,-0.16539 0.29772,0.0331 0.41901,0.12129 0.0442,0.0331 0.0882,0.0661 0.14333,0.0882 0.0331,0.0221 0.0661,0.0551 0.0551,0.0882 -0.011,0.0551 -0.0551,0.044 -0.0993,0.044 -0.0221,0.011 -0.0661,-0.0221 -0.0772,0.0221 0,0.011 0.0221,0.0331 0.0441,0.044 0.0331,0.011 0.0772,0.0661 0.0993,0.0221 0.0221,-0.0551 0.0661,-0.0882 0.0992,-0.14335 0.11026,-0.16539 -0.0772,-0.14334 -0.12129,-0.20949 -0.011,-0.0221 -0.0551,-0.0221 -0.0551,-0.0441 -0.0221,-0.0551 -0.13231,-0.0992 -0.0772,-0.15438 0.0551,-0.0551 0.0993,0.0551 0.15437,0.0772 0.2095,0.0772 0.23155,0.29771 0.34181,0.44105 0.0221,0.0331 0.0331,0.0992 0.0882,0.0772 0.0442,-0.0221 0.0661,-0.0772 0.0442,-0.13232 -0.011,-0.0551 -0.0551,-0.11026 0.0221,-0.13232 0.0882,-0.0221 0.0993,0.0551 0.11025,0.11027 0.0221,0.14334 0.11028,0.19847 0.25361,0.19847 0.0772,0 0.14335,0.0661 0.23155,0.0331 0.011,0 0.0331,0.011 0.0331,0.0331 0.011,0.13232 -0.0221,0.22053 -0.0551,0.30873 z m -1.40033,-0.65055 c -0.0221,-0.0551 0.011,-0.12129 -0.0441,-0.17642 -0.011,0.0551 -0.0331,0.11025 -0.0442,0.16539 0.0331,0.0221 -0.011,0.0882 0.0551,0.0882 0.0331,-0.011 0.0442,-0.0551 0.0331,-0.0772 z m 1.3011,-0.2095 c -0.0442,0.011 -0.0772,0.011 -0.11027,-0.0331 -0.0331,-0.0441 -0.0661,-0.12129 -0.12129,-0.0661 -0.0661,0.0551 -0.0993,0.14335 -0.0772,0.23156 0.0221,0.0661 0.0882,0.0992 0.14335,0.0772 0.1323,-0.0551 0.24257,-0.0221 0.35283,0.0441 0.0331,0.0221 0.0882,0.0551 0.11026,0 0.0221,-0.0551 -0.0221,-0.0772 -0.0551,-0.0993 -0.0551,-0.0441 -0.12129,-0.0882 -0.1654,-0.14333 -0.0221,-0.0331 0.0221,-0.0993 -0.0661,-0.0882 -0.011,0 -0.0221,0 -0.0221,0.011 -0.0221,0.0442 0.0331,0.0331 0.0442,0.0551 0,0.011 -0.011,0.011 -0.0331,0.011 z m 0.34181,1.43341 c -0.0331,-0.0993 -0.0993,-0.17642 -0.15437,-0.26463 -0.011,-0.0221 -0.0331,-0.0441 -0.0661,-0.0331 -0.0442,0.011 -0.0221,0.0442 -0.011,0.0661 0.13232,0.26464 0.24258,0.54029 0.35284,0.80492 0.0221,0.0551 0.0882,0.0992 0.14335,0.15437 0.011,0.011 0.0221,0.011 0.0331,0.0221 0,-0.011 0.011,-0.0331 0,-0.011 0,-0.31976 -0.2095,-0.49618 -0.29772,-0.73876 z m -1.21289,-2.4809 c -0.0441,-0.0772 -0.011,-0.11026 0.0551,-0.14335 0.011,-0.011 0.0331,-0.0331 0.011,-0.0331 -0.0221,-0.011 -0.0661,-0.011 -0.0661,0 -0.0331,0.0772 -0.28668,0.0661 -0.0882,0.23156 0,0 0,0.0331 0,0.0331 -0.0772,0.0551 -0.0551,0.22051 -0.20949,0.19847 -0.011,0 -0.0442,0 -0.0221,0.0221 0.0882,0.11028 0.2095,0 0.31976,0.0331 0.0331,0.011 0.0551,-0.0331 0.0661,-0.0772 0.011,-0.12129 0.0442,-0.22052 0.19849,-0.14334 0.011,0.011 0.044,0.011 0.044,-0.011 0,0 -0.0221,-0.0221 -0.044,-0.0221 -0.0221,0 -0.0551,0 -0.0772,0 -0.0772,-0.011 -0.14334,-0.011 -0.18744,-0.0882 z m 1.98473,2.39269 c -0.11026,-0.0551 -0.20951,-0.12129 -0.24258,-0.24258 -0.011,-0.0221 -0.0331,-0.0661 -0.0661,-0.044 -0.0331,0.0221 -0.0221,0.0551 0,0.0882 0.0442,0.0661 0.0992,0.11026 0.12129,0.17642 0.0551,0.20949 0.11026,0.14334 0.18745,0.0221 0,0 0,0 0,0 z m -6.92448,-2.97709 c -0.0772,0.0442 0.044,0.0551 0.011,0.11027 -0.0331,0.0551 0.0551,0.0882 0.0772,0.0772 0.0993,-0.011 0.0993,-0.0992 0.0772,-0.17642 -0.011,-0.0442 -0.0551,-0.011 -0.0882,0 -0.0331,0.0221 -0.0551,0.0221 -0.0772,-0.011 -0.011,0 0,0 0,0 z m -0.78288,1.41136 c 0.011,-0.0442 -0.0331,-0.0551 -0.0661,-0.0551 -0.0661,0.011 -0.13232,0.0441 -0.16539,0.0882 -0.011,0.0221 0.0661,-0.011 0.0882,0.0221 0.0441,-0.0331 0.13232,0.0331 0.14333,-0.0551 z m -0.011,0.17642 c -0.0221,0.0221 0.011,0.0551 0.0221,0.0441 0.044,-0.0331 0.0993,-0.0661 0.13231,-0.11025 0.011,-0.011 -0.0551,-0.0331 -0.0993,-0.0331 -0.0882,-0.0221 -0.0221,0.0661 -0.0551,0.0992 z m 6.75909,3.16453 c -0.0551,0 -0.0772,0.0331 -0.0882,0.0772 0,0.0331 -0.011,0.0772 0.0442,0.0772 0.0551,0 0.0551,-0.0661 0.0772,-0.0993 0.0221,-0.0441 -0.011,-0.0441 -0.0331,-0.0551 z m -6.86936,-3.20863 c -0.0551,0.011 -0.0882,0.0551 -0.11026,0.0993 -0.0221,0.0331 -0.0442,0.0882 -0.0551,0.12128 0.011,0 0.0221,0.011 0.0331,0 0.0661,-0.0551 0.0661,-0.15436 0.15437,-0.20949 -0.0221,0 -0.0221,-0.011 -0.0221,-0.011 z"
       id="path2-2"
       style="fill:#434c5e;fill-opacity:1;stroke-width:0.110263" />
  </g>
</svg>
