<?xml version="1.0" encoding="UTF-8" standalone="no"?>
<svg
   width="32"
   version="1.1"
   height="32"
   viewBox="0 0 32 32"
   id="svg15"
   sodipodi:docname="folder-Relax.svg"
   inkscape:version="1.2.1 (9c6d41e410, 2022-07-14)"
   xmlns:inkscape="http://www.inkscape.org/namespaces/inkscape"
   xmlns:sodipodi="http://sodipodi.sourceforge.net/DTD/sodipodi-0.dtd"
   xmlns:xlink="http://www.w3.org/1999/xlink"
   xmlns="http://www.w3.org/2000/svg"
   xmlns:svg="http://www.w3.org/2000/svg"
   xmlns:rdf="http://www.w3.org/1999/02/22-rdf-syntax-ns#"
   xmlns:cc="http://creativecommons.org/ns#"
   xmlns:dc="http://purl.org/dc/elements/1.1/">
  <sodipodi:namedview
     pagecolor="#ffffff"
     bordercolor="#666666"
     borderopacity="1"
     objecttolerance="10"
     gridtolerance="10"
     guidetolerance="10"
     inkscape:pageopacity="0"
     inkscape:pageshadow="2"
     inkscape:window-width="1920"
     inkscape:window-height="1002"
     id="namedview17"
     showgrid="true"
     inkscape:zoom="13.876971"
     inkscape:cx="-14.592522"
     inkscape:cy="8.323142"
     inkscape:window-x="0"
     inkscape:window-y="0"
     inkscape:window-maximized="1"
     inkscape:current-layer="layer1"
     inkscape:document-rotation="0"
     inkscape:showpageshadow="2"
     inkscape:pagecheckerboard="0"
     inkscape:deskcolor="#d1d1d1">
    <inkscape:grid
       type="xygrid"
       id="grid1205" />
  </sodipodi:namedview>
  <defs
     id="defs5455">
    <linearGradient
       inkscape:collect="always"
       id="linearGradient860">
      <stop
         style="stop-color:#8fbcbb;stop-opacity:1;"
         offset="0"
         id="stop856" />
      <stop
         style="stop-color:#a3be8c;stop-opacity:1;"
         offset="1"
         id="stop858" />
    </linearGradient>
    <linearGradient
       inkscape:collect="always"
       id="linearGradient842">
      <stop
         style="stop-color:#5e81ac;stop-opacity:1;"
         offset="0"
         id="stop838" />
      <stop
         style="stop-color:#88c0d0;stop-opacity:1;"
         offset="1"
         id="stop840" />
    </linearGradient>
    <linearGradient
       inkscape:collect="always"
       xlink:href="#linearGradient860"
       id="linearGradient862-3"
       x1="113.94583"
       y1="366.97165"
       x2="406.08234"
       y2="159.71205"
       gradientUnits="userSpaceOnUse"
       gradientTransform="matrix(0.08570321,0,0,0.08743938,378.28739,508.28264)" />
    <linearGradient
       inkscape:collect="always"
       xlink:href="#linearGradient842"
       id="linearGradient844-5"
       x1="386.3063"
       y1="539.79773"
       x2="447.95114"
       y2="504.71896"
       gradientUnits="userSpaceOnUse"
       gradientTransform="matrix(0.42958153,0,0,0.53058974,221.62138,257.38787)" />
  </defs>
  <metadata
     id="metadata5458">
    <rdf:RDF>
      <cc:Work
         rdf:about="">
        <dc:format>image/svg+xml</dc:format>
        <dc:type
           rdf:resource="http://purl.org/dc/dcmitype/StillImage" />
      </cc:Work>
    </rdf:RDF>
  </metadata>
  <g
     inkscape:label="Capa 1"
     inkscape:groupmode="layer"
     id="layer1"
     transform="translate(-384.57143,-515.798)">
    <path
       style="fill:url(#linearGradient862-3);fill-opacity:1;stroke-width:0.080209"
       d="m 400.57019,522.24782 c -0.37217,0 -0.81143,-0.24718 -0.97828,-0.54656 l -0.74837,-1.34531 c -0.16604,-0.29936 -0.60665,-0.54365 -0.97864,-0.54424 l -8.23478,-0.0127 c -1.2155,-0.002 -1.57753,0.44329 -1.57721,1.42451 l 1.4e-4,0.41352 v 1.21698 l -1.4e-4,16.04705 c 0,0.43777 0.97463,1.4694 1.44445,1.4694 h 22.14814 c 0.48149,0 1.44445,-0.97959 1.44445,-1.4694 v -15.18384 c 0,-0.97959 -0.48148,-1.46939 -1.42084,-1.46939 z"
       id="path4-3-6"
       sodipodi:nodetypes="sccsssccscsssss" />
    <path
       style="fill:#434c5e;fill-opacity:1;stroke-width:0.082455"
       d="m 411.16402,528.32136 c 0,0.70043 -0.32854,1.27348 -1.08014,1.27348 h -19.06565 c -0.75159,0 -1.03939,-0.57305 -1.03939,-1.27348 v -3.62452 c 0,-0.97963 0.48148,-1.46942 1.44444,-1.46942 h 18.2963 c 0.96296,0 1.44444,0.48979 1.44444,1.46942 z"
       id="path8-6-2"
       sodipodi:nodetypes="sssssssss" />
    <path
       style="fill:url(#linearGradient844-5);fill-opacity:1;stroke-width:0.0927335"
       d="m 410.68254,525.18663 h -20.22222 c -1.92593,0 -2.88889,0.97959 -2.88889,2.93881 v 13.22462 c 0,1.46941 0.96296,2.44899 2.40741,2.44899 h 21.18518 c 1.44445,0 2.40741,-0.97958 2.40741,-2.44899 v -13.22462 c 0,-1.95922 -0.96296,-2.93881 -2.88889,-2.93881 z"
       id="path10-9"
       sodipodi:nodetypes="sssssssss" />
    <path
       d="m 401.25035,534.46376 -5.11169,4.46575 c -0.112,0.0978 -0.1248,0.27023 -0.0287,0.38416 l 0.71564,0.84771 c 0.0962,0.11401 0.2657,0.12703 0.37761,0.0292 l 5.11169,-4.4658 c 0.11206,-0.0978 0.12488,-0.27027 0.0287,-0.38418 l -0.71566,-0.84771 c -0.0962,-0.11407 -0.26561,-0.12709 -0.37767,-0.0291 z"
       id="path1170-2"
       style="fill:#434c5e;fill-opacity:1;stroke-width:0.024247" />
    <path
       d="m 402.10168,533.71999 -0.40587,0.35459 c -0.088,0.0767 -0.0981,0.21187 -0.0226,0.30142 l 0.79095,0.93694 c 0.0755,0.0896 0.20823,0.0996 0.29619,0.0231 l 0.40586,-0.35461 c 0.088,-0.0767 0.0981,-0.21182 0.0228,-0.30126 l -0.79099,-0.93692 c -0.0757,-0.0898 -0.20832,-0.0997 -0.29627,-0.0231 z"
       id="path1172-0"
       style="fill:#434c5e;fill-opacity:1;stroke-width:0.024247" />
    <path
       d="m 402.91727,533.00748 -0.40587,0.35458 c -0.088,0.0768 -0.098,0.21186 -0.0226,0.30142 l 0.79095,0.93692 c 0.0755,0.0896 0.20819,0.0996 0.29617,0.023 l 0.40586,-0.35461 c 0.0881,-0.0768 0.0981,-0.21182 0.0228,-0.30126 l -0.79099,-0.93692 c -0.0757,-0.0899 -0.20824,-0.0998 -0.29627,-0.0231 z"
       id="path1174-6"
       style="fill:#434c5e;fill-opacity:1;stroke-width:0.024247" />
    <path
       d="m 403.49617,530.89816 c -1.33801,-1.34009 -0.55796,-2.18801 -0.55796,-2.18801 0,0 -1.88795,1.50367 -0.0547,2.78497 1.59404,1.11429 0.80709,2.03839 0.80709,2.03839 0,1.6e-4 1.47626,-0.96286 -0.19434,-2.63535 z"
       id="path1401-1"
       style="fill:#434c5e;fill-opacity:1;stroke-width:0.0517266" />
    <path
       d="m 405.13314,532.70326 c 0,0 1.47576,-0.96265 -0.19489,-2.63506 -1.33801,-1.33958 -0.55796,-2.18749 -0.55796,-2.18749 0,0 -1.8879,1.50367 -0.0544,2.78495 1.59371,1.11361 0.80727,2.0376 0.80727,2.0376 z"
       id="path1403-5"
       style="fill:#434c5e;fill-opacity:1;stroke-width:0.0517266" />
  </g>
</svg>
