<?xml version="1.0" encoding="UTF-8" standalone="no"?>
<svg
   width="32"
   version="1.1"
   height="32"
   viewBox="0 0 32 32"
   id="svg15"
   sodipodi:docname="folder-docker.svg"
   inkscape:version="1.2.1 (9c6d41e410, 2022-07-14)"
   xmlns:inkscape="http://www.inkscape.org/namespaces/inkscape"
   xmlns:sodipodi="http://sodipodi.sourceforge.net/DTD/sodipodi-0.dtd"
   xmlns:xlink="http://www.w3.org/1999/xlink"
   xmlns="http://www.w3.org/2000/svg"
   xmlns:svg="http://www.w3.org/2000/svg"
   xmlns:rdf="http://www.w3.org/1999/02/22-rdf-syntax-ns#"
   xmlns:cc="http://creativecommons.org/ns#"
   xmlns:dc="http://purl.org/dc/elements/1.1/">
  <sodipodi:namedview
     pagecolor="#ffffff"
     bordercolor="#666666"
     borderopacity="1"
     objecttolerance="10"
     gridtolerance="10"
     guidetolerance="10"
     inkscape:pageopacity="0"
     inkscape:pageshadow="2"
     inkscape:window-width="1920"
     inkscape:window-height="1002"
     id="namedview17"
     showgrid="true"
     inkscape:zoom="13.876971"
     inkscape:cx="11.637986"
     inkscape:cy="14.160151"
     inkscape:window-x="0"
     inkscape:window-y="0"
     inkscape:window-maximized="1"
     inkscape:current-layer="layer1"
     inkscape:document-rotation="0"
     inkscape:showpageshadow="2"
     inkscape:pagecheckerboard="0"
     inkscape:deskcolor="#d1d1d1">
    <inkscape:grid
       type="xygrid"
       id="grid1205" />
  </sodipodi:namedview>
  <defs
     id="defs5455">
    <linearGradient
       inkscape:collect="always"
       xlink:href="#linearGradient860"
       id="linearGradient862"
       x1="113.94583"
       y1="366.97165"
       x2="406.08234"
       y2="159.71205"
       gradientUnits="userSpaceOnUse"
       gradientTransform="matrix(0.08570319,0,0,0.08743907,378.28739,508.28172)" />
    <linearGradient
       inkscape:collect="always"
       id="linearGradient860">
      <stop
         style="stop-color:#8fbcbb;stop-opacity:1;"
         offset="0"
         id="stop856" />
      <stop
         style="stop-color:#a3be8c;stop-opacity:1;"
         offset="1"
         id="stop858" />
    </linearGradient>
    <linearGradient
       inkscape:collect="always"
       xlink:href="#linearGradient842"
       id="linearGradient844"
       x1="386.3063"
       y1="539.79773"
       x2="447.95114"
       y2="504.71896"
       gradientUnits="userSpaceOnUse"
       gradientTransform="matrix(0.42958147,0,0,0.5305879,221.62139,257.38782)" />
    <linearGradient
       inkscape:collect="always"
       id="linearGradient842">
      <stop
         style="stop-color:#5e81ac;stop-opacity:1;"
         offset="0"
         id="stop838" />
      <stop
         style="stop-color:#88c0d0;stop-opacity:1;"
         offset="1"
         id="stop840" />
    </linearGradient>
  </defs>
  <metadata
     id="metadata5458">
    <rdf:RDF>
      <cc:Work
         rdf:about="">
        <dc:format>image/svg+xml</dc:format>
        <dc:type
           rdf:resource="http://purl.org/dc/dcmitype/StillImage" />
      </cc:Work>
    </rdf:RDF>
  </metadata>
  <g
     inkscape:label="Capa 1"
     inkscape:groupmode="layer"
     id="layer1"
     transform="translate(-384.57143,-515.798)">
    <path
       style="fill:url(#linearGradient862);fill-opacity:1;stroke-width:0.0802087"
       d="m 400.57017,522.24679 c -0.37214,0 -0.8114,-0.24719 -0.97825,-0.54655 l -0.74836,-1.34532 c -0.16607,-0.29933 -0.60667,-0.54365 -0.97866,-0.54421 l -8.23478,-0.0127 c -1.21549,-0.002 -1.57752,0.44328 -1.57721,1.42452 l 1.4e-4,0.41351 v 1.21696 l -1.4e-4,16.04701 c -10e-6,0.43776 0.97464,1.4694 1.44444,1.4694 h 22.14816 c 0.48149,0 1.44444,-0.9796 1.44444,-1.4694 v -15.18379 c 0,-0.9796 -0.4815,-1.46939 -1.42083,-1.46939 z"
       id="path4-3"
       sodipodi:nodetypes="sccsssccscsssss" />
    <path
       style="fill:#434c5e;fill-opacity:1;stroke-width:0.0824548"
       d="m 411.16403,528.32031 c 0,0.70041 -0.32856,1.27347 -1.08017,1.27347 h -19.06564 c -0.75158,0 -1.03939,-0.57306 -1.03939,-1.27347 v -3.62453 c 0,-0.9796 0.4815,-1.4694 1.44447,-1.4694 h 18.29626 c 0.96297,0 1.44447,0.4898 1.44447,1.4694 z"
       id="path8-6"
       sodipodi:nodetypes="sssssssss" />
    <path
       style="fill:url(#linearGradient844);fill-opacity:1;stroke-width:0.0927335"
       d="m 410.68253,525.18558 h -20.2222 c -1.92592,0 -2.8889,0.9796 -2.8889,2.9388 v 13.22459 c 0,1.4694 0.96298,2.449 2.4074,2.449 h 21.1852 c 1.44442,0 2.4074,-0.9796 2.4074,-2.449 v -13.22459 c 0,-1.9592 -0.96298,-2.9388 -2.8889,-2.9388 z"
       id="path10"
       sodipodi:nodetypes="sssssssss" />
    <path
       d="m 399.48843,540.798 c -2.31304,0 -3.75,-1.75615 -3.75,-4.58332 0,-0.23007 0.1866,-0.41668 0.41668,-0.41668 h 6.72564 c -0.0395,-0.16011 -0.059,-0.31918 -0.059,-0.47628 0,-1.06144 0.90372,-1.88291 0.9424,-1.91757 0.15789,-0.14155 0.39796,-0.14155 0.55585,0 0.0388,0.0347 0.94236,0.85613 0.94236,1.91757 0,0.0408 -10e-4,0.082 -0.004,0.12309 1.10596,-0.0674 2.00481,0.89842 2.04066,0.9383 0.14157,0.15828 0.14157,0.39757 0,0.55585 -0.0348,0.0386 -0.85574,0.94236 -1.91774,0.94236 -0.27058,0 -0.54483,-0.0575 -0.81992,-0.17168 -0.81012,1.73993 -2.97338,3.08836 -5.07281,3.08836 z m -2.90219,-4.16668 c 0.0779,1.13957 0.53608,3.33336 2.90219,3.33336 1.9106,0 3.95139,-1.35725 4.45635,-2.96368 0.0392,-0.12347 0.13305,-0.22196 0.25437,-0.26647 0.12288,-0.0446 0.25671,-0.0297 0.3666,0.0397 0.28645,0.1817 0.56072,0.27385 0.81545,0.27385 0.38087,0 0.73851,-0.20488 0.98142,-0.38736 -0.24211,-0.18207 -0.59934,-0.38656 -0.98142,-0.38656 -0.16362,0 -0.33609,0.0402 -0.52738,0.12307 -0.15661,0.0682 -0.33935,0.0328 -0.4602,-0.0876 -0.12083,-0.12085 -0.15584,-0.30318 -0.0879,-0.46025 0.083,-0.19143 0.12332,-0.36396 0.12332,-0.52751 0,-0.3807 -0.20507,-0.73838 -0.38741,-0.98125 -0.1823,0.24229 -0.38655,0.59933 -0.38655,0.98122 0,0.21607 0.0675,0.44918 0.201,0.69271 0.0707,0.12923 0.068,0.28583 -0.007,0.41258 -0.0749,0.12661 -0.21118,0.20429 -0.35849,0.20429 z"
       id="path2-3"
       style="fill:#434c5e;fill-opacity:1;stroke-width:0.416668" />
    <path
       d="m 401.98843,535.38132 h -1.25 c -0.23007,0 -0.41668,-0.18654 -0.41668,-0.41664 v -1.25 c 0,-0.23007 0.18661,-0.41668 0.41668,-0.41668 h 1.25 c 0.23028,0 0.41668,0.18661 0.41668,0.41668 v 1.25 c 0,0.2301 -0.1864,0.41664 -0.41668,0.41664 z m -0.83332,-0.83332 h 0.41664 v -0.41668 h -0.41664 z"
       id="path4"
       style="fill:#434c5e;fill-opacity:1;stroke-width:0.416668" />
    <path
       d="m 398.23843,535.38132 h -1.25 c -0.23007,0 -0.41668,-0.18654 -0.41668,-0.41664 v -1.25 c 0,-0.23007 0.18661,-0.41668 0.41668,-0.41668 h 1.25 c 0.23008,0 0.41668,0.18661 0.41668,0.41668 v 1.25 c 0,0.2301 -0.1866,0.41664 -0.41668,0.41664 z m -0.83332,-0.83332 h 0.41664 v -0.41668 h -0.41664 z"
       id="path6"
       style="fill:#434c5e;fill-opacity:1;stroke-width:0.416668" />
    <path
       d="m 399.48843,534.13132 h -1.25 c -0.23007,0 -0.41668,-0.18654 -0.41668,-0.41664 v -1.25 c 0,-0.23007 0.18661,-0.41668 0.41668,-0.41668 h 1.25 c 0.23008,0 0.41668,0.18661 0.41668,0.41668 v 1.25 c 0,0.2301 -0.1866,0.41664 -0.41668,0.41664 z m -0.83332,-0.83332 h 0.41664 v -0.41668 h -0.41664 z"
       id="path8"
       style="fill:#434c5e;fill-opacity:1;stroke-width:0.416668" />
    <path
       d="m 399.48843,535.38132 h -1.25 c -0.23007,0 -0.41668,-0.18654 -0.41668,-0.41664 v -1.25 c 0,-0.23007 0.18661,-0.41668 0.41668,-0.41668 h 1.25 c 0.23008,0 0.41668,0.18661 0.41668,0.41668 v 1.25 c 0,0.2301 -0.1866,0.41664 -0.41668,0.41664 z m -0.83332,-0.83332 h 0.41664 v -0.41668 h -0.41664 z"
       id="path10-5"
       style="fill:#434c5e;fill-opacity:1;stroke-width:0.416668" />
    <path
       d="m 400.73843,532.88132 h -1.25 c -0.23007,0 -0.41668,-0.18654 -0.41668,-0.41664 v -1.25 c 0,-0.23007 0.18661,-0.41668 0.41668,-0.41668 h 1.25 c 0.23008,0 0.41668,0.18661 0.41668,0.41668 v 1.25 c 0,0.2301 -0.1866,0.41664 -0.41668,0.41664 z m -0.83332,-0.83332 h 0.41664 v -0.41668 h -0.41664 z"
       id="path12"
       style="fill:#434c5e;fill-opacity:1;stroke-width:0.416668" />
    <path
       d="m 400.73843,534.13132 h -1.25 c -0.23007,0 -0.41668,-0.18654 -0.41668,-0.41664 v -1.25 c 0,-0.23007 0.18661,-0.41668 0.41668,-0.41668 h 1.25 c 0.23008,0 0.41668,0.18661 0.41668,0.41668 v 1.25 c 0,0.2301 -0.1866,0.41664 -0.41668,0.41664 z m -0.83332,-0.83332 h 0.41664 v -0.41668 h -0.41664 z"
       id="path14"
       style="fill:#434c5e;fill-opacity:1;stroke-width:0.416668" />
    <path
       d="m 400.73843,535.38132 h -1.25 c -0.23007,0 -0.41668,-0.18654 -0.41668,-0.41664 v -1.25 c 0,-0.23007 0.18661,-0.41668 0.41668,-0.41668 h 1.25 c 0.23008,0 0.41668,0.18661 0.41668,0.41668 v 1.25 c 0,0.2301 -0.1866,0.41664 -0.41668,0.41664 z m -0.83332,-0.83332 h 0.41664 v -0.41668 h -0.41664 z"
       id="path16"
       style="fill:#434c5e;fill-opacity:1;stroke-width:0.416668" />
    <circle
       cx="398.03006"
       cy="537.67322"
       id="circle18"
       style="fill:#434c5e;fill-opacity:1;stroke-width:0.416668"
       r="0.62500024" />
  </g>
</svg>
