<?xml version="1.0" encoding="UTF-8" standalone="no"?>
<svg
   width="32"
   version="1.1"
   height="32"
   viewBox="0 0 32 32"
   id="svg15"
   sodipodi:docname="folder-deb.svg"
   inkscape:version="1.2.1 (9c6d41e410, 2022-07-14)"
   xmlns:inkscape="http://www.inkscape.org/namespaces/inkscape"
   xmlns:sodipodi="http://sodipodi.sourceforge.net/DTD/sodipodi-0.dtd"
   xmlns:xlink="http://www.w3.org/1999/xlink"
   xmlns="http://www.w3.org/2000/svg"
   xmlns:svg="http://www.w3.org/2000/svg"
   xmlns:rdf="http://www.w3.org/1999/02/22-rdf-syntax-ns#"
   xmlns:cc="http://creativecommons.org/ns#"
   xmlns:dc="http://purl.org/dc/elements/1.1/">
  <sodipodi:namedview
     pagecolor="#ffffff"
     bordercolor="#666666"
     borderopacity="1"
     objecttolerance="10"
     gridtolerance="10"
     guidetolerance="10"
     inkscape:pageopacity="0"
     inkscape:pageshadow="2"
     inkscape:window-width="1920"
     inkscape:window-height="1002"
     id="namedview17"
     showgrid="true"
     inkscape:zoom="13.876971"
     inkscape:cx="-3.494999"
     inkscape:cy="8.323142"
     inkscape:window-x="0"
     inkscape:window-y="0"
     inkscape:window-maximized="1"
     inkscape:current-layer="layer1"
     inkscape:document-rotation="0"
     inkscape:showpageshadow="2"
     inkscape:pagecheckerboard="0"
     inkscape:deskcolor="#d1d1d1">
    <inkscape:grid
       type="xygrid"
       id="grid1205" />
  </sodipodi:namedview>
  <defs
     id="defs5455">
    <linearGradient
       inkscape:collect="always"
       id="linearGradient860">
      <stop
         style="stop-color:#8fbcbb;stop-opacity:1;"
         offset="0"
         id="stop856" />
      <stop
         style="stop-color:#a3be8c;stop-opacity:1;"
         offset="1"
         id="stop858" />
    </linearGradient>
    <linearGradient
       inkscape:collect="always"
       id="linearGradient842">
      <stop
         style="stop-color:#5e81ac;stop-opacity:1;"
         offset="0"
         id="stop838" />
      <stop
         style="stop-color:#88c0d0;stop-opacity:1;"
         offset="1"
         id="stop840" />
    </linearGradient>
    <linearGradient
       inkscape:collect="always"
       xlink:href="#linearGradient860"
       id="linearGradient862-3"
       x1="113.94583"
       y1="366.97165"
       x2="406.08234"
       y2="159.71205"
       gradientUnits="userSpaceOnUse"
       gradientTransform="matrix(0.08718413,0,0,0.08743938,378.12691,508.28164)" />
    <linearGradient
       inkscape:collect="always"
       xlink:href="#linearGradient842"
       id="linearGradient844-5"
       x1="386.3063"
       y1="539.79773"
       x2="447.95114"
       y2="504.71896"
       gradientUnits="userSpaceOnUse"
       gradientTransform="matrix(0.43700454,0,0,0.53058974,218.75379,257.38687)" />
  </defs>
  <metadata
     id="metadata5458">
    <rdf:RDF>
      <cc:Work
         rdf:about="">
        <dc:format>image/svg+xml</dc:format>
        <dc:type
           rdf:resource="http://purl.org/dc/dcmitype/StillImage" />
      </cc:Work>
    </rdf:RDF>
  </metadata>
  <g
     inkscape:label="Capa 1"
     inkscape:groupmode="layer"
     id="layer1"
     transform="translate(-384.57143,-515.798)">
    <path
       style="fill:url(#linearGradient862-3);fill-opacity:1;stroke-width:0.0808991"
       d="m 400.79481,522.24682 c -0.37861,0 -0.82546,-0.24718 -0.99518,-0.54656 l -0.76131,-1.34531 c -0.16891,-0.29936 -0.61713,-0.54365 -0.99556,-0.54424 l -8.37707,-0.0127 c -1.2365,-0.002 -1.60479,0.44329 -1.60447,1.42451 l 1.4e-4,0.41352 v 1.21698 l -1.4e-4,16.04705 c 0,0.43777 0.9915,1.4694 1.46942,1.4694 h 22.53086 c 0.4898,0 1.46939,-0.97959 1.46939,-1.4694 v -15.18384 c 0,-0.97959 -0.4898,-1.46939 -1.44538,-1.46939 z"
       id="path4-3-6"
       sodipodi:nodetypes="sccsssccscsssss" />
    <path
       style="fill:#434c5e;fill-opacity:1;stroke-width:0.0831644"
       d="m 411.57167,528.32036 c 0,0.70043 -0.3342,1.27348 -1.09879,1.27348 h -19.39509 c -0.76457,0 -1.05735,-0.57305 -1.05735,-1.27348 v -3.62452 c 0,-0.97963 0.4898,-1.46942 1.46941,-1.46942 h 18.61244 c 0.97959,0 1.46938,0.48979 1.46938,1.46942 z"
       id="path8-6-2"
       sodipodi:nodetypes="sssssssss" />
    <path
       style="fill:url(#linearGradient844-5);fill-opacity:1;stroke-width:0.0935314"
       d="m 411.08188,525.18563 h -20.57164 c -1.95921,0 -2.93881,0.97959 -2.93881,2.93881 v 13.22462 c 0,1.46941 0.9796,2.44899 2.44901,2.44899 h 21.55123 c 1.46942,0 2.44902,-0.97958 2.44902,-2.44899 v -13.22462 c 0,-1.95922 -0.9796,-2.93881 -2.93881,-2.93881 z"
       id="path10-9"
       sodipodi:nodetypes="sssssssss" />
    <path
       style="color:#232629;fill:#bf616a;fill-opacity:1;stroke:none;stroke-width:0.451967"
       d="m 402.07136,540.32479 c -0.54236,-0.0906 -1.31074,-0.40679 -1.7627,-0.70056 -1.03951,-0.67794 -1.71993,-1.43207 -2.14046,-2.37327 -0.13557,-0.31638 -0.21605,-0.54237 -0.45196,-1.35594 -0.0452,-0.20336 -0.12188,-0.43129 -0.15017,-0.5023 -0.0477,-0.1198 -0.0498,-0.16021 -0.0289,-0.55977 0.0198,-0.3616 0.0906,-0.90395 0.13558,-0.94732 0.006,-0.0104 0.0226,-0.0131 0.0349,-0.005 0.0427,0.0251 0.0816,-0.0914 0.1204,-0.35732 0.0213,-0.14574 0.0543,-0.29853 0.0738,-0.33958 0.0195,-0.0412 0.0524,-0.13168 0.0732,-0.20136 0.0479,-0.1604 0.11334,-0.28365 0.31551,-0.5948 0.0891,-0.13684 0.18132,-0.28589 0.20538,-0.33119 0.0281,-0.0533 0.0591,-0.0793 0.0878,-0.074 0.0272,0.005 0.0724,-0.0292 0.11973,-0.0919 0.20553,-0.27127 1.17361,-1.07164 1.26317,-1.04434 0.0244,0.007 0.12665,-0.026 0.22704,-0.0746 0.1816,-0.088 0.26162,-0.10806 0.26162,-0.0665 0,0.0124 -0.0261,0.0395 -0.0581,0.0605 -0.0562,0.0375 -0.055,0.0382 0.0323,0.0177 0.0499,-0.0119 0.13396,-0.0279 0.18678,-0.0368 0.0654,-0.0105 0.0919,-0.0261 0.0827,-0.0487 -0.008,-0.0198 0.011,-0.0395 0.0466,-0.0485 0.0894,-0.023 0.22833,-0.0192 0.22833,0.006 0,0.0304 -0.0794,0.0612 -0.14261,0.055 -0.0432,-0.004 -0.0452,-4.5e-4 -0.013,0.0208 0.0321,0.0213 0.0324,0.0256 0.002,0.0258 -0.0203,1.9e-4 -0.03,0.007 -0.0222,0.0148 0.008,0.008 0.0624,-0.009 0.12013,-0.0374 0.0578,-0.0282 0.16406,-0.0639 0.23583,-0.0783 0.0885,-0.0181 0.13047,-0.0395 0.13047,-0.0654 0,-0.0334 0.0413,-0.0364 0.31759,-0.0221 0.17466,0.009 0.43828,0.035 0.58572,0.0582 0.26816,0.0423 0.26818,0.0423 0.3681,-0.0132 0.11984,-0.0663 0.31262,-0.0747 0.36327,-0.0162 0.0185,0.0216 0.0696,0.0566 0.11338,0.0784 0.0715,0.0355 0.0761,0.0356 0.046,4.5e-4 -0.0572,-0.0666 -3.9e-4,-0.0649 0.22117,0.006 0.7144,0.22959 1.29678,0.6385 1.72888,1.21393 0.10247,0.13647 0.1087,0.19782 0.0118,0.11477 l -0.0554,-0.0475 0.0426,0.0795 c 0.0234,0.044 0.0425,0.0931 0.0425,0.10937 0,0.0164 0.0687,0.13726 0.15265,0.26868 0.18924,0.29622 0.24217,0.39598 0.22948,0.43254 -0.005,0.0158 -0.0894,-0.0888 -0.18631,-0.23183 -0.0969,-0.14315 -0.24059,-0.33608 -0.31903,-0.42868 -0.11714,-0.13827 -0.14782,-0.16193 -0.17173,-0.13237 -0.016,0.0199 -0.055,0.0397 -0.0871,0.044 l -0.0576,0.008 0.057,0.10754 c 0.0314,0.059 0.0616,0.0955 0.0665,0.0807 0.0272,-0.0784 0.15431,0.0248 0.2121,0.1724 0.0187,0.0478 0.0686,0.1465 0.11065,0.21914 0.0423,0.0726 0.0713,0.13719 0.065,0.14341 -0.006,0.006 -0.045,-0.014 -0.0855,-0.0442 l -0.0735,-0.0554 0.0501,0.0827 c 0.0275,0.0454 0.0738,0.1011 0.1027,0.12361 0.0361,0.0279 0.0532,0.0724 0.0547,0.14147 0.003,0.12738 0.0789,0.27791 0.12036,0.23822 0.0645,-0.0621 0.0775,-0.0233 0.0617,0.17926 -0.0122,0.14916 -0.005,0.24747 0.0228,0.35187 0.0432,0.15846 0.0337,0.19754 -0.029,0.12349 -0.0402,-0.0472 -0.0407,-0.047 -0.0226,0.002 0.0385,0.10479 0.0673,0.26151 0.0591,0.32305 -0.0152,0.11478 -0.0598,0.0671 -0.0752,-0.0798 l -0.0152,-0.14353 -0.005,0.15271 c -0.002,0.084 -0.023,0.24639 -0.0457,0.36078 -0.023,0.11556 -0.0345,0.25556 -0.0261,0.31504 0.0158,0.11184 0.005,0.11616 -0.0928,0.0361 -0.0397,-0.0325 -0.0465,-0.0259 -0.0737,0.071 -0.023,0.0815 -0.0228,0.12814 9.9e-4,0.19653 0.017,0.0493 0.0267,0.1161 0.0221,0.1485 -0.0113,0.0747 -0.0737,0.098 -0.0737,0.0274 0,-0.0889 -0.0349,-0.0569 -0.14255,0.12804 -0.29012,0.49994 -0.74917,0.88683 -1.2687,1.06934 -0.3063,0.10761 -0.51174,0.14751 -0.85716,0.16647 l -0.31107,0.0171 0.15369,0.0454 c 0.12395,0.0368 0.19672,0.0423 0.37589,0.0281 0.23474,-0.0182 0.51038,-0.0671 0.63535,-0.11267 0.0498,-0.0182 0.0835,-0.019 0.10078,-0.003 0.0408,0.0392 -0.32042,0.19235 -0.53472,0.22711 -0.3647,0.059 -0.85283,-0.005 -1.28376,-0.16805 -0.29234,-0.11079 -0.72619,-0.39929 -0.65972,-0.43869 0.0127,-0.007 0.0951,0.0302 0.18343,0.0839 0.11283,0.0685 0.1605,0.0868 0.1605,0.0608 0,-0.0487 0.0167,-0.0464 0.10636,0.0149 0.0808,0.0552 0.33003,0.15809 0.50936,0.21016 0.19553,0.0566 0.11969,-0.0121 -0.14258,-0.12941 -0.82935,-0.37106 -1.17364,-0.74218 -1.34523,-1.45006 -0.0632,-0.25959 0.005,-0.82866 0.11926,-1.00686 0.0289,-0.0451 0.0528,-0.10067 0.0528,-0.12344 0,-0.0985 0.17133,-0.35911 0.34713,-0.52782 0.30977,-0.29728 0.63182,-0.42069 1.04989,-0.40231 0.20211,0.009 0.28842,0.0258 0.45662,0.0904 0.19075,0.0729 0.43099,0.22554 0.35743,0.22712 -0.0173,3.7e-4 -0.0932,-0.024 -0.16853,-0.054 -0.1146,-0.0458 -0.18805,-0.0549 -0.44813,-0.0558 -0.36525,-10e-4 -0.54375,0.0483 -0.80369,0.22385 -0.36851,0.24885 -0.57342,0.53543 -0.646,0.90354 -0.0487,0.24695 -0.0501,0.31539 -0.0122,0.56036 0.0221,0.14119 0.0375,0.18261 0.065,0.17255 0.0231,-0.008 0.0361,0.004 0.0361,0.0342 0,0.0877 0.19836,0.44238 0.33596,0.60105 0.33113,0.3819 0.8668,0.6256 1.37503,0.6256 0.2638,0 0.47704,-0.0486 0.67332,-0.15343 0.0787,-0.0424 0.17831,-0.0936 0.22109,-0.11437 0.15094,-0.0734 0.24456,-0.15727 0.35403,-0.31709 0.0611,-0.089 0.12704,-0.1615 0.14702,-0.1615 0.0294,0 0.0281,0.013 -0.007,0.0685 -0.1157,0.18326 0.15587,-0.14999 0.2965,-0.36383 l 0.15752,-0.23953 -0.0172,-0.15733 c -0.0165,-0.1512 -0.0143,-0.16043 0.0615,-0.23634 0.0726,-0.0731 0.079,-0.0948 0.0877,-0.29026 0.007,-0.17494 0.002,-0.21126 -0.0297,-0.21147 -0.0298,-1.7e-4 -0.0429,-0.0463 -0.0555,-0.19927 -0.0171,-0.20253 -0.18888,-0.884 -0.22887,-0.90772 -0.0121,-0.007 -0.0455,-0.0727 -0.0744,-0.14561 -0.0974,-0.24612 -0.26839,-0.48279 -0.53488,-0.74062 -0.38346,-0.37094 -0.86648,-0.65736 -1.32276,-0.78439 -0.38812,-0.10806 -1.04716,-0.0689 -1.51659,0.0904 -0.22911,0.0775 -0.45484,0.18042 -0.49294,0.22447 -0.0173,0.0201 -0.0425,0.0298 -0.0555,0.0221 -0.0144,-0.008 -0.0101,-0.0306 0.009,-0.0529 0.0867,-0.0999 -0.20052,0.0828 -0.38525,0.24567 -0.11168,0.0983 -0.20713,0.1818 -0.2121,0.18549 -0.005,0.004 0.0168,1.8e-4 0.0483,-0.007 0.0524,-0.0134 0.0546,-0.009 0.0261,0.0416 -0.0182,0.0326 -0.11328,0.0916 -0.22979,0.14226 -0.19572,0.0854 -0.32231,0.17889 -0.4229,0.31286 -0.0403,0.0534 -0.0426,0.0652 -0.0106,0.0532 0.0224,-0.008 0.0408,-0.003 0.0408,0.0115 0,0.071 -0.0673,0.15036 -0.16691,0.19682 -0.22079,0.10294 -0.60862,0.65275 -0.81639,1.15736 -0.0926,0.22486 -0.0911,0.21707 -0.0409,0.21707 0.053,0 0.0493,0.0577 -0.0236,0.36841 -0.10615,0.45251 -0.10627,0.43801 0.009,1.07458 0.14086,0.77561 0.22315,1.0347 0.37961,1.19523 0.0368,0.0375 0.0723,0.11776 0.0885,0.19823 0.019,0.0961 0.0508,0.15954 0.11055,0.21989 0.0543,0.0549 0.0725,0.089 0.0516,0.0961 -0.0412,0.0145 0.0876,0.198 0.20449,0.29257 0.059,0.0475 0.10258,0.0638 0.14986,0.0547 0.10365,-0.019 0.20918,0.0384 0.37136,0.20162 0.16856,0.16972 0.18544,0.21534 0.0739,0.19964 -0.0719,-0.01 -0.0735,-0.008 -0.0382,0.0438 0.0205,0.0297 0.0954,0.10153 0.16691,0.15933 0.10025,0.081 0.12619,0.11634 0.11357,0.15441 -0.0181,0.0547 0.0335,0.10588 0.15043,0.14875 0.0724,0.0264 0.0958,0.0839 0.0416,0.10143 -0.0165,0.005 0.0858,0.10612 0.22685,0.22405 0.15915,0.13291 0.26621,0.20579 0.28147,0.19154 0.0405,-0.0376 0.0921,-0.026 0.0929,0.0207 9.7e-4,0.0509 0.0468,0.10448 0.21139,0.24725 0.10399,0.0904 0.12996,0.10165 0.19372,0.0849 0.0583,-0.0156 0.0951,-0.005 0.17735,0.0478 0.16404,0.10642 0.26352,0.14888 0.3487,0.14888 0.0839,0 0.0957,0.0232 0.0521,0.10111 -0.0231,0.0415 -0.0181,0.0481 0.0347,0.0481 0.0339,0 0.12948,0.0226 0.21237,0.0497 0.18845,0.0625 0.26706,0.0666 0.21985,0.0119 -0.0698,-0.0805 0.004,-0.0585 0.25351,0.0754 0.34835,0.18748 0.52457,0.20888 1.21824,0.14805 0.10267,-0.009 0.13609,-0.004 0.13609,0.0216 0,0.0218 -0.0893,0.0539 -0.25277,0.0921 -0.21512,0.0499 -0.32996,0.0598 -0.77125,0.0651 -0.34776,0.004 -0.58529,-0.005 -0.72127,-0.0274 z m -0.35465,-3.72967 c 0,-0.005 -0.0321,-0.0281 -0.0713,-0.0512 l -0.0713,-0.0419 0.0613,0.0512 c 0.0596,0.05 0.0812,0.061 0.0812,0.0419 z m 3.56941,-2.60745 c -0.008,-0.0199 -0.0147,-0.0142 -0.0157,0.0152 -9.9e-4,0.0261 0.005,0.0411 0.0138,0.0326 0.008,-0.008 0.009,-0.0296 0.002,-0.0477 z m -5.8832,-2.60931 c 0.0322,-0.0396 0.0313,-0.0405 -0.01,-0.009 -0.0249,0.0188 -0.0452,0.0385 -0.0452,0.0437 0,0.0206 0.0214,0.007 0.055,-0.034 z m 0.29485,-0.23014 c 0.0256,-0.0273 0.0413,-0.0497 0.0342,-0.0497 -0.007,0 -0.0343,0.0225 -0.06,0.0497 -0.0256,0.0273 -0.0413,0.0497 -0.034,0.0497 0.007,0 0.0342,-0.0226 0.0598,-0.0497 z m 0.32634,-0.1749 c 0.0856,-0.0275 0.13403,-0.0326 0.15205,-0.0156 0.018,0.0174 0.085,0.007 0.20936,-0.0321 0.10057,-0.0316 0.17824,-0.0622 0.17262,-0.0674 -0.006,-0.005 -0.0887,0.0154 -0.18408,0.0458 -0.13124,0.0423 -0.17845,0.0483 -0.19309,0.0254 -0.0248,-0.0385 -0.26064,0.0372 -0.36205,0.11619 l -0.0693,0.0538 0.0744,-0.043 c 0.0411,-0.0237 0.13097,-0.0615 0.20001,-0.0837 z m 0.74739,-0.0634 c 0.0752,-0.0216 0.13241,-0.0435 0.12693,-0.0486 -0.0122,-0.0115 -0.28029,0.0623 -0.28029,0.0769 0,0.0151 0.002,0.0148 0.15336,-0.0282 z m 0.42993,-0.13563 0.10371,-0.0181 -0.0908,-0.002 c -0.0499,-10e-4 -0.11991,0.0151 -0.15556,0.0358 -0.0422,0.0246 -0.0466,0.0319 -0.0131,0.0205 0.0283,-0.01 0.0984,-0.0258 0.15554,-0.0359 z m 0.20589,-0.047 c 0.008,-0.0126 -0.009,-0.0167 -0.0375,-0.009 -0.0606,0.0154 -0.0682,0.0321 -0.0148,0.0321 0.0207,0 0.0441,-0.01 0.0518,-0.0227 z m 0.83705,0.007 c -0.008,-0.008 -0.0309,-0.009 -0.0496,-0.002 -0.0208,0.008 -0.0148,0.0141 0.0157,0.0152 0.0272,9.9e-4 0.0427,-0.005 0.034,-0.0131 z m -0.15502,-0.0269 c -0.0249,-0.006 -0.066,-0.006 -0.0909,0 -0.025,0.006 -0.005,0.0113 0.0452,0.0113 0.0499,0 0.0703,-0.005 0.0454,-0.0113 z m -0.25853,-0.0256 c -0.053,-0.005 -0.14643,-0.005 -0.20742,-1.7e-4 -0.0611,0.005 -0.0175,0.009 0.0965,0.01 0.11408,9e-5 0.16398,-0.004 0.1109,-0.009 z m -0.33828,-0.022 c -0.008,-0.008 -0.0309,-0.009 -0.0496,-0.002 -0.0208,0.008 -0.0147,0.0141 0.0159,0.0151 0.0273,9.7e-4 0.0428,-0.005 0.0338,-0.0131 z m -0.17547,5.97995 c -0.26408,-0.18158 -0.3619,-0.27552 -0.3619,-0.34744 0,-0.0381 0.009,-0.0694 0.02,-0.0694 0.0373,0 0.47885,0.44225 0.46921,0.47003 -0.005,0.0161 -0.0587,-0.006 -0.12725,-0.0532 z m -0.1359,-0.46104 c -0.13714,-0.13299 -0.1811,-0.20454 -0.12565,-0.20454 0.0332,0 0.28852,0.28041 0.28852,0.31701 0,0.0173 -0.003,0.0313 -0.007,0.0313 -0.004,0 -0.074,-0.0648 -0.15557,-0.14378 z m 1.5174,-0.54444 c -0.0724,-0.0278 -0.0271,-0.0799 0.0908,-0.10426 0.0678,-0.0144 0.17535,-0.0477 0.23918,-0.0752 0.064,-0.0273 0.12065,-0.0453 0.12628,-0.0403 0.005,0.005 -0.0234,0.0607 -0.0644,0.1229 -0.0739,0.11236 -0.0752,0.11303 -0.21698,0.11112 -0.0783,-9.7e-4 -0.1572,-0.007 -0.17503,-0.0145 z m 0.77779,-0.55653 c -0.07,-0.0269 -0.0729,-0.0729 -0.0149,-0.22937 0.0501,-0.13437 0.10226,-0.16088 0.0733,-0.0372 -0.0103,0.0444 -0.0244,0.10886 -0.0309,0.14305 l -0.0119,0.0625 0.0517,-0.0565 c 0.0306,-0.0334 0.0588,-0.11216 0.0695,-0.19254 0.01,-0.0747 0.0278,-0.12976 0.041,-0.12229 0.0321,0.019 0.0285,0.21573 -0.006,0.34799 -0.0303,0.11552 -0.0574,0.12898 -0.1719,0.0851 z m -6.13496,-0.31226 c -0.008,-0.0218 -0.0157,-0.10656 -0.0157,-0.18868 0,-0.10836 0.009,-0.14648 0.0323,-0.13905 0.0385,0.0122 0.0609,0.36707 0.0235,0.36707 -0.0136,0 -0.0314,-0.0177 -0.0402,-0.0395 z m 6.23676,-0.58195 c -0.0405,-0.0522 -0.0526,-0.0936 -0.0415,-0.13725 0.0236,-0.0898 0.0848,-0.0769 0.1301,0.0269 0.0704,0.16179 0.009,0.23761 -0.0891,0.11019 z m -6.24207,-0.39489 c -0.002,-0.14109 -2e-5,-0.14545 0.0651,-0.14307 0.0551,0.002 0.0685,0.016 0.0748,0.0783 0.007,0.0704 -0.0726,0.21011 -0.12004,0.21011 -0.01,0 -0.0187,-0.0656 -0.0199,-0.14548 z m 6.71997,-3.05854 c 0.004,-0.22263 0.0428,-0.29807 0.0731,-0.14218 0.0214,0.10863 -0.006,0.30043 -0.0469,0.33321 -0.0224,0.0177 -0.0289,-0.0307 -0.0261,-0.19103 z m -3.40643,-0.1334 c 0.0103,-0.0299 0.36805,-0.17058 0.43397,-0.17058 0.0774,0 -0.0617,0.0913 -0.22186,0.14546 -0.17879,0.0607 -0.22639,0.0662 -0.21211,0.0251 z"
       class="ColorScheme-Text"
       id="path7225-4" />
  </g>
</svg>
