<?xml version="1.0" encoding="UTF-8" standalone="no"?>
<svg
   height="32"
   width="32"
   version="1.1"
   id="svg25"
   sodipodi:docname="folder-games.svg"
   inkscape:version="1.2.1 (9c6d41e410, 2022-07-14)"
   xmlns:inkscape="http://www.inkscape.org/namespaces/inkscape"
   xmlns:sodipodi="http://sodipodi.sourceforge.net/DTD/sodipodi-0.dtd"
   xmlns:xlink="http://www.w3.org/1999/xlink"
   xmlns="http://www.w3.org/2000/svg"
   xmlns:svg="http://www.w3.org/2000/svg"
   xmlns:rdf="http://www.w3.org/1999/02/22-rdf-syntax-ns#"
   xmlns:cc="http://creativecommons.org/ns#"
   xmlns:dc="http://purl.org/dc/elements/1.1/">
  <metadata
     id="metadata31">
    <rdf:RDF>
      <cc:Work
         rdf:about="">
        <dc:format>image/svg+xml</dc:format>
        <dc:type
           rdf:resource="http://purl.org/dc/dcmitype/StillImage" />
      </cc:Work>
    </rdf:RDF>
  </metadata>
  <defs
     id="defs29">
    <linearGradient
       inkscape:collect="always"
       xlink:href="#linearGradient860"
       id="linearGradient862"
       x1="113.94583"
       y1="366.97165"
       x2="406.08234"
       y2="159.71205"
       gradientUnits="userSpaceOnUse"
       gradientTransform="matrix(0.08570321,0,0,0.08743912,-6.2840419,-7.5162799)" />
    <linearGradient
       inkscape:collect="always"
       id="linearGradient860">
      <stop
         style="stop-color:#8fbcbb;stop-opacity:1;"
         offset="0"
         id="stop856-3" />
      <stop
         style="stop-color:#a3be8c;stop-opacity:1;"
         offset="1"
         id="stop858-6" />
    </linearGradient>
    <linearGradient
       inkscape:collect="always"
       xlink:href="#linearGradient842-5"
       id="linearGradient844-7"
       x1="386.3063"
       y1="539.79773"
       x2="447.95114"
       y2="504.71896"
       gradientUnits="userSpaceOnUse"
       gradientTransform="matrix(0.42958153,0,0,0.53058823,-162.95005,-258.41033)" />
    <linearGradient
       inkscape:collect="always"
       id="linearGradient842-5">
      <stop
         style="stop-color:#5e81ac;stop-opacity:1;"
         offset="0"
         id="stop838-3" />
      <stop
         style="stop-color:#88c0d0;stop-opacity:1;"
         offset="1"
         id="stop840-5" />
    </linearGradient>
  </defs>
  <sodipodi:namedview
     pagecolor="#ffffff"
     bordercolor="#666666"
     borderopacity="1"
     objecttolerance="10"
     gridtolerance="10"
     guidetolerance="10"
     inkscape:pageopacity="0"
     inkscape:pageshadow="2"
     inkscape:window-width="1920"
     inkscape:window-height="1002"
     id="namedview27"
     showgrid="false"
     inkscape:zoom="9.8125"
     inkscape:cx="-8.611465"
     inkscape:cy="-3.7197452"
     inkscape:window-x="0"
     inkscape:window-y="0"
     inkscape:window-maximized="1"
     inkscape:current-layer="svg25"
     inkscape:document-rotation="0"
     inkscape:showpageshadow="2"
     inkscape:pagecheckerboard="0"
     inkscape:deskcolor="#d1d1d1" />
  <linearGradient
     id="a"
     gradientUnits="userSpaceOnUse"
     x2="0"
     y1="29"
     y2="8">
    <stop
       offset="0"
       stop-color="#3daee9"
       id="stop2" />
    <stop
       offset="1"
       stop-color="#6cc1ef"
       id="stop4" />
  </linearGradient>
  <path
     style="fill:url(#linearGradient862);fill-opacity:1;stroke-width:0.080209"
     d="m 15.998758,6.4488061 c -0.372166,0 -0.811431,-0.247183 -0.978274,-0.546546 l -0.748372,-1.345316 c -0.166039,-0.299339 -0.606657,-0.543661 -0.97864,-0.544218 l -8.2347819,-0.01272 c -1.215496,-0.0019 -1.577526,0.443279 -1.577209,1.424517 l 1.35e-4,0.413512 v 1.216963 l -1.35e-4,16.0470169 c -4e-6,0.437758 0.97463,1.4694 1.444445,1.4694 H 27.074074 c 0.481482,0 1.444445,-0.979601 1.444445,-1.4694 V 7.9182181 c 0,-0.979597 -0.481482,-1.469397 -1.420838,-1.469397 z"
     id="path4-3-6"
     sodipodi:nodetypes="sccsssccscsssss" />
  <path
     style="fill:#434c5e;fill-opacity:1;stroke-width:0.0824549"
     d="m 26.592593,12.522338 c 0,0.700407 -0.328544,1.273465 -1.080146,1.273465 H 6.4468011 c -0.751588,0 -1.039394,-0.573058 -1.039394,-1.273465 V 8.8978031 c 0,-0.9796 0.481482,-1.469401 1.444445,-1.469401 H 25.148148 c 0.962963,0 1.444445,0.489801 1.444445,1.469401 z"
     id="path8-6-2"
     sodipodi:nodetypes="sssssssss" />
  <path
     style="fill:url(#linearGradient844-7);fill-opacity:1;stroke-width:0.0927333"
     d="M 26.111111,9.3876041 H 5.8888891 c -1.925926,0 -2.888889,0.9795989 -2.888889,2.9387969 v 13.224596 c 0,1.469401 0.962963,2.449002 2.407407,2.449002 H 26.592593 C 28.037037,27.999999 29,27.020398 29,25.550997 V 12.326401 C 29,10.367203 28.037037,9.3876041 26.111111,9.3876041 Z"
     id="path10-9"
     sodipodi:nodetypes="sssssssss" />
  <g
     fill="#1272a5"
     id="g25-3-5-6-7-6"
     transform="matrix(0.48148148,0,0,0.48979985,0.9296301,2.4345841)"
     style="fill:#434c5e;fill-opacity:1">
    <path
       d="m 25,30 c -2.21,0 -4,2.685 -4,5.999 v 6.998 c 0,1.78 2.154,2.673 3.414,1.413 l 2.414,-2.413 h 0.676 a 2.5,2.5 0 0 0 1.996,1 2.5,2.5 0 0 0 1.992,-1 h 0.906 a 2.5,2.5 0 0 0 1.997,1 2.5,2.5 0 0 0 1.992,-1 h 0.785 l 2.414,2.413 C 40.846,45.67 43,44.777 43,42.997 V 35.999 C 43,32.685 41.21,30 39,30 Z m 0,1 h 14 c 1.657,0 3,2.238 3,4.999 v 6.998 c 0,0.89 -1.077,1.336 -1.707,0.707 l -2.707,-2.707 h -1.779 a 1.5,1.5 0 0 1 -1.412,1 A 1.5,1.5 0 0 1 33,41.042 v -0.045 h -2.088 a 1.5,1.5 0 0 1 -1.412,1 1.5,1.5 0 0 1 -1.412,-1 h -1.674 l -2.707,2.707 C 23.077,44.334 22,43.888 22,42.997 v -6.998 c 0,-2.76 1.343,-5 3,-5 z"
       id="path21-6-3-2-5-1"
       style="fill:#434c5e;fill-opacity:1" />
    <path
       d="m 25,31.996 v 2 h -2 v 2 h 2 v 2 h 2 v -2 h 2 v -2 h -2 v -2 z m 11,7.5 a 1.5,1.5 0 0 1 -1.5,1.5 1.5,1.5 0 0 1 -1.5,-1.5 1.5,1.5 0 0 1 1.5,-1.5 1.5,1.5 0 0 1 1.5,1.5 z m -5,0 a 1.5,1.5 0 0 1 -1.5,1.5 1.5,1.5 0 0 1 -1.5,-1.5 1.5,1.5 0 0 1 1.5,-1.5 1.5,1.5 0 0 1 1.5,1.5 z m 8,-2.5 a 1,1 0 0 1 -1,1 1,1 0 0 1 -1,-1 1,1 0 0 1 1,-1 1,1 0 0 1 1,1 z m 2,-2 a 1,1 0 0 1 -1,1 1,1 0 0 1 -1,-1 1,1 0 0 1 1,-1 1,1 0 0 1 1,1 z m -2,-2 a 1,1 0 0 1 -1,1 1,1 0 0 1 -1,-1 1,1 0 0 1 1,-1 1,1 0 0 1 1,1 z m -2,2 a 1,1 0 0 1 -1,1 1,1 0 0 1 -1,-1 1,1 0 0 1 1,-1 1,1 0 0 1 1,1 z"
       id="path23-7-5-9-3-2"
       style="fill:#434c5e;fill-opacity:1" />
  </g>
</svg>
