<?xml version="1.0" encoding="UTF-8" standalone="no"?>
<svg
   width="32"
   version="1.1"
   height="32"
   viewBox="0 0 32 32"
   id="svg17"
   sodipodi:docname="network-workgroup.svg"
   inkscape:version="1.2.1 (9c6d41e410, 2022-07-14)"
   xmlns:inkscape="http://www.inkscape.org/namespaces/inkscape"
   xmlns:sodipodi="http://sodipodi.sourceforge.net/DTD/sodipodi-0.dtd"
   xmlns:xlink="http://www.w3.org/1999/xlink"
   xmlns="http://www.w3.org/2000/svg"
   xmlns:svg="http://www.w3.org/2000/svg"
   xmlns:rdf="http://www.w3.org/1999/02/22-rdf-syntax-ns#"
   xmlns:cc="http://creativecommons.org/ns#"
   xmlns:dc="http://purl.org/dc/elements/1.1/">
  <sodipodi:namedview
     pagecolor="#ffffff"
     bordercolor="#666666"
     borderopacity="1"
     objecttolerance="10"
     gridtolerance="10"
     guidetolerance="10"
     inkscape:pageopacity="0"
     inkscape:pageshadow="2"
     inkscape:window-width="1920"
     inkscape:window-height="1002"
     id="namedview19"
     showgrid="false"
     inkscape:zoom="9.8125"
     inkscape:cx="-12.789809"
     inkscape:cy="2.089172"
     inkscape:window-x="0"
     inkscape:window-y="0"
     inkscape:window-maximized="1"
     inkscape:current-layer="layer1"
     inkscape:document-rotation="0"
     inkscape:showpageshadow="2"
     inkscape:pagecheckerboard="0"
     inkscape:deskcolor="#d1d1d1" />
  <defs
     id="defs5455">
    <linearGradient
       inkscape:collect="always"
       xlink:href="#linearGradient860-3"
       id="linearGradient862"
       x1="113.94583"
       y1="366.97165"
       x2="406.08234"
       y2="159.71205"
       gradientUnits="userSpaceOnUse"
       gradientTransform="matrix(0.08570321,0,0,0.08743938,378.28734,508.28164)" />
    <linearGradient
       inkscape:collect="always"
       id="linearGradient860-3">
      <stop
         style="stop-color:#8fbcbb;stop-opacity:1;"
         offset="0"
         id="stop856-6" />
      <stop
         style="stop-color:#a3be8c;stop-opacity:1;"
         offset="1"
         id="stop858-7" />
    </linearGradient>
    <linearGradient
       inkscape:collect="always"
       xlink:href="#linearGradient842-3"
       id="linearGradient844-5"
       x1="386.3063"
       y1="539.79773"
       x2="447.95114"
       y2="504.71896"
       gradientUnits="userSpaceOnUse"
       gradientTransform="matrix(0.42958153,0,0,0.53058974,221.62133,257.38687)" />
    <linearGradient
       inkscape:collect="always"
       id="linearGradient842-3">
      <stop
         style="stop-color:#5e81ac;stop-opacity:1;"
         offset="0"
         id="stop838-5" />
      <stop
         style="stop-color:#88c0d0;stop-opacity:1;"
         offset="1"
         id="stop840-6" />
    </linearGradient>
  </defs>
  <metadata
     id="metadata5458">
    <rdf:RDF>
      <cc:Work
         rdf:about="">
        <dc:format>image/svg+xml</dc:format>
        <dc:type
           rdf:resource="http://purl.org/dc/dcmitype/StillImage" />
      </cc:Work>
    </rdf:RDF>
  </metadata>
  <g
     inkscape:label="Capa 1"
     inkscape:groupmode="layer"
     id="layer1"
     transform="translate(-384.57143,-515.798)">
    <path
       style="fill:url(#linearGradient862);fill-opacity:1;stroke-width:0.080209"
       d="m 400.57014,522.24682 c -0.37217,0 -0.81143,-0.24718 -0.97828,-0.54656 l -0.74837,-1.34531 c -0.16604,-0.29936 -0.60665,-0.54365 -0.97864,-0.54424 l -8.23478,-0.0127 c -1.2155,-0.002 -1.57753,0.44329 -1.57721,1.42451 l 1.4e-4,0.41352 v 1.21698 l -1.4e-4,16.04705 c 0,0.43777 0.97463,1.4694 1.44445,1.4694 h 22.14814 c 0.48149,0 1.44445,-0.97959 1.44445,-1.4694 v -15.18389 c 0,-0.97959 -0.48148,-1.46939 -1.42084,-1.46939 z"
       id="path4-3-2"
       sodipodi:nodetypes="sccsssccscsssss" />
    <path
       style="fill:#434c5e;fill-opacity:1;stroke-width:0.082455"
       d="m 411.16397,528.32036 c 0,0.70043 -0.32854,1.27348 -1.08014,1.27348 h -19.06565 c -0.75159,0 -1.03939,-0.57305 -1.03939,-1.27348 v -3.62452 c 0,-0.97963 0.48148,-1.46942 1.44444,-1.46942 h 18.2963 c 0.96296,0 1.44444,0.48979 1.44444,1.46942 z"
       id="path8-6-9"
       sodipodi:nodetypes="sssssssss" />
    <path
       style="fill:url(#linearGradient844-5);fill-opacity:1;stroke-width:0.0927335"
       d="m 410.68249,525.18563 h -20.22222 c -1.92593,0 -2.88889,0.97959 -2.88889,2.93881 v 13.22462 c 0,1.46941 0.96296,2.44899 2.40741,2.44899 h 21.18518 c 1.44445,0 2.40741,-0.97958 2.40741,-2.44899 v -13.22462 c 0,-1.95922 -0.96296,-2.93881 -2.88889,-2.93881 z"
       id="path10-1"
       sodipodi:nodetypes="sssssssss" />
    <path
       d="m 405.05966,533.5618 h -8.97646 c -0.31421,0 -0.56978,-0.26431 -0.56978,-0.58919 v -1.80971 c 0,-0.32497 0.25557,-0.58928 0.56978,-0.58928 h 8.97645 c 0.31421,0 0.56979,0.26431 0.56979,0.58919 v 1.8098 c 0,0.32488 -0.25557,0.58919 -0.56978,0.58919 z m -8.97646,-2.55499 c -0.0793,0 -0.14396,0.07 -0.14396,0.15609 v 1.80971 c 0,0.0862 0.0646,0.15601 0.14396,0.15601 h 8.97645 c 0.0793,0 0.14397,-0.07 0.14397,-0.15601 v -1.8098 c 0,-0.0863 -0.0646,-0.156 -0.14397,-0.156 z"
       id="path2-2"
       style="fill:#434c5e;fill-opacity:1;stroke-width:0.111742" />
    <ellipse
       cx="404.18799"
       cy="532.0675"
       rx="0.44406193"
       ry="0.45108286"
       id="ellipse6-8"
       style="fill:#434c5e;fill-opacity:1;stroke-width:0.111742" />
    <path
       d="m 405.05966,540.36963 h -8.97646 c -0.31421,0 -0.56978,-0.26438 -0.56978,-0.58935 v -1.80963 c 0,-0.32487 0.25557,-0.58919 0.56978,-0.58919 h 8.97645 c 0.31421,0 0.56979,0.26432 0.56979,0.58919 v 1.80963 c 0,0.32498 -0.25557,0.58935 -0.56978,0.58935 z m -8.97646,-2.55499 c -0.0793,0 -0.14396,0.07 -0.14396,0.15601 v 1.80963 c 0,0.0864 0.0646,0.15618 0.14396,0.15618 h 8.97645 c 0.0793,0 0.14397,-0.0701 0.14397,-0.15618 v -1.80963 c 0,-0.0863 -0.0646,-0.15601 -0.14397,-0.15601 z"
       id="path10-3-9"
       style="fill:#434c5e;fill-opacity:1;stroke-width:0.111742" />
    <ellipse
       cx="404.18799"
       cy="538.87531"
       rx="0.44406193"
       ry="0.45108315"
       id="ellipse14-3"
       style="fill:#434c5e;fill-opacity:1;stroke-width:0.111742" />
    <path
       d="m 405.05966,536.96569 h -8.97646 c -0.31421,0 -0.56978,-0.26431 -0.56978,-0.58922 v -1.80969 c 0,-0.32492 0.25557,-0.58921 0.56978,-0.58921 h 8.97645 c 0.31421,0 0.56979,0.26429 0.56979,0.58921 v 1.80969 c 0,0.32491 -0.25557,0.58922 -0.56978,0.58922 z m -8.97646,-2.55492 c -0.0793,0 -0.14396,0.07 -0.14396,0.15601 v 1.80969 c 0,0.0863 0.0646,0.15602 0.14396,0.15602 h 8.97645 c 0.0793,0 0.14397,-0.07 0.14397,-0.15602 v -1.80969 c 0,-0.0862 -0.0646,-0.15601 -0.14397,-0.15601 z"
       id="path18-6"
       style="fill:#434c5e;fill-opacity:1;stroke-width:0.111742" />
    <ellipse
       cx="404.18799"
       cy="535.4715"
       rx="0.44406193"
       ry="0.45108286"
       id="ellipse22-8"
       style="fill:#434c5e;fill-opacity:1;stroke-width:0.111742" />
  </g>
</svg>
