<?xml version="1.0" encoding="UTF-8" standalone="no"?>
<svg
   width="64"
   height="64"
   viewBox="0 0 16.933 16.933"
   version="1.1"
   id="svg7506"
   sodipodi:docname="openoffice4-oasis-drawing.svg"
   inkscape:version="1.2.1 (9c6d41e410, 2022-07-14)"
   xmlns:inkscape="http://www.inkscape.org/namespaces/inkscape"
   xmlns:sodipodi="http://sodipodi.sourceforge.net/DTD/sodipodi-0.dtd"
   xmlns:xlink="http://www.w3.org/1999/xlink"
   xmlns="http://www.w3.org/2000/svg"
   xmlns:svg="http://www.w3.org/2000/svg">
  <sodipodi:namedview
     id="namedview7508"
     pagecolor="#ffffff"
     bordercolor="#666666"
     borderopacity="1.0"
     inkscape:showpageshadow="2"
     inkscape:pageopacity="0.0"
     inkscape:pagecheckerboard="0"
     inkscape:deskcolor="#d1d1d1"
     showgrid="true"
     inkscape:zoom="5.2149125"
     inkscape:cx="30.96888"
     inkscape:cy="53.883934"
     inkscape:window-width="1920"
     inkscape:window-height="1002"
     inkscape:window-x="0"
     inkscape:window-y="0"
     inkscape:window-maximized="1"
     inkscape:current-layer="svg7506">
    <inkscape:grid
       type="xygrid"
       id="grid535" />
  </sodipodi:namedview>
  <defs
     id="defs7478">
    <filter
       id="a"
       x="-0.038932178"
       y="-0.033367063"
       width="1.0778644"
       height="1.0667341"
       color-interpolation-filters="sRGB">
      <feGaussianBlur
         stdDeviation=".206"
         id="feGaussianBlur7475" />
    </filter>
    <linearGradient
       id="b"
       y1="17.498997"
       x1="47.583454"
       y2="24"
       gradientUnits="userSpaceOnUse"
       x2="54"
       gradientTransform="matrix(0.57725697,0,0,0.52915601,-16.355599,-4.2327147)">
      <stop
         stop-color="#060606"
         id="stop7777" />
      <stop
         offset="1"
         stop-opacity="0"
         id="stop7779" />
    </linearGradient>
    <linearGradient
       xlink:href="#a-4"
       id="c"
       x1="5"
       y1="30"
       x2="5"
       y2="2"
       gradientUnits="userSpaceOnUse"
       gradientTransform="matrix(0.57725697,0,0,0.52915601,-12.3148,5.332e-4)" />
    <linearGradient
       id="a-4"
       y1="392.35999"
       y2="365.35999"
       x2="0"
       gradientUnits="userSpaceOnUse"
       gradientTransform="translate(309.57,152.44)">
      <stop
         stop-color="#fff"
         stop-opacity="0"
         id="stop7783" />
      <stop
         offset="1"
         stop-color="#fff"
         stop-opacity=".2"
         id="stop7785" />
    </linearGradient>
  </defs>
  <path
     d="M 10.775478,1.058845 H 3.848395 c -0.959401,0 -1.73177,0.7080109 -1.73177,1.5874681 V 14.287745 c 0,0.879457 0.772369,1.587468 1.73177,1.587468 h 9.236112 c 0.959401,0 1.73177,-0.708011 1.73177,-1.587468 V 4.7629372 Z"
     fill="#383838"
     id="path7790"
     style="stroke-width:0.552683"
     sodipodi:nodetypes="csssssscc" />
  <path
     d="m 3.848395,1.058845 c -0.225707,0 -0.379834,0.146576 -0.577257,0.2180123 V 2.1160988 H 2.355609 C 2.277679,2.2965407 2.118355,2.4378256 2.117779,2.6441965 v 0.00105 H 3.271138 V 3.7035587 H 2.117779 V 4.2327146 H 3.271138 V 5.2910265 H 2.117779 V 5.8201827 H 3.271138 V 6.8784946 H 2.117779 v 0.52916 H 3.271138 V 8.4659709 H 2.117779 v 0.529156 H 3.271138 V 10.053439 H 2.117779 v 0.529156 h 1.153359 v 1.058312 H 2.117779 v 0.529156 h 1.153359 v 1.058312 H 2.117779 v 0.529156 h 1.153359 v 1.058312 H 2.354454 c 0.07793,0.1815 0.09814,0.387871 0.238984,0.529156 h 0.6777 V 15.6572 c 0.196275,0.0709 0.350396,0.216955 0.574949,0.216955 h 0.0024 V 15.344999 H 5.003 v 0.529156 h 0.577257 v -0.529156 h 1.154515 v 0.529156 h 0.577257 v -0.529156 h 1.154514 v 0.529156 h 0.577256 v -0.529156 h 1.154514 v 0.529156 h 0.577256 v -0.529156 h 1.154516 v 0.529156 h 0.577257 v -0.529156 h 1.154513 V 15.6572 c 0.197431,-0.07144 0.42313,-0.08995 0.577257,-0.21907 V 15.345 h 0.10045 c 0.140857,-0.141284 0.16106,-0.347655 0.238983,-0.529156 h -0.339427 v -1.058311 h 0.577257 v -0.529156 h -0.577257 v -1.058312 h 0.577257 v -0.529156 h -0.577257 v -1.058312 h 0.577257 V 10.053439 H 14.239118 V 8.9951269 h 0.577257 V 8.4659709 H 14.239118 V 7.4076588 h 0.577257 V 6.8785028 H 14.239118 V 5.8201909 h 0.577257 V 5.2910348 H 14.239118 V 4.2327229 L 13.661862,3.7035669 H 12.507348 V 2.6452548 L 11.930091,2.1160988 H 10.775576 V 1.058845 H 10.198319 V 2.1160988 H 9.043806 V 1.058845 H 8.466549 V 2.1160988 H 7.312036 V 1.058845 H 6.734779 V 2.1160988 H 5.580263 V 1.058845 H 5.003007 V 2.1160988 H 3.848493 Z m 0,1.5864098 H 5.002909 V 3.7035669 H 3.848395 Z m 1.73177,0 H 6.734681 V 3.7035669 H 5.580165 Z m 1.731773,0 H 8.466451 V 3.7035669 H 7.311938 Z m 1.73177,0 h 1.154513 V 3.7035669 H 9.043708 Z m 1.73177,0 h 1.154515 V 3.7035669 H 10.775478 Z M 3.848395,4.2327229 H 5.002909 V 5.2910348 H 3.848395 Z m 1.73177,0 H 6.734681 V 5.2910348 H 5.580165 Z m 1.731773,0 H 8.466451 V 5.2910348 H 7.311938 Z m 1.73177,0 h 1.154513 V 5.2910348 H 9.043708 Z m 1.731765,-0.264051 1.15452,0.264051 v 1.0583119 h -1.154515 z m 1.731777,0.264051 h 1.154513 V 5.2910348 H 12.50725 Z M 3.848395,5.8201909 H 5.002909 V 6.8785028 H 3.848395 Z m 1.73177,0 H 6.734681 V 6.8785028 H 5.580165 Z m 1.731773,0 H 8.466451 V 6.8785028 H 7.311938 Z m 1.73177,0 h 1.154513 V 6.8785028 H 9.043708 Z m 1.73177,0 h 1.154515 v 1.0583119 h -1.154515 z m 1.731772,0 h 1.154513 V 6.8785028 H 12.50725 Z M 3.848395,7.4076588 H 5.002909 V 8.4659709 H 3.848395 Z m 1.73177,0 H 6.734681 V 8.4659709 H 5.580165 Z m 1.731773,0 H 8.466451 V 8.4659709 H 7.311938 Z m 1.73177,0 h 1.154513 V 8.4659709 H 9.043708 Z m 1.73177,0 h 1.154515 v 1.0583121 h -1.154515 z m 1.731772,0 h 1.154513 V 8.4659709 H 12.50725 Z M 3.848395,8.9951269 H 5.002909 V 10.053439 H 3.848395 Z m 1.73177,0 H 6.734681 V 10.053439 H 5.580165 Z m 1.731773,0 H 8.466451 V 10.053439 H 7.311938 Z m 1.73177,0 h 1.154513 V 10.053439 H 9.043708 Z m 1.73177,0 h 1.154515 v 1.0583121 h -1.154515 z m 1.731772,0 h 1.154513 V 10.053439 H 12.50725 Z M 3.848395,10.582595 h 1.154514 v 1.058312 H 3.848395 Z m 1.73177,0 h 1.154516 v 1.058312 H 5.580165 Z m 1.731773,0 h 1.154513 v 1.058312 H 7.311938 Z m 1.73177,0 h 1.154513 v 1.058312 H 9.043708 Z m 1.73177,0 h 1.154515 v 1.058312 h -1.154515 z m 1.731772,0 h 1.154513 v 1.058312 H 12.50725 Z m -8.658855,1.587468 h 1.154514 v 1.058312 H 3.848395 v -0.529156 z m 1.73177,0 h 1.154516 v 1.058312 H 5.580165 v -0.529156 z m 1.731773,0 h 1.154513 v 1.058312 H 7.311938 v -0.529156 z m 1.73177,0 h 1.154513 v 1.058312 H 9.043708 v -0.529156 z m 1.73177,0 h 1.154515 v 1.058312 h -1.154515 v -0.529156 z m 1.731772,0 h 1.154513 v 1.058312 H 12.50725 v -0.529156 z m -8.658855,1.587468 h 1.154514 v 1.058312 H 3.848395 v -0.529156 z m 1.73177,0 h 1.154516 v 1.058312 H 5.580165 v -0.529156 z m 1.731773,0 h 1.154513 v 1.058312 H 7.311938 v -0.529156 z m 1.73177,0 h 1.154513 v 1.058312 H 9.043708 v -0.529156 z m 1.73177,0 h 1.154515 v 1.058312 h -1.154515 v -0.529156 z m 1.731772,0 h 1.154513 v 1.058312 H 12.50725 v -0.529156 z"
     color="#000000"
     opacity="0.15"
     fill="#ffffff"
     id="path7792"
     style="stroke-width:0.552683"
     sodipodi:nodetypes="ccccccccccccccccccccccccccccccccccccccccsccccccccccccccccccccccccccccccccccccccccccccccccccccccccccccccccccccccccccccccccccccccccccccccccccccccccccccccccccccccccccccccccccccccccccccccccccccccccccccccccccccccccccccccccccccccccccccccccccccccccccccccccccccccccccccccccccccccccccccccccccccccccccccccccccccccccccccccccccccccccccccccccccccccccccccccccccccccccccccccccccc" />
  <path
     d="m 3.848395,1.058845 c -0.4596167,-0.00106 -0.9007105,0.1659748 -1.225516,0.4640701 -0.01789,0.0164 -0.01156,0.047624 -0.02887,0.065086 h 8.181462 V 1.0588453 Z"
     color="#000000"
     opacity="0.5"
     fill="#ffffff"
     id="path7794"
     style="stroke-width:0.552683"
     sodipodi:nodetypes="cccccc" />
  <path
     d="m 2.593438,15.346057 c 0.01724,0.01746 0.01156,0.04868 0.02943,0.06508 0.3248055,0.298095 0.7658988,0.465125 1.225515,0.464069 h 9.236112 c 0.459617,0.0011 0.90071,-0.165974 1.225516,-0.464069 0.01789,-0.0164 0.01156,-0.04762 0.02886,-0.06508 z"
     color="#000000"
     opacity="0.25"
     id="path7796"
     style="stroke-width:0.552683"
     sodipodi:nodetypes="ccccccc" />
  <path
     d="m 10.775478,4.7629372 4.040799,3.7040919 V 4.7629372 Z"
     opacity="0.2"
     fill="url(#b)"
     fill-rule="evenodd"
     id="path7798"
     style="fill:url(#b);stroke-width:0.552683"
     sodipodi:nodetypes="cccc" />
  <path
     d="m 14.816277,4.7629372 -4.040799,-3.704092 -5e-6,2.9098267 c 0.02866,0.5291562 0.336808,0.7937343 1.130539,0.7937343 z M 11.831858,6.4985689 7.7910597,6.5006855 6.3819754,10.041268 5.4843409,8.6151929 h -0.577257 v 0.529156 h 0.247066 L 6.385439,11.098522 8.128755,7.0277249 h 3.70599 z m -2.3090274,1.058312 c -0.9594011,0 -1.7317709,0.7080107 -1.7317709,1.587468 -0.00232,1.3739591 1.7743581,2.0987031 2.8862843,1.1773721 v 0.410096 h 0.577257 V 7.5568809 H 10.677344 V 7.9669768 C 10.361373,7.7036596 9.9498567,7.5574843 9.5228306,7.5568809 m 0,0.529156 c 0.6396004,0 1.1545134,0.4720071 1.1545134,1.058312 0,0.5863048 -0.514913,1.0583121 -1.1545134,1.0583121 -0.6396008,0 -1.154514,-0.4720073 -1.154514,-1.0583121 0,-0.5863049 0.5149132,-1.058312 1.154514,-1.058312"
     id="path7800"
     style="color:#000000;fill:#afafaf;stroke-width:0.552683"
     sodipodi:nodetypes="ccccccccccccccccccccccccccsssc" />
  <path
     d="M 10.775478,1.058845 H 3.848395 c -0.959401,0 -1.73177,0.7080109 -1.73177,1.5874681 V 14.287745 c 0,0.879457 0.772369,1.587468 1.73177,1.587468 h 9.236112 c 0.959401,0 1.73177,-0.708011 1.73177,-1.587468 l 9.8e-5,-9.5253388 z"
     opacity="0.4"
     fill="url(#c)"
     id="path7804"
     style="fill:url(#c);stroke-width:0.552683"
     sodipodi:nodetypes="csssssscc" />
</svg>
