<?xml version="1.0" encoding="UTF-8" standalone="no"?>
<svg
   width="64"
   height="64"
   version="1.1"
   viewBox="0 0 16.933 16.933"
   id="svg34"
   sodipodi:docname="x-lmms-project.svg"
   inkscape:version="1.2.1 (9c6d41e410, 2022-07-14)"
   xmlns:inkscape="http://www.inkscape.org/namespaces/inkscape"
   xmlns:sodipodi="http://sodipodi.sourceforge.net/DTD/sodipodi-0.dtd"
   xmlns:xlink="http://www.w3.org/1999/xlink"
   xmlns="http://www.w3.org/2000/svg"
   xmlns:svg="http://www.w3.org/2000/svg">
  <sodipodi:namedview
     id="namedview36"
     pagecolor="#ffffff"
     bordercolor="#666666"
     borderopacity="1.0"
     inkscape:showpageshadow="2"
     inkscape:pageopacity="0.0"
     inkscape:pagecheckerboard="0"
     inkscape:deskcolor="#d1d1d1"
     showgrid="false"
     inkscape:zoom="3.6875"
     inkscape:cx="32.135593"
     inkscape:cy="32.135593"
     inkscape:window-width="1920"
     inkscape:window-height="1002"
     inkscape:window-x="0"
     inkscape:window-y="0"
     inkscape:window-maximized="1"
     inkscape:current-layer="svg34" />
  <defs
     id="defs20">
    <linearGradient
       id="linearGradient1082"
       x1="40"
       x2="46.906"
       y1="17"
       y2="8.9332"
       gradientTransform="matrix(.26458 0 0 .26458 -.0052368 -.26458)"
       gradientUnits="userSpaceOnUse">
      <stop
         stop-color="#eceff4"
         offset="0"
         id="stop2" />
      <stop
         stop-color="#d8dee9"
         offset="1"
         id="stop4" />
    </linearGradient>
    <linearGradient
       id="linearGradient1080"
       x1="21.039"
       x2="21.039"
       y1="2"
       y2="62"
       gradientTransform="matrix(.26458 0 0 .26458 -2.4288e-5 -.26458)"
       gradientUnits="userSpaceOnUse">
      <stop
         stop-color="#8fbcbb"
         offset="0"
         id="stop7" />
      <stop
         stop-color="#a3be8c"
         offset="1"
         id="stop9" />
    </linearGradient>
    <linearGradient
       id="linearGradient204"
       x1="8.4296"
       x2="8.5878"
       y1="3.1868"
       y2="13.84"
       gradientTransform="matrix(.61965 0 0 .61965 3.22 4.5424)"
       gradientUnits="userSpaceOnUse">
      <stop
         stop-color="#fff"
         offset="0"
         id="stop12" />
      <stop
         stop-color="#d8dee9"
         offset="1"
         id="stop14" />
    </linearGradient>
    <filter
       id="filter992"
       x="-0.087522578"
       y="-0.091900455"
       width="1.1750452"
       height="1.1838009"
       color-interpolation-filters="sRGB">
      <feGaussianBlur
         stdDeviation="0.25110956"
         id="feGaussianBlur17" />
    </filter>
    <linearGradient
       inkscape:collect="always"
       xlink:href="#linearGradient1080"
       id="linearGradient1161"
       x1="8.8352165"
       y1="1.058"
       x2="8.4665003"
       y2="15.875"
       gradientUnits="userSpaceOnUse" />
    <filter
       id="filter992-3"
       x="-0.087522578"
       y="-0.091900454"
       width="1.1750452"
       height="1.1838009"
       color-interpolation-filters="sRGB">
      <feGaussianBlur
         stdDeviation="0.25110956"
         id="feGaussianBlur17-6" />
    </filter>
    <linearGradient
       inkscape:collect="always"
       xlink:href="#linearGradient204"
       id="linearGradient1394"
       gradientUnits="userSpaceOnUse"
       gradientTransform="matrix(0.61965,0,0,0.61965,3.2201,3.7646149)"
       x1="8.4296"
       y1="3.1868"
       x2="8.5878"
       y2="13.84" />
  </defs>
  <g
     fill-rule="evenodd"
     id="g172">
    <path
       d="M 3.44,1.058 A 1.32,1.32 0 0 0 2.117,2.381 v 12.171 c 0,0.733 0.59,1.323 1.323,1.323 h 10.053 a 1.32,1.32 0 0 0 1.323,-1.323 V 4.233 L 11.642,1.058 Z"
       style="fill:url(#linearGradient1161);fill-opacity:1;paint-order:stroke fill markers"
       id="path168" />
    <path
       d="M 14.816,4.233 11.641,1.058 V 2.91 c 0,0.733 0.59,1.323 1.323,1.323 z"
       opacity="0.35"
       style="opacity:1;fill:#f2f2f2;fill-opacity:1;paint-order:stroke fill markers"
       id="path170" />
  </g>
  <path
     d="m 8.4664,6.0190149 -3.4428,1.9673 v 3.9347001 l 1.1476,0.65578 1.1476,-0.65578 v -1.3116 L 6.1712,9.9536349 v -1.3116 l 2.2953,-1.3116 2.2953,1.3116 v 1.3116 L 9.6142,10.609415 v 1.3116 l 1.1476,0.65578 1.1476,-0.65578 V 7.9863149 Z"
     opacity="0.46103"
     stroke-width="0.16395"
     id="path30-3"
     style="filter:url(#filter992-3)" />
  <path
     d="m 8.4664,5.7320149 -3.4428,1.9673 v 3.9347001 l 1.1476,0.65578 1.1476,-0.65578 v -1.3116 L 6.1712,9.6666349 v -1.3116 l 2.2953,-1.3116 2.2953,1.3116 v 1.3116 L 9.6142,10.322415 v 1.3116 l 1.1476,0.65578 1.1476,-0.65578 V 7.6993149 Z"
     stroke-width="0.16395"
     id="path32-5"
     style="fill:url(#linearGradient1394)" />
</svg>
