<?xml version="1.0" encoding="UTF-8" standalone="no"?>
<svg
   viewBox="0 0 64 64"
   version="1.1"
   id="svg16714"
   sodipodi:docname="kde.svg"
   width="64"
   height="64"
   inkscape:version="1.2.1 (9c6d41e410, 2022-07-14)"
   xmlns:inkscape="http://www.inkscape.org/namespaces/inkscape"
   xmlns:sodipodi="http://sodipodi.sourceforge.net/DTD/sodipodi-0.dtd"
   xmlns:xlink="http://www.w3.org/1999/xlink"
   xmlns="http://www.w3.org/2000/svg"
   xmlns:svg="http://www.w3.org/2000/svg">
  <sodipodi:namedview
     id="namedview16716"
     pagecolor="#ffffff"
     bordercolor="#666666"
     borderopacity="1.0"
     inkscape:showpageshadow="2"
     inkscape:pageopacity="0.0"
     inkscape:pagecheckerboard="0"
     inkscape:deskcolor="#d1d1d1"
     showgrid="false"
     inkscape:zoom="5.3636364"
     inkscape:cx="15.381356"
     inkscape:cy="15.194915"
     inkscape:window-width="1920"
     inkscape:window-height="1002"
     inkscape:window-x="0"
     inkscape:window-y="0"
     inkscape:window-maximized="1"
     inkscape:current-layer="svg16714" />
  <defs
     id="defs3051">
    <style
       type="text/css"
       id="current-color-scheme">
      .ColorScheme-Text {
        color:#eff0f1;
      }
      </style>
    <linearGradient
       inkscape:collect="always"
       xlink:href="#linearGradient1051"
       id="linearGradient1053"
       x1="-98.535088"
       y1="60.492455"
       x2="-97.570175"
       y2="5.4924579"
       gradientUnits="userSpaceOnUse"
       gradientTransform="matrix(1.0363636,0,0,1.0363637,135.11818,-1.692182)" />
    <linearGradient
       inkscape:collect="always"
       id="linearGradient1051">
      <stop
         style="stop-color:#5e81ac;stop-opacity:1;"
         offset="0"
         id="stop1047" />
      <stop
         style="stop-color:#8fbcbb;stop-opacity:1;"
         offset="1"
         id="stop1049" />
    </linearGradient>
  </defs>
  <rect
     ry="9.3428173"
     y="3.4999995"
     x="3.5000036"
     height="57"
     width="56.999992"
     id="rect1045"
     style="fill:url(#linearGradient1053);fill-opacity:1;stroke-width:2.84416;stroke-linecap:round"
     rx="9.3117266" />
  <path
     style="color:#eff0f1;fill:currentColor;fill-opacity:1;stroke:none;stroke-width:2.25003"
     d="m 35.011741,14.000001 -6.373605,0.595807 v 24.615083 l 6.303541,-0.860186 V 27.829574 l 8.404789,11.646144 6.583724,-1.985423 -8.61488,-11.18264 8.684921,-10.587282 -6.723792,-1.455769 -8.334748,10.587283 0.07025,-10.851886 z m -14.358096,6.0213 c -0.07126,0 -0.156421,0.03825 -0.210175,0.0675 l -2.451381,2.382105 c -0.104401,0.103501 -0.146791,0.276528 -0.07027,0.39713 l 2.87163,4.49983 c -0.515526,0.818785 -0.895417,1.715423 -1.190694,2.646033 l -5.323015,1.059315 c -0.148412,0.03825 -0.279971,0.1215 -0.279971,0.265727 v 3.308666 c 0,0.139502 0.137139,0.295654 0.279971,0.32963 l 5.182935,1.191165 c 0.275962,1.078889 0.69507,2.104226 1.2607,3.043388 l -3.011674,4.301828 c -0.08354,0.121502 -0.0401,0.295654 0.07027,0.39713 l 2.451419,2.315504 c 0.104401,0.0945 0.292807,0.144003 0.420213,0.0675 l 4.692683,-2.712633 c 0.922692,0.502881 1.889923,0.922511 2.941682,1.190714 l 1.120607,4.962888 c 0.03215,0.144001 0.128859,0.265278 0.279998,0.265278 h 3.50195 c 0.147602,0 0.314867,-0.128252 0.350161,-0.265278 l 1.260697,-4.962888 c 1.084136,-0.276528 2.1366,-0.730809 3.081763,-1.256866 l 4.622606,2.911537 c 0.127217,0.0765 0.312063,0.03825 0.420238,-0.0675 l 2.451372,-2.316178 c 0.105031,-0.103502 0.147219,-0.276528 0.07025,-0.396679 l -1.68095,-2.646259 -0.560318,0.198003 c -0.07997,0.03825 -0.163239,0 -0.210175,-0.0675 0,0 -1.059367,-1.516068 -2.451381,-3.441192 -1.6641,3.077138 -5.055381,5.161788 -8.965057,5.161788 -5.554694,0 -10.085699,-4.214302 -10.085699,-9.462492 0,-3.860374 2.454351,-7.180964 5.953372,-8.668233 V 22.27178 c -0.636862,0.211503 -1.236308,0.426606 -1.821065,0.728335 -4.34e-4,0 -0.06854,0 -0.07027,0 l -4.692634,-2.911987 c -0.06381,-0.03825 -0.13876,-0.072 -0.210198,-0.06525 z"
     class="ColorScheme-Text"
     id="path16712-5" />
</svg>
