<?xml version="1.0" encoding="UTF-8" standalone="no"?>
<svg
   viewBox="0 0 64 64"
   version="1.1"
   id="svg10972"
   sodipodi:docname="korg-todo.svg"
   width="64"
   height="64"
   inkscape:version="1.2.1 (9c6d41e410, 2022-07-14)"
   xmlns:inkscape="http://www.inkscape.org/namespaces/inkscape"
   xmlns:sodipodi="http://sodipodi.sourceforge.net/DTD/sodipodi-0.dtd"
   xmlns:xlink="http://www.w3.org/1999/xlink"
   xmlns="http://www.w3.org/2000/svg"
   xmlns:svg="http://www.w3.org/2000/svg">
  <sodipodi:namedview
     id="namedview10974"
     pagecolor="#ffffff"
     bordercolor="#666666"
     borderopacity="1.0"
     inkscape:showpageshadow="2"
     inkscape:pageopacity="0.0"
     inkscape:pagecheckerboard="0"
     inkscape:deskcolor="#d1d1d1"
     showgrid="true"
     inkscape:zoom="7.5853273"
     inkscape:cx="12.326429"
     inkscape:cy="16.676934"
     inkscape:window-width="1920"
     inkscape:window-height="1002"
     inkscape:window-x="0"
     inkscape:window-y="0"
     inkscape:window-maximized="1"
     inkscape:current-layer="svg10972">
    <inkscape:grid
       type="xygrid"
       id="grid11476" />
  </sodipodi:namedview>
  <defs
     id="defs3051">
    <style
       type="text/css"
       id="current-color-scheme">
      .ColorScheme-Text {
        color:#eff0f1;
      }
      </style>
    <linearGradient
       inkscape:collect="always"
       xlink:href="#linearGradient1051"
       id="linearGradient1053"
       x1="-98.535088"
       y1="60.492455"
       x2="-97.570175"
       y2="5.4924579"
       gradientUnits="userSpaceOnUse"
       gradientTransform="matrix(1.0363636,0,0,1.0363637,135.11818,-1.6921815)" />
    <linearGradient
       inkscape:collect="always"
       id="linearGradient1051">
      <stop
         style="stop-color:#5e81ac;stop-opacity:1;"
         offset="0"
         id="stop1047" />
      <stop
         style="stop-color:#8fbcbb;stop-opacity:1;"
         offset="1"
         id="stop1049" />
    </linearGradient>
  </defs>
  <rect
     ry="9.3428173"
     y="3.5"
     x="3.5"
     height="57"
     width="56.999992"
     id="rect1045"
     style="fill:url(#linearGradient1053);fill-opacity:1;stroke-width:2.84416;stroke-linecap:round"
     rx="9.3117266" />
  <path
     style="color:#eff0f1;fill:currentColor;fill-opacity:1;stroke:none;stroke-width:2.25"
     d="m 16.249996,14 v 4.5 h -2.25 v 2.25 h 2.25 V 23 h -2.25 v 2.25 h 2.25 v 13.5 h -2.25 V 41 h 2.25 v 2.25 h -2.25 v 2.25 h 2.25 V 50 h 6.75 27 V 47.75 14 h -27 z m 6.75,2.25 h 4.5 2.25 18 v 4.5 2.25 4.5 2.25 4.5 2.25 4.5 2.25 4.5 h -18 -2.25 -4.5 V 43.25 41 36.5 34.25 29.75 27.5 23 20.75 Z m 2.25,4.5 v 4.5 h 4.5 v -4.5 z m 6.75,0 V 23 h 13.5 v -2.25 z m -6.75,9 v 4.5 h 4.5 v -4.5 z m 6.75,0 V 32 h 13.5 v -2.25 z m -6.75,9 v 4.5 h 4.5 v -4.5 z m 6.75,0 V 41 h 13.5 v -2.25 z"
     class="ColorScheme-Text"
     id="path10970-3" />
</svg>
