<?xml version="1.0" encoding="UTF-8" standalone="no"?>
<svg
   width="22"
   height="21.999966"
   viewBox="0 0 22.000001 21.999965"
   id="svg8694"
   version="1.1"
   inkscape:version="1.2.1 (9c6d41e410, 2022-07-14)"
   sodipodi:docname="system-file-manager.svg"
   xmlns:inkscape="http://www.inkscape.org/namespaces/inkscape"
   xmlns:sodipodi="http://sodipodi.sourceforge.net/DTD/sodipodi-0.dtd"
   xmlns:xlink="http://www.w3.org/1999/xlink"
   xmlns="http://www.w3.org/2000/svg"
   xmlns:svg="http://www.w3.org/2000/svg"
   xmlns:rdf="http://www.w3.org/1999/02/22-rdf-syntax-ns#"
   xmlns:cc="http://creativecommons.org/ns#"
   xmlns:dc="http://purl.org/dc/elements/1.1/">
  <defs
     id="defs8696">
    <filter
       id="filter1178"
       x="-0.04799993"
       y="-0.04799993"
       width="1.096"
       height="1.096"
       color-interpolation-filters="sRGB">
      <feGaussianBlur
         stdDeviation="0.30691955"
         id="feGaussianBlur2" />
    </filter>
    <radialGradient
       id="radialGradient14805"
       cx="8.4665003"
       cy="8.4665003"
       r="7.5405002"
       gradientUnits="userSpaceOnUse"
       gradientTransform="matrix(1.2999292,0,0,1.295479,-29.169905,1020.062)">
      <stop
         stop-color="#4c566a"
         offset="0"
         id="stop5" />
      <stop
         stop-color="#3b4252"
         offset="1"
         id="stop7" />
    </radialGradient>
    <filter
       id="filter17779"
       x="-0.057820238"
       y="-0.095250525"
       width="1.1156405"
       height="1.190501"
       color-interpolation-filters="sRGB">
      <feGaussianBlur
         stdDeviation="0.23573362"
         id="feGaussianBlur10" />
    </filter>
    <linearGradient
       id="linearGradient1340"
       x1="8.5010996"
       x2="8.4890003"
       y1="16.007"
       y2="0.79374999"
       gradientUnits="userSpaceOnUse"
       gradientTransform="matrix(1.326172,0,0,1.326172,-29.3822,1019.8417)">
      <stop
         stop-color="#2e3440"
         offset="0"
         id="stop5-3" />
      <stop
         stop-color="#4c566a"
         offset="1"
         id="stop7-6" />
    </linearGradient>
    <linearGradient
       inkscape:collect="always"
       xlink:href="#linearGradient860"
       id="linearGradient862"
       x1="113.94583"
       y1="366.97165"
       x2="406.08234"
       y2="159.71205"
       gradientUnits="userSpaceOnUse"
       gradientTransform="matrix(0.05933303,0,0,0.05100549,-33.581525,1017.3546)" />
    <linearGradient
       inkscape:collect="always"
       id="linearGradient860">
      <stop
         style="stop-color:#8fbcbb;stop-opacity:1;"
         offset="0"
         id="stop856" />
      <stop
         style="stop-color:#a3be8c;stop-opacity:1;"
         offset="1"
         id="stop858" />
    </linearGradient>
    <linearGradient
       inkscape:collect="always"
       xlink:href="#linearGradient842"
       id="linearGradient844"
       x1="386.3063"
       y1="539.79773"
       x2="447.95114"
       y2="504.71896"
       gradientUnits="userSpaceOnUse"
       gradientTransform="matrix(0.2974026,0,0,0.30950574,-142.04262,871.00168)" />
    <linearGradient
       inkscape:collect="always"
       id="linearGradient842">
      <stop
         style="stop-color:#5e81ac;stop-opacity:1;"
         offset="0"
         id="stop838" />
      <stop
         style="stop-color:#88c0d0;stop-opacity:1;"
         offset="1"
         id="stop840" />
    </linearGradient>
  </defs>
  <sodipodi:namedview
     id="base"
     pagecolor="#ffffff"
     bordercolor="#666666"
     borderopacity="1.0"
     inkscape:pageopacity="0.0"
     inkscape:pageshadow="2"
     inkscape:zoom="22.627418"
     inkscape:cx="3.5134367"
     inkscape:cy="10.805475"
     inkscape:document-units="px"
     inkscape:current-layer="layer1"
     showgrid="true"
     units="px"
     inkscape:snap-bbox="true"
     inkscape:bbox-nodes="true"
     inkscape:object-nodes="true"
     inkscape:snap-global="true"
     inkscape:showpageshadow="false"
     showborder="true"
     inkscape:document-rotation="0"
     inkscape:window-width="1920"
     inkscape:window-height="1002"
     inkscape:window-x="0"
     inkscape:window-y="0"
     inkscape:window-maximized="1"
     inkscape:pagecheckerboard="0"
     inkscape:deskcolor="#d1d1d1"
     inkscape:lockguides="true">
    <inkscape:grid
       type="xygrid"
       id="grid1591"
       originx="0"
       originy="0" />
  </sodipodi:namedview>
  <metadata
     id="metadata8699">
    <rdf:RDF>
      <cc:Work
         rdf:about="">
        <dc:format>image/svg+xml</dc:format>
        <dc:type
           rdf:resource="http://purl.org/dc/dcmitype/StillImage" />
      </cc:Work>
    </rdf:RDF>
  </metadata>
  <g
     inkscape:label="Livello 1"
     inkscape:groupmode="layer"
     id="layer1"
     transform="translate(29.154112,-1020.0698)">
    <rect
       x="-29.154112"
       y="1020.0698"
       width="22"
       height="21.928574"
       fill="none"
       opacity="0.15"
       stroke-width="1.36519"
       id="rect19"
       style="stroke-linecap:round;stroke-linejoin:round" />
    <rect
       x="-28.154112"
       y="1021.0698"
       width="20"
       height="20"
       rx="3.9785159"
       ry="3.9785159"
       fill="url(#linearGradient1340)"
       stroke-width="1.62774"
       id="rect14"
       style="fill:url(#linearGradient1340);stroke-linecap:round;stroke-linejoin:round" />
    <path
       style="fill:url(#linearGradient862);fill-opacity:1;stroke-width:0.0509713"
       d="m -18.154988,1025.0698 c -0.999124,0 8.76e-4,-0.012 -0.677238,0 l -0.518112,-0.6726 c -0.11496,-0.1746 -0.419994,-0.3171 -0.677533,-0.3174 l -5.700995,-0.01 c -0.841493,0 -1.092119,0.2586 -1.091909,0.8309 l 8.3e-5,0.2413 v 0.7099 l -8.3e-5,9.3606 c -6e-6,0.2554 0.674735,0.8571 0.999983,0.8571 h 15.33336 c 0.333319,0 0.9999857,-0.5714 0.9999857,-0.8571 v -9.0567 c 0,-0.5714 -0.5333527,-1.086 -1.1836657,-1.086 z"
       id="path4-3"
       sodipodi:nodetypes="cccsssccscssssc" />
    <path
       style="fill:#434c5e;fill-opacity:1;stroke-width:0.052399"
       d="m -10.820767,1029.0437 c 0,0.4085 -0.227474,0.7428 -0.747823,0.7428 h -13.199279 c -0.520333,0 -0.719588,-0.3343 -0.719588,-0.7428 v -2.1143 c 0,-0.5714 0.333349,-0.8572 1.000027,-0.8572 h 12.666636 c 0.666678,0 1.000027,0.2858 1.000027,0.8572 z"
       id="path8-6"
       sodipodi:nodetypes="sssssssss" />
    <path
       style="fill:url(#linearGradient844);fill-opacity:1;stroke-width:0.0589309"
       d="m -11.154116,1027.2151 h -13.999992 c -1.333319,0 -2.000004,0.5714 -2.000004,1.7143 v 7.7142 c 0,0.8572 0.666685,1.4286 1.666655,1.4286 h 14.66669 c 0.9999741,0 1.666655,-0.5714 1.666655,-1.4286 v -7.7142 c 0,-1.1429 -0.6666809,-1.7143 -2.000004,-1.7143 z"
       id="path10"
       sodipodi:nodetypes="sssssssss" />
    <path
       d="m -11.186815,1031.9824 c 0.01314,-0.271 -0.275865,-0.5501 -0.393405,-0.6513 -0.64967,-1.6438 -2.982284,-1.0692 -3.437746,-0.9387 -1.186743,-0.7541 -2.100841,0.049 -2.109017,0.057 -0.04408,0.039 -0.06362,0.1 -0.05062,0.1583 0.01307,0.057 0.05715,0.1028 0.114293,0.1191 0.36567,0.1045 0.641535,0.4588 0.757388,0.6302 -0.852075,0.9973 -0.883077,2.419 -0.874935,2.7848 -1.06268,0.8798 -0.726399,1.7858 -0.710108,1.8249 0.02287,0.057 0.07509,0.098 0.137146,0.1028 0.0047,0 0.0098,0 0.0146,0 0.05548,0 0.109411,-0.03 0.13878,-0.078 0.194261,-0.3133 0.437504,-0.5027 0.721504,-0.5631 0.507644,-0.1077 1.000623,0.2204 1.005518,0.2236 0.03748,0.026 0.08485,0.036 0.13057,0.024 0.04408,-0.012 0.08322,-0.041 0.104456,-0.082 0.256253,-0.4717 -0.140406,-1.0724 -0.287328,-1.2699 0.187687,-0.7967 0.648044,-1.2586 1.008766,-1.5083 l -0.07343,0.1221 c -0.02287,0.041 -0.02934,0.088 -0.01474,0.1322 0.01307,0.046 0.04568,0.082 0.08818,0.1012 0.159938,0.07 0.383582,0.077 0.667649,0.018 0.236733,-0.051 0.465245,-0.173 0.661133,-0.3542 0.256253,-0.235 0.541954,-0.253 0.541954,-0.253 h 1.622606 c 0.03754,0 0.07183,-0.013 0.101202,-0.034 0.138779,-0.1094 0.177923,-0.2286 0.187686,-0.3101 0.0132,-0.108 -0.02107,-0.1994 -0.05208,-0.2582 z m -1.147538,-0.1763 h -0.08981 c -0.08981,0 -0.163273,-0.073 -0.163273,-0.1633 0,-0.09 0.07347,-0.1633 0.163273,-0.1633 h 0.08981 c 0.09143,0 0.163266,0.073 0.163266,0.1633 0,0.09 -0.07183,0.1633 -0.163266,0.1633 z"
       id="path49"
       style="fill:#ffffff;fill-opacity:1;stroke-width:0.016032" />
  </g>
</svg>
